<svg width="371" height="344" viewBox="0 0 371 344" fill="none" xmlns="http://www.w3.org/2000/svg">
<path fill-rule="evenodd" clip-rule="evenodd" d="M339.108 189.701C330.223 268.418 263.42 329.592 182.328 329.592C141.308 329.592 103.944 313.939 75.8836 288.28L110.949 268.035L114.019 282.478L95.5787 293.124L116.755 295.35L121.181 316.177L129.842 296.726L151.018 298.951L135.194 284.704L143.588 265.851C150.802 268.826 158.432 270.995 166.368 272.246L170.136 289.973L151.696 300.619L172.872 302.845L177.299 323.672L185.959 304.22L207.135 306.446L191.312 292.199L199.972 272.747L181.532 283.393L169.669 272.711C173.816 273.226 178.041 273.491 182.328 273.491C238.486 273.491 284.011 227.967 284.011 171.809C284.011 170.586 283.989 169.368 283.946 168.155L300.001 158.886L303.07 173.329L284.631 183.975L305.806 186.201L310.233 207.028L318.894 187.576L339.108 189.701ZM303.494 156.869L314.467 166.749L332.907 156.103L324.246 175.554L339.185 189.005C339.797 183.357 340.111 177.62 340.111 171.809C340.111 160.149 338.846 148.784 336.447 137.844L303.494 156.869ZM297.012 63.4422L246.267 92.7399C245.744 92.3167 245.217 91.8985 244.686 91.4854L252.841 73.1693L274.016 75.3949L258.193 61.1475L266.853 41.6959L248.414 52.3421L232.59 38.0947L237.017 58.9218L218.577 69.5681L239.753 71.7937L243.793 90.7992C227.901 78.7225 208.347 71.2153 187.089 70.2355L194.157 54.3592L215.333 56.5849L199.51 42.3375L208.17 22.8859L189.731 33.5321L173.907 19.2847L178.334 40.1118L159.894 50.758L181.07 52.9837L184.72 70.1536C183.925 70.1352 183.127 70.126 182.328 70.126C145.403 70.126 113.076 89.8074 95.2634 119.252L83.9438 109.06L92.6042 89.6082L74.1644 100.254L58.341 86.007L62.768 106.834L44.3282 117.48L65.504 119.706L69.9309 140.533L78.5913 121.082L93.3083 122.628C85.239 137.203 80.6451 153.969 80.6451 171.809C80.6451 176.285 80.9343 180.694 81.4951 185.017L66.7074 171.702L75.3678 152.25L56.928 162.897L41.1046 148.649L45.5316 169.476L27.0918 180.123L48.2676 182.348L52.6945 203.175L61.3549 183.724L81.607 185.852C81.6902 186.454 81.7786 187.055 81.8723 187.653L31.1009 216.966C26.8352 202.659 24.5442 187.502 24.5442 171.809C24.5442 84.6673 95.1863 14.0252 182.328 14.0252C227.505 14.0252 268.248 33.0124 297.012 63.4422ZM309.469 56.2502C278.042 21.6933 232.718 0 182.328 0C87.4404 0 10.519 76.9214 10.519 171.809C10.519 190.064 13.3662 207.654 18.6406 224.16L0 234.922L42.0756 307.799L63.1951 295.606C94.0828 325.337 136.07 343.617 182.328 343.617C277.215 343.617 354.136 266.696 354.136 171.809C354.136 157.573 352.405 143.742 349.142 130.515L370.022 118.459L327.947 45.5819L309.469 56.2502ZM128.343 257.993L114.442 266.018L125.415 275.898L143.139 265.665C137.978 263.507 133.031 260.936 128.343 257.993ZM135.287 253.983L276.997 172.167C276.804 224.287 234.493 266.479 182.328 266.479C165.206 266.479 149.145 261.933 135.287 253.983ZM239.725 96.5166L88.4192 183.873C87.9167 179.923 87.6577 175.896 87.6577 171.809C87.6577 119.524 130.043 77.1386 182.328 77.1386C203.908 77.1386 223.802 84.3594 239.725 96.5166ZM295.875 217.377L280.052 203.13L284.478 223.957L266.039 234.603L287.214 236.829L291.641 257.656L300.302 238.205L321.478 240.43L305.654 226.183L314.315 206.731L295.875 217.377Z" fill="white"/>
</svg>
