<svg width="290" height="53" viewBox="0 0 290 53" fill="none" xmlns="http://www.w3.org/2000/svg">
<g clip-path="url(#clip0_94_39973)">
<path d="M286.893 5.56431C285.65 4.07158 284.097 2.86673 282.342 2.03312C280.587 1.1995 278.672 0.757017 276.729 0.736187C274.877 0.730799 273.044 1.11485 271.35 1.86344C269.656 2.61203 268.138 3.70841 266.895 5.08149C265.72 3.69466 264.256 2.58229 262.605 1.82272C260.955 1.06316 259.157 0.674869 257.34 0.685315C253.875 0.630266 250.52 1.90313 247.963 4.24287C243.71 1.47403 238.744 9.26207e-05 233.67 9.26207e-05C228.595 9.26207e-05 223.629 1.47403 219.376 4.24287C216.895 1.99903 213.674 0.750286 210.329 0.736187C206.866 0.710123 203.533 2.05262 201.054 4.47164C198.508 2.09343 195.161 0.759965 191.677 0.736187C189.93 0.760161 188.204 1.12256 186.595 1.80342C184.133 1.02966 181.542 0.75323 178.972 0.990237H167.283C162.455 0.990237 160.625 0.99024 158.033 2.18457C157.174 2.55951 156.363 3.03734 155.619 3.60759C154.191 2.48556 152.551 1.66445 150.797 1.1938C149.043 0.723157 147.212 0.612784 145.414 0.869261C143.617 1.12574 141.89 1.74375 140.337 2.68608C138.785 3.62841 137.44 4.8755 136.383 6.35205C135.131 4.62886 133.493 3.22316 131.6 2.24785C129.706 1.27253 127.611 0.754808 125.481 0.736187C122.383 0.710121 119.378 1.80172 117.019 3.81092C114.585 1.82917 111.544 0.743708 108.405 0.736187C105.439 0.705667 102.548 1.6721 100.197 3.48057C96.2745 1.18424 91.8079 -0.0179589 87.2627 -0.000760417C83.821 -0.0147606 80.4104 0.651483 77.2269 1.95975C74.0435 3.26802 71.1499 5.19253 68.7126 7.62261C68.0265 8.30871 67.4166 8.99478 66.8067 9.73171L66.273 8.58825C65.3007 6.46073 63.7929 4.62192 61.8972 3.25156C60.0014 1.88121 57.7826 1.02615 55.4575 0.770076C53.1323 0.514005 50.7805 0.86567 48.632 1.79062C46.4834 2.71557 44.6117 4.18221 43.1997 6.04713V5.86923C41.9284 4.27444 40.3121 2.9886 38.4724 2.10834C36.6326 1.22807 34.6173 0.776291 32.5778 0.786982C29.1146 0.760917 25.7811 2.10342 23.3026 4.52244C20.7596 2.13993 17.4106 0.805762 13.9259 0.786982C11.8947 0.782114 9.88872 1.23675 8.05808 2.11687C6.22744 2.99698 4.61957 4.27978 3.35486 5.86923C1.06302 8.53208 -0.135408 11.964 0.000594877 15.4747V36.5914C-0.216081 39.8132 0.583827 43.0218 2.28759 45.7649C3.51023 47.6109 5.17152 49.125 7.12277 50.1715C9.07401 51.2181 11.2543 51.7645 13.4685 51.7619C16.9353 51.7812 20.2692 50.4293 22.7436 48.001C25.2412 50.4254 28.5888 51.7754 32.0696 51.7619C33.8143 51.7639 35.542 51.4184 37.1518 50.7455C38.7645 51.4089 40.4903 51.754 42.234 51.7619C44.1874 51.7888 46.1206 51.3648 47.8835 50.5231C49.6464 49.6813 51.1914 48.4443 52.3985 46.9084H54.5839C55.791 48.4443 57.336 49.6813 59.0989 50.5231C60.8618 51.3648 62.795 51.7888 64.7484 51.7619C67.9403 51.7481 71.0224 50.5946 73.439 48.5093C77.4037 50.8619 81.9199 52.1245 86.5298 52.1691C91.1397 52.2137 95.6794 51.0388 99.6888 48.7634C102.061 50.6592 105.013 51.682 108.049 51.6602C109.773 51.6854 111.486 51.3682 113.086 50.727C114.687 50.0858 116.145 49.1333 117.375 47.9248C119.833 50.3432 123.151 51.6867 126.599 51.6602C128.136 51.6423 129.657 51.3586 131.097 50.8217C132.537 51.3586 134.058 51.6423 135.595 51.6602V51.6602C137.548 51.6871 139.482 51.2632 141.244 50.4214C143.007 49.5796 144.552 48.3427 145.759 46.8067H147.945C149.144 48.3515 150.687 49.5949 152.452 50.4375C154.217 51.2802 156.154 51.6989 158.109 51.6602C160.618 51.6479 163.074 50.935 165.199 49.6019C167.359 50.9408 169.849 51.6533 172.39 51.6602C174.154 51.6707 175.902 51.3225 177.527 50.6367C179.152 49.9508 180.62 48.9418 181.843 47.6707C183.088 48.9336 184.572 49.9365 186.208 50.6213C187.844 51.3062 189.599 51.6593 191.373 51.6602C194.839 51.6795 198.173 50.3277 200.648 47.8994C203.123 50.28 206.425 51.6097 209.859 51.6097C213.294 51.6097 216.595 50.28 219.071 47.8994C223.282 50.6372 228.202 52.0856 233.225 52.0668C238.313 52.0769 243.294 50.6021 247.557 47.8232C248.836 49.0585 250.349 50.0245 252.008 50.6642C253.667 51.3039 255.438 51.6042 257.215 51.5473C258.992 51.4905 260.74 51.0776 262.354 50.3331C263.969 49.5887 265.418 48.5278 266.615 47.2133C267.842 48.5868 269.346 49.6845 271.028 50.4336C272.71 51.1826 274.532 51.5661 276.373 51.5587C278.41 51.573 280.422 51.1226 282.259 50.2419C284.095 49.3613 285.706 48.0735 286.97 46.4764C289.045 43.6168 290.044 40.1158 289.79 36.5914V15.1189C290.022 11.6873 288.992 8.2894 286.893 5.56431V5.56431Z" fill="url(#paint0_diamond_94_39973)"/>
<path d="M19.2113 36.5162C19.463 38.2165 19.1124 39.9514 18.2202 41.4205C17.7082 42.2119 17.0035 42.8602 16.1723 43.3047C15.3412 43.7491 14.4107 43.9752 13.4683 43.9617C12.5179 43.9606 11.582 43.7288 10.7411 43.2861C9.90006 42.8435 9.17913 42.2033 8.64018 41.4205C7.7694 39.9241 7.41242 38.1838 7.62374 36.4654V15.4757C7.41207 13.8023 7.84845 12.1113 8.84347 10.7492C9.38654 10.0524 10.0799 9.48703 10.8719 9.09544C11.6639 8.70385 12.534 8.49606 13.4175 8.48761C14.3184 8.5004 15.2056 8.70936 16.0174 9.09994C16.8293 9.49051 17.5463 10.0534 18.1186 10.7492C19.0588 11.969 19.2113 12.7567 19.2113 15.8315V20.5579H26.3264V15.7806C26.0957 13.9978 26.5201 12.1918 27.5207 10.6984C28.0464 9.98898 28.7327 9.41425 29.5233 9.02115C30.3139 8.62804 31.1864 8.4278 32.0693 8.43681C32.9477 8.44459 33.8135 8.64688 34.6043 9.02913C35.3952 9.41139 36.0915 9.96411 36.6433 10.6476C37.6099 12.0613 38.0422 13.7726 37.8631 15.4757V36.6941C38.0307 38.3068 37.6932 39.9317 36.8975 41.3443C36.3939 42.1911 35.6802 42.8934 34.8253 43.3832C33.9705 43.8729 33.0037 44.1335 32.0185 44.1396C31.1148 44.1396 30.2235 43.9281 29.4161 43.5222C28.6086 43.1163 27.9073 42.5271 27.3682 41.8017C26.4198 40.288 26.0331 38.4892 26.2756 36.7194V31.6372H19.1604L19.2113 36.5162Z" fill="white"/>
<path d="M42.2334 44.012C41.475 44.012 40.724 43.8617 40.0239 43.5699C39.3238 43.2782 38.6885 42.8506 38.1545 42.3119C37.6206 41.7733 37.1985 41.1342 36.9129 40.4315C36.6273 39.7289 36.4837 38.9766 36.4905 38.2182C36.5185 37.1531 36.7696 36.1055 37.2274 35.1434L48.1796 11.7651C48.6554 10.7333 49.4168 9.85927 50.3738 9.2467C51.3308 8.63413 52.4433 8.30859 53.5795 8.30859C54.7158 8.30859 55.8283 8.63413 56.7852 9.2467C57.7422 9.85927 58.5037 10.7333 58.9794 11.7651L70.0333 35.2959C70.4582 36.1862 70.6919 37.1558 70.7194 38.142C70.7127 38.9028 70.5563 39.6549 70.259 40.3553C69.9617 41.0557 69.5293 41.6906 68.9866 42.2239C68.4438 42.7572 67.8014 43.1784 67.0959 43.4634C66.3904 43.7484 65.6357 43.8916 64.8748 43.8849C62.1304 43.8849 60.6058 42.6143 58.9286 39.0313H48.1796C46.7058 42.5889 44.9778 44.012 42.2334 44.012ZM55.3456 30.7727L53.4906 26.5798L51.7626 30.7727H55.3456Z" fill="white"/>
<path d="M98.5957 11.8927C99.7795 12.6696 100.776 13.6993 101.515 14.9076C102.253 16.116 102.714 17.4729 102.865 18.8808C102.864 19.8769 102.605 20.8558 102.114 21.7222C101.622 22.5885 100.914 23.3129 100.06 23.8247C99.2053 24.3364 98.2327 24.6181 97.2369 24.6423C96.241 24.6666 95.2559 24.4325 94.3774 23.963C93.7929 23.6581 93.7929 23.6581 91.6838 21.4219C90.9054 20.5887 89.9322 19.9618 88.8517 19.5976C87.7712 19.2333 86.6172 19.1431 85.4932 19.3349C84.3692 19.5267 83.3104 19.9947 82.4119 20.6967C81.5134 21.3988 80.8033 22.3129 80.3453 23.3571C79.8873 24.4014 79.6958 25.543 79.7879 26.6796C79.88 27.8161 80.2529 28.9119 80.8731 29.8688C81.4933 30.8256 82.3413 31.6135 83.3412 32.1616C84.341 32.7098 85.4613 33.0011 86.6016 33.0094C88.2135 32.9883 89.7714 32.4243 91.0232 31.4085C91.7505 30.8456 92.4074 30.1972 92.9798 29.4773C93.4956 28.9585 94.1095 28.5474 94.7857 28.2682C95.4619 27.989 96.1869 27.8472 96.9185 27.8509C98.4427 27.8436 99.9094 28.432 101.006 29.4905C102.103 30.5491 102.742 31.9942 102.789 33.5177C102.655 34.8079 102.245 36.0543 101.588 37.1723C100.93 38.2903 100.04 39.2538 98.9768 39.9975C96.733 41.9927 94.0373 43.4118 91.1224 44.1323C88.2075 44.8527 85.161 44.8527 82.2461 44.1324C79.3312 43.4121 76.6354 41.9931 74.3915 39.998C72.1476 38.0028 70.4232 35.4915 69.3669 32.6808C68.3107 29.8701 67.9545 26.8445 68.3291 23.8653C68.7037 20.8862 69.7978 18.0429 71.517 15.5812C73.2362 13.1195 75.5287 11.1132 78.1967 9.73566C80.8646 8.3581 83.8277 7.65065 86.8303 7.67441C91.1245 7.66228 95.2874 9.1548 98.5957 11.8927V11.8927Z" fill="white"/>
<path d="M120.271 11.0288C120.785 10.2182 121.494 9.54924 122.333 9.08314C123.172 8.61704 124.114 8.3687 125.074 8.36069C126.614 8.37968 128.087 8.99308 129.186 10.0727C130.284 11.1524 130.923 12.6148 130.969 14.1545C130.965 15.2455 130.628 16.3092 130.004 17.2038L124.108 25.7928L131.325 34.9408C132.042 35.835 132.436 36.9454 132.443 38.0918C132.443 39.649 131.83 41.1435 130.736 42.2517C129.642 43.3599 128.155 43.9926 126.598 44.0126C125.834 44.0335 125.074 43.8874 124.372 43.5846C123.67 43.2818 123.042 42.8295 122.533 42.2593L113.842 31.2562V37.304C113.842 41.3698 111.53 44.0126 108.048 44.0126C107.204 44.0239 106.368 43.853 105.596 43.5117C104.824 43.1703 104.135 42.6665 103.575 42.0346C103.015 41.4027 102.599 40.6575 102.353 39.8499C102.108 39.0423 102.039 38.1913 102.153 37.3548V14.8405C102.059 14.0206 102.141 13.1901 102.393 12.4042C102.644 11.6182 103.06 10.8948 103.613 10.282C104.166 9.66914 104.843 9.1809 105.599 8.84964C106.354 8.51838 107.172 8.35175 107.997 8.36069C109.646 8.3841 111.218 9.06033 112.368 10.2411C113.456 11.5347 113.986 13.2072 113.842 14.8913V20.5581L120.271 11.0288Z" fill="white"/>
<path d="M135.594 44.0123C134.084 44.0124 132.635 43.4178 131.56 42.3572C130.486 41.2966 129.872 39.8554 129.852 38.3455C129.88 37.2804 130.131 36.2329 130.588 35.2708L141.541 11.8924C142.016 10.8722 142.774 10.0095 143.724 9.40605C144.674 8.80266 145.777 8.48387 146.902 8.48733C148.054 8.48659 149.18 8.81994 150.145 9.44692C151.111 10.0739 151.873 10.9676 152.34 12.0195L163.394 35.5503C163.819 36.4406 164.053 37.4101 164.08 38.3963C164.074 39.1572 163.917 39.9093 163.62 40.6097C163.323 41.3101 162.89 41.9451 162.348 42.4783C161.805 43.0116 161.162 43.4328 160.457 43.7178C159.751 44.0028 158.997 44.146 158.236 44.1393C155.491 44.1393 153.967 42.8687 152.29 39.2857H141.541C140.067 42.5892 138.339 44.0123 135.594 44.0123ZM148.707 30.773L146.852 26.5801L145.124 30.773H148.707Z" fill="white"/>
<path d="M163.598 19.414C162.803 19.4851 162.002 19.3859 161.248 19.123C160.494 18.8601 159.805 18.4396 159.227 17.8894C158.206 16.84 157.624 15.4401 157.601 13.9761C157.616 12.9817 157.903 12.0106 158.432 11.1683C158.961 10.326 159.71 9.64475 160.599 9.19874C161.768 8.66511 162.225 8.61426 166.876 8.61426H178.565C182.707 8.61426 182.885 8.61431 184.079 9.14795C185.003 9.57522 185.787 10.2554 186.34 11.1099C186.893 11.9644 187.193 12.9582 187.205 13.9761C187.196 14.7654 187.022 15.5441 186.694 16.262C186.366 16.9798 185.89 17.6208 185.299 18.1435C184.04 19.1136 182.459 19.568 180.877 19.414H178.336V36.897C178.472 38.4541 178.126 40.0154 177.345 41.3694C176.848 42.169 176.15 42.8245 175.321 43.2703C174.492 43.7162 173.56 43.9369 172.619 43.9105C171.671 43.9118 170.738 43.6809 169.901 43.2378C169.064 42.7948 168.348 42.1533 167.816 41.3694C166.942 40.0145 166.573 38.3951 166.774 36.7954V19.2108L163.598 19.414Z" fill="white"/>
<path d="M197.242 36.5162C197.494 38.2165 197.143 39.9514 196.251 41.4205C195.739 42.2119 195.034 42.8602 194.203 43.3047C193.372 43.7491 192.441 43.9752 191.499 43.9617C190.545 43.9604 189.606 43.7287 188.761 43.2863C187.916 42.8439 187.19 42.2037 186.645 41.4205C185.797 39.916 185.45 38.1805 185.654 36.4654V15.4757C185.429 13.8014 185.867 12.1055 186.874 10.7492C187.417 10.0524 188.111 9.48703 188.903 9.09544C189.695 8.70385 190.565 8.49606 191.448 8.48761C192.345 8.50065 193.229 8.70986 194.037 9.10056C194.844 9.49125 195.557 10.054 196.124 10.7492C197.09 11.969 197.242 12.7567 197.242 15.8315V20.5579H204.357V15.7806C204.126 13.9978 204.551 12.1918 205.551 10.6984C206.077 9.98898 206.763 9.41425 207.554 9.02115C208.345 8.62804 209.217 8.4278 210.1 8.43681C210.978 8.44459 211.844 8.64688 212.635 9.02913C213.426 9.41139 214.122 9.96411 214.674 10.6476C215.647 12.0408 216.097 13.7325 215.945 15.4249V36.6432C216.112 38.2559 215.775 39.8809 214.979 41.2935C214.476 42.1403 213.762 42.8426 212.907 43.3324C212.052 43.8221 211.085 44.0827 210.1 44.0888C209.196 44.0888 208.305 43.8773 207.498 43.4714C206.69 43.0655 205.989 42.4763 205.45 41.7509C204.501 40.2372 204.115 38.4384 204.357 36.6687V31.5864H197.242V36.5162Z" fill="white"/>
<path d="M252.002 26.0462C252.023 29.7132 250.954 33.3037 248.932 36.3629C246.91 39.4221 244.025 41.8123 240.643 43.2307C237.262 44.6492 233.535 45.032 229.936 44.3308C226.336 43.6295 223.026 41.8759 220.424 39.2918C217.822 36.7077 216.046 33.4094 215.32 29.8149C214.594 26.2204 214.951 22.4913 216.346 19.1C217.741 15.7087 220.112 12.8077 223.157 10.7646C226.202 8.72144 229.785 7.62813 233.452 7.62305C238.35 7.62293 243.049 9.5599 246.524 13.0113C250 16.4627 251.969 21.1484 252.002 26.0462ZM226.591 26.0462C226.551 27.4283 226.924 28.7911 227.664 29.9595C228.403 31.1278 229.475 32.0486 230.742 32.6035C232.008 33.1584 233.412 33.3221 234.772 33.0737C236.132 32.8253 237.387 32.1761 238.376 31.2093C239.364 30.2426 240.041 29.0024 240.32 27.648C240.599 26.2937 240.467 24.8869 239.94 23.6083C239.414 22.3297 238.517 21.2375 237.366 20.4721C236.214 19.7066 234.86 19.3027 233.478 19.3122C231.69 19.3044 229.969 19.992 228.68 21.2297C227.39 22.4674 226.632 24.1581 226.566 25.9445L226.591 26.0462Z" fill="white"/>
<path d="M270.706 15.4751C270.542 13.8774 270.908 12.2702 271.748 10.9011C272.248 10.1616 272.914 9.54926 273.692 9.11322C274.471 8.67717 275.341 8.42951 276.233 8.39C277.124 8.35048 278.013 8.52025 278.827 8.88569C279.641 9.25113 280.359 9.8021 280.922 10.4945C281.962 11.7996 282.454 13.458 282.294 15.1193V36.5918C282.534 38.4499 282.082 40.3316 281.023 41.8774C280.482 42.5559 279.793 43.1027 279.01 43.4769C278.226 43.851 277.368 44.0426 276.5 44.0373C275.602 44.0359 274.717 43.8181 273.921 43.4023C273.125 42.9865 272.44 42.385 271.926 41.6486L262.651 29.9087V37.2779C262.822 38.9399 262.349 40.6042 261.33 41.9282C260.784 42.6038 260.091 43.1457 259.304 43.5124C258.517 43.879 257.656 44.0607 256.788 44.0435C255.92 44.0263 255.067 43.8107 254.295 43.4133C253.523 43.0158 252.852 42.447 252.334 41.7503C251.284 40.3354 250.828 38.5666 251.063 36.8205V14.5857C250.998 13.7654 251.107 12.9405 251.385 12.1659C251.663 11.3913 252.102 10.6848 252.675 10.0934C253.247 9.50193 253.938 9.03913 254.703 8.73586C255.468 8.4326 256.289 8.29581 257.111 8.33455C257.957 8.34656 258.787 8.56317 259.53 8.96587C260.274 9.36858 260.908 9.94542 261.38 10.647L270.706 21.9549V15.4751Z" fill="white"/>
</g>
<defs>
<radialGradient id="paint0_diamond_94_39973" cx="0" cy="0" r="1" gradientUnits="userSpaceOnUse" gradientTransform="translate(144.897 26.0847) rotate(-179.743) scale(145.204 574.966)">
<stop stop-color="#A8A8A8"/>
<stop offset="1" stop-color="#002C9D"/>
</radialGradient>
<clipPath id="clip0_94_39973">
<rect width="289.917" height="52.1693" fill="white"/>
</clipPath>
</defs>
</svg>
