<svg width="171" height="56" viewBox="0 0 171 56" fill="none" xmlns="http://www.w3.org/2000/svg">
<g clip-path="url(#clip0_94_39999)">
<path d="M11.1145 54.5375H42.588C44.2356 54.5901 45.8725 54.2487 47.3701 53.5401C48.8676 52.8315 50.1849 51.775 51.2183 50.4538C52.0826 49.2941 52.7335 47.9815 53.1389 46.5809H53.856V55.5914H77.57V46.5809H81.6674C82.3923 48.2338 83.4081 49.7344 84.6637 51.0071C86.176 52.5079 87.9715 53.6736 89.9391 54.4321C92.0001 55.194 94.1773 55.5688 96.367 55.5387H114.703C116.848 55.5622 118.981 55.1965 121.003 54.4585C122.416 53.9291 123.738 53.1733 124.921 52.219C127.71 53.9961 130.937 54.9107 134.217 54.8537C135.629 54.8647 137.038 54.7145 138.417 54.4058V55.3279H170.044V11.4872C170.08 9.79561 169.739 8.118 169.047 6.58334C168.354 5.04869 167.329 3.69787 166.049 2.63474C164.4 1.29983 162.436 0.438156 160.358 0.137353C158.28 -0.16345 156.161 0.107349 154.218 0.922208C152.278 0.109635 150.164 -0.159961 148.091 0.140844C146.017 0.441648 144.058 1.30212 142.412 2.63474H142.233C139.73 1.45515 137.009 0.844558 134.256 0.844558C131.502 0.844558 128.781 1.45515 126.278 2.63474C125.266 1.8212 124.134 1.18068 122.924 0.737782C121.092 0.0659268 119.131 -0.14828 117.203 0.11283C115.275 0.373941 113.435 1.10289 111.835 2.23954C110.445 1.58754 108.932 1.26348 107.404 1.29106H89.094C87.3539 1.29755 85.6441 1.75998 84.1259 2.63474C82.7611 3.37826 81.572 4.42167 80.6431 5.69094C79.8511 6.79268 79.261 8.03368 78.9016 9.35312C78.3126 9.08965 77.7492 8.85253 77.1602 8.64176H76.981C76.474 6.95025 75.5981 5.40027 74.4201 4.11015C72.3794 1.83617 69.5821 0.434871 66.5837 0.184503C63.7369 -0.0430204 60.9022 0.758287 58.5681 2.45031C57.2536 3.40385 56.1483 4.63048 55.3234 6.05095C54.4985 7.47141 53.9724 9.05412 53.7792 10.6968C53.719 11.2062 53.5624 11.6985 53.3182 12.1459C53.0733 12.6262 52.7433 13.0551 52.3451 13.4105C51.9023 13.8269 51.4017 14.1732 50.8597 14.438C50.2344 14.7482 49.571 14.9698 48.8878 15.0967C48.0071 15.2563 47.1476 15.5216 46.3269 15.8871C45.9684 15.4919 45.6355 15.123 45.2514 14.7542C43.2549 12.8735 40.9364 11.3906 38.4137 10.3806C38.0618 8.08384 37.0235 5.95674 35.4431 4.29457C33.4221 2.12161 30.6783 0.813682 27.7604 0.632395C24.837 0.303366 21.8989 1.10129 19.5143 2.87186C18.1965 3.85473 17.0971 5.11483 16.2891 6.56843C15.4811 8.02204 14.983 9.63588 14.8278 11.3028C14.732 12.0934 14.525 12.8656 14.2132 13.5949C13.9291 14.2083 13.5483 14.7691 13.0864 15.2548C12.6305 15.7403 12.1034 16.1492 11.5242 16.4667C10.9268 16.7851 10.2889 17.0156 9.62918 17.1517C6.77914 17.7164 4.24884 19.3858 2.56108 21.8151C1.20534 23.8342 0.492024 26.2364 0.519545 28.6903C0.547067 31.1442 1.31407 33.5289 2.71474 35.5153L2.56108 35.6997C1.60811 36.8613 0.885953 38.204 0.435532 39.6517C0.124908 40.8186 -0.0216979 42.0252 0.000178476 43.2348C0.03726 45.8696 0.939843 48.4139 2.56108 50.4538C3.58393 51.7673 4.88833 52.8194 6.37221 53.5278C7.85609 54.2363 9.47919 54.5819 11.1145 54.5375V54.5375Z" fill="url(#paint0_diamond_94_39999)"/>
<path d="M22.6887 39.8093V34.2502C22.6548 33.6056 22.778 32.9626 23.0472 32.3796C23.2652 31.9039 23.5795 31.4817 23.9691 31.1413C24.3589 30.8154 24.8135 30.5816 25.3008 30.4563C25.8195 30.3182 26.3528 30.2474 26.8886 30.2455C27.4093 30.2468 27.9269 30.3267 28.4251 30.4826C28.9141 30.6246 29.374 30.8567 29.7824 31.1676C30.177 31.4924 30.4927 31.9074 30.7043 32.3796C30.9541 32.9224 31.0769 33.518 31.0628 34.1184V39.8093H42.6125C43.1633 39.7994 43.7109 39.8978 44.2259 40.0991C44.6237 40.2878 44.9807 40.5565 45.2759 40.8895C45.5528 41.1963 45.7547 41.5666 45.8649 41.9697C45.995 42.3782 46.0641 42.8046 46.0697 43.2344C46.0714 44.0905 45.7814 44.9202 45.2502 45.5792C44.9315 45.9464 44.5344 46.2326 44.09 46.4154C43.6457 46.5983 43.1663 46.6728 42.6893 46.6331H11.1134C10.6366 46.6708 10.1578 46.5953 9.71378 46.4126C9.26979 46.2299 8.87249 45.9448 8.55249 45.5792C8.00089 44.9287 7.69224 44.0975 7.68178 43.2344C7.67831 42.8059 7.73877 42.3794 7.86104 41.9697C7.99033 41.5751 8.19009 41.2087 8.45005 40.8895C8.75497 40.5563 9.12038 40.2878 9.52563 40.0991C10.0317 39.8979 10.5709 39.7995 11.1134 39.8093H22.6887ZM30.986 12.9621C30.9414 14.198 30.7697 15.4256 30.4738 16.6243C32.2251 16.6894 33.9547 17.0452 35.5956 17.6782C37.2811 18.3358 38.8285 19.3196 40.154 20.5763C41.5606 21.965 42.7065 23.6083 43.5344 25.4241C44.5013 27.5893 45.0659 29.9216 45.199 32.3005H36.9017C36.7029 31.0023 36.2962 29.7469 35.6981 28.5857C35.1642 27.5194 34.4436 26.5637 33.5725 25.7666C31.8069 24.2126 29.5443 23.3866 27.2215 23.4481C26.2954 24.7438 25.2397 25.936 24.0716 27.0049C22.9151 28.0491 21.6629 28.9755 20.3326 29.7712C19.066 30.5433 17.7168 31.1622 16.312 31.6155C14.9949 32.0521 13.6236 32.2917 12.2402 32.3269C11.3181 32.3544 10.4145 32.0569 9.67929 31.4838C9.28639 31.1988 8.9621 30.8251 8.73128 30.3912C8.50046 29.9574 8.36922 29.4749 8.34762 28.9808C8.27638 28.5217 8.294 28.0526 8.39947 27.6004C8.50495 27.1483 8.69619 26.7221 8.96223 26.3462C9.2348 25.9522 9.58154 25.6186 9.98187 25.3651C10.3822 25.1117 10.828 24.9436 11.2927 24.8708C12.6634 24.5845 13.9843 24.0871 15.2108 23.3954C16.4726 22.7049 17.6217 21.816 18.6168 20.7607C19.6633 19.6857 20.5287 18.4392 21.1777 17.0722C21.9027 15.5505 22.3621 13.9097 22.535 12.2244C22.5806 11.6541 22.7407 11.0998 23.0052 10.5964C23.2696 10.093 23.6328 9.65155 24.0716 9.29994C24.9438 8.64773 26.0223 8.35624 27.0934 8.48319C28.1804 8.52878 29.212 8.98899 29.9873 9.77418C30.3579 10.2063 30.638 10.7124 30.8098 11.261C30.9817 11.8095 31.0416 12.3886 30.986 12.9621V12.9621Z" fill="white"/>
<path d="M69.9633 38.6768V47.6873H61.6148V38.6768H50.0395C49.5627 38.7145 49.0839 38.639 48.6399 38.4563C48.1959 38.2736 47.7986 37.9885 47.4786 37.6229C46.9585 36.949 46.6784 36.1122 46.6847 35.2517C46.6814 34.8319 46.7419 34.4141 46.864 34.0134C46.9931 33.6107 47.1927 33.2357 47.453 32.9069C47.7495 32.5574 48.1165 32.2786 48.5286 32.0901C49.0346 31.8889 49.5738 31.7905 50.1163 31.8003H81.513C82.064 31.7877 82.6121 31.8862 83.1264 32.0901C83.5346 32.2724 83.8946 32.5524 84.1763 32.9069C84.4569 33.2212 84.659 33.6009 84.7653 34.0134C84.8953 34.4129 84.9644 34.8306 84.9702 35.2517C84.9672 36.115 84.6782 36.9515 84.1507 37.6229C83.8319 37.9901 83.4348 38.2763 82.9905 38.4592C82.5462 38.642 82.0668 38.7165 81.5898 38.6768H69.9633ZM69.8097 12.541C69.8097 12.9888 69.8097 13.4104 69.6816 13.8319C69.5536 14.2535 69.5536 14.6487 69.4767 15.0702C71.2224 15.1019 72.9517 15.4222 74.5986 16.0187C76.2606 16.5878 77.7998 17.4825 79.1314 18.6534C80.5546 19.9552 81.7048 21.542 82.5118 23.3167C83.4643 25.4101 84.0122 27.6739 84.1251 29.9824H75.8534C75.6726 28.7574 75.2916 27.5726 74.7266 26.4783C74.209 25.4766 73.5142 24.5831 72.6779 23.8436C71.8582 23.1195 70.9104 22.5649 69.8865 22.2102C68.816 21.8818 67.6981 21.748 66.5829 21.815C65.6457 23.0774 64.5812 24.2343 63.4074 25.2664C62.2336 26.2864 60.954 27.17 59.5917 27.901C58.2576 28.6233 56.8488 29.1889 55.3918 29.5872C53.9967 29.9704 52.559 30.1653 51.1151 30.1668C50.1902 30.1847 49.287 29.8781 48.5542 29.2974C48.1921 29.0098 47.8964 28.6433 47.6883 28.2242C47.4802 27.8052 47.3648 27.3439 47.3505 26.8735C47.2859 26.4038 47.3133 25.9256 47.431 25.467C47.5488 25.0084 47.7545 24.5787 48.036 24.2031C48.3176 23.8275 48.6694 23.5136 49.0706 23.2799C49.4718 23.0463 49.9145 22.8975 50.3724 22.8425C51.7098 22.5844 53.0095 22.1505 54.2394 21.5515C55.4615 20.962 56.592 20.1895 57.5942 19.2593C58.612 18.3181 59.4766 17.2152 60.1551 15.9924C60.8179 14.7009 61.2597 13.3016 61.4611 11.8559C61.5048 11.2786 61.6665 10.7173 61.9357 10.2088C62.2049 9.70027 62.5755 9.25601 63.0233 8.90512C63.8962 8.25283 64.9715 7.95283 66.0451 8.06203C67.1188 8.12259 68.1322 8.59219 68.8877 9.37936C69.2402 9.81544 69.5036 10.3202 69.662 10.8635C69.8204 11.4067 69.8706 11.9773 69.8097 12.541V12.541Z" fill="white"/>
<path d="M101.846 15.9919V16.8086C101.844 17.5044 101.801 18.1994 101.718 18.89C102.985 18.86 104.244 19.0996 105.416 19.5938C106.588 20.088 107.649 20.8261 108.53 21.7618C110.166 24.0949 110.922 26.9602 110.656 29.8239H102.973C103.153 28.5324 102.861 27.2181 102.154 26.1353C101.834 25.7095 101.416 25.373 100.937 25.1567C100.458 24.9403 99.9346 24.8511 99.4136 24.897C98.2825 26.5459 96.7682 27.8774 95.0089 28.77C93.3052 29.6509 91.4345 30.1365 89.5285 30.1927C88.6126 30.2705 87.701 29.9985 86.9676 29.4287C86.6186 29.1601 86.332 28.8152 86.1283 28.4188C85.9245 28.0224 85.8089 27.5844 85.7896 27.1365C85.7032 26.2907 85.9119 25.4409 86.3786 24.739C86.8717 24.1477 87.5705 23.7788 88.3249 23.7114C89.948 23.5447 91.4472 22.7443 92.5142 21.4751C93.5812 20.2058 94.1349 18.5641 94.0613 16.8877V15.9919H89.0932C88.6469 16.0031 88.2055 15.8941 87.8127 15.6757C87.4524 15.4856 87.1376 15.2157 86.8908 14.8853C86.6456 14.5558 86.4473 14.1921 86.3018 13.8051C86.1717 13.4239 86.1025 13.0235 86.0969 12.6195C86.1103 12.227 86.1705 11.8377 86.2762 11.4603C86.3767 11.0562 86.5601 10.6789 86.814 10.3537C87.0499 9.99961 87.3664 9.71019 87.7359 9.51063C88.1585 9.30131 88.6245 9.2018 89.0932 9.22082H107.404C107.873 9.19847 108.339 9.29815 108.761 9.51063C109.132 9.71781 109.456 10.0055 109.708 10.3537C109.953 10.6853 110.135 11.0605 110.246 11.4603C110.344 11.8386 110.396 12.228 110.4 12.6195C110.394 13.0235 110.325 13.4239 110.195 13.8051C110.059 14.1912 109.869 14.555 109.632 14.8853C109.373 15.2037 109.061 15.4714 108.71 15.6757C108.309 15.8987 107.859 16.0078 107.404 15.9919H101.846ZM96.443 47.6078C95.1802 47.6317 93.9232 47.4266 92.7297 47.0018C91.7832 46.617 90.9148 46.0541 90.1688 45.342C89.4827 44.6351 88.9579 43.7802 88.6322 42.8391C88.2762 41.8169 88.1027 40.7369 88.12 39.6511C88.1023 38.574 88.2759 37.5026 88.6322 36.4896C88.9336 35.4982 89.4603 34.595 90.1688 33.8549C90.9054 33.1173 91.7754 32.5355 92.7297 32.1424C93.9254 31.7332 95.1842 31.5546 96.443 31.6154H114.779C116.033 31.5957 117.281 31.8008 118.467 32.2214C119.424 32.5964 120.296 33.1704 121.028 33.9076C121.737 34.6566 122.279 35.5557 122.615 36.5422C123.298 38.6185 123.298 40.8682 122.615 42.9445C122.295 43.9389 121.751 44.8415 121.028 45.5791C120.301 46.3162 119.427 46.8824 118.467 47.239C117.279 47.6501 116.032 47.8462 114.779 47.8186L96.443 47.6078ZM112.679 41.7589C113.012 41.8049 113.351 41.7638 113.664 41.6395C113.977 41.5152 114.255 41.3116 114.472 41.0475C114.764 40.6434 114.925 40.1549 114.933 39.6511C114.929 39.1549 114.767 38.6735 114.472 38.2811C114.247 38.0303 113.967 37.8393 113.654 37.7246C113.342 37.6099 113.007 37.5748 112.679 37.6225H98.5941C98.2658 37.5748 97.9312 37.6099 97.6189 37.7246C97.3067 37.8393 97.0262 38.0303 96.8015 38.2811C96.5061 38.6735 96.3442 39.1549 96.3405 39.6511C96.3478 40.1549 96.5091 40.6434 96.8015 41.0475C97.0181 41.3116 97.2959 41.5152 97.6092 41.6395C97.9225 41.7638 98.2613 41.8049 98.5941 41.7589H112.679ZM114.677 22.4732H112.346C111.811 22.5015 111.276 22.4024 110.784 22.1833C110.398 22.0125 110.056 21.7508 109.785 21.4193C109.518 21.1098 109.325 20.7397 109.222 20.3391C109.121 19.9255 109.07 19.5008 109.068 19.0744C109.067 18.6566 109.119 18.2404 109.222 17.8362C109.313 17.4286 109.498 17.0493 109.76 16.7296C110.035 16.3974 110.376 16.1282 110.758 15.9392C111.264 15.7354 111.803 15.6368 112.346 15.6494H114.677V11.9872C114.638 11.4147 114.729 10.8409 114.942 10.3106C115.156 9.78035 115.485 9.30814 115.906 8.93101C116.684 8.26885 117.662 7.90561 118.672 7.90349C119.195 7.8989 119.715 7.98805 120.208 8.16695C120.687 8.34624 121.129 8.61412 121.514 8.95735C121.904 9.30763 122.219 9.73852 122.436 10.222C122.672 10.7782 122.785 11.3808 122.769 11.9872V30.1137H114.625L114.677 22.4732Z" fill="white"/>
<path d="M146.176 37.6759H143.052C143.036 40.2193 142.126 42.6711 140.491 44.5787C139.646 45.3778 138.652 45.991 137.568 46.3806C136.485 46.7703 135.336 46.9281 134.191 46.8445C132.963 46.919 131.733 46.7225 130.585 46.2681C129.437 45.8137 128.396 45.1119 127.533 44.2098C125.805 41.9782 124.98 39.1474 125.228 36.3058V19.2332C124.98 16.3917 125.805 13.5609 127.533 11.3293C128.396 10.4272 129.437 9.7254 130.585 9.271C131.733 8.8166 132.963 8.62007 134.191 8.69459C136.32 8.57622 138.42 9.2495 140.107 10.5915C141.7 12.1408 142.677 14.2443 142.847 16.4932H146.074V11.2239C146.038 10.731 146.115 10.2365 146.297 9.77923C146.479 9.32198 146.762 8.91459 147.124 8.5892C147.845 7.98619 148.756 7.67678 149.685 7.71977C150.57 7.70402 151.432 8.01212 152.117 8.5892C152.479 8.91459 152.762 9.32198 152.944 9.77923C153.126 10.2365 153.203 10.731 153.167 11.2239V47.4241H146.176V37.6759ZM134.294 40.3105C134.513 40.3138 134.73 40.271 134.933 40.185C135.135 40.0989 135.319 39.9713 135.472 39.8099C135.877 39.2801 136.069 38.6107 136.009 37.9393V17.7315C136.083 17.0426 135.89 16.3515 135.472 15.8082C135.319 15.6468 135.135 15.5192 134.933 15.4331C134.73 15.3471 134.513 15.3043 134.294 15.3076C133.87 15.3207 133.467 15.4997 133.167 15.8082C132.771 16.3418 132.587 17.0109 132.655 17.6788V37.9393C132.587 38.6072 132.771 39.2763 133.167 39.8099C133.458 40.1378 133.862 40.3362 134.294 40.3632V40.3105ZM143.103 30.8257H146.176V23.4487H143.103V30.8257ZM155.139 11.4346C155.118 10.9385 155.206 10.4438 155.396 9.98751C155.587 9.53126 155.876 9.12529 156.24 8.79998C156.954 8.19786 157.854 7.87989 158.776 7.90419C159.705 7.88287 160.612 8.20014 161.337 8.79998C161.706 9.12145 161.998 9.52675 162.189 9.98395C162.38 10.4411 162.465 10.9378 162.438 11.4346V47.4241H155.139V11.4346Z" fill="white"/>
</g>
<defs>
<radialGradient id="paint0_diamond_94_39999" cx="0" cy="0" r="1" gradientUnits="userSpaceOnUse" gradientTransform="translate(85.0224 27.7981) rotate(-179.534) scale(85.1859 612.59)">
<stop stop-color="#F4AC78"/>
<stop offset="1" stop-color="#D06340"/>
</radialGradient>
<clipPath id="clip0_94_39999">
<rect width="170.044" height="55.5913" fill="white"/>
</clipPath>
</defs>
</svg>
