<svg width="88" height="30" viewBox="0 0 88 30" fill="none" xmlns="http://www.w3.org/2000/svg">
<g clip-path="url(#clip0_765_151896)">
<path d="M5.78927 16.9032C5.76185 17.054 5.71315 17.2001 5.64462 17.3372C5.48805 17.3944 5.32434 17.4298 5.1581 17.4423C4.38645 17.5122 3.63761 17.7411 2.95871 18.1145C2.27981 18.4879 1.68555 18.9977 1.2133 19.612C0.420321 20.6764 0.0164992 21.9807 0.0692875 23.307C0.0793359 24.2275 0.32666 25.1298 0.78735 25.9268C1.24804 26.7238 1.90652 27.3885 2.69916 27.8567C3.8121 28.5095 5.09256 28.8205 6.38099 28.7508C7.82141 28.6953 9.24102 28.3882 10.5756 27.8435L11.1016 27.62V29.4477H27.4857H28.1169H41.3452C42.5875 29.4811 43.8067 29.107 44.8166 28.3826C45.1722 28.6066 45.5461 28.8002 45.9343 28.9612C46.9423 29.3417 48.0128 29.529 49.0901 29.5135H59.0968C60.1741 29.529 61.2447 29.3417 62.2526 28.9612C63.2395 28.5946 64.1363 28.0207 64.8825 27.2781C65.4418 26.665 65.8871 25.957 66.1974 25.1873C67.1092 25.4154 68.0671 25.3789 68.9588 25.0821C69.3836 25.9167 70.031 26.6174 70.8293 27.1069C71.6276 27.5963 72.5458 27.8553 73.4822 27.8553C74.4186 27.8553 75.3368 27.5963 76.1351 27.1069C76.9334 26.6174 77.5808 25.9167 78.0055 25.0821C78.8932 25.3883 79.8499 25.4346 80.7631 25.2156C81.6762 24.9967 82.5078 24.5215 83.1601 23.8461C83.8251 23.1896 84.2933 22.3603 84.5117 21.4518C84.7301 20.5432 84.6901 19.5917 84.3962 18.7047C85.2397 18.2911 85.9484 17.6464 86.4396 16.8455C86.9309 16.0447 87.1843 15.1207 87.1707 14.1813C87.1763 13.2452 86.9209 12.326 86.4331 11.527C85.9453 10.728 85.2445 10.0808 84.4093 9.65795C84.7155 8.77025 84.7618 7.81359 84.5428 6.90047C84.3238 5.98734 83.8487 5.1557 83.1733 4.50338C82.2265 3.54999 80.9403 3.01095 79.5966 3.00437C79.0598 3.00509 78.5267 3.09391 78.0187 3.26734C77.6064 2.42277 76.9619 1.71321 76.1608 1.22182C75.3596 0.730423 74.435 0.477561 73.4953 0.492841C72.5608 0.486647 71.6432 0.741954 70.8462 1.22992C70.0492 1.7179 69.4045 2.41908 68.9851 3.25422C68.3156 3.02539 67.6045 2.94449 66.9008 3.01714C66.197 3.08978 65.5174 3.31421 64.9088 3.67496C64.7773 3.54347 64.6589 3.39884 64.5275 3.2805C63.4537 2.38926 62.1143 1.87986 60.7196 1.83226C59.325 1.78466 57.954 2.20154 56.8219 3.0175L56.1776 2.74137C55.1714 2.37286 54.1065 2.19018 53.0349 2.20224H48.459C47.3819 2.18919 46.3117 2.37648 45.3031 2.75453C44.8416 2.92384 44.4005 3.14438 43.9882 3.412C42.7347 2.57254 41.2486 2.14924 39.7409 2.20224H26.894C26.1189 2.1912 25.3483 2.3204 24.6192 2.58359C24.3117 2.40031 23.9854 2.25044 23.6461 2.13651C22.2206 1.65346 20.6675 1.70959 19.2805 2.2943C18.3199 1.89063 17.2721 1.73914 16.2365 1.85421C15.2009 1.96927 14.2119 2.34708 13.3633 2.95177L13.0477 2.85971C12.2537 2.68245 11.4417 2.5986 10.6282 2.60987H6.02595C5.16438 2.59697 4.31081 2.77666 3.52758 3.13584C2.79108 3.474 2.13961 3.97274 1.62092 4.59544C1.13696 5.16766 0.778569 5.83514 0.56897 6.55468C0.2184 7.7032 0.2184 8.93018 0.56897 10.0787C0.788746 10.8341 1.17518 11.5306 1.69982 12.1169C2.198 12.6748 2.80707 13.1226 3.48813 13.4318C4.26732 13.8057 5.1223 13.9947 5.9865 13.9841V15.4568C5.9768 15.945 5.91062 16.4303 5.78927 16.9032Z" fill="url(#paint0_diamond_765_151896)"/>
<path d="M5.57931 21.3644C6.27996 21.3111 6.96125 21.1094 7.57802 20.7727C8.10309 20.4753 8.55294 20.0615 8.89296 19.563C9.23976 19.0138 9.48889 18.4088 9.62932 17.7746C9.78374 17.0263 9.85866 16.2639 9.85286 15.4998V10.5951C9.85936 10.4598 9.81208 10.3275 9.72136 10.2269C9.67124 10.1732 9.60992 10.1313 9.54174 10.104C9.47356 10.0767 9.4002 10.0648 9.32689 10.0691H5.94749C5.66738 10.0779 5.38884 10.024 5.13224 9.91134C4.92267 9.81389 4.73485 9.67527 4.57997 9.50371C4.43743 9.33865 4.33005 9.14623 4.26438 8.93826C4.1309 8.51011 4.1309 8.05148 4.26438 7.62332C4.33005 7.41536 4.43743 7.22298 4.57997 7.05791C4.72461 6.881 4.90944 6.74124 5.11908 6.65028C5.38036 6.53777 5.66314 6.48392 5.94749 6.4925H10.5498C11.0535 6.47916 11.5569 6.52772 12.0488 6.63712C12.4139 6.71192 12.7535 6.87947 13.035 7.12364C13.2957 7.35937 13.4828 7.66527 13.5741 8.00467C13.6854 8.43392 13.7385 8.8762 13.7319 9.3196V15.4867C13.7633 16.8763 13.5497 18.2606 13.1008 19.5761C12.7485 20.6262 12.1846 21.5928 11.4439 22.4164C10.7734 23.1512 9.94662 23.7264 9.02444 24.0995C8.10179 24.4687 7.12418 24.682 6.13158 24.7307C5.60767 24.7646 5.08559 24.641 4.63256 24.3756C4.41828 24.2475 4.24276 24.0637 4.12467 23.8437C4.00658 23.6237 3.95034 23.3758 3.96195 23.1264C3.93358 22.6857 4.05907 22.2489 4.31699 21.8904C4.48081 21.7218 4.67716 21.5883 4.89416 21.4979C5.11115 21.4074 5.34425 21.362 5.57931 21.3644ZM14.9811 7.54443C14.9675 7.29773 15.0102 7.0512 15.1059 6.8234C15.2015 6.5956 15.3477 6.39251 15.5334 6.2295C15.9047 5.92911 16.3708 5.77063 16.8483 5.78242C17.3265 5.76588 17.7942 5.9249 18.1633 6.2295C18.3545 6.38929 18.5062 6.59113 18.6066 6.81923C18.7069 7.04732 18.7532 7.29549 18.7418 7.54443V13.4748H19.7938V7.54443C19.7798 7.29644 19.8236 7.04861 19.9217 6.82043C20.0198 6.59225 20.1696 6.38994 20.3592 6.2295C20.7316 5.93112 21.197 5.77291 21.6741 5.78242C21.9114 5.78228 22.1471 5.82229 22.371 5.90076C22.5899 5.97236 22.7914 6.08881 22.9628 6.24266C23.1393 6.39603 23.2826 6.58397 23.3836 6.79491C23.4939 7.03834 23.5478 7.30357 23.5413 7.57076V25.5327H19.8069V16.9594H18.755V25.5327H15.0469L14.9811 7.54443Z" fill="white"/>
<path d="M26.8287 9.60479C26.5588 9.62984 26.2866 9.59707 26.0304 9.50864C25.7742 9.42021 25.5398 9.27813 25.3428 9.09195C25.0399 8.75302 24.8797 8.3102 24.8957 7.85594C24.8935 7.41817 25.0473 6.99393 25.3296 6.65935C25.5276 6.47068 25.7641 6.32713 26.0229 6.2386C26.2817 6.15007 26.5566 6.11865 26.8287 6.1465H39.6756C40.4547 6.07355 41.2331 6.29393 41.8584 6.76453C42.0822 6.99744 42.255 7.27438 42.366 7.57773C42.4769 7.88109 42.5234 8.2042 42.5027 8.52654V9.97297C42.5157 10.7982 42.4408 11.6225 42.2792 12.4319C42.1636 12.9962 41.978 13.544 41.7269 14.0624H41.9373C42.2173 14.0549 42.4955 14.1088 42.7525 14.2202C42.9606 14.3144 43.1482 14.4484 43.3048 14.6147C43.4386 14.7836 43.5411 14.9751 43.6073 15.1801C43.7407 15.6083 43.7407 16.0669 43.6073 16.495C43.5416 16.703 43.4342 16.8954 43.2916 17.0605C43.1374 17.2353 42.9435 17.3705 42.7262 17.455C42.4771 17.5606 42.2077 17.6099 41.9373 17.5996H25.7767C25.4976 17.6125 25.2191 17.5632 24.9614 17.455C24.7539 17.3665 24.5694 17.2316 24.4223 17.0605C24.2716 16.9013 24.1632 16.7069 24.1067 16.495C23.9542 16.07 23.9542 15.6051 24.1067 15.1801C24.1622 14.9707 24.2658 14.7771 24.4092 14.6147C24.5581 14.4456 24.7421 14.311 24.9483 14.2202C25.2096 14.1077 25.4924 14.0539 25.7767 14.0624H37.6112C37.8351 13.5934 38.0156 13.1048 38.1502 12.6028C38.2997 11.9786 38.3703 11.338 38.3606 10.6962V10.065C38.37 9.99765 38.3655 9.92907 38.3474 9.8635C38.3293 9.79793 38.298 9.73674 38.2555 9.68369C38.1247 9.62037 37.9795 9.59314 37.8347 9.60479H26.8287ZM28.0515 25.5024C27.5559 25.5129 27.061 25.4599 26.5788 25.3446C26.2315 25.2616 25.9161 25.0788 25.6715 24.8186C25.432 24.5509 25.2686 24.224 25.1982 23.8719C25.0949 23.4013 25.0464 22.9203 25.0535 22.4386V20.453C25.0282 20.1623 25.0749 19.8698 25.1896 19.6014C25.3043 19.3331 25.4834 19.0972 25.711 18.9145C26.1593 18.5948 26.699 18.4288 27.2494 18.4412C27.7883 18.4246 28.3168 18.5915 28.7485 18.9145C28.968 19.102 29.1389 19.3399 29.2465 19.6078C29.3542 19.8757 29.3953 20.1657 29.3665 20.453V21.6759C29.3665 21.8994 29.3665 22.0441 29.4717 22.0967C29.6179 22.1708 29.7818 22.2027 29.9451 22.1887H41.2798C41.5234 22.1703 41.7681 22.2067 41.9957 22.2955C42.2233 22.3842 42.428 22.523 42.5947 22.7015C42.8523 23.027 42.9915 23.4305 42.9892 23.8455C42.9952 24.2674 42.8507 24.6777 42.5816 25.0027C42.412 25.1766 42.2064 25.3114 41.9793 25.3978C41.7522 25.4841 41.509 25.5197 41.2667 25.5024H28.0515Z" fill="white"/>
<path d="M52.6173 13.2902V14.2764H56.0624C56.2985 14.2566 56.5361 14.2836 56.7618 14.3558C56.9874 14.428 57.1966 14.544 57.3773 14.6972C57.5123 14.8363 57.6179 15.001 57.6879 15.1818C57.7579 15.3625 57.7909 15.5554 57.7849 15.7491C57.7946 16.1518 57.6486 16.5427 57.3773 16.8405C57.2059 17.0105 56.9993 17.1409 56.7722 17.2226C56.5451 17.3044 56.3028 17.3355 56.0624 17.3139H45.7533C45.5129 17.3355 45.2706 17.3044 45.0434 17.2226C44.8163 17.1409 44.6098 17.0105 44.4383 16.8405C44.1671 16.5427 44.0211 16.1518 44.0307 15.7491C44.0247 15.5554 44.0577 15.3625 44.1278 15.1818C44.1978 15.001 44.3034 14.8363 44.4383 14.6972C44.6191 14.544 44.8283 14.428 45.0539 14.3558C45.2796 14.2836 45.5172 14.2566 45.7533 14.2764H48.6724V13.2639H48.4752C47.8813 13.2798 47.2893 13.1908 46.7263 13.0009C46.2594 12.8406 45.8331 12.5803 45.4772 12.2382C45.1361 11.9199 44.8786 11.5225 44.7276 11.0811C44.5544 10.6098 44.4696 10.1105 44.4778 9.60837C44.4685 9.0976 44.5532 8.58947 44.7276 8.10932C44.8782 7.66008 45.1354 7.25402 45.4772 6.92589C45.8324 6.57973 46.2586 6.31501 46.7263 6.15008C47.2859 5.94439 47.8792 5.84624 48.4752 5.86079H53.0512C53.6471 5.84624 54.2405 5.94439 54.8001 6.15008C55.2662 6.31832 55.6918 6.58263 56.0492 6.92589C56.3781 7.26191 56.6295 7.66583 56.7856 8.10932C56.9491 8.59192 57.0291 9.09887 57.0223 9.60837C57.0282 10.1092 56.9482 10.6073 56.7856 11.0811C56.6291 11.5167 56.3776 11.912 56.0492 12.2382C55.691 12.5774 55.2654 12.8372 54.8001 13.0009C54.2371 13.1908 53.6451 13.2798 53.0512 13.2639L52.6173 13.2902ZM62.9395 21.7584C62.9401 22.2277 62.8646 22.6939 62.716 23.139C62.5621 23.5582 62.3199 23.9393 62.0059 24.2567C61.6698 24.5981 61.2607 24.8589 60.8093 25.0194C60.2589 25.2252 59.6742 25.3235 59.0868 25.3087H49.0801C48.4927 25.3235 47.9079 25.2252 47.3575 25.0194C46.9079 24.8553 46.4995 24.595 46.1609 24.2567C45.8465 23.9421 45.6081 23.5598 45.464 23.139C45.3034 22.6966 45.2232 22.229 45.2273 21.7584C45.2309 21.3098 45.3109 20.8651 45.464 20.4434C45.6075 20.0146 45.8457 19.6236 46.1609 19.2994C46.5028 18.9652 46.9102 18.7055 47.3575 18.5368C47.9079 18.3309 48.4927 18.2327 49.0801 18.2475H59.0868C59.6742 18.2327 60.2589 18.3309 60.8093 18.5368C61.2582 18.7023 61.6663 18.9624 62.0059 19.2994C62.3205 19.6265 62.5625 20.0163 62.716 20.4434C62.8635 20.8666 62.9434 21.3103 62.9526 21.7584H62.9395ZM49.3694 8.72734C49.2451 8.70748 49.1179 8.71712 48.9981 8.75547C48.8783 8.79383 48.7692 8.85981 48.6796 8.94813C48.59 9.03645 48.5224 9.14461 48.4824 9.26386C48.4423 9.38312 48.4308 9.51015 48.4489 9.63465C48.4361 9.8744 48.5162 10.1099 48.6724 10.2921C48.765 10.3797 48.8747 10.4472 48.9947 10.4902C49.1146 10.5332 49.2422 10.5508 49.3694 10.542H52.1044C52.2337 10.5527 52.3638 10.536 52.4862 10.4929C52.6085 10.4499 52.7204 10.3815 52.8145 10.2921C52.9652 10.1067 53.0445 9.87348 53.038 9.63465C53.0538 9.50943 53.0402 9.38227 52.9984 9.26318C52.9567 9.14409 52.8878 9.03633 52.7973 8.94837C52.7068 8.86042 52.5971 8.79467 52.4769 8.75632C52.3566 8.71796 52.2291 8.70804 52.1044 8.72734H49.3694ZM58.666 21.7584C58.6718 21.5502 58.6069 21.3463 58.4819 21.1798C58.3959 21.0907 58.291 21.0219 58.1749 20.9787C58.0589 20.9355 57.9346 20.9188 57.8113 20.93H50.3556C50.2322 20.9188 50.1079 20.9355 49.9919 20.9787C49.8758 21.0219 49.7709 21.0907 49.6849 21.1798C49.5658 21.3493 49.5016 21.5512 49.5009 21.7584C49.5017 21.9614 49.5661 22.1591 49.6849 22.3238C49.7691 22.4153 49.8738 22.4857 49.9903 22.5291C50.1069 22.5725 50.232 22.5878 50.3556 22.5736H57.877C58.0006 22.5878 58.1257 22.5725 58.2422 22.5291C58.3588 22.4857 58.4635 22.4153 58.5476 22.3238C58.6541 22.1556 58.7004 21.9563 58.6791 21.7584H58.666ZM58.4424 7.57019C58.4219 7.28171 58.4669 6.99236 58.5739 6.72368C58.6809 6.455 58.8472 6.21396 59.0604 6.01858C59.4655 5.66935 59.9853 5.48205 60.52 5.49261C61.0569 5.48314 61.5778 5.67554 61.9796 6.03174C62.1942 6.22386 62.3624 6.46208 62.4717 6.72853C62.581 6.99499 62.6286 7.28274 62.6108 7.57019V9.60837H63.2551C63.5321 9.60196 63.8069 9.66047 64.0572 9.77928C64.2537 9.8796 64.4246 10.0235 64.5569 10.2001C64.6878 10.3718 64.7819 10.5688 64.833 10.7786C64.9609 11.2076 64.9609 11.6646 64.833 12.0936C64.7792 12.3065 64.6855 12.5073 64.5569 12.6853C64.4247 12.8671 64.2481 13.0119 64.0441 13.1061C63.7968 13.2188 63.5267 13.2728 63.2551 13.2639H62.6108V17.6821H58.4424V7.57019Z" fill="white"/>
<path d="M66.0133 13.0339C66.1715 13.0191 66.3311 13.0378 66.4816 13.0888C66.6321 13.1398 66.7702 13.2219 66.8868 13.3299C67.0034 13.4378 67.096 13.5691 67.1585 13.7152C67.2209 13.8614 67.2519 14.019 67.2493 14.1779C67.2526 14.3371 67.2215 14.495 67.158 14.641C67.0945 14.787 67.0002 14.9176 66.8816 15.0237C66.7629 15.1299 66.6227 15.2091 66.4706 15.2561C66.3185 15.303 66.158 15.3164 66.0002 15.2956H64.9482C64.6483 15.2956 64.3607 15.1764 64.1486 14.9644C63.9365 14.7523 63.8174 14.4646 63.8174 14.1647C63.8174 13.8648 63.9365 13.5772 64.1486 13.3651C64.3607 13.153 64.6483 13.0339 64.9482 13.0339H66.0133ZM67.3282 18.6223C67.4286 18.499 67.5539 18.3983 67.6959 18.3267C67.8379 18.2551 67.9934 18.2143 68.1522 18.2068C68.311 18.1994 68.4696 18.2255 68.6177 18.2835C68.7657 18.3415 68.8999 18.4301 69.0114 18.5434C69.1279 18.6537 69.2191 18.788 69.2785 18.937C69.3379 19.086 69.3641 19.2461 69.3554 19.4063C69.3466 19.5665 69.3031 19.7229 69.2278 19.8645C69.1525 20.0062 69.0472 20.1297 68.9193 20.2266L68.183 20.9761C68.0848 21.1059 67.9601 21.2132 67.8171 21.291C67.6742 21.3687 67.5163 21.4151 67.354 21.4269C67.1917 21.4388 67.0288 21.4159 66.876 21.3598C66.7233 21.3037 66.5843 21.2156 66.4683 21.1015C66.3523 20.9874 66.262 20.8499 66.2034 20.6981C66.1447 20.5463 66.1192 20.3837 66.1284 20.2212C66.1376 20.0588 66.1814 19.9002 66.2568 19.756C66.3322 19.6118 66.4374 19.4853 66.5656 19.385L67.3282 18.6223ZM68.9325 8.10285C69.0606 8.20312 69.1659 8.3296 69.2413 8.4738C69.3167 8.618 69.3605 8.77663 69.3697 8.93909C69.3789 9.10155 69.3533 9.2641 69.2947 9.4159C69.2361 9.5677 69.1458 9.70524 69.0298 9.81935C68.9138 9.93347 68.7748 10.0215 68.622 10.0777C68.4693 10.1338 68.3063 10.1567 68.1441 10.1448C67.9818 10.1329 67.8239 10.0865 67.6809 10.0088C67.538 9.93105 67.4133 9.82373 67.3151 9.69395L66.5788 8.95759C66.449 8.85943 66.3416 8.73468 66.2639 8.59174C66.1861 8.44879 66.1398 8.29094 66.1279 8.12865C66.116 7.96636 66.1389 7.80338 66.195 7.65064C66.2512 7.4979 66.3392 7.35889 66.4533 7.24289C66.5674 7.12689 66.705 7.03657 66.8568 6.97796C67.0086 6.91935 67.1711 6.89379 67.3336 6.903C67.496 6.91221 67.6547 6.95598 67.7989 7.03137C67.9431 7.10676 68.0695 7.21205 68.1698 7.3402L68.9325 8.10285ZM68.183 14.099C68.1757 13.4114 68.3146 12.7301 68.5906 12.1003C68.8561 11.4938 69.2304 10.9412 69.6951 10.4698C70.1732 10.0041 70.7354 9.63374 71.3519 9.37834C71.9935 9.1107 72.6818 8.97292 73.377 8.97292C74.0721 8.97292 74.7604 9.1107 75.402 9.37834C76.0165 9.64335 76.5778 10.0176 77.0588 10.4829C77.5363 10.9516 77.9162 11.5102 78.1765 12.1266C78.4455 12.7632 78.5842 13.4473 78.5842 14.1384C78.5842 14.8296 78.4455 15.5137 78.1765 16.1503C77.9115 16.768 77.5323 17.3301 77.0588 17.8071C76.5854 18.285 76.0224 18.6648 75.402 18.9248C74.7671 19.1995 74.0818 19.3384 73.3901 19.3324C72.6898 19.3397 71.9956 19.2009 71.3519 18.9248C70.7315 18.6648 70.1686 18.285 69.6951 17.8071C69.2299 17.3261 68.8556 16.7648 68.5906 16.1503C68.3354 15.502 68.2146 14.8085 68.2355 14.1121L68.183 14.099ZM72.2461 5.65709C72.2289 5.49745 72.2455 5.33597 72.2948 5.18317C72.3442 5.03037 72.4251 4.88966 72.5324 4.7702C72.6397 4.65074 72.7709 4.55522 72.9176 4.48982C73.0642 4.42442 73.223 4.39062 73.3835 4.39062C73.5441 4.39062 73.7029 4.42442 73.8495 4.48982C73.9962 4.55522 74.1274 4.65074 74.2347 4.7702C74.342 4.88966 74.4229 5.03037 74.4722 5.18317C74.5216 5.33597 74.5381 5.49745 74.5209 5.65709V6.6959C74.5381 6.85554 74.5216 7.01702 74.4722 7.16982C74.4229 7.32262 74.342 7.46328 74.2347 7.58274C74.1274 7.7022 73.9962 7.79776 73.8495 7.86316C73.7029 7.92856 73.5441 7.96236 73.3835 7.96236C73.223 7.96236 73.0642 7.92856 72.9176 7.86316C72.7709 7.79776 72.6397 7.7022 72.5324 7.58274C72.4251 7.46328 72.3442 7.32262 72.2948 7.16982C72.2455 7.01702 72.2289 6.85554 72.2461 6.6959V5.65709ZM72.2461 21.5809C72.2313 21.4227 72.25 21.2632 72.301 21.1127C72.352 20.9622 72.4342 20.8241 72.5421 20.7075C72.6501 20.5909 72.7814 20.4983 72.9275 20.4358C73.0736 20.3734 73.2312 20.3424 73.3901 20.3449C73.5497 20.342 73.7081 20.3732 73.8547 20.4366C74.0012 20.4999 74.1325 20.594 74.2396 20.7123C74.3468 20.8307 74.4274 20.9706 74.4759 21.1227C74.5244 21.2748 74.5398 21.4356 74.5209 21.5941V22.6461C74.5381 22.8057 74.5216 22.9672 74.4722 23.12C74.4229 23.2728 74.342 23.4135 74.2347 23.5329C74.1274 23.6524 73.9962 23.7479 73.8495 23.8133C73.7029 23.8787 73.5441 23.9125 73.3835 23.9125C73.223 23.9125 73.0642 23.8787 72.9176 23.8133C72.7709 23.7479 72.6397 23.6524 72.5324 23.5329C72.4251 23.4135 72.3442 23.2728 72.2948 23.12C72.2455 22.9672 72.2289 22.8057 72.2461 22.6461V21.5809ZM78.5841 7.35336C78.6845 7.23007 78.8098 7.12934 78.9518 7.05774C79.0937 6.98614 79.2492 6.94528 79.4081 6.93783C79.5669 6.93039 79.7255 6.95651 79.8735 7.01452C80.0216 7.07253 80.1557 7.16111 80.2672 7.27447C80.3838 7.38469 80.4749 7.51896 80.5343 7.66797C80.5938 7.81699 80.62 7.97718 80.6112 8.13736C80.6025 8.29754 80.5589 8.4539 80.4836 8.59555C80.4083 8.7372 80.3031 8.86074 80.1752 8.95759L79.4388 9.70707C79.3407 9.83685 79.2159 9.94422 79.073 10.022C78.93 10.0997 78.7721 10.146 78.6099 10.1579C78.4476 10.1698 78.2846 10.1469 78.1319 10.0908C77.9791 10.0347 77.8401 9.94663 77.7241 9.83251C77.6081 9.7184 77.5178 9.58086 77.4592 9.42906C77.4006 9.27726 77.375 9.11471 77.3842 8.95225C77.3935 8.78979 77.4372 8.63116 77.5126 8.48696C77.588 8.34276 77.6933 8.21628 77.8214 8.11601L78.5841 7.35336ZM80.1883 19.3587C80.3116 19.4591 80.4124 19.5844 80.484 19.7264C80.5556 19.8683 80.5964 20.0238 80.6038 20.1827C80.6113 20.3415 80.5852 20.5001 80.5272 20.6482C80.4692 20.7962 80.3806 20.9304 80.2672 21.0419C80.1559 21.1564 80.0213 21.2457 79.8725 21.3039C79.7237 21.362 79.5642 21.3876 79.4047 21.3789C79.2452 21.3701 79.0895 21.3273 78.9479 21.2533C78.8063 21.1793 78.6823 21.0758 78.5841 20.9498L77.8346 20.2134C77.7048 20.1153 77.5975 19.9905 77.5197 19.8476C77.442 19.7046 77.3956 19.5468 77.3838 19.3845C77.3719 19.2222 77.3948 19.0592 77.4509 18.9065C77.507 18.7538 77.5951 18.6147 77.7092 18.4987C77.8233 18.3827 77.9608 18.2924 78.1126 18.2338C78.2644 18.1752 78.427 18.1496 78.5894 18.1589C78.7519 18.1681 78.9105 18.2118 79.0547 18.2872C79.1989 18.3626 79.3254 18.4679 79.4257 18.5961L80.1883 19.3587ZM81.8714 13.0207C82.0357 12.9936 82.2039 13.003 82.3641 13.0484C82.5243 13.0938 82.6725 13.174 82.7981 13.2833C82.9237 13.3925 83.0237 13.5282 83.0908 13.6806C83.1579 13.833 83.1905 13.9983 83.1864 14.1647C83.189 14.3297 83.155 14.4931 83.087 14.6434C83.0189 14.7937 82.9184 14.9271 82.7927 15.0339C82.667 15.1408 82.5192 15.2184 82.3599 15.2614C82.2006 15.3044 82.0338 15.3116 81.8714 15.2824H80.8195C80.5196 15.2824 80.2319 15.1633 80.0199 14.9512C79.8078 14.7391 79.6887 14.4515 79.6887 14.1516C79.6887 13.8516 79.8078 13.564 80.0199 13.352C80.2319 13.1399 80.5196 13.0207 80.8195 13.0207H81.8714Z" fill="white"/>
</g>
<defs>
<radialGradient id="paint0_diamond_765_151896" cx="0" cy="0" r="1" gradientUnits="userSpaceOnUse" gradientTransform="translate(36.7268 15.1816) rotate(-179.158) scale(36.7473 269.346)">
<stop offset="0.119792" stop-color="#FFAD76"/>
<stop offset="0.5" stop-color="#FF6A00"/>
</radialGradient>
<clipPath id="clip0_765_151896">
<rect width="87.0882" height="29.0206" fill="white" transform="translate(0.0300293 0.492188)"/>
</clipPath>
</defs>
</svg>
