<svg width="169" height="57" viewBox="0 0 169 57" fill="none" xmlns="http://www.w3.org/2000/svg">
<g clip-path="url(#clip0_94_39960)">
<path d="M11.1302 31.7135C11.0772 32.0048 10.9831 32.2872 10.8506 32.5521C10.5481 32.6627 10.2317 32.7311 9.91043 32.7553V32.7553C8.41921 32.8904 6.97207 33.3327 5.66009 34.0543C4.34811 34.7759 3.19969 35.7611 2.28706 36.9482C0.754628 39.0052 -0.0257604 41.5257 0.0762535 44.0888C0.0956722 45.8677 0.573627 47.6115 1.46391 49.1516C2.3542 50.6918 3.62672 51.9764 5.1585 52.8811C7.30927 54.1428 9.78376 54.7437 12.2737 54.609C15.0573 54.5017 17.8007 53.9083 20.3798 52.8556L21.3963 52.4237V55.9558H53.0587H54.2785H79.8421C82.243 56.0203 84.5991 55.2974 86.5507 53.8975C87.2379 54.3304 87.9604 54.7044 88.7106 55.0156C90.6586 55.7508 92.7275 56.1129 94.8093 56.0829H114.147C116.229 56.1129 118.298 55.7508 120.246 55.0156C122.153 54.3071 123.886 53.198 125.328 51.763C126.409 50.5782 127.27 49.2099 127.869 47.7226C129.631 48.1634 131.482 48.0928 133.206 47.5192C134.027 49.132 135.278 50.4862 136.82 51.4321C138.363 52.3779 140.138 52.8785 141.947 52.8785C143.757 52.8785 145.531 52.3779 147.074 51.4321C148.617 50.4862 149.868 49.132 150.689 47.5192C152.404 48.1109 154.253 48.2004 156.018 47.7773C157.782 47.3541 159.389 46.4359 160.65 45.1306C161.935 43.862 162.84 42.2593 163.262 40.5035C163.684 38.7478 163.607 36.909 163.039 35.1949C164.669 34.3956 166.038 33.1496 166.988 31.6019C167.937 30.0543 168.427 28.2688 168.4 26.4534C168.411 24.6443 167.918 22.868 166.975 21.3239C166.032 19.7798 164.678 18.529 163.064 17.7119C163.656 15.9964 163.745 14.1477 163.322 12.3831C162.899 10.6185 161.981 9.0113 160.675 7.75068C158.846 5.90825 156.36 4.86654 153.763 4.85384V4.85384C152.726 4.85523 151.696 5.02688 150.714 5.36202C149.917 3.72988 148.672 2.35867 147.124 1.40904C145.575 0.459415 143.789 -0.0292431 141.973 0.000286887C140.167 -0.0116845 138.393 0.481698 136.853 1.42471C135.313 2.36771 134.067 3.72276 133.257 5.33666C131.963 4.89446 130.589 4.73812 129.229 4.8785C127.869 5.01889 126.555 5.45261 125.379 6.14976C125.125 5.89565 124.896 5.61616 124.642 5.38746C122.567 3.66513 119.979 2.6807 117.283 2.58871C114.588 2.49673 111.939 3.30236 109.751 4.8792L108.506 4.34559C106.561 3.63344 104.504 3.28042 102.433 3.30372H93.5896C91.5082 3.2785 89.4401 3.64043 87.4909 4.37102C86.599 4.69821 85.7466 5.12439 84.9498 5.64158C82.5274 4.01932 79.6556 3.2013 76.742 3.30372H51.9151C50.4173 3.28237 48.928 3.53205 47.5191 4.04066C46.9248 3.68649 46.2944 3.39686 45.6386 3.17669C42.8837 2.2432 39.8824 2.35167 37.2021 3.48161C35.3457 2.70151 33.3208 2.40877 31.3195 2.63113C29.3182 2.8535 27.4069 3.58361 25.767 4.75217L25.1571 4.57428C23.6227 4.23172 22.0535 4.06968 20.4815 4.09146H11.5875C9.92255 4.06652 8.27303 4.41378 6.75942 5.10789C5.33613 5.7614 4.07716 6.72521 3.0748 7.92858C2.13953 9.03441 1.44694 10.3243 1.04189 11.7148C0.364414 13.9344 0.364414 16.3055 1.04189 18.525C1.46661 19.9848 2.2134 21.3309 3.22726 22.4638C4.19 23.5419 5.36704 24.4074 6.68319 25.0049C8.18898 25.7275 9.84124 26.0927 11.5113 26.0722V28.9183C11.4926 29.8616 11.3647 30.7995 11.1302 31.7135V31.7135Z" fill="url(#paint0_diamond_94_39960)"/>
<path d="M10.725 40.3275C12.079 40.2244 13.3956 39.8345 14.5875 39.1839C15.6022 38.6093 16.4715 37.8095 17.1286 36.8462C17.7988 35.7849 18.2803 34.6156 18.5516 33.3902C18.8501 31.9441 18.9949 30.4706 18.9836 28.9941V19.5157C18.9962 19.2543 18.9048 18.9985 18.7295 18.8042C18.6326 18.7004 18.5142 18.6193 18.3824 18.5666C18.2506 18.5139 18.1089 18.4909 17.9672 18.4992H11.4365C10.8952 18.5163 10.3569 18.4121 9.86101 18.1943C9.45601 18.006 9.09305 17.7381 8.79374 17.4066C8.51829 17.0876 8.31076 16.7157 8.18386 16.3138C7.92592 15.4864 7.92592 14.6001 8.18386 13.7727C8.31076 13.3708 8.51829 12.999 8.79374 12.68C9.07327 12.3382 9.43045 12.0681 9.83557 11.8923C10.3405 11.6749 10.887 11.5708 11.4365 11.5874H20.3304C21.3039 11.5616 22.2768 11.6554 23.2273 11.8669C23.9328 12.0114 24.5892 12.3352 25.1332 12.8071C25.6369 13.2626 25.9986 13.8538 26.175 14.5097C26.3901 15.3392 26.4928 16.1939 26.48 17.0508V28.9687C26.5407 31.6541 26.1277 34.3293 25.2602 36.8715C24.5794 38.9008 23.4897 40.7689 22.0584 42.3603C20.7626 43.7805 19.1648 44.8919 17.3827 45.613C15.5997 46.3265 13.7105 46.7387 11.7922 46.8327C10.7798 46.8983 9.77086 46.6594 8.89537 46.1467C8.48127 45.8991 8.14208 45.5438 7.91387 45.1187C7.68566 44.6936 7.57698 44.2145 7.59941 43.7326C7.54459 42.8809 7.7871 42.0366 8.28552 41.3439C8.60212 41.0181 8.98157 40.7601 9.40091 40.5853C9.82025 40.4106 10.2707 40.3229 10.725 40.3275V40.3275ZM28.894 13.6203C28.8677 13.1435 28.9502 12.6671 29.1351 12.2269C29.32 11.7866 29.6025 11.3941 29.9613 11.0791C30.6789 10.4986 31.5797 10.1924 32.5024 10.2152C33.4265 10.1832 34.3304 10.4905 35.0435 11.0791C35.4131 11.3879 35.7063 11.778 35.9002 12.2188C36.0942 12.6596 36.1836 13.1392 36.1616 13.6203V25.0807H38.1945V13.6203C38.1675 13.141 38.2521 12.6621 38.4417 12.2211C38.6314 11.7801 38.9208 11.3892 39.2872 11.0791C40.0069 10.5025 40.9062 10.1968 41.8283 10.2152C42.2869 10.2149 42.7423 10.2922 43.1751 10.4438C43.598 10.5822 43.9875 10.8073 44.3186 11.1046C44.6598 11.4009 44.9366 11.7642 45.1318 12.1718C45.345 12.6422 45.4492 13.1548 45.4367 13.6711V48.3828H38.22V31.8147H36.187V48.3828H29.0211L28.894 13.6203Z" fill="white"/>
<path d="M51.7879 17.61C51.2663 17.6584 50.7405 17.5951 50.2453 17.4242C49.7502 17.2533 49.2971 16.9787 48.9164 16.6189C48.3311 15.964 48.0216 15.1082 48.0525 14.2304C48.0481 13.3844 48.3454 12.5645 48.891 11.9179C49.2736 11.5533 49.7307 11.2759 50.2308 11.1048C50.7309 10.9337 51.2621 10.873 51.7879 10.9268H76.6147C78.1204 10.7859 79.6246 11.2118 80.8329 12.1212C81.2654 12.5713 81.5995 13.1065 81.8138 13.6927C82.0282 14.2789 82.1181 14.9034 82.0781 15.5263V18.3215C82.1032 19.9163 81.9584 21.5093 81.6461 23.0734C81.4227 24.164 81.0641 25.2226 80.5788 26.2245H80.9854C81.5265 26.21 82.0642 26.314 82.5609 26.5294C82.963 26.7114 83.3256 26.9703 83.6282 27.2917C83.8868 27.618 84.0848 27.9881 84.2127 28.3844C84.4706 29.2118 84.4706 30.0981 84.2127 30.9255C84.0858 31.3274 83.8782 31.6992 83.6027 32.0182C83.3046 32.3559 82.93 32.6173 82.5101 32.7805C82.0286 32.9846 81.508 33.08 80.9854 33.06H49.755C49.2156 33.0851 48.6774 32.9896 48.1795 32.7805C47.7784 32.6096 47.4219 32.3488 47.1376 32.0182C46.8464 31.7105 46.6368 31.3348 46.5278 30.9255C46.2329 30.1041 46.2329 29.2057 46.5278 28.3844C46.635 27.9797 46.8352 27.6055 47.1122 27.2917C47.4001 26.9649 47.7556 26.7048 48.1541 26.5294C48.6591 26.3119 49.2055 26.2079 49.755 26.2245H72.6252C73.058 25.3181 73.4067 24.3739 73.6669 23.4038C73.9557 22.1973 74.0923 20.9595 74.0735 19.7191V18.4994C74.0916 18.3692 74.0829 18.2367 74.0479 18.11C74.013 17.9833 73.9525 17.865 73.8703 17.7625C73.6176 17.6401 73.3369 17.5875 73.0571 17.61H51.7879ZM54.1511 48.3322C53.1933 48.3526 52.2368 48.2501 51.3051 48.0273C50.6339 47.867 50.0243 47.5136 49.5517 47.0108C49.0889 46.4935 48.7731 45.8618 48.6369 45.1812C48.4375 44.2718 48.3436 43.3424 48.3574 42.4114V38.5743C48.3085 38.0125 48.3988 37.4472 48.6204 36.9286C48.842 36.41 49.1881 35.9541 49.6279 35.6011C50.4943 34.9833 51.5373 34.6624 52.6011 34.6864C53.6425 34.6544 54.6638 34.9769 55.4979 35.6011C55.9222 35.9635 56.2525 36.4232 56.4605 36.9409C56.6684 37.4587 56.748 38.0191 56.6923 38.5743V40.9375C56.6923 41.3695 56.6923 41.649 56.8956 41.7507C57.178 41.8939 57.4948 41.9555 57.8104 41.9286H79.7148C80.1856 41.8929 80.6584 41.9633 81.0982 42.1349C81.5381 42.3064 81.9337 42.5746 82.256 42.9196C82.7537 43.5486 83.0226 44.3282 83.0183 45.1303C83.0299 45.9457 82.7506 46.7385 82.2306 47.3665C81.9028 47.7027 81.5056 47.9632 81.0667 48.13C80.6278 48.2968 80.1578 48.3658 79.6895 48.3322H54.1511Z" fill="white"/>
<path d="M101.492 25.2337V27.1396H108.15C108.606 27.1014 109.066 27.1535 109.502 27.293C109.938 27.4326 110.342 27.6568 110.691 27.9527C110.952 28.2215 111.156 28.54 111.291 28.8892C111.427 29.2384 111.491 29.6113 111.479 29.9856C111.498 30.7638 111.215 31.5193 110.691 32.0948C110.36 32.4232 109.961 32.6752 109.522 32.8332C109.083 32.9912 108.615 33.0514 108.15 33.0096H88.2277C87.763 33.0514 87.2948 32.9912 86.8559 32.8332C86.417 32.6752 86.0179 32.4232 85.6865 32.0948C85.1623 31.5193 84.8801 30.7638 84.8988 29.9856C84.8872 29.6113 84.951 29.2384 85.0863 28.8892C85.2216 28.54 85.4257 28.2215 85.6865 27.9527C86.0358 27.6568 86.4401 27.4326 86.8761 27.293C87.3122 27.1535 87.7714 27.1014 88.2277 27.1396H93.869V25.1829H93.4878C92.3401 25.2137 91.196 25.0416 90.1081 24.6747C89.2057 24.3649 88.3819 23.8619 87.694 23.2009C87.0349 22.5857 86.5374 21.8177 86.2456 20.9647C85.9107 20.0538 85.747 19.0889 85.7628 18.1186C85.7448 17.1316 85.9085 16.1496 86.2456 15.2217C86.5365 14.3535 87.0336 13.5688 87.694 12.9347C88.3805 12.2658 89.2042 11.7542 90.1081 11.4354C91.1894 11.0379 92.3361 10.8483 93.4878 10.8764H102.331C103.483 10.8483 104.629 11.0379 105.711 11.4354C106.611 11.7606 107.434 12.2713 108.125 12.9347C108.76 13.5841 109.246 14.3646 109.548 15.2217C109.864 16.1543 110.018 17.134 110.005 18.1186C110.017 19.0865 109.862 20.0491 109.548 20.9647C109.245 21.8065 108.759 22.5704 108.125 23.2009C107.432 23.8563 106.61 24.3584 105.711 24.6747C104.623 25.0416 103.479 25.2137 102.331 25.1829L101.492 25.2337ZM121.44 41.5986C121.441 42.5055 121.295 43.4065 121.008 44.2667C120.711 45.0767 120.243 45.8133 119.636 46.4267C118.986 47.0864 118.196 47.5904 117.324 47.9006C116.26 48.2983 115.13 48.4881 113.995 48.4596H94.6567C93.5215 48.4881 92.3914 48.2983 91.3278 47.9006C90.4589 47.5835 89.6697 47.0804 89.0154 46.4267C88.4078 45.8187 87.9471 45.0799 87.6686 44.2667C87.3582 43.4117 87.2033 42.5081 87.2112 41.5986C87.2181 40.7317 87.3728 39.8723 87.6686 39.0574C87.9459 38.2287 88.4062 37.4731 89.0154 36.8467C89.6761 36.2008 90.4634 35.6989 91.3278 35.3728C92.3914 34.975 93.5215 34.7852 94.6567 34.8137H113.995C115.13 34.7852 116.26 34.975 117.324 35.3728C118.191 35.6928 118.98 36.1954 119.636 36.8467C120.244 37.4787 120.712 38.2321 121.008 39.0574C121.293 39.8752 121.448 40.7327 121.466 41.5986H121.44ZM95.2158 16.416C94.9757 16.3776 94.7299 16.3963 94.4983 16.4704C94.2668 16.5445 94.056 16.672 93.8828 16.8427C93.7097 17.0134 93.5791 17.2224 93.5016 17.4529C93.4242 17.6833 93.402 17.9288 93.4369 18.1694C93.4122 18.6327 93.5669 19.0877 93.869 19.44C94.0478 19.6093 94.2598 19.7396 94.4917 19.8227C94.7235 19.9059 94.9701 19.9399 95.2158 19.9228H100.501C100.751 19.9435 101.002 19.9112 101.239 19.828C101.475 19.7448 101.692 19.6126 101.873 19.44C102.165 19.0817 102.318 18.6309 102.306 18.1694C102.336 17.9274 102.31 17.6817 102.229 17.4515C102.148 17.2214 102.015 17.0131 101.84 16.8432C101.665 16.6732 101.453 16.5461 101.221 16.472C100.989 16.3979 100.742 16.3787 100.501 16.416H95.2158ZM113.182 41.5986C113.193 41.1964 113.067 40.8022 112.826 40.4805C112.66 40.3082 112.457 40.1754 112.233 40.0919C112.008 40.0083 111.768 39.9761 111.53 39.9976H97.1216C96.8832 39.9761 96.643 40.0083 96.4188 40.0919C96.1945 40.1754 95.9918 40.3082 95.8256 40.4805C95.5954 40.808 95.4713 41.1982 95.4699 41.5986C95.4715 41.991 95.5959 42.373 95.8256 42.6912C95.9883 42.8682 96.1905 43.0041 96.4157 43.088C96.641 43.172 96.8828 43.2014 97.1216 43.174H111.657C111.896 43.2014 112.137 43.172 112.363 43.088C112.588 43.0041 112.79 42.8682 112.953 42.6912C113.159 42.3662 113.248 41.981 113.207 41.5986H113.182ZM112.749 14.1798C112.71 13.6223 112.797 13.0631 113.004 12.5439C113.21 12.0247 113.532 11.5589 113.944 11.1813C114.727 10.5064 115.731 10.1445 116.765 10.1649C117.802 10.1466 118.809 10.5184 119.585 11.2068C120 11.578 120.325 12.0384 120.536 12.5533C120.747 13.0682 120.839 13.6243 120.805 14.1798V18.1186H122.05C122.585 18.1062 123.116 18.2193 123.6 18.4489C123.98 18.6428 124.31 18.9209 124.566 19.2621C124.819 19.5939 125.001 19.9746 125.099 20.3802C125.347 21.2092 125.347 22.0923 125.099 22.9213C124.995 23.3328 124.814 23.7209 124.566 24.0648C124.31 24.4161 123.969 24.696 123.575 24.8779C123.097 25.0958 122.575 25.2002 122.05 25.1829H120.805V33.7211H112.749V14.1798Z" fill="white"/>
<path d="M127.513 24.2422C127.819 24.2136 128.127 24.2498 128.418 24.3483C128.709 24.4469 128.976 24.6057 129.201 24.8142C129.427 25.0228 129.605 25.2766 129.726 25.559C129.847 25.8413 129.907 26.146 129.902 26.453C129.908 26.7606 129.848 27.0659 129.725 27.348C129.603 27.6301 129.42 27.8824 129.191 28.0876C128.962 28.2927 128.691 28.4459 128.397 28.5366C128.103 28.6273 127.793 28.6533 127.488 28.6129H125.455C124.875 28.6129 124.319 28.3827 123.91 27.9729C123.5 27.5631 123.27 27.0072 123.27 26.4276C123.27 25.848 123.5 25.2921 123.91 24.8823C124.319 24.4724 124.875 24.2422 125.455 24.2422H127.513ZM130.054 35.0419C130.248 34.8037 130.49 34.609 130.765 34.4706C131.039 34.3323 131.34 34.2533 131.647 34.2389C131.954 34.2245 132.26 34.2751 132.546 34.3872C132.832 34.4993 133.091 34.6704 133.307 34.8895C133.532 35.1025 133.708 35.362 133.823 35.65C133.938 35.938 133.989 36.2475 133.972 36.557C133.955 36.8666 133.871 37.1687 133.725 37.4425C133.58 37.7162 133.376 37.955 133.129 38.1421L131.706 39.5906C131.516 39.8414 131.275 40.0489 130.999 40.1991C130.723 40.3493 130.418 40.4389 130.104 40.4618C129.79 40.4848 129.476 40.4405 129.18 40.3321C128.885 40.2237 128.617 40.0535 128.392 39.833C128.168 39.6125 127.994 39.3467 127.88 39.0533C127.767 38.76 127.718 38.4458 127.736 38.1318C127.753 37.8178 127.838 37.5114 127.984 37.2327C128.129 36.954 128.333 36.7096 128.58 36.5158L130.054 35.0419ZM133.154 14.713C133.402 14.9067 133.606 15.1511 133.751 15.4298C133.897 15.7085 133.982 16.015 133.999 16.329C134.017 16.643 133.968 16.9571 133.854 17.2504C133.741 17.5438 133.567 17.8096 133.343 18.0301C133.118 18.2506 132.85 18.4209 132.555 18.5293C132.259 18.6377 131.944 18.682 131.631 18.659C131.317 18.6361 131.012 18.5465 130.736 18.3962C130.46 18.246 130.219 18.0386 130.029 17.7878L128.606 16.3648C128.355 16.1751 128.148 15.934 127.997 15.6577C127.847 15.3815 127.758 15.0764 127.735 14.7628C127.712 14.4492 127.756 14.1342 127.864 13.8391C127.973 13.5439 128.143 13.2753 128.363 13.0511C128.584 12.8269 128.85 12.6524 129.143 12.5391C129.437 12.4258 129.751 12.3764 130.065 12.3942C130.379 12.412 130.685 12.4966 130.964 12.6423C131.242 12.788 131.487 12.9915 131.681 13.2391L133.154 14.713ZM131.706 26.3006C131.692 24.9718 131.961 23.6551 132.494 22.438C133.007 21.2661 133.73 20.1981 134.628 19.287C135.552 18.3872 136.639 17.6714 137.83 17.1779C139.07 16.6606 140.4 16.3944 141.743 16.3944C143.087 16.3944 144.417 16.6606 145.657 17.1779C146.844 17.69 147.929 18.4133 148.859 19.3125C149.781 20.2181 150.516 21.2977 151.019 22.4889C151.539 23.7191 151.806 25.0412 151.806 26.3768C151.806 27.7124 151.539 29.0345 151.019 30.2647C150.507 31.4584 149.774 32.5447 148.859 33.4665C147.944 34.39 146.856 35.124 145.657 35.6264C144.43 36.1574 143.106 36.4257 141.769 36.4142C140.416 36.4283 139.074 36.16 137.83 35.6264C136.631 35.124 135.543 34.39 134.628 33.4665C133.729 32.537 133.006 31.4522 132.494 30.2647C132.001 29.0118 131.767 27.6717 131.808 26.3259L131.706 26.3006ZM139.558 9.98651C139.525 9.678 139.557 9.36594 139.652 9.07065C139.748 8.77537 139.904 8.50345 140.111 8.2726C140.319 8.04174 140.572 7.85715 140.856 7.73076C141.139 7.60438 141.446 7.53906 141.756 7.53906C142.066 7.53906 142.373 7.60438 142.657 7.73076C142.94 7.85715 143.194 8.04174 143.401 8.2726C143.608 8.50345 143.765 8.77537 143.86 9.07065C143.955 9.36594 143.987 9.678 143.954 9.98651V11.994C143.987 12.3025 143.955 12.6146 143.86 12.9099C143.765 13.2052 143.608 13.477 143.401 13.7078C143.194 13.9387 142.94 14.1234 142.657 14.2498C142.373 14.3761 142.066 14.4415 141.756 14.4415C141.446 14.4415 141.139 14.3761 140.856 14.2498C140.572 14.1234 140.319 13.9387 140.111 13.7078C139.904 13.477 139.748 13.2052 139.652 12.9099C139.557 12.6146 139.525 12.3025 139.558 11.994V9.98651ZM139.558 40.7595C139.53 40.4537 139.566 40.1454 139.664 39.8546C139.763 39.5637 139.922 39.2969 140.13 39.0715C140.339 38.8462 140.592 38.6673 140.875 38.5465C141.157 38.4258 141.462 38.366 141.769 38.3709C142.077 38.3651 142.383 38.4255 142.667 38.5479C142.95 38.6704 143.204 38.8521 143.411 39.0808C143.618 39.3096 143.773 39.58 143.867 39.8739C143.961 40.1679 143.991 40.4785 143.954 40.7849V42.8179C143.987 43.1264 143.955 43.4383 143.86 43.7336C143.765 44.0289 143.608 44.3008 143.401 44.5317C143.194 44.7625 142.94 44.9472 142.657 45.0736C142.373 45.2 142.066 45.2653 141.756 45.2653C141.446 45.2653 141.139 45.2 140.856 45.0736C140.572 44.9472 140.319 44.7625 140.111 44.5317C139.904 44.3008 139.748 44.0289 139.652 43.7336C139.557 43.4383 139.525 43.1264 139.558 42.8179V40.7595ZM151.806 13.2646C152 13.0263 152.242 12.8316 152.517 12.6933C152.791 12.5549 153.092 12.4759 153.399 12.4616C153.706 12.4472 154.012 12.4977 154.298 12.6098C154.584 12.7219 154.843 12.893 155.059 13.1121C155.284 13.3251 155.46 13.5846 155.575 13.8726C155.69 14.1605 155.741 14.4701 155.724 14.7797C155.707 15.0892 155.623 15.3914 155.477 15.6651C155.332 15.9388 155.128 16.1776 154.881 16.3648L153.458 17.8131C153.268 18.0639 153.027 18.2714 152.751 18.4217C152.475 18.5719 152.17 18.6615 151.856 18.6844C151.542 18.7073 151.228 18.6631 150.932 18.5547C150.637 18.4462 150.369 18.2761 150.144 18.0555C149.92 17.835 149.746 17.5692 149.632 17.2759C149.519 16.9825 149.47 16.6684 149.488 16.3544C149.505 16.0405 149.59 15.7339 149.736 15.4553C149.881 15.1766 150.085 14.9322 150.332 14.7384L151.806 13.2646ZM154.906 36.465C155.145 36.6591 155.339 36.9011 155.478 37.1755C155.616 37.4498 155.695 37.7503 155.709 38.0573C155.724 38.3642 155.673 38.6707 155.561 38.9568C155.449 39.2429 155.278 39.5022 155.059 39.7177C154.844 39.939 154.584 40.1117 154.296 40.224C154.009 40.3363 153.7 40.3858 153.392 40.3689C153.084 40.3521 152.783 40.2693 152.509 40.1263C152.236 39.9833 151.996 39.7833 151.806 39.5398L150.358 38.1168C150.107 37.9271 149.9 37.686 149.749 37.4097C149.599 37.1335 149.51 36.8285 149.487 36.5148C149.464 36.2012 149.508 35.8862 149.616 35.5911C149.725 35.2959 149.895 35.0273 150.115 34.8031C150.336 34.5789 150.602 34.4044 150.895 34.2911C151.189 34.1778 151.503 34.1285 151.817 34.1463C152.131 34.164 152.437 34.2486 152.716 34.3943C152.994 34.54 153.239 34.7435 153.433 34.9911L154.906 36.465ZM158.159 24.2168C158.477 24.1643 158.802 24.1826 159.111 24.2703C159.421 24.358 159.707 24.5129 159.95 24.7241C160.193 24.9353 160.386 25.1976 160.516 25.492C160.645 25.7865 160.708 26.1059 160.7 26.4276C160.705 26.7464 160.64 27.0622 160.508 27.3527C160.377 27.6431 160.182 27.9008 159.939 28.1073C159.697 28.3138 159.411 28.4639 159.103 28.5469C158.795 28.6299 158.473 28.6438 158.159 28.5875H156.126C155.547 28.5875 154.991 28.3573 154.581 27.9475C154.171 27.5376 153.941 26.9817 153.941 26.4021C153.941 25.8225 154.171 25.2667 154.581 24.8569C154.991 24.4471 155.547 24.2168 156.126 24.2168H158.159Z" fill="white"/>
</g>
<defs>
<radialGradient id="paint0_diamond_94_39960" cx="0" cy="0" r="1" gradientUnits="userSpaceOnUse" gradientTransform="translate(84.2343 28.0418) rotate(-179.525) scale(84.3269 618.089)">
<stop stop-color="#FFE600"/>
<stop offset="1" stop-color="#FF6A00"/>
</radialGradient>
<clipPath id="clip0_94_39960">
<rect width="168.299" height="56.0826" fill="white"/>
</clipPath>
</defs>
</svg>
