<svg width="170" height="55" viewBox="0 0 170 55" fill="none" xmlns="http://www.w3.org/2000/svg">
<g clip-path="url(#clip0_94_39934)">
<path d="M3.8848e-05 35.0676C-0.00321343 37.5943 0.847488 40.048 2.4141 42.0304C3.44471 43.3198 4.763 44.35 6.26332 45.0383C7.76364 45.7267 9.40431 46.0542 11.0539 45.9945H15.0181V54.3548H38.5489V45.9945H42.6655C43.1518 47.6557 44.0224 49.1791 45.2066 50.4415C46.595 51.9083 48.3493 52.9785 50.2889 53.5417C51.901 53.9927 53.5702 54.2067 55.244 54.1769H80.9094C82.9151 54.2122 84.8951 53.7216 86.6523 52.7539C88.736 53.724 91.0119 54.2105 93.3101 54.1769H119.204C120.928 54.1965 122.626 53.7673 124.134 52.9317V52.9317C124.755 53.2256 125.402 53.4638 126.065 53.6433C127.677 54.0451 129.334 54.233 130.995 54.2023H167.485V38.9556C167.509 37.499 167.39 36.0436 167.13 34.6103V34.2037C168.135 32.8079 168.805 31.199 169.087 29.5022C169.369 27.8053 169.256 26.0663 168.756 24.4204C168.391 23.1647 167.787 21.9913 166.977 20.9644C168.215 17.5145 168.215 13.7417 166.977 10.2917C166.302 8.43702 165.226 6.75397 163.826 5.36198C162.382 3.94214 160.648 2.85008 158.744 2.16014C156.804 1.42979 154.744 1.06781 152.671 1.09284H132.342C129.407 0.970063 126.504 1.73144 124.007 3.27824C122.024 1.73914 119.611 0.853811 117.103 0.744566C114.595 0.635321 112.115 1.30749 110.005 2.66832C108.363 1.91662 106.576 1.53499 104.771 1.5503C102.067 1.49665 99.4315 2.39627 97.3251 4.09142C95.2397 2.39399 92.6187 1.49331 89.9304 1.5503C88.3468 1.55596 86.7783 1.85755 85.3056 2.43963C84.6307 2.02183 83.9156 1.67279 83.171 1.39776C81.2061 0.698546 79.0945 0.515952 77.0387 0.867481C74.9829 1.21901 73.052 2.09289 71.431 3.40527C70.9452 3.80645 70.4946 4.24858 70.0843 4.7267C69.2499 4.54388 68.3972 4.45859 67.5431 4.47258C67.1859 4.05185 66.7949 3.66086 66.3742 3.3036C64.12 1.55626 61.3488 0.608002 58.4967 0.608002C55.6445 0.608002 52.8734 1.55626 50.6192 3.3036C50.2235 3.64416 49.8579 4.01826 49.5265 4.4217C48.3771 4.42352 47.2356 4.61234 46.1468 4.98075C45.8419 4.82829 45.5878 4.62504 45.2574 4.47258C43.7959 3.85043 42.2209 3.53886 40.6326 3.55773H35.5503C35.2213 3.21668 34.8736 2.89429 34.5085 2.59209C32.2478 0.871244 29.485 -0.0605469 26.6438 -0.0605469C23.8025 -0.0605469 21.0397 0.871244 18.7789 2.59209C18.3883 2.91967 18.0151 3.26744 17.6608 3.63396H12.5786C10.9714 3.61677 9.37854 3.93707 7.90293 4.57416C6.51747 5.18005 5.27854 6.07681 4.27011 7.20362C3.26169 8.33042 2.50736 9.66092 2.05834 11.1049C1.70394 12.2226 1.52397 13.3883 1.52473 14.5608C1.52002 16.5631 2.05553 18.5295 3.07481 20.2529V20.2529C1.32575 22.4743 0.52232 25.2954 0.838614 28.105C0.90561 28.7321 1.0246 29.3526 1.19437 29.96C0.941445 30.4589 0.729002 30.9772 0.559089 31.5101C0.185589 32.6589 -0.00311338 33.8597 3.8848e-05 35.0676V35.0676Z" fill="url(#paint0_diamond_94_39934)"/>
<path d="M30.7999 38.3708V46.7311H22.6429V38.3708H11.1824C10.7095 38.4052 10.2349 38.3315 9.79469 38.1554C9.35443 37.9793 8.96002 37.7054 8.6413 37.3544C8.11794 36.7067 7.83108 35.8999 7.82812 35.0673C7.83178 34.6609 7.90042 34.2577 8.03142 33.873C8.13693 33.4751 8.33749 33.1089 8.61587 32.8057C8.89539 32.4638 9.25262 32.1938 9.65774 32.018C10.168 31.8213 10.7119 31.7263 11.2587 31.7384H42.489C43.0273 31.729 43.5623 31.8239 44.0645 32.018C44.4734 32.1998 44.8376 32.4686 45.1318 32.8057C45.3952 33.1194 45.5938 33.4821 45.7162 33.873C45.839 34.259 45.8991 34.6622 45.8941 35.0673C45.9004 35.8972 45.6224 36.7043 45.1064 37.3544C44.7854 37.7025 44.3906 37.9744 43.9509 38.1502C43.5112 38.3261 43.0378 38.4015 42.5653 38.3708H30.7999ZM30.5966 17.8639C30.5149 18.4971 30.3961 19.125 30.2408 19.7443C31.9927 19.6349 33.7513 19.7458 35.4755 20.0747C37.0731 20.3663 38.5999 20.9615 39.9734 21.8281C41.3211 22.7216 42.4361 23.9238 43.226 25.3348C44.1188 26.8923 44.6567 28.6277 44.8015 30.4171H36.797C36.5624 29.4674 36.0902 28.5929 35.4247 27.8759C34.7633 27.1398 33.9477 26.5585 33.0361 26.1734C32.071 25.75 31.0387 25.5006 29.9868 25.4365C28.8322 25.3312 27.6685 25.3911 26.5308 25.6143C25.6067 26.4637 24.5827 27.1976 23.4814 27.7997C22.377 28.4341 21.2105 28.9534 20.0001 29.3498C18.7847 29.7596 17.5344 30.0573 16.2647 30.2392C15.0092 30.3978 13.7432 30.4573 12.4784 30.4171C11.4669 30.4595 10.4687 30.1743 9.63234 29.6039C9.26873 29.35 8.96766 29.0168 8.75193 28.6294C8.5362 28.242 8.41145 27.8105 8.38718 27.3677C8.32866 26.9513 8.35475 26.5274 8.46391 26.1213C8.57307 25.7152 8.76305 25.3354 9.02246 25.0045C9.30247 24.6537 9.65828 24.371 10.0632 24.1773C10.468 23.9837 10.9115 23.8842 11.3603 23.8864C12.6499 23.8424 13.9336 23.6894 15.1974 23.429C16.3234 23.2036 17.4163 22.8364 18.45 22.3363C19.3653 21.877 20.1846 21.2474 20.8641 20.4813C21.5375 19.7206 22.0092 18.8033 22.2363 17.8131H12.58C12.1073 17.8457 11.6333 17.7712 11.1934 17.5952C10.7534 17.4192 10.3588 17.1463 10.0389 16.7967C9.53006 16.1525 9.25262 15.3559 9.25115 14.535C9.26073 14.1228 9.32048 13.7131 9.42904 13.3153C9.55691 12.929 9.76469 12.574 10.0389 12.2734C10.3267 11.9467 10.6822 11.6866 11.0808 11.5111C11.5911 11.3144 12.1349 11.2195 12.6817 11.2316H22.3887C22.393 10.7138 22.5087 10.2029 22.7279 9.73376C22.9472 9.26459 23.2648 8.84809 23.6593 8.51259C24.5429 7.84949 25.6307 7.51684 26.734 7.57239C27.8247 7.52521 28.8965 7.86749 29.758 8.53803C30.1552 8.86724 30.4766 9.27833 30.7003 9.74322C30.924 10.2081 31.0446 10.7158 31.054 11.2316H40.8119C41.3502 11.2221 41.8852 11.317 42.3874 11.5111C42.7895 11.6931 43.1521 11.952 43.4547 12.2734C43.7126 12.5813 43.9109 12.9346 44.0392 13.3153C44.1605 13.7104 44.2204 14.1218 44.217 14.535C44.2279 15.358 43.9491 16.1586 43.4292 16.7967C43.1117 17.1493 42.7175 17.4242 42.2769 17.6005C41.8364 17.7767 41.3612 17.8495 40.8881 17.8131L30.5966 17.8639Z" fill="white"/>
<path d="M62.4114 18.6008V19.3377C62.4114 19.7189 62.4114 20.0746 62.4114 20.405C62.4114 20.7353 62.4115 21.0403 62.2844 21.3706C63.5251 21.3253 64.7613 21.5417 65.9128 22.0058C67.0642 22.4699 68.1051 23.1712 68.9676 24.0642C70.6032 26.3181 71.3537 29.0944 71.0767 31.8655H63.4533C63.6065 30.5934 63.3098 29.3079 62.6148 28.2317C62.3259 27.828 61.9443 27.4995 61.5021 27.274C61.0599 27.0485 60.57 26.9325 60.0737 26.9357C58.9457 28.579 57.4026 29.8941 55.6013 30.7474C53.8551 31.5898 51.949 32.049 50.0108 32.0941C49.1008 32.1437 48.2021 31.874 47.4696 31.3318C47.1326 31.0801 46.8632 30.7487 46.6858 30.3673C46.5084 29.9859 46.4285 29.5664 46.4532 29.1464C46.3922 28.3448 46.6476 27.5512 47.1647 26.9357C47.6772 26.3999 48.3598 26.0586 49.096 25.97C50.7099 25.7711 52.1936 24.9839 53.2634 23.7593C54.2393 22.4967 54.7427 20.9325 54.6864 19.3377V18.6008H49.6042C49.1647 18.607 48.7299 18.5112 48.3336 18.3212C47.98 18.132 47.6687 17.8726 47.4188 17.5589C47.1692 17.259 46.9794 16.914 46.8598 16.5425C46.7169 16.1874 46.6477 15.807 46.6565 15.4244C46.6605 15.0468 46.7117 14.6712 46.809 14.3063C46.9142 13.9186 47.0956 13.5558 47.3426 13.239C47.587 12.9036 47.9098 12.6331 48.2828 12.4512C48.6908 12.2407 49.1451 12.1358 49.6042 12.1463H54.6864V11.8922C54.6434 11.3958 54.7125 10.896 54.8884 10.4298C55.0643 9.96365 55.3427 9.54288 55.7029 9.1986C56.5362 8.55614 57.5753 8.23988 58.6252 8.30919C59.6823 8.2452 60.7276 8.56059 61.5729 9.1986C61.9377 9.54052 62.2208 9.9602 62.4011 10.4265C62.5815 10.8928 62.6545 11.3938 62.6148 11.8922V12.1463H67.697C68.1377 12.1333 68.5751 12.2257 68.9729 12.4157C69.3706 12.6058 69.7173 12.888 69.984 13.239C70.2119 13.5675 70.3915 13.9269 70.5176 14.3063C70.6149 14.6712 70.6661 15.0468 70.6701 15.4244C70.6664 15.8059 70.5977 16.1841 70.4668 16.5425C70.3369 16.9094 70.1481 17.2527 69.9078 17.5589C69.6579 17.8726 69.3466 18.132 68.9929 18.3212C68.5869 18.5091 68.1444 18.6046 67.697 18.6008H62.4114ZM55.1947 46.5531C54.2435 46.578 53.2937 46.4667 52.3741 46.2228C51.7029 46.0625 51.0933 45.7092 50.6207 45.2064C50.1579 44.6891 49.842 44.0573 49.7058 43.3767C49.5076 42.4757 49.4139 41.5548 49.4263 40.6323V37.6083C49.3745 37.0487 49.4609 36.4849 49.678 35.9665C49.8951 35.4481 50.2362 34.9909 50.6715 34.6353C51.5384 34.0411 52.5683 33.7304 53.6192 33.7459C54.6563 33.7163 55.6742 34.0289 56.516 34.6353C56.9308 35.0041 57.2527 35.4656 57.4558 35.9821C57.6589 36.4987 57.7375 37.0558 57.685 37.6083V39.2347C57.685 39.6921 57.685 39.997 57.8882 40.0987C58.1648 40.2311 58.4728 40.2838 58.7777 40.2511H80.86C81.3283 40.2175 81.7983 40.2866 82.2372 40.4534C82.6761 40.6202 83.0733 40.8807 83.4011 41.2168C83.9023 41.8398 84.1756 42.6153 84.1756 43.4148C84.1756 44.2144 83.9023 44.99 83.4011 45.6129C83.0711 45.9445 82.6728 46.2003 82.234 46.3626C81.7953 46.525 81.3264 46.59 80.86 46.5531H55.1947ZM75.1171 24.6487H72.8046C72.3326 24.7004 71.855 24.6373 71.4125 24.4647C70.9701 24.2922 70.5759 24.0153 70.2635 23.6576C69.9188 23.1692 69.6913 22.608 69.5988 22.0174C69.5062 21.4269 69.5511 20.8229 69.7299 20.2525C69.8366 19.878 70.0087 19.5253 70.2381 19.2106C70.51 18.8838 70.8595 18.6304 71.2546 18.4737C71.7524 18.2987 72.277 18.2128 72.8046 18.2196H75.1171V12.3242C75.0789 11.772 75.1692 11.2185 75.3808 10.7071C75.5924 10.1957 75.9197 9.74024 76.3368 9.3765C76.9354 8.89768 77.6459 8.57885 78.4016 8.44995C79.1572 8.32104 79.9332 8.38627 80.6567 8.63955C81.1316 8.81247 81.5708 9.07089 81.9527 9.40194C82.3399 9.73977 82.6516 10.1553 82.8675 10.6216C83.1123 11.1553 83.2339 11.7372 83.2233 12.3242V37.1256H75.1171V24.6487Z" fill="white"/>
<path d="M91.6842 29.0195C90.7515 29.0405 89.8201 28.9379 88.9143 28.7145C88.2547 28.5581 87.6545 28.2139 87.1864 27.7235C86.7368 27.2007 86.4304 26.5703 86.297 25.8939C86.1306 25.0059 86.054 24.1035 86.0683 23.2003V13.0358C86.0168 12.4932 86.0935 11.9461 86.2921 11.4385C86.4907 10.9309 86.8058 10.4771 87.2118 10.1135C87.9967 9.46779 88.9915 9.13317 90.0071 9.17331C90.4959 9.14453 90.9856 9.21272 91.4479 9.37409C91.9102 9.53546 92.3359 9.7868 92.7007 10.1135C93.0676 10.5007 93.3481 10.9614 93.5233 11.4653C93.6985 11.9691 93.7646 12.5045 93.7171 13.0358V13.239H101.061V13.0358C101.01 12.4982 101.076 11.9559 101.256 11.4468C101.436 10.9377 101.725 10.474 102.103 10.0881C102.871 9.45054 103.85 9.12416 104.847 9.17331C105.863 9.12832 106.86 9.46351 107.642 10.1135C108.027 10.4902 108.323 10.9481 108.507 11.4537C108.692 11.9594 108.761 12.4999 108.71 13.0358V28.994L91.6842 29.0195ZM118.341 31.5606C118.776 31.5469 119.206 31.6523 119.586 31.8655C119.909 32.0459 120.194 32.2876 120.424 32.577C120.628 32.8815 120.782 33.2158 120.882 33.568C120.977 33.9074 121.028 34.2575 121.034 34.6099C121.031 34.9542 120.98 35.2964 120.882 35.6263C120.787 35.9724 120.632 36.2993 120.424 36.592C120.193 36.8737 119.908 37.1069 119.586 37.2781C119.199 37.4669 118.77 37.5543 118.341 37.5322H96.9189C96.2074 37.5322 95.8516 37.8626 95.8516 38.4725V39.6921C95.8516 40.3274 96.2074 40.6324 96.9189 40.6324H119.205C119.628 40.6224 120.047 40.7185 120.424 40.9119C120.752 41.085 121.039 41.3279 121.263 41.6234C121.483 41.9119 121.647 42.2396 121.746 42.5891C121.915 43.2562 121.915 43.9548 121.746 44.6219C121.656 44.9747 121.491 45.304 121.263 45.5876C121.053 45.9025 120.764 46.1566 120.424 46.3245C120.052 46.5293 119.629 46.626 119.205 46.604H93.2597C91.7049 46.7617 90.151 46.2955 88.9398 45.308C88.0032 44.1411 87.5568 42.656 87.6946 41.166V37.024C87.5541 36.2667 87.6018 35.4865 87.8335 34.752C88.0652 34.0174 88.4737 33.351 89.0234 32.8115C89.573 32.2719 90.2468 31.8756 90.9855 31.6575C91.7242 31.4393 92.5051 31.4061 93.2597 31.5606H118.341ZM101.061 23.1495V18.8803H93.7933V22.133C93.7933 22.5904 93.7933 22.8699 93.9966 22.997C94.2731 23.1293 94.5811 23.1822 94.886 23.1495H101.061ZM112.699 12.4513C112.663 11.8942 112.752 11.3361 112.958 10.8174C113.165 10.2988 113.484 9.83263 113.894 9.4528C114.676 8.77791 115.681 8.41595 116.714 8.43637C117.75 8.43008 118.752 8.80037 119.535 9.47824C119.95 9.8495 120.275 10.3099 120.486 10.8248C120.697 11.3397 120.789 11.8958 120.755 12.4513V15.5769H122C122.535 15.5645 123.066 15.6777 123.55 15.9073C123.924 16.1092 124.253 16.386 124.515 16.7204C124.769 17.0522 124.95 17.4329 125.049 17.8385C125.296 18.6675 125.296 19.5506 125.049 20.3796C124.945 20.7911 124.764 21.1792 124.515 21.5231C124.26 21.8744 123.919 22.1544 123.524 22.3363C123.047 22.5542 122.525 22.6585 122 22.6412H120.755V30.0359H112.699V12.4513Z" fill="white"/>
<path d="M158.39 24.6487C158.895 24.6384 159.397 24.7335 159.864 24.9282C160.247 25.0814 160.587 25.3256 160.855 25.6397C161.099 25.934 161.288 26.2697 161.414 26.6308C161.516 26.9947 161.567 27.3709 161.566 27.7489C161.571 28.5158 161.311 29.2608 160.829 29.858C160.516 30.2117 160.12 30.4826 159.677 30.6467C159.233 30.8107 158.756 30.8627 158.288 30.7982H126.677C126.208 30.8627 125.731 30.8107 125.288 30.6467C124.845 30.4826 124.449 30.2117 124.135 29.858C123.654 29.2608 123.394 28.5158 123.398 27.7489C123.406 27.3698 123.466 26.9935 123.576 26.6308C123.682 26.2665 123.864 25.9288 124.11 25.6397C124.394 25.3325 124.741 25.0899 125.126 24.9282C125.585 24.7356 126.078 24.6404 126.575 24.6487H158.39ZM152.672 8.76669C153.805 8.74531 154.932 8.92599 156.001 9.30031C156.882 9.63496 157.686 10.145 158.364 10.7996C158.985 11.4168 159.462 12.1629 159.762 12.985C160.372 14.755 160.372 16.6783 159.762 18.4484C159.462 19.2704 158.985 20.0164 158.364 20.6337C157.691 21.2886 156.885 21.7912 156.001 22.1076C154.937 22.5029 153.807 22.6926 152.672 22.6666H132.343C131.208 22.6951 130.078 22.5053 129.014 22.1076C128.124 21.8035 127.316 21.2992 126.651 20.6337C126.023 20.0231 125.544 19.2751 125.254 18.4484C124.611 16.684 124.611 14.7494 125.254 12.985C125.544 12.1582 126.023 11.4101 126.651 10.7996C127.321 10.1343 128.127 9.62268 129.014 9.30031C130.083 8.92386 131.211 8.74311 132.343 8.76669H152.672ZM130.946 46.5277C129.946 46.5518 128.947 46.4494 127.973 46.2228C127.305 46.0669 126.697 45.7229 126.219 45.2317C125.759 44.6996 125.459 44.0474 125.355 43.3513C125.186 42.3782 125.109 41.3912 125.126 40.4036V39.006C125.111 38.0269 125.188 37.0486 125.355 36.0838C125.459 35.3877 125.759 34.7355 126.219 34.2033C126.688 33.6956 127.299 33.3413 127.973 33.1868C128.95 32.9831 129.947 32.8894 130.946 32.9074H154.095C155.085 32.8878 156.074 32.9816 157.043 33.1868C157.724 33.341 158.343 33.695 158.822 34.2033C159.282 34.7355 159.582 35.3877 159.686 36.0838C159.831 37.051 159.899 38.0281 159.889 39.006V46.6294L130.946 46.5277ZM150.233 17.1269C150.477 17.1563 150.725 17.1354 150.961 17.0655C151.197 16.9956 151.416 16.8781 151.605 16.7203C151.848 16.4385 151.975 16.0755 151.961 15.7039C151.966 15.3414 151.839 14.9894 151.605 14.7129C151.418 14.5506 151.2 14.4286 150.964 14.3542C150.728 14.2799 150.479 14.2549 150.233 14.2809H134.986C134.736 14.2529 134.483 14.2768 134.242 14.3511C134.002 14.4255 133.779 14.5486 133.588 14.7129C133.363 14.9947 133.238 15.3433 133.233 15.7039C133.23 16.0736 133.356 16.4328 133.588 16.7203C133.781 16.8801 134.005 16.9987 134.245 17.0686C134.485 17.1385 134.738 17.1584 134.986 17.1269H150.233ZM133.258 39.997C133.235 40.2991 133.306 40.6007 133.461 40.861C133.461 41.0389 133.843 41.1151 134.249 41.1151H151.808V39.4126C151.827 39.1189 151.756 38.8264 151.605 38.574C151.494 38.4781 151.365 38.406 151.225 38.3623C151.085 38.3186 150.938 38.3041 150.792 38.3199H134.249C134.107 38.3012 133.963 38.3143 133.827 38.3583C133.69 38.4022 133.566 38.4759 133.461 38.574C133.31 38.8264 133.239 39.1189 133.258 39.4126V39.997Z" fill="white"/>
</g>
<defs>
<radialGradient id="paint0_diamond_94_39934" cx="0" cy="0" r="1" gradientUnits="userSpaceOnUse" gradientTransform="translate(84.6191 27.1471) rotate(-179.542) scale(84.7797 599.684)">
<stop stop-color="#ABE174"/>
<stop offset="1" stop-color="#00CF6C"/>
</radialGradient>
<clipPath id="clip0_94_39934">
<rect width="169.188" height="54.3546" fill="white"/>
</clipPath>
</defs>
</svg>
