<svg width="207" height="56" viewBox="0 0 207 56" fill="none" xmlns="http://www.w3.org/2000/svg">
<g clip-path="url(#clip0_94_40016)">
<path d="M169.206 6.90571C168.528 5.40722 167.539 4.07627 166.307 3.00456C165.206 2.04388 163.943 1.29377 162.58 0.790397C160.58 0.0573851 158.427 -0.136079 156.332 0.228815C154.236 0.593709 152.269 1.50454 150.621 2.87277C150.112 3.28162 149.644 3.74075 149.224 4.24344C148.417 4.05153 147.592 3.95425 146.765 3.95349V3.95349C146.364 3.48362 145.932 3.0432 145.47 2.63553C143.192 0.825154 140.36 -0.108313 137.472 -0.000375585C134.542 -0.0853973 131.681 0.916952 129.422 2.82005C129.025 3.17102 128.654 3.54976 128.309 3.95349H126.911C126.583 3.57582 126.229 3.2234 125.85 2.89912C123.782 1.18033 121.225 0.185541 118.558 0.0621044C115.891 -0.0613325 113.257 0.693143 111.044 2.21379C109.644 1.57669 108.125 1.2531 106.592 1.26486H92.6141C90.9929 1.24391 89.3754 1.42988 87.7996 1.8184C87.3853 1.93116 86.9788 2.07206 86.583 2.24015C84.3696 0.747895 81.748 0.0101511 79.0962 0.133326C76.4445 0.256502 73.8996 1.23423 71.8288 2.92548L71.1558 3.5581C68.719 2.21685 65.9782 1.55317 63.2093 1.63389H50.9659C49.7137 1.64909 48.4723 1.87165 47.2903 2.29287C46.4102 1.65994 45.4531 1.14604 44.443 0.764038C42.4379 0.0524457 40.2878 -0.127358 38.1956 0.24158C36.1033 0.610519 34.1378 1.51604 32.4844 2.87277L31.7596 3.53174C30.0168 2.44765 28.1102 1.66392 26.1168 1.21214C21.7739 0.268823 17.2844 0.268823 12.9415 1.21214C10.6218 1.73309 8.4239 2.70896 6.47042 4.08528C4.41112 5.58506 2.75547 7.58833 1.65589 9.91064C0.494929 12.3752 -0.0729409 15.0859 -0.000715246 17.8184V18.9518C-0.0719464 21.6842 0.495875 24.3946 1.65589 26.8595C1.96034 27.4889 2.30626 28.0965 2.69128 28.6783C1.82819 31.0781 1.82819 33.7118 2.69128 36.1116C1.93035 37.8164 1.54177 39.669 1.55236 41.5416V42.0424C1.60815 43.6923 1.95902 45.318 2.58774 46.8397C3.23513 48.5317 4.21051 50.0735 5.45572 51.3732C6.70092 52.6729 8.19043 53.704 9.8354 54.4048C11.5722 55.0681 13.4166 55.39 15.2712 55.3537H43.2264C45.2678 55.3622 47.2633 54.7369 48.9469 53.5613C49.6003 53.6422 50.2608 53.6422 50.9141 53.5613C54.2239 53.5089 57.5063 52.9399 60.6467 51.8743C63.2367 51.0163 65.6559 49.6952 67.7909 47.9732V55.3537H91.6046V54.8002C93.29 55.2755 95.0328 55.5062 96.7815 55.4855H114.15C116.376 55.5066 118.586 55.1136 120.673 54.3257C122 53.7686 123.253 53.0423 124.4 52.1643C125.695 53.3939 127.256 54.2968 128.956 54.8002C130.64 55.2809 132.385 55.503 134.133 55.4592H160.121C161.757 55.5167 163.384 55.201 164.885 54.5351C166.385 53.8692 167.72 52.87 168.792 51.6107C169.697 50.5139 170.391 49.2529 170.837 47.8941C171.911 49.6102 173.397 51.0191 175.154 51.9876C176.911 52.9562 178.882 53.4525 180.88 53.4295C182.525 53.4398 184.154 53.106 185.666 52.449C187.179 51.7919 188.543 50.8255 189.674 49.6097C190.805 48.3938 191.678 46.9544 192.241 45.3807C192.803 43.807 193.042 42.1324 192.943 40.4608V39.3274C195.464 39.4608 197.967 38.8117 200.119 37.4659C202.271 36.1202 203.971 34.1411 204.995 31.7903C206.018 29.4395 206.318 26.8276 205.853 24.3C205.388 21.7723 204.18 19.4479 202.39 17.6339L189.629 4.69154C187.286 2.31251 184.112 0.976606 180.803 0.976606C177.494 0.976606 174.32 2.31251 171.976 4.69154L169.388 7.32745C169.338 7.1824 169.277 7.04141 169.206 6.90571V6.90571Z" fill="url(#paint0_diamond_94_40016)"/>
<path d="M7.76612 17.6875C7.72169 16.2159 8.01413 14.7539 8.62031 13.4173C9.17317 12.269 10.001 11.2809 11.0276 10.5442C12.1555 9.7609 13.421 9.20605 14.7549 8.9099C17.9311 8.24219 21.2078 8.24219 24.384 8.9099C25.7179 9.20605 26.9834 9.7609 28.1114 10.5442C29.1379 11.2809 29.9658 12.269 30.5186 13.4173C31.1248 14.7539 31.4172 16.2159 31.3728 17.6875V18.8473C31.4172 20.3189 31.1248 21.7808 30.5186 23.1175C29.9559 24.2591 29.1299 25.2449 28.1114 25.9906C26.9817 26.7651 25.7162 27.311 24.384 27.5985C22.803 27.9507 21.1878 28.1187 19.5695 28.0993C17.9512 28.1187 16.336 27.9507 14.7549 27.5985C13.4227 27.311 12.1572 26.7651 11.0276 25.9906C10.009 25.2449 9.18307 24.2591 8.62031 23.1175C8.01413 21.7808 7.72169 20.3189 7.76612 18.8473V17.6875ZM15.2726 47.4469C14.3894 47.47 13.5103 47.3178 12.6842 46.9988C11.9866 46.7095 11.3594 46.2687 10.8464 45.7072C10.3441 45.1903 9.95578 44.5702 9.70746 43.8884C9.42864 43.2035 9.28781 42.4684 9.29331 41.727V41.1998C9.26721 40.52 9.39082 39.8428 9.65507 39.218C9.91933 38.5931 10.3175 38.0364 10.8205 37.5886C12.0685 36.6115 13.6245 36.1333 15.195 36.2443H35.9026V35.1372C35.9562 34.9657 35.9562 34.7815 35.9026 34.61C35.7486 34.4872 35.5535 34.4304 35.359 34.4519H12.063C11.7493 34.4919 11.4309 34.4554 11.1338 34.3454C10.8368 34.2354 10.5697 34.0551 10.3546 33.8192C9.99903 33.3116 9.8089 32.7031 9.811 32.0795C9.81284 31.481 10.0034 30.8989 10.3546 30.4189C10.5545 30.1487 10.8185 29.9344 11.1217 29.7962C11.425 29.6579 11.7577 29.6001 12.0888 29.6281H39.4488C40.8226 29.4923 42.2009 29.8362 43.3573 30.6034C43.7885 31.0557 44.1147 31.6007 44.3118 32.1983C44.5089 32.7959 44.5719 33.4308 44.4963 34.0565V40.8044H19.0259C18.9037 40.794 18.7807 40.8097 18.6648 40.8506C18.5489 40.8915 18.4426 40.9565 18.3529 41.0416C18.276 41.116 18.2155 41.2062 18.1754 41.3062C18.1352 41.4061 18.1163 41.5136 18.1199 41.6215V41.6215C18.1163 41.7295 18.1352 41.837 18.1754 41.9369C18.2155 42.0369 18.276 42.127 18.3529 42.2014C18.4426 42.2865 18.5489 42.3516 18.6648 42.3925C18.7807 42.4333 18.9037 42.4491 19.0259 42.4387H43.2279C43.567 42.4064 43.9085 42.462 44.2208 42.6003C44.533 42.7385 44.8059 42.955 45.014 43.2294C45.389 43.7385 45.5891 44.3591 45.5834 44.9955C45.5933 45.5959 45.4015 46.1818 45.0398 46.6561C44.8277 46.9327 44.5504 47.1503 44.2336 47.2885C43.9169 47.4268 43.5709 47.4813 43.2279 47.4469H15.2726ZM15.9197 19.1372C15.8828 19.5791 15.9559 20.0234 16.1324 20.4289C16.3089 20.8343 16.5829 21.1879 16.9292 21.4568C17.6991 21.9609 18.6034 22.2095 19.5177 22.1685C20.432 22.2095 21.3363 21.9609 22.1061 21.4568C22.4858 21.2093 22.7954 20.865 23.0042 20.4582C23.213 20.0513 23.3139 19.596 23.2968 19.1372V17.3975C23.3293 16.9599 23.254 16.521 23.0777 16.1205C22.9015 15.72 22.6298 15.3707 22.2873 15.1043C21.525 14.581 20.6172 14.3221 19.6989 14.3662C18.7806 14.3221 17.8728 14.581 17.1104 15.1043C16.768 15.3707 16.4963 15.72 16.32 16.1205C16.1437 16.521 16.0684 16.9599 16.1009 17.3975L15.9197 19.1372ZM36.2391 12.1257C36.1972 11.5424 36.2901 10.9572 36.5103 10.417C36.7306 9.8769 37.0721 9.39683 37.5074 9.01534C38.29 8.31853 39.2895 7.92633 40.3289 7.90825C40.8575 7.90576 41.3827 7.9949 41.8819 8.17184C42.3736 8.351 42.8295 8.61887 43.2279 8.96262C43.6231 9.33304 43.9401 9.78145 44.1598 10.2806C44.3975 10.8464 44.5122 11.4578 44.4963 12.073V28.2311H36.2391V12.1257Z" fill="white"/>
<path d="M49.9577 38.8528C51.5825 38.7234 53.1837 38.3778 54.7204 37.8248C56.0955 37.3367 57.3373 36.5237 58.3443 35.4525C59.4127 34.2443 60.1923 32.8009 60.6221 31.235C61.2209 29.1201 61.5002 26.9248 61.4504 24.7243V17.8973C61.4497 17.6158 61.3485 17.3441 61.1657 17.1329C61.0658 17.0361 60.948 16.9606 60.8191 16.9108C60.6902 16.861 60.5528 16.838 60.415 16.843H50.9672C50.4074 16.8602 49.8508 16.7522 49.3364 16.5266C48.9106 16.3764 48.522 16.1335 48.1975 15.815C47.8879 15.4821 47.6498 15.0871 47.4986 14.6552C47.1824 13.806 47.1824 12.8684 47.4986 12.0192C47.6493 11.5793 47.8872 11.1755 48.1975 10.8331C48.5155 10.4677 48.903 10.1718 49.3364 9.96323C49.8485 9.72781 50.4054 9.61079 50.9672 9.62057H63.2105C64.1107 9.53122 65.0193 9.62755 65.8821 9.90381C66.7449 10.1801 67.5442 10.6306 68.2321 11.2285C69.2993 12.5003 69.8378 14.1455 69.7334 15.815V24.777C69.8139 28.0483 69.3141 31.3076 68.258 34.3981C67.3984 36.8365 66.0194 39.0509 64.22 40.8824C62.5099 42.5676 60.4483 43.838 58.1889 44.5991C55.7908 45.4052 53.2853 45.8319 50.7601 45.8643C50.2529 45.8589 49.7485 45.788 49.2588 45.6534C48.7837 45.537 48.3411 45.3116 47.9646 44.9945C47.5823 44.702 47.2721 44.323 47.0586 43.8874C46.8356 43.374 46.7379 42.8133 46.7739 42.2531C46.7996 41.4131 47.1002 40.6059 47.6281 39.9599C48.2413 39.3071 49.0725 38.9121 49.9577 38.8528V38.8528ZM75.5575 47.4459V12.1247C75.5164 11.5439 75.6071 10.9613 75.8226 10.422C76.038 9.88263 76.3724 9.40098 76.7999 9.01431C77.6014 8.29772 78.6324 7.90401 79.699 7.90723C80.7597 7.8845 81.7915 8.25977 82.5981 8.96159C83.0256 9.34826 83.36 9.82991 83.5754 10.3693C83.7909 10.9086 83.8816 11.4912 83.8405 12.072V47.4459H75.5575Z" fill="white"/>
<path d="M106.592 9.17258C107.056 9.16645 107.516 9.26548 107.938 9.46253C108.29 9.66054 108.598 9.92964 108.844 10.2533C109.075 10.5779 109.242 10.9449 109.336 11.334C109.436 11.7032 109.488 12.0843 109.491 12.4675C109.481 12.8433 109.42 13.2158 109.31 13.5745C109.222 13.9497 109.054 14.3007 108.818 14.6026C108.585 14.9217 108.284 15.183 107.938 15.367C107.522 15.5854 107.06 15.6942 106.592 15.6833H96.0569C95.2804 15.6833 94.8921 15.9996 94.8921 16.6849V21.3768C94.8777 21.5283 94.8983 21.681 94.9522 21.8229C95.0062 21.9648 95.092 22.0919 95.2027 22.194C95.4546 22.3636 95.7568 22.4382 96.0569 22.4048H108.145C108.621 22.3906 109.093 22.4995 109.517 22.7212C109.882 22.8863 110.196 23.1508 110.423 23.4856C110.651 23.7865 110.826 24.1254 110.941 24.4872C111.041 24.8385 111.093 25.2021 111.096 25.5679C111.095 25.9685 111.043 26.3673 110.941 26.7541C110.82 27.1217 110.646 27.4683 110.423 27.7821C110.182 28.1043 109.872 28.3659 109.517 28.5465C109.087 28.7466 108.618 28.8456 108.145 28.8365H92.6143C91.6574 28.852 90.7019 28.7547 89.767 28.5465C89.091 28.3703 88.4684 28.0262 87.9551 27.5449C87.4947 27.0312 87.1736 26.4044 87.0232 25.7261C86.8294 24.8615 86.7339 23.977 86.7385 23.0902V15.1825C86.7332 14.2956 86.8288 13.411 87.0232 12.5465C87.1503 11.7947 87.4925 11.0979 88.0068 10.5433C88.5134 10.0523 89.1385 9.70673 89.8188 9.5416C90.7537 9.33337 91.7091 9.23608 92.666 9.25165L106.592 9.17258ZM88.0068 39.5383C88.002 38.4508 88.186 37.371 88.5504 36.3488C88.8938 35.3633 89.4411 34.4644 90.1553 33.7129C90.8748 32.9312 91.7601 32.3272 92.7437 31.9468C93.9497 31.4801 95.2331 31.2563 96.5228 31.2879H114.15C115.42 31.2641 116.684 31.4785 117.878 31.9205C118.853 32.3041 119.736 32.8975 120.466 33.6602C121.191 34.4075 121.748 35.3071 122.097 36.2961C122.821 38.4037 122.821 40.6992 122.097 42.8068C121.739 43.8165 121.166 44.7329 120.419 45.4896C119.671 46.2463 118.768 46.8245 117.774 47.1824C116.58 47.6243 115.317 47.8388 114.047 47.815H96.6523C95.3625 47.8465 94.0791 47.6227 92.8731 47.156C91.8916 46.7868 91.001 46.204 90.2634 45.4482C89.5258 44.6925 88.9589 43.7821 88.6022 42.7804C88.2157 41.7444 88.0141 40.6465 88.0068 39.5383V39.5383ZM96.4193 39.5383C96.4314 40.1025 96.6021 40.6513 96.9111 41.1198C97.128 41.4046 97.4138 41.6271 97.7404 41.7657C98.0671 41.9044 98.4235 41.9543 98.7748 41.9106H111.924C112.275 41.9543 112.632 41.9044 112.959 41.7657C113.285 41.6271 113.571 41.4046 113.788 41.1198C114.097 40.6513 114.268 40.1025 114.28 39.5383C114.261 38.9752 114.091 38.4283 113.788 37.9567C113.565 37.6806 113.277 37.4659 112.952 37.3324C112.626 37.1988 112.273 37.1506 111.924 37.1923H98.8266C98.4779 37.1506 98.1246 37.1988 97.799 37.3324C97.4733 37.4659 97.1858 37.6806 96.9629 37.9567C96.6602 38.4283 96.4901 38.9752 96.4711 39.5383H96.4193ZM113.891 12.1248C113.851 11.5465 113.939 10.9664 114.15 10.4278C114.361 9.88924 114.688 9.40608 115.108 9.01442C115.916 8.3329 116.932 7.95996 117.981 7.95996C119.03 7.95996 120.046 8.3329 120.854 9.01442C121.276 9.40595 121.606 9.88839 121.821 10.4265C122.036 10.9646 122.13 11.5449 122.097 12.1248V15.5778H123.391C123.928 15.5672 124.46 15.6845 124.944 15.9205C125.334 16.1283 125.677 16.4154 125.954 16.764C126.191 17.1207 126.374 17.5116 126.497 17.9238C126.716 18.7883 126.716 19.6952 126.497 20.5597C126.369 20.9782 126.186 21.3772 125.954 21.7459C125.683 22.0933 125.337 22.3728 124.944 22.563C124.456 22.7838 123.925 22.8918 123.391 22.8793H122.097V30.1808H113.891V12.1248Z" fill="white"/>
<path d="M141.33 18.5826V19.3471C141.33 19.7424 141.33 20.0851 141.33 20.4278C141.33 20.7704 141.33 21.1131 141.33 21.4558C142.581 21.3964 143.832 21.5997 145.003 22.0532C146.174 22.5066 147.241 23.2005 148.137 24.0917C149.777 26.4979 150.487 29.4358 150.131 32.3421H142.365C142.533 31.022 142.229 29.6846 141.511 28.5727C141.22 28.1508 140.832 27.8077 140.381 27.5734C139.93 27.3391 139.429 27.2206 138.923 27.2284C137.838 28.9017 136.35 30.2631 134.6 31.1823C132.827 32.0472 130.896 32.5232 128.931 32.5793C128.003 32.6375 127.086 32.3572 126.343 31.7886C126.001 31.5186 125.726 31.1701 125.542 30.7716C125.357 30.373 125.268 29.9357 125.281 29.4953C125.223 28.6723 125.483 27.8589 126.006 27.2284C126.522 26.7466 127.174 26.4423 127.87 26.3586C129.495 26.0932 130.969 25.2304 132.011 23.9335C133.025 22.6329 133.548 21.0062 133.487 19.3471V18.5826H128.31C127.854 18.5866 127.403 18.4876 126.99 18.2927C126.635 18.0883 126.319 17.8204 126.058 17.5019C125.818 17.1808 125.627 16.8255 125.488 16.4476C125.355 16.0758 125.285 15.6835 125.281 15.2878C125.285 14.8961 125.338 14.5064 125.437 14.128C125.565 13.7344 125.748 13.3616 125.98 13.0209C126.236 12.6724 126.563 12.3847 126.938 12.1774C127.363 11.9589 127.834 11.8502 128.31 11.8611H133.487V11.6238C133.453 11.0988 133.535 10.5726 133.728 10.0844C133.92 9.59615 134.218 9.15834 134.6 8.80342C135.431 8.18425 136.444 7.86852 137.473 7.90721C138.545 7.84455 139.606 8.16115 140.476 8.80342C140.846 9.16439 141.134 9.60458 141.317 10.0923C141.501 10.58 141.576 11.1031 141.537 11.6238V11.8611H146.714C147.162 11.8482 147.606 11.9472 148.007 12.1493C148.409 12.3515 148.756 12.6507 149.018 13.0209C149.269 13.3495 149.454 13.7258 149.561 14.128C149.66 14.5064 149.712 14.8961 149.716 15.2878C149.725 15.6847 149.655 16.0793 149.509 16.4476C149.254 17.2327 148.718 17.8913 148.008 18.2927C147.604 18.4898 147.161 18.589 146.714 18.5826H141.33ZM134.004 47.4459C133.035 47.4749 132.068 47.3595 131.131 47.1032C130.442 46.9319 129.814 46.5665 129.319 46.0488C128.848 45.5122 128.526 44.8569 128.388 44.151C128.196 43.2062 128.109 42.2424 128.129 41.2778V38.2729C128.083 37.6906 128.177 37.1057 128.403 36.5686C128.628 36.0314 128.978 35.558 129.423 35.1889C130.292 34.5829 131.321 34.2611 132.374 34.2663C133.43 34.2357 134.467 34.5599 135.325 35.1889C135.747 35.5715 136.075 36.0501 136.282 36.586C136.489 37.1218 136.569 37.6997 136.515 38.2729V39.9599C136.476 40.2742 136.55 40.5924 136.722 40.8561C137.014 40.9894 137.335 41.0439 137.654 41.0142H160.122C160.569 40.9521 161.023 40.9905 161.454 41.1269C161.884 41.2633 162.28 41.4942 162.613 41.8034C162.947 42.1126 163.209 42.4926 163.383 42.9164C163.556 43.3403 163.636 43.7977 163.616 44.2564C163.62 45.0927 163.336 45.904 162.814 46.5496C162.481 46.8998 162.077 47.171 161.629 47.3441C161.182 47.5172 160.703 47.5879 160.226 47.5513L134.004 47.4459ZM154.298 24.7243H151.942C151.461 24.7826 150.973 24.7192 150.522 24.5399C150.071 24.3607 149.669 24.0709 149.354 23.6963C148.865 23.0269 148.61 22.2105 148.629 21.3767C148.628 20.9673 148.68 20.5596 148.785 20.1642C148.887 19.768 149.072 19.3992 149.328 19.0835C149.612 18.7959 149.958 18.5794 150.338 18.4508C150.85 18.2566 151.396 18.167 151.942 18.1873H154.298V12.0456C154.259 11.4728 154.351 10.8987 154.567 10.3682C154.782 9.83768 155.115 9.36524 155.54 8.98793C156.145 8.49128 156.864 8.16033 157.63 8.02654C158.396 7.89274 159.182 7.96055 159.915 8.22352C160.409 8.39709 160.866 8.66552 161.261 9.01429C161.666 9.35419 161.986 9.78804 162.193 10.2795C162.433 10.8352 162.548 11.4387 162.529 12.0456V37.7721H154.298V24.7243Z" fill="white"/>
<path d="M198.249 26.9969C198.245 27.9479 197.965 28.8764 197.444 29.6658C196.923 30.4552 196.185 31.0702 195.322 31.4336C194.459 31.7969 193.51 31.8924 192.594 31.708C191.677 31.5236 190.835 31.0676 190.173 30.3972L184.996 25.1254V40.7036C184.996 43.814 183.339 45.7646 180.699 45.7646C180.077 45.77 179.461 45.6394 178.892 45.3815C178.324 45.1236 177.816 44.7445 177.404 44.2697C176.992 43.795 176.684 43.2356 176.503 42.6295C176.321 42.0234 176.269 41.3846 176.351 40.7563V25.2308L171.174 30.5026C170.735 30.9492 170.215 31.3034 169.642 31.5451C169.069 31.7867 168.455 31.9111 167.835 31.9111C167.214 31.9111 166.6 31.7867 166.027 31.5451C165.454 31.3034 164.934 30.9492 164.495 30.5026C164.057 30.0561 163.709 29.526 163.472 28.9426C163.234 28.3591 163.112 27.7338 163.112 27.1023C163.112 26.4708 163.234 25.8455 163.472 25.2621C163.709 24.6787 164.057 24.1485 164.495 23.702L177.464 10.6279C178.351 9.72971 179.551 9.22559 180.803 9.22559C182.054 9.22559 183.254 9.72971 184.142 10.6279L196.851 23.5966C197.296 24.0388 197.649 24.5678 197.89 25.152C198.13 25.7362 198.252 26.3636 198.249 26.9969Z" fill="white"/>
</g>
<defs>
<radialGradient id="paint0_diamond_94_40016" cx="0" cy="0" r="1" gradientUnits="userSpaceOnUse" gradientTransform="translate(103.03 27.739) rotate(-179.616) scale(103.231 611.594)">
<stop stop-color="#C1C1C1"/>
<stop offset="1" stop-color="#373737"/>
</radialGradient>
<clipPath id="clip0_94_40016">
<rect width="206.015" height="55.5913" fill="white"/>
</clipPath>
</defs>
</svg>
