<svg width="44" height="44" viewBox="0 0 44 44" fill="none" xmlns="http://www.w3.org/2000/svg">
<path d="M25.343 9.3778H23.843C23.843 10.0414 24.279 10.6262 24.9151 10.8155L25.343 9.3778ZM27.7816 10.3889L27.067 11.7077C27.6507 12.024 28.3728 11.919 28.8423 11.4495L27.7816 10.3889ZM30.0437 8.12676L31.1044 9.18742L31.1044 9.18742L30.0437 8.12676ZM31.4579 8.12676L32.5186 7.0661L32.5186 7.0661L31.4579 8.12676ZM35.2292 11.898L36.2898 10.8373L36.2898 10.8373L35.2292 11.898ZM35.2292 13.3122L34.1685 12.2516L34.1685 12.2516L35.2292 13.3122ZM32.9671 15.5743L31.9064 14.5136C31.437 14.9831 31.332 15.7052 31.6483 16.2889L32.9671 15.5743ZM33.9782 18.013L32.5405 18.4409C32.7298 19.077 33.3146 19.513 33.9782 19.513V18.013ZM33.9782 25.3464V23.8464C33.3146 23.8464 32.7298 24.2824 32.5405 24.9185L33.9782 25.3464ZM32.9671 27.7851L31.6483 27.0704C31.332 27.6541 31.437 28.3763 31.9064 28.8457L32.9671 27.7851ZM35.2292 30.0472L36.2898 28.9865L36.2898 28.9865L35.2292 30.0472ZM35.2292 31.4614L36.2898 32.522L36.2898 32.522L35.2292 31.4614ZM31.4579 35.2326L30.3973 34.1719L30.3973 34.1719L31.4579 35.2326ZM30.0437 35.2326L31.1044 34.1719L31.1044 34.1719L30.0437 35.2326ZM27.7816 32.9705L28.8423 31.9099C28.3728 31.4404 27.6507 31.3354 27.067 31.6517L27.7816 32.9705ZM25.343 33.9816L24.9151 32.5439C24.279 32.7332 23.843 33.318 23.843 33.9816H25.343ZM18.0096 33.9816H19.5096C19.5096 33.318 19.0736 32.7332 18.4375 32.5439L18.0096 33.9816ZM15.5709 32.9705L16.2855 31.6517C15.7019 31.3354 14.9797 31.4404 14.5102 31.9098L15.5709 32.9705ZM13.3088 35.2325L14.3695 36.2932L14.3695 36.2932L13.3088 35.2325ZM11.8946 35.2325L10.834 36.2932L10.834 36.2932L11.8946 35.2325ZM8.1234 31.4613L9.18406 30.4006L9.18406 30.4006L8.1234 31.4613ZM8.1234 30.0471L7.06273 28.9864L7.06273 28.9864L8.1234 30.0471ZM10.3855 27.785L11.4461 28.8457C11.9156 28.3762 12.0206 27.6541 11.7043 27.0704L10.3855 27.785ZM9.37441 25.3464L10.8121 24.9185C10.6228 24.2824 10.038 23.8464 9.37441 23.8464V25.3464ZM9.37441 18.013V19.513C10.038 19.513 10.6228 19.0769 10.8121 18.4409L9.37441 18.013ZM10.3855 15.5744L11.7043 16.289C12.0206 15.7053 11.9156 14.9831 11.4461 14.5137L10.3855 15.5744ZM8.1234 13.3123L7.06274 14.373L7.06274 14.373L8.1234 13.3123ZM8.1234 11.8981L7.06274 10.8374L7.06274 10.8374L8.1234 11.8981ZM11.8946 8.12685L12.9553 9.18751L12.9553 9.18751L11.8946 8.12685ZM13.3089 8.12685L14.3695 7.06619L14.3695 7.06619L13.3089 8.12685ZM15.5709 10.3889L14.5102 11.4496C14.9797 11.919 15.7019 12.024 16.2856 11.7077L15.5709 10.3889ZM18.0096 9.3778L18.4375 10.8155C19.0736 10.6262 19.5096 10.0414 19.5096 9.3778H18.0096ZM19.0096 3.67969C17.6289 3.67969 16.5096 4.79897 16.5096 6.17969H19.5096C19.5096 6.45583 19.2858 6.67969 19.0096 6.67969V3.67969ZM24.343 3.67969H19.0096V6.67969H24.343V3.67969ZM26.843 6.17969C26.843 4.79898 25.7237 3.67969 24.343 3.67969V6.67969C24.0668 6.67969 23.843 6.45583 23.843 6.17969H26.843ZM26.843 9.3778V6.17969H23.843V9.3778H26.843ZM28.4962 9.07003C27.6372 8.60455 26.7249 8.22407 25.7708 7.94012L24.9151 10.8155C25.6679 11.0395 26.3882 11.3399 27.067 11.7077L28.4962 9.07003ZM28.983 7.0661L26.721 9.3282L28.8423 11.4495L31.1044 9.18742L28.983 7.0661ZM32.5186 7.0661C31.5423 6.0898 29.9594 6.08979 28.983 7.0661L31.1044 9.18742C30.9091 9.38269 30.5925 9.38268 30.3973 9.18743L32.5186 7.0661ZM36.2898 10.8373L32.5186 7.0661L30.3973 9.18742L34.1685 12.9587L36.2898 10.8373ZM36.2898 14.3729C37.2661 13.3966 37.2661 11.8136 36.2898 10.8373L34.1685 12.9587C33.9732 12.7634 33.9732 12.4468 34.1685 12.2516L36.2898 14.3729ZM34.0277 16.635L36.2898 14.3729L34.1685 12.2516L31.9064 14.5136L34.0277 16.635ZM35.4159 17.5851C35.1319 16.631 34.7514 15.7187 34.2859 14.8596L31.6483 16.2889C32.0161 16.9678 32.3164 17.688 32.5405 18.4409L35.4159 17.5851ZM33.9782 19.513H37.1763V16.513H33.9782V19.513ZM37.1763 19.513C36.9001 19.513 36.6763 19.2892 36.6763 19.013H39.6763C39.6763 17.6323 38.557 16.513 37.1763 16.513V19.513ZM36.6763 19.013V24.3464H39.6763V19.013H36.6763ZM36.6763 24.3464C36.6763 24.0702 36.9001 23.8464 37.1763 23.8464V26.8464C38.557 26.8464 39.6763 25.7271 39.6763 24.3464H36.6763ZM37.1763 23.8464H33.9782V26.8464H37.1763V23.8464ZM34.2859 28.4997C34.7514 27.6407 35.1319 26.7284 35.4159 25.7742L32.5405 24.9185C32.3164 25.6713 32.0161 26.3916 31.6483 27.0704L34.2859 28.4997ZM36.2898 28.9865L34.0277 26.7244L31.9064 28.8457L34.1685 31.1078L36.2898 28.9865ZM36.2898 32.522C37.2661 31.5457 37.2661 29.9628 36.2898 28.9865L34.1685 31.1078C33.9732 30.9126 33.9732 30.596 34.1685 30.4007L36.2898 32.522ZM32.5186 36.2933L36.2898 32.522L34.1685 30.4007L30.3973 34.1719L32.5186 36.2933ZM28.9831 36.2933C29.9594 37.2696 31.5423 37.2696 32.5186 36.2933L30.3973 34.1719C30.5925 33.9767 30.9091 33.9767 31.1044 34.1719L28.9831 36.2933ZM26.721 34.0312L28.9831 36.2933L31.1044 34.1719L28.8423 31.9099L26.721 34.0312ZM25.7708 35.4193C26.7249 35.1353 27.6372 34.7548 28.4963 34.2893L27.067 31.6517C26.3882 32.0195 25.6679 32.3198 24.9151 32.5439L25.7708 35.4193ZM26.843 37.1797V33.9816H23.843V37.1797H26.843ZM24.343 39.6797C25.7237 39.6797 26.843 38.5604 26.843 37.1797H23.843C23.843 36.9035 24.0668 36.6797 24.343 36.6797V39.6797ZM19.0096 39.6797H24.343V36.6797H19.0096V39.6797ZM16.5096 37.1797C16.5096 38.5604 17.6289 39.6797 19.0096 39.6797V36.6797C19.2858 36.6797 19.5096 36.9035 19.5096 37.1797H16.5096ZM16.5096 33.9816V37.1797H19.5096V33.9816H16.5096ZM14.8563 34.2893C15.7153 34.7548 16.6276 35.1353 17.5818 35.4193L18.4375 32.5439C17.6846 32.3198 16.9644 32.0195 16.2855 31.6517L14.8563 34.2893ZM14.3695 36.2932L16.6316 34.0311L14.5102 31.9098L12.2482 34.1719L14.3695 36.2932ZM10.834 36.2932C11.8103 37.2695 13.3932 37.2695 14.3695 36.2932L12.2482 34.1719C12.4434 33.9766 12.76 33.9766 12.9553 34.1719L10.834 36.2932ZM7.06274 32.522L10.834 36.2932L12.9553 34.1719L9.18406 30.4006L7.06274 32.522ZM7.06273 28.9864C6.08642 29.9627 6.08642 31.5456 7.06274 32.522L9.18406 30.4006C9.37932 30.5959 9.37932 30.9125 9.18406 31.1077L7.06273 28.9864ZM9.32481 26.7243L7.06273 28.9864L9.18406 31.1077L11.4461 28.8457L9.32481 26.7243ZM7.93673 25.7742C8.22069 26.7283 8.60116 27.6406 9.06665 28.4996L11.7043 27.0704C11.3365 26.3916 11.0361 25.6713 10.8121 24.9185L7.93673 25.7742ZM9.37441 23.8464H6.17627V26.8464H9.37441V23.8464ZM6.17627 23.8464C6.45242 23.8464 6.67627 24.0702 6.67627 24.3463H3.67627C3.67627 25.7271 4.79555 26.8464 6.17627 26.8464V23.8464ZM6.67627 24.3463V19.013H3.67627V24.3463H6.67627ZM6.67627 19.013C6.67627 19.2892 6.45241 19.513 6.17627 19.513V16.513C4.79556 16.513 3.67627 17.6323 3.67627 19.013H6.67627ZM6.17627 19.513H9.37441V16.513H6.17627V19.513ZM9.06665 14.8597C8.60116 15.7188 8.22069 16.631 7.93673 17.5851L10.8121 18.4409C11.0361 17.6881 11.3365 16.9678 11.7043 16.289L9.06665 14.8597ZM7.06274 14.373L9.32481 16.635L11.4461 14.5137L9.18406 12.2516L7.06274 14.373ZM7.06274 10.8374C6.08643 11.8137 6.08643 13.3966 7.06274 14.373L9.18406 12.2516C9.37932 12.4469 9.37932 12.7635 9.18406 12.9587L7.06274 10.8374ZM10.834 7.06619L7.06274 10.8374L9.18406 12.9587L12.9553 9.18751L10.834 7.06619ZM14.3695 7.06619C13.3932 6.08988 11.8103 6.08988 10.834 7.06619L12.9553 9.18751C12.76 9.38277 12.4435 9.38277 12.2482 9.18751L14.3695 7.06619ZM16.6316 9.32824L14.3695 7.06619L12.2482 9.18751L14.5102 11.4496L16.6316 9.32824ZM17.5818 7.94012C16.6276 8.22408 15.7153 8.60457 14.8563 9.07008L16.2856 11.7077C16.9644 11.3399 17.6846 11.0395 18.4375 10.8155L17.5818 7.94012ZM16.5096 6.17969V9.3778H19.5096V6.17969H16.5096Z" fill="black"/>
<circle cx="21.6763" cy="21.6797" r="5.5" stroke="black" stroke-width="3" stroke-linecap="round" stroke-linejoin="round"/>
</svg>
