<svg width="112" height="23" viewBox="0 0 112 23" fill="none" xmlns="http://www.w3.org/2000/svg">
<path d="M0 11.1522C0 17.4157 4.15959 22.3044 9.61905 22.3044C14.5586 22.3044 16.8983 18.9434 16.8983 18.9434L13.7786 13.1382C13.7786 13.1382 12.2188 14.8187 10.399 14.8187C8.57915 14.8187 7.27928 13.291 7.27928 11.1522C7.27928 9.01341 8.57915 7.48572 10.399 7.48572C12.2188 7.48572 13.7786 9.16618 13.7786 9.16618L16.8983 3.36093C16.8983 3.36093 14.5586 0 9.61905 0C4.15959 0 0 4.88863 0 11.1522Z" fill="#FF6A00"/>
<path d="M33.5357 21.8461L36.6554 9.93003V21.8461H43.4147V0.458309H33.7957L30.8059 12.0688L27.8162 0.458309H18.1972V21.8461H24.9565V9.93003L28.0762 21.8461H33.5357Z" fill="#FF6A00"/>
<path d="M53.5496 0.15277C49.39 0.15277 45.7504 0.458309 45.7504 0.458309V21.8461H52.5097V14.9714C52.5097 14.9714 53.8096 15.1242 54.8495 15.1242C59.2691 15.1242 61.8688 12.0688 61.8688 7.63848C61.8688 3.20816 59.2691 0.15277 53.5496 0.15277ZM52.5097 9.31895V5.95802H53.5496C54.4595 5.95802 55.1095 6.72187 55.1095 7.63848C55.1095 8.5551 54.4595 9.31895 53.5496 9.31895H52.5097Z" fill="#FF6A00"/>
<path d="M70.187 0.458309H63.4276V21.8461H77.2063V14.8187H70.187V0.458309Z" fill="#FF6A00"/>
<path d="M75.3936 0.458309V7.48572H80.3331V21.8461H87.0924V7.48572H92.0319V0.458309H75.3936Z" fill="#FF6A00"/>
<path d="M100.083 15.4297V6.87464H101.123C103.073 6.87464 104.243 8.24956 104.243 11.1522C104.243 14.0548 103.073 15.4297 101.123 15.4297H100.083ZM111.522 11.1522C111.522 4.58309 108.038 0.15277 101.123 0.15277C96.9633 0.15277 93.3237 0.458309 93.3237 0.458309V21.8461C93.3237 21.8461 96.9633 22.1516 101.123 22.1516C108.038 22.1516 111.522 17.7213 111.522 11.1522Z" fill="#FF6A00"/>
</svg>
