<svg width="48" height="48" viewBox="0 0 48 48" fill="none" xmlns="http://www.w3.org/2000/svg">
<path d="M4.75 3.5H15.75V0.5H4.75V3.5ZM17 4.75V15.75H20V4.75H17ZM15.75 17H4.75V20H15.75V17ZM3.5 15.75V4.75H0.5V15.75H3.5ZM4.75 17C4.05964 17 3.5 16.4404 3.5 15.75H0.5C0.5 18.0972 2.40279 20 4.75 20V17ZM17 15.75C17 16.4404 16.4404 17 15.75 17V20C18.0972 20 20 18.0972 20 15.75H17ZM15.75 3.5C16.4404 3.5 17 4.05964 17 4.75H20C20 2.40279 18.0972 0.5 15.75 0.5V3.5ZM4.75 0.5C2.40279 0.5 0.5 2.40279 0.5 4.75H3.5C3.5 4.05964 4.05964 3.5 4.75 3.5V0.5ZM4.75 31H15.75V28H4.75V31ZM17 32.25V43.25H20V32.25H17ZM15.75 44.5H4.75V47.5H15.75V44.5ZM3.5 43.25V32.25H0.5V43.25H3.5ZM4.75 44.5C4.05964 44.5 3.5 43.9404 3.5 43.25H0.5C0.5 45.5972 2.40279 47.5 4.75 47.5V44.5ZM17 43.25C17 43.9404 16.4404 44.5 15.75 44.5V47.5C18.0972 47.5 20 45.5972 20 43.25H17ZM15.75 31C16.4404 31 17 31.5596 17 32.25H20C20 29.9028 18.0972 28 15.75 28V31ZM4.75 28C2.40279 28 0.5 29.9028 0.5 32.25H3.5C3.5 31.5596 4.05964 31 4.75 31V28ZM32.25 3.5H43.25V0.5H32.25V3.5ZM44.5 4.75V15.75H47.5V4.75H44.5ZM43.25 17H32.25V20H43.25V17ZM31 15.75V4.75H28V15.75H31ZM32.25 17C31.5596 17 31 16.4404 31 15.75H28C28 18.0972 29.9028 20 32.25 20V17ZM44.5 15.75C44.5 16.4404 43.9404 17 43.25 17V20C45.5972 20 47.5 18.0972 47.5 15.75H44.5ZM43.25 3.5C43.9404 3.5 44.5 4.05964 44.5 4.75H47.5C47.5 2.40279 45.5972 0.5 43.25 0.5V3.5ZM32.25 0.5C29.9028 0.5 28 2.40279 28 4.75H31C31 4.05964 31.5596 3.5 32.25 3.5V0.5ZM32.25 31H43.25V28H32.25V31ZM44.5 32.25V43.25H47.5V32.25H44.5ZM43.25 44.5H32.25V47.5H43.25V44.5ZM31 43.25V32.25H28V43.25H31ZM32.25 44.5C31.5596 44.5 31 43.9404 31 43.25H28C28 45.5972 29.9028 47.5 32.25 47.5V44.5ZM44.5 43.25C44.5 43.9404 43.9404 44.5 43.25 44.5V47.5C45.5972 47.5 47.5 45.5972 47.5 43.25H44.5ZM43.25 31C43.9404 31 44.5 31.5596 44.5 32.25H47.5C47.5 29.9028 45.5972 28 43.25 28V31ZM32.25 28C29.9028 28 28 29.9028 28 32.25H31C31 31.5596 31.5596 31 32.25 31V28Z" fill="#FF6A00"/>
</svg>
