<svg width="49" height="49" viewBox="0 0 49 49" fill="none" xmlns="http://www.w3.org/2000/svg">
<path d="M39.0499 26.3385C38.615 26.3385 38.1604 26.2001 37.7255 26.1013C36.8448 25.9072 35.9793 25.6495 35.1358 25.3303C34.2188 24.9967 33.2107 25.014 32.3056 25.379C31.4006 25.7439 30.6624 26.4307 30.2333 27.3071L29.7984 28.1967C27.873 27.1256 26.1037 25.7953 24.5401 24.2431C22.9878 22.6794 21.6575 20.9101 20.5864 18.9847L21.4167 18.4312C22.2931 18.0021 22.9799 17.2639 23.3449 16.3589C23.7098 15.4538 23.7271 14.4457 23.3935 13.5287C23.0796 12.6834 22.8221 11.8183 22.6225 10.939C22.5237 10.5041 22.4446 10.0495 22.3853 9.5948C22.1453 8.20236 21.4159 6.94139 20.3287 6.03896C19.2414 5.13654 17.8677 4.65196 16.4548 4.6725H10.5244C9.67241 4.6645 8.82874 4.84016 8.05078 5.18753C7.27282 5.53489 6.57884 6.04579 6.01608 6.68547C5.45332 7.32514 5.03499 8.07856 4.78957 8.89443C4.54416 9.71031 4.47741 10.5695 4.59389 11.4135C5.64702 19.6951 9.42926 27.3899 15.3432 33.2824C21.2571 39.1748 28.9656 42.929 37.251 43.952H38.0022C39.46 43.9541 40.8674 43.4193 41.9559 42.4496C42.5813 41.8903 43.0809 41.2046 43.4216 40.4378C43.7624 39.6711 43.9366 38.8408 43.9327 38.0018V32.0713C43.9085 30.6982 43.4085 29.376 42.518 28.3305C41.6275 27.285 40.4017 26.5809 39.0499 26.3385ZM40.0384 38.1994C40.038 38.4801 39.9779 38.7575 39.862 39.0132C39.7461 39.2688 39.5771 39.4968 39.3662 39.6821C39.146 39.8738 38.8878 40.017 38.6085 40.1021C38.3291 40.1873 38.035 40.2126 37.7452 40.1763C30.3418 39.227 23.4651 35.8401 18.1998 30.5497C12.9345 25.2593 9.58025 18.3666 8.66615 10.9588C8.63469 10.6692 8.66226 10.3763 8.7472 10.0977C8.83215 9.81907 8.97269 9.56057 9.16036 9.33781C9.3456 9.12694 9.57363 8.95794 9.82927 8.84205C10.0849 8.72617 10.3623 8.66604 10.643 8.66569H16.5734C17.0332 8.65546 17.482 8.8058 17.8429 9.09085C18.2037 9.37589 18.4538 9.77779 18.5503 10.2274C18.6293 10.7677 18.7282 11.3015 18.8468 11.8286C19.0752 12.8707 19.3791 13.8947 19.7561 14.8927L16.9886 16.1776C16.7519 16.2862 16.5391 16.4404 16.3622 16.6315C16.1854 16.8226 16.048 17.0467 15.958 17.291C15.868 17.5353 15.8271 17.7949 15.8378 18.0551C15.8484 18.3152 15.9103 18.5707 16.0199 18.8068C18.865 24.9009 23.7636 29.7995 29.8577 32.6446C30.339 32.8423 30.8788 32.8423 31.3601 32.6446C31.6066 32.5564 31.8332 32.4201 32.0266 32.2436C32.2201 32.0672 32.3765 31.854 32.4869 31.6166L33.7125 28.8491C34.7345 29.2145 35.7775 29.5182 36.8359 29.7584C37.3631 29.877 37.8968 29.9759 38.4371 30.0549C38.8867 30.1514 39.2886 30.4015 39.5737 30.7624C39.8587 31.1232 40.0091 31.5721 39.9988 32.0318L40.0384 38.1994Z" fill="#39C761"/>
</svg>
