<svg width="49" height="48" viewBox="0 0 49 48" fill="none" xmlns="http://www.w3.org/2000/svg">
<path fill-rule="evenodd" clip-rule="evenodd" d="M14.5768 19.9964C14.5768 14.8105 18.7808 10.6065 23.9667 10.6065C29.1527 10.6065 33.3567 14.8105 33.3567 19.9964C33.3567 25.1823 29.1527 29.3864 23.9667 29.3864C18.7808 29.3864 14.5768 25.1823 14.5768 19.9964ZM23.9667 13.5718C20.4185 13.5718 17.5421 16.4482 17.5421 19.9964C17.5421 23.5447 20.4185 26.4211 23.9667 26.4211C27.515 26.4211 30.3914 23.5447 30.3914 19.9964C30.3914 16.4482 27.515 13.5718 23.9667 13.5718Z" fill="#39C761"/>
<path fill-rule="evenodd" clip-rule="evenodd" d="M7.21189 17.7366C7.91234 9.23903 15.0134 2.69922 23.5398 2.69922H24.3937C32.9201 2.69922 40.0211 9.23903 40.7216 17.7366C41.0979 22.3014 39.6878 26.8341 36.7885 30.3799L27.3135 41.9676C25.5837 44.083 22.3498 44.083 20.62 41.9676L11.145 30.3799C8.24566 26.8341 6.83563 22.3014 7.21189 17.7366ZM23.5398 5.66446C16.5566 5.66446 10.7408 11.0206 10.1671 17.9802C9.85395 21.7794 11.0275 25.5518 13.4405 28.5029L22.9156 40.0906C23.4589 40.755 24.4746 40.755 25.0179 40.0906L34.493 28.5028C36.906 25.5518 38.0795 21.7794 37.7664 17.9802C37.1927 11.0206 31.3769 5.66446 24.3937 5.66446H23.5398Z" fill="#39C761"/>
<path fill-rule="evenodd" clip-rule="evenodd" d="M14.5768 19.9964C14.5768 14.8105 18.7808 10.6065 23.9667 10.6065C29.1527 10.6065 33.3567 14.8105 33.3567 19.9964C33.3567 25.1823 29.1527 29.3864 23.9667 29.3864C18.7808 29.3864 14.5768 25.1823 14.5768 19.9964ZM23.9667 13.5718C20.4185 13.5718 17.5421 16.4482 17.5421 19.9964C17.5421 23.5447 20.4185 26.4211 23.9667 26.4211C27.515 26.4211 30.3914 23.5447 30.3914 19.9964C30.3914 16.4482 27.515 13.5718 23.9667 13.5718Z" stroke="#39C761" stroke-width="1.18609"/>
<path fill-rule="evenodd" clip-rule="evenodd" d="M7.21189 17.7366C7.91234 9.23903 15.0134 2.69922 23.5398 2.69922H24.3937C32.9201 2.69922 40.0211 9.23903 40.7216 17.7366C41.0979 22.3014 39.6878 26.8341 36.7885 30.3799L27.3135 41.9676C25.5837 44.083 22.3498 44.083 20.62 41.9676L11.145 30.3799C8.24566 26.8341 6.83563 22.3014 7.21189 17.7366ZM23.5398 5.66446C16.5566 5.66446 10.7408 11.0206 10.1671 17.9802C9.85395 21.7794 11.0275 25.5518 13.4405 28.5029L22.9156 40.0906C23.4589 40.755 24.4746 40.755 25.0179 40.0906L34.493 28.5028C36.906 25.5518 38.0795 21.7794 37.7664 17.9802C37.1927 11.0206 31.3769 5.66446 24.3937 5.66446H23.5398Z" stroke="#39C761" stroke-width="1.18609"/>
</svg>
