<svg width="49" height="49" viewBox="0 0 49 49" fill="none" xmlns="http://www.w3.org/2000/svg">
<path d="M38.1808 8.85156H10.5053C8.93244 8.85156 7.424 9.47638 6.31182 10.5886C5.19965 11.7007 4.57483 13.2092 4.57483 14.782V34.5503C4.57483 36.1231 5.19965 37.6316 6.31182 38.7438C7.424 39.8559 8.93244 40.4808 10.5053 40.4808H38.1808C39.7537 40.4808 41.2621 39.8559 42.3743 38.7438C43.4865 37.6316 44.1113 36.1231 44.1113 34.5503V14.782C44.1113 13.2092 43.4865 11.7007 42.3743 10.5886C41.2621 9.47638 39.7537 8.85156 38.1808 8.85156ZM37.3703 12.8052L25.7466 24.4289C25.5628 24.6142 25.3442 24.7613 25.1033 24.8617C24.8624 24.962 24.604 25.0137 24.3431 25.0137C24.0821 25.0137 23.8237 24.962 23.5828 24.8617C23.3419 24.7613 23.1233 24.6142 22.9395 24.4289L11.3158 12.8052H37.3703ZM40.1577 34.5503C40.1577 35.0746 39.9494 35.5774 39.5787 35.9481C39.2079 36.3188 38.7051 36.5271 38.1808 36.5271H10.5053C9.98102 36.5271 9.4782 36.3188 9.10748 35.9481C8.73675 35.5774 8.52848 35.0746 8.52848 34.5503V15.5925L20.1522 27.2163C21.2642 28.3268 22.7715 28.9507 24.3431 28.9507C25.9147 28.9507 27.422 28.3268 28.5339 27.2163L40.1577 15.5925V34.5503Z" fill="#39C761"/>
</svg>
