<svg width="161" height="161" viewBox="0 0 161 161" fill="none" xmlns="http://www.w3.org/2000/svg">
<mask id="mask0_1198_50947" style="mask-type:alpha" maskUnits="userSpaceOnUse" x="0" y="0" width="161" height="161">
<path d="M80.8692 160.798C36.7019 160.798 0.965088 125.009 0.965088 80.8943C0.965088 36.727 36.7549 0.990234 80.8692 0.990234C125.037 0.990234 160.773 36.7801 160.773 80.8943C160.826 125.062 125.037 160.798 80.8692 160.798Z" fill="#F7C0B5"/>
</mask>
<g mask="url(#mask0_1198_50947)">
<g filter="url(#filter0_i_1198_50947)">
<g filter="url(#filter1_d_1198_50947)">
<path d="M80.8729 160.798C36.7056 160.798 0.96875 125.008 0.96875 80.8941C0.96875 36.7268 36.7586 0.98999 80.8729 0.98999C125.04 0.98999 160.777 36.7798 160.777 80.8941C160.83 125.061 125.04 160.798 80.8729 160.798Z" fill="white"/>
</g>
</g>
<path d="M125.832 148.177C125.459 148.444 125.033 148.71 124.66 148.977C124.234 149.243 123.861 149.509 123.435 149.722C123.062 149.935 122.743 150.148 122.37 150.362C122.316 150.415 122.263 150.415 122.21 150.468C120.985 151.214 119.706 151.906 118.428 152.546C118.055 152.759 117.629 152.972 117.256 153.132C117.256 153.132 117.202 153.185 117.149 153.185C116.723 153.398 116.297 153.611 115.871 153.824C115.018 154.25 114.113 154.623 113.261 154.996C112.834 155.209 112.355 155.369 111.929 155.529C111.503 155.688 111.023 155.902 110.597 156.061C110.171 156.221 109.692 156.434 109.265 156.594C109.265 156.594 109.265 156.594 109.212 156.594C108.786 156.754 108.306 156.914 107.88 157.073C106.921 157.393 105.909 157.713 104.951 158.032C104.631 158.139 104.258 158.245 103.938 158.352C102.926 158.672 101.914 158.938 100.902 159.151C100.529 159.257 100.156 159.311 99.7301 159.417C98.7713 159.63 97.7591 159.843 96.8003 160.057C96.5872 160.11 96.4274 160.11 96.2143 160.163C95.8947 160.216 95.5218 160.27 95.2022 160.323C94.7228 160.376 94.2966 160.483 93.8172 160.536C93.6041 160.589 93.3911 160.589 93.178 160.643C92.9116 160.696 92.592 160.749 92.2724 160.749C91.4201 160.856 90.5145 160.962 89.6622 161.069C89.3959 161.122 89.0762 161.122 88.8099 161.175H88.7566C88.3837 161.228 88.0108 161.228 87.638 161.282C87.2651 161.335 86.8922 161.335 86.5193 161.335C86.3062 161.335 86.0399 161.388 85.8268 161.388C85.4007 161.388 85.0278 161.442 84.6549 161.442C84.1222 161.442 83.6428 161.495 83.1101 161.495C82.5774 161.495 82.0979 161.495 81.5653 161.495C81.1924 161.495 80.8195 161.495 80.4466 161.495C58.0202 161.175 37.7778 151.64 23.3951 136.511C23.3951 136.511 23.3951 136.458 23.3418 136.458C24.9931 133.209 31.1191 127.349 37.5115 122.502C45.6084 116.376 57.0613 112.594 57.0613 112.594C57.0613 112.594 64.5723 111.368 92.4322 117.175C113.687 121.649 122.743 139.814 125.832 148.177Z" fill="#FDEDE1"/>
<path d="M98.3452 131.93C97.2265 137.417 89.9819 140.667 77.7832 135.766C62.8145 129.693 57.0614 112.594 57.0614 112.594C56.2624 100.342 54.3979 89.8476 54.3979 89.8476C71.7105 88.3561 92.166 108.598 92.166 108.598L94.5098 118.613C94.7229 119.465 95.149 120.211 95.7883 120.744C96.9069 122.662 99.091 128.415 98.3452 131.93Z" fill="#FDEDE1"/>
<path d="M95.7882 120.797C85.6137 120.264 78.1028 118.773 70.0591 104.337C76.8776 110.356 84.9212 112.647 93.3911 113.712L94.5097 118.613C94.7228 119.519 95.149 120.264 95.7882 120.797Z" fill="#EFBDA5"/>
<path d="M116.83 56.6075C117.789 61.0822 118.268 64.7045 115.658 76.6368C113.048 88.5692 118.055 100.502 105.483 111.422C97.0134 118.773 82.2046 120.158 70.3787 112.114C66.3835 109.398 62.708 105.615 59.7249 100.661C57.381 96.7727 54.6643 93.0971 51.6279 89.7411C47.4196 85.1599 42.359 75.9443 44.8627 59.6439C48.9112 33.1157 75.173 30.0794 90.6744 33.0092C106.176 35.939 114.219 44.7817 116.83 56.6075Z" fill="#FDEDE1"/>
<path d="M65.8508 77.4359C65.8508 77.4359 64.1995 69.4455 56.4221 70.4043C49.7102 71.2566 47.3663 87.344 62.6014 91.8186" fill="#FDEDE1"/>
<path d="M62.122 84.5207C62.122 84.5207 60.2043 83.2955 60.4174 81.1647C60.737 78.661 60.4174 77.1162 59.2455 76.6368C56.3156 75.4116 55.7297 78.8208 55.8362 79.247" stroke="#423232" stroke-width="1.65692" stroke-miterlimit="10" stroke-linecap="round" stroke-linejoin="round"/>
<path d="M102.766 89.6878C102.766 89.6878 104.791 89.7943 106.708 87.5037C107.774 86.2253 108.679 84.6272 108.093 84.1478C107.507 83.6151 97.8657 85.1066 97.2265 86.3851C96.5872 87.6635 100.316 89.6878 102.766 89.6878Z" fill="#EFBDA5"/>
<path d="M104.365 71.7893C104.365 71.7893 104.471 76.8499 107.721 82.4965C109.159 85.0001 106.975 89.1019 102.234 89.7944" stroke="#423232" stroke-width="1.65692" stroke-miterlimit="10" stroke-linecap="round" stroke-linejoin="round"/>
<path opacity="0.42" d="M75.4926 92.4044C78.5229 92.4044 80.9794 90.3772 80.9794 87.8765C80.9794 85.3758 78.5229 83.3486 75.4926 83.3486C72.4624 83.3486 70.0059 85.3758 70.0059 87.8765C70.0059 90.3772 72.4624 92.4044 75.4926 92.4044Z" fill="#F0ACB8"/>
<path opacity="0.42" d="M114.805 83.4553C114.646 86.4384 114.699 89.3682 114.486 92.298C112.142 91.7653 110.437 90.0075 110.437 87.93C110.437 85.6926 112.302 83.8815 114.805 83.4553Z" fill="#F0ACB8"/>
<path d="M96.9166 116.052C96.9166 116.052 88.9262 118.396 77.8461 114.774C66.7661 111.151 55.9524 101.616 55.9524 101.616C55.9524 101.616 52.4366 101.669 51.1049 104.333C49.8264 106.996 49.8797 112.483 47.8555 113.975C47.376 114.294 46.0443 114.667 44.0733 115.2C40.8772 116.105 36.1362 117.49 31.3419 120.207C27.7729 122.231 24.1506 124.948 21.1142 128.677C19.7292 130.382 18.504 132.299 17.4386 134.483C9.02206 151.583 12.6444 175.554 12.6444 175.554H142.835C142.835 175.554 139.053 145.936 130.902 136.188C122.752 126.44 107.198 118.556 102.616 116.478V113.389C102.67 113.389 99.8464 115.253 96.9166 116.052Z" fill="#E2B8E6"/>
<mask id="mask1_1198_50947" style="mask-type:alpha" maskUnits="userSpaceOnUse" x="11" y="101" width="132" height="75">
<path d="M96.9166 116.052C96.9166 116.052 88.9262 118.396 77.8461 114.774C66.7661 111.151 55.9524 101.616 55.9524 101.616C55.9524 101.616 52.4366 101.669 51.1049 104.333C49.8264 106.996 49.8797 112.483 47.8555 113.975C47.376 114.294 46.0443 114.667 44.0733 115.2C40.8772 116.105 36.1362 117.49 31.3419 120.207C27.7729 122.231 24.1506 124.948 21.1142 128.677C19.7292 130.382 18.504 132.299 17.4386 134.483C9.02206 151.583 12.6444 175.554 12.6444 175.554H142.835C142.835 175.554 139.053 145.936 130.902 136.188C122.752 126.44 107.198 118.556 102.616 116.478V113.389C102.67 113.389 99.8464 115.253 96.9166 116.052Z" fill="#48D89E"/>
</mask>
<g mask="url(#mask1_1198_50947)">
<path d="M33.6325 136.401C36.751 136.401 39.2791 133.873 39.2791 130.754C39.2791 127.636 36.751 125.108 33.6325 125.108C30.514 125.108 27.986 127.636 27.986 130.754C27.986 133.873 30.514 136.401 33.6325 136.401Z" fill="#D59BE3"/>
<path d="M65.754 133.791C68.8725 133.791 71.4005 131.263 71.4005 128.144C71.4005 125.026 68.8725 122.498 65.754 122.498C62.6355 122.498 60.1074 125.026 60.1074 128.144C60.1074 131.263 62.6355 133.791 65.754 133.791Z" fill="#D59BE3"/>
<path d="M90.0449 121.805C93.1634 121.805 95.6914 119.277 95.6914 116.159C95.6914 113.04 93.1634 110.512 90.0449 110.512C86.9264 110.512 84.3983 113.04 84.3983 116.159C84.3983 119.277 86.9264 121.805 90.0449 121.805Z" fill="#D59BE3"/>
<path d="M55.7393 161.438C58.8578 161.438 61.3859 158.91 61.3859 155.791C61.3859 152.673 58.8578 150.145 55.7393 150.145C52.6208 150.145 50.0928 152.673 50.0928 155.791C50.0928 158.91 52.6208 161.438 55.7393 161.438Z" fill="#D59BE3"/>
<path d="M121.474 158.561C124.592 158.561 127.12 156.033 127.12 152.915C127.12 149.796 124.592 147.268 121.474 147.268C118.355 147.268 115.827 149.796 115.827 152.915C115.827 156.033 118.355 158.561 121.474 158.561Z" fill="#D59BE3"/>
<path d="M90.3643 153.98C93.4828 153.98 96.0109 151.452 96.0109 148.334C96.0109 145.215 93.4828 142.687 90.3643 142.687C87.2458 142.687 84.7178 145.215 84.7178 148.334C84.7178 151.452 87.2458 153.98 90.3643 153.98Z" fill="#D59BE3"/>
<path d="M117.106 131.074C120.224 131.074 122.752 128.546 122.752 125.428C122.752 122.309 120.224 119.781 117.106 119.781C113.987 119.781 111.459 122.309 111.459 125.428C111.459 128.546 113.987 131.074 117.106 131.074Z" fill="#D59BE3"/>
</g>
<path d="M102.67 116.479C102.67 116.479 103.362 121.273 102.137 123.99C100.166 128.464 86.4757 133.578 69.9089 127.612C56.7514 122.871 50.3058 116.319 50.146 115.307" stroke="#B980D3" stroke-width="1.65692" stroke-miterlimit="10" stroke-linecap="round" stroke-linejoin="round"/>
<path d="M60.1075 107.05C59.8411 107.369 59.5748 107.796 59.3617 108.328C58.6159 110.139 58.4028 113.922 58.4028 113.922" stroke="#B980D3" stroke-width="1.65692" stroke-miterlimit="10" stroke-linecap="round" stroke-linejoin="round"/>
<path d="M69.11 112.536C68.8969 112.963 68.6838 113.442 68.5773 113.975C68.311 115.36 67.9913 119.728 67.9913 119.728" stroke="#B980D3" stroke-width="1.65692" stroke-miterlimit="10" stroke-linecap="round" stroke-linejoin="round"/>
<path d="M78.1658 116.265C78.0593 116.691 77.9527 117.224 77.8995 117.863C77.7929 118.609 77.8462 123.137 77.8462 123.137" stroke="#B980D3" stroke-width="1.65692" stroke-miterlimit="10" stroke-linecap="round" stroke-linejoin="round"/>
<path d="M87.8608 118.396C87.9674 119.621 88.0206 121.326 87.8608 123.404" stroke="#B980D3" stroke-width="1.65692" stroke-miterlimit="10" stroke-linecap="round" stroke-linejoin="round"/>
<path d="M96.0111 117.97C96.1709 118.982 96.3307 120.367 96.384 122.125" stroke="#B980D3" stroke-width="1.65692" stroke-miterlimit="10" stroke-linecap="round" stroke-linejoin="round"/>
<path d="M54.3012 101.829C53.0227 102.309 51.3181 103.587 50.6788 107.316" stroke="#B980D3" stroke-width="1.65692" stroke-miterlimit="10" stroke-linecap="round" stroke-linejoin="round"/>
<path d="M108.955 119.621C106.239 118.13 104.001 117.064 102.67 116.478V113.389" stroke="#B980D3" stroke-width="1.65692" stroke-miterlimit="10" stroke-linecap="round" stroke-linejoin="round"/>
<path d="M88.8846 73.1211C88.8846 73.1211 85.1558 73.1744 81.3737 70.3511" stroke="#423232" stroke-width="1.65692" stroke-miterlimit="10" stroke-linecap="round" stroke-linejoin="round"/>
<path d="M104.706 73.9734C104.706 73.9734 108.541 73.2809 109.66 71.7893" stroke="#423232" stroke-width="1.65692" stroke-miterlimit="10" stroke-linecap="round" stroke-linejoin="round"/>
<path d="M91.4416 69.0192C92.4538 69.6052 93.7322 68.8061 93.7855 67.5809C93.7855 66.9417 93.679 66.2492 93.2528 65.6632C91.9743 63.9586 85.7418 61.3484 81.427 62.4671C77.6981 63.4259 86.8072 66.3557 91.4416 69.0192Z" fill="#423232"/>
<path d="M107.796 69.6585C107.05 70.2445 105.825 69.552 105.665 68.4333C105.558 67.8474 105.611 67.2081 105.878 66.6754C106.73 65.0774 110.672 62.8933 113.868 63.9587C116.638 64.9708 111.365 67.0483 107.796 69.6585Z" fill="#423232"/>
<path d="M82.8652 71.3098C82.4391 71.6827 82.1727 72.2687 82.1195 72.8546L82.0662 74.3462C82.0129 75.6246 82.9718 76.69 84.197 76.7433C85.4754 76.7966 86.5408 75.8377 86.5941 74.6125L86.6474 73.121C86.6474 73.0677 86.6474 73.0144 86.6474 72.9612C85.2624 72.8546 84.0372 72.2687 82.8652 71.3098Z" fill="#423232"/>
<path d="M104.706 73.8669C104.706 73.9202 104.706 73.9202 104.706 73.9734L104.653 75.3584C104.599 76.5304 105.505 77.5425 106.677 77.5958C107.849 77.649 108.861 76.7434 108.914 75.5715L108.967 74.1865C109.021 73.6538 108.808 73.1744 108.541 72.8015C107.369 73.494 106.091 73.6538 104.706 73.8669Z" fill="#423232"/>
<path d="M99.0122 95.8578C95.8641 97.7356 90.2858 95.6921 87.6899 92.5439" stroke="#423232" stroke-width="1.65692" stroke-miterlimit="10" stroke-linecap="round" stroke-linejoin="round"/>
<path d="M117.307 61.7708C117.201 61.1316 117.041 60.4924 116.934 59.7999C116.348 57.1897 115.496 54.7393 114.377 52.4487L108.092 55.0589C106.28 55.8047 104.256 56.0177 102.285 55.6981L77.355 51.3833C74.3187 50.8506 71.3889 52.6085 70.3768 55.485C69.631 57.5625 68.7254 59.9597 67.7666 61.9839C60.2023 63.2091 52.8511 61.611 45.8728 58.6279C45.3401 58.4149 44.8607 58.2018 44.328 57.9354C45.2869 53.0879 41.6113 32.8455 46.1924 27.5719C47.7373 25.814 49.2821 25.6009 50.7736 26.1336C54.2361 27.3588 58.1248 26.6663 60.6285 24.0028C62.6527 21.9253 65.2096 20.1142 68.3525 20.0609C69.8973 20.0076 71.1225 20.3272 72.1347 20.9132C75.3308 22.6711 79.2195 22.0851 82.096 19.9011C83.0016 19.2618 83.9605 18.8357 85.0258 18.8357C86.5707 18.8357 87.9557 19.4749 89.0743 20.3272C91.2051 21.9253 94.0284 22.2982 96.6386 21.7655C96.7984 21.7122 96.9582 21.7122 97.118 21.7122C97.7572 21.7122 98.4497 21.872 99.0357 22.1384C101.273 23.0972 103.777 23.2038 106.014 22.2449C107.079 21.8188 108.358 21.8188 109.636 23.044C111.234 24.5888 113.312 25.6009 115.549 25.6542C116.135 25.6542 116.881 25.9205 117.787 26.5065C118.213 26.8261 118.586 27.4121 118.852 28.2111C119.278 29.4363 120.29 30.3419 121.569 30.7148C122.368 30.9811 122.954 31.7802 123.113 33.5913C123.646 39.3444 118.639 57.1364 117.307 61.7708Z" fill="#423232"/>
<path d="M121.462 30.6615C119.118 31.5138 118.692 31.0344 116.029 30.3419C113.365 29.6494 111.021 32.6325 109.104 29.5428C106.334 25.0149 101.22 28.1046 100.208 27.2523C99.1956 26.3999 96.0528 23.5767 91.6314 26.5598C88.7016 28.5307 84.9727 25.0149 80.285 25.0149C70.9096 25.0149 69.205 31.8867 65.9555 28.7438C62.7061 25.6542 59.2436 27.7317 54.4493 28.584C49.6551 29.4363 47.2047 26.5598 47.2047 26.5598C48.3766 25.7607 49.5486 25.7607 50.6672 26.1336C54.1297 27.3588 58.0184 26.6663 60.5221 24.0028C62.5463 21.9253 65.1032 20.1142 68.2461 20.0609C69.7909 20.0076 71.0161 20.3272 72.0283 20.9132C75.2244 22.6711 79.1131 22.0851 81.9896 19.9011C82.8952 19.2618 83.8541 18.8357 84.9195 18.8357C86.4643 18.8357 87.8493 19.4749 88.9679 20.3272C91.0987 21.9253 93.922 22.2982 96.5322 21.7655C96.692 21.7122 96.8518 21.7122 97.0116 21.7122C97.6508 21.7122 98.3433 21.872 98.9293 22.1384C101.167 23.0972 103.67 23.2038 105.908 22.2449C106.973 21.8188 108.251 21.8188 109.53 23.044C111.128 24.5888 113.206 25.6009 115.443 25.6542C116.029 25.6542 116.775 25.9205 117.68 26.5065C118.106 26.8261 118.479 27.4121 118.746 28.2111C119.172 29.383 120.237 30.2886 121.462 30.6615Z" fill="#5E4949"/>
<path d="M65.5293 79.243C64.6237 77.0057 62.2266 72.904 56.58 73.6497C50.9335 74.3422 48.3766 85.7952 56.6866 92.0809C59.0837 93.8388 61.5874 94.6912 61.5874 94.6912L55.1418 96.9285C55.1418 96.9285 43.4225 90.2698 42.9963 75.0347C42.7833 67.9499 43.529 62.1968 44.3281 57.9885C51.7325 61.3978 59.6164 63.3687 67.7666 62.037C66.861 63.9014 65.8489 65.4462 64.8901 66.192C61.9603 68.3228 65.9022 74.0226 65.5293 79.243Z" fill="#99807F"/>
<path d="M65.6359 65.4463C65.3695 65.7126 65.1564 65.979 64.8901 66.1388C64.2509 66.6182 63.9312 67.3107 63.8247 68.1097C60.522 68.2695 55.781 66.8846 54.1297 66.3519C53.7568 66.2453 53.5437 65.9257 53.5437 65.5528V65.2865C53.5437 64.7005 54.0764 64.3276 54.6091 64.4342C58.2847 65.4463 65.3695 65.4463 65.6359 65.4463Z" fill="#423232"/>
<path d="M64.5172 72.5844C61.5873 72.3713 58.7641 71.8386 57.4856 71.5722C57.0594 71.4657 56.7931 71.1461 56.7931 70.7199C56.7931 70.1872 57.2725 69.8143 57.8052 69.8676C60.2023 70.2405 62.7593 70.1872 63.9845 70.134C64.091 70.8797 64.3041 71.6788 64.5172 72.5844Z" fill="#423232"/>
<path d="M59.6241 79.1893C59.6241 79.1893 55.3625 78.5501 55.6822 84.5163C55.842 87.5526 55.842 89.204 55.7887 90.0563C55.7354 90.6423 56.1083 91.175 56.641 91.388C57.2802 91.6544 57.9727 91.388 58.2924 90.7488C58.7718 89.8965 59.3045 88.7246 59.3045 87.7657C59.3045 86.1676 61.0091 84.7294 61.0091 84.7294C61.0091 84.7294 59.4643 83.3976 59.6241 79.1893Z" fill="white"/>
<path d="M72.5153 181.893C72.0891 181.413 55.3626 152.808 57.8662 142.047C59.5708 134.643 57.3335 126.12 55.3626 118.609C54.5635 115.519 53.8177 112.643 53.3916 110.086C52.6458 105.664 53.1785 101.456 54.9897 97.5674C56.9606 93.1993 56.641 89.4171 56.641 89.3639L57.7064 89.2573C57.7064 89.4171 58.026 93.4123 55.9485 97.9935C54.2439 101.669 53.7645 105.718 54.457 109.926C54.8831 112.43 55.6289 115.306 56.4279 118.396C58.4522 126.013 60.6895 134.696 58.9316 142.367C56.5878 152.595 73.2611 181.2 73.3676 181.307L72.5153 181.893Z" fill="white"/>
<path d="M55.8421 87.6058C55.8954 88.7777 55.8421 89.5767 55.8421 90.0562C55.7888 90.6421 56.1617 91.1748 56.6944 91.3879C57.3336 91.6542 58.0261 91.3879 58.3458 90.7487C58.8252 89.8963 59.3579 88.7244 59.3579 87.7656C59.3579 87.7123 59.3579 87.6058 59.3579 87.5525C58.2392 87.9786 56.9608 88.2983 55.8421 87.6058Z" fill="#E5E5E5"/>
<path d="M105.969 123.03C105.596 125.481 105.542 129.369 105.436 133.897C105.276 142.633 100.109 176.672 97.6052 182.053L96.6464 181.627C99.0435 176.406 104.211 142.527 104.37 133.897C104.477 129.369 104.53 125.427 104.903 122.87C105.702 117.49 105.116 113.442 104.797 111.737C104.956 111.577 105.116 111.471 105.276 111.311C105.436 111.204 105.542 111.045 105.702 110.938C106.022 112.323 106.927 116.744 105.969 123.03Z" fill="white"/>
</g>
<defs>
<filter id="filter0_i_1198_50947" x="0.96875" y="0.98999" width="159.808" height="159.808" filterUnits="userSpaceOnUse" color-interpolation-filters="sRGB">
<feFlood flood-opacity="0" result="BackgroundImageFix"/>
<feBlend mode="normal" in="SourceGraphic" in2="BackgroundImageFix" result="shape"/>
<feColorMatrix in="SourceAlpha" type="matrix" values="0 0 0 0 0 0 0 0 0 0 0 0 0 0 0 0 0 0 127 0" result="hardAlpha"/>
<feOffset/>
<feGaussianBlur stdDeviation="1.65692"/>
<feComposite in2="hardAlpha" operator="arithmetic" k2="-1" k3="1"/>
<feColorMatrix type="matrix" values="0 0 0 0 0 0 0 0 0 0 0 0 0 0 0 0 0 0 0.25 0"/>
<feBlend mode="normal" in2="shape" result="effect1_innerShadow_1198_50947"/>
</filter>
<filter id="filter1_d_1198_50947" x="-3.03125" y="0.98999" width="167.808" height="167.808" filterUnits="userSpaceOnUse" color-interpolation-filters="sRGB">
<feFlood flood-opacity="0" result="BackgroundImageFix"/>
<feColorMatrix in="SourceAlpha" type="matrix" values="0 0 0 0 0 0 0 0 0 0 0 0 0 0 0 0 0 0 127 0" result="hardAlpha"/>
<feOffset dy="4"/>
<feGaussianBlur stdDeviation="2"/>
<feComposite in2="hardAlpha" operator="out"/>
<feColorMatrix type="matrix" values="0 0 0 0 0 0 0 0 0 0 0 0 0 0 0 0 0 0 0.25 0"/>
<feBlend mode="normal" in2="BackgroundImageFix" result="effect1_dropShadow_1198_50947"/>
<feBlend mode="normal" in="SourceGraphic" in2="effect1_dropShadow_1198_50947" result="shape"/>
</filter>
</defs>
</svg>
