<svg width="161" height="161" viewBox="0 0 161 161" fill="none" xmlns="http://www.w3.org/2000/svg">
<mask id="mask0_1198_50877" style="mask-type:alpha" maskUnits="userSpaceOnUse" x="0" y="0" width="161" height="161">
<path d="M80.8692 160.798C36.7019 160.798 0.965088 125.009 0.965088 80.8943C0.965088 36.727 36.7549 0.990234 80.8692 0.990234C125.037 0.990234 160.773 36.7801 160.773 80.8943C160.826 125.062 125.037 160.798 80.8692 160.798Z" fill="#F7C0B5"/>
</mask>
<g mask="url(#mask0_1198_50877)">
<g filter="url(#filter0_i_1198_50877)">
<path d="M80.8728 160.798C36.7055 160.798 0.96875 125.008 0.96875 80.8941C0.96875 36.7268 36.7586 0.98999 80.8728 0.98999C125.04 0.98999 160.777 36.7798 160.777 80.8941C160.83 125.061 125.04 160.798 80.8728 160.798Z" fill="white"/>
</g>
<path d="M125.619 148.177C125.246 148.444 124.82 148.71 124.447 148.976C124.021 149.243 123.648 149.509 123.222 149.722C122.849 149.935 122.53 150.148 122.157 150.362C122.104 150.415 122.05 150.415 121.997 150.468C120.772 151.214 119.493 151.906 118.215 152.546C117.842 152.759 117.416 152.972 117.043 153.132C117.043 153.132 116.99 153.185 116.936 153.185C116.51 153.398 116.084 153.611 115.658 153.824C114.806 154.25 113.9 154.623 113.048 154.996C112.622 155.209 112.142 155.369 111.716 155.529C111.29 155.688 110.81 155.902 110.384 156.061C109.958 156.221 109.479 156.434 109.053 156.594C109.053 156.594 109.053 156.594 108.999 156.594C108.573 156.754 108.094 156.914 107.668 157.073C106.709 157.393 105.697 157.713 104.738 158.032C104.418 158.139 104.045 158.245 103.726 158.352C102.714 158.672 101.701 158.938 100.689 159.151C100.316 159.257 99.9435 159.311 99.5173 159.417C98.5585 159.63 97.5464 159.843 96.5875 160.057C96.3744 160.11 96.2146 160.11 96.0016 160.163C95.6819 160.216 95.3091 160.27 94.9894 160.323C94.51 160.376 94.0839 160.483 93.6044 160.536C93.3914 160.589 93.1783 160.589 92.9652 160.643C92.6989 160.696 92.3792 160.749 92.0596 160.749C91.2073 160.856 90.3017 160.962 89.4494 161.069C89.1831 161.122 88.8635 161.122 88.5971 161.175H88.5438C88.171 161.228 87.7981 161.228 87.4252 161.282C87.0523 161.335 86.6794 161.335 86.3065 161.335C86.0934 161.335 85.8271 161.388 85.614 161.388C85.1879 161.388 84.815 161.442 84.4421 161.442C83.9094 161.442 83.43 161.495 82.8973 161.495C82.3646 161.495 81.8852 161.495 81.3525 161.495C80.9796 161.495 80.6067 161.495 80.2338 161.495C57.8074 161.175 37.565 151.64 23.1823 136.511C23.1823 136.511 23.1823 136.458 23.129 136.458C24.7804 133.209 30.9064 127.349 37.2987 122.502C45.3956 116.376 56.8486 112.594 56.8486 112.594C56.8486 112.594 64.3595 111.368 92.2194 117.175C113.474 121.649 122.53 139.814 125.619 148.177Z" fill="#FFE6D1"/>
<path d="M98.1323 131.93C97.0137 137.417 89.769 140.667 77.5703 135.766C62.6016 129.693 56.8485 112.594 56.8485 112.594C56.0495 100.342 54.1851 89.8476 54.1851 89.8476C71.4976 88.3561 91.9531 108.598 91.9531 108.598L94.2969 118.613C94.51 119.465 94.9361 120.211 95.5754 120.744C96.694 122.662 98.8781 128.415 98.1323 131.93Z" fill="#FFE6D1"/>
<path d="M95.5754 120.797C85.401 120.264 77.89 118.773 69.8463 104.337C76.6648 110.356 84.7085 112.647 93.1783 113.712L94.297 118.613C94.51 119.519 94.9362 120.264 95.5754 120.797Z" fill="#EFBDA5"/>
<path d="M116.617 56.6075C117.576 61.0822 118.055 64.7045 115.445 76.6368C112.835 88.5692 117.842 100.502 105.271 111.422C96.8007 118.773 81.9918 120.158 70.166 112.114C66.1708 109.397 62.4952 105.615 59.5121 100.661C57.1682 96.7727 54.4515 93.0971 51.4151 89.7411C47.2069 85.1599 42.1463 75.9443 44.6499 59.6439C48.6984 33.1157 74.9602 30.0794 90.4616 33.0092C105.963 35.939 114.007 44.7817 116.617 56.6075Z" fill="#FFE6D1"/>
<path d="M65.638 77.4359C65.638 77.4359 63.9867 69.4455 56.2094 70.4043C49.4974 71.2566 47.1536 87.344 62.3886 91.8186" fill="#FFE6D1"/>
<path d="M61.9092 84.5207C61.9092 84.5207 59.9915 83.2955 60.2046 81.1647C60.5242 78.661 60.2046 77.1162 59.0327 76.6368C56.1029 75.4116 55.5169 78.8208 55.6234 79.247" stroke="#423232" stroke-width="1.65692" stroke-miterlimit="10" stroke-linecap="round" stroke-linejoin="round"/>
<path d="M102.554 89.6878C102.554 89.6878 104.578 89.7943 106.496 87.5037C107.561 86.2253 108.467 84.6272 107.881 84.1478C107.295 83.6151 97.6529 85.1066 97.0137 86.3851C96.3745 87.6635 100.103 89.6878 102.554 89.6878Z" fill="#EFBDA5"/>
<path d="M104.152 71.7893C104.152 71.7893 104.258 76.8499 107.508 82.4965C108.946 85.0001 106.762 89.1019 102.021 89.7944" stroke="#423232" stroke-width="1.65692" stroke-miterlimit="10" stroke-linecap="round" stroke-linejoin="round"/>
<path opacity="0.42" d="M75.2798 92.4044C78.3101 92.4044 80.7666 90.3772 80.7666 87.8765C80.7666 85.3758 78.3101 83.3486 75.2798 83.3486C72.2496 83.3486 69.7931 85.3758 69.7931 87.8765C69.7931 90.3772 72.2496 92.4044 75.2798 92.4044Z" fill="#ED938A"/>
<path opacity="0.42" d="M114.593 83.4553C114.433 86.4384 114.486 89.3682 114.273 92.298C111.929 91.7653 110.224 90.0075 110.224 87.93C110.224 85.6926 112.089 83.8815 114.593 83.4553Z" fill="#ED938A"/>
<path d="M143.35 181.041H8.68469C8.68469 181.041 9.48373 156.324 17.5807 138.692C23.7067 125.374 38.1427 117.97 48.9031 114.134C51.9394 113.069 54.7095 112.27 56.8402 111.684C56.8402 111.95 56.8935 112.164 56.8935 112.43C56.8935 112.43 61.741 123.297 76.7097 129.316C88.9084 134.27 93.17 132.299 94.2886 126.813C94.9811 123.297 96.739 122.498 95.6203 120.633C94.9811 120.101 94.555 119.302 94.3419 118.503L93.9157 116.745C94.9278 116.532 95.8867 116.265 96.8455 115.946C97.1652 115.839 97.4315 115.733 97.7511 115.626C104.623 117.437 114.957 121.752 127.156 131.98C140.899 143.539 143.35 181.041 143.35 181.041Z" fill="#F8A6D1"/>
<mask id="mask1_1198_50877" style="mask-type:alpha" maskUnits="userSpaceOnUse" x="8" y="111" width="136" height="71">
<path d="M143.35 181.041H8.68481C8.68481 181.041 9.48386 156.324 17.5808 138.692C23.7068 125.374 38.1428 117.97 48.9032 114.134C51.9396 113.069 54.7096 112.27 56.8404 111.684C56.8404 111.95 56.8936 112.164 56.8936 112.43C56.8936 112.43 61.7411 123.297 76.7098 129.316C88.9085 134.27 93.1701 132.299 94.2887 126.813C94.9812 123.297 96.7391 122.498 95.6205 120.633C94.9812 120.101 94.5551 119.302 94.342 118.503L93.9158 116.745C94.928 116.532 95.8868 116.265 96.8457 115.946C97.1653 115.839 97.4316 115.733 97.7512 115.626C104.623 117.437 114.957 121.752 127.156 131.98C140.899 143.539 143.35 181.041 143.35 181.041Z" fill="#CC5292"/>
</mask>
<g mask="url(#mask1_1198_50877)">
<path d="M15.6097 161.598C11.2416 161.598 7.29966 158.828 5.86139 154.726C4.90254 152.116 5.06234 149.292 6.23427 146.789C7.4062 144.285 9.48371 142.367 12.0939 141.462C13.2126 141.036 14.3845 140.823 15.6097 140.823C19.9778 140.823 23.9197 143.593 25.358 147.694C27.2757 153.074 24.5057 159.041 19.1255 160.958C18.0068 161.384 16.8349 161.598 15.6097 161.598Z" stroke="#F274C0" stroke-width="1.65692" stroke-miterlimit="10" stroke-linecap="round" stroke-linejoin="round"/>
<path d="M20.4041 149.505C21.3629 152.115 19.9779 155.045 17.3677 155.951C14.7575 156.91 11.8277 155.525 10.9221 152.914C9.96325 150.304 11.3483 147.374 13.9585 146.469C16.5687 145.51 19.4452 146.895 20.4041 149.505Z" fill="white"/>
<path d="M27.5953 136.241C23.2272 136.241 19.2853 133.471 17.847 129.369C16.8881 126.759 17.0479 123.936 18.2199 121.432C19.3918 118.929 21.4693 117.011 24.0795 116.105C25.1982 115.679 26.3701 115.466 27.5953 115.466C31.9634 115.466 35.9053 118.236 37.3436 122.338C38.3024 124.948 38.1426 127.771 36.9707 130.275C35.7988 132.779 33.7213 134.696 31.1111 135.602C29.9391 136.028 28.7672 136.241 27.5953 136.241Z" stroke="#F274C0" stroke-width="1.65692" stroke-miterlimit="10" stroke-linecap="round" stroke-linejoin="round"/>
<path d="M32.3363 124.149C33.2952 126.759 31.9101 129.689 29.2999 130.595C26.6897 131.554 23.7599 130.169 22.8543 127.558C21.8955 124.948 23.2805 122.018 25.8907 121.113C28.5009 120.154 31.3775 121.486 32.3363 124.149Z" fill="white"/>
<path d="M39.3679 111.205C34.9998 111.205 31.0579 108.435 29.6196 104.333C27.7019 98.9528 30.4719 92.9866 35.8521 91.0689C36.9708 90.6428 38.1427 90.4297 39.3679 90.4297C43.736 90.4297 47.6779 93.1997 49.1162 97.3014C51.0339 102.682 48.2639 108.648 42.8837 110.566C41.765 110.992 40.5931 111.205 39.3679 111.205Z" stroke="#F274C0" stroke-width="1.65692" stroke-miterlimit="10" stroke-linecap="round" stroke-linejoin="round"/>
<path d="M46.1863 161.704C41.8183 161.704 37.8763 158.934 36.438 154.832C35.4792 152.222 35.639 149.399 36.8109 146.895C37.9829 144.391 40.0604 142.474 42.6706 141.568C43.7892 141.142 44.9611 140.929 46.1863 140.929C50.5544 140.929 54.4964 143.699 55.9346 147.801C56.8935 150.411 56.7337 153.234 55.5618 155.738C54.3898 158.242 52.3123 160.159 49.7021 161.065C48.5835 161.491 47.3583 161.704 46.1863 161.704Z" stroke="#F274C0" stroke-width="1.65692" stroke-miterlimit="10" stroke-linecap="round" stroke-linejoin="round"/>
<path d="M50.9274 149.612C51.8862 152.222 50.5012 155.152 47.891 156.058C45.2808 157.016 42.351 155.631 41.4454 153.021C40.4866 150.411 41.8716 147.481 44.4818 146.576C47.092 145.617 49.9685 146.948 50.9274 149.612Z" fill="white"/>
<path d="M58.1187 136.295C53.7506 136.295 49.8087 133.525 48.3704 129.423C47.4116 126.813 47.5714 123.989 48.7433 121.486C49.9152 118.982 51.9927 117.064 54.6029 116.159C55.7216 115.733 56.8935 115.52 58.1187 115.52C62.4868 115.52 66.4287 118.29 67.867 122.391C68.8259 125.001 68.6661 127.825 67.4941 130.328C66.3222 132.832 64.2447 134.75 61.6345 135.655C60.5158 136.082 59.3439 136.295 58.1187 136.295Z" stroke="#F274C0" stroke-width="1.65692" stroke-miterlimit="10" stroke-linecap="round" stroke-linejoin="round"/>
<path d="M62.913 124.202C63.8718 126.813 62.4868 129.742 59.8766 130.648C57.2664 131.607 54.3366 130.222 53.431 127.612C52.4722 125.002 53.8572 122.072 56.4674 121.166C59.0776 120.207 61.9541 121.592 62.913 124.202Z" fill="white"/>
<path d="M69.9445 111.258C65.5764 111.258 61.6345 108.488 60.1962 104.386C59.2374 101.776 59.3972 98.9527 60.5691 96.4491C61.741 93.9454 63.8185 92.0277 66.4287 91.1221C67.5474 90.696 68.7193 90.4829 69.9445 90.4829C74.3126 90.4829 78.2546 93.2529 79.6928 97.3547C81.6105 102.735 78.8405 108.701 73.4603 110.619C72.2884 111.098 71.1164 111.258 69.9445 111.258Z" stroke="#F274C0" stroke-width="1.65692" stroke-miterlimit="10" stroke-linecap="round" stroke-linejoin="round"/>
<path d="M77.6685 159.84C73.3004 159.84 69.3585 157.069 67.9202 152.968C66.0025 147.588 68.7726 141.621 74.1528 139.704C75.2714 139.278 76.4433 139.064 77.6685 139.064C82.0366 139.064 85.9786 141.834 87.4168 145.936C88.3757 148.546 88.2159 151.37 87.044 153.873C85.872 156.377 83.7945 158.295 81.1843 159.2C80.0124 159.626 78.8405 159.84 77.6685 159.84Z" stroke="#F274C0" stroke-width="1.65692" stroke-miterlimit="10" stroke-linecap="round" stroke-linejoin="round"/>
<path d="M82.4095 147.747C83.3684 150.358 81.9834 153.287 79.3732 154.193C76.763 155.152 73.8332 153.767 72.9276 151.157C71.9687 148.546 73.3537 145.617 75.9639 144.711C78.5741 143.752 81.4507 145.084 82.4095 147.747Z" fill="white"/>
<path d="M89.4411 134.803C85.073 134.803 81.1311 132.033 79.6928 127.931C77.7751 122.551 80.5451 116.585 85.9253 114.667C87.044 114.241 88.2159 114.028 89.4411 114.028C93.8092 114.028 97.7511 116.798 99.1894 120.9C101.107 126.28 98.3371 132.246 92.9569 134.164C91.8382 134.59 90.613 134.803 89.4411 134.803Z" stroke="#F274C0" stroke-width="1.65692" stroke-miterlimit="10" stroke-linecap="round" stroke-linejoin="round"/>
<path d="M94.1821 122.711C95.141 125.321 93.756 128.251 91.1458 129.156C88.5356 130.115 85.6058 128.73 84.7002 126.12C83.7413 123.51 85.1263 120.58 87.7365 119.674C90.3467 118.716 93.2766 120.047 94.1821 122.711Z" fill="white"/>
<path d="M108.192 159.893C103.824 159.893 99.882 157.123 98.4437 153.021C96.526 147.641 99.296 141.675 104.676 139.757C105.795 139.331 106.967 139.118 108.192 139.118C112.56 139.118 116.502 141.888 117.94 145.99C118.899 148.6 118.739 151.423 117.567 153.927C116.395 156.43 114.318 158.348 111.708 159.254C110.589 159.68 109.417 159.893 108.192 159.893Z" stroke="#F274C0" stroke-width="1.65692" stroke-miterlimit="10" stroke-linecap="round" stroke-linejoin="round"/>
<path d="M112.933 147.801C113.892 150.411 112.507 153.341 109.897 154.246C107.286 155.205 104.357 153.82 103.451 151.21C102.492 148.6 103.877 145.67 106.487 144.764C109.098 143.805 112.027 145.19 112.933 147.801Z" fill="white"/>
<path d="M119.964 134.856C115.596 134.856 111.654 132.086 110.216 127.985C109.257 125.374 109.417 122.551 110.589 120.047C111.761 117.544 113.838 115.626 116.449 114.721C117.567 114.294 118.739 114.081 119.964 114.081C124.333 114.081 128.274 116.851 129.713 120.953C131.63 126.333 128.86 132.299 123.427 134.217C122.362 134.643 121.19 134.856 119.964 134.856Z" stroke="#F274C0" stroke-width="1.65692" stroke-miterlimit="10" stroke-linecap="round" stroke-linejoin="round"/>
<path d="M124.759 122.764C125.718 125.374 124.333 128.304 121.722 129.21C119.112 130.168 116.182 128.783 115.277 126.173C114.318 123.563 115.703 120.633 118.313 119.728C120.923 118.769 123.8 120.154 124.759 122.764Z" fill="white"/>
</g>
<path d="M89.3879 133.365C89.4412 133.418 89.4412 133.418 89.4945 133.471C89.4945 133.418 89.4945 133.365 89.4945 133.365C89.4412 133.311 89.3879 133.311 89.3879 133.365Z" fill="white"/>
<path d="M35.053 181.041L32.6559 161.331" stroke="#D741D1" stroke-width="1.65692" stroke-miterlimit="10" stroke-linecap="round" stroke-linejoin="round"/>
<path d="M128.061 154.566C128.061 154.566 126.463 158.455 126.943 162.343C127.422 166.232 128.807 171.932 126.836 181.041" stroke="#D741D1" stroke-width="1.65692" stroke-miterlimit="10" stroke-linecap="round" stroke-linejoin="round"/>
<path d="M102.066 113.548C102.066 113.548 94.768 118.716 80.7049 116.532C68.8258 114.667 60.6756 110.352 57.7458 108.594C57 108.115 56.4673 107.316 56.4141 106.41L56.3608 105.611C56.3608 105.611 53.8571 105.824 53.431 109.34C53.2179 111.045 53.2179 113.762 53.2712 116.159C53.3244 119.355 54.6029 122.444 56.8402 124.735C60.4093 128.411 67.8137 133.205 76.2836 134.643C96.6857 138.052 102.226 129.156 102.066 124.415C101.906 118.875 102.066 113.548 102.066 113.548Z" fill="#F8A6D1"/>
<path d="M53.2712 116.105C53.3245 119.302 54.603 122.391 56.8403 124.682C60.4093 128.357 67.8138 133.152 76.2836 134.59C96.6858 137.999 102.226 129.103 102.066 124.362" stroke="#E874AB" stroke-width="1.65692" stroke-miterlimit="10" stroke-linecap="round" stroke-linejoin="round"/>
<path d="M88.0562 117.064C88.0562 117.064 92.5308 117.597 92.4243 122.551C92.3177 127.505 92.5308 134.377 92.5308 134.377" stroke="#E874AB" stroke-width="1.65692" stroke-miterlimit="10" stroke-linecap="round" stroke-linejoin="round"/>
<path d="M85.2861 125.587C86.4335 125.587 87.3636 124.657 87.3636 123.51C87.3636 122.363 86.4335 121.432 85.2861 121.432C84.1387 121.432 83.2086 122.363 83.2086 123.51C83.2086 124.657 84.1387 125.587 85.2861 125.587Z" fill="white"/>
<path d="M85.2861 132.299C86.4335 132.299 87.3636 131.369 87.3636 130.222C87.3636 129.074 86.4335 128.144 85.2861 128.144C84.1387 128.144 83.2086 129.074 83.2086 130.222C83.2086 131.369 84.1387 132.299 85.2861 132.299Z" fill="white"/>
<path d="M85.0441 77.1379C83.7657 77.0846 82.8068 76.0192 82.9134 74.7408L82.9666 73.2492C83.0199 71.9707 84.0853 71.0119 85.3637 71.1184C86.6422 71.1717 87.6011 72.2371 87.4945 73.5156L87.4413 75.0071C87.388 76.2323 86.3226 77.1912 85.0441 77.1379Z" fill="#423232"/>
<path d="M107.471 77.9369C106.299 77.8836 105.393 76.8715 105.446 75.6996L105.5 74.3146C105.553 73.1426 106.565 72.2371 107.737 72.2903C108.909 72.3436 109.814 73.3557 109.761 74.5276L109.708 75.9126C109.655 77.0846 108.642 77.9901 107.471 77.9369Z" fill="#423232"/>
<path d="M90.2114 74.0483C90.2114 74.0483 88.8263 72.0773 86.4292 71.7044C84.4582 71.3848 82.2742 72.3436 81.9546 73.4623" stroke="#423232" stroke-width="1.65692" stroke-miterlimit="10" stroke-linecap="round" stroke-linejoin="round"/>
<path d="M105.926 74.5276C105.926 74.5276 105.926 72.823 108.376 72.823C110.4 72.823 111.253 74.6874 111.253 74.6874" stroke="#423232" stroke-width="1.65692" stroke-miterlimit="10" stroke-linecap="round" stroke-linejoin="round"/>
<path d="M92.3953 65.4719C93.514 65.8448 94.6326 64.8327 94.4195 63.6075C94.313 62.9682 94.0466 62.329 93.5139 61.8496C91.9159 60.4113 85.3105 59.1328 81.3152 60.9973C77.7995 62.7019 87.2814 63.7673 92.3953 65.4719Z" fill="#423232"/>
<path d="M108.323 66.3241C107.417 66.6438 106.458 65.6849 106.618 64.5663C106.671 63.9803 106.884 63.3943 107.311 62.9682C108.589 61.6897 112.957 60.6776 115.727 62.6486C118.124 64.2999 112.478 64.7793 108.323 66.3241Z" fill="#423232"/>
<path d="M99.0122 95.8578C95.8641 97.7356 90.2858 95.6921 87.6899 92.5439" stroke="#423232" stroke-width="1.65692" stroke-miterlimit="10" stroke-linecap="round" stroke-linejoin="round"/>
<path d="M120.728 43.7482C116.945 57.4385 105.972 55.1479 95.6909 51.419C82.0007 46.4117 69.9618 50.4602 69.9085 62.8187C69.802 80.9303 65.2741 75.4435 64.7947 74.751C63.6228 72.5137 61.1191 69.7437 56.3781 70.3296C50.1456 71.1287 47.6952 84.8722 59.3079 90.5188C61.3322 100.8 55.7922 99.8409 55.7922 99.8409C53.9277 92.2766 38.2665 76.1893 38.2133 65.5887C38.2133 51.3125 45.4046 47.264 45.4046 47.264C45.6177 37.3026 56.0052 26.3291 73.4776 26.702C90.95 27.0216 101.657 26.5422 105.066 22.4405C108.476 18.2322 124.51 30.058 120.728 43.7482Z" fill="#423232"/>
<path d="M121.154 60.2083C120.621 63.6709 119.13 66.3343 117.052 68.3053C117.851 62.4989 117.425 59.7289 116.732 56.4795C115.241 49.8208 112.045 44.0677 106.718 39.8062C109.381 39.5931 112.098 40.179 114.548 41.7239C114.548 41.6706 123.338 45.2396 121.154 60.2083Z" fill="#423232"/>
<path d="M108.877 81.917C107.439 80.1591 105.574 78.9339 103.337 78.8807C100.993 78.8274 97.3175 79.3601 93.6419 82.2899C88.8477 86.1253 79.2592 85.5394 75.477 85.1665C74.4117 85.0599 73.3995 85.5926 72.9201 86.5515C71.8547 88.6822 70.4164 93.1036 71.109 100.242C72.0145 109.99 79.9517 118.833 91.1382 118.087C105.841 117.181 114.417 105.356 114.95 89.5346C114.843 85.1665 112.233 86.072 108.877 81.917Z" fill="#FFB1DA"/>
<path d="M89.2207 85.1665C89.2207 85.1665 111.647 95.2877 113.565 87.9365" stroke="#FF84C4" stroke-width="1.65692" stroke-miterlimit="10" stroke-linecap="round" stroke-linejoin="round"/>
<path d="M80.1649 92.4111C80.1649 92.4111 102.804 105.356 112.979 98.324" stroke="#FF84C4" stroke-width="1.65692" stroke-miterlimit="10" stroke-linecap="round" stroke-linejoin="round"/>
<path d="M79.3658 101.573C79.3658 101.573 91.0318 112.068 107.812 108.285" stroke="#FF84C4" stroke-width="1.65692" stroke-miterlimit="10" stroke-linecap="round" stroke-linejoin="round"/>
<path d="M82.4554 86.0718C82.4554 86.0718 80.2181 89.1614 79.3125 97.3116C78.2471 107.113 82.8816 115.263 82.8816 115.263" stroke="#FF84C4" stroke-width="1.65692" stroke-miterlimit="10" stroke-linecap="round" stroke-linejoin="round"/>
<path d="M75.0509 86.4982C75.0509 86.4982 68.9249 82.2367 64.6101 74.8855" stroke="#FFB1DA" stroke-width="1.65692" stroke-miterlimit="10" stroke-linecap="round" stroke-linejoin="round"/>
<path d="M61.4673 91.4521C62.6925 95.4474 65.7288 101.946 73.3996 107.806" stroke="#FFB1DA" stroke-width="1.65692" stroke-miterlimit="10" stroke-linecap="round" stroke-linejoin="round"/>
</g>
<defs>
<filter id="filter0_i_1198_50877" x="0.96875" y="0.98999" width="159.808" height="159.808" filterUnits="userSpaceOnUse" color-interpolation-filters="sRGB">
<feFlood flood-opacity="0" result="BackgroundImageFix"/>
<feBlend mode="normal" in="SourceGraphic" in2="BackgroundImageFix" result="shape"/>
<feColorMatrix in="SourceAlpha" type="matrix" values="0 0 0 0 0 0 0 0 0 0 0 0 0 0 0 0 0 0 127 0" result="hardAlpha"/>
<feOffset/>
<feGaussianBlur stdDeviation="1.65692"/>
<feComposite in2="hardAlpha" operator="arithmetic" k2="-1" k3="1"/>
<feColorMatrix type="matrix" values="0 0 0 0 0 0 0 0 0 0 0 0 0 0 0 0 0 0 0.25 0"/>
<feBlend mode="normal" in2="shape" result="effect1_innerShadow_1198_50877"/>
</filter>
</defs>
</svg>
