<svg width="161" height="161" viewBox="0 0 161 161" fill="none" xmlns="http://www.w3.org/2000/svg">
<mask id="mask0_1198_50907" style="mask-type:alpha" maskUnits="userSpaceOnUse" x="0" y="0" width="161" height="161">
<path d="M80.7968 160.207C36.6295 160.207 0.8927 124.417 0.8927 80.303C0.8927 36.1357 36.6825 0.398926 80.7968 0.398926C124.964 0.398926 160.701 36.1888 160.701 80.303C160.754 124.47 124.964 160.207 80.7968 160.207Z" fill="#F7C0B5"/>
</mask>
<g mask="url(#mask0_1198_50907)">
<g filter="url(#filter0_i_1198_50907)">
<g filter="url(#filter1_d_1198_50907)">
<path d="M80.789 160.207C36.6217 160.207 0.884888 124.417 0.884888 80.303C0.884888 36.1357 36.6747 0.398926 80.789 0.398926C124.956 0.398926 160.693 36.1888 160.693 80.303C160.746 124.47 124.956 160.207 80.789 160.207Z" fill="white"/>
</g>
</g>
<path d="M125.76 147.586C125.387 147.852 124.961 148.119 124.588 148.385C124.162 148.652 123.789 148.918 123.363 149.131C122.99 149.344 122.67 149.557 122.297 149.77C122.244 149.823 122.191 149.823 122.137 149.877C120.912 150.623 119.634 151.315 118.355 151.954C117.982 152.167 117.556 152.38 117.183 152.54C117.183 152.54 117.13 152.593 117.077 152.593C116.651 152.807 116.224 153.02 115.798 153.233C114.946 153.659 114.04 154.032 113.188 154.405C112.762 154.618 112.283 154.778 111.856 154.937C111.43 155.097 110.951 155.31 110.525 155.47C110.099 155.63 109.619 155.843 109.193 156.003C109.193 156.003 109.193 156.003 109.14 156.003C108.714 156.163 108.234 156.322 107.808 156.482C106.849 156.802 105.837 157.121 104.878 157.441C104.559 157.548 104.186 157.654 103.866 157.761C102.854 158.08 101.842 158.347 100.83 158.56C100.457 158.666 100.084 158.719 99.6577 158.826C98.6989 159.039 97.6867 159.252 96.7279 159.465C96.5148 159.518 96.355 159.518 96.1419 159.572C95.8223 159.625 95.4494 159.678 95.1298 159.732C94.6504 159.785 94.2242 159.891 93.7448 159.945C93.5317 159.998 93.3187 159.998 93.1056 160.051C92.8392 160.104 92.5196 160.158 92.2 160.158C91.3477 160.264 90.4421 160.371 89.5898 160.477C89.3235 160.531 89.0038 160.531 88.7375 160.584H88.6842C88.3113 160.637 87.9384 160.637 87.5656 160.69C87.1927 160.744 86.8198 160.744 86.4469 160.744C86.2338 160.744 85.9675 160.797 85.7544 160.797C85.3283 160.797 84.9554 160.85 84.5825 160.85C84.0498 160.85 83.5704 160.903 83.0377 160.903C82.505 160.903 82.0256 160.903 81.4929 160.903C81.12 160.903 80.7471 160.903 80.3742 160.903C57.9478 160.584 37.7054 151.049 23.3227 135.92C23.3227 135.92 23.3227 135.867 23.2694 135.867C24.9208 132.617 31.0467 126.758 37.4391 121.91C45.536 115.784 56.9889 112.002 56.9889 112.002C56.9889 112.002 64.4999 110.777 92.3598 116.583C113.614 121.058 122.67 139.223 125.76 147.586Z" fill="#FDEDE1"/>
<path d="M98.2727 131.339C97.154 136.826 89.9094 140.075 77.7107 135.175C62.742 129.102 56.9889 112.002 56.9889 112.002C56.1899 99.7504 54.3254 89.2563 54.3254 89.2563C71.638 87.7647 92.0934 108.007 92.0934 108.007L94.4373 118.022C94.6504 118.874 95.0765 119.62 95.7158 120.153C96.8344 122.07 99.0185 127.823 98.2727 131.339Z" fill="#FDEDE1"/>
<path d="M95.7158 120.206C85.5414 119.673 78.0304 118.182 69.9867 103.746C76.8052 109.765 84.8489 112.056 93.3187 113.121L94.4373 118.022C94.6504 118.927 95.0766 119.673 95.7158 120.206Z" fill="#EFBDA5"/>
<path d="M116.757 56.0162C117.716 60.4909 118.196 64.1132 115.585 76.0455C112.975 87.9779 117.982 99.9102 105.411 110.83C96.941 118.182 82.1322 119.567 70.3064 111.523C66.3112 108.806 62.6356 105.024 59.6525 100.07C57.3086 96.1814 54.5919 92.5058 51.5555 89.1498C47.3472 84.5686 42.2867 75.353 44.7903 59.0526C48.8388 32.5244 75.1006 29.4881 90.602 32.4179C106.103 35.3477 114.147 44.1904 116.757 56.0162Z" fill="#FDEDE1"/>
<path d="M65.7784 76.8448C65.7784 76.8448 64.1271 68.8544 56.3497 69.8133C49.6378 70.6656 47.2939 86.7529 62.529 91.2276" fill="#FDEDE1"/>
<path d="M62.0496 83.9294C62.0496 83.9294 60.1319 82.7042 60.345 80.5734C60.6646 78.0697 60.345 76.5249 59.1731 76.0455C56.2433 74.8203 55.6573 78.2295 55.7638 78.6557" stroke="#423232" stroke-width="1.65692" stroke-miterlimit="10" stroke-linecap="round" stroke-linejoin="round"/>
<path d="M102.694 89.0967C102.694 89.0967 104.718 89.2032 106.636 86.9127C107.701 85.6342 108.607 84.0361 108.021 83.5567C107.435 83.024 97.7933 84.5155 97.1541 85.794C96.5149 87.0725 100.244 89.0967 102.694 89.0967Z" fill="#EFBDA5"/>
<path d="M104.292 71.1978C104.292 71.1978 104.399 76.2583 107.648 81.9049C109.087 84.4086 106.902 88.5103 102.161 89.2028" stroke="#423232" stroke-width="1.65692" stroke-miterlimit="10" stroke-linecap="round" stroke-linejoin="round"/>
<path opacity="0.42" d="M75.4202 91.8131C78.4505 91.8131 80.907 89.7859 80.907 87.2852C80.907 84.7845 78.4505 82.7573 75.4202 82.7573C72.39 82.7573 69.9335 84.7845 69.9335 87.2852C69.9335 89.7859 72.39 91.8131 75.4202 91.8131Z" fill="#F0ACB8"/>
<path opacity="0.42" d="M114.733 82.8638C114.573 85.8469 114.626 88.7767 114.413 91.7065C112.069 91.1738 110.365 89.4159 110.365 87.3384C110.365 85.1011 112.229 83.2899 114.733 82.8638Z" fill="#F0ACB8"/>
<path d="M47.3389 111.2C47.3389 111.2 55.1162 108.111 56.5545 108.004L56.661 109.229C56.661 109.229 50.4818 111.893 50.1089 112.319C49.7893 112.692 47.3389 111.2 47.3389 111.2Z" fill="#7E5D6D"/>
<path d="M143.277 181.356H8.61182C8.61182 181.356 9.41086 156.639 17.5078 139.007C23.6338 125.69 38.3361 116.9 49.0433 113.065C52.0796 111.999 54.4235 110.827 56.6075 110.241C56.6075 110.508 56.7674 112.479 56.7674 112.692C56.7674 112.692 65.1839 120.949 84.1478 121.961C92.9373 122.44 93.7896 116.953 93.7896 116.953C94.8017 116.74 95.7606 116.474 96.7194 116.154C97.039 116.048 99.2763 115.142 99.5427 115.036C106.414 116.847 114.831 121.961 127.03 132.188C140.826 143.854 143.277 181.356 143.277 181.356Z" fill="#69D69D"/>
<path d="M117.335 126.116C120.777 126.116 123.567 123.326 123.567 119.883C123.567 116.441 120.777 113.651 117.335 113.651C113.893 113.651 111.102 116.441 111.102 119.883C111.102 123.326 113.893 126.116 117.335 126.116Z" fill="#FFFF8D"/>
<path d="M34.9804 180.291L32.5833 160.581" stroke="#544D4D" stroke-width="1.65692" stroke-miterlimit="10" stroke-linecap="round" stroke-linejoin="round"/>
<path d="M127.989 153.816C127.989 153.816 126.391 157.705 126.87 161.593C127.35 165.482 128.735 171.182 126.764 180.291" stroke="#544D4D" stroke-width="1.65692" stroke-miterlimit="10" stroke-linecap="round" stroke-linejoin="round"/>
<path d="M47.3388 111.2C48.3509 110.881 50.1088 111.2 50.6415 112.106C52.719 115.515 81.3247 120.629 83.4022 140.392C85.0535 155.84 81.9639 188.494 81.9639 188.494L7.22693 186.044C7.22693 186.044 8.77174 159.782 13.2996 142.15C17.721 125.05 29.3337 117.38 47.3388 111.2Z" fill="#5889BA"/>
<path d="M95.5476 140.339C95.5476 140.339 98.8503 157.438 98.2644 186.683H148.071C148.071 186.683 147.911 153.869 139.921 136.024C131.931 118.232 103.964 113.012 103.964 113.012C103.964 113.012 96.8793 139.859 95.5476 140.339Z" fill="#5889BA"/>
<path d="M100.875 116.048L99.5963 115.675C99.5963 115.675 101.461 114.77 102.26 114.237L102.739 113.97C102.739 113.97 105.296 115.142 106.202 115.569C107.107 115.995 103.059 117.966 103.059 117.966C103.059 117.966 101.035 116.048 100.875 116.048Z" fill="#7E5D6D"/>
<path d="M83.4022 140.339C83.4022 140.339 74.8258 133.254 55.5956 129.419C38.8157 126.063 21.4499 127.661 22.9414 123.186C27.6291 109.176 55.8086 100.919 55.8086 101.026C55.8086 101.079 55.8086 101.079 55.8086 101.132C56.5544 107.685 61.5617 112.319 67.7943 114.503C72.3754 116.101 78.3949 116.794 80.5789 117.06C82.6564 117.273 83.3489 132.774 83.4022 140.339Z" fill="white"/>
<path d="M83.4022 140.339C82.2835 139.593 81.1116 138.954 79.9397 138.315C79.3537 137.995 78.7677 137.729 78.1285 137.409C77.5425 137.143 76.9033 136.823 76.3173 136.557C73.867 135.491 71.3633 134.532 68.8596 133.68C68.2204 133.467 67.5812 133.254 66.9419 133.094L65.0242 132.508L63.1065 131.976C62.4673 131.816 61.8281 131.603 61.1888 131.496L59.2711 131.017C58.6319 130.857 57.9927 130.75 57.3002 130.591C56.0217 130.324 54.69 130.058 53.3582 129.845C50.748 129.365 48.0846 128.992 45.4211 128.673C42.7576 128.353 40.0942 128.087 37.4307 127.767C34.7672 127.501 32.1037 127.235 29.387 126.808C28.0553 126.595 26.7235 126.329 25.3918 125.903C24.7526 125.69 24.1133 125.423 23.5274 124.997C23.3676 124.891 23.261 124.731 23.1545 124.624C23.0479 124.465 22.9414 124.358 22.8881 124.145C22.7283 123.825 22.8349 123.452 22.9414 123.133C22.8881 123.452 22.8349 123.825 22.9947 124.092C23.0479 124.251 23.2078 124.358 23.261 124.465C23.3676 124.571 23.5274 124.678 23.6339 124.731C24.1666 125.051 24.8058 125.264 25.4983 125.37C26.7768 125.636 28.1085 125.796 29.4403 125.903C32.1037 126.116 34.7672 126.222 37.4839 126.436C40.1474 126.595 42.8642 126.808 45.5276 127.075C48.1911 127.341 50.9078 127.714 53.5713 128.14C58.8982 129.152 64.1719 130.431 69.2325 132.402C70.511 132.881 71.7362 133.414 72.9614 133.947L74.7725 134.799C75.3585 135.118 75.9977 135.438 76.5837 135.704C77.1697 136.024 77.7556 136.344 78.3416 136.717C78.9275 137.089 79.5135 137.409 80.0462 137.782C81.3247 138.687 82.3901 139.487 83.4022 140.339Z" fill="#446F93"/>
<path d="M135.66 127.235C134.807 122.281 111.901 105.714 109.344 106.14C108.226 107.631 106.894 109.07 105.243 110.455C103.591 111.893 101.674 113.118 99.6494 114.077C96.6664 115.142 94.6421 115.995 91.2861 116.421C90.7535 116.474 90.4338 117.007 90.5936 117.486C93.0973 124.252 94.216 133.467 95.5477 140.392C101.887 134.16 109.025 131.39 115.524 130.111C126.87 127.821 136.192 130.271 135.66 127.235Z" fill="white"/>
<path d="M95.5476 140.339C97.9447 137.569 100.821 135.172 104.071 133.361C105.669 132.455 107.373 131.656 109.131 131.017C110.889 130.377 112.7 129.845 114.512 129.472C116.323 129.099 118.187 128.833 119.998 128.62C121.863 128.46 123.674 128.353 125.538 128.407C127.403 128.407 129.214 128.513 131.025 128.566C131.931 128.62 132.836 128.62 133.742 128.566C134.168 128.513 134.647 128.46 135.02 128.3C135.233 128.247 135.393 128.087 135.5 127.927C135.606 127.767 135.659 127.501 135.659 127.288C135.713 127.501 135.766 127.767 135.606 127.98C135.5 128.193 135.34 128.407 135.127 128.513C134.701 128.779 134.221 128.886 133.795 128.992C132.889 129.206 131.931 129.259 131.025 129.365C129.214 129.472 127.349 129.578 125.538 129.685C123.727 129.792 121.916 129.951 120.105 130.164C118.294 130.377 116.536 130.644 114.778 131.07C111.262 131.816 107.853 132.934 104.603 134.532C101.407 136.024 98.3709 138.048 95.5476 140.339Z" fill="#446F93"/>
<path d="M77.4893 150.087C79.8135 150.087 81.6976 148.203 81.6976 145.879C81.6976 143.555 79.8135 141.67 77.4893 141.67C75.1651 141.67 73.281 143.555 73.281 145.879C73.281 148.203 75.1651 150.087 77.4893 150.087Z" fill="white"/>
<path d="M50.7481 163.138C56.2202 163.138 60.6562 158.702 60.6562 153.23C60.6562 147.758 56.2202 143.322 50.7481 143.322C45.276 143.322 40.84 147.758 40.84 153.23C40.84 158.702 45.276 163.138 50.7481 163.138Z" fill="#446F93"/>
<path d="M122.715 163.138C128.187 163.138 132.623 158.702 132.623 153.23C132.623 147.758 128.187 143.322 122.715 143.322C117.243 143.322 112.807 147.758 112.807 153.23C112.807 158.702 117.243 163.138 122.715 163.138Z" fill="#446F93"/>
<path d="M102.792 149.501C104.999 149.501 106.787 147.712 106.787 145.506C106.787 143.299 104.999 141.511 102.792 141.511C100.586 141.511 98.797 143.299 98.797 145.506C98.797 147.712 100.586 149.501 102.792 149.501Z" fill="white"/>
<path d="M83.2957 134.479C83.0827 134.319 82.8696 134.159 82.6565 133.999" stroke="#C3CAD1" stroke-width="1.65692" stroke-linecap="round" stroke-linejoin="round"/>
<path d="M78.3417 131.123C74.0802 128.779 69.3392 127.288 63.7459 125.743C50.8547 122.12 42.0653 123.292 30.932 119.936C30.346 119.777 29.6535 119.563 29.0143 119.297" stroke="#C3CAD1" stroke-width="1.65692" stroke-linecap="round" stroke-linejoin="round" stroke-dasharray="1.6 1.6"/>
<path d="M26.99 117.752C26.8835 117.539 26.8302 117.273 26.8302 117.006" stroke="#C3CAD1" stroke-width="1.65692" stroke-linecap="round" stroke-linejoin="round"/>
<path d="M80.2593 116.953C82.4433 117.113 87.3441 117.273 92.2981 116.847C92.8308 116.794 93.3103 117.166 93.3635 117.699L93.7897 120.469C93.8962 121.002 93.5233 121.535 92.9374 121.588C90.7001 121.907 85.16 122.547 80.3658 121.694C79.9396 121.641 79.62 121.268 79.5667 120.842L79.1939 118.072C79.1406 117.486 79.62 116.953 80.2593 116.953Z" fill="white"/>
<path d="M81.0584 124.358C83.2424 124.518 88.1432 124.678 93.0973 124.251C93.63 124.198 94.1094 124.571 94.1627 125.104L94.5888 127.874C94.6954 128.406 94.3225 128.939 93.7365 128.992C91.4992 129.312 85.9592 129.951 81.1649 129.099C80.7388 129.046 80.4192 128.673 80.3659 128.247L79.993 125.477C79.8865 124.837 80.4192 124.305 81.0584 124.358Z" fill="white"/>
<path d="M94.6421 135.225C94.6421 135.225 94.8552 135.012 95.2281 134.692" stroke="#C3CAD1" stroke-width="1.65692" stroke-linecap="round" stroke-linejoin="round"/>
<path d="M99.5961 131.656C102.313 130.057 106.148 128.14 111.209 126.542C119.199 124.038 126.124 124.198 130.173 124.198" stroke="#C3CAD1" stroke-width="1.65692" stroke-linecap="round" stroke-linejoin="round" stroke-dasharray="1.66 1.66"/>
<path d="M132.89 124.145C133.209 124.091 133.475 124.038 133.689 123.985" stroke="#C3CAD1" stroke-width="1.65692" stroke-linecap="round" stroke-linejoin="round"/>
<path d="M79.7799 143.482C83.6686 144.174 91.1263 144.973 100.555 143.322C102.047 143.056 103.432 144.121 103.538 145.612V145.879C103.645 147.157 102.792 148.329 101.567 148.596C97.785 149.501 89.3152 150.78 78.7145 148.489C77.5426 148.223 76.6903 147.157 76.6903 145.985C76.7436 144.387 78.2351 143.162 79.7799 143.482Z" fill="#C3CAD1"/>
<path d="M93.63 120.682C94.3949 120.682 95.015 120.062 95.015 119.297C95.015 118.532 94.3949 117.912 93.63 117.912C92.8651 117.912 92.245 118.532 92.245 119.297C92.245 120.062 92.8651 120.682 93.63 120.682Z" fill="#C3CAD1"/>
<path d="M95.5476 127.607C96.3125 127.607 96.9326 126.987 96.9326 126.222C96.9326 125.457 96.3125 124.837 95.5476 124.837C94.7827 124.837 94.1626 125.457 94.1626 126.222C94.1626 126.987 94.7827 127.607 95.5476 127.607Z" fill="#C3CAD1"/>
<path d="M84.9717 76.5466C83.6933 76.4933 82.7344 75.4279 82.841 74.1494L82.8942 72.6579C82.9475 71.3794 84.0129 70.4206 85.2914 70.5271C86.5698 70.5804 87.5287 71.6458 87.4221 72.9243L87.3689 74.4158C87.3156 75.641 86.2502 76.5998 84.9717 76.5466Z" fill="#423232"/>
<path d="M107.398 77.3456C106.226 77.2923 105.321 76.2802 105.374 75.1082L105.427 73.7233C105.48 72.5513 106.493 71.6457 107.665 71.699C108.836 71.7523 109.742 72.7644 109.689 73.9363L109.635 75.3213C109.582 76.4933 108.57 77.3988 107.398 77.3456Z" fill="#423232"/>
<path d="M90.139 73.457C90.139 73.457 88.754 71.486 86.3568 71.1131C84.3859 70.7935 82.2018 71.7523 81.8822 72.871" stroke="#423232" stroke-width="1.65692" stroke-miterlimit="10" stroke-linecap="round" stroke-linejoin="round"/>
<path d="M105.853 73.9366C105.853 73.9366 105.853 72.2319 108.304 72.2319C110.328 72.2319 111.18 74.0964 111.18 74.0964" stroke="#423232" stroke-width="1.65692" stroke-miterlimit="10" stroke-linecap="round" stroke-linejoin="round"/>
<path d="M92.3229 64.8806C93.4416 65.2535 94.5602 64.2413 94.3471 63.0162C94.2406 62.3769 93.9743 61.7377 93.4416 61.2583C91.8435 59.82 85.2381 58.5415 81.2429 60.406C77.7271 62.1106 87.209 63.176 92.3229 64.8806Z" fill="#423232"/>
<path d="M108.25 65.7331C107.345 66.0527 106.386 65.0938 106.546 63.9752C106.599 63.3892 106.812 62.8033 107.238 62.3771C108.517 61.0986 112.885 60.0865 115.655 62.0575C118.052 63.7088 112.405 64.1883 108.25 65.7331Z" fill="#423232"/>
<path d="M98.9398 95.2665C95.7917 97.1443 90.2134 95.1008 87.6176 91.9526" stroke="#423232" stroke-width="1.65692" stroke-miterlimit="10" stroke-linecap="round" stroke-linejoin="round"/>
<path d="M120.655 43.1572C116.873 56.8474 105.9 54.5568 95.6185 50.8279C81.9283 45.8206 69.8894 49.8691 69.8362 62.2276C69.7296 80.3392 65.2017 74.8524 64.7223 74.1599C63.5504 71.9226 61.0467 69.1526 56.3057 69.7386C50.0732 70.5376 47.6228 84.2811 59.2355 89.9277C61.2598 100.209 55.7198 99.2498 55.7198 99.2498C53.8553 91.6856 38.1941 75.5982 38.1409 64.9976C38.1409 50.7214 45.3322 46.6729 45.3322 46.6729C45.5453 36.7116 55.9328 25.7381 73.4052 26.1109C90.8776 26.4306 101.585 25.9511 104.994 21.8494C108.403 17.6411 124.437 29.4669 120.655 43.1572Z" fill="#6F4E28"/>
<path d="M121.082 59.6173C120.549 63.0798 119.057 65.7433 116.98 67.7142C117.779 61.9079 117.353 59.1378 116.66 55.8884C115.169 49.2297 111.972 43.4766 106.646 39.2151C109.309 39.002 112.026 39.588 114.476 41.1328C114.476 41.0795 123.266 44.6486 121.082 59.6173Z" fill="#6F4E28"/>
</g>
<defs>
<filter id="filter0_i_1198_50907" x="0.884888" y="0.398926" width="159.808" height="159.808" filterUnits="userSpaceOnUse" color-interpolation-filters="sRGB">
<feFlood flood-opacity="0" result="BackgroundImageFix"/>
<feBlend mode="normal" in="SourceGraphic" in2="BackgroundImageFix" result="shape"/>
<feColorMatrix in="SourceAlpha" type="matrix" values="0 0 0 0 0 0 0 0 0 0 0 0 0 0 0 0 0 0 127 0" result="hardAlpha"/>
<feOffset/>
<feGaussianBlur stdDeviation="1.65692"/>
<feComposite in2="hardAlpha" operator="arithmetic" k2="-1" k3="1"/>
<feColorMatrix type="matrix" values="0 0 0 0 0 0 0 0 0 0 0 0 0 0 0 0 0 0 0.25 0"/>
<feBlend mode="normal" in2="shape" result="effect1_innerShadow_1198_50907"/>
</filter>
<filter id="filter1_d_1198_50907" x="-3.11511" y="0.398926" width="167.808" height="167.808" filterUnits="userSpaceOnUse" color-interpolation-filters="sRGB">
<feFlood flood-opacity="0" result="BackgroundImageFix"/>
<feColorMatrix in="SourceAlpha" type="matrix" values="0 0 0 0 0 0 0 0 0 0 0 0 0 0 0 0 0 0 127 0" result="hardAlpha"/>
<feOffset dy="4"/>
<feGaussianBlur stdDeviation="2"/>
<feComposite in2="hardAlpha" operator="out"/>
<feColorMatrix type="matrix" values="0 0 0 0 0 0 0 0 0 0 0 0 0 0 0 0 0 0 0.25 0"/>
<feBlend mode="normal" in2="BackgroundImageFix" result="effect1_dropShadow_1198_50907"/>
<feBlend mode="normal" in="SourceGraphic" in2="effect1_dropShadow_1198_50907" result="shape"/>
</filter>
</defs>
</svg>
