<svg width="161" height="160" viewBox="0 0 161 160" fill="none" xmlns="http://www.w3.org/2000/svg">
<mask id="mask0_1198_50897" style="mask-type:alpha" maskUnits="userSpaceOnUse" x="0" y="0" width="161" height="160">
<path d="M80.6072 159.808C36.4399 159.808 0.703125 124.018 0.703125 79.9041C0.703125 35.7368 36.493 0 80.6072 0C124.775 0 160.511 35.7898 160.511 79.9041C160.564 124.071 124.775 159.808 80.6072 159.808Z" fill="#F7C0B5"/>
</mask>
<g mask="url(#mask0_1198_50897)">
<g filter="url(#filter0_i_1198_50897)">
<g filter="url(#filter1_d_1198_50897)">
<path d="M80.5994 159.808C36.4321 159.808 0.695312 124.018 0.695312 79.9041C0.695312 35.7368 36.4851 0 80.5994 0C124.767 0 160.504 35.7898 160.504 79.9041C160.557 124.071 124.767 159.808 80.5994 159.808Z" fill="white"/>
</g>
</g>
<path d="M125.57 147.187C125.197 147.454 124.771 147.72 124.398 147.987C123.972 148.253 123.599 148.519 123.173 148.732C122.8 148.945 122.481 149.158 122.108 149.372C122.054 149.425 122.001 149.425 121.948 149.478C120.723 150.224 119.444 150.916 118.166 151.556C117.793 151.769 117.367 151.982 116.994 152.142C116.994 152.142 116.941 152.195 116.887 152.195C116.461 152.408 116.035 152.621 115.609 152.834C114.756 153.26 113.851 153.633 112.999 154.006C112.572 154.219 112.093 154.379 111.667 154.539C111.241 154.698 110.761 154.912 110.335 155.071C109.909 155.231 109.43 155.444 109.003 155.604C109.003 155.604 109.003 155.604 108.95 155.604C108.524 155.764 108.045 155.924 107.618 156.083C106.66 156.403 105.647 156.723 104.689 157.042C104.369 157.149 103.996 157.255 103.676 157.362C102.664 157.682 101.652 157.948 100.64 158.161C100.267 158.268 99.8943 158.321 99.4681 158.427C98.5093 158.64 97.4972 158.853 96.5383 159.067C96.3252 159.12 96.1654 159.12 95.9524 159.173C95.6328 159.226 95.2599 159.28 94.9402 159.333C94.4608 159.386 94.0347 159.493 93.5552 159.546C93.3422 159.599 93.1291 159.599 92.916 159.653C92.6497 159.706 92.33 159.759 92.0104 159.759C91.1581 159.866 90.2525 159.972 89.4002 160.079C89.1339 160.132 88.8143 160.132 88.5479 160.185H88.4947C88.1218 160.238 87.7489 160.238 87.376 160.292C87.0031 160.345 86.6302 160.345 86.2573 160.345C86.0443 160.345 85.7779 160.398 85.5648 160.398C85.1387 160.398 84.7658 160.452 84.3929 160.452C83.8602 160.452 83.3808 160.505 82.8481 160.505C82.3154 160.505 81.836 160.505 81.3033 160.505C80.9304 160.505 80.5575 160.505 80.1846 160.505C57.7582 160.185 37.5158 150.65 23.1331 135.521C23.1331 135.521 23.1331 135.468 23.0798 135.468C24.7312 132.219 30.8572 126.359 37.2495 121.512C45.3464 115.386 56.7994 111.604 56.7994 111.604C56.7994 111.604 64.3103 110.378 92.1702 116.185C113.425 120.659 122.481 138.824 125.57 147.187Z" fill="#FDEDE1"/>
<path d="M98.0831 130.94C96.9645 136.427 89.7198 139.676 77.5211 134.776C62.5524 128.703 56.7993 111.603 56.7993 111.603C56.0003 99.3514 54.1359 88.8574 54.1359 88.8574C71.4484 87.3658 91.9039 107.608 91.9039 107.608L94.2477 117.623C94.4608 118.475 94.8869 119.221 95.5262 119.754C96.6448 121.671 98.8289 127.424 98.0831 130.94Z" fill="#FDEDE1"/>
<path d="M95.5262 119.807C85.3518 119.274 77.8408 117.783 69.7971 103.347C76.6156 109.366 84.6593 111.657 93.1291 112.722L94.2478 117.623C94.4609 118.528 94.887 119.274 95.5262 119.807Z" fill="#EFBDA5"/>
<path d="M116.568 55.6173C117.527 60.0919 118.006 63.7142 115.396 75.6466C112.786 87.5789 117.793 99.5113 105.221 110.432C96.7515 117.783 81.9426 119.168 70.1168 111.124C66.1216 108.407 62.446 104.625 59.4629 99.6711C57.119 95.7824 54.4023 92.1068 51.366 88.7509C47.1577 84.1697 42.0971 74.9541 44.6007 58.6537C48.6492 32.1255 74.911 29.0891 90.4124 32.019C105.914 34.9488 113.957 43.7915 116.568 55.6173Z" fill="#FDEDE1"/>
<path d="M65.5889 76.4459C65.5889 76.4459 63.9375 68.4555 56.1602 69.4143C49.4482 70.2667 47.1044 86.354 62.3394 90.8286" fill="#FDEDE1"/>
<path d="M61.86 83.5304C61.86 83.5304 59.9423 82.3052 60.1554 80.1745C60.475 77.6708 60.1554 76.126 58.9835 75.6466C56.0537 74.4214 55.4677 77.8306 55.5743 78.2568" stroke="#423232" stroke-width="1.65692" stroke-miterlimit="10" stroke-linecap="round" stroke-linejoin="round"/>
<path d="M102.505 88.6978C102.505 88.6978 104.529 88.8043 106.446 86.5137C107.512 85.2353 108.417 83.6372 107.831 83.1578C107.246 82.6251 97.6037 84.1166 96.9645 85.3951C96.3253 86.6735 100.054 88.6978 102.505 88.6978Z" fill="#EFBDA5"/>
<path d="M104.103 70.7988C104.103 70.7988 104.209 75.8594 107.459 81.506C108.897 84.0096 106.713 88.1114 101.972 88.8039" stroke="#423232" stroke-width="1.65692" stroke-miterlimit="10" stroke-linecap="round" stroke-linejoin="round"/>
<path opacity="0.42" d="M75.2306 91.4142C78.2609 91.4142 80.7174 89.387 80.7174 86.8863C80.7174 84.3856 78.2609 82.3584 75.2306 82.3584C72.2004 82.3584 69.7439 84.3856 69.7439 86.8863C69.7439 89.387 72.2004 91.4142 75.2306 91.4142Z" fill="#F0ACB8"/>
<path opacity="0.42" d="M114.543 82.4648C114.384 85.4479 114.437 88.3777 114.224 91.3076C111.88 90.7749 110.175 89.017 110.175 86.9395C110.175 84.7022 112.04 82.891 114.543 82.4648Z" fill="#F0ACB8"/>
<path d="M143.172 180.152H8.50708C8.50708 180.152 9.30612 155.435 17.4031 137.802C23.529 124.485 37.9651 117.081 48.7255 113.245C51.7618 112.18 54.5318 111.381 56.6626 110.795C56.6626 111.061 56.7159 111.274 56.7159 111.541C56.7159 111.541 62.469 128.64 77.4377 134.713C89.6364 139.667 96.881 136.364 97.9997 130.877C98.6922 127.362 96.5081 121.609 95.3895 119.744C94.7502 119.211 94.3241 118.412 94.111 117.613L93.6848 115.856C94.697 115.642 95.6558 115.376 96.6147 115.056C96.9343 114.95 97.2006 114.843 97.5202 114.737C104.392 116.548 114.726 120.863 126.925 131.091C140.722 142.597 143.172 180.152 143.172 180.152Z" fill="#354389"/>
<path d="M72.8032 140.253C54.4252 131.996 47.2871 117.241 48.6721 113.245C48.6721 113.245 48.6721 113.192 48.7254 113.139C49.6843 111.168 51.2291 109.57 53.1468 108.451C54.2122 107.812 55.3841 107.226 56.3429 106.906C56.3962 107.652 56.6093 109.996 56.6625 110.795C56.6625 111.061 56.7158 111.274 56.7158 111.541C56.7158 111.541 60.1251 124.272 75.0938 130.345C87.2924 135.299 94.8567 132.049 95.6557 126.509C96.5613 120.383 93.0988 115.962 93.0988 115.962C94.1109 115.749 95.709 115.376 96.6679 115.056C99.0117 117.88 101.409 120.703 102.314 128.161C103.593 138.868 91.8203 148.829 72.8032 140.253Z" fill="white"/>
<path d="M34.8754 180.152L32.4783 160.389" stroke="#6987C0" stroke-width="1.65692" stroke-miterlimit="10" stroke-linecap="round" stroke-linejoin="round"/>
<path d="M127.884 153.677C127.884 153.677 126.286 157.565 126.765 161.454C127.245 165.343 128.63 171.043 126.659 180.152" stroke="#6987C0" stroke-width="1.65692" stroke-miterlimit="10" stroke-linecap="round" stroke-linejoin="round"/>
<path d="M84.7822 76.1476C83.5037 76.0944 82.5449 75.029 82.6514 73.7505L82.7047 72.259C82.7579 70.9805 83.8233 70.0217 85.1018 70.1282C86.3803 70.1815 87.3391 71.2469 87.2326 72.5253L87.1793 74.0169C87.126 75.2421 86.0606 76.2009 84.7822 76.1476Z" fill="#423232"/>
<path d="M107.209 76.9466C106.037 76.8934 105.131 75.8813 105.184 74.7093L105.238 73.3243C105.291 72.1524 106.303 71.2468 107.475 71.3001C108.647 71.3534 109.552 72.3655 109.499 73.5374L109.446 74.9224C109.393 76.0943 108.381 76.9999 107.209 76.9466Z" fill="#423232"/>
<path d="M89.9494 73.058C89.9494 73.058 88.5644 71.0871 86.1673 70.7142C84.1963 70.3946 82.0122 71.3534 81.6926 72.4721" stroke="#423232" stroke-width="1.65692" stroke-miterlimit="10" stroke-linecap="round" stroke-linejoin="round"/>
<path d="M105.664 73.5376C105.664 73.5376 105.664 71.833 108.114 71.833C110.138 71.833 110.991 73.6974 110.991 73.6974" stroke="#423232" stroke-width="1.65692" stroke-miterlimit="10" stroke-linecap="round" stroke-linejoin="round"/>
<path d="M92.1333 64.4817C93.252 64.8545 94.3706 63.8424 94.1576 62.6172C94.051 61.978 93.7847 61.3388 93.252 60.8593C91.6539 59.4211 85.0485 58.1426 81.0533 60.007C77.5375 61.7116 87.0195 62.777 92.1333 64.4817Z" fill="#423232"/>
<path d="M108.061 65.3342C107.155 65.6538 106.196 64.6949 106.356 63.5763C106.409 62.9903 106.622 62.4043 107.049 61.9782C108.327 60.6997 112.695 59.6876 115.465 61.6586C117.862 63.3099 112.216 63.7893 108.061 65.3342Z" fill="#423232"/>
<path d="M101.125 95.2539C99.7444 95.8615 99.0816 94.6464 96.9276 95.6958C95.3812 96.4138 94.5527 96.6347 92.6749 95.5301C91.4598 94.7569 89.9686 95.8615 88.5326 93.7627" stroke="#423232" stroke-width="1.65692" stroke-miterlimit="10" stroke-linecap="round" stroke-linejoin="round"/>
<path d="M123.155 38.7331C123.155 30.9025 116.816 24.5635 108.986 24.5635C102.007 24.5635 96.2009 29.6241 95.0289 36.2295C96.4672 36.7089 97.8522 37.3481 99.1307 38.2537C98.6512 39.2126 100.09 39.2126 99.6101 40.1714C105.363 42.8349 109.465 47.1497 113.087 52.3168C118.894 50.5589 123.155 45.1255 123.155 38.7331Z" fill="#423232"/>
<path d="M116.337 70.4821C117.775 62.3852 117.349 59.189 116.497 55.4069C116.23 54.235 115.911 53.1163 115.538 51.9976C112.714 49.7603 109.731 48.3221 105.203 47.6828C93.0048 46.0315 83.363 47.1501 73.082 49.3874C66.6364 50.7724 67.9682 73.0391 65.4645 75.9689C65.0383 74.4773 62.9608 68.4046 56.1423 69.2569C49.6967 70.056 47.2464 84.9714 60.5637 90.0853C60.4572 93.0151 57.7404 98.4486 55.5564 99.6738C55.5564 99.6738 55.1835 95.7851 50.9219 90.6712C46.6604 85.5574 38.1373 72.2933 43.8904 52.9032C49.6435 33.5132 75.6922 23.392 99.9298 33.2468C104.085 34.9514 107.494 37.3486 110.211 39.8522C116.603 45.7119 120.012 54.235 119 62.8113C118.734 65.6879 117.935 68.4579 116.337 70.4821Z" fill="#423232"/>
<path d="M46.0744 56.099C54.7827 56.099 61.8421 49.0395 61.8421 40.3312C61.8421 31.6229 54.7827 24.5635 46.0744 24.5635C37.3661 24.5635 30.3066 31.6229 30.3066 40.3312C30.3066 49.0395 37.3661 56.099 46.0744 56.099Z" fill="#423232"/>
<path d="M120.172 71.7604C118.681 71.1212 116.443 70.5885 113.833 70.2156C114.206 66.0073 113.3 62.8112 113.3 62.8112C113.194 64.9952 112.608 68.6175 112.395 70.0025C108.666 69.5764 104.458 69.31 100.835 69.2035C100.622 66.0073 99.9298 62.2785 99.9298 62.2785C99.9298 63.8233 99.6635 67.2858 99.4504 69.1502C98.5448 69.1502 97.6392 69.0969 96.8402 69.0969C96.3075 69.0969 95.8281 69.0969 95.2954 69.0969C94.8159 65.1017 93.6973 60.3608 93.6973 60.3608C93.8038 62.4383 93.4309 66.8596 93.2711 69.0969C80.0603 69.2035 68.2878 70.5352 68.2878 70.5352L67.1158 49.3873C72.1764 38.6801 113.141 33.8859 117.189 42.3024C124.54 57.4309 120.172 71.7604 120.172 71.7604Z" fill="#423232"/>
<path d="M120.172 71.7603C120.172 71.7603 117.988 72.9855 115.911 72.7191C115.911 72.7191 116.23 71.0678 116.284 70.6416C116.337 70.6416 119.373 71.2276 120.172 71.7603Z" fill="#423232"/>
<path opacity="0.6" d="M107.049 83.2549C107.049 83.2549 107.689 86.8772 111.897 88.6884C112.962 89.1145 114.081 88.422 114.081 87.2501C114.028 87.2501 107.316 83.681 107.049 83.2549Z" fill="#B7AEA9"/>
<path opacity="0.6" d="M96.9282 74.5189C96.9282 74.5189 100.337 71.1097 102.042 70.7368L97.5142 71.8022L96.9282 74.5189Z" fill="#B7AEA9"/>
<path opacity="0.6" d="M74.1823 83.2551C74.1823 83.2551 76.1532 87.7298 82.0661 88.7951C87.979 89.9138 93.3592 85.6523 95.8629 78.5142C95.8629 78.5142 93.8387 85.1196 85.7417 86.3448C77.698 87.6765 74.1823 83.2551 74.1823 83.2551Z" fill="#B7AEA9"/>
<path opacity="0.29" d="M83.7175 59.3369C76.2065 59.3369 70.0805 65.6227 70.0272 73.2935C70.0272 76.9158 71.359 80.2185 73.543 82.6156L92.8798 63.0658C90.4827 60.7219 87.2865 59.3369 83.7175 59.3369Z" fill="#DBC3ED"/>
<path opacity="0.23" d="M92.8798 63.0659L73.543 82.6158C75.9934 85.3325 79.4559 86.9839 83.2913 86.9839C90.6957 86.9839 96.7684 80.8579 96.9815 73.2404C97.088 69.2452 95.49 65.6228 92.8798 63.0659Z" fill="#C4ADD8"/>
<path opacity="0.29" d="M114.88 59.3369C109.18 59.3369 104.386 65.6227 104.173 73.2935C104.066 76.3831 104.759 79.2064 105.931 81.497L122.817 64.7704C121.059 61.4677 118.183 59.3369 114.88 59.3369Z" fill="#DBC3ED"/>
<path opacity="0.23" d="M122.817 64.7173L105.931 81.4439C107.689 84.7999 110.565 86.9839 113.921 86.9839C119.514 86.9839 124.309 80.8579 124.628 73.2404C124.735 70.0975 124.042 67.1144 122.817 64.7173Z" fill="#C4ADD8"/>
<path d="M96.9815 73.2935C96.8216 80.911 90.6957 87.037 83.2912 87.037C75.8868 87.037 69.9739 80.911 69.9739 73.2935C70.0271 65.6227 76.1531 59.3369 83.6641 59.3369C91.1751 59.3369 97.1945 65.6227 96.9815 73.2935Z" stroke="#4EC2DD" stroke-width="1.65692" stroke-miterlimit="10" stroke-linecap="round" stroke-linejoin="round"/>
<path d="M124.628 73.2935C124.309 80.911 119.514 87.037 113.921 87.037C108.328 87.037 103.96 80.911 104.173 73.2935C104.386 65.6227 109.18 59.3369 114.88 59.3369C120.58 59.3369 124.948 65.6227 124.628 73.2935Z" stroke="#4EC2DD" stroke-width="1.65692" stroke-miterlimit="10" stroke-linecap="round" stroke-linejoin="round"/>
<path d="M70.1337 71.8018H62.5695" stroke="#4EC2DD" stroke-width="1.65692" stroke-miterlimit="10" stroke-linecap="round" stroke-linejoin="round"/>
<path d="M97.0348 71.802C97.0348 71.802 103.374 69.3516 104.173 71.802" stroke="#4EC2DD" stroke-width="1.65692" stroke-miterlimit="10" stroke-linecap="round" stroke-linejoin="round"/>
</g>
<defs>
<filter id="filter0_i_1198_50897" x="0.695312" y="0" width="159.808" height="159.808" filterUnits="userSpaceOnUse" color-interpolation-filters="sRGB">
<feFlood flood-opacity="0" result="BackgroundImageFix"/>
<feBlend mode="normal" in="SourceGraphic" in2="BackgroundImageFix" result="shape"/>
<feColorMatrix in="SourceAlpha" type="matrix" values="0 0 0 0 0 0 0 0 0 0 0 0 0 0 0 0 0 0 127 0" result="hardAlpha"/>
<feOffset/>
<feGaussianBlur stdDeviation="1.65692"/>
<feComposite in2="hardAlpha" operator="arithmetic" k2="-1" k3="1"/>
<feColorMatrix type="matrix" values="0 0 0 0 0 0 0 0 0 0 0 0 0 0 0 0 0 0 0.25 0"/>
<feBlend mode="normal" in2="shape" result="effect1_innerShadow_1198_50897"/>
</filter>
<filter id="filter1_d_1198_50897" x="-3.30469" y="0" width="167.808" height="167.808" filterUnits="userSpaceOnUse" color-interpolation-filters="sRGB">
<feFlood flood-opacity="0" result="BackgroundImageFix"/>
<feColorMatrix in="SourceAlpha" type="matrix" values="0 0 0 0 0 0 0 0 0 0 0 0 0 0 0 0 0 0 127 0" result="hardAlpha"/>
<feOffset dy="4"/>
<feGaussianBlur stdDeviation="2"/>
<feComposite in2="hardAlpha" operator="out"/>
<feColorMatrix type="matrix" values="0 0 0 0 0 0 0 0 0 0 0 0 0 0 0 0 0 0 0.25 0"/>
<feBlend mode="normal" in2="BackgroundImageFix" result="effect1_dropShadow_1198_50897"/>
<feBlend mode="normal" in="SourceGraphic" in2="effect1_dropShadow_1198_50897" result="shape"/>
</filter>
</defs>
</svg>
