<svg width="161" height="161" viewBox="0 0 161 161" fill="none" xmlns="http://www.w3.org/2000/svg">
<mask id="mask0_1198_50917" style="mask-type:alpha" maskUnits="userSpaceOnUse" x="0" y="0" width="161" height="161">
<path d="M80.1426 160.317C35.9753 160.317 0.238525 124.527 0.238525 80.4124C0.238525 36.2451 36.0284 0.508301 80.1426 0.508301C124.31 0.508301 160.047 36.2981 160.047 80.4124C160.1 124.58 124.31 160.317 80.1426 160.317Z" fill="#F7C0B5"/>
</mask>
<g mask="url(#mask0_1198_50917)">
<g filter="url(#filter0_i_1198_50917)">
<g filter="url(#filter1_d_1198_50917)">
<path d="M80.1463 160.316C35.979 160.316 0.242188 124.526 0.242188 80.4119C0.242188 36.2446 36.032 0.507812 80.1463 0.507812C124.314 0.507812 160.05 36.2976 160.05 80.4119C160.103 124.579 124.314 160.316 80.1463 160.316Z" fill="white"/>
</g>
</g>
<path d="M125.106 147.696C124.733 147.962 124.307 148.228 123.934 148.495C123.507 148.761 123.135 149.028 122.708 149.241C122.336 149.454 122.016 149.667 121.643 149.88C121.59 149.933 121.537 149.933 121.483 149.986C120.258 150.732 118.98 151.425 117.701 152.064C117.328 152.277 116.902 152.49 116.529 152.65C116.529 152.65 116.476 152.703 116.423 152.703C115.997 152.916 115.57 153.129 115.144 153.342C114.292 153.768 113.386 154.141 112.534 154.514C112.108 154.727 111.628 154.887 111.202 155.047C110.776 155.207 110.297 155.42 109.871 155.58C109.444 155.739 108.965 155.953 108.539 156.112C108.539 156.112 108.539 156.112 108.486 156.112C108.059 156.272 107.58 156.432 107.154 156.592C106.195 156.911 105.183 157.231 104.224 157.551C103.904 157.657 103.531 157.764 103.212 157.87C102.2 158.19 101.188 158.456 100.175 158.669C99.8026 158.776 99.4297 158.829 99.0036 158.936C98.0447 159.149 97.0326 159.362 96.0737 159.575C95.8607 159.628 95.7009 159.628 95.4878 159.681C95.1682 159.735 94.7953 159.788 94.4757 159.841C93.9962 159.894 93.5701 160.001 93.0907 160.054C92.8776 160.108 92.6645 160.108 92.4514 160.161C92.1851 160.214 91.8655 160.267 91.5458 160.267C90.6935 160.374 89.788 160.48 88.9356 160.587C88.6693 160.64 88.3497 160.64 88.0833 160.694H88.0301C87.6572 160.747 87.2843 160.747 86.9114 160.8C86.5385 160.853 86.1656 160.853 85.7927 160.853C85.5797 160.853 85.3133 160.907 85.1002 160.907C84.6741 160.907 84.3012 160.96 83.9283 160.96C83.3956 160.96 82.9162 161.013 82.3835 161.013C81.8508 161.013 81.3714 161.013 80.8387 161.013C80.4658 161.013 80.0929 161.013 79.72 161.013C57.2936 160.694 37.0512 151.158 22.6685 136.03C22.6685 136.03 22.6685 135.977 22.6152 135.977C24.2666 132.727 30.3926 126.867 36.7849 122.02C44.8818 115.894 56.3348 112.112 56.3348 112.112C56.3348 112.112 63.8458 110.887 91.7057 116.693C112.96 121.168 122.016 139.332 125.106 147.696Z" fill="#FDEDE1"/>
<path d="M97.6186 131.448C96.5 136.935 89.2553 140.185 77.0567 135.284C62.0879 129.211 56.3349 112.112 56.3349 112.112C55.5358 99.8597 53.6714 89.3657 53.6714 89.3657C70.9839 87.8741 91.4394 108.116 91.4394 108.116L93.7832 118.131C93.9963 118.983 94.4225 119.729 95.0617 120.262C96.1804 122.18 98.3644 127.933 97.6186 131.448Z" fill="#FDEDE1"/>
<path d="M95.0616 120.315C84.8872 119.783 77.3762 118.291 69.3325 103.855C76.151 109.874 84.1947 112.165 92.6645 113.23L93.7832 118.131C93.9963 119.037 94.4224 119.783 95.0616 120.315Z" fill="#EFBDA5"/>
<path d="M116.103 56.1256C117.062 60.6002 117.541 64.2225 114.931 76.1549C112.321 88.0872 117.328 100.02 104.757 110.94C96.2869 118.291 81.478 119.676 69.6522 111.632C65.657 108.916 61.9814 105.133 58.9983 100.179C56.6544 96.2907 53.9377 92.6151 50.9014 89.2592C46.6931 84.678 41.6325 75.4624 44.1361 59.162C48.1846 32.6338 74.4464 29.5974 89.9478 32.5273C105.449 35.4571 113.493 44.2998 116.103 56.1256Z" fill="#FDEDE1"/>
<path d="M65.1243 76.9542C65.1243 76.9542 63.4729 68.9638 55.6956 69.9226C48.9836 70.775 46.6398 86.8623 61.8748 91.3369" fill="#FDEDE1"/>
<path d="M61.3954 84.0387C61.3954 84.0387 59.4777 82.8135 59.6908 80.6828C60.0104 78.1791 59.6908 76.6343 58.5189 76.1549C55.5891 74.9297 55.0031 78.3389 55.1097 78.7651" stroke="#4B4646" stroke-width="1.65692" stroke-miterlimit="10" stroke-linecap="round" stroke-linejoin="round"/>
<path d="M102.04 89.2061C102.04 89.2061 104.064 89.3126 105.982 87.022C107.047 85.7436 107.953 84.1455 107.367 83.6661C106.781 83.1334 97.1391 84.6249 96.4999 85.9034C95.8607 87.1818 99.5895 89.2061 102.04 89.2061Z" fill="#EFBDA5"/>
<path d="M103.638 71.3071C103.638 71.3071 103.745 76.3677 106.994 82.0143C108.432 84.5179 106.248 88.6197 101.507 89.3122" stroke="#4B4646" stroke-width="1.65692" stroke-miterlimit="10" stroke-linecap="round" stroke-linejoin="round"/>
<path opacity="0.42" d="M74.766 91.9225C77.7963 91.9225 80.2528 89.8953 80.2528 87.3946C80.2528 84.8939 77.7963 82.8667 74.766 82.8667C71.7358 82.8667 69.2793 84.8939 69.2793 87.3946C69.2793 89.8953 71.7358 91.9225 74.766 91.9225Z" fill="#F0ACB8"/>
<path opacity="0.42" d="M114.079 82.9731C113.919 85.9562 113.972 88.886 113.759 91.8159C111.415 91.2832 109.711 89.5253 109.711 87.4478C109.711 85.2105 111.575 83.3993 114.079 82.9731Z" fill="#F0ACB8"/>
<path d="M105.395 122.536C106.62 123.388 107.259 124.88 106.886 126.372C105.981 130.1 101.613 137.292 93.9952 141.021C81.4236 147.147 124.199 143.737 124.199 143.737C124.199 143.737 121.695 137.505 116.795 131.912C109.497 123.602 105.395 122.536 105.395 122.536Z" fill="#FFF573"/>
<path d="M119.618 135.587C116.422 139.476 112.586 142.353 108.271 144.59C116.262 144.377 124.146 143.738 124.146 143.738C124.146 143.738 122.601 139.902 119.618 135.587Z" fill="#EFEFEA"/>
<path d="M133.681 185.447H11.6407C11.694 181.665 12.0136 173.249 13.2388 164.193C14.0379 158.387 15.2631 152.367 17.0742 147.094C19.4181 140.328 22.6142 135.374 25.5441 131.912C25.5973 131.858 25.5973 131.858 25.5973 131.858C27.0356 130.154 28.3673 128.822 29.486 127.81C35.2391 122.643 39.3408 119.447 41.3118 118.062C42.0043 117.582 43.0697 117.422 43.5491 118.115C52.019 129.887 67.1475 135.854 82.0629 138.997C102.998 143.418 123.453 142.246 124.092 143.738C127.289 150.982 129.526 160.038 131.018 168.028C132.562 175.593 133.361 182.251 133.681 185.447Z" fill="#FFF573"/>
<path d="M43.6023 118.115C52.0721 129.887 67.2006 135.853 82.1161 138.996C103.051 143.418 123.506 142.246 124.146 143.737" stroke="#FFAD76" stroke-width="1.65692" stroke-miterlimit="10" stroke-linecap="round" stroke-linejoin="round"/>
<path d="M124.465 157.215C123.24 156.416 122.015 155.67 120.79 154.871C121.962 154.019 123.134 153.166 124.306 152.314L127.981 154.658L124.465 157.215Z" fill="#606060"/>
<path d="M85.8983 154.658C84.8329 153.645 83.8208 152.58 82.8087 151.515C84.1405 150.929 85.4722 150.396 86.7506 149.81C87.7628 150.822 88.7749 151.834 89.8403 152.846C88.5618 153.432 87.2301 154.072 85.8983 154.658Z" fill="#606060"/>
<path d="M105.129 156.948C103.957 156.043 102.838 155.19 101.719 154.231C102.998 153.539 104.223 152.74 105.448 151.994C106.567 152.9 107.739 153.805 108.857 154.658C107.632 155.51 106.407 156.202 105.129 156.948Z" fill="white"/>
<path d="M67.0409 149.704C66.1886 148.479 65.3363 147.307 64.5372 146.135C65.9222 145.815 67.3605 145.442 68.7455 145.069C69.5446 146.241 70.4501 147.36 71.3024 148.532C69.8642 148.905 68.4259 149.331 67.0409 149.704Z" fill="white"/>
<path d="M34.44 127.97C34.3334 126.478 34.2802 124.933 34.44 123.495C35.7184 124.134 37.0502 124.614 38.3819 124.987C38.3819 126.372 38.4884 127.81 38.7015 129.248C37.3165 128.875 35.8782 128.502 34.44 127.97Z" fill="white"/>
<path d="M49.3555 141.181C49.0358 140.542 48.7695 139.796 48.5031 139.157C48.2368 138.464 47.9704 137.825 47.7041 137.132C48.4499 137.132 49.1424 137.132 49.8881 137.132C50.5807 137.132 51.3264 137.132 52.0189 137.079C52.5516 138.358 53.1376 139.743 53.7768 141.021C52.2853 141.074 50.847 141.128 49.3555 141.181Z" fill="#606060"/>
<path d="M133.681 185.447H46.5854C28.6336 178.682 16.0087 170.212 13.2387 164.193C12.7593 163.128 12.5462 162.169 12.706 161.263C15.3162 142.938 24.6916 132.817 25.544 131.912C25.5972 131.858 25.5972 131.858 25.5972 131.858C25.5972 131.858 45.9994 168.827 131.071 168.028C132.562 175.593 133.361 182.251 133.681 185.447Z" fill="#FFAD76"/>
<path d="M42.6968 136.866C44.7561 136.866 46.4256 135.196 46.4256 133.137C46.4256 131.078 44.7561 129.408 42.6968 129.408C40.6374 129.408 38.9679 131.078 38.9679 133.137C38.9679 135.196 40.6374 136.866 42.6968 136.866Z" fill="#FF6B57"/>
<path d="M59.1037 147.786C61.1631 147.786 62.8326 146.116 62.8326 144.057C62.8326 141.998 61.1631 140.328 59.1037 140.328C57.0443 140.328 55.3749 141.998 55.3749 144.057C55.3749 146.116 57.0443 147.786 59.1037 147.786Z" fill="#FF6B57"/>
<path d="M77.0023 154.071C79.0617 154.071 80.7312 152.402 80.7312 150.343C80.7312 148.283 79.0617 146.614 77.0023 146.614C74.9429 146.614 73.2734 148.283 73.2734 150.343C73.2734 152.402 74.9429 154.071 77.0023 154.071Z" fill="#FF6B57"/>
<path d="M95.9662 157.161C98.0256 157.161 99.695 155.492 99.695 153.432C99.695 151.373 98.0256 149.704 95.9662 149.704C93.9068 149.704 92.2373 151.373 92.2373 153.432C92.2373 155.492 93.9068 157.161 95.9662 157.161Z" fill="#FF6B57"/>
<path d="M115.356 158.333C117.416 158.333 119.085 156.664 119.085 154.604C119.085 152.545 117.416 150.875 115.356 150.875C113.297 150.875 111.627 152.545 111.627 154.604C111.627 156.664 113.297 158.333 115.356 158.333Z" fill="#FF6B57"/>
<path d="M91.9219 65.2371C93.0792 65.3969 93.9735 64.1717 93.5526 62.9998C93.3422 62.3605 92.974 61.7746 92.3953 61.4017C90.6068 60.283 83.9262 60.1765 80.4017 62.7334C77.2981 65.0773 86.6616 64.4913 91.9219 65.2371Z" fill="#4B4646"/>
<path d="M106.493 65.8228C105.546 65.8228 104.967 64.5976 105.441 63.5855C105.704 63.0528 106.072 62.5733 106.598 62.307C108.229 61.508 112.595 61.9874 114.541 64.7041C116.277 67.1012 110.859 65.7695 106.493 65.8228Z" fill="#4B4646"/>
<path d="M90.0806 71.9489C86.714 70.2443 81.401 71.5228 81.401 71.5228" stroke="#4B4646" stroke-width="1.65692" stroke-miterlimit="10" stroke-linecap="round" stroke-linejoin="round"/>
<path d="M110.859 73.0144C110.859 73.0144 109.492 71.5229 104.442 72.6948" stroke="#4B4646" stroke-width="1.65692" stroke-miterlimit="10" stroke-linecap="round" stroke-linejoin="round"/>
<path d="M100.661 95.7622C99.2798 96.3698 98.617 95.1547 96.463 96.2041C94.9166 96.9221 94.0881 97.143 92.2103 96.0384C90.9952 95.2652 89.504 96.3698 88.068 94.271" stroke="#4B4646" stroke-width="1.65692" stroke-miterlimit="10" stroke-linecap="round" stroke-linejoin="round"/>
<path d="M129.618 115.458C126.635 108.852 124.344 109.758 126.422 103.792C128.499 97.879 125.836 93.6707 120.349 88.0774C115.128 82.7505 114.596 76.9441 114.756 76.0918C114.276 78.3291 114.063 80.6197 113.956 82.857C113.797 85.8401 113.85 88.7699 113.637 91.6997C113.211 98.2519 111.666 104.697 104.634 110.77C101.545 113.434 97.6028 115.351 93.2347 116.257C92.0628 119.826 93.8206 122.383 97.656 122.809C101.491 123.235 103.09 128.988 111.772 131.705C124.77 135.913 132.601 122.063 129.618 115.458Z" fill="#4B4646"/>
<path d="M105.327 51.0023C106.445 51.5883 107.404 51.0556 107.99 49.8836C114.17 48.9248 115.608 61.2833 115.821 62.0291C116.034 62.8281 116.141 65.0654 115.714 71.1914C115.448 74.6006 135.264 50.4163 117.153 40.1886C118.484 38.2176 117.526 28.4161 106.392 26.0189C102.397 25.1666 97.1766 28.8955 90.6245 27.4572C65.0019 21.7574 38.4204 27.1909 40.4979 61.0169C40.9774 68.4214 41.4568 76.4118 28.8852 81.7387C14.2894 87.918 15.0352 104.059 25.3162 107.361C29.5777 108.746 15.5146 118.335 23.7181 126.858C27.9796 131.333 35.5971 122.277 43.3212 127.178C54.9872 134.582 60.7936 131.226 63.0842 128.296C67.7719 122.33 61.9655 110.344 61.9655 110.344C61.9655 110.344 64.2561 106.669 65.0019 104.698C68.6242 95.0028 59.9945 90.6347 59.9945 90.6347C46.6772 85.5209 49.0743 70.6587 55.5732 69.8064C62.3917 68.9541 64.5224 75.0268 64.8953 76.5183C64.8953 76.5183 70.9148 84.8284 82.5275 65.8645C94.0337 46.9006 100.319 48.2856 105.327 51.0023Z" fill="#4B4646"/>
<path d="M57.7156 87.2314V96.2872" stroke="#FFDE55" stroke-width="1.65692" stroke-miterlimit="10" stroke-linecap="round" stroke-linejoin="round"/>
<path d="M64.907 108.433C63.4687 109.871 61.4978 110.777 59.2605 110.777C54.9456 110.777 51.3766 107.261 51.3766 102.893C51.3766 98.5778 54.8924 95.0088 59.2605 95.0088C61.4445 95.0088 63.4687 95.9144 64.907 97.3526C63.9482 96.8199 62.8828 96.5003 61.7109 96.5003C58.1951 96.5003 55.3185 99.3769 55.3185 102.893C55.3185 106.408 58.1951 109.285 61.7109 109.285C62.8828 109.338 63.9482 109.019 64.907 108.433Z" fill="#FFDE55"/>
<path d="M57.7157 106.089C59.4514 106.089 60.8585 104.682 60.8585 102.946C60.8585 101.21 59.4514 99.8032 57.7157 99.8032C55.9799 99.8032 54.5728 101.21 54.5728 102.946C54.5728 104.682 55.9799 106.089 57.7157 106.089Z" fill="#FF6B57"/>
<path d="M118.496 97.459C117.537 96.9263 116.472 96.6067 115.3 96.6067C114.448 96.6067 113.702 96.7665 112.956 97.0862C113.063 96.4469 113.222 95.8077 113.276 95.1685C115.353 95.2217 117.164 96.074 118.496 97.459Z" fill="#FFDE55"/>
<path d="M118.549 108.432C117.111 109.871 115.14 110.776 112.903 110.776C110.665 110.776 108.588 109.817 107.15 108.273C108.002 107.314 108.748 106.355 109.44 105.396C110.399 107.687 112.69 109.231 115.3 109.231C116.472 109.338 117.59 109.018 118.549 108.432Z" fill="#FFDE55"/>
<path d="M114.501 102.946C114.501 104.704 113.116 106.089 111.358 106.089C110.665 106.089 110.026 105.876 109.494 105.45C110.719 103.638 111.624 101.774 112.21 99.9629C113.489 100.283 114.501 101.508 114.501 102.946Z" fill="#FF6B57"/>
</g>
<defs>
<filter id="filter0_i_1198_50917" x="0.242188" y="0.507812" width="159.808" height="159.808" filterUnits="userSpaceOnUse" color-interpolation-filters="sRGB">
<feFlood flood-opacity="0" result="BackgroundImageFix"/>
<feBlend mode="normal" in="SourceGraphic" in2="BackgroundImageFix" result="shape"/>
<feColorMatrix in="SourceAlpha" type="matrix" values="0 0 0 0 0 0 0 0 0 0 0 0 0 0 0 0 0 0 127 0" result="hardAlpha"/>
<feOffset/>
<feGaussianBlur stdDeviation="1.65692"/>
<feComposite in2="hardAlpha" operator="arithmetic" k2="-1" k3="1"/>
<feColorMatrix type="matrix" values="0 0 0 0 0 0 0 0 0 0 0 0 0 0 0 0 0 0 0.25 0"/>
<feBlend mode="normal" in2="shape" result="effect1_innerShadow_1198_50917"/>
</filter>
<filter id="filter1_d_1198_50917" x="-3.75781" y="0.507812" width="167.808" height="167.808" filterUnits="userSpaceOnUse" color-interpolation-filters="sRGB">
<feFlood flood-opacity="0" result="BackgroundImageFix"/>
<feColorMatrix in="SourceAlpha" type="matrix" values="0 0 0 0 0 0 0 0 0 0 0 0 0 0 0 0 0 0 127 0" result="hardAlpha"/>
<feOffset dy="4"/>
<feGaussianBlur stdDeviation="2"/>
<feComposite in2="hardAlpha" operator="out"/>
<feColorMatrix type="matrix" values="0 0 0 0 0 0 0 0 0 0 0 0 0 0 0 0 0 0 0.25 0"/>
<feBlend mode="normal" in2="BackgroundImageFix" result="effect1_dropShadow_1198_50917"/>
<feBlend mode="normal" in="SourceGraphic" in2="effect1_dropShadow_1198_50917" result="shape"/>
</filter>
</defs>
</svg>
