<svg width="161" height="161" viewBox="0 0 161 161" fill="none" xmlns="http://www.w3.org/2000/svg">
<mask id="mask0_1198_50836" style="mask-type:alpha" maskUnits="userSpaceOnUse" x="0" y="0" width="161" height="161">
<path d="M80.6427 160.399C36.4224 160.399 0.6427 124.566 0.6427 80.3989C0.6427 36.1786 36.4755 0.398926 80.6427 0.398926C124.863 0.398926 160.643 36.2317 160.643 80.3989C160.696 124.619 124.863 160.399 80.6427 160.399Z" fill="#F7C0B5"/>
</mask>
<g mask="url(#mask0_1198_50836)">
<g filter="url(#filter0_i_1198_50836)">
<path d="M80.6427 160.399C36.4224 160.399 0.6427 124.566 0.6427 80.3989C0.6427 36.1786 36.4755 0.398926 80.6427 0.398926C124.863 0.398926 160.643 36.2317 160.643 80.3989C160.696 124.619 124.863 160.399 80.6427 160.399Z" fill="white"/>
</g>
<path d="M125.56 147.761C125.187 148.027 124.76 148.294 124.387 148.561C123.96 148.827 123.587 149.094 123.16 149.307C122.787 149.521 122.467 149.734 122.093 149.947C122.04 150.001 121.987 150.001 121.933 150.054C120.707 150.801 119.427 151.494 118.147 152.134C117.773 152.347 117.347 152.561 116.973 152.721C116.973 152.721 116.92 152.774 116.867 152.774C116.44 152.987 116.013 153.201 115.587 153.414C114.733 153.841 113.827 154.214 112.973 154.587C112.547 154.801 112.067 154.961 111.64 155.121C111.213 155.281 110.733 155.494 110.307 155.654C109.88 155.814 109.4 156.027 108.973 156.187C108.973 156.187 108.973 156.187 108.92 156.187C108.493 156.347 108.013 156.507 107.587 156.667C106.627 156.987 105.613 157.307 104.653 157.627C104.333 157.734 103.96 157.841 103.64 157.947C102.627 158.267 101.613 158.534 100.6 158.747C100.227 158.854 99.8533 158.907 99.4266 159.014C98.4666 159.227 97.4533 159.441 96.4933 159.654C96.2799 159.707 96.1199 159.707 95.9066 159.761C95.5866 159.814 95.2133 159.867 94.8933 159.921C94.4133 159.974 93.9866 160.081 93.5066 160.134C93.2933 160.187 93.0799 160.187 92.8666 160.241C92.5999 160.294 92.2799 160.347 91.9599 160.347C91.1066 160.454 90.1999 160.561 89.3466 160.667C89.0799 160.721 88.7599 160.721 88.4933 160.774H88.4399C88.0666 160.827 87.6933 160.827 87.3199 160.881C86.9466 160.934 86.5733 160.934 86.1999 160.934C85.9866 160.934 85.72 160.987 85.5066 160.987C85.08 160.987 84.7066 161.041 84.3333 161.041C83.7999 161.041 83.32 161.094 82.7866 161.094C82.2533 161.094 81.7733 161.094 81.24 161.094C80.8666 161.094 80.4933 161.094 80.12 161.094C57.6666 160.774 37.4 151.227 23 136.081C23 136.081 23 136.027 22.9467 136.027C24.6 132.774 30.7333 126.907 37.1333 122.054C45.24 115.921 56.7066 112.134 56.7066 112.134C56.7066 112.134 64.2266 110.907 92.1199 116.721C113.4 121.201 122.467 139.387 125.56 147.761Z" fill="#FFDBD6"/>
<path d="M98.0399 131.494C96.9199 136.987 89.6666 140.241 77.4532 135.334C62.4666 129.254 56.7066 112.134 56.7066 112.134C55.9066 99.8673 54.0399 89.3606 54.0399 89.3606C71.3732 87.8673 91.8532 108.134 91.8532 108.134L94.1999 118.161C94.4132 119.014 94.8399 119.761 95.4799 120.294C96.5999 122.214 98.7866 127.974 98.0399 131.494Z" fill="#FFDBD6"/>
<path d="M95.48 120.347C85.2933 119.814 77.7733 118.321 69.72 103.867C76.5466 109.894 84.6 112.187 93.08 113.254L94.2 118.161C94.4133 119.067 94.84 119.814 95.48 120.347Z" fill="#D8A7A2"/>
<path d="M116.547 56.0808C117.507 60.5608 117.987 64.1874 115.373 76.1341C112.76 88.0808 117.773 100.027 105.187 110.961C96.7066 118.321 81.8799 119.707 70.0399 111.654C66.0399 108.934 62.3599 105.147 59.3733 100.187C57.0266 96.2941 54.3066 92.6141 51.2666 89.2541C47.0533 84.6674 41.9866 75.4408 44.4933 59.1208C48.5466 32.5608 74.8399 29.5208 90.3599 32.4541C105.88 35.3875 113.933 44.2408 116.547 56.0808Z" fill="#FFDBD6"/>
<path d="M65.5067 76.9339C65.5067 76.9339 63.8533 68.9339 56.0667 69.8939C49.3467 70.7473 47 86.8539 62.2533 91.3339" fill="#FFDBD6"/>
<path d="M61.7732 84.0275C61.7732 84.0275 59.8532 82.8008 60.0666 80.6675C60.3866 78.1608 60.0666 76.6142 58.8932 76.1342C55.9599 74.9075 55.3732 78.3208 55.4799 78.7475" stroke="#423232" stroke-width="1.6589" stroke-miterlimit="10" stroke-linecap="round" stroke-linejoin="round"/>
<path d="M102.467 89.2007C102.467 89.2007 104.493 89.3073 106.413 87.014C107.48 85.734 108.387 84.134 107.8 83.654C107.213 83.1207 97.5599 84.614 96.9199 85.894C96.2799 87.174 100.013 89.2007 102.467 89.2007Z" fill="#F3C0BC"/>
<path d="M104.067 71.2808C104.067 71.2808 104.173 76.3474 107.427 82.0008C108.867 84.5074 106.68 88.6141 101.933 89.3074" stroke="#423232" stroke-width="1.6589" stroke-miterlimit="10" stroke-linecap="round" stroke-linejoin="round"/>
<path d="M112.378 127.118C112.378 127.118 104.111 119.385 95.9515 117.518C95.9515 117.518 96.9115 131.278 87.2048 130.265C71.5248 128.611 56.7515 111.971 56.7515 111.971C56.7515 111.971 46.4582 114.851 38.1382 121.198C38.1382 121.198 39.2582 137.571 57.9782 145.678C76.6982 153.785 102.778 149.785 108.965 144.558C115.151 139.331 113.925 128.825 112.378 127.118Z" fill="white"/>
<path d="M33.5515 124.718C33.5515 124.718 23.2049 130.425 17.5515 146.691C11.8982 162.958 12.0582 187.171 12.0582 187.171H133.765C133.765 187.171 130.351 147.225 118.298 133.891C118.298 133.891 119.098 145.838 95.4715 147.065C71.8448 148.291 43.4182 140.771 42.7248 136.398C42.0849 131.918 33.5515 124.718 33.5515 124.718Z" fill="white"/>
<path d="M123.258 188.132C89.7648 203.598 34.6182 189.625 34.6182 189.625C34.6182 189.625 33.4982 176.025 37.5515 151.545C37.7115 150.425 37.8715 149.305 37.9782 148.292C39.1515 137.198 36.4315 129.572 33.5515 124.772C33.5515 123.545 34.8315 122.692 36.2715 121.465C36.8582 120.985 47.3648 114.478 47.7915 114.798C48.5382 115.865 49.2315 116.932 49.8182 118.052C55.7915 129.092 57.8715 140.932 70.2982 142.638C82.5648 144.345 94.4048 144.078 102.885 142.212C111.045 140.398 105.605 126.852 101.978 120.185C101.818 119.918 101.818 119.812 101.658 119.705C102.885 118.905 117.125 129.838 118.245 133.892C120.591 139.758 121.231 144.132 121.925 149.838C124.218 168.558 123.258 188.132 123.258 188.132Z" fill="#77A0E0"/>
<path d="M50.0315 142.265C51.9166 142.265 53.4448 140.737 53.4448 138.852C53.4448 136.966 51.9166 135.438 50.0315 135.438C48.1464 135.438 46.6182 136.966 46.6182 138.852C46.6182 140.737 48.1464 142.265 50.0315 142.265Z" fill="#647184"/>
<path d="M113.658 143.705C115.367 143.705 116.751 142.32 116.751 140.611C116.751 138.903 115.367 137.518 113.658 137.518C111.95 137.518 110.565 138.903 110.565 140.611C110.565 142.32 111.95 143.705 113.658 143.705Z" fill="#647184"/>
<path d="M73.8715 148.558C81.9782 149.038 92.1115 149.198 100.591 147.972C106.298 147.172 111.471 151.385 111.898 157.092C112.271 162.745 112.431 169.625 111.525 175.652C109.658 188.665 63.0982 188.025 62.3515 176.558C61.9248 170.638 61.5515 165.838 61.1248 161.892C60.3248 154.478 66.4048 148.132 73.8715 148.558Z" stroke="#647184" stroke-width="1.6589" stroke-miterlimit="10"/>
<path d="M89.3914 130.212C89.3914 130.212 79.6314 142.052 76.6448 141.145C73.6581 140.238 55.0981 130.372 52.1648 113.518C52.1648 113.518 54.4581 109.785 56.4848 108.612C56.4848 108.612 62.0848 118.478 72.2181 124.398C81.8714 129.998 89.3914 130.212 89.3914 130.212Z" fill="white"/>
<path d="M89.3914 130.212C89.3914 130.212 79.6314 142.052 76.6448 141.145C73.6581 140.238 55.0981 130.372 52.1648 113.518" stroke="#D0D6DD" stroke-width="1.6589" stroke-miterlimit="10" stroke-linecap="round" stroke-linejoin="round"/>
<path d="M89.3915 130.212C89.3915 130.212 96.9648 139.065 99.4715 139.172C101.978 139.278 103.045 123.705 95.5248 115.812C95.5248 115.812 94.3515 116.132 93.8715 116.238C93.8182 116.185 97.6048 127.545 89.3915 130.212Z" fill="white"/>
<path d="M89.3915 130.212C89.3915 130.212 96.9648 139.065 99.4715 139.172C101.978 139.278 103.045 123.705 95.5248 115.812" stroke="#D0D6DD" stroke-width="1.6589" stroke-miterlimit="10" stroke-linecap="round" stroke-linejoin="round"/>
<path d="M88.6449 131.065C88.6449 131.065 87.1516 132.718 87.6849 136.345C88.2182 139.918 88.1116 143.492 88.1116 143.492" stroke="#D0D6DD" stroke-width="1.6589" stroke-miterlimit="10" stroke-linecap="round" stroke-linejoin="round"/>
<path d="M91.3648 139.065C92.0423 139.065 92.5915 138.516 92.5915 137.838C92.5915 137.161 92.0423 136.612 91.3648 136.612C90.6874 136.612 90.1382 137.161 90.1382 137.838C90.1382 138.516 90.6874 139.065 91.3648 139.065Z" fill="#D0D6DD"/>
<path d="M92.0985 65.203C93.2718 65.363 94.1785 64.1364 93.7518 62.963C93.5385 62.323 93.1651 61.7364 92.5785 61.363C90.7651 60.243 83.9918 60.1364 80.4185 62.6964C77.2718 65.043 86.7651 64.4564 92.0985 65.203Z" fill="#423232"/>
<path d="M106.872 65.7898C105.912 65.7898 105.325 64.5632 105.805 63.5498C106.072 63.0165 106.445 62.5365 106.978 62.2698C108.632 61.4698 113.058 61.9498 115.032 64.6698C116.792 67.0698 111.298 65.7365 106.872 65.7898Z" fill="#423232"/>
<path d="M90.2318 71.9232C86.0718 73.6832 81.4318 71.4966 81.4318 71.4966" stroke="#423232" stroke-width="1.6589" stroke-miterlimit="10" stroke-linecap="round" stroke-linejoin="round"/>
<path d="M111.299 72.9899C111.299 72.9899 108.419 74.7499 104.792 72.6699" stroke="#423232" stroke-width="1.6589" stroke-miterlimit="10" stroke-linecap="round" stroke-linejoin="round"/>
<path d="M99.614 95.5191C99.6693 96.4039 99.0057 97.9522 97.7892 99.0581C91.5407 95.2426 88.7205 97.2333 88.7205 97.2333C86.5087 93.8602 87.0063 89.2706 92.3701 92.7543C96.1303 95.132 98.3975 95.5191 99.614 95.5191Z" fill="#423232"/>
<path d="M97.7892 99.0582C96.4621 100.219 94.4714 100.938 91.7619 99.8324C90.4901 99.3347 89.4947 98.3394 88.7206 97.2334C88.7206 97.2334 91.5407 95.2427 97.7892 99.0582Z" fill="#FE9DAB"/>
<path d="M100.665 95.298C100.665 95.298 98.3422 96.5698 92.3702 92.7543C85.2369 88.1647 86.6746 97.7863 91.7066 99.8323C96.9598 101.989 99.6693 97.2887 99.614 95.5192" stroke="#423232" stroke-width="1.6589" stroke-miterlimit="10" stroke-linecap="round" stroke-linejoin="round"/>
<path d="M88.7206 97.2334C88.7206 97.2334 91.5407 95.2427 97.7892 99.0582" stroke="#423232" stroke-width="1.6589" stroke-miterlimit="10" stroke-linecap="round" stroke-linejoin="round"/>
<path d="M124.947 77.8527C122.441 75.5594 121.747 72.1994 121.534 69.9594C123.134 71.026 125.214 67.7727 125.107 63.9327C124.947 58.226 123.454 54.0127 121.694 51.0794C122.921 49.5327 123.827 47.7194 124.307 45.6927C126.494 36.8394 119.294 30.066 108.787 27.506C102.334 25.906 90.4939 26.706 76.5739 26.4927C74.1739 26.4394 71.6672 26.546 69.2139 26.8127C66.2272 27.1327 63.2939 27.7727 60.5739 28.8927C56.1472 30.546 52.0939 33.1594 49.0006 36.946C43.5606 43.666 42.0139 51.346 41.7472 57.3194C41.4806 64.4127 39.7739 71.3994 36.4139 77.6927C32.7873 84.466 30.5473 91.666 34.1206 97.8527C34.2273 98.0127 34.3339 98.1727 34.4406 98.386C32.7339 106.813 42.2273 106.066 44.0939 97.5327C43.7206 99.1327 43.4539 100.519 43.2939 101.479C42.0139 109.853 48.0939 110.919 51.1339 105.106C51.4539 104.519 52.2539 102.119 53.1072 99.0794C53.1072 99.6127 53.1606 100.146 53.2139 100.626C53.3206 112.306 61.6406 113.319 61.1606 105.426C60.9472 101.906 61.5339 96.9994 62.4406 91.666C47.2939 87.1327 49.6406 71.1327 56.4139 70.2794C64.2006 69.266 65.8539 77.3194 65.8539 77.3194C66.4406 79.826 67.2939 82.8127 68.5739 84.2527C70.8672 86.7594 74.8139 84.9994 72.2539 77.106C71.7206 75.4527 71.2406 73.586 70.9206 71.6127C72.9472 72.146 74.7072 71.026 73.8539 68.786C73.0539 66.7594 72.6272 64.8927 72.5206 63.1327C72.3606 60.4127 73.0539 57.9594 74.2272 55.9327C75.4539 60.786 80.5739 59.2927 80.8939 55.7727C81.0006 54.5994 81.3739 53.2127 81.9072 51.666C83.1872 53.3194 84.9472 54.866 87.1339 55.986C91.1872 58.0127 94.0672 57.0527 94.7072 54.9727C97.3206 55.8794 99.6672 56.5727 101.481 56.9994C106.921 58.3327 112.307 57.6394 116.521 55.3994C116.734 55.8794 116.841 56.306 116.894 56.466C116.947 56.7327 117.001 56.9994 117.054 57.266C117.534 59.5594 117.801 61.7994 117.587 65.1594C117.587 65.3194 117.587 65.426 117.534 65.586C117.534 65.6927 117.534 65.7994 117.481 65.906C117.481 66.1727 117.427 66.386 117.427 66.6527C117.427 66.8127 117.374 66.9194 117.374 67.0794C117.374 67.2927 117.321 67.5594 117.267 67.826C117.214 68.0394 117.214 68.2527 117.161 68.466C117.161 68.626 117.107 68.8394 117.107 68.9994C117.054 69.3194 117.001 69.6394 116.947 70.0127C116.947 70.066 116.947 70.1727 116.894 70.226C116.841 70.6527 116.734 71.0794 116.681 71.5594C116.414 73.0527 116.094 74.6527 115.721 76.5194C113.481 86.866 116.947 97.3194 109.641 107.026C109.321 109.906 111.827 113.533 114.921 109.746C117.321 106.813 116.201 96.9994 116.041 95.026C116.254 97.106 119.561 103.719 122.654 102.759C124.361 102.226 125.107 101.319 124.841 98.1727C124.521 93.746 121.054 89.3727 120.574 82.9194C123.774 85.6394 128.307 80.8927 124.947 77.8527Z" fill="#423232"/>
<path d="M60.315 80.2089C60.315 80.2089 56.0483 79.5689 56.3683 85.5422C56.5283 88.5822 56.5283 90.2356 56.475 91.0889C56.4217 91.6756 56.795 92.2089 57.3283 92.4222C57.9683 92.6889 58.6617 92.4222 58.9817 91.7822C59.4617 90.9289 59.995 89.7556 59.995 88.7956C59.995 87.1956 61.7017 85.7556 61.7017 85.7556C61.7017 85.7556 60.155 84.4222 60.315 80.2089Z" fill="white"/>
<path d="M73.2216 183.035C72.7949 182.555 56.0483 153.915 58.555 143.142C60.2616 135.729 58.0216 127.195 56.0483 119.675C55.2483 116.582 54.5016 113.702 54.075 111.142C53.3283 106.715 53.8616 102.502 55.675 98.6086C57.6483 94.2352 57.3283 90.4486 57.3283 90.3952L58.395 90.2886C58.395 90.4486 58.715 94.4486 56.635 99.0352C54.9283 102.715 54.4483 106.769 55.1416 110.982C55.5683 113.489 56.315 116.369 57.115 119.462C59.1416 127.089 61.3816 135.782 59.6216 143.462C57.275 153.702 73.9683 182.342 74.0749 182.449L73.2216 183.035Z" fill="white"/>
<path d="M56.5284 88.6354C56.5817 89.8087 56.5284 90.6087 56.5284 91.0887C56.475 91.6754 56.8484 92.2087 57.3817 92.422C58.0217 92.6887 58.715 92.422 59.035 91.782C59.515 90.9287 60.0484 89.7554 60.0484 88.7954C60.0484 88.742 60.0484 88.6354 60.0484 88.582C58.9284 89.0087 57.6484 89.3287 56.5284 88.6354Z" fill="#E5E5E5"/>
<path d="M106.715 124.102C106.342 126.555 106.288 130.448 106.182 134.982C106.022 143.728 100.848 177.808 98.3416 183.195L97.3816 182.768C99.7816 177.542 104.955 143.622 105.115 134.982C105.222 130.448 105.275 126.502 105.648 123.942C106.448 118.555 105.862 114.502 105.542 112.795C105.702 112.635 105.862 112.528 106.022 112.368C106.182 112.262 106.288 112.102 106.448 111.995C106.768 113.382 107.675 117.808 106.715 124.102Z" fill="white"/>
</g>
<defs>
<filter id="filter0_i_1198_50836" x="0.6427" y="0.398926" width="160" height="160" filterUnits="userSpaceOnUse" color-interpolation-filters="sRGB">
<feFlood flood-opacity="0" result="BackgroundImageFix"/>
<feBlend mode="normal" in="SourceGraphic" in2="BackgroundImageFix" result="shape"/>
<feColorMatrix in="SourceAlpha" type="matrix" values="0 0 0 0 0 0 0 0 0 0 0 0 0 0 0 0 0 0 127 0" result="hardAlpha"/>
<feOffset/>
<feGaussianBlur stdDeviation="3"/>
<feComposite in2="hardAlpha" operator="arithmetic" k2="-1" k3="1"/>
<feColorMatrix type="matrix" values="0 0 0 0 0 0 0 0 0 0 0 0 0 0 0 0 0 0 0.2 0"/>
<feBlend mode="normal" in2="shape" result="effect1_innerShadow_1198_50836"/>
</filter>
</defs>
</svg>
