<svg width="161" height="161" viewBox="0 0 161 161" fill="none" xmlns="http://www.w3.org/2000/svg">
<mask id="mask0_1198_50887" style="mask-type:alpha" maskUnits="userSpaceOnUse" x="0" y="0" width="161" height="161">
<path d="M80.0994 160.17C35.9321 160.17 0.195312 124.38 0.195312 80.2659C0.195312 36.0986 35.9851 0.361816 80.0994 0.361816C124.267 0.361816 160.003 36.1516 160.003 80.2659C160.057 124.433 124.267 160.17 80.0994 160.17Z" fill="#F7C0B5"/>
</mask>
<g mask="url(#mask0_1198_50887)">
<g filter="url(#filter0_i_1198_50887)">
<g filter="url(#filter1_d_1198_50887)">
<path d="M80.0994 160.169C35.9321 160.169 0.195312 124.38 0.195312 80.2654C0.195312 36.0981 35.9851 0.361328 80.0994 0.361328C124.267 0.361328 160.003 36.1511 160.003 80.2654C160.057 124.433 124.267 160.169 80.0994 160.169Z" fill="white"/>
</g>
</g>
<path d="M124.85 147.549C124.477 147.816 124.05 148.082 123.678 148.348C123.251 148.615 122.879 148.881 122.452 149.094C122.079 149.307 121.76 149.52 121.387 149.733C121.334 149.787 121.28 149.787 121.227 149.84C120.002 150.586 118.724 151.278 117.445 151.917C117.072 152.13 116.646 152.344 116.273 152.503C116.273 152.503 116.22 152.557 116.167 152.557C115.74 152.77 115.314 152.983 114.888 153.196C114.036 153.622 113.13 153.995 112.278 154.368C111.852 154.581 111.372 154.741 110.946 154.9C110.52 155.06 110.041 155.273 109.614 155.433C109.188 155.593 108.709 155.806 108.283 155.966C108.283 155.966 108.283 155.966 108.229 155.966C107.803 156.126 107.324 156.285 106.898 156.445C105.939 156.765 104.927 157.084 103.968 157.404C103.648 157.511 103.275 157.617 102.956 157.724C101.944 158.043 100.932 158.31 99.9194 158.523C99.5466 158.629 99.1737 158.683 98.7475 158.789C97.7887 159.002 96.7766 159.215 95.8177 159.428C95.6046 159.482 95.4448 159.482 95.2317 159.535C94.9121 159.588 94.5392 159.641 94.2196 159.695C93.7402 159.748 93.314 159.855 92.8346 159.908C92.6215 159.961 92.4085 159.961 92.1954 160.014C91.929 160.068 91.6094 160.121 91.2898 160.121C90.4375 160.227 89.5319 160.334 88.6796 160.44C88.4133 160.494 88.0937 160.494 87.8273 160.547H87.774C87.4011 160.6 87.0283 160.6 86.6554 160.654C86.2825 160.707 85.9096 160.707 85.5367 160.707C85.3236 160.707 85.0573 160.76 84.8442 160.76C84.4181 160.76 84.0452 160.813 83.6723 160.813C83.1396 160.813 82.6602 160.867 82.1275 160.867C81.5948 160.867 81.1154 160.867 80.5827 160.867C80.2098 160.867 79.8369 160.867 79.464 160.867C57.0376 160.547 36.7952 151.012 22.4125 135.883C22.4125 135.883 22.4125 135.83 22.3593 135.83C24.0106 132.581 30.1366 126.721 36.5289 121.873C44.6258 115.747 56.0788 111.965 56.0788 111.965C56.0788 111.965 63.5897 110.74 91.4496 116.546C112.704 121.021 121.76 139.186 124.85 147.549Z" fill="#FFE6D1"/>
<path d="M97.3625 131.302C96.2439 136.789 88.9992 140.038 76.8005 135.137C61.8318 129.065 56.0788 111.965 56.0788 111.965C55.2797 99.7133 53.4153 89.2192 53.4153 89.2192C70.7278 87.7276 91.1833 107.97 91.1833 107.97L93.5271 117.985C93.7402 118.837 94.1663 119.583 94.8056 120.115C95.9242 122.033 98.1083 127.786 97.3625 131.302Z" fill="#FFE6D1"/>
<path d="M94.8056 120.169C84.6312 119.636 77.1202 118.144 69.0765 103.708C75.895 109.728 83.9387 112.019 92.4085 113.084L93.5272 117.985C93.7403 118.89 94.1664 119.636 94.8056 120.169Z" fill="#EFBDA5"/>
<path d="M115.847 55.9791C116.806 60.4537 117.285 64.0761 114.675 76.0084C112.065 87.9407 117.072 99.8731 104.501 110.793C96.0309 118.144 81.222 119.529 69.3962 111.486C65.401 108.769 61.7254 104.987 58.7423 100.033C56.3985 96.1442 53.6817 92.4686 50.6454 89.1127C46.4371 84.5315 41.3765 75.3159 43.8802 59.0155C47.9286 32.4873 74.1904 29.451 89.6918 32.3808C105.193 35.3106 113.237 44.1533 115.847 55.9791Z" fill="#FFE6D1"/>
<path d="M64.8683 76.8077C64.8683 76.8077 63.2169 68.8173 55.4396 69.7762C48.7276 70.6285 46.3838 86.7158 61.6188 91.1905" fill="#FFE6D1"/>
<path d="M61.1395 83.8922C61.1395 83.8922 59.2218 82.667 59.4348 80.5363C59.7545 78.0326 59.4348 76.4878 58.2629 76.0084C55.3331 74.7832 54.7471 78.1924 54.8537 78.6186" stroke="#423232" stroke-width="1.65692" stroke-miterlimit="10" stroke-linecap="round" stroke-linejoin="round"/>
<path d="M101.784 89.0596C101.784 89.0596 103.808 89.1661 105.726 86.8756C106.791 85.5971 107.697 83.999 107.111 83.5196C106.525 82.9869 96.8832 84.4784 96.2439 85.7569C95.6047 87.0354 99.3336 89.0596 101.784 89.0596Z" fill="#EFBDA5"/>
<path d="M103.382 71.1606C103.382 71.1606 103.489 76.2212 106.738 81.8678C108.176 84.3714 105.992 88.4732 101.251 89.1657" stroke="#423232" stroke-width="1.65692" stroke-miterlimit="10" stroke-linecap="round" stroke-linejoin="round"/>
<path opacity="0.42" d="M74.5101 91.776C77.5403 91.776 79.9968 89.7488 79.9968 87.2481C79.9968 84.7474 77.5403 82.7202 74.5101 82.7202C71.4798 82.7202 69.0233 84.7474 69.0233 87.2481C69.0233 89.7488 71.4798 91.776 74.5101 91.776Z" fill="#ED938A"/>
<path opacity="0.42" d="M113.823 82.8267C113.663 85.8097 113.716 88.7396 113.503 91.6694C111.159 91.1367 109.455 89.3788 109.455 87.3013C109.455 85.064 111.319 83.2528 113.823 82.8267Z" fill="#ED938A"/>
<path d="M143.599 180.795L8.66762 177.812C7.28262 143.826 21.2392 125.874 26.726 122.359C37.0069 115.7 50.3776 113.729 56.6634 113.143C58.2614 117.085 64.3341 130.029 76.959 135.143C89.1577 140.097 96.4023 136.795 97.521 131.308C98.2135 127.792 96.0294 122.039 94.9108 120.175C94.2716 119.642 93.8454 118.843 93.6323 118.044L93.2062 116.286C94.1117 116.073 95.0173 115.86 95.9229 115.54C118.243 118.044 127.299 124.117 132.626 134.504C138.112 145.211 143.599 180.795 143.599 180.795Z" fill="#474E51"/>
<path d="M32.3193 180.582C32.3193 180.582 31.6268 163.323 30.9343 160.127" stroke="#544D4D" stroke-width="1.65692" stroke-miterlimit="10" stroke-linecap="round" stroke-linejoin="round"/>
<path d="M126.713 180.582C126.713 180.582 125.115 169.875 125.115 168.01C125.115 166.199 126.5 160.233 126.713 155.013" stroke="#544D4D" stroke-width="1.65692" stroke-miterlimit="10" stroke-linecap="round" stroke-linejoin="round"/>
<path d="M84.4699 146.543L82.5522 186.282C82.5522 186.282 99.4387 197.788 99.4387 197.468C99.4387 197.149 107.429 183.192 107.429 183.192L94.964 144.945C94.964 144.945 93.3659 146.596 84.4699 146.543Z" fill="#D85656"/>
<path d="M88.3054 133.758C88.3054 133.758 81.0075 140.63 80.0486 142.441C79.0898 144.252 84.1504 147.129 84.1504 147.129C84.1504 147.129 92.3006 148.834 95.9762 145.531C95.9762 145.531 98.0537 143.24 97.6275 141.056C97.2546 138.925 88.3054 133.758 88.3054 133.758Z" fill="#EA6363"/>
<path d="M55.1186 106.857L55.8111 106.697C57.7821 113.036 70.3004 128.005 88.3054 133.758L77.1188 147.875C76.3731 148.833 75.0413 148.993 74.0825 148.301C69.5013 144.891 57.2494 134.877 52.242 122.092C51.1767 119.429 50.9636 116.499 51.4963 113.729L52.1888 109.947C52.4551 108.402 53.627 107.177 55.1186 106.857Z" fill="white"/>
<path d="M103.221 143.027C102.901 144.785 100.824 145.478 99.4919 144.252L88.2521 133.758C88.2521 133.758 94.8042 127.526 93.2061 116.233C95.3902 115.753 97.4677 115.061 99.3854 114.155C99.4386 114.262 100.184 115.7 101.037 118.097C102.848 123.051 105.138 132.16 103.221 143.027Z" fill="white"/>
<path d="M84.4848 76.8454C83.2063 76.7921 82.2475 75.7267 82.354 74.4483L82.4073 72.9567C82.4606 71.6783 83.526 70.7194 84.8044 70.826C86.0829 70.8792 87.0417 71.9446 86.9352 73.2231L86.8819 74.7146C86.8287 75.9398 85.7633 76.8987 84.4848 76.8454Z" fill="#423232"/>
<path d="M106.911 77.6444C105.739 77.5911 104.834 76.579 104.887 75.4071L104.94 74.0221C104.993 72.8502 106.006 71.9446 107.177 71.9978C108.349 72.0511 109.255 73.0632 109.202 74.2352L109.148 75.6202C109.095 76.7921 108.083 77.6977 106.911 77.6444Z" fill="#423232"/>
<path d="M89.652 73.7558C89.652 73.7558 88.267 71.7848 85.8699 71.4119C83.8989 71.0923 81.7149 72.0512 81.3953 73.1698" stroke="#423232" stroke-width="1.65692" stroke-miterlimit="10" stroke-linecap="round" stroke-linejoin="round"/>
<path d="M105.366 74.2354C105.366 74.2354 105.366 72.5308 107.817 72.5308C109.841 72.5308 110.693 74.3952 110.693 74.3952" stroke="#423232" stroke-width="1.65692" stroke-miterlimit="10" stroke-linecap="round" stroke-linejoin="round"/>
<path d="M92.6882 64.4871C93.8601 64.3806 94.4461 62.9956 93.8069 61.9302C93.434 61.3975 92.9546 60.9181 92.2621 60.6517C90.2378 60.0125 83.6324 61.4508 80.7559 64.7535C78.1989 67.7898 87.3613 64.9665 92.6882 64.4871Z" fill="#423232"/>
<path d="M106.751 65.3394C105.846 65.0731 105.58 63.7414 106.325 62.889C106.698 62.4629 107.231 62.09 107.817 61.9835C109.628 61.6639 113.783 63.3152 114.955 66.4581C116.02 69.1748 111.066 66.4048 106.751 65.3394Z" fill="#423232"/>
<path d="M99.0478 95.3666C99.1031 96.2503 98.4403 97.7968 97.2252 98.9014C90.9842 95.0905 88.1674 97.0788 88.1674 97.0788C85.9582 93.7097 86.4553 89.1256 91.8126 92.6051C95.5683 94.98 97.8328 95.3666 99.0478 95.3666Z" fill="#423232"/>
<path d="M97.2253 98.9016C95.8997 100.061 93.9115 100.779 91.2052 99.6748C89.9349 99.1778 88.9407 98.1836 88.1675 97.079C88.1675 97.079 90.9842 95.0907 97.2253 98.9016Z" fill="#FE9DAB"/>
<path d="M100.097 95.1455C100.097 95.1455 97.7776 96.4158 91.8127 92.6049C84.6879 88.0208 86.1239 97.6309 91.1499 99.6744C96.3968 101.828 99.1031 97.1338 99.0479 95.3664" stroke="#423232" stroke-width="1.65692" stroke-miterlimit="10" stroke-linecap="round" stroke-linejoin="round"/>
<path d="M88.1675 97.079C88.1675 97.079 90.9842 95.0907 97.2253 98.9016" stroke="#423232" stroke-width="1.65692" stroke-miterlimit="10" stroke-linecap="round" stroke-linejoin="round"/>
<path d="M115.79 70.9748C117.228 62.8778 116.802 59.6817 115.95 55.8996C115.684 54.7276 115.364 53.609 114.991 52.4903C112.168 50.253 109.185 48.8147 104.657 48.1755C92.4581 46.5241 82.8164 47.6428 72.5354 49.8801C66.0898 51.2651 67.4215 73.5317 64.9179 76.4615C64.4917 74.97 62.4142 68.8973 55.5957 69.7496C49.1501 70.5486 46.6997 85.4641 60.0171 90.5779C59.9105 93.5077 57.1938 98.9412 55.0097 100.166C55.0097 100.166 54.6369 96.2778 50.3753 91.1639C46.1138 86.05 37.5907 72.786 43.3438 53.3959C49.0968 34.0058 75.1456 23.8846 99.3832 33.7395C103.538 35.4441 106.947 37.8412 109.664 40.3449C116.056 46.2045 119.466 54.7276 118.454 63.304C118.187 66.1805 117.388 68.9506 115.79 70.9748Z" fill="#513A3A"/>
<path d="M107.48 46.7377C107.48 46.7377 91.7657 70.8155 62.4675 63.3577C62.4675 63.3577 56.7677 49.0283 69.1795 43.5415C81.6445 38.108 104.497 41.9434 107.48 46.7377Z" fill="#513A3A"/>
<path d="M105.829 47.057C105.829 47.057 107.853 52.6503 111.848 57.1782C114.458 60.108 117.868 62.5584 122.129 62.6649C122.129 62.6649 123.461 48.1757 113.979 42.5291C104.497 36.8293 105.829 47.057 105.829 47.057Z" fill="#513A3A"/>
<path d="M66.8887 37.8413C66.8887 37.8413 49.736 11.1534 34.6608 30.4902C19.5855 49.8269 36.0458 100.326 26.8834 115.508C26.8834 115.508 37.3775 107.891 40.1475 92.9752C40.1475 92.9752 40.4671 99.1544 38.6027 107.784C38.6027 107.784 49.736 94.9461 49.736 79.5513C49.736 64.1564 60.8693 41.7833 66.8887 37.8413Z" fill="#513A3A"/>
<path d="M116.749 67.8854C118.667 76.0356 116.749 90.152 116.749 90.152C116.749 90.152 140.187 52.9167 121.224 38.8003C105.243 26.868 70.7775 39.0134 70.7775 39.0134C70.7775 39.0134 103.112 31.2361 109.398 46.0982C115.151 59.5221 115.79 54.8877 117.601 62.8781C117.868 63.6771 116.483 66.7668 116.749 67.8854Z" fill="#513A3A"/>
<path d="M58.6182 86.0552L59.5238 87.8664C59.6836 88.186 60.0032 88.3991 60.3228 88.4524L62.3471 88.772C63.2527 88.8785 63.5723 89.9972 62.933 90.6364L61.4948 92.0747C61.2284 92.341 61.1219 92.6607 61.1752 93.0335L61.4948 95.0578C61.6546 95.9634 60.6957 96.6026 59.8967 96.2297L58.0855 95.2709C57.7659 95.111 57.393 95.111 57.0734 95.2709L55.2623 96.2297C54.4632 96.6559 53.5044 95.9634 53.6642 95.0578L53.9838 93.0335C54.0371 92.6607 53.9305 92.341 53.6642 92.0747L52.2259 90.6364C51.5867 89.9972 51.9596 88.9318 52.8119 88.772L54.8361 88.4524C55.209 88.3991 55.4753 88.186 55.6351 87.8664L56.5407 86.0552C57.0734 85.2029 58.2453 85.2029 58.6182 86.0552Z" fill="#FFDE55"/>
<path d="M115.883 92.0214C115.616 92.2878 115.51 92.6606 115.563 92.9803L115.883 95.0045C116.043 95.9101 115.084 96.6026 114.285 96.1764L113.219 95.5905C113.592 92.9803 113.699 90.3168 113.752 87.6533L113.859 87.8664C114.018 88.186 114.338 88.3991 114.658 88.4524L116.682 88.7187C117.587 88.8252 117.96 89.9439 117.268 90.5831L115.883 92.0214Z" fill="#FFDE55"/>
</g>
<defs>
<filter id="filter0_i_1198_50887" x="0.195312" y="0.361328" width="159.808" height="159.808" filterUnits="userSpaceOnUse" color-interpolation-filters="sRGB">
<feFlood flood-opacity="0" result="BackgroundImageFix"/>
<feBlend mode="normal" in="SourceGraphic" in2="BackgroundImageFix" result="shape"/>
<feColorMatrix in="SourceAlpha" type="matrix" values="0 0 0 0 0 0 0 0 0 0 0 0 0 0 0 0 0 0 127 0" result="hardAlpha"/>
<feOffset/>
<feGaussianBlur stdDeviation="1.65692"/>
<feComposite in2="hardAlpha" operator="arithmetic" k2="-1" k3="1"/>
<feColorMatrix type="matrix" values="0 0 0 0 0 0 0 0 0 0 0 0 0 0 0 0 0 0 0.25 0"/>
<feBlend mode="normal" in2="shape" result="effect1_innerShadow_1198_50887"/>
</filter>
<filter id="filter1_d_1198_50887" x="-3.80469" y="0.361328" width="167.808" height="167.808" filterUnits="userSpaceOnUse" color-interpolation-filters="sRGB">
<feFlood flood-opacity="0" result="BackgroundImageFix"/>
<feColorMatrix in="SourceAlpha" type="matrix" values="0 0 0 0 0 0 0 0 0 0 0 0 0 0 0 0 0 0 127 0" result="hardAlpha"/>
<feOffset dy="4"/>
<feGaussianBlur stdDeviation="2"/>
<feComposite in2="hardAlpha" operator="out"/>
<feColorMatrix type="matrix" values="0 0 0 0 0 0 0 0 0 0 0 0 0 0 0 0 0 0 0.25 0"/>
<feBlend mode="normal" in2="BackgroundImageFix" result="effect1_dropShadow_1198_50887"/>
<feBlend mode="normal" in="SourceGraphic" in2="effect1_dropShadow_1198_50887" result="shape"/>
</filter>
</defs>
</svg>
