<svg width="161" height="161" viewBox="0 0 161 161" fill="none" xmlns="http://www.w3.org/2000/svg">
<mask id="mask0_1198_50826" style="mask-type:alpha" maskUnits="userSpaceOnUse" x="0" y="0" width="161" height="161">
<path d="M80.7343 160.207C36.567 160.207 0.8302 124.417 0.8302 80.303C0.8302 36.1357 36.62 0.398926 80.7343 0.398926C124.902 0.398926 160.638 36.1887 160.638 80.303C160.691 124.47 124.902 160.207 80.7343 160.207Z" fill="#F7C0B5"/>
</mask>
<g mask="url(#mask0_1198_50826)">
<g filter="url(#filter0_i_1198_50826)">
<path d="M80.7421 160.207C36.5748 160.207 0.838013 124.417 0.838013 80.303C0.838013 36.1357 36.6278 0.398926 80.7421 0.398926C124.909 0.398926 160.646 36.1887 160.646 80.303C160.699 124.47 124.909 160.207 80.7421 160.207Z" fill="white"/>
</g>
<path d="M125.591 147.586C125.218 147.852 124.792 148.119 124.419 148.385C123.993 148.652 123.62 148.918 123.194 149.131C122.821 149.344 122.501 149.557 122.128 149.77C122.075 149.823 122.022 149.823 121.968 149.877C120.743 150.622 119.465 151.315 118.186 151.954C117.813 152.167 117.387 152.38 117.014 152.54C117.014 152.54 116.961 152.593 116.908 152.593C116.482 152.807 116.056 153.02 115.629 153.233C114.777 153.659 113.872 154.032 113.019 154.405C112.593 154.618 112.114 154.778 111.688 154.937C111.261 155.097 110.782 155.31 110.356 155.47C109.93 155.63 109.45 155.843 109.024 156.003C109.024 156.003 109.024 156.003 108.971 156.003C108.545 156.163 108.065 156.322 107.639 156.482C106.68 156.802 105.668 157.121 104.709 157.441C104.39 157.548 104.017 157.654 103.697 157.761C102.685 158.08 101.673 158.347 100.661 158.56C100.288 158.666 99.915 158.719 99.4888 158.826C98.53 159.039 97.5178 159.252 96.559 159.465C96.3459 159.518 96.1861 159.518 95.973 159.572C95.6534 159.625 95.2805 159.678 94.9609 159.732C94.4815 159.785 94.0553 159.891 93.5759 159.945C93.3628 159.998 93.1498 159.998 92.9367 160.051C92.6703 160.104 92.3507 160.158 92.0311 160.158C91.1788 160.264 90.2732 160.371 89.4209 160.477C89.1546 160.531 88.8349 160.531 88.5686 160.584H88.5153C88.1424 160.637 87.7696 160.637 87.3967 160.69C87.0238 160.744 86.6509 160.744 86.278 160.744C86.0649 160.744 85.7986 160.797 85.5855 160.797C85.1594 160.797 84.7865 160.85 84.4136 160.85C83.8809 160.85 83.4015 160.903 82.8688 160.903C82.3361 160.903 81.8567 160.903 81.324 160.903C80.9511 160.903 80.5782 160.903 80.2053 160.903C57.7789 160.584 37.5365 151.049 23.1538 135.92C23.1538 135.92 23.1538 135.867 23.1005 135.867C24.7519 132.617 30.8779 126.758 37.2702 121.91C45.3671 115.784 56.82 112.002 56.82 112.002C56.82 112.002 64.331 110.777 92.1909 116.583C113.445 121.058 122.501 139.223 125.591 147.586Z" fill="#F4D9D5"/>
<path d="M98.1039 131.339C96.9852 136.826 89.7406 140.075 77.5419 135.174C62.5732 129.102 56.8201 112.002 56.8201 112.002C56.021 99.7504 54.1566 89.2563 54.1566 89.2563C71.4692 87.7647 91.9246 108.007 91.9246 108.007L94.2685 118.022C94.4815 118.874 94.9077 119.62 95.5469 120.153C96.6656 122.07 98.8496 127.823 98.1039 131.339Z" fill="#F4D9D5"/>
<path d="M95.5469 120.206C85.3724 119.673 77.8614 118.182 69.8177 103.746C76.6362 109.765 84.6799 112.056 93.1497 113.121L94.2684 118.022C94.4815 118.927 94.9076 119.673 95.5469 120.206Z" fill="#D8A7A2"/>
<path d="M116.588 56.0162C117.547 60.4908 118.027 64.1132 115.416 76.0455C112.806 87.9778 117.813 99.9102 105.242 110.83C96.7721 118.182 81.9632 119.567 70.1374 111.523C66.1422 108.806 62.4666 105.024 59.4835 100.07C57.1397 96.1813 54.4229 92.5057 51.3866 89.1498C47.1783 84.5686 42.1177 75.353 44.6214 59.0526C48.6698 32.5244 74.9316 29.4881 90.433 32.4179C105.934 35.3477 113.978 44.1904 116.588 56.0162Z" fill="#F4D9D5"/>
<path d="M65.6095 76.8448C65.6095 76.8448 63.9581 68.8544 56.1808 69.8133C49.4689 70.6656 47.125 86.7529 62.36 91.2276" fill="#F4D9D5"/>
<path d="M61.8806 83.9294C61.8806 83.9294 59.9629 82.7042 60.176 80.5734C60.4956 78.0697 60.176 76.5249 59.0041 76.0455C56.0742 74.8203 55.4883 78.2295 55.5948 78.6557" stroke="#423232" stroke-width="1.65692" stroke-miterlimit="10" stroke-linecap="round" stroke-linejoin="round"/>
<path d="M102.525 89.0967C102.525 89.0967 104.549 89.2032 106.467 86.9127C107.533 85.6342 108.438 84.0361 107.852 83.5567C107.266 83.024 97.6244 84.5155 96.9852 85.794C96.346 87.0725 100.075 89.0967 102.525 89.0967Z" fill="#DDA5A0"/>
<path d="M104.123 71.1978C104.123 71.1978 104.23 76.2583 107.479 81.9049C108.918 84.4086 106.733 88.5103 101.992 89.2028" stroke="#423232" stroke-width="1.65692" stroke-miterlimit="10" stroke-linecap="round" stroke-linejoin="round"/>
<path d="M47.1987 111.473C47.1987 111.473 54.9761 108.383 56.4143 108.277L56.5209 109.502C56.5209 109.502 50.3416 112.165 49.9687 112.591C49.5959 113.018 47.1987 111.473 47.1987 111.473Z" fill="#7E5D6D"/>
<path d="M143.19 180.617H8.52521C8.52521 180.617 9.32425 155.9 17.4212 138.267C23.5472 124.95 38.2495 116.161 48.9567 112.325C51.993 111.26 54.3369 110.088 56.5209 109.502C56.5209 109.768 56.6807 111.739 56.6807 111.952C56.6807 111.952 65.5235 124.151 85.2331 123.991C97.0589 123.938 93.7562 116.267 93.7562 116.267C94.7684 116.054 95.7272 115.788 96.6861 115.468C97.0057 115.362 99.243 114.456 99.5093 114.349C106.381 116.161 114.798 121.274 126.996 131.502C140.74 143.062 143.19 180.617 143.19 180.617Z" fill="#69C9FF"/>
<mask id="mask1_1198_50826" style="mask-type:alpha" maskUnits="userSpaceOnUse" x="8" y="109" width="136" height="72">
<path d="M143.19 180.617H8.52521C8.52521 180.617 9.32425 155.9 17.4212 138.267C23.5472 124.95 38.2495 116.161 48.9567 112.325C51.993 111.26 54.3369 110.088 56.5209 109.502C56.5209 109.768 56.6807 111.739 56.6807 111.952C56.6807 111.952 65.5235 124.151 85.2331 123.991C97.0589 123.938 93.7562 116.267 93.7562 116.267C94.7684 116.054 95.7272 115.788 96.6861 115.468C97.0057 115.362 99.243 114.456 99.5093 114.349C106.381 116.161 114.798 121.274 126.996 131.502C140.74 143.062 143.19 180.617 143.19 180.617Z" fill="#E89D6B"/>
</mask>
<g mask="url(#mask1_1198_50826)">
<path d="M36.1721 108.33C39.1019 108.437 40.5934 108.49 43.5232 108.437C46.1334 109.982 47.4119 110.727 50.0754 112.166C52.7921 112.006 54.1771 111.899 56.8939 111.58C59.6106 112.858 60.9423 113.497 63.6591 114.723C66.4291 114.297 67.8141 114.03 70.5308 113.497C73.3008 114.563 74.7391 115.042 77.5091 115.948C80.2791 115.255 81.6641 114.829 84.4341 114.03C87.3107 114.776 88.749 115.149 91.6255 115.788C94.3955 114.776 95.7805 114.297 98.5505 113.178C101.48 113.657 102.972 113.87 105.902 114.243C108.618 112.965 110.003 112.326 112.72 110.941C115.703 111.1 117.195 111.154 120.178 111.207C122.841 109.609 124.173 108.81 126.837 107.158C130.193 106.892 131.844 106.732 135.2 106.359C134.934 107.638 134.827 108.277 134.614 109.556C131.844 109.875 130.406 110.035 127.636 110.248C124.919 111.953 123.587 112.805 120.817 114.403C117.781 114.403 116.289 114.35 113.253 114.19C110.483 115.575 109.098 116.267 106.328 117.546C103.345 117.173 101.853 116.96 98.8701 116.534C96.1001 117.652 94.6619 118.185 91.8919 119.144C88.962 118.505 87.5238 118.132 84.6472 117.386C81.8772 118.185 80.4389 118.611 77.6689 119.304C74.8456 118.345 73.4074 117.866 70.5841 116.8C67.8141 117.333 66.4291 117.599 63.6058 118.025C60.8358 116.8 59.5041 116.214 56.734 114.882C53.964 115.149 52.579 115.255 49.8623 115.415C47.1988 113.977 45.8671 113.231 43.2569 111.633C40.8065 111.633 39.5813 111.633 37.1309 111.527C36.758 110.301 36.5982 109.662 36.1721 108.33Z" fill="#4F95FF"/>
<path d="M35.4263 121.861C38.3561 121.914 39.7944 121.914 42.7774 121.807C45.4409 123.299 46.7727 123.992 49.4361 125.377C52.1529 125.163 53.4846 125.004 56.2013 124.631C58.9181 125.856 60.3031 126.442 63.0731 127.561C65.7898 127.081 67.1216 126.762 69.8916 126.176C72.7148 127.134 74.1531 127.614 76.9764 128.466C79.6931 127.667 81.0781 127.294 83.7949 126.389C86.6714 127.081 88.163 127.401 91.0395 127.987C93.7563 126.921 95.088 126.389 97.8047 125.217C100.788 125.643 102.226 125.803 105.209 126.069C107.873 124.737 109.204 124.045 111.868 122.606C114.851 122.713 116.396 122.713 119.379 122.66C121.989 121.062 123.268 120.209 125.878 118.505C129.234 118.185 130.938 118.025 134.294 117.546C134.081 118.824 134.028 119.464 133.815 120.689C130.992 121.062 129.607 121.221 126.837 121.488C124.173 123.246 122.895 124.098 120.231 125.749C117.195 125.803 115.65 125.803 112.614 125.696C109.897 127.134 108.565 127.827 105.848 129.212C102.865 128.946 101.321 128.786 98.3374 128.36C95.6207 129.532 94.2357 130.064 91.4657 131.13C88.5359 130.544 87.0443 130.224 84.1145 129.532C81.3445 130.437 80.0128 130.81 77.2427 131.609C74.3662 130.757 72.9279 130.277 70.1047 129.318C67.3346 129.904 66.0029 130.224 63.2329 130.703C60.4629 129.585 59.0246 128.999 56.2546 127.72C53.5379 128.04 52.1529 128.2 49.4361 128.466C46.7194 127.081 45.3876 126.335 42.7242 124.844C40.2738 124.897 39.0486 124.95 36.6515 124.897C36.1188 123.725 35.9057 123.086 35.4263 121.861Z" fill="#4F95FF"/>
<path d="M34.6805 135.178C37.557 135.125 39.0486 135.072 41.9784 134.965C44.6419 136.403 46.0269 137.096 48.7436 138.374C51.4071 138.055 52.7388 137.895 55.4023 137.469C58.1723 138.641 59.5573 139.173 62.3806 140.239C65.044 139.653 66.3758 139.386 69.0925 138.694C71.9691 139.599 73.4073 140.026 76.2839 140.825C78.9473 139.972 80.2791 139.546 82.9425 138.641C85.8724 139.28 87.3639 139.546 90.2937 140.079C92.9572 138.96 94.2889 138.428 96.8991 137.202C99.8822 137.522 101.374 137.682 104.357 137.895C106.967 136.51 108.299 135.817 110.856 134.326C113.892 134.326 115.384 134.326 118.42 134.219C120.977 132.568 122.255 131.716 124.759 130.011C128.115 129.638 129.82 129.425 133.176 128.892C133.016 130.118 132.963 130.757 132.856 132.035C130.033 132.461 128.648 132.674 125.824 132.994C123.267 134.752 121.936 135.658 119.379 137.309C116.289 137.415 114.744 137.469 111.708 137.415C109.045 138.907 107.766 139.599 105.103 141.038C102.066 140.825 100.575 140.718 97.5384 140.345C94.8749 141.57 93.5432 142.156 90.8264 143.275C87.8433 142.796 86.3518 142.476 83.422 141.837C80.7052 142.796 79.3735 143.222 76.6568 144.074C73.7269 143.275 72.2887 142.849 69.4121 141.943C66.6954 142.636 65.3637 142.955 62.6469 143.488C59.8236 142.423 58.3854 141.837 55.6153 140.665C52.8986 141.091 51.5669 141.251 48.8501 141.57C46.0801 140.239 44.7484 139.546 42.0317 138.108C39.6345 138.214 38.4093 138.268 36.0122 138.321C35.4795 137.096 35.2132 136.457 34.6805 135.178Z" fill="#4F95FF"/>
<path d="M33.8815 148.442C36.758 148.336 38.1963 148.229 41.0728 148.016C43.7896 149.401 45.1746 150.04 47.9446 151.265C50.5548 150.893 51.8865 150.68 54.55 150.2C57.3733 151.319 58.8115 151.851 61.6348 152.81C64.245 152.171 65.5768 151.851 68.2402 151.106C71.1168 151.958 72.6083 152.331 75.4849 153.023C78.0951 152.118 79.4268 151.638 82.037 150.68C85.0201 151.212 86.4584 151.479 89.4414 151.905C92.0516 150.733 93.3301 150.147 95.9403 148.922C98.9767 149.188 100.468 149.294 103.505 149.454C106.061 148.069 107.34 147.324 109.897 145.832C112.933 145.779 114.478 145.725 117.514 145.566C120.018 143.914 121.243 143.062 123.694 141.304C127.103 140.878 128.808 140.612 132.163 140.026C132.057 141.251 132.057 141.89 131.95 143.115C129.127 143.595 127.742 143.808 124.919 144.181C122.415 145.992 121.137 146.844 118.633 148.549C115.543 148.709 113.999 148.762 110.909 148.815C108.352 150.36 107.02 151.106 104.463 152.491C101.427 152.331 99.8822 152.278 96.8459 152.011C94.2357 153.29 92.904 153.876 90.2938 155.048C87.2574 154.621 85.7659 154.355 82.7828 153.822C80.1193 154.835 78.7876 155.314 76.1241 156.22C73.1943 155.527 71.7027 155.101 68.7729 154.302C66.1095 155.048 64.7777 155.367 62.1142 156.006C59.2377 154.994 57.7994 154.515 54.9229 153.396C52.2594 153.876 50.9277 154.089 48.2642 154.462C45.4409 153.183 44.0559 152.544 41.3392 151.159C38.9421 151.372 37.7701 151.425 35.373 151.532C34.787 150.307 34.4674 149.667 33.8815 148.442Z" fill="#4F95FF"/>
<path d="M33.1357 161.546C35.959 161.333 37.3972 161.227 40.2738 160.907C43.0438 162.186 44.4288 162.825 47.2521 163.997C49.8623 163.571 51.1407 163.304 53.7509 162.772C56.6275 163.784 58.0658 164.316 60.9423 165.222C63.5525 164.53 64.831 164.157 67.3879 163.358C70.3177 164.103 71.8093 164.476 74.7391 165.116C77.296 164.157 78.5745 163.677 81.1847 162.612C84.1678 163.091 85.6593 163.304 88.6957 163.677C91.2526 162.452 92.4778 161.866 95.0347 160.588C98.0711 160.801 99.6159 160.854 102.652 160.96C105.156 159.522 106.381 158.776 108.885 157.232C111.974 157.125 113.466 157.072 116.556 156.859C118.953 155.154 120.178 154.302 122.575 152.544C125.984 152.065 127.689 151.798 131.098 151.159C131.045 152.384 131.045 152.97 130.992 154.195C128.168 154.728 126.783 154.941 123.96 155.367C121.51 157.178 120.284 158.084 117.834 159.789C114.744 160.055 113.146 160.108 110.057 160.215C107.553 161.76 106.275 162.559 103.771 163.997C100.681 163.944 99.1365 163.89 96.0468 163.677C93.4899 165.009 92.2114 165.595 89.6545 166.82C86.6182 166.447 85.0733 166.234 82.037 165.755C79.4268 166.82 78.1483 167.3 75.5381 168.258C72.555 167.619 71.0635 167.246 68.0804 166.501C65.4702 167.3 64.1385 167.672 61.5283 168.365C58.5985 167.459 57.1602 166.98 54.2304 165.915C51.6202 166.447 50.2884 166.714 47.6782 167.14C44.8549 165.968 43.4167 165.329 40.5934 164.05C38.2495 164.316 37.0776 164.423 34.7338 164.583C34.0945 163.411 33.7749 162.772 33.1357 161.546Z" fill="#4F95FF"/>
<path d="M54.4967 116.906C54.4967 116.906 57.3732 127.507 79.5866 130.17C101.853 132.78 102.066 118.771 97.1655 110.887C92.2647 103.003 58.4386 104.921 54.8163 108.703C51.194 112.485 54.4967 116.906 54.4967 116.906Z" fill="white"/>
</g>
<path d="M34.8936 180.617L32.4965 160.854" stroke="#693333" stroke-width="1.65692" stroke-miterlimit="10" stroke-linecap="round" stroke-linejoin="round"/>
<path d="M127.902 154.142C127.902 154.142 126.304 158.03 126.783 161.919C127.263 165.808 128.648 171.507 126.677 180.616" stroke="#693333" stroke-width="1.65692" stroke-miterlimit="10" stroke-linecap="round" stroke-linejoin="round"/>
<path d="M47.1988 111.473C48.2109 111.153 49.9688 111.473 50.5015 112.378C52.579 115.788 57.5863 125.749 59.6638 145.512C61.3152 160.96 58.8115 188.767 58.8115 188.767L7.1402 186.316C7.1402 186.316 8.68501 160.054 13.2129 142.422C17.6343 125.323 29.247 117.652 47.1988 111.473Z" fill="#505050"/>
<path d="M100.788 114.722C100.788 114.722 117.248 145.672 112.454 187.009H148.038C148.038 187.009 147.825 158.936 139.834 141.144C131.844 123.352 103.877 113.391 103.877 113.391C103.877 113.391 102.12 114.243 100.788 114.722Z" fill="#505050"/>
<path d="M100.788 114.723L99.5093 114.35C99.5093 114.35 101.374 113.444 102.173 112.911L102.652 112.645C102.652 112.645 105.209 113.817 106.115 114.243C107.02 114.669 102.972 116.64 102.972 116.64C102.972 116.64 100.948 114.776 100.788 114.723Z" fill="#7E5D6D"/>
<path d="M59.0778 140.558C59.0778 140.558 57.2667 135.391 53.1649 130.81C49.3828 126.548 42.4578 119.943 41.9784 118.451C41.0728 115.415 46.7193 103.962 55.5621 99.9668C55.5621 100.02 55.5621 100.073 55.5621 100.127C55.5621 100.18 55.5621 100.233 55.5621 100.34C55.5621 100.446 55.5621 100.553 55.6153 100.659C55.6153 100.819 55.6686 100.979 55.6686 101.139C55.6686 101.245 55.6686 101.299 55.7219 101.405C56.0948 104.601 56.4144 108.17 56.6807 111.952V112.006C56.6807 112.006 54.2303 112.805 55.9882 125.003C56.4677 127.933 58.2788 133.154 59.0778 140.558Z" fill="#EBEBEB"/>
<path d="M110.11 142.209C110.11 142.209 106.541 128.359 104.783 123.938C103.025 119.57 99.7224 114.616 99.5626 114.349C101.64 113.391 103.504 112.165 105.156 110.727C106.807 109.289 108.139 107.851 109.258 106.412C110.589 107.904 118.526 116.853 119.379 121.754C120.338 127.187 113.413 129.531 110.11 142.209Z" fill="#EBEBEB"/>
<path d="M92.5136 65.1287C93.6709 65.2885 94.5651 64.0633 94.1443 62.8914C93.9339 62.2521 93.5656 61.6662 92.987 61.2933C91.1985 60.1746 84.5178 60.0681 80.9934 62.625C77.8898 64.9689 87.2532 64.3829 92.5136 65.1287Z" fill="#423232"/>
<path d="M107.085 65.7144C106.138 65.7144 105.559 64.4892 106.032 63.4771C106.295 62.9444 106.664 62.4649 107.19 62.1986C108.82 61.3996 113.187 61.879 115.133 64.5957C116.869 66.9928 111.451 65.6611 107.085 65.7144Z" fill="#423232"/>
<path d="M90.6723 71.8405C87.3056 70.1359 81.9927 71.4144 81.9927 71.4144" stroke="#423232" stroke-width="1.65692" stroke-miterlimit="10" stroke-linecap="round" stroke-linejoin="round"/>
<path d="M111.451 72.906C111.451 72.906 110.083 71.4145 105.033 72.5864" stroke="#423232" stroke-width="1.65692" stroke-miterlimit="10" stroke-linecap="round" stroke-linejoin="round"/>
<path d="M99.7041 95.9382C99.7593 97.7608 97.053 102.4 91.8061 100.246C86.7802 98.2027 85.2889 88.5925 92.4689 93.1767C96.2246 95.5516 98.489 95.9382 99.7041 95.9382Z" fill="white"/>
<path d="M100.753 95.7173C100.753 95.7173 98.4337 96.9876 92.4689 93.1767C85.3441 88.5925 86.7801 98.2027 91.8061 100.246C97.053 102.4 99.7593 97.7056 99.7041 95.9382" stroke="#423232" stroke-width="1.65692" stroke-miterlimit="10" stroke-linecap="round" stroke-linejoin="round"/>
<path d="M87.6086 94.5574C87.6086 94.5574 91.3643 97.0427 92.4689 96.8218C93.6287 96.6561 93.463 98.2578 98.7099 98.4235" stroke="#423232" stroke-width="1.65692" stroke-miterlimit="10" stroke-linecap="round" stroke-linejoin="round"/>
<path d="M129.786 64.6704C129.04 64.6704 127.388 64.5638 126.643 64.5638C126.376 62.3798 125.897 58.9705 125.897 60.0892C125.897 61.1013 125.631 63.1788 125.418 64.5638C124.618 64.5638 123.766 64.5106 122.967 64.4573C123.02 59.7163 121.049 53.324 120.89 52.9511C121.635 57.5323 121.369 61.9536 121.156 64.3507C119.931 64.2975 118.706 64.1909 117.374 64.1377C117.747 55.8809 114.444 51.5128 112.207 50.3942C110.289 49.4353 104.802 50.9801 102.086 50.6072C89.8868 48.9559 80.032 45.6532 73.2668 50.0745C66.5016 54.4959 68.1529 73.7262 65.6492 76.656C65.2231 75.1644 63.1456 69.0917 56.3271 69.944C49.8815 70.7431 47.4311 85.6585 60.7485 90.7724C60.6419 93.7022 57.9252 99.1357 55.7411 100.361C55.7411 100.361 55.3682 96.4722 51.1067 91.3583C46.8451 86.2445 38.322 72.0215 44.0751 52.6315C49.8282 33.2414 66.9277 22.0548 98.3567 31.1106C98.3567 31.1106 112.26 26.1033 123.02 37.1301C129.519 43.6822 132.449 55.7211 129.786 64.6704Z" fill="#241515"/>
<path d="M98.4099 31.0571C98.4099 31.0571 86.4776 24.0788 60.1092 24.9844C38.4286 25.7302 49.1357 36.6504 49.1357 36.6504C49.1357 36.6504 32.9418 36.8635 29.4793 42.3502C26.0701 47.837 36.0847 51.7256 36.0847 51.7256C36.0847 51.7256 23.9393 55.7741 28.7335 62.4328C33.5278 69.0915 54.2496 65.2028 54.2496 65.2028C54.2496 65.2028 57.4457 52.791 69.8575 43.7885C78.9133 37.1831 98.3034 34.0402 98.4099 31.0571Z" fill="#241515"/>
<path opacity="0.6" d="M92.7753 82.8744C92.7753 82.8744 87.768 86.0173 82.1215 85.964C76.4749 85.9108 75.7824 81.4894 75.7291 79.0923C75.7291 79.0923 76.4749 82.5548 79.8841 83.8333C83.2401 85.1117 92.7753 82.8744 92.7753 82.8744Z" fill="#B7AEA9"/>
<path opacity="0.6" d="M108.863 82.2881C108.863 82.2881 110.088 83.7796 111.739 84.845C112.858 85.5908 114.349 84.7917 114.349 83.46C114.403 83.46 111.26 83.6198 108.863 82.2881Z" fill="#B7AEA9"/>
<path opacity="0.43" d="M94.7463 67.7993L79.0851 83.4605C80.3103 84.2063 81.8018 84.5792 83.2934 84.3661L90.7511 83.4072C92.9884 83.0876 95.0659 81.969 96.664 80.1045C97.3032 79.412 97.6761 78.4532 97.7294 77.4411L97.9957 72.1674C98.1022 69.8768 96.664 67.9591 94.7463 67.7993Z" fill="#FE9DAB"/>
<path opacity="0.3" d="M94.7464 67.7992L79.7777 66.4141C77.274 66.2011 75.1432 68.4917 75.1432 71.3682V75.8961C75.1432 79.1988 76.7413 82.0221 79.0852 83.4604L94.7464 67.7992Z" fill="#FE9DAB"/>
<path opacity="0.3" d="M116.587 67.2664L107.211 68.4916C105.986 68.6514 105.081 70.4093 105.187 72.4335L105.347 77.1745C105.4 78.0801 105.613 78.9324 105.986 79.5716C106.625 80.637 107.424 81.436 108.277 81.9687L119.41 70.8354C119.197 68.7047 117.972 67.1066 116.587 67.2664Z" fill="#FE9DAB"/>
<path opacity="0.43" d="M108.33 82.0219C108.809 82.2883 109.236 82.5014 109.768 82.6079L114.403 83.5135C117.119 84.0462 119.517 80.4771 119.517 75.8427V71.7942C119.517 71.4746 119.517 71.2082 119.463 70.9419L108.33 82.0219Z" fill="#FE9DAB"/>
<path d="M94.7464 67.7992L79.7777 66.4141C77.274 66.2011 75.1432 68.4917 75.1432 71.3682V75.8961C75.1432 81.01 78.9786 84.9519 83.2935 84.3659L90.7512 83.4071C92.9885 83.0875 95.066 81.9688 96.6641 80.1044C97.3033 79.4119 97.6762 78.453 97.7295 77.4409L97.9958 72.1672C98.1023 69.8767 96.6641 67.959 94.7464 67.7992Z" stroke="white" stroke-width="1.78809" stroke-miterlimit="10" stroke-linecap="round" stroke-linejoin="round"/>
<path d="M107.265 68.5449L116.64 67.3197C118.185 67.1067 119.516 69.1842 119.516 71.7944V75.8428C119.516 80.424 117.119 83.9931 114.403 83.5136L109.768 82.6081C108.383 82.3417 107.051 81.2763 106.093 79.625C105.72 78.9857 105.453 78.1334 105.453 77.2278L105.294 72.4869C105.134 70.4626 106.039 68.7047 107.265 68.5449Z" stroke="white" stroke-width="1.78809" stroke-miterlimit="10" stroke-linecap="round" stroke-linejoin="round"/>
<path d="M75.1431 71.9006L62.8379 71.6343" stroke="white" stroke-width="1.65692" stroke-miterlimit="10" stroke-linecap="round" stroke-linejoin="round"/>
<path d="M97.9957 72.2738C97.9957 72.2738 104.441 70.9953 105.24 72.2738" stroke="white" stroke-width="1.78809" stroke-miterlimit="10" stroke-linecap="round" stroke-linejoin="round"/>
</g>
<defs>
<filter id="filter0_i_1198_50826" x="0.838013" y="0.398926" width="159.808" height="159.808" filterUnits="userSpaceOnUse" color-interpolation-filters="sRGB">
<feFlood flood-opacity="0" result="BackgroundImageFix"/>
<feBlend mode="normal" in="SourceGraphic" in2="BackgroundImageFix" result="shape"/>
<feColorMatrix in="SourceAlpha" type="matrix" values="0 0 0 0 0 0 0 0 0 0 0 0 0 0 0 0 0 0 127 0" result="hardAlpha"/>
<feOffset/>
<feGaussianBlur stdDeviation="1.65692"/>
<feComposite in2="hardAlpha" operator="arithmetic" k2="-1" k3="1"/>
<feColorMatrix type="matrix" values="0 0 0 0 0 0 0 0 0 0 0 0 0 0 0 0 0 0 0.25 0"/>
<feBlend mode="normal" in2="shape" result="effect1_innerShadow_1198_50826"/>
</filter>
</defs>
</svg>
