<svg width="161" height="160" viewBox="0 0 161 160" fill="none" xmlns="http://www.w3.org/2000/svg">
<mask id="mask0_1198_50957" style="mask-type:alpha" maskUnits="userSpaceOnUse" x="0" y="0" width="161" height="160">
<path d="M80.9005 159.809C36.7331 159.809 0.996338 124.019 0.996338 79.9046C0.996338 35.7373 36.7862 0.000488281 80.9005 0.000488281C125.068 0.000488281 160.805 35.7903 160.805 79.9046C160.858 124.072 125.068 159.809 80.9005 159.809Z" fill="#F7C0B5"/>
</mask>
<g mask="url(#mask0_1198_50957)">
<g filter="url(#filter0_i_1198_50957)">
<g filter="url(#filter1_d_1198_50957)">
<path d="M80.9041 159.808C36.7368 159.808 1 124.018 1 79.9041C1 35.7368 36.7898 0 80.9041 0C125.071 0 160.808 35.7898 160.808 79.9041C160.861 124.071 125.071 159.808 80.9041 159.808Z" fill="white"/>
</g>
</g>
<path d="M125.863 147.188C125.49 147.454 125.064 147.721 124.691 147.987C124.265 148.253 123.892 148.52 123.466 148.733C123.093 148.946 122.774 149.159 122.401 149.372C122.348 149.425 122.294 149.425 122.241 149.479C121.016 150.224 119.737 150.917 118.459 151.556C118.086 151.769 117.66 151.982 117.287 152.142C117.287 152.142 117.234 152.195 117.18 152.195C116.754 152.408 116.328 152.621 115.902 152.835C115.05 153.261 114.144 153.634 113.292 154.006C112.866 154.22 112.386 154.379 111.96 154.539C111.534 154.699 111.054 154.912 110.628 155.072C110.202 155.232 109.723 155.445 109.297 155.605C109.297 155.605 109.297 155.605 109.243 155.605C108.817 155.764 108.338 155.924 107.912 156.084C106.953 156.404 105.941 156.723 104.982 157.043C104.662 157.149 104.289 157.256 103.97 157.362C102.958 157.682 101.945 157.948 100.933 158.161C100.56 158.268 100.188 158.321 99.7614 158.428C98.8025 158.641 97.7904 158.854 96.8316 159.067C96.6185 159.12 96.4587 159.12 96.2456 159.174C95.926 159.227 95.5531 159.28 95.2335 159.333C94.754 159.387 94.3279 159.493 93.8485 159.546C93.6354 159.6 93.4223 159.6 93.2092 159.653C92.9429 159.706 92.6233 159.76 92.3036 159.76C91.4513 159.866 90.5458 159.973 89.6935 160.079C89.4271 160.132 89.1075 160.132 88.8411 160.186H88.7879C88.415 160.239 88.0421 160.239 87.6692 160.292C87.2963 160.346 86.9234 160.346 86.5506 160.346C86.3375 160.346 86.0711 160.399 85.8581 160.399C85.4319 160.399 85.059 160.452 84.6861 160.452C84.1534 160.452 83.674 160.505 83.1413 160.505C82.6086 160.505 82.1292 160.505 81.5965 160.505C81.2236 160.505 80.8507 160.505 80.4778 160.505C58.0514 160.186 37.8091 150.65 23.4263 135.522C23.4263 135.522 23.4263 135.469 23.373 135.469C25.0244 132.219 31.1504 126.36 37.5427 121.512C45.6397 115.386 57.0926 111.604 57.0926 111.604C57.0926 111.604 64.6036 110.379 92.4635 116.185C113.718 120.66 122.774 138.825 125.863 147.188Z" fill="#FDEDE1"/>
<path d="M98.3765 130.941C97.2578 136.427 90.0132 139.677 77.8145 134.776C62.8458 128.703 57.0927 111.604 57.0927 111.604C56.2936 99.3519 54.4292 88.8579 54.4292 88.8579C71.7418 87.3663 92.1972 107.609 92.1972 107.609L94.5411 117.623C94.7541 118.476 95.1803 119.221 95.8195 119.754C96.9382 121.672 99.1222 127.425 98.3765 130.941Z" fill="#FDEDE1"/>
<path d="M95.8195 119.807C85.645 119.275 78.134 117.783 70.0903 103.347C76.9088 109.367 84.9525 111.657 93.4223 112.723L94.541 117.623C94.7541 118.529 95.1802 119.275 95.8195 119.807Z" fill="#EFBDA5"/>
<path d="M116.861 55.6178C117.82 60.0924 118.299 63.7147 115.689 75.6471C113.079 87.5794 118.086 99.5118 105.515 110.432C97.0447 117.783 82.2358 119.168 70.41 111.125C66.4148 108.408 62.7392 104.626 59.7561 99.6716C57.4123 95.7829 54.6955 92.1073 51.6592 88.7514C47.4509 84.1702 42.3903 74.9546 44.894 58.6541C48.9424 32.126 75.2042 29.0896 90.7056 32.0194C106.207 34.9493 114.251 43.792 116.861 55.6178Z" fill="#FDEDE1"/>
<path d="M65.8821 76.4464C65.8821 76.4464 64.2307 68.456 56.4534 69.4148C49.7414 70.2671 47.3976 86.3545 62.6326 90.8291" fill="#FDEDE1"/>
<path d="M62.1533 83.5309C62.1533 83.5309 60.2356 82.3057 60.4486 80.1749C60.7682 77.6713 60.4486 76.1265 59.2767 75.647C56.3469 74.4218 55.7609 77.8311 55.8675 78.2572" stroke="#423232" stroke-width="1.65692" stroke-miterlimit="10" stroke-linecap="round" stroke-linejoin="round"/>
<path d="M102.798 88.6983C102.798 88.6983 104.822 88.8048 106.74 86.5142C107.805 85.2358 108.711 83.6377 108.125 83.1583C107.539 82.6256 97.897 84.1171 97.2577 85.3956C96.6185 86.674 100.347 88.6983 102.798 88.6983Z" fill="#EFBDA5"/>
<path d="M104.396 70.7993C104.396 70.7993 104.502 75.8599 107.752 81.5065C109.19 84.0101 107.006 88.1119 102.265 88.8044" stroke="#423232" stroke-width="1.65692" stroke-miterlimit="10" stroke-linecap="round" stroke-linejoin="round"/>
<path opacity="0.42" d="M75.5239 91.4147C78.5541 91.4147 81.0106 89.3875 81.0106 86.8868C81.0106 84.3861 78.5541 82.3589 75.5239 82.3589C72.4936 82.3589 70.0371 84.3861 70.0371 86.8868C70.0371 89.3875 72.4936 91.4147 75.5239 91.4147Z" fill="#F0ACB8"/>
<path opacity="0.42" d="M114.837 82.4653C114.677 85.4484 114.73 88.3782 114.517 91.3081C112.173 90.7754 110.469 89.0175 110.469 86.94C110.469 84.7026 112.333 82.8915 114.837 82.4653Z" fill="#F0ACB8"/>
<path d="M131.076 137.218C123.512 127.47 111.792 123.422 105.347 121.024C104.814 118.361 96.9301 115.165 94.0003 115.804L94.4264 117.562C94.6395 118.414 95.7049 122.356 94.0535 127.417C92.6685 131.678 87.0753 133.596 77.5933 129.281C59.1088 120.918 56.978 111.489 56.978 111.489C56.7117 107.174 41.3168 117.402 35.2974 122.836C32.3143 125.499 31.0358 126.618 27.9462 129.015C21.181 134.182 13.1373 141.64 10.101 151.921C4.98709 169.393 5.8394 180.1 5.8394 180.1H143.381C143.381 180.153 141.357 150.482 131.076 137.218Z" fill="#845C53"/>
<path d="M126.068 153.625C126.068 153.625 129.052 170.352 127.88 180.154" stroke="#B38B8B" stroke-width="1.65692" stroke-miterlimit="10" stroke-linecap="round" stroke-linejoin="round"/>
<path d="M33.8058 126.085C33.8058 126.085 30.4499 134.768 35.0843 138.23C39.7187 141.64 48.9343 139.935 48.9343 139.935C48.9343 139.935 49.5736 150.909 58.4163 151.761C67.259 152.613 72.3729 145.954 72.3729 145.954C72.3729 145.954 79.6175 155.756 90.0051 155.064C100.393 154.318 99.9132 142.226 99.9132 142.226C99.9132 142.226 104.015 144.942 108.969 143.078C114.988 140.841 112.911 130.933 108.969 128.163C108.969 128.163 116.959 129.228 114.509 124.807C112.005 120.385 100.765 115.218 93.8937 115.857C93.8937 115.857 94.9591 124.114 86.8622 125.765C77.0073 127.736 65.874 123.528 60.1209 115.271C56.4453 109.998 56.8715 109.785 53.7286 110.53C50.5857 111.276 32.4741 121.078 33.8058 126.085Z" fill="white"/>
<path d="M46.5905 113.993C47.3895 116.071 46.2708 116.071 47.7091 118.415C48.4016 119.533 50.1062 120.172 51.1716 121.504C52.0239 122.57 52.237 124.434 53.3557 125.553C54.3678 126.565 56.1789 126.778 57.4041 127.79C58.5228 128.696 59.1088 130.453 60.4405 131.252C61.6657 131.998 63.4769 131.838 64.8619 132.478C66.1403 133.117 67.1524 134.662 68.5907 135.141C69.9757 135.621 71.6803 135.035 73.2252 135.354C75.0896 135.78 76.6877 137.165 78.3923 137.378C80.3633 137.645 82.2277 136.686 83.879 136.686C85.85 136.686 87.7677 137.538 89.3658 137.219C91.3368 136.846 92.6685 135.248 94.16 134.449C95.9179 133.543 97.9422 133.277 99.1141 131.998C100.393 130.613 100.393 128.482 101.032 126.831C101.724 125.073 103.109 123.528 103.216 121.77C103.322 119.853 102.097 118.095 101.671 116.497" stroke="#E2E2E2" stroke-width="1.65692" stroke-miterlimit="10" stroke-linecap="round" stroke-linejoin="round"/>
<path d="M47.3895 126.298C47.3895 126.298 35.8833 126.617 39.6655 131.891C43.4476 137.112 47.3895 126.298 47.3895 126.298Z" fill="#845C53"/>
<path d="M62.3582 137.271C62.3582 137.271 52.823 143.344 58.6293 145.848C64.4357 148.352 62.3582 137.271 62.3582 137.271Z" fill="#845C53"/>
<path d="M88.993 140.84C88.993 140.84 85.051 151.015 91.0172 149.63C96.9834 148.298 88.993 140.84 88.993 140.84Z" fill="#845C53"/>
<path d="M103.589 132.69C103.589 132.69 105.134 141.64 108.809 138.124C112.431 134.555 103.589 132.69 103.589 132.69Z" fill="#845C53"/>
<path d="M106.412 120.971C106.412 120.971 110.407 127.257 112.112 124.594C113.817 121.877 106.412 120.971 106.412 120.971Z" fill="#845C53"/>
<path d="M59.748 114.632C59.748 114.632 56.0724 116.55 55.0603 118.308" stroke="#E2E2E2" stroke-width="1.65692" stroke-miterlimit="10" stroke-linecap="round" stroke-linejoin="round"/>
<path d="M65.075 119.853C65.075 119.853 62.0387 123.475 61.6658 124.753" stroke="#E2E2E2" stroke-width="1.65692" stroke-miterlimit="10" stroke-linecap="round" stroke-linejoin="round"/>
<path d="M71.9468 124.274C71.9468 124.274 70.3487 127.417 69.8693 129.121" stroke="#E2E2E2" stroke-width="1.65692" stroke-miterlimit="10" stroke-linecap="round" stroke-linejoin="round"/>
<path d="M79.8305 126.298C79.8305 126.298 79.6175 129.228 79.8305 131.412" stroke="#E2E2E2" stroke-width="1.65692" stroke-miterlimit="10" stroke-linecap="round" stroke-linejoin="round"/>
<path d="M87.7145 125.712C87.7145 125.712 88.7799 128.908 89.206 130.932" stroke="#E2E2E2" stroke-width="1.65692" stroke-miterlimit="10" stroke-linecap="round" stroke-linejoin="round"/>
<path d="M92.8284 121.61C92.8284 121.61 95.7582 123.741 96.2376 125.233" stroke="#E2E2E2" stroke-width="1.65692" stroke-miterlimit="10" stroke-linecap="round" stroke-linejoin="round"/>
<path d="M94.0002 117.029C94.0002 117.029 96.717 117.136 97.8356 118.84" stroke="#E2E2E2" stroke-width="1.65692" stroke-miterlimit="10" stroke-linecap="round" stroke-linejoin="round"/>
<path d="M85.0754 76.1481C83.7969 76.0949 82.8381 75.0295 82.9446 73.751L82.9979 72.2595C83.0511 70.981 84.1165 70.0222 85.395 70.1287C86.6735 70.182 87.6323 71.2473 87.5258 72.5258L87.4725 74.0174C87.4192 75.2426 86.3539 76.2014 85.0754 76.1481Z" fill="#423232"/>
<path d="M107.502 76.9471C106.33 76.8939 105.424 75.8817 105.478 74.7098L105.531 73.3248C105.584 72.1529 106.596 71.2473 107.768 71.3006C108.94 71.3538 109.846 72.366 109.792 73.5379L109.739 74.9229C109.686 76.0948 108.674 77.0004 107.502 76.9471Z" fill="#423232"/>
<path d="M90.2426 73.0585C90.2426 73.0585 88.8576 71.0875 86.4605 70.7147C84.4895 70.395 82.3055 71.3539 81.9858 72.4725" stroke="#423232" stroke-width="1.65692" stroke-miterlimit="10" stroke-linecap="round" stroke-linejoin="round"/>
<path d="M105.957 73.5381C105.957 73.5381 105.957 71.8335 108.407 71.8335C110.432 71.8335 111.284 73.6979 111.284 73.6979" stroke="#423232" stroke-width="1.65692" stroke-miterlimit="10" stroke-linecap="round" stroke-linejoin="round"/>
<path d="M92.4265 64.4821C93.5452 64.855 94.6638 63.8429 94.4508 62.6177C94.3442 61.9785 94.0779 61.3392 93.5452 60.8598C91.9471 59.4215 85.3417 58.1431 81.3465 60.0075C77.8307 61.7121 87.3127 62.7775 92.4265 64.4821Z" fill="#423232"/>
<path d="M108.354 65.3346C107.448 65.6543 106.489 64.6954 106.649 63.5768C106.703 62.9908 106.916 62.4048 107.342 61.9787C108.62 60.7002 112.988 59.6881 115.758 61.6591C118.155 63.3104 112.509 63.7898 108.354 65.3346Z" fill="#423232"/>
<path d="M99.8703 95.5407C99.9255 97.3634 97.2192 102.003 91.9723 99.8487C86.9463 97.8052 85.4551 88.1951 92.6351 92.7792C96.3907 95.1541 98.6552 95.5407 99.8703 95.5407Z" fill="white"/>
<path d="M100.92 95.3198C100.92 95.3198 98.5998 96.5901 92.6349 92.7792C85.5102 88.1951 86.9462 97.8052 91.9722 99.8487C97.2191 102.003 99.9254 97.3081 99.8701 95.5407" stroke="#423232" stroke-width="1.65692" stroke-miterlimit="10" stroke-linecap="round" stroke-linejoin="round"/>
<path d="M87.7747 94.1602C87.7747 94.1602 91.5303 96.6455 92.6349 96.4246C93.7948 96.2589 93.6291 97.8606 98.876 98.0263" stroke="#423232" stroke-width="1.65692" stroke-miterlimit="10" stroke-linecap="round" stroke-linejoin="round"/>
<path d="M116.819 55.6423C116.659 54.8432 116.446 53.9909 116.18 53.1919C115.913 52.3928 115.274 51.7003 114.422 51.5405C111.652 51.0611 108.988 52.4461 105.153 51.9134C92.9542 50.2621 84.804 45.0949 73.3511 49.5696C61.5253 54.1507 68.2372 73.2212 65.7335 76.151C65.3074 74.6595 63.2299 68.5867 56.4114 69.4391C49.9658 70.2381 47.5154 85.1535 60.8328 90.2674C60.7262 93.1972 55.4525 95.9672 51.191 90.8534C46.9294 85.7395 38.4063 72.4754 44.1594 53.0853C49.9125 33.6953 75.9613 23.5741 100.199 33.4289C104.354 35.1336 107.017 38.8091 110.48 40.0343C117.565 42.6445 117.618 59.4777 116.819 55.6423Z" fill="black"/>
<path d="M60.886 90.3206C60.886 90.3206 60.7795 94.6887 56.3048 102.786C56.3048 102.786 55.2395 98.311 52.8956 94.2092C50.605 90.1075 46.0771 81.5311 43.3071 72.9547C40.5371 64.3784 45.651 75.0322 48.2612 78.6013C50.8181 82.1171 52.5227 90.8533 60.886 90.3206Z" fill="black"/>
<path d="M53.3749 86.0057C53.3749 86.0057 51.8834 95.9671 61.4186 108.539C70.9538 121.11 71.4865 134.001 67.9707 147.638C67.9707 147.638 62.4307 143.537 45.6509 131.498C28.871 119.459 24.8225 98.8969 46.876 79.5068C46.9293 79.5068 53.1618 80.6788 53.3749 86.0057Z" fill="black"/>
<path d="M91.569 43.0176C93.54 44.2428 95.6708 45.0418 97.9614 45.2016C100.785 45.4147 104.993 47.3324 111.172 52.9257C118.47 59.5311 114.848 16.3296 69.409 26.5574C53.8543 30.0199 42.7743 43.7634 40.8566 59.1582C40.75 60.2236 40.6435 61.289 40.5902 62.3544C40.1641 76.5241 51.617 88.8826 51.617 88.8826C51.617 88.8826 46.9293 69.1729 57.6364 61.0227C67.3315 53.6182 74.0967 44.9353 82.5665 44.9353C87.6804 44.882 90.3971 42.3251 91.569 43.0176Z" fill="black"/>
<path d="M93.0605 31.5644C93.0605 31.5644 109.201 62.3008 117.192 62.0345C125.182 61.7681 133.492 36.7315 116.552 27.2495C104.727 20.5909 93.0605 31.5644 93.0605 31.5644Z" fill="black"/>
<path d="M100.252 40.2473C100.252 40.2473 113.463 54.3637 107.23 58.4122C103.661 60.7028 100.252 53.7778 100.252 53.7778C100.252 53.7778 96.0437 60.6495 89.3317 57.187C82.6198 53.7778 87.0944 43.9229 87.0944 43.9229C87.0944 43.9229 96.2035 34.7606 100.252 40.2473Z" fill="black"/>
<path d="M88.4262 45.0414C88.4262 45.0414 86.029 59.584 74.7359 61.7148C63.4428 63.8455 62.1111 52.2328 62.1111 52.2328C62.1111 52.2328 78.8377 33.8549 88.4262 45.0414Z" fill="black"/>
<path d="M116.606 70.8773C116.606 70.8773 123.264 67.0952 122.891 57.6665C122.519 48.2378 117.564 54.6301 117.564 54.6301C117.564 54.6301 118.097 62.8869 116.606 70.8773Z" fill="black"/>
<path d="M93.1012 82.2491H80.6895C77.44 82.2491 74.8298 79.6389 74.8298 76.3895V71.3289C74.8298 68.0794 77.44 65.4692 80.6895 65.4692H93.1012C96.3507 65.4692 98.9609 68.0794 98.9609 71.3289V76.3895C98.9609 79.6389 96.2974 82.2491 93.1012 82.2491Z" stroke="#423232" stroke-width="1.65692" stroke-miterlimit="10" stroke-linecap="round" stroke-linejoin="round"/>
<path d="M114.515 65.4692H108.39C106.259 65.4692 104.501 67.2271 104.501 69.3579V73.9923C105.247 76.6558 106.312 79.2128 107.91 81.5033C108.07 81.5033 108.23 81.5566 108.39 81.5566H114.515C116.646 81.5566 118.404 79.7987 118.404 77.6679V69.3579C118.457 67.1739 116.7 65.4692 114.515 65.4692Z" stroke="#423232" stroke-width="1.65692" stroke-miterlimit="10" stroke-linecap="round" stroke-linejoin="round"/>
<path d="M98.9609 70.3166C100.772 70.1035 103.063 69.9437 104.98 70.1568" stroke="#423232" stroke-width="1.65692" stroke-miterlimit="10" stroke-linecap="round" stroke-linejoin="round"/>
<path d="M74.8299 70.6899L62.4714 71.1161" stroke="#423232" stroke-width="1.65692" stroke-miterlimit="10" stroke-linecap="round" stroke-linejoin="round"/>
</g>
<defs>
<filter id="filter0_i_1198_50957" x="1" y="0" width="159.808" height="159.808" filterUnits="userSpaceOnUse" color-interpolation-filters="sRGB">
<feFlood flood-opacity="0" result="BackgroundImageFix"/>
<feBlend mode="normal" in="SourceGraphic" in2="BackgroundImageFix" result="shape"/>
<feColorMatrix in="SourceAlpha" type="matrix" values="0 0 0 0 0 0 0 0 0 0 0 0 0 0 0 0 0 0 127 0" result="hardAlpha"/>
<feOffset/>
<feGaussianBlur stdDeviation="1.65692"/>
<feComposite in2="hardAlpha" operator="arithmetic" k2="-1" k3="1"/>
<feColorMatrix type="matrix" values="0 0 0 0 0 0 0 0 0 0 0 0 0 0 0 0 0 0 0.25 0"/>
<feBlend mode="normal" in2="shape" result="effect1_innerShadow_1198_50957"/>
</filter>
<filter id="filter1_d_1198_50957" x="-3" y="0" width="167.808" height="167.808" filterUnits="userSpaceOnUse" color-interpolation-filters="sRGB">
<feFlood flood-opacity="0" result="BackgroundImageFix"/>
<feColorMatrix in="SourceAlpha" type="matrix" values="0 0 0 0 0 0 0 0 0 0 0 0 0 0 0 0 0 0 127 0" result="hardAlpha"/>
<feOffset dy="4"/>
<feGaussianBlur stdDeviation="2"/>
<feComposite in2="hardAlpha" operator="out"/>
<feColorMatrix type="matrix" values="0 0 0 0 0 0 0 0 0 0 0 0 0 0 0 0 0 0 0.25 0"/>
<feBlend mode="normal" in2="BackgroundImageFix" result="effect1_dropShadow_1198_50957"/>
<feBlend mode="normal" in="SourceGraphic" in2="effect1_dropShadow_1198_50957" result="shape"/>
</filter>
</defs>
</svg>
