<svg width="161" height="161" viewBox="0 0 161 161" fill="none" xmlns="http://www.w3.org/2000/svg">
<mask id="mask0_1198_50927" style="mask-type:alpha" maskUnits="userSpaceOnUse" x="0" y="0" width="161" height="161">
<path d="M80.1426 160.109C35.9753 160.109 0.238525 124.32 0.238525 80.2054C0.238525 36.0381 36.0284 0.30127 80.1426 0.30127C124.31 0.30127 160.047 36.0911 160.047 80.2054C160.1 124.373 124.31 160.109 80.1426 160.109Z" fill="#F7C0B5"/>
</mask>
<g mask="url(#mask0_1198_50927)">
<g filter="url(#filter0_i_1198_50927)">
<g filter="url(#filter1_d_1198_50927)">
<path d="M80.1463 160.109C35.979 160.109 0.242188 124.319 0.242188 80.2049C0.242188 36.0376 36.032 0.300781 80.1463 0.300781C124.314 0.300781 160.05 36.0906 160.05 80.2049C160.103 124.372 124.314 160.109 80.1463 160.109Z" fill="white"/>
</g>
</g>
<path d="M124.893 147.489C124.52 147.755 124.094 148.021 123.721 148.288C123.295 148.554 122.922 148.82 122.496 149.034C122.123 149.247 121.803 149.46 121.43 149.673C121.377 149.726 121.324 149.726 121.27 149.779C120.045 150.525 118.767 151.218 117.488 151.857C117.115 152.07 116.689 152.283 116.316 152.443C116.316 152.443 116.263 152.496 116.21 152.496C115.784 152.709 115.358 152.922 114.931 153.135C114.079 153.561 113.174 153.934 112.321 154.307C111.895 154.52 111.416 154.68 110.989 154.84C110.563 155 110.084 155.213 109.658 155.373C109.232 155.532 108.752 155.746 108.326 155.905C108.326 155.905 108.326 155.905 108.273 155.905C107.847 156.065 107.367 156.225 106.941 156.385C105.982 156.704 104.97 157.024 104.011 157.344C103.692 157.45 103.319 157.557 102.999 157.663C101.987 157.983 100.975 158.249 99.9627 158.462C99.5898 158.569 99.2169 158.622 98.7908 158.729C97.8319 158.942 96.8198 159.155 95.861 159.368C95.6479 159.421 95.4881 159.421 95.275 159.474C94.9554 159.528 94.5825 159.581 94.2629 159.634C93.7835 159.687 93.3573 159.794 92.8779 159.847C92.6648 159.901 92.4517 159.901 92.2386 159.954C91.9723 160.007 91.6527 160.06 91.3331 160.06C90.4808 160.167 89.5752 160.273 88.7229 160.38C88.4565 160.433 88.1369 160.433 87.8706 160.486H87.8173C87.4444 160.54 87.0715 160.54 86.6986 160.593C86.3257 160.646 85.9529 160.646 85.58 160.646C85.3669 160.646 85.1005 160.7 84.8875 160.7C84.4613 160.7 84.0884 160.753 83.7155 160.753C83.1828 160.753 82.7034 160.806 82.1707 160.806C81.638 160.806 81.1586 160.806 80.6259 160.806C80.253 160.806 79.8801 160.806 79.5073 160.806C57.0808 160.486 36.8385 150.951 22.4557 135.823C22.4557 135.823 22.4557 135.769 22.4025 135.769C24.0538 132.52 30.1798 126.66 36.5721 121.813C44.6691 115.687 56.122 111.905 56.122 111.905C56.122 111.905 63.633 110.68 91.4929 116.486C112.747 120.961 121.803 139.125 124.893 147.489Z" fill="#FFE6D1"/>
<path d="M97.4058 131.241C96.2871 136.728 89.0425 139.978 76.8438 135.077C61.8751 129.004 56.122 111.905 56.122 111.905C55.3229 99.6527 53.4585 89.1586 53.4585 89.1586C70.7711 87.6671 91.2265 107.909 91.2265 107.909L93.5704 117.924C93.7834 118.776 94.2096 119.522 94.8488 120.055C95.9675 121.973 98.1515 127.726 97.4058 131.241Z" fill="#FFE6D1"/>
<path d="M94.8489 120.108C84.6744 119.575 77.1634 118.084 69.1198 103.648C75.9382 109.667 83.9819 111.958 92.4517 113.023L93.5704 117.924C93.7835 118.83 94.2096 119.575 94.8489 120.108Z" fill="#EFBDA5"/>
<path d="M115.89 55.9186C116.849 60.3932 117.329 64.0155 114.718 75.9479C112.108 87.8802 117.116 99.8126 104.544 110.733C96.0741 118.084 81.2652 119.469 69.4394 111.425C65.4442 108.709 61.7686 104.926 58.7855 99.9724C56.4417 96.0837 53.7249 92.4081 50.6886 89.0521C46.4803 84.471 41.4197 75.2554 43.9234 58.9549C47.9718 32.4268 74.2337 29.3904 89.7351 32.3202C105.236 35.25 113.28 44.0928 115.89 55.9186Z" fill="#FFE6D1"/>
<path d="M64.9115 76.7472C64.9115 76.7472 63.2601 68.7568 55.4828 69.7156C48.7709 70.5679 46.427 86.6553 61.6621 91.1299" fill="#FFE6D1"/>
<path d="M61.1827 83.8317C61.1827 83.8317 59.265 82.6065 59.4781 80.4757C59.7977 77.9721 59.4781 76.4272 58.3061 75.9478C55.3763 74.7226 54.7903 78.1319 54.8969 78.558" stroke="#423232" stroke-width="1.65692" stroke-miterlimit="10" stroke-linecap="round" stroke-linejoin="round"/>
<path d="M101.827 88.9991C101.827 88.9991 103.851 89.1056 105.769 86.815C106.834 85.5365 107.74 83.9385 107.154 83.459C106.568 82.9263 96.9264 84.4179 96.2871 85.6963C95.6479 86.9748 99.3768 88.9991 101.827 88.9991Z" fill="#EFBDA5"/>
<path d="M103.425 71.1001C103.425 71.1001 103.532 76.1607 106.781 81.8072C108.22 84.3109 106.036 88.4126 101.295 89.1051" stroke="#423232" stroke-width="1.65692" stroke-miterlimit="10" stroke-linecap="round" stroke-linejoin="round"/>
<path opacity="0.42" d="M74.5533 91.7155C77.5835 91.7155 80.04 89.6883 80.04 87.1876C80.04 84.6869 77.5835 82.6597 74.5533 82.6597C71.523 82.6597 69.0665 84.6869 69.0665 87.1876C69.0665 89.6883 71.523 91.7155 74.5533 91.7155Z" fill="#ED938A"/>
<path opacity="0.42" d="M113.866 82.7661C113.706 85.7492 113.759 88.679 113.546 91.6088C111.203 91.0761 109.498 89.3183 109.498 87.2407C109.498 85.0034 111.362 83.1923 113.866 82.7661Z" fill="#ED938A"/>
<path d="M111.521 126.923C107.472 123.247 102.145 118.932 93.5158 116.695C83.9805 114.191 79.0265 119.572 71.4089 118.826C67.3072 118.4 60.5953 110.409 56.0674 111.581C50.4741 113.073 44.2948 116.056 36.8371 121.223C35.239 122.342 21.5488 131.504 16.8078 146.473C12.493 160.003 11.4276 178.647 11.321 184.827H132.669C132.722 146.579 115.729 130.758 111.521 126.923Z" fill="#EDEDED"/>
<path d="M54.3094 117.867C54.3094 117.867 53.2973 109.024 54.2029 106.201C54.3094 105.828 55.4281 105.188 55.4281 105.188C55.4281 105.188 55.4281 110.143 67.4137 113.552C80.0386 117.121 94.1017 116.055 96.7119 114.937C96.7119 114.937 96.7652 122.288 95.3801 125.058C93.2494 129.32 76.3097 128.414 66.0287 124.898C57.0262 121.809 54.3094 117.867 54.3094 117.867Z" fill="#EDEDED"/>
<g opacity="0.25">
<g opacity="0.25">
<g opacity="0.25">
<g opacity="0.25">
<path opacity="0.25" d="M4.71558 124.579C15.5293 118.613 14.091 124.792 29.8055 121.755C36.5174 120.477 44.0817 114.617 53.7234 114.191C61.0746 113.872 69.2248 118.772 78.2806 119.412C85.8449 119.944 94.5811 116.056 103.317 117.494C110.935 118.719 117.966 125.111 126.489 127.189" stroke="#6D5F5E" stroke-width="2.76644" stroke-miterlimit="10" stroke-linecap="round" stroke-linejoin="round"/>
</g>
<g opacity="0.25">
<path opacity="0.25" d="M4.92859 130.651C16.5946 125.804 14.7302 131.93 30.711 129.32C37.6893 128.201 45.5731 122.288 55.3215 121.862C62.939 121.542 71.3023 126.496 80.5179 126.976C88.3485 127.402 97.1912 123.194 106.087 124.419C113.971 125.484 121.376 131.877 130.058 133.741" stroke="#6D5F5E" stroke-width="2.76644" stroke-miterlimit="10" stroke-linecap="round" stroke-linejoin="round"/>
</g>
<g opacity="0.25">
<path opacity="0.25" d="M5.14172 136.724C17.5002 132.889 15.2629 138.909 31.5634 136.778C38.7547 135.819 46.9582 129.906 56.8663 129.48C64.6969 129.16 73.3798 134.221 82.702 134.594C90.7989 134.913 99.7482 130.385 108.857 131.398C117.007 132.303 124.785 138.642 133.681 140.24" stroke="#6D5F5E" stroke-width="2.76644" stroke-miterlimit="10" stroke-linecap="round" stroke-linejoin="round"/>
</g>
<g opacity="0.25">
<path opacity="0.25" d="M5.35474 142.797C18.2992 139.92 15.7955 145.833 32.4156 144.129C39.8733 143.33 48.3964 137.417 58.4643 137.044C66.5613 136.724 75.4573 141.945 84.9925 142.158C93.3558 142.371 102.465 137.577 111.734 138.376C120.204 139.121 128.354 145.354 137.41 146.739" stroke="#6D5F5E" stroke-width="2.76644" stroke-miterlimit="10" stroke-linecap="round" stroke-linejoin="round"/>
</g>
<g opacity="0.25">
<path opacity="0.25" d="M5.51465 148.923C18.9385 146.846 16.2218 152.759 33.1082 151.427C40.8323 150.841 49.675 144.875 59.9027 144.555C68.266 144.289 77.4284 149.616 87.0701 149.775C95.6998 149.882 104.969 144.821 114.397 145.407C123.134 145.94 131.71 152.119 140.979 153.185" stroke="#6D5F5E" stroke-width="2.76644" stroke-miterlimit="10" stroke-linecap="round" stroke-linejoin="round"/>
</g>
<g opacity="0.25">
<path opacity="0.25" d="M5.62109 155.049C19.4711 153.717 16.5946 159.577 33.7473 158.671C41.7378 158.245 50.9001 152.332 61.3409 152.119C69.9705 151.906 79.346 157.393 89.2008 157.446C98.0968 157.499 107.579 152.119 117.114 152.545C126.223 152.918 135.172 158.991 144.548 159.683" stroke="#6D5F5E" stroke-width="2.76644" stroke-miterlimit="10" stroke-linecap="round" stroke-linejoin="round"/>
</g>
<g opacity="0.25">
<path opacity="0.25" d="M5.78088 161.228C20.0038 160.589 16.9675 166.396 34.4931 165.916C42.6966 165.703 52.2318 159.79 62.8857 159.63C71.7817 159.524 81.4234 165.117 91.4381 165.117C100.654 165.117 110.295 159.524 119.99 159.684C129.419 159.843 138.795 165.81 148.33 166.183" stroke="#6D5F5E" stroke-width="2.76644" stroke-miterlimit="10" stroke-linecap="round" stroke-linejoin="round"/>
</g>
</g>
</g>
</g>
<path d="M39.0211 120.157C41.0986 122.501 49.6217 132.676 52.6581 144.182L59.5298 145.301C59.5298 145.301 52.1786 126.976 42.0574 118.027C41.6313 117.654 40.9921 117.601 40.4594 117.814C40.0332 118.027 39.5005 118.4 39.0211 119.039C38.7015 119.412 38.7547 119.891 39.0211 120.157Z" fill="#001663"/>
<path d="M104.063 141.785C104.063 141.785 104.969 128.041 98.0968 118.346C98.0968 118.346 98.523 117.92 100.92 119.092C102.625 119.891 107.632 126.763 108.111 140.666C108.165 140.666 104.649 141.838 104.063 141.785Z" fill="#001663"/>
<path d="M51.0599 134.646C51.0599 134.646 90.426 145.141 107.419 133.528C107.419 133.528 116.262 150.947 119.724 184.826H43.8685C43.8685 184.826 50.0478 176.676 51.0599 134.646Z" fill="#001663"/>
<path d="M58.2513 147.645C59.6634 147.645 60.8082 146.5 60.8082 145.088C60.8082 143.676 59.6634 142.531 58.2513 142.531C56.8391 142.531 55.6943 143.676 55.6943 145.088C55.6943 146.5 56.8391 147.645 58.2513 147.645Z" fill="white"/>
<path d="M105.555 143.596C106.79 143.596 107.792 142.594 107.792 141.358C107.792 140.123 106.79 139.121 105.555 139.121C104.319 139.121 103.317 140.123 103.317 141.358C103.317 142.594 104.319 143.596 105.555 143.596Z" fill="white"/>
<path d="M91.5826 65.03C92.7545 65.1899 93.6601 63.9647 93.234 62.7927C93.0209 62.1535 92.648 61.5675 92.062 61.1947C90.2509 60.076 83.4857 59.9695 79.9166 62.5264C76.7737 64.8702 86.2557 64.2843 91.5826 65.03Z" fill="#423232"/>
<path d="M106.338 65.6157C105.379 65.6157 104.793 64.3906 105.273 63.3784C105.539 62.8457 105.912 62.3663 106.445 62.1C108.096 61.3009 112.517 61.7804 114.488 64.4971C116.246 66.8942 110.76 65.5625 106.338 65.6157Z" fill="#423232"/>
<path d="M89.7182 71.7421C85.5632 73.5 80.9287 71.3159 80.9287 71.3159" stroke="#423232" stroke-width="1.65692" stroke-miterlimit="10" stroke-linecap="round" stroke-linejoin="round"/>
<path d="M110.76 72.8074C110.76 72.8074 107.883 74.5653 104.261 72.4878" stroke="#423232" stroke-width="1.65692" stroke-miterlimit="10" stroke-linecap="round" stroke-linejoin="round"/>
<path d="M98.2856 95.1688C95.1375 97.0466 89.5592 95.0031 86.9634 91.855" stroke="#423232" stroke-width="1.65692" stroke-miterlimit="10" stroke-linecap="round" stroke-linejoin="round"/>
<path d="M125.356 100.958C121.307 93.0211 125.569 91.4763 123.118 85.4036C119.496 76.4544 119.763 75.1759 120.189 73.1517C123.385 58.0764 125.462 41.776 106.818 32.1342C85.8299 21.2673 56.4785 25.6886 45.5582 39.1125C36.2894 50.4056 39.0061 56.3185 36.6622 64.3089C34.3717 72.033 24.0374 72.2461 28.7784 88.2269C31.1755 96.3239 21.5337 100.585 23.6645 114.222C38.5267 120.881 54.0281 124.024 69.8491 124.983C74.1639 114.382 60.8465 111.985 60.6867 96.164C60.6867 95.0987 60.74 94.0865 60.8465 93.1277C46.0909 88.4932 48.488 72.7255 55.1467 71.8732C59.7812 71.2872 62.2316 73.8974 63.4567 76.0815C63.5633 76.4011 63.7231 76.6674 63.8829 76.9871C65.9071 80.4496 76.6143 77.3067 83.8057 68.9434C91.5297 59.9941 90.9438 60.6866 94.8324 55.3064C102.663 44.546 102.45 55.626 104.421 57.1176C107.191 59.1951 105.433 60.7399 109.748 67.878C111.666 71.0741 115.181 74.217 114.329 77.9992C111.719 89.8782 116.726 101.864 104.155 112.784C101.331 115.234 97.3894 117.365 92.7549 118.271C92.968 119.869 93.6072 122.213 95.0455 124.716C105.966 123.971 116.939 122.426 127.913 120.561C129.617 114.649 128.765 107.617 125.356 100.958Z" fill="#846A58"/>
<path d="M63.9363 76.9339C63.7765 76.6676 63.6167 76.3479 63.5101 76.0283C63.6699 76.3479 63.8298 76.6676 63.9363 76.9339Z" fill="#FEE4BF"/>
<path d="M115.927 77.786C115.927 77.786 129.99 73.2049 124.663 59.6744C121.734 52.2167 121.574 43.7469 118.537 38.3134C114.329 30.8024 107.617 28.5651 97.7091 30.6426C80.6628 34.2117 108.31 30.1099 110.014 42.4152C111.666 54.7204 115.927 77.786 115.927 77.786Z" fill="#846A58"/>
</g>
<defs>
<filter id="filter0_i_1198_50927" x="0.242188" y="0.300781" width="159.808" height="159.808" filterUnits="userSpaceOnUse" color-interpolation-filters="sRGB">
<feFlood flood-opacity="0" result="BackgroundImageFix"/>
<feBlend mode="normal" in="SourceGraphic" in2="BackgroundImageFix" result="shape"/>
<feColorMatrix in="SourceAlpha" type="matrix" values="0 0 0 0 0 0 0 0 0 0 0 0 0 0 0 0 0 0 127 0" result="hardAlpha"/>
<feOffset/>
<feGaussianBlur stdDeviation="1.65692"/>
<feComposite in2="hardAlpha" operator="arithmetic" k2="-1" k3="1"/>
<feColorMatrix type="matrix" values="0 0 0 0 0 0 0 0 0 0 0 0 0 0 0 0 0 0 0.25 0"/>
<feBlend mode="normal" in2="shape" result="effect1_innerShadow_1198_50927"/>
</filter>
<filter id="filter1_d_1198_50927" x="-3.75781" y="0.300781" width="167.808" height="167.808" filterUnits="userSpaceOnUse" color-interpolation-filters="sRGB">
<feFlood flood-opacity="0" result="BackgroundImageFix"/>
<feColorMatrix in="SourceAlpha" type="matrix" values="0 0 0 0 0 0 0 0 0 0 0 0 0 0 0 0 0 0 127 0" result="hardAlpha"/>
<feOffset dy="4"/>
<feGaussianBlur stdDeviation="2"/>
<feComposite in2="hardAlpha" operator="out"/>
<feColorMatrix type="matrix" values="0 0 0 0 0 0 0 0 0 0 0 0 0 0 0 0 0 0 0.25 0"/>
<feBlend mode="normal" in2="BackgroundImageFix" result="effect1_dropShadow_1198_50927"/>
<feBlend mode="normal" in="SourceGraphic" in2="effect1_dropShadow_1198_50927" result="shape"/>
</filter>
</defs>
</svg>
