<svg width="161" height="161" viewBox="0 0 161 161" fill="none" xmlns="http://www.w3.org/2000/svg">
<mask id="mask0_1198_50856" style="mask-type:alpha" maskUnits="userSpaceOnUse" x="0" y="0" width="161" height="161">
<path d="M80.451 160.507C36.2837 160.507 0.546875 124.717 0.546875 80.6028C0.546875 36.4355 36.3367 0.69873 80.451 0.69873C124.618 0.69873 160.355 36.4886 160.355 80.6028C160.408 124.77 124.618 160.507 80.451 160.507Z" fill="#F7C0B5"/>
</mask>
<g mask="url(#mask0_1198_50856)">
<g filter="url(#filter0_i_1198_50856)">
<path d="M80.451 160.507C36.2837 160.507 0.546875 124.718 0.546875 80.6033C0.546875 36.436 36.3367 0.699219 80.451 0.699219C124.618 0.699219 160.355 36.489 160.355 80.6033C160.408 124.771 124.618 160.507 80.451 160.507Z" fill="white"/>
</g>
<path d="M125.414 147.886C125.041 148.153 124.615 148.419 124.242 148.685C123.816 148.952 123.443 149.218 123.017 149.431C122.644 149.644 122.324 149.857 121.951 150.07C121.898 150.124 121.845 150.124 121.792 150.177C120.566 150.923 119.288 151.615 118.01 152.254C117.637 152.467 117.21 152.68 116.838 152.84C116.838 152.84 116.784 152.894 116.731 152.894C116.305 153.107 115.879 153.32 115.453 153.533C114.6 153.959 113.695 154.332 112.842 154.705C112.416 154.918 111.937 155.078 111.511 155.237C111.085 155.397 110.605 155.61 110.179 155.77C109.753 155.93 109.273 156.143 108.847 156.303C108.847 156.303 108.847 156.303 108.794 156.303C108.368 156.463 107.888 156.622 107.462 156.782C106.503 157.102 105.491 157.421 104.532 157.741C104.213 157.848 103.84 157.954 103.52 158.061C102.508 158.38 101.496 158.647 100.484 158.86C100.111 158.966 99.7381 159.02 99.312 159.126C98.3531 159.339 97.341 159.552 96.3821 159.765C96.1691 159.819 96.0093 159.819 95.7962 159.872C95.4766 159.925 95.1037 159.978 94.7841 160.032C94.3046 160.085 93.8785 160.191 93.3991 160.245C93.186 160.298 92.9729 160.298 92.7598 160.351C92.4935 160.405 92.1739 160.458 91.8542 160.458C91.0019 160.564 90.0964 160.671 89.244 160.777C88.9777 160.831 88.6581 160.831 88.3917 160.884H88.3385C87.9656 160.937 87.5927 160.937 87.2198 160.99C86.8469 161.044 86.474 161.044 86.1012 161.044C85.8881 161.044 85.6217 161.097 85.4086 161.097C84.9825 161.097 84.6096 161.15 84.2367 161.15C83.704 161.15 83.2246 161.204 82.6919 161.204C82.1592 161.204 81.6798 161.204 81.1471 161.204C80.7742 161.204 80.4013 161.204 80.0284 161.204C57.602 160.884 37.3597 151.349 22.9769 136.22C22.9769 136.22 22.9769 136.167 22.9236 136.167C24.575 132.917 30.701 127.058 37.0933 122.21C45.1903 116.084 56.6432 112.302 56.6432 112.302C56.6432 112.302 64.1542 111.077 92.0141 116.883C113.269 121.358 122.324 139.523 125.414 147.886Z" fill="#FDEDE1"/>
<path d="M97.9269 131.639C96.8083 137.126 89.5636 140.375 77.3649 135.474C62.3962 129.402 56.6431 112.302 56.6431 112.302C55.8441 100.05 53.9797 89.5561 53.9797 89.5561C71.2922 88.0646 91.7477 108.307 91.7477 108.307L94.0915 118.322C94.3046 119.174 94.7308 119.92 95.37 120.452C96.4887 122.37 98.6727 128.123 97.9269 131.639Z" fill="#FDEDE1"/>
<path d="M95.3701 120.506C85.1956 119.973 77.6846 118.481 69.6409 104.045C76.4594 110.065 84.5031 112.355 92.9729 113.421L94.0916 118.322C94.3047 119.227 94.7308 119.973 95.3701 120.506Z" fill="#EFBDA5"/>
<path d="M116.411 56.316C117.37 60.7907 117.85 64.413 115.24 76.3453C112.629 88.2777 117.637 100.21 105.065 111.13C96.5952 118.481 81.7863 119.866 69.9605 111.823C65.9653 109.106 62.2897 105.324 59.3067 100.37C56.9628 96.4812 54.2461 92.8056 51.2097 89.4496C47.0014 84.8684 41.9408 75.6528 44.4445 59.3524C48.493 32.8242 74.7548 29.7879 90.2562 32.7177C105.758 35.6475 113.801 44.4902 116.411 56.316Z" fill="#FDEDE1"/>
<path d="M65.4326 77.1441C65.4326 77.1441 63.7813 69.1537 56.0039 70.1126C49.292 70.9649 46.9481 87.0523 62.1832 91.5269" fill="#FDEDE1"/>
<path d="M61.7037 84.2292C61.7037 84.2292 59.786 83.004 59.9991 80.8732C60.3187 78.3695 59.9991 76.8247 58.8272 76.3453C55.8974 75.1201 55.3114 78.5293 55.4179 78.9555" stroke="#423232" stroke-width="1.59808" stroke-miterlimit="10" stroke-linecap="round" stroke-linejoin="round"/>
<path d="M102.348 89.3965C102.348 89.3965 104.373 89.5031 106.29 87.2125C107.356 85.934 108.261 84.3359 107.675 83.8565C107.089 83.3238 97.4476 84.8153 96.8083 86.0938C96.1691 87.3723 99.898 89.3965 102.348 89.3965Z" fill="#EFBDA5"/>
<path d="M103.946 71.498C103.946 71.498 104.053 76.5586 107.302 82.2052C108.741 84.7089 106.557 88.8106 101.816 89.5031" stroke="#423232" stroke-width="1.59808" stroke-miterlimit="10" stroke-linecap="round" stroke-linejoin="round"/>
<path opacity="0.42" d="M75.0744 92.1129C78.1046 92.1129 80.5611 90.0857 80.5611 87.585C80.5611 85.0843 78.1046 83.0571 75.0744 83.0571C72.0441 83.0571 69.5876 85.0843 69.5876 87.585C69.5876 90.0857 72.0441 92.1129 75.0744 92.1129Z" fill="#F0ACB8"/>
<path opacity="0.42" d="M114.387 83.1636C114.227 86.1467 114.281 89.0765 114.068 92.0063C111.724 91.4736 110.019 89.7157 110.019 87.6382C110.019 85.4009 111.884 83.5897 114.387 83.1636Z" fill="#F0ACB8"/>
<path d="M143.003 180.956H8.33771C8.33771 180.956 8.92367 156.132 17.2337 138.606C23.3597 125.609 39.1274 118.204 50.1009 114.422C52.5513 113.57 54.7886 112.931 56.5998 112.451C57.1857 114.049 63.0986 129.71 77.2683 135.464C89.467 140.418 96.7116 137.115 97.8303 131.628C98.5228 128.112 96.3388 122.359 95.2201 120.495C94.5809 119.962 94.1547 119.163 93.9416 118.364L93.5155 116.606C94.4743 116.393 95.3799 116.127 96.3388 115.86C96.8182 115.967 97.2976 116.073 97.777 116.18C104.649 117.831 114.823 121.827 126.756 131.895C140.552 143.401 143.003 180.956 143.003 180.956Z" fill="#FBF0C4"/>
<path d="M99.748 146.117C97.8836 146.65 91.3847 139.885 90.053 138.713C88.8278 140.098 80.1982 149.846 75.9366 149.207C71.2489 148.514 59.2633 140.471 53.1906 127.846C49.8346 120.921 49.7281 116.713 50.101 114.422C50.2608 113.357 50.5804 112.664 50.7402 112.291C51.2729 111.066 55.1083 106.325 56.0671 106.378V106.432C56.5466 111.546 58.1979 116.5 60.9679 120.814C64.3772 126.088 69.7574 132.427 77.2683 135.463C89.467 140.418 95.8061 135.517 96.8715 130.03C97.564 126.514 96.3388 122.359 95.2201 120.495C94.5809 119.962 94.1548 119.163 93.9417 118.364L93.5155 116.606C94.4744 116.393 95.3799 116.127 96.3388 115.86C96.6051 115.754 96.9248 115.701 97.1911 115.594C97.3509 115.807 97.564 116.02 97.7238 116.233C99.9611 118.79 102.305 122.306 103.583 128.272C105.767 137.807 101.826 145.478 99.748 146.117Z" fill="#423232"/>
<path d="M89.8932 138.393C89.8932 138.393 93.7819 140.63 93.6754 142.495C93.5688 144.359 94.6875 150.272 94.6875 150.272" stroke="#423232" stroke-width="1.59808" stroke-miterlimit="10" stroke-linecap="round" stroke-linejoin="round"/>
<path d="M89.84 145.478C90.5461 145.478 91.1184 144.905 91.1184 144.199C91.1184 143.493 90.5461 142.921 89.84 142.921C89.1339 142.921 88.5615 143.493 88.5615 144.199C88.5615 144.905 89.1339 145.478 89.84 145.478Z" fill="#423232"/>
<path d="M90.3194 150.485C91.0254 150.485 91.5978 149.913 91.5978 149.207C91.5978 148.501 91.0254 147.928 90.3194 147.928C89.6133 147.928 89.0409 148.501 89.0409 149.207C89.0409 149.913 89.6133 150.485 90.3194 150.485Z" fill="#423232"/>
<path d="M34.7061 180.956L32.309 161.193" stroke="#544D4D" stroke-width="1.59808" stroke-miterlimit="10" stroke-linecap="round" stroke-linejoin="round"/>
<path d="M127.714 154.48C127.714 154.48 126.116 158.369 126.596 162.258C127.075 166.146 128.46 171.846 126.489 180.955" stroke="#544D4D" stroke-width="1.59808" stroke-miterlimit="10" stroke-linecap="round" stroke-linejoin="round"/>
<path d="M84.6259 76.8459C83.3475 76.7926 82.3886 75.7272 82.4951 74.4488L82.5484 72.9572C82.6017 71.6788 83.6671 70.7199 84.9455 70.8264C86.224 70.8797 87.1828 71.9451 87.0763 73.2236L87.023 74.7151C86.9698 75.9403 85.9044 76.8992 84.6259 76.8459Z" fill="#423232"/>
<path d="M107.052 77.6449C105.88 77.5916 104.975 76.5795 105.028 75.4076L105.081 74.0226C105.135 72.8506 106.147 71.9451 107.319 71.9983C108.491 72.0516 109.396 73.0637 109.343 74.2356L109.29 75.6206C109.236 76.7926 108.224 77.6982 107.052 77.6449Z" fill="#423232"/>
<path d="M89.7931 73.7563C89.7931 73.7563 88.4081 71.7853 86.0109 71.4124C84.04 71.0928 81.8559 72.0516 81.5363 73.1703" stroke="#423232" stroke-width="1.59808" stroke-miterlimit="10" stroke-linecap="round" stroke-linejoin="round"/>
<path d="M105.508 74.2359C105.508 74.2359 105.508 72.5312 107.958 72.5312C109.982 72.5312 110.835 74.3957 110.835 74.3957" stroke="#423232" stroke-width="1.59808" stroke-miterlimit="10" stroke-linecap="round" stroke-linejoin="round"/>
<path d="M91.977 65.1799C93.0957 65.5528 94.2143 64.5407 94.0012 63.3155C93.8947 62.6762 93.6284 62.037 93.0957 61.5576C91.4976 60.1193 84.8922 58.8408 80.897 60.7053C77.3812 62.4099 86.8631 63.4753 91.977 65.1799Z" fill="#423232"/>
<path d="M107.905 66.0324C106.999 66.352 106.04 65.3932 106.2 64.2745C106.253 63.6885 106.466 63.1026 106.892 62.6764C108.171 61.398 112.539 60.3858 115.309 62.3568C117.706 64.0082 112.06 64.4876 107.905 66.0324Z" fill="#423232"/>
<path d="M100.031 93.0009C100.031 93.0009 101.416 92.2551 102.162 93.5336C102.908 94.8121 101.097 96.2503 101.097 96.2503C101.097 96.2503 103.121 97.7419 101.736 99.6063C100.617 101.098 98.9125 100.991 98.9125 100.991" stroke="#423232" stroke-width="1.59808" stroke-miterlimit="10" stroke-linecap="round" stroke-linejoin="round"/>
<path d="M94.7378 116.211C98.6265 115.199 102.089 113.441 104.912 110.991C117.484 100.124 112.477 88.1384 115.087 76.2061C115.939 72.3707 116.418 69.3876 116.738 66.9905C116.312 66.9372 115.832 66.8839 115.353 66.7774C113.435 66.511 112.157 64.7531 112.37 62.8354C112.477 62.0364 112.53 61.2374 112.583 60.385C112.37 60.3318 112.423 60.3318 112.21 60.3318C111.891 61.3439 111.518 62.4093 111.251 63.4214C110.772 65.0195 109.227 66.0316 107.629 65.9251H107.576C105.711 65.7653 104.326 64.2204 104.326 62.356C104.38 61.0243 104.38 59.6925 104.433 58.3608C104.22 58.3075 104.326 58.3608 104.113 58.3075C103.847 59.6925 103.581 61.0775 103.314 62.5158C102.995 64.2737 101.45 65.4989 99.6918 65.3924C95.1107 65.1793 90.5828 65.126 86.481 65.126C84.6699 65.126 83.1783 63.7943 83.0185 61.9831C82.7522 59.6393 82.3793 57.2954 81.7401 54.8983C81.0476 57.0291 81.0476 59.2664 81.1541 61.557C81.2606 63.5279 79.7158 65.1793 77.7449 65.2326C73.0039 65.3391 69.8077 65.4989 69.275 65.5522C69.4348 72.8501 67.7835 80.947 64.8537 75.4603C64.6406 75.0874 64.4808 74.7145 64.2677 74.2351C63.0425 72.051 60.5921 69.4408 55.9577 70.0268C49.4588 70.8791 47.0617 85.9544 60.6987 90.9617C60.7519 92.0803 61.0183 93.199 61.4977 94.3709C63.5752 99.4315 64.4808 103.64 64.4808 107.102C64.4808 127.185 31.6136 118.822 22.3447 100.603C18.7756 93.5186 18.7224 84.9955 25.4876 76.0462C42.0544 55.7506 37.1003 63.4747 40.7759 51.4358C46.7953 31.7261 60.5388 25.4403 78.757 25.6001C78.757 25.6001 109.067 25.6001 117.111 32.9513C125.155 40.3025 122.385 63.2616 121.692 65.3391C121.479 65.9783 120.946 66.3512 120.36 66.6176C120.041 77.1116 121.106 80.7872 124.835 89.2571C132.985 107.901 117.59 125.64 94.7378 116.211Z" fill="#423232"/>
<path d="M64.8537 75.5133C64.6406 75.1404 64.4808 74.7675 64.2677 74.2881C64.4808 74.7142 64.6939 75.1404 64.8537 75.5133Z" fill="#FEE4BF"/>
</g>
<defs>
<filter id="filter0_i_1198_50856" x="0.546875" y="0.699219" width="159.808" height="159.808" filterUnits="userSpaceOnUse" color-interpolation-filters="sRGB">
<feFlood flood-opacity="0" result="BackgroundImageFix"/>
<feBlend mode="normal" in="SourceGraphic" in2="BackgroundImageFix" result="shape"/>
<feColorMatrix in="SourceAlpha" type="matrix" values="0 0 0 0 0 0 0 0 0 0 0 0 0 0 0 0 0 0 127 0" result="hardAlpha"/>
<feOffset/>
<feGaussianBlur stdDeviation="1.59808"/>
<feComposite in2="hardAlpha" operator="arithmetic" k2="-1" k3="1"/>
<feColorMatrix type="matrix" values="0 0 0 0 0 0 0 0 0 0 0 0 0 0 0 0 0 0 0.25 0"/>
<feBlend mode="normal" in2="shape" result="effect1_innerShadow_1198_50856"/>
</filter>
</defs>
</svg>
