<svg width="161" height="161" viewBox="0 0 161 161" fill="none" xmlns="http://www.w3.org/2000/svg">
<mask id="mask0_1198_50846" style="mask-type:alpha" maskUnits="userSpaceOnUse" x="0" y="0" width="161" height="161">
<path d="M80.5156 160.99C36.2953 160.99 0.515625 125.157 0.515625 80.99C0.515625 36.7697 36.3484 0.98999 80.5156 0.98999C124.736 0.98999 160.516 36.8228 160.516 80.99C160.569 125.21 124.736 160.99 80.5156 160.99Z" fill="#F7C0B5"/>
</mask>
<g mask="url(#mask0_1198_50846)">
<g filter="url(#filter0_i_1198_50846)">
<path d="M80.5156 160.99C36.2953 160.99 0.515625 125.157 0.515625 80.99C0.515625 36.7697 36.3484 0.98999 80.5156 0.98999C124.736 0.98999 160.516 36.8228 160.516 80.99C160.569 125.21 124.736 160.99 80.5156 160.99Z" fill="white"/>
</g>
<path d="M125.433 148.352C125.06 148.618 124.633 148.885 124.26 149.152C123.833 149.418 123.46 149.685 123.033 149.898C122.66 150.112 122.34 150.325 121.966 150.538C121.913 150.592 121.86 150.592 121.806 150.645C120.58 151.392 119.3 152.085 118.02 152.725C117.646 152.938 117.22 153.152 116.846 153.312C116.846 153.312 116.793 153.365 116.74 153.365C116.313 153.578 115.886 153.792 115.46 154.005C114.606 154.432 113.7 154.805 112.846 155.178C112.42 155.392 111.94 155.552 111.513 155.712C111.086 155.872 110.606 156.085 110.18 156.245C109.753 156.405 109.273 156.618 108.846 156.778C108.846 156.778 108.846 156.778 108.793 156.778C108.366 156.938 107.886 157.098 107.46 157.258C106.5 157.578 105.486 157.898 104.526 158.218C104.206 158.325 103.833 158.432 103.513 158.538C102.5 158.858 101.486 159.125 100.473 159.338C100.1 159.445 99.7262 159.498 99.2995 159.605C98.3395 159.818 97.3262 160.032 96.3662 160.245C96.1529 160.298 95.9929 160.298 95.7795 160.352C95.4595 160.405 95.0862 160.458 94.7662 160.512C94.2862 160.565 93.8595 160.672 93.3795 160.725C93.1662 160.778 92.9529 160.778 92.7395 160.832C92.4729 160.885 92.1529 160.938 91.8329 160.938C90.9795 161.045 90.0729 161.152 89.2195 161.258C88.9529 161.312 88.6329 161.312 88.3662 161.365H88.3129C87.9395 161.418 87.5662 161.418 87.1929 161.472C86.8195 161.525 86.4462 161.525 86.0729 161.525C85.8595 161.525 85.5929 161.578 85.3795 161.578C84.9529 161.578 84.5795 161.632 84.2062 161.632C83.6729 161.632 83.1929 161.685 82.6595 161.685C82.1262 161.685 81.6462 161.685 81.1129 161.685C80.7395 161.685 80.3662 161.685 79.9929 161.685C57.5396 161.365 37.2729 151.818 22.8729 136.672C22.8729 136.672 22.8729 136.618 22.8196 136.618C24.4729 133.365 30.6062 127.498 37.0062 122.645C45.1129 116.512 56.5796 112.725 56.5796 112.725C56.5796 112.725 64.0996 111.498 91.9929 117.312C113.273 121.792 122.34 139.978 125.433 148.352Z" fill="#FFDBD6"/>
<path d="M97.9128 132.085C96.7928 137.578 89.5395 140.832 77.3262 135.925C62.3395 129.845 56.5795 112.725 56.5795 112.725C55.7795 100.458 53.9128 89.9517 53.9128 89.9517C71.2462 88.4584 91.7261 108.725 91.7261 108.725L94.0728 118.752C94.2862 119.605 94.7128 120.352 95.3528 120.885C96.4728 122.805 98.6595 128.565 97.9128 132.085Z" fill="#FFDBD6"/>
<path d="M95.3529 120.938C85.1662 120.405 77.6462 118.912 69.5929 104.458C76.4196 110.485 84.4729 112.778 92.9529 113.845L94.0729 118.752C94.2862 119.658 94.7129 120.405 95.3529 120.938Z" fill="#D8A7A2"/>
<path d="M116.419 56.6718C117.379 61.1518 117.859 64.7785 115.246 76.7252C112.633 88.6718 117.646 100.618 105.059 111.552C96.5795 118.912 81.7528 120.298 69.9128 112.245C65.9128 109.525 62.2328 105.738 59.2462 100.778C56.8995 96.8851 54.1795 93.2052 51.1395 89.8451C46.9262 85.2585 41.8595 76.0318 44.3662 59.7118C48.4195 33.1519 74.7128 30.1119 90.2328 33.0452C105.753 35.9785 113.806 44.8318 116.419 56.6718Z" fill="#FFDBD6"/>
<path d="M65.3796 77.525C65.3796 77.525 63.7263 69.525 55.9396 70.485C49.2196 71.3383 46.8729 87.445 62.1263 91.925" fill="#FFDBD6"/>
<path d="M61.6463 84.6183C61.6463 84.6183 59.7263 83.3917 59.9396 81.2583C60.2596 78.7517 59.9396 77.205 58.7663 76.725C55.833 75.4983 55.2463 78.9117 55.353 79.3383" stroke="#423232" stroke-width="1.6589" stroke-miterlimit="10" stroke-linecap="round" stroke-linejoin="round"/>
<path d="M102.34 89.7917C102.34 89.7917 104.366 89.8984 106.286 87.6051C107.353 86.3251 108.26 84.7251 107.673 84.2451C107.086 83.7117 97.4328 85.2051 96.7928 86.4851C96.1528 87.7651 99.8862 89.7917 102.34 89.7917Z" fill="#F3C0BC"/>
<path d="M103.939 71.8718C103.939 71.8718 104.046 76.9385 107.299 82.5918C108.739 85.0985 106.553 89.2051 101.806 89.8985" stroke="#423232" stroke-width="1.6589" stroke-miterlimit="10" stroke-linecap="round" stroke-linejoin="round"/>
<path d="M61.611 117.636C61.611 117.636 60.5444 111.023 58.731 111.396C50.3044 113.316 25.7177 120.463 17.131 139.022C9.02438 156.676 8.27771 181.422 8.27771 181.422H143.158C143.158 181.422 140.704 143.823 126.944 132.303C118.784 125.423 111.424 121.209 105.398 118.649C97.3977 115.236 89.3443 122.383 87.051 122.223C82.9443 122.009 61.611 117.636 61.611 117.636Z" fill="#544D4D"/>
<path d="M34.6777 181.423L32.2777 161.636" stroke="white" stroke-width="1.6589" stroke-miterlimit="10" stroke-linecap="round" stroke-linejoin="round"/>
<path d="M127.798 154.916C127.798 154.916 126.198 158.809 126.678 162.703C127.158 166.596 128.544 172.303 126.571 181.423" stroke="white" stroke-width="1.6589" stroke-miterlimit="10" stroke-linecap="round" stroke-linejoin="round"/>
<path d="M55.4776 106.009C55.4776 106.009 51.6376 107.396 50.9443 108.143C50.2509 108.889 49.9309 109.369 49.9309 109.369C49.9309 109.369 48.0109 111.503 46.9443 116.676C46.4643 118.863 47.5843 122.436 46.7309 125.263C44.2776 133.103 55.9043 145.156 75.1042 152.249C89.6642 157.636 105.718 152.729 107.958 142.596C110.091 132.836 108.811 128.409 107.798 125.263C105.771 119.183 105.131 117.476 102.411 115.129C100.704 113.636 99.5309 116.729 93.1309 118.489C91.1576 119.023 88.7576 119.449 85.6642 119.556C67.2643 120.249 59.4776 109.796 56.7043 106.809C56.0109 106.223 55.6909 105.903 55.4776 106.009Z" fill="white"/>
<path d="M92.971 118.436C90.9976 118.969 88.5976 119.396 85.5043 119.503C67.1043 120.196 59.3176 109.743 56.5443 106.756" stroke="#CCCCCC" stroke-width="1.6589" stroke-miterlimit="10" stroke-linecap="round" stroke-linejoin="round"/>
<path d="M102.731 113.209C107.584 117.263 116.011 127.876 113.984 151.609C112.971 163.343 118.678 168.196 117.398 170.063C117.184 170.383 116.918 170.543 116.704 170.596C115.798 170.809 114.944 171.236 114.518 172.089C114.358 172.463 114.091 172.729 113.718 172.943C113.398 173.156 113.024 173.156 112.704 173.103C111.584 172.836 110.358 173.476 109.664 174.436C109.398 174.809 109.078 175.076 108.598 175.183C108.278 175.289 107.958 175.236 107.744 175.183C106.838 174.916 105.824 175.183 105.024 175.823C104.811 175.983 104.598 176.089 104.331 176.089C103.851 176.089 103.478 175.876 103.158 175.556C102.411 174.863 101.344 174.596 100.278 174.969C100.171 175.023 100.118 175.023 100.011 175.023C99.2643 175.129 98.6776 174.543 98.2509 173.529C97.8243 172.569 96.8109 172.143 95.7443 172.249C95.5309 172.249 95.3176 172.249 95.0509 172.196C92.9709 171.716 90.3043 168.836 90.2509 165.316C90.1976 161.849 90.9976 155.823 92.3309 152.996C96.4376 144.303 97.9309 138.063 98.1443 133.369C98.5709 124.783 93.1309 117.103 93.6643 116.943C99.1043 115.823 102.731 113.209 102.731 113.209Z" fill="white"/>
<path d="M92.2776 152.996C96.3843 144.303 97.8776 138.063 98.0909 133.369C98.4109 126.756 95.2109 120.623 94.0376 118.116" stroke="#CCCCCC" stroke-width="1.6589" stroke-miterlimit="10" stroke-linecap="round" stroke-linejoin="round"/>
<path d="M90.1976 165.316C90.1442 161.849 90.9442 155.823 92.2776 152.996C96.3842 144.303 97.8776 138.063 98.0909 133.369" stroke="#CCCCCC" stroke-width="1.6589" stroke-miterlimit="10" stroke-linecap="round" stroke-linejoin="round"/>
<path d="M94.9443 146.703C94.9443 146.703 78.731 148.303 68.0643 140.25" stroke="#CCCCCC" stroke-width="1.6589" stroke-miterlimit="10" stroke-linecap="round" stroke-linejoin="round"/>
<path d="M99.3177 118.596C100.811 120.783 102.518 123.983 102.944 127.929" stroke="#CCCCCC" stroke-width="1.6589" stroke-miterlimit="10" stroke-linecap="round" stroke-linejoin="round"/>
<path d="M106.091 175.183C106.091 175.183 103.371 169.423 106.091 156.889C108.971 143.556 107.638 136.996 107.638 136.996" stroke="#CCCCCC" stroke-width="1.6589" stroke-miterlimit="10" stroke-linecap="round" stroke-linejoin="round"/>
<path d="M46.8376 119.343C46.8376 119.343 50.411 126.703 54.731 130.116" stroke="#CCCCCC" stroke-width="1.6589" stroke-miterlimit="10" stroke-linecap="round" stroke-linejoin="round"/>
<path d="M97.6644 136.996C97.6644 136.996 87.5311 137.689 80.3844 134.916" stroke="#CCCCCC" stroke-width="1.6589" stroke-miterlimit="10" stroke-linecap="round" stroke-linejoin="round"/>
<path d="M91.9714 65.7941C93.1447 65.9541 94.0514 64.7274 93.6247 63.5541C93.4114 62.9141 93.038 62.3274 92.4514 61.9541C90.638 60.8341 83.8647 60.7274 80.2914 63.2874C77.1447 65.6341 86.6381 65.0474 91.9714 65.7941Z" fill="#423232"/>
<path d="M106.745 66.3809C105.785 66.3809 105.198 65.1542 105.678 64.1409C105.945 63.6075 106.318 63.1276 106.851 62.8609C108.505 62.0609 112.931 62.5409 114.905 65.2609C116.665 67.6609 111.171 66.3275 106.745 66.3809Z" fill="#423232"/>
<path d="M90.1047 72.5141C85.9447 74.2741 81.3047 72.0874 81.3047 72.0874" stroke="#423232" stroke-width="1.6589" stroke-miterlimit="10" stroke-linecap="round" stroke-linejoin="round"/>
<path d="M111.171 73.581C111.171 73.581 108.291 75.341 104.665 73.261" stroke="#423232" stroke-width="1.6589" stroke-miterlimit="10" stroke-linecap="round" stroke-linejoin="round"/>
<path d="M99.4869 96.1102C99.5422 96.9949 98.8786 98.5432 97.6621 99.6492C91.4136 95.8337 88.5934 97.8244 88.5934 97.8244C86.3816 94.4513 86.8793 89.8617 92.243 93.3454C96.0032 95.7231 98.2704 96.1102 99.4869 96.1102Z" fill="#423232"/>
<path d="M97.6622 99.6493C96.3351 100.811 94.3444 101.529 91.6348 100.423C90.363 99.9258 89.3677 98.9304 88.5935 97.8245C88.5935 97.8245 91.4136 95.8338 97.6622 99.6493Z" fill="#FE9DAB"/>
<path d="M100.538 95.889C100.538 95.889 98.2151 97.1609 92.2431 93.3454C85.1098 88.7558 86.5475 98.3774 91.5795 100.423C96.8327 102.58 99.5423 97.8797 99.487 96.1102" stroke="#423232" stroke-width="1.6589" stroke-miterlimit="10" stroke-linecap="round" stroke-linejoin="round"/>
<path d="M88.5935 97.8245C88.5935 97.8245 91.4136 95.8338 97.6622 99.6493" stroke="#423232" stroke-width="1.6589" stroke-miterlimit="10" stroke-linecap="round" stroke-linejoin="round"/>
<path d="M116.531 56.1125C116.371 55.3125 116.158 54.4591 115.891 53.6591C115.625 52.8591 114.985 52.1658 114.131 52.0058C111.358 51.5258 108.691 46.7258 104.851 46.1925C92.6381 44.5392 84.4781 45.5525 73.0114 50.0325C61.1715 54.6191 67.8914 73.7125 65.3848 76.6458C64.9581 75.1525 62.8781 69.0725 56.0515 69.9258C49.5981 70.7258 47.1448 85.6591 60.4781 90.7791C60.3715 93.7125 55.0915 96.4858 50.8248 91.3658C46.5581 86.2458 38.0248 72.9658 43.7848 53.5525C49.5448 34.1392 75.6248 24.0058 99.8914 33.8725C104.051 35.5792 106.558 39.7925 110.185 40.4858C143.945 46.9392 117.331 59.9525 116.531 56.1125Z" fill="#423232"/>
<path d="M60.5314 90.8325C60.5314 90.8325 60.4248 95.2058 55.9448 103.312C55.9448 103.312 54.8781 98.8325 52.5314 94.7258C50.2381 90.6192 45.2781 85.8725 42.5048 77.2858C39.7314 68.6992 45.2781 75.5258 47.8914 79.0992C50.4514 82.6192 52.1581 91.3658 60.5314 90.8325Z" fill="#423232"/>
<path d="M104.851 49.7127C104.851 49.7127 95.0913 40.7527 90.6647 52.2194C86.238 63.6861 70.878 79.4194 58.1314 61.1261C45.3847 42.8327 64.5314 28.2194 84.4247 34.1394C104.425 40.1127 104.638 42.4061 104.851 49.7127Z" fill="#423232"/>
<path d="M104.851 49.7125C104.851 49.7125 114.505 67.7925 124.745 59.7391C133.865 52.5391 132.051 35.5792 118.131 31.6325C105.331 28.0058 103.945 34.6192 91.1448 27.5792C78.3448 20.5392 55.1448 25.2325 50.8248 41.7125C50.8248 41.7125 38.3448 46.0858 37.8648 61.1791C37.3848 76.2725 49.2248 89.3925 49.2248 89.3925C49.2248 89.3925 42.1848 63.5791 55.4648 59.7391C68.7448 55.8991 72.4248 42.6192 81.2248 42.6192C90.0248 42.6192 99.2514 41.5525 104.851 49.7125Z" fill="#423232"/>
<path d="M60.1879 80.7997C60.1879 80.7997 55.9213 80.1597 56.2413 86.133C56.4013 89.173 56.4013 90.8264 56.3479 91.6797C56.2946 92.2664 56.6679 92.7997 57.2013 93.013C57.8413 93.2797 58.5346 93.013 58.8546 92.373C59.3346 91.5197 59.8679 90.3464 59.8679 89.3864C59.8679 87.7864 61.5746 86.3464 61.5746 86.3464C61.5746 86.3464 60.0279 85.013 60.1879 80.7997Z" fill="white"/>
<path d="M73.0945 183.626C72.6679 183.146 55.9212 154.506 58.4279 143.733C60.1345 136.32 57.8946 127.786 55.9212 120.266C55.1212 117.173 54.3745 114.293 53.9479 111.733C53.2012 107.306 53.7345 103.093 55.5479 99.1996C57.5212 94.8263 57.2012 91.0396 57.2012 90.9863L58.2679 90.8796C58.2679 91.0396 58.5879 95.0396 56.5079 99.6263C54.8012 103.306 54.3212 107.36 55.0145 111.573C55.4412 114.08 56.1879 116.96 56.9879 120.053C59.0146 127.68 61.2545 136.373 59.4945 144.053C57.1479 154.293 73.8412 182.933 73.9479 183.04L73.0945 183.626Z" fill="white"/>
<path d="M56.4013 89.2262C56.4546 90.3995 56.4013 91.1995 56.4013 91.6795C56.348 92.2662 56.7213 92.7995 57.2546 93.0128C57.8946 93.2795 58.588 93.0129 58.908 92.3729C59.388 91.5195 59.9213 90.3462 59.9213 89.3862C59.9213 89.3328 59.9213 89.2262 59.9213 89.1729C58.8013 89.5995 57.5213 89.9195 56.4013 89.2262Z" fill="#E5E5E5"/>
<path d="M106.588 124.693C106.215 127.146 106.161 131.04 106.055 135.573C105.895 144.32 100.721 178.4 98.2145 183.786L97.2545 183.36C99.6545 178.133 104.828 144.213 104.988 135.573C105.095 131.04 105.148 127.093 105.521 124.533C106.321 119.146 105.735 115.093 105.415 113.386C105.575 113.226 105.734 113.12 105.894 112.96C106.054 112.853 106.161 112.693 106.321 112.586C106.641 113.973 107.548 118.4 106.588 124.693Z" fill="white"/>
</g>
<defs>
<filter id="filter0_i_1198_50846" x="0.515625" y="0.98999" width="160" height="160" filterUnits="userSpaceOnUse" color-interpolation-filters="sRGB">
<feFlood flood-opacity="0" result="BackgroundImageFix"/>
<feBlend mode="normal" in="SourceGraphic" in2="BackgroundImageFix" result="shape"/>
<feColorMatrix in="SourceAlpha" type="matrix" values="0 0 0 0 0 0 0 0 0 0 0 0 0 0 0 0 0 0 127 0" result="hardAlpha"/>
<feOffset/>
<feGaussianBlur stdDeviation="3"/>
<feComposite in2="hardAlpha" operator="arithmetic" k2="-1" k3="1"/>
<feColorMatrix type="matrix" values="0 0 0 0 0 0 0 0 0 0 0 0 0 0 0 0 0 0 0.2 0"/>
<feBlend mode="normal" in2="shape" result="effect1_innerShadow_1198_50846"/>
</filter>
</defs>
</svg>
