<svg width="161" height="161" viewBox="0 0 161 161" fill="none" xmlns="http://www.w3.org/2000/svg">
<mask id="mask0_1198_50937" style="mask-type:alpha" maskUnits="userSpaceOnUse" x="0" y="0" width="160" height="161">
<path d="M80.0958 160.154C35.9285 160.154 0.19165 124.365 0.19165 80.2503C0.19165 36.083 35.9815 0.346191 80.0958 0.346191C124.263 0.346191 160 36.136 160 80.2503C160.053 124.418 124.263 160.154 80.0958 160.154Z" fill="#F7C0B5"/>
</mask>
<g mask="url(#mask0_1198_50937)">
<g filter="url(#filter0_i_1198_50937)">
<g filter="url(#filter1_d_1198_50937)">
<path d="M80.0994 160.154C35.9321 160.154 0.195312 124.364 0.195312 80.2498C0.195312 36.0825 35.9851 0.345703 80.0994 0.345703C124.267 0.345703 160.004 36.1355 160.004 80.2498C160.057 124.417 124.267 160.154 80.0994 160.154Z" fill="white"/>
</g>
</g>
<path d="M125.059 147.534C124.686 147.8 124.26 148.066 123.887 148.333C123.461 148.599 123.088 148.865 122.662 149.078C122.289 149.292 121.969 149.505 121.596 149.718C121.543 149.771 121.49 149.771 121.436 149.824C120.211 150.57 118.933 151.263 117.654 151.902C117.281 152.115 116.855 152.328 116.482 152.488C116.482 152.488 116.429 152.541 116.376 152.541C115.95 152.754 115.523 152.967 115.097 153.18C114.245 153.606 113.339 153.979 112.487 154.352C112.061 154.565 111.582 154.725 111.155 154.885C110.729 155.045 110.25 155.258 109.824 155.418C109.397 155.577 108.918 155.79 108.492 155.95C108.492 155.95 108.492 155.95 108.439 155.95C108.012 156.11 107.533 156.27 107.107 156.43C106.148 156.749 105.136 157.069 104.177 157.389C103.857 157.495 103.485 157.602 103.165 157.708C102.153 158.028 101.141 158.294 100.129 158.507C99.7557 158.614 99.3828 158.667 98.9567 158.774C97.9978 158.987 96.9857 159.2 96.0269 159.413C95.8138 159.466 95.654 159.466 95.4409 159.519C95.1213 159.573 94.7484 159.626 94.4288 159.679C93.9494 159.732 93.5232 159.839 93.0438 159.892C92.8307 159.945 92.6176 159.945 92.4045 159.999C92.1382 160.052 91.8186 160.105 91.499 160.105C90.6467 160.212 89.7411 160.318 88.8888 160.425C88.6224 160.478 88.3028 160.478 88.0365 160.531H87.9832C87.6103 160.585 87.2374 160.585 86.8645 160.638C86.4916 160.691 86.1188 160.691 85.7459 160.691C85.5328 160.691 85.2664 160.744 85.0534 160.744C84.6272 160.744 84.2543 160.798 83.8814 160.798C83.3487 160.798 82.8693 160.851 82.3366 160.851C81.8039 160.851 81.3245 160.851 80.7918 160.851C80.4189 160.851 80.046 160.851 79.6732 160.851C57.2467 160.531 37.0044 150.996 22.6216 135.868C22.6216 135.868 22.6216 135.814 22.5684 135.814C24.2197 132.565 30.3457 126.705 36.738 121.858C44.835 115.732 56.2879 111.95 56.2879 111.95C56.2879 111.95 63.7989 110.725 91.6588 116.531C112.913 121.006 121.969 139.17 125.059 147.534Z" fill="#FDEDE1"/>
<path d="M97.5718 131.286C96.4531 136.773 89.2085 140.023 77.0098 135.122C62.0411 129.049 56.288 111.95 56.288 111.95C55.4889 99.6976 53.6245 89.2036 53.6245 89.2036C70.9371 87.712 91.3925 107.954 91.3925 107.954L93.7364 117.969C93.9494 118.821 94.3756 119.567 95.0148 120.1C96.1335 122.018 98.3175 127.771 97.5718 131.286Z" fill="#FDEDE1"/>
<path d="M95.0148 120.153C84.8403 119.62 77.3293 118.129 69.2856 103.693C76.1041 109.712 84.1478 112.003 92.6176 113.068L93.7363 117.969C93.9494 118.875 94.3755 119.62 95.0148 120.153Z" fill="#EFBDA5"/>
<path d="M116.056 55.9635C117.015 60.4381 117.494 64.0604 114.884 75.9928C112.274 87.9251 117.281 99.8575 104.71 110.778C96.24 118.129 81.4311 119.514 69.6053 111.47C65.6101 108.753 61.9345 104.971 58.9514 100.017C56.6076 96.1286 53.8908 92.453 50.8545 89.0971C46.6462 84.5159 41.5856 75.3003 44.0893 58.9998C48.1377 32.4717 74.3996 29.4353 89.9009 32.3651C105.402 35.295 113.446 44.1377 116.056 55.9635Z" fill="#FDEDE1"/>
<path d="M65.0774 76.7921C65.0774 76.7921 63.426 68.8017 55.6487 69.7605C48.9368 70.6129 46.5929 86.7002 61.8279 91.1748" fill="#FDEDE1"/>
<path d="M61.3486 83.8766C61.3486 83.8766 59.4309 82.6514 59.6439 80.5206C59.9636 78.017 59.6439 76.4722 58.472 75.9927C55.5422 74.7676 54.9562 78.1768 55.0628 78.6029" stroke="#423232" stroke-width="1.65692" stroke-miterlimit="10" stroke-linecap="round" stroke-linejoin="round"/>
<path d="M101.993 89.044C101.993 89.044 104.017 89.1505 105.935 86.8599C107 85.5815 107.906 83.9834 107.32 83.504C106.734 82.9713 97.0923 84.4628 96.453 85.7413C95.8138 87.0197 99.5427 89.044 101.993 89.044Z" fill="#EFBDA5"/>
<path d="M103.591 71.145C103.591 71.145 103.698 76.2056 106.947 81.8522C108.385 84.3558 106.201 88.4576 101.46 89.1501" stroke="#423232" stroke-width="1.65692" stroke-miterlimit="10" stroke-linecap="round" stroke-linejoin="round"/>
<path opacity="0.42" d="M74.7192 91.7604C77.7494 91.7604 80.2059 89.7332 80.2059 87.2325C80.2059 84.7318 77.7494 82.7046 74.7192 82.7046C71.6889 82.7046 69.2324 84.7318 69.2324 87.2325C69.2324 89.7332 71.6889 91.7604 74.7192 91.7604Z" fill="#F0ACB8"/>
<path opacity="0.42" d="M114.032 82.811C113.872 85.7941 113.925 88.7239 113.712 91.6538C111.368 91.1211 109.664 89.3632 109.664 87.2857C109.664 85.0484 111.528 83.2372 114.032 82.811Z" fill="#F0ACB8"/>
<path d="M130.227 137.61C122.663 127.862 110.943 123.813 104.498 121.416C103.965 118.753 102.953 115.823 101.355 112.999C98.9046 114.491 96.0813 115.61 93.1515 116.196L93.5776 117.953C93.7907 118.806 94.8561 122.748 93.2048 127.808C91.8197 132.07 86.2265 133.988 76.7445 129.673C58.26 121.309 56.1292 111.881 56.1292 111.881C55.8096 106.767 55.2769 101.973 54.7975 98.084C49.0444 99.3625 42.3857 101.973 38.7634 107.459C34.2888 114.171 32.6374 120.99 33.0636 126.423C25.2862 131.377 13.2474 138.888 9.30542 152.312C4.19156 169.785 5.04387 180.492 5.04387 180.492H142.692C142.532 180.545 140.508 150.874 130.227 137.61Z" fill="#A5DCDF"/>
<path d="M47.9257 120.138C47.9257 120.138 51.1751 132.763 65.398 141.499" stroke="#63B2BD" stroke-width="1.65692" stroke-miterlimit="10" stroke-linecap="round" stroke-linejoin="round"/>
<path d="M104.445 121.416C104.445 121.416 108.227 137.77 99.97 145.281" stroke="#63B2BD" stroke-width="1.65692" stroke-miterlimit="10" stroke-linecap="round" stroke-linejoin="round"/>
<path d="M78.7687 142.777C78.7687 142.777 75.9986 150.874 76.7444 156.468" stroke="#63B2BD" stroke-width="1.65692" stroke-miterlimit="10" stroke-linecap="round" stroke-linejoin="round"/>
<path d="M95.7617 142.298C95.7617 142.298 97.8392 146.826 99.3308 154.017" stroke="#63B2BD" stroke-width="1.65692" stroke-miterlimit="10" stroke-linecap="round" stroke-linejoin="round"/>
<path d="M32.957 126.477C32.957 126.477 37.3251 144.269 63.3206 149.489" stroke="#63B2BD" stroke-width="1.65692" stroke-miterlimit="10" stroke-linecap="round" stroke-linejoin="round"/>
<path d="M77.2239 157.693L74.88 157.48C74.0277 157.373 73.3885 156.574 73.5483 155.722L74.3473 151.727C74.5604 150.608 75.6258 149.809 76.7444 149.969C77.8631 150.075 78.7687 151.034 78.7687 152.206L78.8219 156.308C78.8219 157.107 78.0762 157.799 77.2239 157.693Z" fill="white"/>
<path d="M101.675 155.242L99.4373 156.041C98.585 156.361 97.6794 155.828 97.5196 154.976L96.5608 151.034C96.2944 149.915 96.8804 148.797 97.9991 148.371C99.0644 147.998 100.29 148.477 100.769 149.489L102.527 153.165C102.9 153.964 102.527 154.923 101.675 155.242Z" fill="white"/>
<path d="M125.166 154.017C125.166 154.017 128.149 170.744 126.977 180.545" stroke="#63B2BD" stroke-width="1.65692" stroke-miterlimit="10" stroke-linecap="round" stroke-linejoin="round"/>
<path d="M91.875 65.075C93.0323 65.2348 93.9266 64.0096 93.5057 62.8377C93.2953 62.1984 92.9271 61.6125 92.3485 61.2396C90.5599 60.1209 83.8793 60.0144 80.3549 62.5713C77.2512 64.9152 86.6147 64.3292 91.875 65.075Z" fill="#423232"/>
<path d="M106.446 65.6607C105.499 65.6607 104.92 64.4355 105.394 63.4234C105.657 62.8907 106.025 62.4112 106.551 62.1449C108.182 61.3459 112.548 61.8253 114.494 64.542C116.23 66.9391 110.812 65.6074 106.446 65.6607Z" fill="#423232"/>
<path d="M90.0337 71.7868C86.6671 70.0822 81.3541 71.3606 81.3541 71.3606" stroke="#423232" stroke-width="1.65692" stroke-miterlimit="10" stroke-linecap="round" stroke-linejoin="round"/>
<path d="M110.812 72.8523C110.812 72.8523 109.445 71.3608 104.395 72.5327" stroke="#423232" stroke-width="1.65692" stroke-miterlimit="10" stroke-linecap="round" stroke-linejoin="round"/>
<path d="M99.0442 95.352C99.0994 96.2357 98.4366 97.7821 97.2215 98.8867C90.9805 95.0758 88.1637 97.0641 88.1637 97.0641C85.9545 93.6951 86.4516 89.1109 91.809 92.5904C95.5646 94.9654 97.8291 95.352 99.0442 95.352Z" fill="#423232"/>
<path d="M97.2216 98.887C95.8961 100.047 93.9078 100.765 91.2015 99.6602C89.9312 99.1631 88.937 98.169 88.1638 97.0644C88.1638 97.0644 90.9806 95.076 97.2216 98.887Z" fill="#FE9DAB"/>
<path d="M100.094 95.1309C100.094 95.1309 97.7739 96.4012 91.809 92.5903C84.6843 88.0061 86.1203 97.6162 91.1462 99.6598C96.3931 101.814 99.0994 97.1192 99.0442 95.3518" stroke="#423232" stroke-width="1.65692" stroke-miterlimit="10" stroke-linecap="round" stroke-linejoin="round"/>
<path d="M88.1638 97.0644C88.1638 97.0644 90.9806 95.076 97.2216 98.887" stroke="#423232" stroke-width="1.65692" stroke-miterlimit="10" stroke-linecap="round" stroke-linejoin="round"/>
<path d="M111.868 50.3642C113.306 42.2673 116.875 61.5508 116.076 57.7687C115.809 56.5968 115.49 55.4781 115.117 54.3595C112.294 52.1221 109.311 50.6839 104.783 50.0446C92.584 48.3933 82.9422 49.5119 72.6612 51.7493C66.2156 53.1343 67.5474 75.4009 65.0437 78.3307C64.6176 76.8391 62.5401 70.7664 55.7216 71.6187C49.276 72.4178 46.8256 87.3332 60.1429 92.4471C60.0364 95.3769 57.3197 100.81 55.1356 102.036C55.1356 102.036 54.7627 98.1469 50.5012 93.033C46.2396 87.9192 37.7165 74.6551 43.4696 55.265C49.2227 35.875 75.2715 25.7538 99.509 35.6086C103.664 37.3132 107.073 39.7104 109.79 42.214C116.182 48.0737 114.478 39.7104 113.466 48.34C113.093 51.11 113.466 48.2867 111.868 50.3642Z" fill="#423232"/>
<path d="M106.487 48.1803C106.487 48.1803 91.7849 72.631 62.54 65.1733C62.54 65.1733 56.8402 50.8438 69.252 45.3571C81.717 39.9236 103.504 43.3861 106.487 48.1803Z" fill="#423232"/>
<path d="M101.373 49.6185C101.373 49.6185 107.233 50.7372 111.335 55.1053C115.17 59.1537 115.969 41.5216 116.822 45.4102C116.822 45.4102 119.006 50.7372 109.524 45.0906C100.042 39.3908 101.373 49.6185 101.373 49.6185Z" fill="#423232"/>
<path d="M43.4163 79.1832C43.4163 79.1832 36.9175 75.0282 27.4355 79.1832C18.8591 82.9654 23.3338 93.779 28.8205 92.98C28.8205 92.98 18.4862 96.9752 22.3216 105.498C25.4113 112.37 34.7867 108.375 34.7867 108.375C34.7867 108.375 30.3653 115.46 36.8642 118.656C43.4696 121.905 46.8256 112.743 46.8256 112.743C46.8256 112.743 48.3704 120.254 55.1356 119.082C63.4989 117.644 59.2374 107.682 59.2374 107.682C59.2374 107.682 63.7653 110.665 65.7895 105.498C68.1333 99.5854 57.7991 94.8977 57.7991 94.8977C57.7991 94.8977 46.9321 82.4327 46.4527 77.5319C45.92 72.5778 43.4163 79.1832 43.4163 79.1832Z" fill="#423232"/>
<path d="M122.628 103.421C122.628 103.421 130.139 108.535 125.718 114.927C120.444 122.598 111.601 114.235 111.601 114.235C113.199 119.402 107.446 127.925 99.6155 121.213C98.124 119.934 96.9521 118.603 96.0465 117.324C99.2959 116.259 102.279 114.661 104.729 112.53C111.761 106.457 113.306 100.012 113.732 93.4595C113.945 90.5297 113.892 87.5998 114.052 84.6168C114.158 82.5925 114.318 80.6216 114.691 78.5973C117.567 76.5198 123.001 76.4133 124.439 79.5562C127.848 87.0672 121.509 90.1568 121.136 90.3166C121.563 90.21 131.577 88.1325 131.63 96.2828C131.737 104.859 122.628 103.421 122.628 103.421Z" fill="#423232"/>
<path d="M116.129 54.5729C116.129 54.5729 127.742 62.7231 125.238 46.7423C123.32 34.5436 114.105 27.4055 99.5622 31.7203C99.5622 31.7203 74.7919 22.558 55.1355 33.9044C38.5154 43.4928 37.5566 67.6239 43.4695 79.1834C43.4695 79.1834 44.2152 56.0112 60.5157 50.5244C76.7629 45.0377 86.671 40.7761 101.32 45.7302C115.969 50.6842 116.129 54.5729 116.129 54.5729Z" fill="#423232"/>
<path d="M103.93 34.0638C103.93 34.0638 102.332 24.209 93.8092 22.9305C85.2329 21.652 89.015 31.7732 89.015 31.7732C89.015 31.7732 101.001 36.3544 103.93 34.0638Z" fill="#423232"/>
<path d="M91.8381 30.122C91.8381 30.122 87.3635 23.9427 78.8404 25.1147C70.3173 26.2866 75.6975 33.2649 75.6975 33.2649C75.6975 33.2649 93.7026 38.1124 91.8381 30.122Z" fill="#423232"/>
<path d="M103.93 50.3641C103.93 50.3641 110.056 53.0808 113.839 58.5675C117.621 64.0543 124.439 62.7758 125.398 52.6014C126.41 42.4802 106.647 39.6036 103.93 50.3641Z" fill="#423232"/>
<path d="M108.104 81.2727C106.665 79.5149 104.801 78.2897 102.564 78.2364C100.22 78.1831 96.5441 78.7158 92.8685 81.6456C88.0742 85.481 78.4857 84.8951 74.7036 84.5222C73.6382 84.4156 72.6261 84.9483 72.1467 85.9072C71.0813 88.038 69.643 92.4593 70.3355 99.5974C71.2411 109.346 79.1782 118.188 90.3648 117.443C105.067 116.537 113.644 104.711 114.176 88.8903C114.07 84.5222 111.459 85.4278 108.104 81.2727Z" fill="#F3C0BC"/>
<path d="M88.4473 84.5225C88.4473 84.5225 110.874 94.6436 112.791 87.2925" stroke="#D8A7A2" stroke-width="1.65692" stroke-miterlimit="10" stroke-linecap="round" stroke-linejoin="round"/>
<path d="M79.3915 91.7671C79.3915 91.7671 102.031 104.712 112.205 97.68" stroke="#D8A7A2" stroke-width="1.65692" stroke-miterlimit="10" stroke-linecap="round" stroke-linejoin="round"/>
<path d="M78.5924 100.93C78.5924 100.93 90.2584 111.424 107.038 107.642" stroke="#D8A7A2" stroke-width="1.65692" stroke-miterlimit="10" stroke-linecap="round" stroke-linejoin="round"/>
<path d="M81.682 85.4277C81.682 85.4277 79.4447 88.5174 78.5391 96.6676C77.4737 106.469 82.1081 114.619 82.1081 114.619" stroke="#D8A7A2" stroke-width="1.65692" stroke-miterlimit="10" stroke-linecap="round" stroke-linejoin="round"/>
<path d="M74.2775 85.8539C74.2775 85.8539 68.1515 81.5924 63.8367 74.2412" stroke="#F3C0BC" stroke-width="1.65692" stroke-miterlimit="10" stroke-linecap="round" stroke-linejoin="round"/>
<path d="M60.6938 90.8081C61.919 94.8033 64.9554 101.302 72.6262 107.162" stroke="#F3C0BC" stroke-width="1.65692" stroke-miterlimit="10" stroke-linecap="round" stroke-linejoin="round"/>
</g>
<defs>
<filter id="filter0_i_1198_50937" x="0.195312" y="0.345703" width="159.808" height="159.808" filterUnits="userSpaceOnUse" color-interpolation-filters="sRGB">
<feFlood flood-opacity="0" result="BackgroundImageFix"/>
<feBlend mode="normal" in="SourceGraphic" in2="BackgroundImageFix" result="shape"/>
<feColorMatrix in="SourceAlpha" type="matrix" values="0 0 0 0 0 0 0 0 0 0 0 0 0 0 0 0 0 0 127 0" result="hardAlpha"/>
<feOffset/>
<feGaussianBlur stdDeviation="1.65692"/>
<feComposite in2="hardAlpha" operator="arithmetic" k2="-1" k3="1"/>
<feColorMatrix type="matrix" values="0 0 0 0 0 0 0 0 0 0 0 0 0 0 0 0 0 0 0.25 0"/>
<feBlend mode="normal" in2="shape" result="effect1_innerShadow_1198_50937"/>
</filter>
<filter id="filter1_d_1198_50937" x="-3.80469" y="0.345703" width="167.808" height="167.808" filterUnits="userSpaceOnUse" color-interpolation-filters="sRGB">
<feFlood flood-opacity="0" result="BackgroundImageFix"/>
<feColorMatrix in="SourceAlpha" type="matrix" values="0 0 0 0 0 0 0 0 0 0 0 0 0 0 0 0 0 0 127 0" result="hardAlpha"/>
<feOffset dy="4"/>
<feGaussianBlur stdDeviation="2"/>
<feComposite in2="hardAlpha" operator="out"/>
<feColorMatrix type="matrix" values="0 0 0 0 0 0 0 0 0 0 0 0 0 0 0 0 0 0 0.25 0"/>
<feBlend mode="normal" in2="BackgroundImageFix" result="effect1_dropShadow_1198_50937"/>
<feBlend mode="normal" in="SourceGraphic" in2="effect1_dropShadow_1198_50937" result="shape"/>
</filter>
</defs>
</svg>
