<svg width="161" height="161" viewBox="0 0 161 161" fill="none" xmlns="http://www.w3.org/2000/svg">
<mask id="mask0_1198_50867" style="mask-type:alpha" maskUnits="userSpaceOnUse" x="0" y="0" width="161" height="161">
<path d="M80.5901 160.208C36.4228 160.208 0.686035 124.418 0.686035 80.3035C0.686035 36.1362 36.4759 0.399414 80.5901 0.399414C124.757 0.399414 160.494 36.1892 160.494 80.3035C160.547 124.471 124.757 160.208 80.5901 160.208Z" fill="#F7C0B5"/>
</mask>
<g mask="url(#mask0_1198_50867)">
<g filter="url(#filter0_i_1198_50867)">
<path d="M80.5937 160.207C36.4264 160.207 0.689575 124.417 0.689575 80.303C0.689575 36.1357 36.4794 0.398926 80.5937 0.398926C124.761 0.398926 160.498 36.1888 160.498 80.303C160.551 124.47 124.761 160.207 80.5937 160.207Z" fill="white"/>
</g>
<path d="M125.34 147.587C124.967 147.853 124.541 148.119 124.168 148.386C123.742 148.652 123.369 148.918 122.943 149.131C122.57 149.345 122.251 149.558 121.878 149.771C121.825 149.824 121.771 149.824 121.718 149.877C120.493 150.623 119.214 151.316 117.936 151.955C117.563 152.168 117.137 152.381 116.764 152.541C116.764 152.541 116.711 152.594 116.657 152.594C116.231 152.807 115.805 153.02 115.379 153.233C114.527 153.659 113.621 154.032 112.769 154.405C112.343 154.618 111.863 154.778 111.437 154.938C111.011 155.098 110.531 155.311 110.105 155.471C109.679 155.63 109.2 155.843 108.774 156.003C108.774 156.003 108.774 156.003 108.72 156.003C108.294 156.163 107.815 156.323 107.388 156.483C106.43 156.802 105.418 157.122 104.459 157.441C104.139 157.548 103.766 157.655 103.447 157.761C102.434 158.081 101.422 158.347 100.41 158.56C100.037 158.667 99.6644 158.72 99.2383 158.826C98.2794 159.04 97.2673 159.253 96.3085 159.466C96.0954 159.519 95.9356 159.519 95.7225 159.572C95.4029 159.626 95.03 159.679 94.7104 159.732C94.231 159.785 93.8048 159.892 93.3254 159.945C93.1123 159.998 92.8992 159.998 92.6861 160.052C92.4198 160.105 92.1002 160.158 91.7806 160.158C90.9283 160.265 90.0227 160.371 89.1704 160.478C88.904 160.531 88.5844 160.531 88.3181 160.584H88.2648C87.8919 160.638 87.519 160.638 87.1461 160.691C86.7732 160.744 86.4004 160.744 86.0275 160.744C85.8144 160.744 85.5481 160.797 85.335 160.797C84.9088 160.797 84.5359 160.851 84.163 160.851C83.6304 160.851 83.1509 160.904 82.6182 160.904C82.0855 160.904 81.6061 160.904 81.0734 160.904C80.7005 160.904 80.3276 160.904 79.9548 160.904C57.5284 160.584 37.286 151.049 22.9032 135.921C22.9032 135.921 22.9032 135.867 22.85 135.867C24.5013 132.618 30.6273 126.758 37.0196 121.911C45.1166 115.785 56.5695 112.003 56.5695 112.003C56.5695 112.003 64.0805 110.777 91.9404 116.584C113.195 121.058 122.251 139.223 125.34 147.587Z" fill="#FFE6D1"/>
<path d="M97.8533 131.34C96.7346 136.826 89.49 140.076 77.2913 135.175C62.3226 129.102 56.5695 112.003 56.5695 112.003C55.7704 99.7509 53.906 89.2568 53.906 89.2568C71.2186 87.7652 91.674 108.008 91.674 108.008L94.0179 118.022C94.2309 118.875 94.6571 119.62 95.2963 120.153C96.415 122.071 98.599 127.824 97.8533 131.34Z" fill="#FFE6D1"/>
<path d="M95.2964 120.206C85.1219 119.674 77.6109 118.182 69.5673 103.746C76.3857 109.766 84.4294 112.056 92.8993 113.122L94.0179 118.022C94.231 118.928 94.6571 119.674 95.2964 120.206Z" fill="#EFBDA5"/>
<path d="M116.338 56.0167C117.297 60.4913 117.776 64.1137 115.166 76.046C112.556 87.9783 117.563 99.9107 104.991 110.831C96.5216 118.182 81.7127 119.567 69.8869 111.523C65.8917 108.807 62.2161 105.025 59.233 100.071C56.8892 96.1818 54.1724 92.5062 51.1361 89.1503C46.9278 84.5691 41.8672 75.3535 44.3709 59.0531C48.4194 32.5249 74.6812 29.4886 90.1826 32.4184C105.684 35.3482 113.728 44.1909 116.338 56.0167Z" fill="#FFE6D1"/>
<path d="M65.359 76.8453C65.359 76.8453 63.7076 68.8549 55.9303 69.8138C49.2184 70.6661 46.8745 86.7534 62.1096 91.2281" fill="#FFE6D1"/>
<path d="M61.6302 83.9298C61.6302 83.9298 59.7125 82.7046 59.9256 80.5739C60.2452 78.0702 59.9256 76.5254 58.7536 76.046C55.8238 74.8208 55.2379 78.23 55.3444 78.6562" stroke="#423232" stroke-width="1.65692" stroke-miterlimit="10" stroke-linecap="round" stroke-linejoin="round"/>
<path d="M102.275 89.0972C102.275 89.0972 104.299 89.2037 106.217 86.9131C107.282 85.6347 108.188 84.0366 107.602 83.5572C107.016 83.0245 97.3739 84.516 96.7347 85.7945C96.0954 87.073 99.8243 89.0972 102.275 89.0972Z" fill="#EFBDA5"/>
<path d="M103.873 71.1982C103.873 71.1982 103.979 76.2588 107.229 81.9054C108.667 84.409 106.483 88.5108 101.742 89.2033" stroke="#423232" stroke-width="1.65692" stroke-miterlimit="10" stroke-linecap="round" stroke-linejoin="round"/>
<path opacity="0.42" d="M75.0008 91.8136C78.031 91.8136 80.4875 89.7864 80.4875 87.2857C80.4875 84.785 78.031 82.7578 75.0008 82.7578C71.9705 82.7578 69.514 84.785 69.514 87.2857C69.514 89.7864 71.9705 91.8136 75.0008 91.8136Z" fill="#ED938A"/>
<path opacity="0.42" d="M114.314 82.8643C114.154 85.8473 114.207 88.7772 113.994 91.707C111.65 91.1743 109.945 89.4164 109.945 87.3389C109.945 85.1016 111.81 83.2904 114.314 82.8643Z" fill="#ED938A"/>
<path d="M143.071 180.527H8.40564C8.40564 180.527 9.20468 155.81 17.3016 138.178C23.4276 124.861 37.8636 117.456 48.624 113.621C51.6604 112.555 54.4304 111.756 56.5612 111.17C56.5612 111.437 56.6144 111.65 56.6144 111.916C56.6144 111.916 62.3675 129.016 77.3362 135.088C89.5349 140.042 96.7796 136.74 97.8982 131.253C98.5907 127.737 96.4067 121.984 95.288 120.12C94.6488 119.587 94.2226 118.788 94.0096 117.989L93.5834 116.231C94.5955 116.018 95.5544 115.752 96.5132 115.432C96.8328 115.325 97.0992 115.219 97.4188 115.112C104.291 116.924 114.625 121.238 126.824 131.466C140.62 143.026 143.071 180.527 143.071 180.527Z" fill="#CE3E3E"/>
<mask id="mask1_1198_50867" style="mask-type:alpha" maskUnits="userSpaceOnUse" x="8" y="111" width="136" height="70">
<path d="M143.071 180.527H8.40564C8.40564 180.527 9.20468 155.81 17.3016 138.178C23.4276 124.86 37.8636 117.456 48.624 113.62C51.6604 112.555 54.4304 111.756 56.5612 111.17C56.5612 111.436 56.6144 111.649 56.6144 111.916C56.6144 111.916 62.3675 129.015 77.3362 135.088C89.5349 140.042 96.7796 136.739 97.8982 131.252C98.5907 127.737 96.4067 121.984 95.288 120.119C94.6488 119.586 94.2226 118.787 94.0096 117.988L93.5834 116.231C94.5955 116.017 95.5544 115.751 96.5132 115.431C96.8328 115.325 97.0992 115.218 97.4188 115.112C104.291 116.923 114.625 121.238 126.824 131.466C140.62 143.025 143.071 180.527 143.071 180.527Z" fill="#CE3E3E"/>
</mask>
<g mask="url(#mask1_1198_50867)">
<path d="M63.6801 120.673L56.5234 127.83L63.6801 134.986L70.8368 127.83L63.6801 120.673Z" fill="white"/>
<path d="M91.7083 120.694L84.5516 127.851L91.7083 135.007L98.865 127.851L91.7083 120.694Z" fill="white"/>
<path d="M35.6142 120.689L28.4575 127.846L35.6142 135.003L42.7709 127.846L35.6142 120.689Z" fill="white"/>
<path d="M119.399 120.673L112.243 127.829L119.399 134.986L126.556 127.829L119.399 120.673Z" fill="white"/>
<path d="M50.7169 148.395L43.5602 155.552L50.7169 162.709L57.8736 155.552L50.7169 148.395Z" fill="white"/>
<path d="M78.7828 148.379L71.6261 155.535L78.7828 162.692L85.9395 155.535L78.7828 148.379Z" fill="white"/>
<path d="M106.436 148.395L99.2794 155.552L106.436 162.708L113.593 155.552L106.436 148.395Z" fill="white"/>
</g>
<path d="M89.1621 132.904C89.1621 132.904 85.4865 135.674 86.2855 138.284C87.0313 140.895 94.1694 140.468 95.5544 138.284C96.8862 136.1 90.92 132.425 89.1621 132.904Z" fill="#CE3E3E"/>
<path d="M89.1089 132.851C89.1622 132.904 89.1622 132.904 89.2154 132.958C89.2154 132.904 89.2154 132.851 89.2154 132.851C89.1622 132.798 89.1089 132.798 89.1089 132.851Z" fill="white"/>
<path d="M74.9924 130.72C60.0237 124.648 56.6145 111.916 56.6145 111.916C56.6145 111.65 56.5612 111.437 56.5612 111.17C56.5079 110.371 56.3481 108.081 56.2416 107.282C55.2828 107.601 54.1108 108.241 53.0454 108.827C51.1277 109.945 49.5829 111.543 48.6241 113.514C48.6241 113.568 48.5708 113.568 48.5708 113.621C48.4643 127.631 62.1545 138.338 72.8617 142.173C79.3605 144.517 86.6584 141.161 88.7359 134.609C88.8957 134.023 89.0556 133.49 89.1621 132.904C89.1088 132.851 89.1088 132.851 89.0556 132.798C85.593 133.544 80.8521 133.064 74.9924 130.72Z" fill="white"/>
<path d="M102.213 128.483C101.308 121.078 98.9104 118.202 96.5666 115.379C95.6077 115.698 94.0096 116.071 92.9975 116.284C92.9975 116.284 96.46 120.759 95.5544 126.832C95.1283 129.708 92.9442 131.892 89.2154 132.744C89.2154 132.798 89.2154 132.798 89.1621 132.851C90.5471 134.449 92.0919 135.834 93.7965 136.953C96.5666 138.817 100.402 137.592 101.521 134.449C102.213 132.638 102.479 130.56 102.213 128.483Z" fill="white"/>
<path d="M34.774 180.527L32.3768 160.817" stroke="#544D4D" stroke-width="1.65692" stroke-miterlimit="10" stroke-linecap="round" stroke-linejoin="round"/>
<path d="M127.782 154.052C127.782 154.052 126.184 157.941 126.664 161.83C127.143 165.718 128.528 171.418 126.557 180.527" stroke="#544D4D" stroke-width="1.65692" stroke-miterlimit="10" stroke-linecap="round" stroke-linejoin="round"/>
<path d="M86.7034 72.9588C86.7034 73.0121 86.7034 73.0653 86.7034 73.0653L86.6501 74.5569C86.5969 75.8353 85.5315 76.7942 84.253 76.7409C82.9745 76.6877 82.0157 75.569 82.1222 74.3438L82.1755 72.8523C82.1755 72.5859 82.282 72.2663 82.3886 72.0532L86.6501 72.2663C86.6501 72.4794 86.7034 72.6925 86.7034 72.9588Z" fill="#423232"/>
<path d="M108.97 74.1307L108.916 75.5157C108.863 76.6877 107.851 77.5932 106.679 77.54C105.507 77.4867 104.602 76.4746 104.655 75.3026L104.708 73.9177C104.708 73.6513 104.761 73.385 104.868 73.1719L108.863 73.3317C108.97 73.598 108.97 73.8644 108.97 74.1307Z" fill="#423232"/>
<path d="M92.0301 65.6609C93.2021 65.8207 94.1076 64.5955 93.6815 63.4236C93.4684 62.7844 93.0955 62.1984 92.5095 61.8255C90.6984 60.7069 83.9332 60.6003 80.3641 63.1572C77.2212 65.5011 86.7032 64.9151 92.0301 65.6609Z" fill="#423232"/>
<path d="M106.786 66.2466C105.827 66.2466 105.241 65.0214 105.72 64.0093C105.987 63.4766 106.359 62.9972 106.892 62.7308C108.544 61.9318 112.965 62.4112 114.936 65.128C116.694 67.5251 111.207 66.1933 106.786 66.2466Z" fill="#423232"/>
<path d="M90.1657 72.3729L86.5966 72.2131L82.3351 72.0533L81.3762 72" stroke="#423232" stroke-width="1.65692" stroke-miterlimit="10" stroke-linecap="round" stroke-linejoin="round"/>
<path d="M111.207 73.4382L108.863 73.3317L104.868 73.1719H104.708" stroke="#423232" stroke-width="1.65692" stroke-miterlimit="10" stroke-linecap="round" stroke-linejoin="round"/>
<path d="M99.56 95.9397C99.6152 97.7623 96.9089 102.402 91.662 100.248C86.636 98.2041 85.1448 88.594 92.3248 93.1781C96.0804 95.5531 98.3449 95.9397 99.56 95.9397Z" fill="white"/>
<path d="M100.609 95.7188C100.609 95.7188 98.2895 96.9891 92.3246 93.1781C85.1999 88.594 86.6359 98.2041 91.6619 100.248C96.9088 102.402 99.6151 97.707 99.5598 95.9397" stroke="#423232" stroke-width="1.65692" stroke-miterlimit="10" stroke-linecap="round" stroke-linejoin="round"/>
<path d="M87.4644 94.5591C87.4644 94.5591 91.22 97.0445 92.3246 96.8235C93.4845 96.6578 93.3188 98.2595 98.5657 98.4252" stroke="#423232" stroke-width="1.65692" stroke-miterlimit="10" stroke-linecap="round" stroke-linejoin="round"/>
<path d="M123.315 59.4364C121.824 64.0708 118.574 68.3857 116.284 70.9426C117.722 62.8456 117.296 59.6495 116.444 55.8673C116.177 54.6954 115.858 53.5768 115.485 52.4581C107.122 60.6083 92.7921 52.5646 92.7921 52.5646C92.7921 52.5646 89.7557 55.0683 84.4288 54.4823C78.729 53.8964 77.1842 50.3806 77.1842 50.3806C75.6393 61.141 65.4649 57.0393 67.3293 67.7464C67.862 70.6762 67.862 73.4995 65.3584 76.4293C64.9322 74.9378 62.8547 68.8651 56.0362 69.7174C49.5906 70.5164 47.1402 85.4319 60.4576 90.5457C60.2978 95.4998 52.4139 107.912 52.6802 94.0615C52.7335 91.2382 44.6366 91.4513 40.2152 82.1292C38.2975 78.0807 38.8302 74.2986 39.6825 71.5818C40.5348 68.9716 40.4815 66.1483 39.6292 63.5381C38.6704 60.5018 37.9246 55.9206 39.6825 50.3806C42.6656 40.8986 49.0579 38.7146 50.7093 37.5959C52.3606 36.4773 51.8279 28.2738 65.8378 23.6926C74.8936 20.7095 84.5886 25.8767 86.6129 25.5038C88.6371 25.1309 102.807 15.8087 113.727 24.5982C124.274 33.1213 120.332 43.1892 120.332 43.1892C120.332 43.1892 126.938 48.2498 123.315 59.4364Z" fill="#423232"/>
<path d="M92.7909 82.648H80.3792C77.1297 82.648 74.5195 80.0378 74.5195 76.7884V71.7278C74.5195 68.4784 77.1297 65.8682 80.3792 65.8682H92.7909C96.0404 65.8682 98.6506 68.4784 98.6506 71.7278V76.7884C98.6506 80.0378 95.9871 82.648 92.7909 82.648Z" stroke="#423232" stroke-width="1.65692" stroke-miterlimit="10" stroke-linecap="round" stroke-linejoin="round"/>
<path d="M114.205 65.8682H108.079C105.948 65.8682 104.191 67.6261 104.191 69.7568V74.3913C104.936 77.0547 106.002 79.6117 107.6 81.9023C107.76 81.9023 107.919 81.9555 108.079 81.9555H114.205C116.336 81.9555 118.094 80.1976 118.094 78.0669V69.7568C118.147 67.5728 116.389 65.8682 114.205 65.8682Z" stroke="#423232" stroke-width="1.65692" stroke-miterlimit="10" stroke-linecap="round" stroke-linejoin="round"/>
<path d="M98.6506 70.7155C100.462 70.5024 102.752 70.3426 104.67 70.5557" stroke="#423232" stroke-width="1.65692" stroke-miterlimit="10" stroke-linecap="round" stroke-linejoin="round"/>
<path d="M74.5196 71.0889L62.1611 71.515" stroke="#423232" stroke-width="1.65692" stroke-miterlimit="10" stroke-linecap="round" stroke-linejoin="round"/>
</g>
<defs>
<filter id="filter0_i_1198_50867" x="0.689575" y="0.398926" width="159.808" height="159.808" filterUnits="userSpaceOnUse" color-interpolation-filters="sRGB">
<feFlood flood-opacity="0" result="BackgroundImageFix"/>
<feBlend mode="normal" in="SourceGraphic" in2="BackgroundImageFix" result="shape"/>
<feColorMatrix in="SourceAlpha" type="matrix" values="0 0 0 0 0 0 0 0 0 0 0 0 0 0 0 0 0 0 127 0" result="hardAlpha"/>
<feOffset/>
<feGaussianBlur stdDeviation="1.65692"/>
<feComposite in2="hardAlpha" operator="arithmetic" k2="-1" k3="1"/>
<feColorMatrix type="matrix" values="0 0 0 0 0 0 0 0 0 0 0 0 0 0 0 0 0 0 0.25 0"/>
<feBlend mode="normal" in2="shape" result="effect1_innerShadow_1198_50867"/>
</filter>
</defs>
</svg>
