<svg width="785" height="300" viewBox="0 0 785 300" fill="none" xmlns="http://www.w3.org/2000/svg">
<rect x="0.955078" width="784" height="300" rx="10" fill="#1549FF"/>
<path d="M67.5551 79.75V121.75H83.1551V109.75H95.7551V97.75H83.1551V92.95H98.7551V79.75H67.5551ZM102.932 121.75H117.332V77.35H102.932V121.75ZM134.122 122.65C139.522 122.65 141.922 118.15 141.922 118.15L143.122 121.75H156.922V89.95H142.522V106.75C142.522 109.15 141.322 110.35 140.122 110.35C138.922 110.35 137.722 109.15 137.722 106.75V89.95H123.322V106.75C123.322 117.85 128.122 122.65 134.122 122.65ZM165.332 101.95V107.05C165.332 117.55 170.732 122.95 179.732 122.95C182.732 122.95 185.132 122.35 185.132 122.35V110.35C185.132 110.35 183.932 110.65 182.732 110.65C180.932 110.65 179.732 109.45 179.732 107.05V101.95H185.132V89.95H179.732V79.75H165.332V89.95H161.132V101.95H165.332ZM193.515 101.95V107.05C193.515 117.55 198.915 122.95 207.915 122.95C210.915 122.95 213.315 122.35 213.315 122.35V110.35C213.315 110.35 212.115 110.65 210.915 110.65C209.115 110.65 207.915 109.45 207.915 107.05V101.95H213.315V89.95H207.915V79.75H193.515V89.95H189.315V101.95H193.515ZM233.727 89.05C224.427 89.05 216.927 96.55 216.927 105.85C216.927 115.15 224.427 122.65 234.627 122.65C242.727 122.65 247.227 117.85 247.227 117.85L242.127 109.75C242.127 109.75 239.727 112.15 236.727 112.15C231.927 112.15 231.327 108.85 231.327 108.85H250.527C250.527 108.61 250.527 106.09 250.527 105.85C250.527 96.55 243.027 89.05 233.727 89.05ZM231.027 103.15C231.027 100.75 232.227 99.55 233.727 99.55C235.227 99.55 236.427 100.75 236.427 103.15H231.027ZM269.748 93.55L268.548 89.95H254.748V121.75H269.148V108.55C269.148 104.35 271.548 101.95 274.548 101.95C276.348 101.95 278.748 103.15 278.748 103.15L281.148 89.95C281.148 89.95 279.348 89.05 276.948 89.05C272.148 89.05 269.748 93.55 269.748 93.55ZM314.776 89.95C314.776 83.35 308.776 77.35 298.576 77.35C284.176 77.35 281.776 88.75 281.776 88.75L293.176 92.95C293.176 92.95 293.776 89.35 296.776 89.35C297.976 89.35 299.176 90.55 299.176 91.75C299.176 95.95 291.976 97.15 291.976 106.15H304.576C304.576 100.15 314.776 97.75 314.776 89.95ZM291.976 109.75V121.75H304.576V109.75H291.976Z" fill="#45D1FD"/>
<path d="M89.3805 166.634H85.6125V138.17H89.3805V166.634ZM86.5297 152.358H81.7009V149.164H86.5297V152.358ZM82.8722 165.242H79.2147V138.667H82.8722V165.242ZM67.5904 156.855C69.6604 156.855 71.4431 156.811 72.9385 156.722C74.4339 156.627 75.9661 156.435 77.5352 156.148L77.8335 159.396C76.235 159.706 74.6659 159.912 73.1263 160.015C71.5868 160.118 69.7415 160.174 67.5904 160.181H65.6015V156.855H67.5904ZM76.2203 144.678H69.6015V158.468H65.6015V141.474H76.2203V144.678ZM108.584 151.032H103.744V147.783H108.584V151.032ZM100.772 145.529C100.764 147.761 100.536 149.872 100.086 151.86C99.6371 153.849 98.9336 155.636 97.976 157.22C97.0257 158.796 95.8213 160.03 94.3627 160.921L91.9318 157.96C93.2725 157.128 94.3738 156.056 95.2356 154.744C96.0975 153.426 96.7237 151.989 97.1141 150.435C97.5045 148.881 97.6997 147.245 97.6997 145.529V140.623H100.772V145.529ZM101.567 145.341C101.567 147.021 101.737 148.593 102.075 150.059C102.414 151.525 102.967 152.884 103.733 154.137C104.499 155.382 105.505 156.402 106.749 157.198L104.573 160.269C103.121 159.4 101.95 158.196 101.059 156.656C100.167 155.116 99.5266 153.4 99.1362 151.507C98.7531 149.606 98.5653 147.551 98.5727 145.341V140.623H101.567V145.341ZM117.103 166.634H113.291V138.17H117.103V166.634ZM111.158 165.319H107.423V138.612H111.158V165.319ZM143.212 149.076H123.345V145.949H143.212V149.076ZM146.096 155.242H120.085V152.115H146.096V155.242ZM127.312 147.507H123.345V139.186H127.312V147.507ZM143.389 166.004H123.08V162.8H143.389V166.004ZM127.069 163.684H123.08V157.573H127.069V163.684ZM178.763 141.938H157.426V138.965H178.763V141.938ZM178.575 148.667H157.614V145.673H178.575V148.667ZM165.094 147.628H161.117V140.115H165.094V147.628ZM175.061 147.628H171.05V140.115H175.061V147.628ZM181.094 153.286H155.15V150.159H181.094V153.286ZM177.923 161.938H162.078V164.645H158.166V159.22H173.989V157.761H158.144V154.91H177.923V161.938ZM178.663 166.435H158.166V163.496H178.663V166.435ZM206.762 166.7H202.795V138.17H206.762V166.7ZM203.601 151.695H198.22V148.435H203.601V151.695ZM186.143 156.778C188.854 156.778 191.141 156.726 193.005 156.623C194.869 156.52 196.758 156.302 198.673 155.971L198.994 159.209C197.012 159.54 195.027 159.768 193.038 159.894C191.049 160.012 188.751 160.07 186.143 160.07H183.8V156.778H186.143ZM196.629 151.22H187.778V157.816H183.8V148.048H192.729V143.783H183.734V140.568H196.629V151.22ZM234.451 166.7H230.506V138.17H234.451V166.7ZM230.993 151.43H225.512V148.236H230.993V151.43ZM214.02 156.999C216.679 156.999 218.93 156.951 220.772 156.855C222.621 156.759 224.488 156.564 226.374 156.269L226.772 159.463C224.805 159.757 222.849 159.96 220.904 160.07C218.959 160.181 216.665 160.24 214.02 160.247H211.755V156.999H214.02ZM225.059 143.783H215.744V158.015H211.755V140.568H225.059V143.783ZM224.02 151.628H214.838V148.501H224.02V151.628ZM260.549 166.568H256.56V138.17H260.549V166.568ZM264.571 152.369H259.522V149.076H264.571V152.369ZM252.958 141.087C252.951 144.056 252.524 146.796 251.676 149.308C250.829 151.813 249.452 154.118 247.544 156.225C245.643 158.325 243.146 160.133 240.052 161.651L237.809 158.601C240.35 157.319 242.45 155.868 244.107 154.247C245.765 152.627 246.999 150.789 247.809 148.733C248.627 146.678 249.036 144.369 249.036 141.805V141.087H252.958ZM251.058 144.347H239.411V141.087H251.058V144.347ZM287.647 152.501H273.989V140.026H287.647V152.501ZM277.934 149.341H283.713V143.186H277.934V149.341ZM295.713 154.126H291.713V138.17H295.713V154.126ZM299.536 147.628H294.586V144.358H299.536V147.628ZM287.702 157.606C287.702 159.102 287.29 160.468 286.465 161.706C285.647 162.936 284.439 163.971 282.84 164.811C281.249 165.651 279.338 166.214 277.105 166.501L275.669 163.485C277.562 163.249 279.161 162.833 280.465 162.236C281.776 161.632 282.752 160.932 283.393 160.137C284.034 159.341 284.354 158.498 284.354 157.606V156.921H287.702V157.606ZM288.619 157.606C288.612 158.453 288.932 159.282 289.581 160.093C290.236 160.895 291.22 161.606 292.531 162.225C293.842 162.844 295.433 163.275 297.304 163.518L295.879 166.568C293.64 166.273 291.717 165.695 290.111 164.833C288.512 163.978 287.293 162.929 286.454 161.684C285.621 160.439 285.209 159.08 285.216 157.606V156.921H288.619V157.606ZM296.056 158.612H276.896V155.463H296.056V158.612ZM313.756 138.59C315.944 138.59 317.808 138.778 319.347 139.153C320.894 139.522 322.073 140.067 322.883 140.789C323.694 141.511 324.099 142.391 324.099 143.43C324.099 144.483 323.694 145.374 322.883 146.104C322.073 146.826 320.894 147.374 319.347 147.75C317.808 148.126 315.944 148.314 313.756 148.314C311.568 148.321 309.701 148.137 308.154 147.761C306.614 147.378 305.436 146.826 304.618 146.104C303.8 145.374 303.395 144.483 303.403 143.43C303.395 142.398 303.8 141.522 304.618 140.8C305.436 140.07 306.614 139.522 308.154 139.153C309.701 138.778 311.568 138.59 313.756 138.59ZM313.756 141.507C312.379 141.5 311.229 141.57 310.309 141.717C309.395 141.864 308.71 142.081 308.253 142.369C307.797 142.656 307.572 143.01 307.579 143.43C307.572 143.886 307.789 144.258 308.231 144.546C308.681 144.826 309.351 145.035 310.242 145.175C311.134 145.315 312.305 145.385 313.756 145.385C315.222 145.385 316.404 145.315 317.303 145.175C318.202 145.035 318.872 144.826 319.314 144.546C319.764 144.266 319.988 143.894 319.988 143.43C319.988 143.01 319.76 142.656 319.303 142.369C318.854 142.081 318.165 141.868 317.237 141.728C316.316 141.581 315.156 141.507 313.756 141.507ZM326.751 152.822H300.806V149.662H326.751V152.822ZM323.579 161.717H307.734V164.291H303.822V158.932H319.646V157.385H303.8V154.457H323.579V161.717ZM324.32 166.435H303.822V163.43H324.32V166.435ZM352.451 166.7H348.506V138.17H352.451V166.7ZM348.993 151.43H343.512V148.236H348.993V151.43ZM332.02 156.999C334.679 156.999 336.93 156.951 338.772 156.855C340.621 156.759 342.488 156.564 344.374 156.269L344.772 159.463C342.805 159.757 340.849 159.96 338.904 160.07C336.959 160.181 334.665 160.24 332.02 160.247H329.755V156.999H332.02ZM343.059 143.783H333.744V158.015H329.755V140.568H343.059V143.783ZM342.02 151.628H332.838V148.501H342.02V151.628ZM362.174 156.977H358.174L357.754 141.12H362.594L362.174 156.977ZM360.174 164.026C359.702 164.026 359.264 163.908 358.859 163.673C358.454 163.43 358.133 163.109 357.897 162.711C357.662 162.314 357.548 161.879 357.555 161.407C357.548 160.936 357.662 160.501 357.897 160.104C358.133 159.698 358.454 159.382 358.859 159.153C359.264 158.918 359.702 158.8 360.174 158.8C360.638 158.8 361.072 158.918 361.478 159.153C361.883 159.382 362.203 159.698 362.439 160.104C362.675 160.501 362.796 160.936 362.803 161.407C362.796 161.879 362.675 162.314 362.439 162.711C362.203 163.109 361.883 163.43 361.478 163.673C361.072 163.908 360.638 164.026 360.174 164.026Z" fill="white"/>
<path d="M561.31 219.215L607.435 265.368L734.342 138.432H642.064L561.31 219.215Z" fill="#39CEFD"/>
<path d="M642.064 0H734.342L538.233 196.138L492.08 149.984L642.064 0Z" fill="#39CEFD"/>
<path d="M607.435 265.368L642.064 299.969H734.342L653.588 219.215L607.435 265.368Z" fill="#03569B"/>
<path d="M675.885 241.656L653.588 219.215L607.435 265.368L675.885 241.656Z" fill="url(#paint0_linear_190_61512)"/>
<path d="M561.305 219.199L607.459 173.044L653.617 219.199L607.459 265.354L561.305 219.199Z" fill="#16B9FD"/>
<path d="M734.342 138.432L653.588 219.215L734.342 299.998H642.064L561.281 219.215L642.064 138.432H734.342ZM642.064 0L492.08 149.984L538.233 196.138L734.342 0H642.064Z" fill="url(#paint1_radial_190_61512)"/>
<path d="M63.9551 212.5C63.9551 198.693 75.148 187.5 88.9551 187.5H168.955C182.762 187.5 193.955 198.693 193.955 212.5C193.955 226.307 182.762 237.5 168.955 237.5H88.9551C75.148 237.5 63.9551 226.307 63.9551 212.5Z" fill="#F23F3F"/>
<path d="M96.1951 202.7L100.875 219.5H109.035L113.715 202.7H106.755L104.955 212.54L103.155 202.7H96.1951ZM120.915 202.7H114.675V219.5H120.915V202.7ZM129.312 213.5H135.552V208.7H129.312V207.5H136.032V202.7H123.072V219.5H136.512V214.7H129.312V213.5ZM151.882 202.7H146.362L144.562 211.94L143.242 202.7H136.762L140.362 219.5H147.322L149.122 210.98L150.922 219.5H157.882L161.482 202.7H155.002L153.682 211.94L151.882 202.7Z" fill="white"/>
<defs>
<linearGradient id="paint0_linear_190_61512" x1="620.904" y1="274.275" x2="655.278" y2="239.901" gradientUnits="userSpaceOnUse">
<stop stop-color="#1A237E" stop-opacity="0.4"/>
<stop offset="1" stop-color="#1A237E" stop-opacity="0"/>
</linearGradient>
<radialGradient id="paint1_radial_190_61512" cx="0" cy="0" r="1" gradientUnits="userSpaceOnUse" gradientTransform="translate(498.886 20.447) scale(367.01)">
<stop stop-color="white" stop-opacity="0.1"/>
<stop offset="1" stop-color="white" stop-opacity="0"/>
</radialGradient>
</defs>
</svg>
