<svg width="785" height="298" viewBox="0 0 785 298" fill="none" xmlns="http://www.w3.org/2000/svg">
<g clip-path="url(#clip0_190_61500)">
<rect x="0.955078" width="784" height="298" rx="10" fill="#D2F8FF"/>
<path d="M108.955 122.75L98.7551 106.55C98.7551 106.55 104.155 103.55 104.155 94.85C104.155 86.15 98.1551 80.15 84.9551 80.15C75.9551 80.15 67.5551 80.75 67.5551 80.75V122.75H83.1551V108.95H83.7551L90.9551 122.75H108.955ZM83.1551 98.15V91.55H84.9551C87.0551 91.55 88.5551 93.05 88.5551 94.85C88.5551 96.65 87.0551 98.15 84.9551 98.15H83.1551ZM125.211 90.05C115.911 90.05 108.411 97.55 108.411 106.85C108.411 116.15 115.911 123.65 126.111 123.65C134.211 123.65 138.711 118.85 138.711 118.85L133.611 110.75C133.611 110.75 131.211 113.15 128.211 113.15C123.411 113.15 122.811 109.85 122.811 109.85H142.011C142.011 109.61 142.011 107.09 142.011 106.85C142.011 97.55 134.511 90.05 125.211 90.05ZM122.511 104.15C122.511 101.75 123.711 100.55 125.211 100.55C126.711 100.55 127.911 101.75 127.911 104.15H122.511ZM160.332 90.05C152.232 90.05 147.732 94.85 147.732 94.85L152.832 102.95C152.832 102.95 155.232 100.55 158.232 100.55C163.032 100.55 163.632 103.85 163.632 103.85H158.832C148.632 103.85 144.432 108.05 144.432 113.75C144.432 119.45 148.632 123.65 155.232 123.65C160.632 123.65 163.032 119.15 163.032 119.15L164.232 122.75H178.032C178.032 118.07 178.032 112.01 178.032 106.85C178.032 97.55 170.532 90.05 160.332 90.05ZM160.632 114.05C159.732 114.05 158.832 113.15 158.832 112.25C158.832 110.45 160.332 108.95 163.632 108.95C163.632 112.55 162.132 114.05 160.632 114.05ZM197.239 106.85C197.239 104.15 199.039 102.35 202.039 102.35C205.039 102.35 207.439 104.75 207.439 104.75L213.439 95.15C213.439 95.15 208.639 90.05 199.939 90.05C189.739 90.05 182.239 97.55 182.239 106.85C182.239 116.15 189.739 123.65 199.939 123.65C208.639 123.65 213.439 118.55 213.439 118.55L207.439 108.95C207.439 108.95 205.039 111.35 202.039 111.35C199.039 111.35 197.239 109.55 197.239 106.85ZM219.414 102.95V108.05C219.414 118.55 224.814 123.95 233.814 123.95C236.814 123.95 239.214 123.35 239.214 123.35V111.35C239.214 111.35 238.014 111.65 236.814 111.65C235.014 111.65 233.814 110.45 233.814 108.05V102.95H239.214V90.95H233.814V80.75H219.414V90.95H215.214V102.95H219.414Z" fill="#00D8FF"/>
<path d="M283.609 122.75H301.009V80.75H285.409V99.35L275.209 80.75H257.809V122.75H273.409V104.15L283.609 122.75ZM321.7 90.05C313.6 90.05 309.1 94.85 309.1 94.85L314.2 102.95C314.2 102.95 316.6 100.55 319.6 100.55C324.4 100.55 325 103.85 325 103.85H320.2C310 103.85 305.8 108.05 305.8 113.75C305.8 119.45 310 123.65 316.6 123.65C322 123.65 324.4 119.15 324.4 119.15L325.6 122.75H339.4C339.4 118.07 339.4 112.01 339.4 106.85C339.4 97.55 331.9 90.05 321.7 90.05ZM322 114.05C321.1 114.05 320.2 113.15 320.2 112.25C320.2 110.45 321.7 108.95 325 108.95C325 112.55 323.5 114.05 322 114.05ZM346.621 102.95V108.05C346.621 118.55 352.021 123.95 361.021 123.95C364.021 123.95 366.421 123.35 366.421 123.35V111.35C366.421 111.35 365.221 111.65 364.021 111.65C362.221 111.65 361.021 110.45 361.021 108.05V102.95H366.421V90.95H361.021V80.75H346.621V90.95H342.421V102.95H346.621ZM372.404 90.95V122.75H386.804V90.95H372.404ZM372.404 87.35H386.804V75.95H372.404V87.35ZM415.895 122.75L425.195 90.95H410.195L407.495 107.75L404.795 90.95H389.795L399.095 122.75H415.895ZM443.2 90.05C433.9 90.05 426.4 97.55 426.4 106.85C426.4 116.15 433.9 123.65 444.1 123.65C452.2 123.65 456.7 118.85 456.7 118.85L451.6 110.75C451.6 110.75 449.2 113.15 446.2 113.15C441.4 113.15 440.8 109.85 440.8 109.85H460C460 109.61 460 107.09 460 106.85C460 97.55 452.5 90.05 443.2 90.05ZM440.5 104.15C440.5 101.75 441.7 100.55 443.2 100.55C444.7 100.55 445.9 101.75 445.9 104.15H440.5Z" fill="#222222"/>
<path d="M73.2368 143.247C73.2295 144.36 72.9974 145.417 72.5407 146.419C72.0914 147.42 71.3989 148.304 70.4634 149.07C69.5278 149.829 68.3602 150.389 66.9606 150.75L65.2921 147.844C66.3676 147.571 67.281 147.196 68.0324 146.717C68.7838 146.231 69.3473 145.689 69.723 145.093C70.0987 144.488 70.2866 143.873 70.2866 143.247V141.689H73.2368V143.247ZM74.2424 143.159C74.2424 143.704 74.4229 144.256 74.7838 144.816C75.1521 145.376 75.6899 145.884 76.3971 146.341C77.1042 146.798 77.9551 147.151 78.9496 147.402L77.7562 150.341C76.3345 150.01 75.1484 149.472 74.1982 148.728C73.2553 147.977 72.5554 147.118 72.0987 146.153C71.6494 145.188 71.4284 144.19 71.4357 143.159V141.689H74.2424V143.159ZM84.0324 143.159C84.0251 144.212 83.8004 145.225 83.3584 146.198C82.9164 147.163 82.224 148.017 81.281 148.761C80.3455 149.498 79.1705 150.024 77.7562 150.341L76.5407 147.402C77.5352 147.174 78.3823 146.835 79.0822 146.385C79.782 145.929 80.3087 145.42 80.6623 144.86C81.0232 144.301 81.2074 143.733 81.2147 143.159V141.689H84.0324V143.159ZM85.2589 143.247C85.2516 143.888 85.4321 144.511 85.8004 145.115C86.1687 145.711 86.7286 146.253 87.4799 146.739C88.2313 147.218 89.1595 147.586 90.2645 147.844L88.5739 150.75C87.1742 150.396 86.003 149.844 85.0601 149.093C84.1245 148.334 83.4247 147.453 82.9606 146.452C82.5039 145.442 82.2755 144.374 82.2755 143.247V141.689H85.2589V143.247ZM77.1705 143.214H66.5076V140.043H77.1705V143.214ZM88.9385 143.214H78.3308V140.043H88.9385V143.214ZM90.7507 155.722H64.8059V152.573H90.7507V155.722ZM79.723 155.214H75.7783V150.341H79.723V155.214ZM87.6346 167.314H67.8114V157.756H87.6346V167.314ZM71.7341 164.12H83.7451V160.849H71.7341V164.12ZM114.334 155.203H100.677V141.546H114.334V155.203ZM104.622 152.065H110.401V144.717H104.622V152.065ZM122.401 159.943H118.401V139.192H122.401V159.943ZM126.224 150.673H121.252V147.38H126.224V150.673ZM123.417 167.137H103.948V163.921H123.417V167.137ZM107.926 165.535H103.948V157.888H107.926V165.535ZM151.527 167.634H147.516V139.17H151.527V167.634ZM137.317 146.319C137.309 148.669 137.018 150.897 136.444 153.004C135.869 155.104 135.011 156.978 133.869 158.628C132.735 160.279 131.357 161.546 129.737 162.43L127.129 159.391C128.654 158.647 129.943 157.59 130.996 156.22C132.05 154.842 132.838 153.302 133.361 151.601C133.884 149.899 134.149 148.139 134.156 146.319V143.612H137.317V146.319ZM138.234 146.319C138.226 147.866 138.492 149.442 139.029 151.048C139.574 152.654 140.374 154.135 141.427 155.49C142.481 156.838 143.748 157.881 145.228 158.617L142.875 161.678C141.254 160.86 139.858 159.645 138.687 158.032C137.516 156.411 136.624 154.584 136.013 152.551C135.401 150.511 135.096 148.433 135.096 146.319V143.612H138.234V146.319ZM144.024 145.137H128.245V141.921H144.024V145.137ZM150.234 150.275H142.83V146.993H150.234V150.275ZM150.234 156.231H142.83V152.949H150.234V156.231ZM169.762 143.048H181.188V140.209H185.132V151.833H165.84V140.209H169.762V143.048ZM181.188 148.673V146.109H169.762V148.673H181.188ZM188.469 157.446H162.525V154.242H188.469V157.446ZM177.453 155.612H173.453V150.098H177.453V155.612ZM185.508 167.137H165.652V163.921H185.508V167.137ZM169.652 165.126H165.652V159.059H169.652V165.126ZM223.567 164.319H197.556V161.015H223.567V164.319ZM221.401 144.883H199.589V141.678H221.401V144.883ZM221.269 156.64H199.711V153.49H221.269V156.64ZM207.501 153.789H203.523V144.562H207.501V153.789ZM217.39 153.789H213.456V144.562H217.39V153.789ZM251.19 158.098H225.179V154.905H251.19V158.098ZM248.671 167.778H228.461V164.595H248.671V167.778ZM232.45 165.568H228.461V159.546H232.45V165.568ZM240.162 156.385H236.218V150.971H240.162V156.385ZM248.052 147.689H232.383V150.673H228.417V144.883H244.052V142.883H228.372V139.811H248.052V147.689ZM248.571 152.717H228.417V149.7H248.571V152.717ZM276.051 157.015H255.94V153.877H276.051V157.015ZM278.879 164.319H252.868V161.07H278.879V164.319ZM275.83 144.507H259.984V154.739H255.94V141.28H275.83V144.507ZM275.156 150.64H258.791V147.512H275.156V150.64ZM296.492 150.164H292.083V146.905H296.492V150.164ZM287.177 141.28C288.429 141.28 289.556 141.582 290.558 142.186C291.56 142.783 292.34 143.627 292.9 144.717C293.468 145.8 293.751 147.041 293.751 148.441C293.751 149.818 293.468 151.048 292.9 152.131C292.34 153.214 291.556 154.061 290.547 154.673C289.545 155.284 288.422 155.59 287.177 155.59C285.924 155.59 284.801 155.284 283.806 154.673C282.819 154.061 282.046 153.214 281.486 152.131C280.926 151.048 280.646 149.818 280.646 148.441C280.646 147.041 280.926 145.8 281.486 144.717C282.046 143.627 282.819 142.783 283.806 142.186C284.801 141.582 285.924 141.28 287.177 141.28ZM287.177 144.662C286.587 144.662 286.068 144.813 285.619 145.115C285.177 145.417 284.83 145.855 284.58 146.43C284.329 146.997 284.204 147.667 284.204 148.441C284.204 149.214 284.329 149.881 284.58 150.441C284.83 151 285.177 151.428 285.619 151.722C286.068 152.01 286.587 152.153 287.177 152.153C287.751 152.153 288.267 152.006 288.724 151.711C289.18 151.417 289.538 150.989 289.795 150.43C290.053 149.87 290.186 149.207 290.193 148.441C290.186 147.667 290.053 146.997 289.795 146.43C289.538 145.855 289.18 145.417 288.724 145.115C288.267 144.813 287.751 144.662 287.177 144.662ZM304.956 160.385H301.177V139.17H304.956V160.385ZM299.188 159.501H295.519V139.623H299.188V159.501ZM305.685 167.137H285.685V163.921H305.685V167.137ZM289.663 165.623H285.685V157.634H289.663V165.623ZM331.352 155.546H311.242V152.352H331.352V155.546ZM334.192 164.164H308.181V160.883H334.192V164.164ZM331.153 144.783H315.175V153.7H311.242V141.557H331.153V144.783ZM367.731 167.634H363.897V139.17H367.731V167.634ZM365.046 153.159H360.207V149.954H365.046V153.159ZM355.566 142.695C355.566 145.487 355.245 148.024 354.604 150.308C353.964 152.592 352.877 154.698 351.345 156.628C349.813 158.558 347.75 160.275 345.157 161.778L342.859 159.015C345.032 157.748 346.77 156.349 348.074 154.816C349.385 153.284 350.332 151.593 350.914 149.744C351.496 147.895 351.787 145.803 351.787 143.468V142.695H355.566ZM352.936 145.888H344.295V142.695H352.936V145.888ZM361.29 166.363H357.588V139.921H361.29V166.363ZM375.664 143.833H381.498V140.463H385.476V152.872H371.708V140.463H375.664V143.833ZM381.498 149.744V146.827H375.664V149.744H381.498ZM393.432 153.667H389.432V139.17H393.432V153.667ZM397.255 147.943H391.763V144.717H397.255V147.943ZM393.432 162.452H378.537V165.855H374.603V159.59H389.454V157.8H374.559V154.717H393.432V162.452ZM394.25 167.435H374.603V164.297H394.25V167.435ZM408.193 146.927C408.186 149.122 407.869 151.24 407.243 153.28C406.624 155.314 405.711 157.126 404.503 158.717C403.294 160.301 401.854 161.49 400.182 162.286L397.862 159.137C399.379 158.422 400.676 157.413 401.751 156.109C402.827 154.798 403.637 153.35 404.182 151.767C404.727 150.175 405.003 148.562 405.011 146.927V143.623H408.193V146.927ZM409.022 146.927C409.015 148.437 409.272 149.94 409.795 151.435C410.318 152.923 411.103 154.29 412.149 155.535C413.202 156.772 414.48 157.737 415.983 158.43L413.762 161.557C412.09 160.791 410.657 159.649 409.464 158.131C408.278 156.606 407.379 154.875 406.768 152.938C406.164 150.993 405.862 148.989 405.862 146.927V143.623H409.022V146.927ZM414.746 145.181H398.989V141.921H414.746V145.181ZM420.956 167.634H416.967V139.17H420.956V167.634ZM425.154 153.369H420.072V150.043H425.154V153.369ZM459.567 164.297H433.556V161.048H459.567V164.297ZM448.473 161.811H444.528V154.651H448.473V161.811ZM456.672 155.214H436.307V141.28H456.672V155.214ZM440.241 152.087H452.738V144.474H440.241V152.087ZM474.162 139.711C476.262 139.711 478.089 139.936 479.643 140.385C481.205 140.827 482.406 141.468 483.245 142.308C484.085 143.148 484.505 144.142 484.505 145.291C484.505 146.426 484.085 147.406 483.245 148.231C482.406 149.056 481.205 149.689 479.643 150.131C478.089 150.573 476.262 150.794 474.162 150.794C472.078 150.794 470.255 150.573 468.693 150.131C467.131 149.689 465.923 149.056 465.069 148.231C464.221 147.398 463.801 146.419 463.809 145.291C463.801 144.142 464.221 143.148 465.069 142.308C465.916 141.468 467.12 140.827 468.682 140.385C470.251 139.936 472.078 139.711 474.162 139.711ZM474.162 142.816C472.836 142.809 471.709 142.901 470.781 143.093C469.853 143.277 469.146 143.553 468.66 143.921C468.181 144.29 467.945 144.746 467.952 145.291C467.945 145.807 468.181 146.245 468.66 146.606C469.146 146.96 469.853 147.233 470.781 147.424C471.709 147.608 472.836 147.7 474.162 147.7C475.481 147.7 476.604 147.608 477.533 147.424C478.461 147.233 479.168 146.96 479.654 146.606C480.148 146.245 480.394 145.807 480.394 145.291C480.394 144.746 480.148 144.29 479.654 143.921C479.168 143.553 478.461 143.277 477.533 143.093C476.604 142.901 475.481 142.809 474.162 142.816ZM484.041 167.314H464.218V157.612H484.041V167.314ZM468.14 164.12H480.151V160.772H468.14V164.12ZM487.157 155.623H461.212V152.441H487.157V155.623Z" fill="black"/>
<path d="M715.607 230.694C734.922 230.694 750.579 215.037 750.579 195.722C750.579 176.407 734.922 160.749 715.607 160.749C696.292 160.749 680.634 176.407 680.634 195.722C680.634 215.037 696.292 230.694 715.607 230.694Z" fill="#00D8FF"/>
<path d="M715.607 275.838C666.492 275.838 623.577 270.056 591.461 259.049C570.63 251.943 552.935 242.468 540.325 231.67C526.949 220.244 519.843 207.774 519.843 195.722C519.843 172.592 545.202 149.951 587.768 135.181C622.602 123.059 668.024 116.302 715.537 116.302C762.214 116.302 807.009 122.85 841.634 134.833C861.907 141.8 878.975 150.856 891.097 160.888C904.264 171.896 911.231 183.948 911.231 195.722C911.231 219.757 882.876 244.07 837.175 259.188C804.85 269.917 761.656 275.838 715.607 275.838ZM715.607 133.022C670.532 133.022 625.946 139.57 593.342 150.926C554.189 164.581 536.633 183.251 536.633 195.722C536.633 208.68 555.513 229.092 596.895 243.234C627.269 253.615 668.373 259.118 715.607 259.118C759.915 259.118 801.227 253.545 831.95 243.304C874.934 229.022 894.58 208.61 894.58 195.722C894.58 189.103 889.564 181.301 880.438 173.707C869.918 164.929 854.592 156.917 836.269 150.578C803.317 139.292 760.472 133.022 715.607 133.022Z" fill="#00D8FF"/>
<path d="M636.256 370.027C629.15 370.027 622.88 368.495 617.586 365.429C597.591 353.865 590.625 320.564 599.054 276.326C605.951 240.029 622.811 197.393 646.567 156.22C669.905 115.814 697.911 80.2838 725.569 56.2488C741.732 42.1761 758.103 31.8654 772.873 26.4314C788.966 20.5098 802.899 20.5098 813.07 26.3618C833.901 38.3444 840.798 75.1284 831.044 122.223C824.147 155.663 807.706 196 784.716 235.919C760.193 278.416 733.72 312.692 708.152 335.055C691.572 349.545 674.503 360.135 658.898 365.638C650.747 368.564 643.084 370.027 636.256 370.027ZM653.743 160.4L660.988 164.58C638.486 203.594 621.835 245.463 615.426 279.461C607.693 320.216 615.147 344.738 625.876 350.939C628.523 352.471 632.007 353.307 636.256 353.307C650.12 353.307 671.926 344.529 697.145 322.515C721.319 301.406 746.608 268.523 770.225 227.629C792.379 189.242 808.124 150.647 814.673 118.949C823.799 74.5711 815.927 47.4011 804.71 40.9221C798.998 37.6478 789.732 38.0658 778.585 42.1761C765.697 46.9134 751.137 56.1791 736.507 68.9281C710.242 91.7788 683.421 125.776 660.988 164.65L653.743 160.4Z" fill="#00D8FF"/>
<path d="M794.957 370.236C776.008 370.236 751.973 358.811 726.893 337.214C698.887 313.11 670.393 277.231 646.567 236.058C623.159 195.652 606.439 153.643 599.403 117.625C595.292 96.5857 594.526 77.2881 597.173 61.7524C600.099 44.8234 606.996 32.7711 617.237 26.8494C637.998 14.7971 673.319 27.1978 709.267 59.1748C734.765 81.8164 761.517 116.232 784.577 156.081C809.169 198.578 825.68 238.636 832.229 271.937C836.478 293.533 837.175 313.597 834.179 329.899C830.975 347.246 823.729 359.577 813.279 365.638C808.054 368.704 801.854 370.236 794.957 370.236ZM661.058 227.698C683.63 266.712 711.636 302.033 737.83 324.535C769.25 351.566 794.191 357.418 804.989 351.148C816.205 344.669 824.426 318.126 815.927 275.211C809.657 243.722 793.842 205.405 770.156 164.511C747.932 126.124 722.364 93.1721 698.19 71.7148C664.332 41.6188 636.883 34.8611 625.667 41.3401C619.954 44.6144 615.705 52.9048 613.684 64.6088C611.385 78.1241 612.082 95.4014 615.844 114.42C622.532 148.627 638.555 188.824 661.058 227.698Z" fill="#00D8FF"/>
<path d="M63.9551 211.5C63.9551 197.693 75.148 186.5 88.9551 186.5H168.955C182.762 186.5 193.955 197.693 193.955 211.5C193.955 225.307 182.762 236.5 168.955 236.5H88.9551C75.148 236.5 63.9551 225.307 63.9551 211.5Z" fill="#872DFB"/>
<path d="M96.1951 201.7L100.875 218.5H109.035L113.715 201.7H106.755L104.955 211.54L103.155 201.7H96.1951ZM120.915 201.7H114.675V218.5H120.915V201.7ZM129.312 212.5H135.552V207.7H129.312V206.5H136.032V201.7H123.072V218.5H136.512V213.7H129.312V212.5ZM151.882 201.7H146.362L144.562 210.94L143.242 201.7H136.762L140.362 218.5H147.322L149.122 209.98L150.922 218.5H157.882L161.482 201.7H155.002L153.682 210.94L151.882 201.7Z" fill="white"/>
</g>
<defs>
<clipPath id="clip0_190_61500">
<rect x="0.955078" width="784" height="298" rx="10" fill="white"/>
</clipPath>
</defs>
</svg>
