<svg width="1600" height="360" viewBox="0 0 1600 360" fill="none" xmlns="http://www.w3.org/2000/svg">
<rect width="1600" height="360" rx="10" fill="#FFD600"/>
<path d="M467.491 119.335L476.122 91.2842V119.335H494.822V68.9875H468.21L459.939 96.319L451.667 68.9875H425.055V119.335H443.755V91.2842L452.386 119.335H467.491ZM522.142 101.354H540.843V86.9687H522.142V83.3725H542.281V68.9875H503.442V119.335H543.72V104.95H522.142V101.354ZM577.553 102.792C572.518 102.792 568.922 99.196 568.922 94.1612C568.922 89.1265 572.518 85.5302 577.553 85.5302C582.588 85.5302 586.903 89.4861 586.903 89.4861L595.534 75.8203C595.534 75.8203 589.061 67.9086 575.395 67.9086C560.291 67.9086 548.783 79.4166 548.783 94.1612C548.783 108.906 560.291 120.414 575.395 120.414C589.78 120.414 596.253 111.783 596.253 111.783V94.1612H578.991V102.792C578.991 102.792 578.272 102.792 577.553 102.792ZM639.066 68.9875H614.611L599.866 119.335H620.725L622.163 112.142H631.513L632.952 119.335H653.81C653.81 119.335 639.137 69.2752 639.066 68.9875ZM624.321 100.634L626.838 87.688L629.356 100.634H624.321ZM693.335 92.7227C693.335 92.7227 702.685 90.9246 702.685 82.2936C702.685 74.7415 696.212 68.2682 680.029 68.2682C668.881 68.2682 658.811 68.9875 658.811 68.9875V119.335C658.811 119.335 668.881 120.054 680.389 120.054C698.37 120.054 704.843 113.581 704.843 105.669C704.843 94.8805 693.335 93.0823 693.335 93.0823V92.7227ZM677.512 81.2147H680.029C682.546 81.2147 683.985 82.6532 683.985 84.4513C683.985 86.2495 682.546 87.688 680.029 87.688H677.512V81.2147ZM680.389 107.108C678.95 107.108 677.512 107.108 677.512 107.108V99.9152H680.389C683.266 99.9152 684.704 101.354 684.704 103.511C684.704 105.669 683.266 107.108 680.389 107.108ZM725.769 68.9875H704.191L721.453 99.9152V119.335H740.154V99.9152L757.416 68.9875H735.838L730.804 83.3725L725.769 68.9875ZM757.43 68.9875V85.5302H771.096V119.335H789.796V85.5302H803.462V68.9875H757.43ZM827.894 101.354H846.594V86.9687H827.894V83.3725H848.033V68.9875H809.193V119.335H849.471V104.95H827.894V101.354ZM885.836 105.669C878.643 105.669 873.609 100.994 873.609 100.994L866.776 111.783C866.776 111.783 873.249 120.414 889.072 120.414C901.659 120.414 909.571 112.502 909.571 104.231C909.571 88.4072 890.151 88.4072 890.151 84.811C890.151 83.7321 891.23 82.6532 893.028 82.6532C898.063 82.6532 902.379 86.6091 902.379 86.6091L909.211 75.8203C909.211 75.8203 902.738 67.9086 889.792 67.9086C877.205 67.9086 869.293 75.8203 869.293 84.0917C869.293 99.9152 888.713 99.9152 888.713 103.511C888.713 104.59 887.634 105.669 885.836 105.669ZM913.887 94.1612C913.887 108.906 925.395 120.414 940.499 120.414C954.165 120.414 960.638 112.502 960.638 112.502L952.007 98.8363C952.007 98.8363 947.691 102.792 942.657 102.792C937.622 102.792 934.026 99.196 934.026 94.1612C934.026 89.1265 937.622 85.5302 942.657 85.5302C947.691 85.5302 952.007 89.4861 952.007 89.4861L960.638 75.8203C960.638 75.8203 954.165 67.9086 940.499 67.9086C925.395 67.9086 913.887 79.4166 913.887 94.1612ZM985.089 68.9875H966.389V119.335H985.089V102.073H996.597V119.335H1015.3V68.9875H996.597V86.2495H985.089V68.9875ZM1058.44 94.1612C1058.44 99.196 1054.84 102.792 1050.53 102.792C1046.21 102.792 1042.62 99.196 1042.62 94.1612C1042.62 89.1265 1046.21 85.5302 1050.53 85.5302C1054.84 85.5302 1058.44 89.1265 1058.44 94.1612ZM1078.58 94.1612C1078.58 79.4166 1067.07 67.9086 1050.53 67.9086C1033.98 67.9086 1022.48 79.4166 1022.48 94.1612C1022.48 108.906 1033.98 120.414 1050.53 120.414C1067.07 120.414 1078.58 108.906 1078.58 94.1612ZM1120.32 94.1612C1120.32 99.196 1116.72 102.792 1112.41 102.792C1108.09 102.792 1104.5 99.196 1104.5 94.1612C1104.5 89.1265 1108.09 85.5302 1112.41 85.5302C1116.72 85.5302 1120.32 89.1265 1120.32 94.1612ZM1140.46 94.1612C1140.46 79.4166 1128.95 67.9086 1112.41 67.9086C1095.87 67.9086 1084.36 79.4166 1084.36 94.1612C1084.36 108.906 1095.87 120.414 1112.41 120.414C1128.95 120.414 1140.46 108.906 1140.46 94.1612ZM1166.38 68.9875H1147.68V119.335H1185.8V102.792H1166.38V68.9875Z" fill="#00A98E"/>
<path d="M444.171 171.433C440.935 171.433 438.417 168.915 438.417 164.959V137.987H419.717V164.959C419.717 179.344 429.786 189.414 444.171 189.414C458.556 189.414 468.626 179.344 468.626 164.959V137.987H449.925V164.959C449.925 168.915 447.408 171.433 444.171 171.433ZM486.593 163.161L472.208 188.335H493.785L499.539 173.231L505.293 188.335H526.871L512.486 163.161L526.152 137.987H504.574L499.539 151.653L494.505 137.987H472.927L486.593 163.161ZM541.273 194.089L564.289 132.233H550.623L527.607 194.089H541.273ZM594.483 171.433C591.247 171.433 588.729 168.915 588.729 164.959V137.987H570.029V164.959C570.029 179.344 580.098 189.414 594.483 189.414C608.868 189.414 618.938 179.344 618.938 164.959V137.987H600.237V164.959C600.237 168.915 597.72 171.433 594.483 171.433ZM646.255 137.987H627.555V188.335H646.255V137.987ZM690.854 137.268C679.346 137.268 669.277 137.987 669.277 137.987V188.335H687.977V172.152C687.977 172.152 691.574 172.511 694.451 172.511C706.678 172.511 713.87 165.319 713.87 154.89C713.87 144.461 706.678 137.268 690.854 137.268ZM687.977 158.846V150.934H690.854C693.372 150.934 695.17 152.732 695.17 154.89C695.17 157.048 693.372 158.846 690.854 158.846H687.977ZM769.969 188.335L757.742 168.915C757.742 168.915 764.215 165.319 764.215 154.89C764.215 144.461 757.023 137.268 741.199 137.268C730.41 137.268 720.341 137.987 720.341 137.987V188.335H739.041V171.792H739.761L748.392 188.335H769.969ZM739.041 158.846V150.934H741.199C743.716 150.934 745.515 152.732 745.515 154.89C745.515 157.048 743.716 158.846 741.199 158.846H739.041ZM807.404 163.161C807.404 168.196 803.808 171.792 799.492 171.792C795.177 171.792 791.58 168.196 791.58 163.161C791.58 158.126 795.177 154.53 799.492 154.53C803.808 154.53 807.404 158.126 807.404 163.161ZM827.543 163.161C827.543 148.417 816.035 136.909 799.492 136.909C782.949 136.909 771.441 148.417 771.441 163.161C771.441 177.906 782.949 189.414 799.492 189.414C816.035 189.414 827.543 177.906 827.543 163.161ZM841.984 166.038C841.984 169.994 839.467 172.511 836.23 172.511C833.353 172.511 831.195 171.073 831.195 171.073L826.16 186.177C826.16 186.177 831.195 190.493 840.545 190.493C851.334 190.493 860.684 181.142 860.684 166.038V137.987H841.984V166.038ZM888.019 170.354H906.719V155.969H888.019V152.372H908.158V137.987H869.318V188.335H909.596V173.95H888.019V170.354ZM914.659 163.161C914.659 177.906 926.167 189.414 941.271 189.414C954.937 189.414 961.41 181.502 961.41 181.502L952.779 167.836C952.779 167.836 948.464 171.792 943.429 171.792C938.394 171.792 934.798 168.196 934.798 163.161C934.798 158.126 938.394 154.53 943.429 154.53C948.464 154.53 952.779 158.486 952.779 158.486L961.41 144.82C961.41 144.82 954.937 136.909 941.271 136.909C926.167 136.909 914.659 148.417 914.659 163.161ZM964.285 137.987V154.53H977.95V188.335H996.651V154.53H1010.32V137.987H964.285ZM1031.51 174.669C1024.32 174.669 1019.28 169.994 1019.28 169.994L1012.45 180.783C1012.45 180.783 1018.93 189.414 1034.75 189.414C1047.34 189.414 1055.25 181.502 1055.25 173.231C1055.25 157.407 1035.83 157.407 1035.83 153.811C1035.83 152.732 1036.91 151.653 1038.7 151.653C1043.74 151.653 1048.05 155.609 1048.05 155.609L1054.89 144.82C1054.89 144.82 1048.41 136.909 1035.47 136.909C1022.88 136.909 1014.97 144.82 1014.97 153.092C1014.97 168.915 1034.39 168.915 1034.39 172.511C1034.39 173.59 1033.31 174.669 1031.51 174.669ZM1079.7 137.987H1061V188.335H1079.7V171.073H1091.21V188.335H1109.91V137.987H1091.21V155.249H1079.7V137.987ZM1137.23 137.987H1118.53V188.335H1137.23V137.987ZM1167.43 137.268C1155.92 137.268 1145.85 137.987 1145.85 137.987V188.335H1164.55V172.152C1164.55 172.152 1168.15 172.511 1171.02 172.511C1183.25 172.511 1190.44 165.319 1190.44 154.89C1190.44 144.461 1183.25 137.268 1167.43 137.268ZM1164.55 158.846V150.934H1167.43C1169.95 150.934 1171.74 152.732 1171.74 154.89C1171.74 157.048 1169.95 158.846 1167.43 158.846H1164.55Z" fill="#222222"/>
<path d="M582 263.436C582 247.044 595.288 233.756 611.68 233.756H996.04C1012.43 233.756 1025.72 247.044 1025.72 263.436C1025.72 279.828 1012.43 293.116 996.04 293.116H611.68C595.288 293.116 582 279.828 582 263.436Z" fill="#FF5D7B"/>
<path d="M622.086 252.797V272.936H629.566V267.182H635.608V261.428H629.566V259.126H637.047V252.797H622.086ZM645.954 252.797H638.474V272.936H645.954V252.797ZM660.911 272.936H669.254V252.797H661.774V261.715L656.883 252.797H648.54V272.936H656.02V264.017L660.911 272.936ZM686.08 252.797H676.299L670.401 272.936H678.744L679.319 270.059H683.059L683.635 272.936H691.978C691.978 272.936 686.109 252.912 686.08 252.797ZM680.182 265.455L681.189 260.277L682.196 265.455H680.182ZM700.596 252.797H693.115V272.936H708.364V266.318H700.596V252.797ZM723.34 252.509C718.737 252.509 714.709 252.797 714.709 252.797V272.936H722.189V266.462C722.189 266.462 723.627 266.606 724.778 266.606C729.669 266.606 732.546 263.729 732.546 259.557C732.546 255.386 729.669 252.509 723.34 252.509ZM722.189 261.14V257.975H723.34C724.347 257.975 725.066 258.694 725.066 259.557C725.066 260.421 724.347 261.14 723.34 261.14H722.189ZM754.123 272.936L749.232 265.168C749.232 265.168 751.821 263.729 751.821 259.557C751.821 255.386 748.944 252.509 742.615 252.509C738.299 252.509 734.271 252.797 734.271 252.797V272.936H741.751V266.318H742.039L745.492 272.936H754.123ZM741.751 261.14V257.975H742.615C743.621 257.975 744.341 258.694 744.341 259.557C744.341 260.421 743.621 261.14 742.615 261.14H741.751ZM768.233 262.866C768.233 264.88 766.795 266.318 765.069 266.318C763.342 266.318 761.904 264.88 761.904 262.866C761.904 260.852 763.342 259.414 765.069 259.414C766.795 259.414 768.233 260.852 768.233 262.866ZM776.289 262.866C776.289 256.968 771.686 252.365 765.069 252.365C758.451 252.365 753.848 256.968 753.848 262.866C753.848 268.764 758.451 273.367 765.069 273.367C771.686 273.367 776.289 268.764 776.289 262.866ZM781.202 264.017C781.202 265.599 780.195 266.606 778.901 266.606C777.75 266.606 776.887 266.031 776.887 266.031L774.873 272.072C774.873 272.072 776.887 273.799 780.627 273.799C784.942 273.799 788.682 270.059 788.682 264.017V252.797H781.202V264.017ZM798.753 265.743H806.233V259.989H798.753V258.551H806.809V252.797H791.273V272.936H807.384V267.182H798.753V265.743ZM808.546 262.866C808.546 268.764 813.149 273.367 819.191 273.367C824.657 273.367 827.247 270.202 827.247 270.202L823.794 264.736C823.794 264.736 822.068 266.318 820.054 266.318C818.04 266.318 816.602 264.88 816.602 262.866C816.602 260.852 818.04 259.414 820.054 259.414C822.068 259.414 823.794 260.996 823.794 260.996L827.247 255.53C827.247 255.53 824.657 252.365 819.191 252.365C813.149 252.365 808.546 256.968 808.546 262.866ZM827.533 252.797V259.414H833V272.936H840.48V259.414H845.946V252.797H827.533ZM860.903 252.509C856.3 252.509 852.272 252.797 852.272 252.797V272.936H859.752V266.462C859.752 266.462 861.191 266.606 862.342 266.606C867.232 266.606 870.109 263.729 870.109 259.557C870.109 255.386 867.232 252.509 860.903 252.509ZM859.752 261.14V257.975H860.903C861.91 257.975 862.629 258.694 862.629 259.557C862.629 260.421 861.91 261.14 860.903 261.14H859.752ZM891.686 272.936L886.795 265.168C886.795 265.168 889.384 263.729 889.384 259.557C889.384 255.386 886.507 252.509 880.178 252.509C875.862 252.509 871.835 252.797 871.835 252.797V272.936H879.315V266.318H879.602L883.055 272.936H891.686ZM879.315 261.14V257.975H880.178C881.185 257.975 881.904 258.694 881.904 259.557C881.904 260.421 881.185 261.14 880.178 261.14H879.315ZM899.467 265.743H906.947V259.989H899.467V258.551H907.523V252.797H891.987V272.936H908.098V267.182H899.467V265.743ZM908.397 252.797L914.007 272.936H923.789L929.399 252.797H921.056L918.898 264.592L916.74 252.797H908.397ZM938.03 252.797H930.55V272.936H938.03V252.797ZM948.096 265.743H955.577V259.989H948.096V258.551H956.152V252.797H940.616V272.936H956.727V267.182H948.096V265.743ZM975.151 252.797H968.534L966.377 263.873L964.794 252.797H957.026L961.342 272.936H969.685L971.843 262.722L974.001 272.936H982.344L986.659 252.797H978.892L977.309 263.873L975.151 252.797Z" fill="white"/>
</svg>
