<svg width="81" height="48" viewBox="0 0 81 48" fill="none" xmlns="http://www.w3.org/2000/svg">
<path d="M31.506 21C31.506 18.6131 32.4542 16.3239 34.142 14.636C35.8298 12.9482 38.119 12 40.506 12C42.8929 12 45.1821 12.9482 46.8699 14.636C48.5577 16.3239 49.506 18.6131 49.506 21V24.807L51.434 29.629C51.4946 29.7807 51.5171 29.9449 51.4996 30.1073C51.482 30.2697 51.425 30.4253 51.3335 30.5605C51.2419 30.6958 51.1186 30.8066 50.9744 30.8832C50.8301 30.9598 50.6693 30.9999 50.506 31H30.506C30.3426 30.9999 30.1818 30.9598 30.0376 30.8832C29.8933 30.8066 29.77 30.6958 29.6785 30.5605C29.5869 30.4253 29.5299 30.2697 29.5124 30.1073C29.4948 29.9449 29.5174 29.7807 29.578 29.629L31.506 24.807V21ZM36.631 33C36.8512 33.8598 37.3518 34.6217 38.0536 35.165C38.7554 35.7083 39.6184 36.0022 40.506 36C41.3935 36.0022 42.2565 35.7083 42.9583 35.165C43.6601 34.6217 44.1607 33.8598 44.381 33H36.631Z" fill="#222222"/>
<rect x="3.00586" y="2.5" width="75" height="43" rx="21.5" stroke="#222222" stroke-width="5"/>
</svg>
