<svg width="81" height="48" viewBox="0 0 81 48" fill="none" xmlns="http://www.w3.org/2000/svg">
<path d="M30.5059 36C30.5059 36 28.5059 36 28.5059 34C28.5059 32 30.5059 26 40.5059 26C50.5059 26 52.5059 32 52.5059 34C52.5059 36 50.5059 36 50.5059 36H30.5059ZM40.5059 24C42.0972 24 43.6233 23.3679 44.7485 22.2426C45.8737 21.1174 46.5059 19.5913 46.5059 18C46.5059 16.4087 45.8737 14.8826 44.7485 13.7574C43.6233 12.6321 42.0972 12 40.5059 12C38.9146 12 37.3884 12.6321 36.2632 13.7574C35.138 14.8826 34.5059 16.4087 34.5059 18C34.5059 19.5913 35.138 21.1174 36.2632 22.2426C37.3884 23.3679 38.9146 24 40.5059 24Z" fill="#222222"/>
<rect x="3.00586" y="2.5" width="75" height="43" rx="21.5" stroke="#222222" stroke-width="5"/>
</svg>
