<svg width="300" height="48" viewBox="0 0 300 48" fill="none" xmlns="http://www.w3.org/2000/svg">
<path d="M93.2373 22.1997C93.2373 32.0397 100.917 39.7197 110.997 39.7197C120.117 39.7197 124.437 34.4397 124.437 34.4397L118.677 25.3197C118.677 25.3197 115.797 27.9597 112.437 27.9597C109.077 27.9597 106.677 25.5597 106.677 22.1997C106.677 18.8397 109.077 16.4397 112.437 16.4397C115.797 16.4397 118.677 19.0797 118.677 19.0797L124.437 9.95969C124.437 9.95969 120.117 4.67969 110.997 4.67969C100.917 4.67969 93.2373 12.3597 93.2373 22.1997Z" fill="#FF6A00"/>
<path d="M155.155 38.9997L160.915 20.2797V38.9997H173.395V5.39969H155.635L150.115 23.6397L144.595 5.39969H126.835V38.9997H139.315V20.2797L145.075 38.9997H155.155Z" fill="#FF6A00"/>
<path d="M192.108 4.91969C184.428 4.91969 177.708 5.39969 177.708 5.39969V38.9997H190.188V28.1997C190.188 28.1997 192.588 28.4397 194.508 28.4397C202.668 28.4397 207.468 23.6397 207.468 16.6797C207.468 9.71969 202.668 4.91969 192.108 4.91969ZM190.188 19.3197V14.0397H192.108C193.788 14.0397 194.988 15.2397 194.988 16.6797C194.988 18.1197 193.788 19.3197 192.108 19.3197H190.188Z" fill="#FF6A00"/>
<path d="M222.826 5.39969H210.346V38.9997H235.786V27.9597H222.826V5.39969Z" fill="#FF6A00"/>
<path d="M232.439 5.39969V16.4397H241.559V38.9997H254.039V16.4397H263.159V5.39969H232.439Z" fill="#FF6A00"/>
<path d="M278.024 28.9197V15.4797H279.944C283.544 15.4797 285.704 17.6397 285.704 22.1997C285.704 26.7597 283.544 28.9197 279.944 28.9197H278.024ZM299.144 22.1997C299.144 11.8797 292.712 4.91969 279.944 4.91969C272.264 4.91969 265.544 5.39969 265.544 5.39969V38.9997C265.544 38.9997 272.264 39.4797 279.944 39.4797C292.712 39.4797 299.144 32.5197 299.144 22.1997Z" fill="#FF6A00"/>
<g clip-path="url(#clip0_190_57723)">
<path d="M0.317405 23.9967C0.316587 27.1485 0.936682 30.2696 2.14227 33.1818C3.34786 36.0939 5.11533 38.7401 7.34373 40.9691C9.57213 43.198 12.2178 44.9662 15.1296 46.1725C18.0415 47.3789 21.1625 47.9998 24.3143 47.9998C24.7063 47.9998 25.092 47.9998 25.4777 47.9687L3.75797 11.6094C1.50141 15.3468 0.311514 19.6309 0.317405 23.9967V23.9967Z" fill="#EE244B"/>
<path d="M24.3143 2.1765e-05C19.9485 -0.00586879 15.6644 1.18403 11.927 3.44059L48.2925 25.1604C48.2925 24.7746 48.2925 24.3889 48.2925 23.9969C48.2925 17.6358 45.7668 11.5349 41.2706 7.03514C36.7743 2.53539 30.6754 0.0049695 24.3143 2.1765e-05V2.1765e-05Z" fill="#EE244B"/>
<path d="M7.3479 7.03027L31.2079 46.9919C35.0161 45.8536 38.4803 43.7836 41.287 40.9693V40.9693C44.1 38.1616 46.1698 34.6978 47.3095 30.8903L7.3479 7.03027Z" fill="#EE244B"/>
</g>
<g clip-path="url(#clip1_190_57723)">
<path d="M69.8197 23.5021L81.398 35.0804M58.2415 35.0804L69.8197 23.5021L58.2415 35.0804ZM81.398 11.9238L69.8175 23.5021L81.398 11.9238ZM69.8175 23.5021L58.2415 11.9238L69.8175 23.5021Z" stroke="#888888" stroke-width="3.3125" stroke-linecap="round" stroke-linejoin="round"/>
</g>
<defs>
<clipPath id="clip0_190_57723">
<rect width="48" height="48" fill="white" transform="translate(0.317383)"/>
</clipPath>
<clipPath id="clip1_190_57723">
<rect width="27" height="27" fill="white" transform="translate(56.3174 10)"/>
</clipPath>
</defs>
</svg>
