<svg width="40" height="39" viewBox="0 0 40 39" fill="none" xmlns="http://www.w3.org/2000/svg">
<path d="M31.1228 38.1497C30.7986 38.1489 30.4794 38.0693 30.1928 37.9177L19.9988 32.5577L9.8048 37.9177C9.47472 38.0906 9.1029 38.1679 8.73126 38.1408C8.35962 38.1137 8.00294 37.9834 7.70142 37.7644C7.39991 37.5454 7.16557 37.2466 7.02481 36.9016C6.88406 36.5566 6.84249 36.1791 6.9048 35.8117L8.8508 24.4597L0.602796 16.4197C0.335975 16.1592 0.147303 15.8293 0.0580846 15.4672C-0.0311343 15.1051 -0.0173466 14.7253 0.097891 14.3706C0.213128 14.016 0.425226 13.7006 0.710233 13.4601C0.995241 13.2196 1.34181 13.0636 1.7108 13.0097L13.1088 11.3537L18.2068 1.0257C18.3904 0.71338 18.6525 0.454449 18.967 0.274543C19.2815 0.094638 19.6375 0 19.9998 0C20.3621 0 20.7181 0.094638 21.0326 0.274543C21.3471 0.454449 21.6092 0.71338 21.7928 1.0257L26.8888 11.3537L38.2868 13.0097C38.6558 13.0636 39.0023 13.2196 39.2874 13.4601C39.5724 13.7006 39.7845 14.016 39.8997 14.3706C40.0149 14.7253 40.0287 15.1051 39.9395 15.4672C39.8503 15.8293 39.6616 16.1592 39.3948 16.4197L31.1468 24.4597L33.0948 35.8117C33.144 36.0987 33.13 36.3929 33.0536 36.6739C32.9773 36.9548 32.8406 37.2158 32.653 37.4384C32.4654 37.6611 32.2315 37.8401 31.9675 37.9629C31.7035 38.0858 31.4159 38.1495 31.1248 38.1497H31.1228Z" fill="#11C0CB"/>
</svg>
