<svg width="40" height="39" viewBox="0 0 40 39" fill="none" xmlns="http://www.w3.org/2000/svg">
<path d="M30.9555 38.1497C30.633 38.1489 30.3155 38.0693 30.0305 37.9177L19.8913 32.5577L9.75208 37.9177C9.42378 38.0906 9.05396 38.1679 8.68432 38.1408C8.31468 38.1137 7.95991 37.9834 7.66002 37.7644C7.36013 37.5454 7.12705 37.2466 6.98705 36.9016C6.84705 36.5566 6.8057 36.1791 6.86767 35.8117L8.80321 24.4597L0.599555 16.4197C0.334169 16.1592 0.146511 15.8293 0.0577723 15.4672C-0.0309669 15.1051 -0.0172533 14.7253 0.0973647 14.3706C0.211983 14.016 0.42294 13.7006 0.706415 13.4601C0.98989 13.2196 1.33459 13.0636 1.7016 13.0097L13.0383 11.3537L18.1089 1.0257C18.2916 0.71338 18.5522 0.454449 18.865 0.274543C19.1778 0.094638 19.5319 0 19.8923 0C20.2526 0 20.6067 0.094638 20.9195 0.274543C21.2323 0.454449 21.493 0.71338 21.6756 1.0257L26.7442 11.3537L38.081 13.0097C38.448 13.0636 38.7927 13.2196 39.0761 13.4601C39.3596 13.7006 39.5706 14.016 39.6852 14.3706C39.7998 14.7253 39.8135 15.1051 39.7248 15.4672C39.636 15.8293 39.4484 16.1592 39.183 16.4197L30.9793 24.4597L32.9169 35.8117C32.9658 36.0987 32.9518 36.3929 32.8759 36.6739C32.8001 36.9548 32.6641 37.2158 32.4775 37.4384C32.2909 37.6611 32.0582 37.8401 31.7956 37.9629C31.5331 38.0858 31.247 38.1495 30.9575 38.1497H30.9555Z" fill="#D0D0D0"/>
</svg>
