<svg width="48" height="48" viewBox="0 0 48 48" fill="none" xmlns="http://www.w3.org/2000/svg">
<path d="M35.1228 43.1204C34.7986 43.1196 34.4794 43.04 34.1928 42.8884L23.9988 37.5284L13.8048 42.8884C13.4747 43.0613 13.1029 43.1386 12.7313 43.1115C12.3596 43.0844 12.0029 42.9541 11.7014 42.7351C11.3999 42.5161 11.1656 42.2173 11.0248 41.8723C10.8841 41.5273 10.8425 41.1498 10.9048 40.7824L12.8508 29.4304L4.6028 21.3904C4.33598 21.1299 4.1473 20.8 4.05808 20.4379C3.96887 20.0758 3.98265 19.696 4.09789 19.3413C4.21313 18.9867 4.42523 18.6713 4.71023 18.4308C4.99524 18.1903 5.34181 18.0343 5.7108 17.9804L17.1088 16.3244L22.2068 5.9964C22.3904 5.68408 22.6525 5.42515 22.967 5.24525C23.2815 5.06534 23.6375 4.9707 23.9998 4.9707C24.3621 4.9707 24.7181 5.06534 25.0326 5.24525C25.3471 5.42515 25.6092 5.68408 25.7928 5.9964L30.8888 16.3244L42.2868 17.9804C42.6558 18.0343 43.0023 18.1903 43.2874 18.4308C43.5724 18.6713 43.7845 18.9867 43.8997 19.3413C44.0149 19.696 44.0287 20.0758 43.9395 20.4379C43.8503 20.8 43.6616 21.1299 43.3948 21.3904L35.1468 29.4304L37.0948 40.7824C37.144 41.0694 37.13 41.3636 37.0536 41.6446C36.9773 41.9255 36.8406 42.1865 36.653 42.4091C36.4654 42.6318 36.2315 42.8108 35.9675 42.9336C35.7035 43.0565 35.4159 43.1202 35.1248 43.1204H35.1228Z" fill="#D0D0D0"/>
</svg>
