<svg width="195" height="55" viewBox="0 0 195 55" fill="none" xmlns="http://www.w3.org/2000/svg">
<g clip-path="url(#clip0_94_39984)">
<path d="M186.747 14.1536C186.958 12.5129 186.845 10.847 186.417 9.24926C185.815 7.03392 184.617 5.02604 182.954 3.44402C181.29 1.86201 179.225 0.766484 176.982 0.276538C174.739 -0.213408 172.405 -0.0789781 170.234 0.665213C168.062 1.4094 166.136 2.73484 164.665 4.49737L164.284 4.03999C163.143 3.04618 161.824 2.27861 160.396 1.77835C158.426 1.09095 156.313 0.919263 154.258 1.27956C152.203 1.63985 150.275 2.52012 148.656 3.83665L147.868 4.54817C146.215 3.54412 144.414 2.80667 142.532 2.36284C138.255 1.42254 133.824 1.42254 129.547 2.36284C128.121 2.71337 126.74 3.22489 125.43 3.88753C124.349 2.96766 123.109 2.25286 121.771 1.77835C119.801 1.09095 117.688 0.919263 115.633 1.27956C113.578 1.63985 111.649 2.52012 110.031 3.83665C108.998 4.70284 108.136 5.75425 107.49 6.93683C106.861 5.96265 106.07 5.10321 105.152 4.3957C102.986 2.66995 100.298 1.72942 97.5286 1.72756C96.248 1.73016 94.9738 1.90972 93.7424 2.26117C92.3335 2.69667 91.016 3.38555 89.8544 4.29404C88.8484 5.11764 87.9892 6.10578 87.3133 7.21639C86.9583 6.74649 86.5674 6.30466 86.1443 5.89496C84.7187 4.51461 82.9722 3.5104 81.0621 2.97268C79.4058 2.52532 77.6952 2.31149 75.9798 2.3374H51.1277C49.599 2.34136 48.0868 2.65249 46.6807 3.25225C44.9113 2.1851 42.8767 1.63894 40.8107 1.67668H12.4772C10.8744 1.6158 9.27919 1.92587 7.81585 2.58261C6.35251 3.23935 5.06055 4.22508 4.04065 5.46301C2.87851 6.90778 2.10314 8.62447 1.78751 10.4516C1.47188 12.2787 1.62639 14.1561 2.23648 15.907C1.51933 17.1451 1.07732 18.5231 0.94052 19.9474C0.811388 21.222 0.888603 22.509 1.16921 23.7591C0.401699 25.28 0.00133722 26.9597 0.000277612 28.6634C-0.0162512 30.9475 0.705711 33.1758 2.05858 35.0162C0.806162 38.4636 0.806162 42.2416 2.05858 45.689C2.75938 47.5282 3.85193 49.193 5.26042 50.5679C6.70931 51.97 8.44249 53.0447 10.3427 53.719C12.2312 54.3657 14.2166 54.6837 16.2127 54.6592H36.7958C38.8985 54.6945 40.9903 54.3501 42.9707 53.6427C43.6647 53.3565 44.3432 53.0342 45.0035 52.677C46.5196 53.3302 48.1556 53.6591 49.8063 53.6427H81.0367C82.7922 53.6735 84.5313 53.2996 86.119 52.55C87.0462 53.0983 88.0358 53.5335 89.0667 53.846C90.6743 54.274 92.333 54.4792 93.9964 54.4559H119.662C121.64 54.4927 123.594 54.0109 125.328 53.0583C125.957 53.3773 126.611 53.6409 127.285 53.846C128.893 54.274 130.551 54.4792 132.215 54.4559H168.477V49.831C171.356 51.4156 174.743 51.8027 177.906 50.9086C181.068 50.0145 183.752 47.9112 185.375 45.0537L192.999 31.8907C193.88 30.3526 194.425 28.6454 194.599 26.8813C194.772 25.1173 194.57 23.3364 194.006 21.656C193.442 19.9756 192.529 18.4337 191.326 17.1319C190.123 15.83 188.658 14.7977 187.027 14.1028L186.747 14.1536Z" fill="url(#paint0_diamond_94_39984)"/>
<path d="M22.6413 33.5171V31.5604H10.8759C10.4143 31.6237 9.94434 31.5786 9.50325 31.4286C9.06215 31.2786 8.66207 31.0279 8.33474 30.6964C7.85132 30.1202 7.58995 29.3901 7.59783 28.6381C7.60514 27.8851 7.85461 27.1546 8.30934 26.5544C8.62813 26.2076 9.02476 25.9415 9.46656 25.778C9.90837 25.6145 10.3827 25.5584 10.8505 25.6142H42.5637C43.0314 25.5584 43.5058 25.6145 43.9476 25.778C44.3894 25.9415 44.786 26.2076 45.1048 26.5544C45.5715 27.1482 45.8224 27.8829 45.8163 28.6381C45.8242 29.3901 45.5628 30.1202 45.0794 30.6964C44.752 31.0279 44.352 31.2786 43.9109 31.4286C43.4698 31.5786 42.9998 31.6237 42.5382 31.5604H30.7729V33.5171H36.9478C38.078 33.5003 39.203 33.6721 40.2767 34.0254C41.1682 34.3176 41.984 34.8035 42.6653 35.4484C43.2946 36.0435 43.781 36.7732 44.0884 37.5829C44.6986 39.3181 44.6986 41.2094 44.0884 42.9446C43.781 43.7543 43.2946 44.4841 42.6653 45.0792C41.984 45.7241 41.1682 46.2101 40.2767 46.5023C39.203 46.8556 38.078 47.0274 36.9478 47.0105H16.3647C15.2263 47.0269 14.0929 46.8551 13.0104 46.5023C12.1265 46.2098 11.3191 45.7236 10.6472 45.0792C10.0251 44.4832 9.5471 43.7531 9.24954 42.9446C8.60029 41.2163 8.60029 39.3112 9.24954 37.5829C9.5471 36.7744 10.0251 36.0445 10.6472 35.4484C11.3191 34.804 12.1265 34.3178 13.0104 34.0254C14.0929 33.6725 15.2263 33.5008 16.3647 33.5171H22.6413ZM40.9374 9.27481C41.403 9.21791 41.8754 9.27103 42.3168 9.42991C42.7581 9.58879 43.156 9.84897 43.4785 10.1896C43.9598 10.7867 44.22 11.5318 44.2154 12.2988C44.2223 13.0628 43.9514 13.8032 43.4531 14.3824C43.1318 14.7247 42.7341 14.986 42.2924 15.145C41.8507 15.304 41.3777 15.3562 40.912 15.2973H30.8999C30.7924 15.8127 30.6306 16.3152 30.4171 16.7965H32.2722H34.1526C35.4354 16.8383 36.7115 16.9999 37.9642 17.2793C39.1106 17.5089 40.2102 17.9298 41.2169 18.5245C42.2066 19.1116 43.0702 19.8888 43.758 20.8115C44.5444 21.8889 45.122 23.1042 45.4606 24.3944H37.2527C36.9273 23.8117 36.4862 23.3016 35.9567 22.8952C35.4199 22.487 34.83 22.1536 34.2034 21.9042C33.5211 21.641 32.8147 21.4452 32.0943 21.3197C31.3453 21.209 30.5897 21.1495 29.8326 21.1418H28.1809C27.5903 21.1766 27.0037 21.2616 26.4275 21.3959C25.4219 22.0449 24.3483 22.5817 23.2258 22.9969C22.039 23.4509 20.8144 23.7995 19.5665 24.0387C16.9775 24.5211 14.3312 24.6153 11.7144 24.3182C11.2373 24.3131 10.7662 24.2115 10.3294 24.0193C9.89267 23.8272 9.4994 23.5485 9.17331 23.2001C8.8899 22.8477 8.68633 22.4381 8.57665 21.9993C8.46697 21.5606 8.45379 21.1033 8.53803 20.659C8.56371 20.2885 8.67032 19.9281 8.85032 19.6032C9.03033 19.2784 9.27937 18.9968 9.5799 18.7786C10.272 18.305 11.1083 18.0892 11.9431 18.1687C13.1875 18.2316 14.4342 18.2316 15.6786 18.1687C16.7721 18.1228 17.86 17.9868 18.9312 17.7622C19.8244 17.5781 20.6823 17.252 21.4723 16.7965C22.1567 16.4209 22.7273 15.8679 23.1241 15.1956H12.4768C12.0113 15.2505 11.5394 15.1964 11.0984 15.0376C10.6574 14.8789 10.2593 14.6198 9.93566 14.2808C9.43732 13.7017 9.16639 12.9611 9.17331 12.1971C9.16865 11.4301 9.42899 10.6851 9.91026 10.0879C10.234 9.74892 10.632 9.48987 11.073 9.33111C11.514 9.17235 11.9859 9.11826 12.4514 9.17315L40.9374 9.27481ZM34.6354 41.5979C34.8896 41.6295 35.1477 41.6073 35.3928 41.5329C35.6379 41.4585 35.8647 41.3336 36.0584 41.166C36.2542 40.906 36.3601 40.5892 36.3601 40.2638C36.3601 39.9383 36.2542 39.6217 36.0584 39.3617C35.8647 39.1941 35.6379 39.069 35.3928 38.9946C35.1477 38.9202 34.8896 38.8981 34.6354 38.9298H18.855C18.1181 38.9298 17.6353 39.0822 17.432 39.3617C17.2188 39.614 17.1018 39.9335 17.1018 40.2638C17.1018 40.594 17.2188 40.9137 17.432 41.166C17.6353 41.4455 18.1181 41.5979 18.855 41.5979H34.6354Z" fill="white"/>
<path d="M58.0144 39.4889V27.2916C57.9961 26.7147 58.109 26.1413 58.3447 25.6144C58.5514 25.1552 58.8603 24.7494 59.2479 24.4279C59.6354 24.1063 60.0914 23.8777 60.5809 23.7594C61.0958 23.6278 61.6249 23.5595 62.1564 23.5561C62.673 23.5574 63.1867 23.6345 63.681 23.7848C64.1662 23.9218 64.6226 24.1457 65.0278 24.4455C65.4267 24.7579 65.7484 25.1578 65.968 25.6144C66.2037 26.1413 66.3167 26.7147 66.2984 27.2916V39.4889H80.9099C81.4481 39.4795 81.9832 39.5744 82.4853 39.7684C82.8875 39.9504 83.2501 40.2095 83.5526 40.5309C83.8106 40.8388 84.0088 41.192 84.1371 41.5727C84.2585 41.9678 84.3184 42.3791 84.3149 42.7924C84.3259 43.6153 84.047 44.4159 83.5272 45.054C83.2097 45.4066 82.8155 45.6817 82.3749 45.8579C81.9343 46.0341 81.4592 46.1069 80.9861 46.0705H49.6795C49.2062 46.1088 48.7305 46.0369 48.2896 45.8605C47.8487 45.6842 47.4547 45.4081 47.1384 45.054C46.6113 44.4184 46.3236 43.6181 46.3252 42.7924C46.3308 42.3778 46.3993 41.9666 46.5285 41.5727C46.6377 41.1839 46.8381 40.8268 47.1129 40.5309C47.4008 40.2041 47.7563 39.9439 48.1548 39.7684C48.6651 39.5717 49.209 39.4768 49.7557 39.4889H58.0144ZM72.4479 32.45C73.1237 30.8225 73.585 29.1142 73.8202 27.3678C74.153 25.0623 74.3059 22.7344 74.2776 20.4052V17.864C74.2818 17.5917 74.1818 17.3281 73.998 17.1271C73.9017 17.0313 73.7863 16.9569 73.6593 16.9087C73.5324 16.8605 73.3967 16.8397 73.2611 16.8475H51.1788C50.6292 16.8641 50.0828 16.76 49.5778 16.5426C49.1561 16.359 48.7822 16.0807 48.4852 15.7294C48.1879 15.3983 47.9628 15.0089 47.8245 14.586C47.6749 14.1878 47.5975 13.7662 47.5958 13.3408C47.6013 12.9263 47.6698 12.515 47.799 12.1211C47.9378 11.7059 48.163 11.3248 48.4597 11.003C48.7719 10.6572 49.1527 10.3803 49.5778 10.1898C50.0767 9.95133 50.6262 9.83793 51.1788 9.85944H76.0055C77.007 9.83241 78.0075 9.94358 78.9787 10.1898C79.7002 10.3817 80.3635 10.7482 80.9099 11.2571C81.4061 11.7592 81.7649 12.3805 81.9517 13.0613C82.1631 13.8915 82.2655 14.7457 82.2566 15.6024V20.6084C82.5356 25.5429 81.7289 30.4785 79.8934 35.0674C79.6337 35.592 79.2707 36.0587 78.8261 36.4396C78.3815 36.8141 77.8739 37.1068 77.3269 37.3036C76.7784 37.489 76.2033 37.5833 75.6243 37.5831C75.0356 37.5841 74.4539 37.4539 73.9218 37.202C73.5054 37.0406 73.1324 36.7842 72.8324 36.4534C72.5325 36.1225 72.3138 35.7263 72.1938 35.2962C71.9314 34.348 72.0217 33.3367 72.4479 32.45V32.45Z" fill="white"/>
<path d="M86.806 24.4459C88.7447 23.7876 90.4199 22.5223 91.5833 20.8375C92.8736 18.735 93.4858 16.2863 93.3367 13.824V13.1125C93.3215 12.5222 93.4524 11.9374 93.7178 11.4099C93.9439 10.9575 94.2646 10.5589 94.658 10.241C95.062 9.93313 95.5183 9.70065 96.0048 9.5549C96.5157 9.40069 97.0467 9.32361 97.5803 9.3262C98.5886 9.33674 99.564 9.6858 100.35 10.3173C100.757 10.6549 101.077 11.0845 101.285 11.5705C101.493 12.0566 101.582 12.5852 101.544 13.1125V13.824C101.549 14.9546 101.473 16.0841 101.316 17.2037C102.702 17.3797 104.05 17.7832 105.305 18.398C106.498 19.0075 107.54 19.8756 108.355 20.9392C109.24 22.1403 109.879 23.5048 110.235 24.9541C110.683 26.7903 110.855 28.6831 110.743 30.57H102.815C103.12 26.4279 101.9 24.0648 99.2067 23.5057C98.0981 25.5247 96.5421 27.2631 94.658 28.588C92.9998 29.7832 91.0856 30.5749 89.0676 30.9003C88.1991 31.0635 87.3008 30.9198 86.5265 30.4938C85.8239 30.0713 85.2929 29.4143 85.0272 28.6387C84.7019 27.8229 84.7019 26.9134 85.0272 26.0976C85.1935 25.7144 85.4374 25.3697 85.7436 25.0855C86.0497 24.8012 86.4115 24.5834 86.806 24.4459ZM93.8195 46.8841C92.8684 46.9089 91.9185 46.7976 90.9988 46.5537C90.3342 46.3914 89.7273 46.0484 89.2454 45.5626C88.7775 45.039 88.4613 44.3977 88.3307 43.7077C88.1325 42.8066 88.0386 41.8857 88.0511 40.9632V36.8212C88.0018 36.2468 88.0889 35.669 88.3052 35.1346C88.5216 34.6003 88.8612 34.1246 89.2963 33.7464C90.1423 33.1021 91.1808 32.7618 92.244 32.7807C93.293 32.7528 94.3184 33.0946 95.1409 33.7464C95.55 34.1412 95.8669 34.6216 96.069 35.1531C96.271 35.6846 96.3533 36.2542 96.3098 36.8212V39.5656C96.3098 40.023 96.3098 40.3279 96.5131 40.4295C96.7897 40.5619 97.0976 40.6147 97.4025 40.582H119.485C119.953 40.5484 120.423 40.6175 120.862 40.7842C121.301 40.951 121.698 41.2115 122.026 41.5476C122.522 42.158 122.791 42.9213 122.788 43.7077C122.807 44.5241 122.527 45.3191 122.001 45.9437C121.67 46.2753 121.272 46.5311 120.833 46.6935C120.395 46.8558 119.926 46.9209 119.459 46.8841H93.8195ZM113.64 12.7313C113.602 12.1716 113.692 11.6106 113.903 11.0909C114.115 10.5713 114.442 10.1068 114.86 9.73279C115.664 9.06062 116.683 8.69989 117.731 8.71636C118.25 8.71396 118.766 8.7999 119.256 8.97049C119.747 9.13647 120.198 9.40498 120.578 9.75823C120.965 10.1055 121.277 10.5295 121.492 11.0034C121.732 11.5476 121.853 12.1366 121.848 12.7313V37.4565H113.64V12.7313Z" fill="white"/>
<path d="M124.412 18.4994C124.372 17.0483 124.659 15.6066 125.251 14.2812C125.808 13.148 126.627 12.1637 127.64 11.4097C128.744 10.6378 129.986 10.0856 131.299 9.78334C132.85 9.43462 134.436 9.26416 136.025 9.27516C137.623 9.26421 139.218 9.43466 140.777 9.78334C142.09 10.0856 143.332 10.6378 144.436 11.4097C145.449 12.1571 146.261 13.1436 146.8 14.2812C147.413 15.6006 147.709 17.0452 147.664 18.4994V19.77C147.712 21.2245 147.416 22.6697 146.8 23.9882C146.267 25.1293 145.454 26.117 144.436 26.8597C143.344 27.6522 142.097 28.2062 140.777 28.486C139.22 28.8472 137.624 29.0178 136.025 28.9942C134.435 29.0178 132.848 28.8471 131.299 28.486C129.979 28.2062 128.732 27.6522 127.64 26.8597C126.621 26.1116 125.801 25.1258 125.251 23.9882C124.656 22.6636 124.369 21.2214 124.412 19.77V18.4994ZM132.036 46.8838C131.085 46.9086 130.135 46.7974 129.215 46.5535C128.55 46.3911 127.944 46.0481 127.462 45.5624C127.004 45.032 126.689 44.3935 126.547 43.7074C126.349 42.8064 126.255 41.8855 126.267 40.963V34.4831C126.218 33.9285 126.301 33.3701 126.508 32.8534C126.716 32.3367 127.042 31.8763 127.462 31.5099C128.277 30.9406 129.24 30.6227 130.234 30.5956C131.228 30.5685 132.208 30.8334 133.052 31.3575C133.445 31.6584 133.767 32.042 133.995 32.4811C134.224 32.9202 134.353 33.4041 134.374 33.8986H152.568C152.588 33.4013 152.72 32.9149 152.953 32.4751C153.186 32.0353 153.515 31.6534 153.915 31.3575C154.724 30.8366 155.672 30.571 156.634 30.5951C157.668 30.5587 158.683 30.882 159.505 31.5099C159.92 31.8788 160.242 32.3402 160.445 32.8568C160.648 33.3733 160.727 33.9306 160.674 34.4831V46.8838H132.036ZM132.366 20.1512C132.34 20.5859 132.419 21.0206 132.596 21.4185C132.772 21.8165 133.042 22.1662 133.383 22.4382C134.132 22.942 135.021 23.1996 135.924 23.1751C136.828 23.2065 137.718 22.9483 138.465 22.4382C138.817 22.1771 139.096 21.8292 139.274 21.4285C139.452 21.0277 139.524 20.5877 139.481 20.1512V18.0674C139.524 17.6309 139.452 17.1909 139.274 16.7901C139.096 16.3894 138.817 16.0415 138.465 15.7804C137.721 15.2613 136.83 14.9941 135.924 15.018C135.018 15.001 134.129 15.2676 133.383 15.7804C133.041 16.0509 132.77 16.4004 132.593 16.7987C132.416 17.1971 132.338 17.6324 132.366 18.0674V20.1512ZM152.543 41.4712V38.9301H134.45V40.3786C134.45 40.836 134.45 41.1154 134.653 41.217C134.931 41.3457 135.238 41.3983 135.543 41.3695L152.543 41.4712ZM152.238 12.7311C152.199 12.1714 152.289 11.6103 152.501 11.0907C152.712 10.571 153.039 10.1065 153.457 9.73254C154.264 9.06432 155.282 8.70413 156.329 8.71611C156.848 8.71371 157.363 8.79965 157.854 8.97024C158.345 9.13622 158.795 9.40473 159.175 9.75798C159.563 10.1052 159.874 10.5292 160.09 11.0031C160.33 11.5473 160.451 12.1364 160.446 12.7311V29.3246H152.238V12.7311Z" fill="white"/>
<path d="M174.271 43.8093C173.38 43.8155 172.504 43.5876 171.729 43.1486C170.616 42.4714 169.805 41.3923 169.465 40.1343C169.124 38.8763 169.28 37.5357 169.9 36.3893L173.203 30.6463H166.647C165.769 30.6525 164.905 30.4239 164.144 29.9842C163.384 29.5445 162.755 28.9096 162.322 28.1452C161.89 27.3809 161.669 26.5148 161.683 25.6366C161.698 24.7584 161.946 23.8999 162.403 23.15L170.027 9.98697C170.349 9.42468 170.778 8.93128 171.291 8.53503C171.804 8.13877 172.39 7.84738 173.015 7.67749C173.64 7.50759 174.293 7.46255 174.936 7.54488C175.578 7.62721 176.199 7.83534 176.761 8.15736C177.323 8.47939 177.816 8.90903 178.213 9.42172C178.609 9.93441 178.9 10.5201 179.07 11.1454C179.24 11.7707 179.285 12.4233 179.203 13.0661C179.121 13.7088 178.912 14.329 178.59 14.8913L175.287 20.6596H181.843C182.711 20.6552 183.564 20.8798 184.317 21.3107C185.07 21.7415 185.696 22.3634 186.131 23.1136C186.567 23.8638 186.797 24.7156 186.798 25.5832C186.799 26.4507 186.571 27.3031 186.138 28.0543L178.514 41.2173C178.1 41.9867 177.489 42.6322 176.743 43.0877C175.997 43.5431 175.144 43.7921 174.271 43.8093V43.8093Z" fill="white"/>
</g>
<defs>
<radialGradient id="paint0_diamond_94_39984" cx="0" cy="0" r="1" gradientUnits="userSpaceOnUse" gradientTransform="translate(97.3295 27.3245) rotate(-179.6) scale(97.5135 602.543)">
<stop stop-color="#FFA0CE"/>
<stop offset="1" stop-color="#FD5FDA"/>
</radialGradient>
<clipPath id="clip0_94_39984">
<rect width="194.371" height="54.6596" fill="white"/>
</clipPath>
</defs>
</svg>
