<svg width="41" height="39" viewBox="0 0 41 39" fill="none" xmlns="http://www.w3.org/2000/svg">
<path d="M31.88 38.2044C31.5575 38.2036 31.2401 38.124 30.955 37.9724L20.8158 32.6124L10.6766 37.9724C10.3483 38.1453 9.97849 38.2226 9.60885 38.1955C9.23921 38.1684 8.88444 38.038 8.58455 37.8191C8.28466 37.6001 8.05158 37.3013 7.91158 36.9563C7.77158 36.6113 7.73023 36.2338 7.7922 35.8664L9.72774 24.5144L1.52408 16.4744C1.2587 16.2139 1.07104 15.8839 0.982302 15.5219C0.893563 15.1598 0.907277 14.78 1.02189 14.4253C1.13651 14.0707 1.34747 13.7553 1.63094 13.5148C1.91442 13.2743 2.25912 13.1183 2.62613 13.0644L13.9628 11.4084L19.0334 1.08039C19.2161 0.768068 19.4767 0.509136 19.7895 0.329231C20.1023 0.149326 20.4564 0.0546875 20.8168 0.0546875C21.1772 0.0546875 21.5313 0.149326 21.8441 0.329231C22.1569 0.509136 22.4175 0.768068 22.6002 1.08039L27.6688 11.4084L39.0055 13.0644C39.3725 13.1183 39.7172 13.2743 40.0007 13.5148C40.2841 13.7553 40.4951 14.0707 40.6097 14.4253C40.7243 14.78 40.738 15.1598 40.6493 15.5219C40.5606 15.8839 40.3729 16.2139 40.1075 16.4744L31.9039 24.5144L33.8414 35.8664C33.8903 36.1533 33.8764 36.4476 33.8005 36.7286C33.7246 37.0095 33.5886 37.2705 33.402 37.4931C33.2154 37.7157 32.9827 37.8948 32.7202 38.0176C32.4576 38.1405 32.1716 38.2042 31.882 38.2044H31.88Z" fill="#57009A"/>
</svg>
