<svg width="143" height="26" viewBox="0 0 143 26" fill="none" xmlns="http://www.w3.org/2000/svg">
<g clip-path="url(#clip0_183_56771)">
<path d="M1.98999 24H140.99" stroke="white" stroke-width="3" stroke-linecap="round"/>
<path d="M127.36 9.18359L141.85 23.6732" stroke="white" stroke-width="3" stroke-linecap="round"/>
<path d="M7.24494 4.35359C7.24125 5.29282 7.09024 6.16575 6.7919 6.97237C6.49356 7.77532 6.04973 8.47698 5.46041 9.07735C4.87477 9.67403 4.16575 10.1197 3.33334 10.4144L2.39411 9.0442C3.13444 8.78637 3.76059 8.41989 4.27256 7.94475C4.78822 7.46593 5.17311 6.92081 5.42726 6.30939C5.68509 5.69429 5.81584 5.04236 5.81952 4.35359V3.01657H7.24494V4.35359ZM7.55433 4.51381C7.55433 5.11418 7.6814 5.68692 7.93555 6.23204C8.18969 6.77716 8.56538 7.26335 9.06262 7.69061C9.56354 8.11418 10.1676 8.43831 10.8748 8.66298L9.9466 10.0166C9.14365 9.74401 8.45672 9.33517 7.88582 8.79005C7.3186 8.24494 6.88766 7.60773 6.593 6.87845C6.29834 6.14549 6.15102 5.35727 6.15102 4.51381V3.01657H7.55433V4.51381ZM13.698 10.7127H11.9521V2.27072H13.698V10.7127ZM15.6704 7.14365H13.2118V5.69613H15.6704V7.14365ZM9.10129 11.0276C10.07 11.0239 10.9079 11.1289 11.6151 11.3425C12.326 11.5525 12.8711 11.8582 13.2505 12.2597C13.6335 12.6575 13.825 13.1344 13.825 13.6906C13.825 14.2541 13.6354 14.7366 13.256 15.1381C12.8766 15.5433 12.3315 15.8508 11.6206 16.0608C10.9098 16.2707 10.07 16.3738 9.10129 16.3702C8.11787 16.3738 7.26704 16.2689 6.54881 16.0552C5.83426 15.8453 5.28361 15.5396 4.89687 15.1381C4.51381 14.7366 4.32229 14.2541 4.32229 13.6906C4.32229 13.1344 4.51381 12.6575 4.89687 12.2597C5.28361 11.8582 5.8361 11.5525 6.55433 11.3425C7.27256 11.1289 8.12155 11.0239 9.10129 11.0276ZM9.10129 12.3867C8.45672 12.3867 7.90792 12.4383 7.45488 12.5414C7.00184 12.6409 6.65562 12.7901 6.41621 12.989C6.1768 13.1842 6.05709 13.418 6.05709 13.6906C6.05709 13.9779 6.17496 14.2192 6.41068 14.4144C6.64641 14.6096 6.99079 14.7569 7.44383 14.8564C7.89687 14.9558 8.44936 15.0055 9.10129 15.0055C9.74954 15.0055 10.2983 14.9558 10.7477 14.8564C11.1971 14.7569 11.5378 14.6096 11.7698 14.4144C12.0018 14.2192 12.1179 13.9779 12.1179 13.6906C12.1179 13.418 12.0018 13.1842 11.7698 12.989C11.5378 12.7901 11.1952 12.6409 10.7422 12.5414C10.2928 12.4383 9.74586 12.3867 9.10129 12.3867ZM24.1895 8.56354H21.6591V7.1326H24.1895V8.56354ZM20.1398 6.04972C20.1361 7.11418 20.0146 8.12891 19.7752 9.09392C19.5358 10.0552 19.173 10.919 18.6868 11.6851C18.2043 12.4512 17.6113 13.0479 16.9078 13.4751L15.8359 12.1878C16.4916 11.7864 17.0404 11.2615 17.4823 10.6133C17.928 9.96133 18.2577 9.24678 18.4713 8.46961C18.6849 7.69245 18.7917 6.88582 18.7917 6.04972V3.51934H20.1398V6.04972ZM20.4713 5.97237C20.4713 6.78269 20.5671 7.55433 20.7586 8.28729C20.9501 9.02026 21.2466 9.69797 21.6481 10.3204C22.0532 10.9392 22.5634 11.4401 23.1785 11.8232L22.2172 13.1602C21.5137 12.7403 20.9335 12.1565 20.4768 11.4088C20.0201 10.6611 19.6849 9.82873 19.4713 8.9116C19.2614 7.99079 19.1582 7.01105 19.1619 5.97237V3.51934H20.4713V5.97237ZM28.2448 16.3812H26.5763V2.27072H28.2448V16.3812ZM25.3055 15.7072H23.6757V2.51381H25.3055V15.7072ZM42.4822 14.6851H29.5706V13.2652H42.4822V14.6851ZM36.8579 13.6409H35.1341V10.0939H36.8579V13.6409ZM32.7308 5.51381H39.2722V3.20442H41.0015V10.5138H30.9905V3.20442H32.7308V5.51381ZM39.2722 9.11602V6.90608H32.7308V9.11602H39.2722ZM54.8688 16.3812H53.1174V2.27072H54.8688V16.3812ZM50.6588 3.76796C50.6588 5.24125 50.447 6.593 50.0235 7.8232C49.5999 9.04972 48.9019 10.1768 47.9295 11.2044C46.9608 12.232 45.6791 13.1271 44.0842 13.8895L43.1726 12.4972C44.5244 11.8527 45.6238 11.1179 46.471 10.2928C47.3218 9.46777 47.9443 8.54328 48.3384 7.51934C48.7362 6.4954 48.9369 5.34254 48.9406 4.06077V3.76796H50.6588ZM49.7251 5.14365H43.8909V3.76796H49.7251V5.14365Z" fill="white"/>
</g>
<defs>
<clipPath id="clip0_183_56771">
<rect width="143" height="26" fill="white"/>
</clipPath>
</defs>
</svg>
