<svg width="41" height="39" viewBox="0 0 41 39" fill="none" xmlns="http://www.w3.org/2000/svg">
<path d="M31.2427 37.8917L31.2437 37.8922C31.457 38.0056 31.6943 38.0651 31.9352 38.0657H31.9357C32.152 38.0656 32.3659 38.018 32.5622 37.9261C32.7586 37.8342 32.9329 37.7002 33.0728 37.5333C33.2127 37.3663 33.3148 37.1705 33.3718 36.9595C33.4288 36.7485 33.4393 36.5274 33.4025 36.3118C33.4025 36.3118 33.4025 36.3118 33.4025 36.3118L31.465 24.9598L31.4209 24.7018L31.6079 24.5186L39.8112 16.4789C40.0101 16.2837 40.151 16.0362 40.2177 15.7642C40.2843 15.4922 40.274 15.2068 40.1879 14.9404C40.1018 14.674 39.9435 14.4375 39.7312 14.2574C39.5189 14.0773 39.261 13.9607 38.9868 13.9204L27.6505 12.2645L27.3899 12.2264L27.2739 11.99L22.2139 1.6795C22.0756 1.44871 21.881 1.25753 21.6488 1.12398C21.4117 0.987637 21.1435 0.916016 20.8708 0.916016C20.598 0.916016 20.3299 0.987636 20.0928 1.12398C19.8606 1.25754 19.666 1.44873 19.5277 1.67953L14.4657 11.9901L14.3496 12.2264L14.0891 12.2645L2.7528 13.9204C2.47856 13.9607 2.22069 14.0773 2.00839 14.2574C1.79606 14.4375 1.63774 14.674 1.55165 14.9404C1.46556 15.2068 1.45525 15.4922 1.52192 15.7642C1.58855 16.036 1.72934 16.2834 1.92804 16.4786L31.2427 37.8917ZM31.2427 37.8917L21.1035 32.5317L20.8698 32.4081L20.6361 32.5317L10.4976 37.8913C10.252 38.0207 9.97556 38.0784 9.69938 38.0582C9.42319 38.0379 9.15788 37.9405 8.93338 37.7766C8.70885 37.6127 8.53399 37.3887 8.42887 37.1296C8.32382 36.8707 8.2927 36.5873 8.33913 36.3114C8.33916 36.3112 8.33919 36.3111 8.33922 36.3109L10.2746 24.9598L10.3186 24.7018L10.1317 24.5186L1.92833 16.4789L31.2427 37.8917Z" fill="white" stroke="white"/>
</svg>
