<svg width="245" height="53" viewBox="0 0 245 53" fill="none" xmlns="http://www.w3.org/2000/svg">
<g clip-path="url(#clip0_94_39940)">
<path d="M26.2242 52.1433C32.1538 52.1209 37.9022 50.0974 42.5382 46.4004C46.7447 49.7747 51.8924 51.7644 57.2747 52.0965C62.657 52.4286 68.0103 51.0869 72.5997 48.2554C74.8156 50.2236 77.6217 51.401 80.5785 51.6034C83.5354 51.8057 86.4758 51.0215 88.9391 49.3735C91.1543 50.8658 93.7645 51.663 96.4354 51.663C99.1064 51.663 101.717 50.8658 103.932 49.3735C106.234 50.9046 108.943 51.7101 111.708 51.6859C113.536 51.6833 115.344 51.3026 117.019 50.5678C118.694 51.2978 120.502 51.6782 122.329 51.6859C125.261 51.6737 128.104 50.6816 130.406 48.8674C132.708 47.0531 134.338 44.521 135.035 41.6739C135.558 43.6575 136.562 45.4817 137.957 46.9849C139.294 48.4717 140.946 49.6406 142.792 50.4057C144.639 51.1708 146.634 51.5128 148.63 51.4065H159.633C161.52 51.4436 163.398 51.1335 165.173 50.4916C167.405 51.2413 169.76 51.552 172.11 51.4065H181.233C184.709 51.6842 188.161 50.6305 190.889 48.4587L191.321 48.0522C193.822 50.3923 197.12 51.6916 200.545 51.6859C202.326 51.691 204.09 51.3332 205.728 50.6341C207.367 49.9351 208.846 48.9096 210.074 47.6201C211.296 48.7601 212.717 49.6647 214.267 50.2884L214.572 50.4154C216.826 51.1848 219.209 51.5042 221.586 51.3556H230.581C234.057 51.6333 237.509 50.5796 240.238 48.4079C241.575 47.2793 242.673 45.8945 243.466 44.3351C244.26 42.7756 244.734 41.0731 244.859 39.3278C244.985 37.5825 244.76 35.8297 244.197 34.1727C243.635 32.5157 242.746 30.9881 241.584 29.6798C241.972 28.5074 242.169 27.2807 242.169 26.046C242.165 24.9025 242.003 23.7651 241.686 22.6663C243.807 20.2508 244.965 17.1393 244.939 13.9249C244.953 11.9051 244.486 9.91087 243.575 8.10779C242.665 6.30472 241.338 4.7447 239.704 3.55707C236.197 1.01594 233.453 1.01594 228.904 1.01594H221.891C220.189 0.914448 218.482 1.02543 216.808 1.3463C216.065 1.49224 215.335 1.69613 214.623 1.95615C212.045 1.07131 209.306 0.750682 206.593 1.01594H194.904C192.198 0.796045 189.474 1.03662 186.849 1.72746C184.469 1.11173 182.009 0.871659 179.556 1.01594H172.593C170.849 0.905097 169.099 1.01611 167.384 1.3463C164.614 1.83528 162.084 3.22951 160.192 5.31045C159.781 5.74234 159.399 6.20075 159.049 6.68268L158.49 5.8695C157.238 4.27207 155.636 2.98319 153.808 2.10209C151.979 1.221 149.973 0.771178 147.944 0.787252C145.094 0.744918 142.31 1.6375 140.016 3.32838C136.151 1.52568 131.898 0.713524 127.64 0.96515H122.787C120.05 0.905265 117.356 1.64725 115.036 3.09968C112.153 1.10258 108.602 0.314072 105.144 0.903033C101.686 1.49199 98.5969 3.41156 96.5371 6.25065C95.2485 4.52918 93.5759 3.13208 91.6526 2.17042C89.7293 1.20875 87.6081 0.709045 85.4578 0.711022C82.2633 0.693872 79.1758 1.86186 76.7925 3.98909C76.217 4.47068 75.6894 5.00675 75.217 5.58993C70.561 1.92574 64.8013 -0.0537671 58.8764 -0.0260807C52.9515 0.00160577 47.2106 2.03492 42.589 5.74247C37.9822 2.00767 32.231 -0.0290736 26.3004 -0.0259256C22.8766 -0.0259258 19.4863 0.64847 16.3231 1.95871C13.1599 3.26894 10.2858 5.18939 7.8648 7.61039C5.44379 10.0314 3.52335 12.9055 2.21311 16.0687C0.902872 19.2319 0.228516 22.6222 0.228516 26.046C0.228516 29.4698 0.902872 32.8601 2.21311 36.0233C3.52335 39.1865 5.44379 42.0606 7.8648 44.4817C10.2858 46.9027 13.1599 48.8231 16.3231 50.1333C19.4863 51.4436 22.8766 52.118 26.3004 52.118L26.2242 52.1433Z" fill="url(#paint0_diamond_94_39940)"/>
<path d="M38.0155 11.8922C39.1992 12.6691 40.1961 13.6988 40.9342 14.9072C41.6724 16.1155 42.1336 17.4724 42.2845 18.8803C42.2836 19.8764 42.0248 20.8553 41.5333 21.7217C41.0418 22.5881 40.3342 23.3125 39.4796 23.8242C38.625 24.336 37.6524 24.6176 36.6566 24.6419C35.6607 24.6661 34.6757 24.4321 33.7972 23.9626C33.2127 23.6576 33.2127 23.6576 31.1036 21.4214C30.3252 20.5882 29.352 19.9614 28.2715 19.5971C27.191 19.2328 26.0369 19.1426 24.9129 19.3344C23.7889 19.5263 22.7302 19.9942 21.8317 20.6963C20.9331 21.3983 20.223 22.3124 19.765 23.3567C19.307 24.4009 19.1155 25.5426 19.2076 26.6791C19.2997 27.8156 19.6726 28.9115 20.2928 29.8683C20.913 30.8251 21.7611 31.613 22.7609 32.1612C23.7608 32.7094 24.8811 33.0006 26.0213 33.009C27.6333 32.9879 29.1911 32.4238 30.4429 31.408C31.1702 30.8451 31.8271 30.1968 32.3995 29.4768C32.9153 28.958 33.5293 28.547 34.2055 28.2678C34.8817 27.9886 35.6067 27.8467 36.3383 27.8505C37.8624 27.8431 39.3291 28.4315 40.4257 29.4901C41.5222 30.5487 42.1619 31.9938 42.2083 33.5172C42.0746 34.8074 41.6651 36.0538 41.0074 37.1719C40.3498 38.2899 39.4594 39.2534 38.3966 39.997C36.1496 41.9786 33.455 43.3848 30.5445 44.0948C27.6339 44.8048 24.5944 44.7973 21.6874 44.0729C18.7804 43.3484 16.0927 41.9288 13.8557 39.9361C11.6186 37.9434 9.89896 35.4371 8.84461 32.6328C7.79026 29.8286 7.43274 26.8102 7.80282 23.8372C8.17289 20.8643 9.25947 18.0257 10.9691 15.5655C12.6788 13.1053 14.9604 11.0971 17.6178 9.71364C20.2751 8.33017 23.2287 7.61278 26.2246 7.62316C30.5347 7.61501 34.7097 9.12662 38.0155 11.8922V11.8922Z" fill="white"/>
<path d="M77.5288 26.0462C77.5489 29.7132 76.4802 33.3037 74.4581 36.3629C72.436 39.4221 69.5513 41.8123 66.1697 43.2307C62.788 44.6492 59.0615 45.032 55.462 44.3308C51.8626 43.6295 48.5523 41.8759 45.9504 39.2918C43.3484 36.7077 41.572 33.4094 40.8461 29.8149C40.1202 26.2204 40.4774 22.4913 41.8726 19.1C43.2678 15.7087 45.6381 12.8077 48.6833 10.7646C51.7285 8.72144 55.3116 7.62813 58.9786 7.62305C63.8765 7.62293 68.5756 9.5599 72.0508 13.0113C75.526 16.4627 77.4953 21.1484 77.5288 26.0462V26.0462ZM52.1176 26.0462C52.0771 27.4283 52.4506 28.7911 53.1901 29.9595C53.9296 31.1278 55.0014 32.0486 56.2679 32.6035C57.5345 33.1584 58.9379 33.3221 60.2981 33.0737C61.6584 32.8253 62.9134 32.1761 63.9021 31.2093C64.8907 30.2426 65.5679 29.0024 65.8467 27.648C66.1255 26.2937 65.9932 24.8869 65.4668 23.6083C64.9404 22.3297 64.0438 21.2375 62.8923 20.4721C61.7408 19.7066 60.3867 19.3027 59.004 19.3122C57.2164 19.3044 55.4958 19.992 54.206 21.2297C52.9161 22.4674 52.1581 24.1581 52.0921 25.9445L52.1176 26.0462Z" fill="white"/>
<path d="M102.28 11.4606C102.756 10.5233 103.484 9.73689 104.381 9.1894C105.279 8.6419 106.311 8.3549 107.362 8.36048C108.841 8.37342 110.263 8.93482 111.352 9.93596C112.38 10.967 113.018 12.3234 113.156 13.773L117.146 36.4144C117.286 37.0742 117.354 37.7474 117.349 38.4219C117.335 39.9137 116.732 41.3394 115.67 42.3871C114.608 43.4348 113.174 44.0192 111.682 44.0124C110.349 44.0926 109.031 43.686 107.975 42.868C106.919 42.0501 106.195 40.8766 105.939 39.5655L104.618 32.984L102.356 39.2097C102.028 40.5511 101.269 41.7477 100.194 42.6155C99.12 43.4832 97.7904 43.974 96.41 44.0124C95.0356 44.0005 93.7056 43.5247 92.6355 42.6622C91.5654 41.7997 90.818 40.601 90.5145 39.2605L88.1767 32.984L87.2365 38.5744C87.2187 39.3682 87.0392 40.1499 86.7092 40.8721C86.3792 41.5942 85.9055 42.2416 85.3171 42.7746C84.7286 43.3076 84.0378 43.7152 83.2866 43.9723C82.5354 44.2295 81.7398 44.3309 80.9481 44.2704C80.1564 44.2099 79.3854 43.9888 78.682 43.6204C77.9787 43.2521 77.3577 42.7443 76.8571 42.1281C76.3565 41.5118 75.9867 40.8001 75.7702 40.0362C75.5538 39.2723 75.4952 38.4722 75.5982 37.685C75.5729 37.211 75.5729 36.736 75.5982 36.262L79.6132 13.773C79.663 13.0073 79.8663 12.2595 80.2112 11.5741C80.5561 10.8887 81.0354 10.2798 81.6206 9.7835C82.6244 8.85976 83.9412 8.35121 85.3053 8.36048C86.5443 8.37571 87.752 8.75145 88.7809 9.4419C89.8098 10.1323 90.6153 11.1076 91.099 12.2484L96.3083 23.8867L102.28 11.4606Z" fill="white"/>
<path d="M128.073 37.3043C128.073 41.3193 125.761 44.0129 122.33 44.0129C121.375 44.0182 120.433 43.7892 119.587 43.3463C118.741 42.9033 118.016 42.2597 117.476 41.4718C116.587 40.0488 116.485 39.4643 116.485 35.9321V15.3999C116.327 14.5159 116.376 13.6072 116.629 12.7455C116.882 11.8838 117.332 11.0928 117.943 10.4348C118.554 9.7768 119.31 9.26989 120.151 8.95408C120.992 8.63827 121.894 8.52218 122.787 8.61504H127.666C133.257 8.61504 135.671 9.25031 138.415 11.3086C139.932 12.5082 141.155 14.0381 141.991 15.7818C142.827 17.5255 143.253 19.437 143.239 21.3707C143.224 23.3043 142.768 25.2091 141.906 26.9398C141.044 28.6706 139.798 30.1818 138.263 31.3581C135.914 33.1502 133.005 34.0507 130.055 33.8992H128.098V37.3043H128.073ZM128.073 23.2011H128.861C131.021 23.2011 131.91 22.6167 131.91 21.1936C131.91 19.7706 130.868 19.3132 129.191 19.3132C128.819 19.2921 128.445 19.2921 128.073 19.3132V23.2011Z" fill="white"/>
<path d="M159.48 32.8315C160.932 32.7225 162.377 33.1174 163.572 33.9496C164.258 34.4408 164.817 35.0893 165.202 35.8409C165.587 36.5925 165.786 37.4253 165.782 38.2696C165.773 39.0431 165.612 39.8072 165.306 40.5181C165.001 41.2289 164.558 41.8725 164.004 42.4116C163.41 42.9124 162.722 43.2878 161.979 43.5149C161.237 43.742 160.456 43.8162 159.684 43.733H148.681C147.77 43.8246 146.85 43.7075 145.992 43.3904C145.133 43.0734 144.358 42.5648 143.725 41.9033C142.302 40.3024 142.15 39.5147 142.15 34.6358V14.8404C142.057 14.0247 142.137 13.1986 142.386 12.4162C142.635 11.6339 143.046 10.913 143.593 10.301C144.141 9.68899 144.811 9.19969 145.561 8.86525C146.311 8.53082 147.123 8.35884 147.944 8.36056C148.8 8.35316 149.647 8.53893 150.421 8.90411C151.195 9.26928 151.877 9.8044 152.416 10.4697C153.483 11.8165 153.737 13.0108 153.737 16.2634V32.8315H159.48Z" fill="white"/>
<path d="M181.232 32.8822C182.961 32.6626 184.707 33.1378 186.086 34.2035C186.676 34.7257 187.148 35.3673 187.472 36.0857C187.795 36.8042 187.963 37.5831 187.963 38.371C187.963 39.159 187.795 39.9379 187.472 40.6563C187.148 41.3747 186.676 42.0162 186.086 42.5384C185.404 43.0462 184.629 43.4132 183.804 43.6183C182.98 43.8233 182.123 43.8623 181.283 43.7328H172.287C170.815 43.8643 169.33 43.709 167.917 43.2754C167.027 42.9391 166.244 42.3703 165.65 41.6283C165.055 40.8863 164.671 39.9984 164.537 39.0571C164.357 37.9059 164.306 36.7383 164.384 35.5758V16.4666C164.384 12.7311 164.588 11.8417 165.909 10.4695C166.751 9.54038 167.894 8.93756 169.136 8.76688C170.32 8.56809 171.523 8.51688 172.719 8.61441H179.606C184.027 8.61441 184.561 8.61442 185.933 9.73252C186.591 10.2132 187.124 10.845 187.487 11.5747C187.849 12.3044 188.031 13.1107 188.017 13.9254C188.036 14.724 187.877 15.5167 187.552 16.2462C187.226 16.9758 186.743 17.6239 186.136 18.1436C184.879 19.1161 183.297 19.5707 181.715 19.4142H175.972V21.9553H180.495C181.086 21.8879 181.685 21.9449 182.253 22.1227C182.821 22.3004 183.346 22.5949 183.793 22.9873C184.241 23.3798 184.601 23.8614 184.852 24.4014C185.102 24.9413 185.237 25.5277 185.247 26.1228C185.258 26.764 185.119 27.3989 184.841 27.9768C184.563 28.5548 184.154 29.0598 183.646 29.4517C182.626 30.1682 181.378 30.4848 180.139 30.3411H175.972V32.8822H181.232Z" fill="white"/>
<path d="M191.55 19.414C190.755 19.4851 189.954 19.3859 189.2 19.123C188.446 18.8601 187.757 18.4396 187.179 17.8894C186.158 16.84 185.576 15.4401 185.553 13.9761C185.568 12.9817 185.855 12.0106 186.384 11.1683C186.913 10.326 187.662 9.64475 188.551 9.19874C189.72 8.66511 190.178 8.61426 194.828 8.61426H206.644C210.786 8.61426 210.964 8.61431 212.158 9.14795C213.082 9.57522 213.866 10.2554 214.419 11.1099C214.972 11.9644 215.272 12.9582 215.284 13.9761C215.275 14.7654 215.101 15.5441 214.773 16.262C214.445 16.9798 213.97 17.6208 213.378 18.1435C212.119 19.1136 210.538 19.568 208.956 19.414H206.415V36.897C206.551 38.4541 206.205 40.0154 205.424 41.3694C204.927 42.169 204.229 42.8245 203.4 43.2703C202.571 43.7162 201.639 43.9369 200.698 43.9105C199.751 43.9118 198.817 43.6809 197.98 43.2378C197.143 42.7948 196.427 42.1533 195.895 41.3694C195.021 40.0145 194.652 38.3951 194.853 36.7954V19.2108L191.55 19.414Z" fill="white"/>
<path d="M230.455 32.8818C232.184 32.6623 233.929 33.1375 235.308 34.2032C235.898 34.7254 236.371 35.3669 236.694 36.0854C237.018 36.8038 237.185 37.5827 237.185 38.3707C237.185 39.1586 237.018 39.9375 236.694 40.656C236.371 41.3744 235.898 42.0159 235.308 42.5381C234.627 43.0458 233.852 43.4129 233.027 43.6179C232.202 43.823 231.345 43.8619 230.506 43.7324H221.51C220.037 43.8639 218.553 43.7086 217.139 43.275C216.25 42.9388 215.467 42.3699 214.873 41.628C214.278 40.886 213.894 39.998 213.76 39.0567C213.58 37.9056 213.528 36.7379 213.607 35.5754V16.4662C213.607 12.7307 213.81 11.8413 215.132 10.4691C215.974 9.54002 217.117 8.93721 218.359 8.76652C219.534 8.56827 220.729 8.51706 221.917 8.61406H228.828C233.25 8.61406 233.784 8.61407 235.156 9.73216C235.814 10.2128 236.347 10.8446 236.709 11.5743C237.072 12.3041 237.254 13.1103 237.24 13.9251C237.251 14.7226 237.089 15.513 236.765 16.2415C236.44 16.97 235.96 17.619 235.359 18.1433C234.102 19.1158 232.52 19.5704 230.938 19.4138H225.195V21.955H229.718C230.309 21.8876 230.908 21.9446 231.476 22.1223C232.044 22.3 232.569 22.5945 233.016 22.987C233.464 23.3794 233.824 23.861 234.074 24.401C234.325 24.941 234.459 25.5274 234.47 26.1224C234.481 26.7637 234.342 27.3985 234.064 27.9765C233.786 28.5544 233.377 29.0595 232.869 29.4513C231.849 30.1679 230.601 30.4844 229.362 30.3407H225.195V32.8818H230.455Z" fill="white"/>
</g>
<defs>
<radialGradient id="paint0_diamond_94_39940" cx="0" cy="0" r="1" gradientUnits="userSpaceOnUse" gradientTransform="translate(122.584 26.0598) rotate(-179.696) scale(122.585 574.976)">
<stop stop-color="#FF9900"/>
<stop offset="0.9999" stop-color="#FF0400"/>
<stop offset="1" stop-color="#FF0C0C"/>
</radialGradient>
<clipPath id="clip0_94_39940">
<rect width="244.863" height="52.1693" fill="white"/>
</clipPath>
</defs>
</svg>
