<svg width="209" height="55" viewBox="0 0 209 55" fill="none" xmlns="http://www.w3.org/2000/svg">
<g clip-path="url(#clip0_94_39966)">
<path d="M187.254 9.37702L178.462 18.1947L174.651 14.383C172.491 12.2248 169.595 10.9631 166.544 10.8509C165.97 9.02029 164.988 7.34358 163.673 5.94657C162.301 4.60208 160.663 3.55935 158.865 2.8854C157.066 2.21146 155.146 1.92119 153.229 2.03322H128.885C127.676 2.04124 126.475 2.23839 125.327 2.61763C124.545 2.0493 123.69 1.58789 122.786 1.24548C120.059 0.31613 117.085 0.415501 114.426 1.52496C112.996 0.915117 111.457 0.603853 109.903 0.610196C107.239 0.560272 104.644 1.46118 102.584 3.15132C100.387 1.36275 97.628 0.409596 94.7954 0.460759C91.9628 0.511922 89.2398 1.56406 87.1088 3.43081V3.43081C86.0352 2.49413 84.7934 1.7698 83.4496 1.29627C81.4858 0.589618 79.3726 0.40313 77.3154 0.754902C75.2582 1.10667 73.327 1.98476 71.7096 3.30378C70.8452 4.03088 70.0994 4.8882 69.4989 5.8449L68.6095 6.04816C68.0336 5.20091 67.3406 4.43952 66.5512 3.7866C64.4001 2.02444 61.7085 1.05542 58.9278 1.04214C57.6634 1.03935 56.4053 1.21914 55.1923 1.57584C53.7634 2.00009 52.4272 2.68972 51.2536 3.6087C50.4166 4.3005 49.6885 5.11433 49.0936 6.0228C48.0674 4.96324 46.8274 4.13423 45.4561 3.59094C44.0847 3.04765 42.6134 2.80248 41.1399 2.87176H35.0667C34.6957 2.53297 34.2961 2.22693 33.8723 1.95699C31.7764 0.700671 29.3787 0.0371094 26.9351 0.0371094C24.4914 0.0371094 22.0937 0.700671 19.9978 1.95699C19.5521 2.23924 19.1274 2.55346 18.7272 2.89719H12.4761C10.9885 2.83031 9.50398 3.08386 8.12296 3.64065C6.74194 4.19744 5.4967 5.04445 4.47153 6.12439C2.70773 8.0221 1.73513 10.5217 1.75251 13.1125C1.75759 14.092 1.89435 15.0664 2.1591 16.0094C1.04364 18.1761 0.677268 20.6513 1.11723 23.0483C0.469632 24.4326 0.131444 25.9415 0.126195 27.4699C0.113447 29.4287 0.660005 31.3505 1.70168 33.0095C1.68961 33.1957 1.68961 33.3824 1.70168 33.5686C1.70304 34.6143 1.87472 35.6528 2.20993 36.6433C1.57178 38.2602 1.26084 39.9876 1.29513 41.7255C1.25177 44.8897 2.41476 47.9516 4.54776 50.2891C5.74891 51.5731 7.21291 52.5829 8.8399 53.2495C10.4669 53.9161 12.2185 54.2238 13.9753 54.1517H43.249C44.8647 54.1972 46.4639 53.8173 47.8866 53.0503C49.3093 52.2832 50.5054 51.1558 51.3552 49.7809C52.0784 48.6269 52.5623 47.3393 52.7782 45.9946H67.7455V54.1517H91.2001V51.89L91.7591 51.763H98.8742V54.1517H130.257V53.1606H158.209C159.814 53.1742 161.404 52.863 162.885 52.2458C164.319 51.597 165.601 50.6531 166.646 49.4759C167.589 48.4018 168.307 47.1487 168.755 45.7914C168.994 45.0215 169.156 44.2299 169.238 43.4281L169.924 44.1396C171.066 45.2786 172.422 46.1813 173.913 46.7961C175.404 47.4109 177.002 47.7257 178.615 47.7226V47.7226C180.224 47.7279 181.819 47.4141 183.306 46.799C184.794 46.184 186.144 45.2801 187.28 44.1396L204.737 26.6567C205.882 25.5226 206.791 24.173 207.411 22.6857C208.031 21.1984 208.351 19.6029 208.351 17.9915C208.351 16.3801 208.031 14.7846 207.411 13.2973C206.791 11.81 205.882 10.4603 204.737 9.32623C203.592 8.17093 202.229 7.25487 200.726 6.63125C199.224 6.00762 197.612 5.68888 195.985 5.69361C194.359 5.69833 192.749 6.02643 191.25 6.65878C189.751 7.29113 188.393 8.21509 187.254 9.37702Z" fill="url(#paint0_diamond_94_39966)"/>
<path d="M13.8244 46.4014C13.165 46.476 12.4972 46.4063 11.8675 46.1969C11.2377 45.9876 10.661 45.6437 10.1775 45.1892C9.69393 44.7347 9.3151 44.1803 9.06724 43.5647C8.81939 42.9491 8.70846 42.2869 8.74216 41.6241V41.37C8.70654 40.7743 8.79927 40.1779 9.01409 39.6211C9.2289 39.0643 9.56081 38.5602 9.98732 38.1428C11.0604 37.2777 12.4254 36.8591 13.799 36.9739H35.6272V36.2369C35.6379 36.1502 35.6298 36.0622 35.6035 35.9789C35.5772 35.8956 35.5333 35.819 35.4747 35.7541C35.2844 35.6954 35.0807 35.6954 34.8903 35.7541H11.3087C11.009 35.7742 10.7088 35.7252 10.4312 35.6106C10.1536 35.496 9.90604 35.3191 9.7078 35.0935C9.35247 34.6941 9.15386 34.1796 9.14875 33.645C9.15741 33.1241 9.32596 32.6185 9.63157 32.1966C9.82793 31.9456 10.0848 31.7486 10.3782 31.6242C10.6716 31.4997 10.9917 31.4518 11.3087 31.4851H22.6421V30.1128H10.5464C10.1508 30.1509 9.75154 30.105 9.37492 29.978C8.99831 29.851 8.65279 29.6458 8.36101 29.376C7.94146 29.0058 7.65576 28.5075 7.54829 27.9584C7.44083 27.4094 7.51758 26.8402 7.76663 26.3392C8.01568 25.8382 8.42312 25.4334 8.92572 25.1876C9.42832 24.9418 9.99801 24.8688 10.5464 24.9798H42.8694C43.2775 24.9337 43.6907 24.9806 44.0779 25.1171C44.4652 25.2535 44.8166 25.4759 45.1056 25.7675C45.532 26.272 45.7659 26.9112 45.7659 27.5717C45.7659 28.2322 45.532 28.8715 45.1056 29.376C44.8035 29.6459 44.449 29.8506 44.0643 29.9774C43.6796 30.1041 43.2728 30.1502 42.8694 30.1128H30.7737V31.4851H39.6422C40.867 31.3614 42.0949 31.6864 43.0981 32.3998C43.4257 32.7579 43.676 33.1796 43.8334 33.6387C43.9908 34.0977 44.052 34.5843 44.013 35.0681V40.811H18.1951C18.0928 40.8026 17.9899 40.8163 17.8934 40.8514C17.7969 40.8865 17.7091 40.9421 17.6361 41.0143C17.5367 41.1557 17.4835 41.3243 17.4836 41.4971C17.4836 41.9291 17.7123 42.1578 18.1951 42.1578H43.0981C43.4012 42.1278 43.707 42.1749 43.9869 42.2948C44.2668 42.4148 44.5118 42.6037 44.699 42.8439C44.9994 43.3049 45.1584 43.8437 45.1564 44.3939C45.139 44.8899 44.99 45.3723 44.7245 45.7916C44.5462 46.0509 44.3005 46.2565 44.0139 46.3864C43.7273 46.5163 43.4106 46.5654 43.0981 46.5285L13.8244 46.4014ZM22.6421 10.47C22.6996 10.0382 22.8497 9.62391 23.0822 9.2555C23.3146 8.88709 23.6239 8.57318 23.9889 8.33538C24.8397 7.82845 25.8201 7.58115 26.8096 7.62387C27.799 7.58115 28.7794 7.82845 29.6302 8.33538C29.9918 8.57683 30.2986 8.89171 30.5306 9.25946C30.7626 9.6272 30.9147 10.0396 30.977 10.47H41.1415C41.595 10.4047 42.0573 10.439 42.4962 10.5707C42.9351 10.7023 43.3399 10.9281 43.6826 11.2323C43.912 11.4769 44.0908 11.7645 44.2085 12.0785C44.3263 12.3925 44.3807 12.7268 44.3687 13.0619C44.3878 13.4115 44.3345 13.7612 44.212 14.0891C44.0896 14.4171 43.9006 14.7162 43.6572 14.9678C42.9895 15.5193 42.1308 15.7842 41.2685 15.7047H30.7991C30.6969 16.2102 30.5436 16.704 30.3417 17.1785C32.1858 16.9317 34.0487 16.8551 35.9068 16.9498C37.4361 17.0198 38.9452 17.3284 40.3792 17.8646C41.6363 18.3487 42.7661 19.1135 43.6826 20.1008C44.6368 21.1937 45.3317 22.488 45.7155 23.8871H37.4568C36.9915 23.1689 36.3177 22.6103 35.5256 22.2862C34.5977 21.8705 33.6126 21.5964 32.6033 21.473C31.4125 21.3437 30.2112 21.3437 29.0203 21.473C27.71 21.5559 26.4092 21.7515 25.1324 22.0575C24.1095 22.5252 23.0463 22.8995 21.956 23.1756C20.8171 23.4532 19.6632 23.6653 18.5001 23.8109C17.3187 23.9419 16.1311 24.0098 14.9425 24.0142C13.7961 24.0113 12.6507 23.9434 11.512 23.8109C10.6517 23.7166 9.85594 23.3096 9.27581 22.6674C9.01448 22.3396 8.83828 21.9524 8.7629 21.54C8.68753 21.1277 8.71533 20.7031 8.84383 20.3041C8.89744 19.9332 9.04777 19.5829 9.27973 19.2885C9.51169 18.9941 9.81707 18.7659 10.1652 18.627C10.912 18.3177 11.7254 18.2039 12.5284 18.2966C13.6831 18.4385 14.8478 18.481 16.0098 18.4236C17.0204 18.3896 18.0251 18.2534 19.0083 18.0171C19.8367 17.8424 20.6335 17.5425 21.3715 17.1277C21.9876 16.7975 22.525 16.3381 22.947 15.7809H12.4776C12.0261 15.8414 11.5669 15.8071 11.1294 15.6802C10.6919 15.5533 10.2856 15.3366 9.93649 15.044C9.46617 14.522 9.21183 13.8407 9.22498 13.1381C9.21632 12.8012 9.27475 12.466 9.39691 12.1519C9.51906 11.8378 9.70249 11.5511 9.93649 11.3085C10.2596 11.0221 10.639 10.8064 11.0503 10.6751C11.4617 10.5438 11.8959 10.5 12.3252 10.5462L22.6421 10.47Z" fill="white"/>
<path d="M48.2051 23.353C50.1513 22.8353 51.8412 21.6243 52.957 19.9479C54.1444 17.809 54.6996 15.3767 54.5579 12.9344V12.5024C54.5393 11.9173 54.6522 11.3355 54.8883 10.7998C55.1144 10.3474 55.435 9.94877 55.8285 9.63094C56.2324 9.32302 56.6887 9.09061 57.1753 8.94487C57.6861 8.79066 58.2171 8.71358 58.7508 8.71617C59.7514 8.72646 60.7189 9.0758 61.4952 9.70717C61.8865 10.055 62.1929 10.4877 62.3911 10.9722C62.5893 11.4567 62.674 11.9801 62.6387 12.5024V13.0107C62.6387 13.7222 62.6387 14.4083 62.6387 15.069C62.5948 15.7175 62.51 16.3624 62.3846 17.0002C63.7229 17.1522 65.0275 17.5213 66.2471 18.0929C67.383 18.6676 68.3869 19.4724 69.1948 20.4561C70.0557 21.5619 70.6786 22.8336 71.0244 24.1916C71.4714 25.8464 71.6431 27.5634 71.5326 29.2739H63.7314C63.9246 27.8061 63.6861 26.3139 63.0453 24.9793C62.7617 24.4574 62.3623 24.0073 61.8778 23.6637C61.3932 23.3201 60.8364 23.0922 60.25 22.9973C59.1951 24.9156 57.6964 26.5536 55.8793 27.7746C54.2801 28.8932 52.4298 29.6002 50.4921 29.8329C49.9868 29.9096 49.4728 29.9096 48.9674 29.8329C48.5389 29.7342 48.1277 29.5715 47.7477 29.3501C47.4106 29.1272 47.1104 28.8528 46.8583 28.5369C46.6319 28.2332 46.4678 27.8878 46.3755 27.5205C46.0959 26.6856 46.1505 25.7748 46.528 24.9793C46.6691 24.6007 46.8929 24.2582 47.183 23.9769C47.4731 23.6955 47.8223 23.4824 48.2051 23.353V23.353ZM52.2455 38.244C51.3166 38.2787 50.4089 37.961 49.7044 37.3546C49.1149 36.7239 48.787 35.8928 48.787 35.0295C48.787 34.1661 49.1149 33.3351 49.7044 32.7044C50.4089 32.098 51.3166 31.7803 52.2455 31.815H77.4026C78.443 31.7967 79.4824 31.8904 80.5028 32.0945C81.2008 32.2422 81.8382 32.5963 82.3324 33.1109C82.7889 33.6652 83.0874 34.3324 83.1964 35.0422C83.3644 36.0411 83.4411 37.0533 83.4251 38.0661V46.401H75.2173V39.2097C75.2173 38.549 74.8869 38.244 74.2262 38.244H52.2455ZM75.1156 19.9479H71.7105C71.2668 19.9668 70.8247 19.8826 70.4191 19.7018C70.0134 19.5211 69.6553 19.2486 69.3727 18.906C68.8254 18.2505 68.5282 17.4222 68.5341 16.5682C68.5223 15.7219 68.8003 14.897 69.3218 14.2304C69.604 13.8741 69.9694 13.5927 70.386 13.411C70.8025 13.2293 71.2574 13.1529 71.7105 13.1885H75.1156V12.1721C75.0774 11.6199 75.1677 11.0664 75.3793 10.555C75.591 10.0436 75.9182 9.5881 76.3354 9.22435C76.934 8.74553 77.6445 8.4267 78.4001 8.2978C79.1558 8.16889 79.9317 8.2342 80.6552 8.48748C81.1301 8.6604 81.5694 8.91874 81.9512 9.24979C82.3384 9.58762 82.6502 10.0033 82.8661 10.4696C83.1084 11.004 83.2299 11.5853 83.2218 12.1721V30.2903H75.1156V19.9479Z" fill="white"/>
<path d="M98.494 19.3379C98.494 21.015 98.4939 22.6159 98.3668 24.166C98.2398 25.7161 98.1128 27.1899 97.9349 28.5875C99.0827 29.0898 100.146 29.767 101.086 30.595C102.028 31.4514 102.788 32.4884 103.322 33.6444C103.953 35.0309 104.373 36.5042 104.567 38.0151C104.808 40.005 104.85 42.0138 104.694 44.0121H97.5791C97.8893 42.3872 97.9407 40.7234 97.7316 39.0824C97.5688 37.9116 97.095 36.8059 96.3594 35.8806C95.774 37.6933 94.9172 39.4069 93.8183 40.9628C92.8771 42.315 91.6097 43.4076 90.1336 44.1393C89.6692 44.3449 89.1834 44.4982 88.6852 44.5966C88.1968 44.6725 87.6997 44.6725 87.2114 44.5966C86.7557 44.5442 86.3104 44.4243 85.89 44.2408C85.4989 44.0411 85.1662 43.7435 84.9244 43.3769C84.4166 42.6339 84.2162 41.7232 84.3653 40.8357C84.4146 40.3779 84.5628 39.9361 84.7997 39.5412C85.0367 39.1463 85.3566 38.8077 85.7375 38.5488C86.7107 37.8381 87.5679 36.9809 88.2786 36.0076C89.05 34.8843 89.6257 33.6385 89.9812 32.323C90.4673 30.5692 90.7906 28.7744 90.9468 26.9612C91.1501 24.8606 91.2517 22.3194 91.2517 19.3379H87.2622C86.8193 19.3487 86.3813 19.2436 85.9916 19.0329C85.625 18.8405 85.311 18.5613 85.0768 18.2198C84.8132 17.8967 84.6147 17.5257 84.4923 17.1271C84.3656 16.7501 84.297 16.3558 84.2891 15.9581C84.2878 15.5533 84.3477 15.1507 84.4669 14.7639C84.5729 14.3734 84.7448 14.0038 84.9752 13.6711C85.2419 13.3201 85.5885 13.0379 85.9863 12.8479C86.3841 12.6578 86.8215 12.5655 87.2622 12.5785H91.2517V12.0194C91.1926 10.9935 91.5291 9.98406 92.1919 9.19881C92.555 8.84246 92.9898 8.56748 93.4674 8.39222C93.945 8.21696 94.4544 8.14538 94.9618 8.1823C95.4766 8.14771 95.9931 8.22023 96.4785 8.39517C96.964 8.57011 97.408 8.84375 97.7824 9.19881C98.4567 9.97891 98.8028 10.9897 98.7481 12.0194V12.5022H102.128C102.587 12.4917 103.041 12.5966 103.449 12.8072C103.822 12.989 104.145 13.2595 104.389 13.5949C104.637 13.9207 104.818 14.2919 104.923 14.6876C105.021 15.0782 105.072 15.4792 105.075 15.8819C105.08 16.2807 105.011 16.677 104.872 17.0509C104.759 17.448 104.569 17.8191 104.313 18.1435C104.065 18.4727 103.754 18.7491 103.398 18.9567C103.009 19.1674 102.571 19.2725 102.128 19.2616L98.494 19.3379ZM106.346 28.8163H103.627C103.083 28.8388 102.541 28.7253 102.052 28.4859C101.654 28.2971 101.3 28.029 101.01 27.6982C100.729 27.3735 100.521 26.9922 100.4 26.5801C100.279 26.1763 100.219 25.7565 100.222 25.3349C100.219 24.9299 100.279 24.527 100.4 24.1405C100.522 23.7264 100.72 23.3387 100.984 22.9971C101.272 22.6527 101.638 22.3825 102.052 22.2093C102.547 21.9916 103.086 21.8874 103.627 21.9044H106.346V11.7399C106.324 11.2683 106.403 10.7974 106.579 10.3591C106.754 9.92075 107.021 9.52514 107.362 9.19881C108.068 8.59709 108.977 8.28792 109.904 8.33476C110.828 8.3028 111.732 8.61018 112.445 9.19881C112.803 9.51383 113.086 9.90624 113.271 10.3465C113.456 10.7867 113.538 11.2632 113.512 11.7399V46.4516H106.524L106.346 28.8163ZM115.265 11.6891C115.238 11.2098 115.323 10.7309 115.513 10.2899C115.702 9.84896 115.992 9.458 116.358 9.14794C117.078 8.57132 117.977 8.26558 118.899 8.28396C119.358 8.28369 119.813 8.36101 120.246 8.51266C120.669 8.65103 121.058 8.87607 121.389 9.17337C121.731 9.46976 122.007 9.83296 122.203 10.2406C122.413 10.7118 122.517 11.2238 122.508 11.7399V46.4516H115.291L115.265 11.6891Z" fill="white"/>
<path d="M158.059 38.7519C158.618 38.7453 159.173 38.8579 159.685 39.0823C160.101 39.2637 160.474 39.5323 160.778 39.87C161.058 40.1855 161.266 40.5585 161.388 40.9628C161.509 41.3579 161.569 41.7692 161.566 42.1825C161.562 42.6055 161.494 43.0255 161.362 43.4277C161.226 43.8386 161.01 44.2186 160.727 44.5457C160.438 44.8823 160.072 45.1439 159.66 45.3081C159.153 45.5168 158.606 45.6122 158.059 45.5876H127.006C126.467 45.6126 125.929 45.5171 125.431 45.3081C125.011 45.1449 124.636 44.8834 124.338 44.5457C124.064 44.2122 123.849 43.8341 123.703 43.4277C123.414 42.6052 123.414 41.709 123.703 40.8865C123.803 40.4737 124.014 40.0958 124.313 39.7938C124.611 39.4504 124.985 39.1808 125.405 39.0061C125.908 38.7791 126.455 38.6663 127.006 38.6757L158.059 38.7519ZM149.927 32.2721C150.488 31.1716 150.865 29.9872 151.045 28.7653H128.429C127.888 28.7824 127.35 28.6782 126.854 28.4604C126.439 28.2637 126.061 27.9973 125.736 27.6727C125.452 27.3551 125.236 26.9834 125.1 26.58C124.959 26.1804 124.89 25.7586 124.897 25.3348C124.89 24.9275 124.959 24.5225 125.1 24.1405C125.226 23.7249 125.443 23.3428 125.736 23.0224C126.034 22.679 126.408 22.4093 126.828 22.2346C127.333 22.0172 127.88 21.9131 128.429 21.9297H151.554V17.5844C151.57 17.447 151.555 17.3076 151.51 17.1769C151.464 17.0461 151.39 16.9273 151.292 16.8295C151.194 16.7316 151.075 16.6572 150.945 16.6119C150.814 16.5666 150.674 16.5516 150.537 16.568H128.887C128.329 16.5819 127.775 16.478 127.26 16.263C126.849 16.0724 126.478 15.8051 126.168 15.4753C125.884 15.1482 125.668 14.7682 125.532 14.3572C125.385 13.9583 125.308 13.5371 125.304 13.112C125.296 12.6964 125.365 12.2831 125.507 11.8923C125.643 11.4813 125.859 11.1013 126.142 10.7742C126.46 10.4341 126.839 10.158 127.26 9.96103C127.775 9.74612 128.329 9.64222 128.887 9.65611H153.231C154.115 9.56702 155.007 9.65843 155.855 9.92489C156.702 10.1914 157.487 10.6273 158.16 11.2062C159.193 12.4192 159.713 13.987 159.609 15.5769V20.1255C159.649 23.339 159.437 26.5508 158.974 29.731C158.664 32.057 157.792 34.2725 156.432 36.1854C156.153 36.5367 155.808 36.8302 155.416 37.0494C154.988 37.2902 154.525 37.4617 154.044 37.5576C153.514 37.6476 152.973 37.6476 152.443 37.5576C151.868 37.4871 151.314 37.2967 150.817 36.9986C150.409 36.7951 150.059 36.4935 149.797 36.1208C149.535 35.7482 149.371 35.3163 149.317 34.864C149.214 33.9554 149.429 33.0391 149.927 32.2721V32.2721Z" fill="white"/>
<path d="M200.521 18.0421C200.524 18.6526 200.404 19.2575 200.168 19.8207C199.933 20.3839 199.586 20.8938 199.149 21.3202L181.691 38.8031C180.82 39.669 179.642 40.1549 178.413 40.1549C177.185 40.1549 176.007 39.669 175.135 38.8031L162.658 26.3262C162.228 25.8974 161.886 25.388 161.653 24.8271C161.419 24.2662 161.298 23.6647 161.297 23.0571C161.296 22.4495 161.414 21.8476 161.646 21.2858C161.877 20.724 162.217 20.2132 162.646 19.7828C163.075 19.3523 163.584 19.0105 164.145 18.7769C164.706 18.5433 165.307 18.4224 165.915 18.4212C166.522 18.42 167.124 18.5386 167.686 18.77C168.248 19.0015 168.759 19.3412 169.189 19.77L178.413 28.969L192.593 14.7641C193.243 14.1178 194.07 13.6781 194.969 13.5004C195.869 13.3226 196.8 13.4147 197.648 13.765C198.495 14.1153 199.22 14.7082 199.731 15.4692C200.242 16.2302 200.517 17.1253 200.521 18.0421V18.0421Z" fill="white"/>
</g>
<defs>
<radialGradient id="paint0_diamond_94_39966" cx="0" cy="0" r="1" gradientUnits="userSpaceOnUse" gradientTransform="translate(104.238 27.0995) rotate(-179.629) scale(104.309 596.489)">
<stop stop-color="#5DE9A6"/>
<stop offset="1" stop-color="#5566FF"/>
</radialGradient>
<clipPath id="clip0_94_39966">
<rect width="208.169" height="54.0243" fill="white"/>
</clipPath>
</defs>
</svg>
