<svg width="239" height="53" viewBox="0 0 239 53" fill="none" xmlns="http://www.w3.org/2000/svg">
<g clip-path="url(#clip0_94_39950)">
<path d="M20.6342 52.1435C24.5429 52.2808 28.4206 51.4054 31.8913 49.6024C34.0412 50.9704 36.5346 51.7017 39.0828 51.7116C40.935 51.717 42.7675 51.3329 44.4617 50.5843C46.1559 49.8357 47.6738 48.7393 48.9169 47.3662C50.1433 48.7398 51.6472 49.8374 53.3294 50.5865C55.0115 51.3356 56.8334 51.7191 58.6748 51.7116C61.1601 51.6959 63.594 51.0018 65.7137 49.7041C69.1408 51.4012 72.9179 52.2716 76.7422 52.2452C82.1523 52.534 87.4634 50.712 91.5569 47.163C96.0319 50.4825 101.461 52.2654 107.032 52.2452C109.337 52.2466 111.586 51.5406 113.477 50.2227C115.367 48.9049 116.808 47.0386 117.603 44.876C118.264 44.876 118.874 44.876 119.484 44.6473C121.635 47.1398 124.318 49.1184 127.335 50.4377C130.351 51.757 133.625 52.3833 136.916 52.2706C139.703 52.4112 142.489 51.9885 145.109 51.028C147.728 50.0675 150.127 48.5887 152.163 46.6801C153.426 48.271 155.034 49.5548 156.865 50.4351C158.696 51.3153 160.702 51.7691 162.734 51.7624C165.225 51.7645 167.666 51.0596 169.773 49.7295C171.855 51.0509 174.269 51.7557 176.735 51.7624V51.7624C178.689 51.7892 180.622 51.3653 182.385 50.5235C184.148 49.6818 185.693 48.4448 186.9 46.9088H189.085C190.284 48.4537 191.828 49.697 193.593 50.5397C195.357 51.3823 197.295 51.801 199.25 51.7624C200.995 51.7484 202.722 51.3945 204.332 50.7205C205.943 51.3926 207.669 51.7465 209.414 51.7624C212.14 51.7652 214.801 50.9314 217.038 49.3737C219.263 50.9544 221.931 51.7905 224.661 51.7624C226.421 51.7861 228.168 51.4586 229.8 50.7991C231.432 50.1396 232.916 49.1613 234.165 47.9215C235.414 46.6816 236.404 45.2051 237.076 43.5783C237.748 41.9514 238.088 40.207 238.078 38.4469C238.051 35.7047 237.268 33.0229 235.816 30.6964V30.544C237.325 27.7241 238.094 24.5682 238.053 21.3706C238.043 18.3676 237.368 15.4042 236.076 12.6932C234.784 9.98229 232.908 7.59117 230.582 5.6918C226.332 2.34581 220.983 0.713865 215.589 1.11781H210.736C208.448 0.882266 206.139 1.24292 204.033 2.16472C201.927 3.08652 200.095 4.53807 198.716 6.37796C197.462 4.67106 195.824 3.28268 193.935 2.32486C192.046 1.36704 189.958 0.866545 187.84 0.863686C184.846 0.862628 181.939 1.86463 179.581 3.70973C178.8 3.12613 177.946 2.6477 177.04 2.28671C174.328 1.18965 171.384 0.787863 168.477 1.11781H156.788C151.959 1.11781 150.13 1.11782 147.538 2.31214H147.335C144.22 0.782516 140.792 -0.00050076 137.323 0.025149C131.827 -0.111582 126.491 1.88246 122.432 5.59014C118.003 2.17422 112.583 0.292118 106.99 0.227939C101.398 0.163761 95.9358 1.92103 91.4298 5.23442C87.4738 1.81186 82.3776 -0.00174927 77.1487 0.152174C73.1308 0.095524 69.1719 1.1226 65.6883 3.12532C63.0484 1.35704 59.8606 0.597137 56.7069 0.984352C53.5532 1.37157 50.644 2.88003 48.5103 5.23442C47.336 3.84759 45.8718 2.73522 44.221 1.97566C42.5702 1.2161 40.7728 0.827804 38.9557 0.838249C36.4239 0.814544 33.935 1.4918 31.7643 2.79496C28.4605 1.0594 24.7721 0.185395 21.0407 0.253841C9.12287 0.253841 0.457664 8.33461 0.457664 19.4647C0.427178 22.4009 1.098 25.3019 2.41434 27.9266C0.642437 30.1804 -0.323737 32.9627 -0.330078 35.8296C0.000267873 44.876 9.07208 52.1435 20.6342 52.1435Z" fill="url(#paint0_diamond_94_39950)"/>
<path d="M17.0504 32.0432C19.5915 34.0507 19.8456 34.2032 20.735 34.2032C20.9308 34.2037 21.1245 34.1638 21.3042 34.086C21.4838 34.0082 21.6454 33.8942 21.779 33.7511C21.9125 33.608 22.0152 33.4389 22.0804 33.2544C22.1456 33.0698 22.172 32.8737 22.158 32.6785C22.1543 32.3819 22.0754 32.0912 21.9288 31.8334C21.7821 31.5757 21.5725 31.3594 21.3195 31.2047C19.6314 30.4304 17.8906 29.7765 16.1102 29.248C13.8955 28.6766 11.9382 27.375 10.5549 25.5535C9.1715 23.7321 8.4429 21.4974 8.48683 19.2106C8.48683 12.3495 13.7469 7.62305 21.4465 7.62305C27.7739 7.62305 32.7037 11.0536 32.7037 15.2464C32.7423 15.8678 32.6521 16.4905 32.4389 17.0754C32.2257 17.6603 31.8939 18.1949 31.4646 18.6458C31.0352 19.0966 30.5175 19.4539 29.9436 19.6954C29.3698 19.9369 28.7522 20.0573 28.1297 20.0491C26.3588 19.9499 24.6821 19.2197 23.4032 17.9908C22.1327 17.0506 21.5482 16.7202 20.8621 16.7202C20.4936 16.7334 20.1445 16.8891 19.8885 17.1546C19.6326 17.42 19.4896 17.7745 19.4899 18.1433C19.4899 19.1597 20.2776 19.6933 23.0221 20.5319C25.7014 21.3324 28.227 22.578 30.493 24.2166C31.632 25.2653 32.5358 26.5436 33.1446 27.9672C33.7534 29.3907 34.0535 30.9272 34.0251 32.4752C34.0666 35.6107 32.8811 38.6382 30.7217 40.9118C29.367 42.1748 27.7623 43.1394 26.0114 43.7435C24.2606 44.3475 22.4025 44.5775 20.5572 44.4185C13.2896 44.4185 7.54659 40.4797 7.54659 35.4737C7.52882 34.7805 7.65313 34.091 7.91185 33.4475C8.17056 32.8041 8.55822 32.2204 9.05096 31.7324C9.54371 31.2444 10.1311 30.8625 10.777 30.61C11.423 30.3576 12.1137 30.24 12.8067 30.2645C14.3902 30.3229 15.8985 30.9551 17.0504 32.0432V32.0432Z" fill="white"/>
<path d="M52.8806 15.4751C52.7103 13.8737 53.0864 12.2618 53.9478 10.9012C54.4643 10.12 55.1664 9.47908 55.9912 9.03563C56.816 8.59219 57.7379 8.36007 58.6743 8.36003C59.5212 8.3638 60.3568 8.55483 61.1212 8.91946C61.8856 9.2841 62.56 9.81329 63.0958 10.4691C64.1362 11.7742 64.6283 13.4327 64.4681 15.094V36.5664C64.7259 38.4254 64.2721 40.3133 63.1975 41.852C62.6559 42.5305 61.9674 43.0774 61.184 43.4515C60.4005 43.8257 59.5425 44.0173 58.6743 44.012C57.7761 44.0106 56.8914 43.7927 56.0952 43.3769C55.299 42.9611 54.6147 42.3596 54.1003 41.6233L44.8252 29.8833V37.2526C45.0092 38.9158 44.5349 40.5849 43.5038 41.9028C42.9583 42.5784 42.2655 43.1203 41.4783 43.487C40.6912 43.8536 39.8306 44.0353 38.9624 44.0181C38.0942 44.0009 37.2415 43.7854 36.4695 43.3879C35.6975 42.9905 35.0266 42.4216 34.5082 41.7249C33.4682 40.3054 33.0133 38.5406 33.2377 36.7952V14.5604C33.1718 13.7401 33.2814 12.9151 33.5592 12.1405C33.8371 11.3659 34.2767 10.6594 34.8489 10.068C35.4211 9.47653 36.1127 9.01381 36.8777 8.71055C37.6427 8.40728 38.4635 8.27042 39.2855 8.30915C40.131 8.32117 40.9609 8.53777 41.7044 8.94048C42.4478 9.34319 43.0827 9.92002 43.5546 10.6216L52.8806 21.9296V15.4751Z" fill="white"/>
<path d="M73.1579 32.0432C75.699 34.0507 75.9531 34.2032 76.8425 34.2032C77.0383 34.2037 77.232 34.1638 77.4117 34.086C77.5913 34.0082 77.7529 33.8942 77.8865 33.7511C78.02 33.608 78.1226 33.4389 78.1878 33.2544C78.2531 33.0698 78.2795 32.8737 78.2655 32.6785C78.2618 32.382 78.183 32.0912 78.0363 31.8334C77.8897 31.5757 77.68 31.3594 77.427 31.2047C75.7389 30.4304 73.9981 29.7765 72.2177 29.248C70.003 28.6767 68.0457 27.375 66.6624 25.5535C65.279 23.7321 64.5504 21.4974 64.5943 19.2106C64.5943 12.3495 69.8544 7.62305 77.554 7.62305C83.8814 7.62305 88.8112 11.0536 88.8112 15.2464C88.8497 15.8678 88.7596 16.4905 88.5464 17.0754C88.3331 17.6603 88.0015 18.1949 87.5721 18.6458C87.1427 19.0966 86.6249 19.4539 86.0511 19.6954C85.4772 19.9369 84.8597 20.0573 84.2372 20.0491C82.4253 19.9871 80.6988 19.264 79.3836 18.0162C78.1131 17.076 77.5286 16.7457 76.8425 16.7457C76.474 16.7588 76.1249 16.9146 75.869 17.18C75.613 17.4455 75.4701 17.7999 75.4703 18.1687C75.4703 19.1851 76.2581 19.7188 79.0025 20.5574C81.6818 21.3578 84.2074 22.6035 86.4734 24.242C87.6125 25.2907 88.5162 26.5689 89.125 27.9925C89.7339 29.4161 90.034 30.9526 90.0055 32.5007C90.047 35.6361 88.8616 38.6635 86.7021 40.9371C85.3474 42.2001 83.7427 43.1649 81.9918 43.7689C80.241 44.373 78.3829 44.6029 76.5376 44.4439C69.27 44.4439 63.5271 40.5052 63.5271 35.4992C63.5093 34.8059 63.6336 34.1163 63.8923 33.4729C64.151 32.8295 64.5387 32.2458 65.0314 31.7578C65.5242 31.2698 66.1115 30.8878 66.7574 30.6354C67.4033 30.3829 68.0941 30.2653 68.7871 30.2898C70.4114 30.3104 71.9697 30.9355 73.1579 32.0432V32.0432Z" fill="white"/>
<path d="M125.379 26.174V28.7151C125.383 30.471 124.846 32.1854 123.84 33.6247C122.834 35.064 121.409 36.1583 119.759 36.7584C118.109 37.3584 116.314 37.4351 114.618 36.978C112.923 36.5209 111.41 35.5522 110.285 34.2039C108.58 34.9015 106.696 35.0325 104.912 34.5776C103.127 34.1228 101.535 33.1062 100.372 31.6778C99.2091 30.2495 98.5361 28.4851 98.4524 26.6451C98.3686 24.805 98.8786 22.9868 99.9071 21.4588C100.936 19.9307 102.428 18.7737 104.164 18.1587C105.901 17.5436 107.789 17.503 109.55 18.0428C111.311 18.5826 112.852 19.6743 113.945 21.1567C115.038 22.6391 115.626 24.4337 115.621 26.2756V28.8167C115.618 28.9791 115.647 29.1404 115.707 29.2913C115.767 29.4423 115.856 29.5797 115.97 29.6957C116.083 29.8117 116.219 29.9038 116.368 29.9666C116.518 30.0295 116.679 30.0619 116.841 30.0619C117.167 30.0552 117.477 29.9211 117.705 29.6883C117.933 29.4555 118.061 29.1426 118.061 28.8167V26.2756C118.061 24.0944 117.414 21.9622 116.202 20.1486C114.99 18.3349 113.268 16.9213 111.253 16.0866C109.238 15.2519 107.02 15.0335 104.881 15.459C102.742 15.8846 100.777 16.9349 99.2341 18.4773C97.6918 20.0197 96.6414 21.9848 96.2159 24.1241C95.7903 26.2634 96.0087 28.4809 96.8435 30.4961C97.6782 32.5113 99.0917 34.2336 100.905 35.4455C102.719 36.6573 104.851 37.3041 107.032 37.3041C108.003 37.3041 108.934 37.6897 109.62 38.3759C110.306 39.0621 110.692 39.9928 110.692 40.9633C110.692 41.9338 110.306 42.8646 109.62 43.5508C108.934 44.237 108.003 44.6225 107.032 44.6225C103.404 44.6225 99.8566 43.5465 96.8394 41.5305C93.8223 39.5145 91.4708 36.6491 90.0821 33.2967C88.6935 29.9442 88.3302 26.2553 89.0381 22.6964C89.746 19.1374 91.4934 15.8682 94.0592 13.3024C96.6251 10.7365 99.8942 8.98917 103.453 8.28125C107.012 7.57333 110.701 7.93666 114.054 9.32529C117.406 10.7139 120.271 13.0655 122.287 16.0826C124.303 19.0997 125.379 22.6469 125.379 26.2756V26.174ZM108.303 26.174C108.303 25.837 108.169 25.5138 107.931 25.2756C107.693 25.0373 107.369 24.9034 107.032 24.9034C106.695 24.9034 106.372 25.0373 106.134 25.2756C105.896 25.5138 105.762 25.837 105.762 26.174C105.762 26.5109 105.896 26.8342 106.134 27.0724C106.372 27.3107 106.695 27.4445 107.032 27.4445C107.367 27.438 107.687 27.3021 107.924 27.0652C108.161 26.8283 108.297 26.5089 108.303 26.174Z" fill="white"/>
<path d="M133.333 32.0432C135.874 34.0507 136.128 34.2032 137.017 34.2032C137.213 34.2037 137.407 34.1638 137.586 34.086C137.766 34.0082 137.928 33.8942 138.061 33.7511C138.195 33.608 138.297 33.4389 138.363 33.2544C138.428 33.0698 138.454 32.8737 138.44 32.6785C138.437 32.3819 138.358 32.0912 138.211 31.8334C138.064 31.5757 137.855 31.3594 137.602 31.2047C135.914 30.4304 134.173 29.7765 132.392 29.248C130.178 28.6766 128.22 27.375 126.837 25.5535C125.454 23.7321 124.725 21.4974 124.769 19.2106C124.769 12.3495 130.029 7.62305 137.729 7.62305C144.056 7.62305 148.986 11.0536 148.986 15.2464C149.025 15.8678 148.934 16.4905 148.721 17.0754C148.508 17.6603 148.176 18.1949 147.747 18.6458C147.317 19.0966 146.8 19.4539 146.226 19.6954C145.652 19.9369 145.034 20.0573 144.412 20.0491C142.641 19.9499 140.964 19.2197 139.685 17.9908C138.415 17.0506 137.83 16.7202 137.144 16.7202C136.776 16.7334 136.427 16.8891 136.171 17.1546C135.915 17.42 135.772 17.7745 135.772 18.1433C135.772 19.1597 136.56 19.6933 139.304 20.5319C141.984 21.3324 144.509 22.578 146.775 24.2166C147.914 25.2653 148.818 26.5436 149.427 27.9672C150.036 29.3907 150.336 30.9272 150.307 32.4752C150.349 35.6107 149.163 38.6382 147.004 40.9118C145.649 42.1748 144.045 43.1394 142.294 43.7435C140.543 44.3475 138.685 44.5775 136.839 44.4185C129.572 44.4185 123.829 40.4797 123.829 35.4737C123.811 34.7805 123.935 34.091 124.194 33.4475C124.453 32.8041 124.84 32.2204 125.333 31.7324C125.826 31.2444 126.413 30.8625 127.059 30.61C127.705 30.3576 128.396 30.24 129.089 30.2645C130.672 30.3229 132.181 30.9551 133.333 32.0432Z" fill="white"/>
<path d="M153.84 19.414C153.045 19.4868 152.243 19.3884 151.489 19.1254C150.735 18.8624 150.046 18.4409 149.469 17.8894C148.448 16.84 147.866 15.4401 147.843 13.9761C147.858 12.9817 148.146 12.0106 148.674 11.1683C149.203 10.326 149.952 9.64475 150.841 9.19874C152.01 8.66511 152.468 8.61426 157.118 8.61426H168.807C172.949 8.61426 173.127 8.61431 174.321 9.14795C175.245 9.57522 176.029 10.2554 176.582 11.1099C177.135 11.9644 177.435 12.9582 177.447 13.9761C177.438 14.7654 177.264 15.5441 176.936 16.262C176.608 16.9798 176.133 17.6208 175.541 18.1435C174.282 19.1136 172.701 19.568 171.119 19.414H168.578V36.897C168.714 38.4541 168.368 40.0154 167.587 41.3694C167.09 42.169 166.392 42.8245 165.563 43.2703C164.734 43.7162 163.802 43.9369 162.861 43.9105C161.914 43.9118 160.98 43.6809 160.143 43.2378C159.306 42.7948 158.59 42.1533 158.058 41.3694C157.184 40.0145 156.815 38.3951 157.016 36.7954V19.2108L153.84 19.414Z" fill="white"/>
<path d="M176.76 44.0124C176.001 44.0124 175.25 43.8622 174.55 43.5704C173.85 43.2786 173.215 42.8511 172.681 42.3124C172.147 41.7737 171.725 41.1346 171.439 40.432C171.154 39.7293 171.01 38.9771 171.017 38.2186C171.031 37.1518 171.283 36.1014 171.754 35.1438L182.706 11.7655C183.179 10.7434 183.936 9.87891 184.887 9.27514C185.837 8.67138 186.942 8.35387 188.068 8.36045C189.218 8.36289 190.343 8.69747 191.308 9.32407C192.273 9.95068 193.036 10.8426 193.506 11.8926L204.56 35.4234C204.985 36.3138 205.218 37.2833 205.246 38.2694C205.239 39.0303 205.083 39.7824 204.785 40.4828C204.488 41.1832 204.056 41.8182 203.513 42.3515C202.97 42.8847 202.328 43.3059 201.622 43.5908C200.917 43.8758 200.162 44.0191 199.401 44.0124C196.657 44.0124 195.132 42.7418 193.455 39.1589H182.706C181.232 42.5894 179.504 44.0124 176.76 44.0124ZM189.872 30.7731L188.017 26.5803L186.289 30.7731H189.872Z" fill="white"/>
<path d="M229.641 34.5843C230.339 35.708 230.725 36.9974 230.759 38.3198C230.763 39.0769 230.615 39.8271 230.324 40.526C230.032 41.2249 229.604 41.8583 229.064 42.3889C228.524 42.9195 227.883 43.3365 227.179 43.6153C226.475 43.894 225.723 44.0289 224.966 44.012C224.001 44.0319 223.049 43.7924 222.209 43.3186C221.368 42.8448 220.67 42.154 220.188 41.3184L215.386 33.263V38.0657C215.409 38.8269 215.28 39.585 215.004 40.2949C214.728 41.0048 214.313 41.6518 213.781 42.1973C213.25 42.7428 212.614 43.1757 211.912 43.47C211.209 43.7644 210.455 43.9141 209.693 43.9103C208.838 43.9122 207.993 43.724 207.22 43.3592C206.446 42.9944 205.764 42.4622 205.221 41.8011C204.159 40.3777 203.653 38.6159 203.798 36.846V15.1448C203.71 14.2086 203.835 13.2645 204.165 12.384C204.495 11.5035 205.022 10.7097 205.704 10.0625C206.429 9.46299 207.272 9.02215 208.178 8.76829C209.084 8.51444 210.033 8.45324 210.964 8.58869H215.818C220.9 8.58869 223.441 9.27478 225.982 11.4347C227.348 12.5567 228.464 13.9511 229.26 15.5289C230.056 17.1068 230.514 18.8334 230.605 20.5983C230.696 22.3632 230.417 24.1277 229.788 25.779C229.158 27.4302 228.191 28.932 226.948 30.1882L229.641 34.5843ZM216.605 23.0985C218.282 23.0985 219.146 22.4632 219.146 21.3197C219.146 20.1762 218.206 19.3122 216.478 19.3122H215.259V23.0985H216.605Z" fill="white"/>
</g>
<defs>
<radialGradient id="paint0_diamond_94_39950" cx="0" cy="0" r="1" gradientUnits="userSpaceOnUse" gradientTransform="translate(118.874 26.1577) rotate(-179.687) scale(119.428 576.144)">
<stop stop-color="#00D66F"/>
<stop offset="1" stop-color="#009FE3"/>
</radialGradient>
<clipPath id="clip0_94_39950">
<rect width="238.383" height="52.1438" fill="white"/>
</clipPath>
</defs>
</svg>
