<svg width="213" height="54" viewBox="0 0 213 54" fill="none" xmlns="http://www.w3.org/2000/svg">
<g clip-path="url(#clip0_94_39991)">
<path d="M206.162 7.34426C204.23 5.45336 201.964 3.93701 199.479 2.87193C196.843 1.75223 194.007 1.18155 191.144 1.19478H177.422C174.577 1.17256 171.757 1.73473 169.138 2.8465C167.12 3.69002 165.243 4.83842 163.573 6.25159C159.42 2.71168 154.262 0.562667 148.824 0.106847C143.386 -0.348973 137.942 0.911332 133.257 3.71047C132.479 3.09535 131.625 2.5829 130.716 2.18578C128.004 1.08872 125.06 0.686934 122.153 1.01688H110.463C107.659 0.763691 104.831 1.03954 102.129 1.83006C99.5954 0.745685 96.787 0.478675 94.095 1.06628C91.4029 1.65389 88.9613 3.06685 87.1105 5.10813C85.9362 3.72131 84.472 2.60886 82.8211 1.84929C81.1703 1.08973 79.373 0.701516 77.5558 0.711962C75.5249 0.706873 73.5159 1.13118 71.6605 1.95709C69.1106 1.14071 66.4277 0.821537 63.7575 1.01688H56.8711C55.1277 0.906037 53.3772 1.01705 51.6618 1.34724C50.0305 1.6738 48.4721 2.29372 47.0623 3.17685C44.1861 1.16414 40.6336 0.363733 37.1721 0.948563C33.7107 1.53339 30.6183 3.45654 28.5629 6.30246C27.2743 4.58099 25.6019 3.18382 23.6785 2.22215C21.7552 1.26048 19.634 0.760779 17.4837 0.762756C14.2892 0.745607 11.2017 1.91359 8.81845 4.04083C6.30953 6.19246 4.68861 9.19884 4.26982 12.4774L0.280272 34.9409V35.4237C0.280272 36.186 0.127811 36.9484 0.127811 37.7107C0.0557207 39.5213 0.35112 41.3278 0.996242 43.0212C1.64136 44.7145 2.62284 46.2596 3.88141 47.5633C5.13998 48.867 6.64957 49.9022 8.31915 50.6066C9.98873 51.3109 11.7837 51.6697 13.5958 51.6614C16.2575 51.6803 18.8623 50.8918 21.0666 49.3999C23.287 50.8911 25.901 51.6875 28.5757 51.6875C31.2503 51.6875 33.8644 50.8911 36.0847 49.3999C38.3758 50.9348 41.0776 51.7409 43.8351 51.7123C45.7605 51.6985 47.6596 51.2649 49.4002 50.4418V50.4418C51.654 51.2111 54.0369 51.5306 56.4137 51.382H65.4092C67.5685 51.4583 69.723 51.1308 71.762 50.4163C73.5062 51.2261 75.4042 51.6508 77.3271 51.6614C79.1793 51.6668 81.012 51.2828 82.7061 50.5342C84.4003 49.7856 85.9181 48.6892 87.1612 47.3162C88.3876 48.6897 89.8916 49.7873 91.5737 50.5364C93.2558 51.2854 95.0778 51.6689 96.9192 51.6614C98.696 51.6583 100.455 51.3043 102.094 50.6197C103.734 49.935 105.222 48.9333 106.474 47.6719C107.731 48.9394 109.228 49.9446 110.877 50.6294C112.526 51.3143 114.294 51.665 116.079 51.6614C118.339 51.6836 120.565 51.1135 122.535 50.0078C124.506 48.9021 126.152 47.2995 127.311 45.3595C127.525 45.0233 127.72 44.6755 127.895 44.3176C130.305 46.8215 133.199 48.8089 136.401 50.1588C139.604 51.5087 143.047 52.1928 146.522 52.1697C153.362 52.1754 159.935 49.5135 164.843 44.7496C165.412 47.1466 166.762 49.2863 168.681 50.832C170.599 52.3777 172.977 53.2417 175.44 53.2878H176.202C179.053 53.0426 181.717 51.7691 183.699 49.7048L189.645 43.7586H191.297C194.154 43.7734 196.984 43.1936 199.606 42.056C202.124 40.9895 204.411 39.4448 206.34 37.5075C208.28 35.5746 209.832 33.2889 210.914 30.7734C212.59 26.8647 213.045 22.5405 212.22 18.3685C211.395 14.1964 209.327 10.3713 206.289 7.39513L206.162 7.34426Z" fill="url(#paint0_diamond_94_39991)"/>
<path d="M34.2809 11.4606C34.7571 10.5233 35.4846 9.73689 36.3822 9.1894C37.2797 8.6419 38.3118 8.3549 39.3632 8.36048C40.8422 8.37342 42.2639 8.93482 43.3527 9.93596C44.381 10.967 45.0188 12.3234 45.1569 13.773L49.1465 36.4144C49.2871 37.0742 49.3553 37.7474 49.3498 38.4219C49.3364 39.9137 48.7326 41.3394 47.6706 42.3871C46.6086 43.4348 45.1749 44.0192 43.6831 44.0124C42.3508 44.0872 41.0362 43.6784 39.9811 42.8614C38.926 42.0444 38.2012 40.8741 37.9401 39.5655L36.6188 32.984L34.3571 39.2097C34.0291 40.5511 33.2696 41.7477 32.1953 42.6155C31.121 43.4832 29.7914 43.974 28.4109 44.0124C27.0366 44.0005 25.7065 43.5247 24.6365 42.6622C23.5664 41.7997 22.819 40.601 22.5155 39.2605L20.1777 32.984L19.2375 38.5744C19.2196 39.3682 19.0402 40.1499 18.7102 40.8721C18.3802 41.5942 17.9065 42.2416 17.318 42.7746C16.7296 43.3076 16.0387 43.7152 15.2875 43.9723C14.5364 44.2295 13.7407 44.3309 12.949 44.2704C12.1574 44.2099 11.3863 43.9888 10.683 43.6204C9.9796 43.2521 9.35867 42.7443 8.85804 42.1281C8.35742 41.5118 7.9876 40.8001 7.77116 40.0362C7.55471 39.2723 7.4962 38.4722 7.59915 37.685C7.57393 37.211 7.57393 36.736 7.59915 36.262L11.6141 13.773C11.6639 13.0073 11.8673 12.2595 12.2122 11.5741C12.5571 10.8887 13.0364 10.2798 13.6216 9.7835C14.6253 8.85976 15.9421 8.35121 17.3062 8.36048C18.5452 8.37571 19.753 8.75145 20.7819 9.4419C21.8108 10.1323 22.6163 11.1076 23.1 12.2484L28.3093 23.8867L34.2809 11.4606Z" fill="white"/>
<path d="M65.3337 32.8822C67.0626 32.6626 68.8081 33.1378 70.1872 34.2035C70.7792 34.7134 71.2538 35.3453 71.5784 36.0559C71.903 36.7665 72.0698 37.5389 72.0676 38.3201C72.0812 39.1179 71.92 39.909 71.5951 40.6378C71.2702 41.3665 70.7897 42.0153 70.1872 42.5384C69.5059 43.0462 68.7304 43.4132 67.9059 43.6183C67.0813 43.8233 66.2243 43.8623 65.3845 43.7328H56.3889C54.9161 43.8643 53.4318 43.709 52.0182 43.2754C51.1288 42.9391 50.3461 42.3703 49.7516 41.6283C49.1571 40.8863 48.7726 39.9984 48.6385 39.0571C48.4584 37.9059 48.4073 36.7383 48.486 35.5758V16.4666C48.486 12.7311 48.6893 11.8417 50.0107 10.4695C50.853 9.54038 51.9956 8.93756 53.238 8.76688C54.4214 8.56809 55.6248 8.51688 56.8209 8.61441H63.7074C68.1289 8.61441 68.6625 8.61442 70.0348 9.73252C70.6974 10.2104 71.2352 10.841 71.6023 11.5709C71.9695 12.3008 72.1552 13.1085 72.1438 13.9254C72.1578 14.7257 71.9942 15.5191 71.6647 16.2486C71.3351 16.978 70.8478 17.6252 70.238 18.1436C68.9828 19.1209 67.399 19.576 65.8165 19.4142H60.0735V21.9553H64.5968C65.1881 21.8879 65.787 21.9449 66.355 22.1227C66.923 22.3004 67.4476 22.5949 67.8951 22.9873C68.3426 23.3798 68.703 23.8614 68.9533 24.4014C69.2037 24.9413 69.3383 25.5277 69.3487 26.1228C69.3587 26.7613 69.2218 27.3935 68.9486 27.9707C68.6754 28.5479 68.2733 29.0546 67.7732 29.4517C66.7393 30.1593 65.4867 30.4747 64.241 30.3411H60.0735V32.8822H65.3337Z" fill="white"/>
<path d="M91.0993 15.4751C90.9291 13.8737 91.3052 12.2618 92.1665 10.9012C92.6831 10.12 93.3851 9.47908 94.21 9.03563C95.0348 8.59219 95.9566 8.36007 96.8931 8.36003C97.74 8.3638 98.5756 8.55483 99.34 8.91946C100.104 9.2841 100.779 9.81329 101.315 10.4691C102.355 11.7742 102.847 13.4327 102.687 15.094V36.5664C102.945 38.4254 102.491 40.3133 101.416 41.852C100.875 42.5305 100.186 43.0774 99.4027 43.4515C98.6193 43.8257 97.7612 44.0173 96.8931 44.012C95.9948 44.0106 95.1101 43.7927 94.3139 43.3769C93.5177 42.9611 92.8334 42.3596 92.319 41.6233L83.0439 29.8833V37.2526C83.228 38.9158 82.7537 40.5849 81.7226 41.9028C81.1771 42.5784 80.4842 43.1203 79.6971 43.487C78.9099 43.8536 78.0493 44.0353 77.1811 44.0181C76.313 44.0009 75.4603 43.7854 74.6883 43.3879C73.9162 42.9905 73.2453 42.4216 72.727 41.7249C71.6869 40.3054 71.232 38.5406 71.4564 36.7952V14.5604C71.3905 13.7401 71.5002 12.9151 71.778 12.1405C72.0558 11.3659 72.4954 10.6594 73.0676 10.068C73.6398 9.47653 74.3315 9.01381 75.0965 8.71055C75.8615 8.40728 76.6823 8.27042 77.5043 8.30915C78.3497 8.32117 79.1797 8.53777 79.9231 8.94048C80.6666 9.34319 81.3014 9.92002 81.7734 10.6216L91.0993 21.9296V15.4751Z" fill="white"/>
<path d="M107.134 19.414C106.339 19.4851 105.538 19.3859 104.784 19.123C104.03 18.8601 103.341 18.4396 102.763 17.8894C101.742 16.84 101.16 15.4401 101.137 13.9761C101.152 12.9817 101.44 12.0106 101.968 11.1683C102.497 10.326 103.246 9.64475 104.135 9.19874C105.304 8.66511 105.762 8.61426 110.412 8.61426H122.101C126.243 8.61426 126.421 8.61431 127.615 9.14795C128.539 9.57522 129.323 10.2554 129.876 11.1099C130.429 11.9644 130.729 12.9582 130.741 13.9761C130.732 14.7654 130.558 15.5441 130.23 16.262C129.902 16.9798 129.427 17.6208 128.835 18.1435C127.576 19.1136 125.995 19.568 124.413 19.414H121.872V36.897C122.008 38.4541 121.662 40.0154 120.881 41.3694C120.384 42.169 119.686 42.8245 118.857 43.2703C118.028 43.7162 117.096 43.9369 116.155 43.9105C115.207 43.9118 114.274 43.6809 113.437 43.2378C112.6 42.7948 111.884 42.1533 111.352 41.3694C110.478 40.0145 110.109 38.3951 110.31 36.7954V19.2108L107.134 19.414Z" fill="white"/>
<path d="M165.149 26.0462C165.169 29.7132 164.1 33.3037 162.078 36.3629C160.056 39.4221 157.171 41.8123 153.79 43.2307C150.408 44.6492 146.682 45.032 143.082 44.3308C139.483 43.6295 136.172 41.8759 133.57 39.2918C130.969 36.7077 129.192 33.4094 128.466 29.8149C127.74 26.2204 128.097 22.4913 129.493 19.1C130.888 15.7087 133.258 12.8077 136.303 10.7646C139.349 8.72144 142.932 7.62813 146.599 7.62305C151.497 7.62293 156.196 9.5599 159.671 13.0113C163.146 16.4627 165.115 21.1484 165.149 26.0462V26.0462ZM139.738 26.0462C139.697 27.4283 140.071 28.7911 140.81 29.9595C141.55 31.1278 142.621 32.0486 143.888 32.6035C145.155 33.1584 146.558 33.3221 147.918 33.0737C149.279 32.8253 150.534 32.1761 151.522 31.2093C152.511 30.2426 153.188 29.0024 153.467 27.648C153.746 26.2937 153.613 24.8869 153.087 23.6083C152.56 22.3297 151.664 21.2375 150.512 20.4721C149.361 19.7066 148.007 19.3027 146.624 19.3122C144.837 19.3044 143.116 19.992 141.826 21.2297C140.536 22.4674 139.778 24.1581 139.712 25.9445L139.738 26.0462Z" fill="white"/>
<path d="M204.841 22.4127C204.85 24.2291 204.487 26.0281 203.773 27.6982C202.376 30.9949 199.751 33.6192 196.455 35.0167C194.785 35.7306 192.986 36.0938 191.169 36.0839H186.468L178.286 44.2663C177.993 44.661 177.619 44.9883 177.189 45.2258C176.758 45.4633 176.282 45.6055 175.792 45.6429C175.302 45.6803 174.809 45.612 174.348 45.4426C173.887 45.2732 173.467 45.0066 173.118 44.6609C172.769 44.3152 172.498 43.8985 172.323 43.439C172.149 42.9794 172.075 42.4878 172.108 41.9974C172.14 41.507 172.277 41.0293 172.51 40.5965C172.743 40.1637 173.066 39.7861 173.458 39.4891L176.888 36.0586C173.438 35.9597 170.16 34.5301 167.74 32.069C166.499 30.7998 165.508 29.3085 164.818 27.6728C164.097 25.9692 163.733 24.1355 163.751 22.2856C163.736 20.4771 164.1 18.6854 164.818 17.0255C165.515 15.424 166.506 13.9674 167.74 12.7311C170.324 10.1993 173.804 8.79245 177.422 8.81772H191.144C192.969 8.8058 194.776 9.16903 196.455 9.88495C198.082 10.5656 199.565 11.5487 200.826 12.7819C202.105 14.0368 203.12 15.5358 203.81 17.1901C204.499 18.8445 204.85 20.6204 204.841 22.4127V22.4127Z" fill="white"/>
</g>
<defs>
<radialGradient id="paint0_diamond_94_39991" cx="0" cy="0" r="1" gradientUnits="userSpaceOnUse" gradientTransform="translate(106.369 26.6517) rotate(-179.643) scale(106.452 587.093)">
<stop stop-color="#FC60FF"/>
<stop offset="1" stop-color="#A839FF"/>
</radialGradient>
<clipPath id="clip0_94_39991">
<rect width="212.463" height="53.2619" fill="white"/>
</clipPath>
</defs>
</svg>
