<svg width="278" height="53" viewBox="0 0 278 53" fill="none" xmlns="http://www.w3.org/2000/svg">
<g clip-path="url(#clip0_94_40005)">
<path d="M275.652 30.597V30.4441C277.186 27.6226 277.97 24.4649 277.931 21.2649C277.906 18.2351 277.196 15.2489 275.851 12.5233C274.507 9.79757 272.563 7.40088 270.159 5.50732C265.83 2.18727 260.398 0.577788 254.926 0.994233H250.004C246.236 0.777208 242.527 1.99098 239.641 4.38543C235.443 1.63266 230.539 0.104875 225.497 -0.0214563C220.454 -0.147788 215.478 1.13249 211.143 3.67149C210.344 3.06974 209.474 2.56467 208.552 2.16713C205.771 1.05783 202.751 0.654508 199.77 0.994233H187.853C184.657 0.646811 181.424 1.05774 178.422 2.19262C177.853 2.42199 177.306 2.70371 176.79 3.03405C173.011 1.02441 168.78 -0.018913 164.484 -0.000176338C159.449 0.000798275 154.518 1.40652 150.262 4.05396C150.08 3.90097 149.899 3.72249 149.717 3.595C146.116 1.04523 143.318 1.04523 138.681 1.04523H131.634C129.9 0.941511 128.159 1.05287 126.453 1.3767C123.629 1.86734 121.05 3.26632 119.121 5.35434C118.702 5.78769 118.313 6.24764 117.955 6.73121L117.385 5.91529C116.109 4.31242 114.476 3.01917 112.612 2.13507C110.748 1.25098 108.703 0.79962 106.634 0.815749C104.406 0.795273 102.209 1.32627 100.244 2.35993C98.2798 3.39359 96.6106 4.89674 95.3904 6.73121C95.2091 6.47624 95.0536 6.19576 94.8464 5.94078C93.5701 4.33792 91.9371 3.04466 90.0732 2.16057C88.2092 1.27647 86.164 0.825118 84.0949 0.841247C80.669 0.821583 77.3666 2.09974 74.872 4.41092C70.1543 1.36428 64.5773 -0.133626 58.9411 0.132052C53.3049 0.397729 47.899 2.41334 43.4986 5.88979C38.3841 1.76638 31.8941 -0.337324 25.2909 -0.0121472C18.6878 0.31303 12.4436 3.04384 7.77281 7.64913C4.01895 11.2962 1.45622 15.9627 0.412597 21.0515C-0.631024 26.1403 -0.108057 31.4198 1.91457 36.2144C3.93719 41.0089 7.36746 45.1005 11.7664 47.9652C16.1652 50.83 21.3327 52.3378 26.6072 52.2956C32.6604 52.2728 38.529 50.2427 43.2655 46.5331C47.9742 50.2918 53.861 52.3282 59.9237 52.2956C65.1826 52.3028 70.3274 50.7864 74.7166 47.9355C77.4155 50.3679 80.9824 51.6511 84.639 51.5051H95.8567C97.7916 51.547 99.7169 51.2269 101.53 50.5617C103.341 51.2051 105.253 51.5246 107.178 51.5051H118.396C120.311 51.5428 122.217 51.2315 124.018 50.5872C126.302 51.3396 128.712 51.6512 131.116 51.5051H140.287C143.871 51.8215 147.441 50.7719 150.262 48.5729C150.315 48.5072 150.376 48.4473 150.443 48.3944C154.652 50.9628 159.506 52.3228 164.459 52.3211C170.906 52.3167 177.138 50.0369 182.024 45.8957V45.8957L182.231 46.2016C183.497 47.9842 185.184 49.4375 187.147 50.4368C189.11 51.4361 191.29 51.9514 193.5 51.9386C195.808 51.9653 198.083 51.3954 200.097 50.2857C202.111 49.1761 203.794 47.5655 204.977 45.6152C205.184 45.2582 205.392 44.9267 205.573 44.5698C208.028 47.0846 210.978 49.0803 214.243 50.4349C217.508 51.7896 221.02 52.4748 224.563 52.4486C229.743 52.4626 234.814 50.9822 239.149 48.1904C241.738 50.5703 245.166 51.8683 248.708 51.8111C251.488 51.8222 254.204 50.9849 256.48 49.4143C258.754 50.991 261.471 51.829 264.253 51.8111C266.048 51.8384 267.83 51.5121 269.496 50.8516C271.161 50.1911 272.675 49.2096 273.95 47.9649C275.224 46.7201 276.233 45.2372 276.917 43.6033C277.6 41.9693 277.945 40.2174 277.931 38.4503C277.909 35.6776 277.121 32.9631 275.652 30.597V30.597Z" fill="url(#paint0_diamond_94_40005)"/>
<path d="M38.8604 11.9331C40.0644 12.7193 41.0767 13.758 41.8247 14.9747C42.5727 16.1914 43.0379 17.5559 43.1869 18.9704C43.1911 19.9691 42.9315 20.9518 42.4335 21.822C41.9356 22.6922 41.2164 23.42 40.3465 23.9343C39.4766 24.4485 38.4859 24.7313 37.4714 24.7551C36.4569 24.7789 35.4536 24.5428 34.5598 24.07C33.964 23.764 33.964 23.764 31.8137 21.5202C31.1497 20.8254 30.3463 20.2739 29.4543 19.9008C28.5624 19.5277 27.6014 19.3412 26.6323 19.3529C24.8473 19.4598 23.1711 20.2329 21.9456 21.5147C20.7201 22.7964 20.0377 24.49 20.0377 26.25C20.0377 28.01 20.7201 29.7037 21.9456 30.9854C23.1711 32.2671 24.8473 33.0403 26.6323 33.1471C28.2606 33.0832 29.824 32.5017 31.0883 31.4898C31.8171 30.9014 32.4853 30.2438 33.0831 29.5265C34.1518 28.4844 35.5943 27.8982 37.0987 27.8946C38.6501 27.8874 40.1426 28.4786 41.2564 29.5414C42.3702 30.6043 43.0167 32.0543 43.0573 33.5806C42.9258 34.8735 42.513 36.1235 41.8469 37.2454C41.1808 38.3673 40.2771 39.3349 39.1972 40.0825C35.7406 43.0426 31.3177 44.6806 26.7359 44.6976C23.7121 44.6894 20.7348 43.9649 18.0556 42.5851C15.3764 41.2054 13.0741 39.2111 11.3434 36.7707C9.61267 34.3304 8.50437 31.5158 8.1122 28.565C7.72003 25.6141 8.05552 22.6136 9.0903 19.8173C10.1251 17.021 11.8287 14.511 14.0572 12.4994C16.2857 10.4879 18.9736 9.03407 21.8935 8.26076C24.8134 7.48746 27.8796 7.41744 30.8328 8.05663C33.7861 8.69583 36.5395 10.0254 38.8604 11.9331V11.9331Z" fill="white"/>
<path d="M79.0424 26.1348C79.1087 28.6308 78.6634 31.1145 77.7331 33.4375C76.8027 35.7605 75.4063 37.8752 73.6273 39.6553C71.8482 41.4355 69.723 42.8446 67.3784 43.7986C65.0339 44.7526 62.5181 45.232 59.9811 45.208C57.4442 45.184 54.9382 44.6572 52.6127 43.659C50.2872 42.6608 48.1899 41.2118 46.4459 39.3983C44.702 37.5848 43.3471 35.4441 42.4623 33.1039C41.5774 30.7638 41.1807 28.2722 41.2958 25.7778C41.5177 20.968 43.6272 16.4307 47.1802 13.1211C50.7331 9.81147 55.4523 7.9878 60.3441 8.03406C65.2358 8.08032 69.9185 9.9929 73.4062 13.3691C76.8939 16.7453 78.9144 21.3217 79.0424 26.1348V26.1348ZM53.1353 26.1348C53.0941 27.5216 53.4748 28.889 54.2288 30.0613C54.9827 31.2337 56.0754 32.1576 57.3667 32.7143C58.6579 33.2711 60.0887 33.4354 61.4755 33.1862C62.8623 32.9369 64.1418 32.2855 65.1497 31.3154C66.1577 30.3454 66.848 29.101 67.1323 27.7421C67.4165 26.3831 67.2817 24.9716 66.745 23.6886C66.2083 22.4056 65.2943 21.3097 64.1203 20.5417C62.9463 19.7736 61.5658 19.3683 60.1561 19.3779C58.3337 19.37 56.5795 20.06 55.2645 21.3019C53.9495 22.5438 53.1767 24.2403 53.1094 26.0328L53.1353 26.1348Z" fill="white"/>
<path d="M99.9239 34.0651C100.621 34.5608 101.189 35.2121 101.58 35.9656C101.972 36.7191 102.177 37.5532 102.178 38.3997C102.141 39.971 101.492 41.4683 100.364 42.5813C99.7536 43.0731 99.05 43.4412 98.2942 43.6644C97.5383 43.8876 96.7451 43.9614 95.9601 43.8817H84.7424C83.8135 43.9794 82.8743 43.8646 81.9979 43.5461C81.1216 43.2277 80.3319 42.7142 79.6905 42.0458C78.2397 40.465 78.0843 39.6745 78.0843 34.7535V14.8908C77.9892 14.0724 78.0712 13.2434 78.3249 12.4584C78.5785 11.6734 78.9981 10.95 79.5559 10.3359C80.1138 9.72186 80.7974 9.2309 81.5618 8.89532C82.3262 8.55975 83.1541 8.38716 83.9911 8.38889C84.8639 8.38145 85.7271 8.56788 86.5166 8.9343C87.306 9.30071 88.0013 9.83767 88.5507 10.5052C89.6129 11.8821 89.8979 13.055 89.8979 16.3187V32.9432H95.8565C97.3018 32.8573 98.7345 33.2524 99.9239 34.0651V34.0651Z" fill="white"/>
<path d="M122.463 34.0651C123.16 34.5608 123.728 35.2121 124.12 35.9656C124.511 36.7191 124.716 37.5532 124.717 38.3997C124.68 39.971 124.031 41.4683 122.903 42.5813C122.293 43.0731 121.589 43.4412 120.833 43.6644C120.077 43.8876 119.284 43.9614 118.499 43.8817H107.281C106.353 43.9794 105.413 43.8646 104.537 43.5461C103.661 43.2277 102.871 42.7142 102.23 42.0458C100.779 40.465 100.623 39.6745 100.623 34.7535V14.8908C100.528 14.0724 100.61 13.2434 100.864 12.4584C101.118 11.6734 101.537 10.95 102.095 10.3359C102.653 9.72186 103.336 9.2309 104.101 8.89532C104.865 8.55975 105.693 8.38716 106.53 8.38889C107.403 8.38145 108.266 8.56788 109.056 8.9343C109.845 9.30071 110.54 9.83767 111.09 10.5052C112.152 11.8821 112.437 13.055 112.437 16.3187V32.9432H118.292C119.772 32.8337 121.245 33.23 122.463 34.0651V34.0651Z" fill="white"/>
<path d="M140.339 33.1472C142.098 32.9253 143.875 33.3923 145.287 34.4476C145.889 34.9716 146.371 35.6153 146.7 36.3362C147.03 37.057 147.201 37.8386 147.201 38.6292C147.201 39.4198 147.03 40.2014 146.7 40.9223C146.371 41.6432 145.889 42.2869 145.287 42.8109C144.593 43.3203 143.802 43.6887 142.962 43.8944C142.121 44.1002 141.247 44.1392 140.391 44.0092H131.22C129.705 44.0756 128.191 43.8504 126.764 43.3463C125.856 43.0113 125.056 42.4412 124.45 41.6963C123.843 40.9513 123.452 40.0591 123.318 39.1137C123.14 37.9837 123.088 36.8381 123.163 35.697V16.5227C123.163 12.7746 123.37 11.8822 124.717 10.5053C125.577 9.58831 126.728 8.98597 127.981 8.79694C129.188 8.6003 130.415 8.54893 131.634 8.64396H138.681C143.189 8.64396 143.733 8.64396 145.106 9.76585C145.785 10.2478 146.336 10.8847 146.71 11.6218C147.085 12.359 147.272 13.1745 147.256 13.9985C147.266 14.7947 147.1 15.5835 146.769 16.31C146.438 17.0366 145.95 17.6834 145.339 18.2056C144.063 19.1934 142.445 19.651 140.831 19.4805H134.976V22.0302H139.588C140.189 21.9624 140.799 22.0196 141.377 22.1982C141.954 22.3767 142.487 22.6726 142.942 23.0668C143.396 23.4609 143.761 23.9445 144.013 24.4863C144.266 25.0281 144.4 25.6159 144.407 26.2119C144.423 26.8534 144.286 27.4898 144.007 28.0699C143.728 28.65 143.315 29.1576 142.8 29.5521C141.753 30.2772 140.47 30.5951 139.199 30.4445H134.976V32.9942L140.339 33.1472Z" fill="white"/>
<path d="M176.452 11.9331C177.662 12.7153 178.681 13.7525 179.433 14.9696C180.186 16.1867 180.654 17.5533 180.805 18.9704C180.809 19.9691 180.549 20.9518 180.051 21.822C179.553 22.6922 178.834 23.4201 177.964 23.9343C177.094 24.4485 176.104 24.7313 175.089 24.7551C174.075 24.7789 173.071 24.5428 172.178 24.07C171.582 23.764 171.582 23.764 169.431 21.5202C168.767 20.8254 167.964 20.2739 167.072 19.9008C166.18 19.5278 165.219 19.3412 164.25 19.3529C162.465 19.4598 160.789 20.2329 159.563 21.5147C158.338 22.7964 157.656 24.49 157.656 26.25C157.656 28.01 158.338 29.7037 159.563 30.9854C160.789 32.2671 162.465 33.0403 164.25 33.1471C165.887 33.116 167.47 32.5611 168.758 31.5663C169.487 30.9779 170.155 30.3203 170.753 29.603C171.821 28.5609 173.264 27.9747 174.768 27.9711C176.32 27.9639 177.812 28.5551 178.926 29.6179C180.04 30.6808 180.686 32.1307 180.727 33.6571C180.59 34.9487 180.176 36.1968 179.51 37.3181C178.844 38.4393 177.943 39.4078 176.867 40.159C173.408 43.1151 168.986 44.7526 164.405 44.7741C159.403 44.7639 154.61 42.7985 151.081 39.3103C147.551 35.822 145.574 31.0966 145.584 26.1735C145.594 21.2505 147.591 16.5331 151.136 13.0592C154.68 9.58525 159.481 7.63931 164.483 7.64945C168.86 7.64891 173.098 9.16548 176.452 11.9331V11.9331Z" fill="white"/>
<path d="M184.511 19.4801C183.692 19.5398 182.87 19.4249 182.101 19.1433C181.332 18.8616 180.634 18.4199 180.055 17.8482C179.015 16.8045 178.422 15.4083 178.396 13.9471C178.419 12.9735 178.704 12.0233 179.223 11.1943C179.742 10.3652 180.476 9.68722 181.35 9.23C182.542 8.69455 183.008 8.64355 187.749 8.64355H199.666C203.889 8.64355 204.044 8.64355 205.288 9.17901C206.25 9.59582 207.07 10.2769 207.649 11.1407C208.228 12.0045 208.542 13.0143 208.552 14.0491C208.54 14.8343 208.364 15.6087 208.034 16.3238C207.704 17.0389 207.228 17.6794 206.635 18.2052C205.352 19.1787 203.74 19.6345 202.127 19.4801H199.485V37.0225C199.623 38.5849 199.271 40.1515 198.474 41.5101C197.962 42.3127 197.245 42.97 196.396 43.4171C195.546 43.8642 194.593 44.0857 193.63 44.0598C192.668 44.0592 191.721 43.8264 190.872 43.3819C190.023 42.9374 189.297 42.2947 188.759 41.5101C187.859 40.1538 187.474 38.5287 187.671 36.9205V19.4801H184.511Z" fill="white"/>
<path d="M243.526 26.1354C243.542 29.8131 242.447 33.4125 240.38 36.4767C238.314 39.541 235.369 41.932 231.919 43.3464C228.47 44.7608 224.671 45.1349 221.006 44.4211C217.34 43.7073 213.972 41.9378 211.33 39.3373C208.687 36.7367 206.89 33.4222 206.164 29.8143C205.439 26.2065 205.819 22.4679 207.256 19.073C208.693 15.6781 211.123 12.7798 214.236 10.746C217.35 8.71217 221.007 7.63445 224.744 7.64957C229.715 7.68297 234.472 9.6413 237.987 13.1008C241.502 16.5604 243.492 21.243 243.526 26.1354ZM217.619 26.1354C217.578 27.5223 217.959 28.8896 218.713 30.062C219.466 31.2343 220.559 32.1582 221.85 32.715C223.142 33.2718 224.573 33.4361 225.959 33.1868C227.346 32.9376 228.626 32.2861 229.634 31.3161C230.641 30.346 231.332 29.1017 231.616 27.7427C231.9 26.3838 231.765 24.9722 231.229 23.6892C230.692 22.4062 229.778 21.3104 228.604 20.5423C227.43 19.7742 226.05 19.3689 224.64 19.3785C222.822 19.3773 221.074 20.0702 219.765 21.3114C218.455 22.5526 217.686 24.2453 217.619 26.0334V26.1354Z" fill="white"/>
<path d="M269.044 34.7026C269.756 35.8302 270.149 37.1239 270.184 38.4508C270.188 39.2127 270.036 39.9675 269.738 40.6705C269.439 41.3735 269 42.0103 268.447 42.5431C267.894 43.0758 267.237 43.4937 266.516 43.7718C265.796 44.05 265.025 44.1828 264.252 44.1623C263.265 44.1814 262.291 43.9411 261.43 43.4659C260.569 42.9908 259.853 42.2982 259.355 41.4595L254.485 33.4787V38.2468C254.515 39.4454 254.164 40.6233 253.479 41.6151C252.795 42.6068 251.812 43.3626 250.668 43.7762C249.525 44.1897 248.278 44.2403 247.104 43.9208C245.93 43.6014 244.887 42.9279 244.122 41.995C243.028 40.5721 242.511 38.8 242.671 37.0229V15.2989C242.583 14.3619 242.71 13.4175 243.042 12.535C243.373 11.6525 243.902 10.8544 244.588 10.1993C245.334 9.59985 246.198 9.15893 247.125 8.90439C248.053 8.64986 249.024 8.58724 249.977 8.72048H254.899C260.081 8.72048 262.671 9.40892 265.262 11.5762C266.673 12.6899 267.829 14.0853 268.652 15.6705C269.475 17.2557 269.948 18.9947 270.038 20.7728C270.129 22.5509 269.836 24.3277 269.178 25.986C268.519 27.6443 267.512 29.1465 266.221 30.3935L269.044 34.7026ZM255.78 23.2287C257.516 23.2287 258.371 22.5912 258.371 21.4438C258.371 20.2964 257.412 19.4295 255.625 19.4295H254.407V23.2287H255.78Z" fill="white"/>
</g>
<defs>
<radialGradient id="paint0_diamond_94_40005" cx="0" cy="0" r="1" gradientUnits="userSpaceOnUse" gradientTransform="translate(138.911 26.2022) rotate(-179.731) scale(139.283 578.524)">
<stop stop-color="#0029FF"/>
<stop offset="0.0001" stop-color="#7084F3"/>
<stop offset="1" stop-color="#EA4458"/>
</radialGradient>
<clipPath id="clip0_94_40005">
<rect width="277.957" height="52.3212" fill="white"/>
</clipPath>
</defs>
</svg>
