<svg width="40" height="39" viewBox="0 0 40 39" fill="none" xmlns="http://www.w3.org/2000/svg">
<path d="M30.9599 38.1497C30.6374 38.1489 30.3199 38.0693 30.0349 37.9177L19.8957 32.5577L9.75648 37.9177C9.42818 38.0906 9.05836 38.1679 8.68871 38.1408C8.31907 38.1137 7.9643 37.9834 7.66441 37.7644C7.36452 37.5454 7.13144 37.2466 6.99144 36.9016C6.85144 36.5566 6.8101 36.1791 6.87207 35.8117L8.80761 24.4597L0.603949 16.4197C0.338564 16.1592 0.150906 15.8293 0.0621668 15.4672C-0.0265724 15.1051 -0.0128588 14.7253 0.101759 14.3706C0.216377 14.016 0.427334 13.7006 0.710809 13.4601C0.994285 13.2196 1.33899 13.0636 1.70599 13.0097L13.0427 11.3537L18.1133 1.0257C18.296 0.71338 18.5566 0.454449 18.8694 0.274543C19.1822 0.094638 19.5363 0 19.8967 0C20.257 0 20.6111 0.094638 20.9239 0.274543C21.2367 0.454449 21.4974 0.71338 21.68 1.0257L26.7486 11.3537L38.0853 13.0097C38.4524 13.0636 38.7971 13.2196 39.0805 13.4601C39.364 13.7006 39.575 14.016 39.6896 14.3706C39.8042 14.7253 39.8179 15.1051 39.7292 15.4672C39.6404 15.8293 39.4528 16.1592 39.1874 16.4197L30.9837 24.4597L32.9213 35.8117C32.9702 36.0987 32.9562 36.3929 32.8803 36.6739C32.8044 36.9548 32.6684 37.2158 32.4819 37.4384C32.2953 37.6611 32.0626 37.8401 31.8 37.9629C31.5375 38.0858 31.2514 38.1495 30.9619 38.1497H30.9599Z" fill="white"/>
</svg>
