<svg width="34" height="34" viewBox="0 0 34 34" fill="none" xmlns="http://www.w3.org/2000/svg">
<path d="M30.4441 14.4358L29.0274 13.6566L16.2774 6.57328H16.1216C16.0347 6.53656 15.9446 6.5081 15.8524 6.48828H15.5832H15.3282C15.2315 6.50811 15.1366 6.53656 15.0449 6.57328H14.8891L2.13908 13.6566C1.92105 13.7802 1.73971 13.9594 1.61354 14.1759C1.48737 14.3924 1.4209 14.6385 1.4209 14.8891C1.4209 15.1397 1.48737 15.3858 1.61354 15.6024C1.73971 15.8189 1.92105 15.9981 2.13908 16.1216L5.66658 18.0766V24.7916C5.66658 25.9188 6.11434 26.9998 6.91137 27.7968C7.7084 28.5938 8.78941 29.0416 9.91658 29.0416H21.2499C22.3771 29.0416 23.4581 28.5938 24.2551 27.7968C25.0521 26.9998 25.4999 25.9188 25.4999 24.7916V18.0766L28.3332 16.4899V20.5416C28.3332 20.9173 28.4825 21.2777 28.7482 21.5434C29.0139 21.809 29.3742 21.9583 29.7499 21.9583C30.1256 21.9583 30.486 21.809 30.7516 21.5434C31.0173 21.2777 31.1666 20.9173 31.1666 20.5416V15.6683C31.1661 15.4173 31.099 15.1708 30.9721 14.9543C30.8451 14.7377 30.6629 14.5588 30.4441 14.4358ZM22.6666 24.7916C22.6666 25.1673 22.5173 25.5277 22.2516 25.7934C21.986 26.059 21.6256 26.2083 21.2499 26.2083H9.91658C9.54085 26.2083 9.18052 26.059 8.91484 25.7934C8.64916 25.5277 8.49991 25.1673 8.49991 24.7916V19.6491L14.8891 23.1908L15.1016 23.2758H15.2291C15.3467 23.2906 15.4657 23.2906 15.5832 23.2758C15.7008 23.2906 15.8198 23.2906 15.9374 23.2758H16.0649C16.1401 23.2599 16.212 23.2312 16.2774 23.1908L22.6666 19.6491V24.7916ZM15.5832 20.3433L5.75158 14.8749L15.5832 9.40661L25.4149 14.8749L15.5832 20.3433Z" fill="black"/>
</svg>
