<svg width="26" height="32" viewBox="0 0 26 32" fill="none" xmlns="http://www.w3.org/2000/svg">
<path d="M7.99605 10.4778L7.99286 10.4804L7.98983 10.4833L7.99605 10.4778ZM22.0977 10.2135C21.9991 10.1185 21.8898 10.0354 21.7719 9.96587C21.605 9.86765 21.4197 9.8047 21.2275 9.78092C21.0353 9.75714 20.8403 9.77303 20.6544 9.82762C20.4686 9.88221 20.296 9.97434 20.1472 10.0983C19.9984 10.2223 19.8766 10.3754 19.7894 10.5483C19.3014 11.5098 18.6283 12.3655 17.8089 13.0662C17.9342 12.3602 17.9974 11.6445 17.9977 10.9274C18.0004 8.74586 17.4249 6.60259 16.3298 4.71581C15.2348 2.82903 13.6593 1.26612 11.7638 0.186214C11.555 0.0678475 11.3196 0.00446936 11.0796 0.00202652C10.8396 -0.000416314 10.6029 0.0581562 10.3917 0.172248C10.1805 0.28634 10.0018 0.452211 9.87228 0.654296C9.74277 0.856381 9.66673 1.08806 9.65129 1.32758C9.57201 2.67083 9.22085 3.984 8.61909 5.18752C8.01733 6.39105 7.17749 7.45988 6.15046 8.32926L5.82396 8.59488C4.75001 9.31751 3.7994 10.2083 3.00862 11.2331C1.7794 12.7817 0.927884 14.5954 0.5216 16.5303C0.115316 18.4652 0.16544 20.4682 0.667996 22.3804C1.17055 24.2926 2.11172 26.0614 3.41686 27.5466C4.72199 29.0317 6.35521 30.1924 8.18698 30.9364C8.40205 31.0243 8.63545 31.0579 8.86658 31.0343C9.09771 31.0107 9.31948 30.9305 9.51231 30.8009C9.70514 30.6713 9.86312 30.4962 9.9723 30.2911C10.0815 30.0861 10.1385 29.8573 10.1384 29.6249C10.1374 29.4746 10.1136 29.3254 10.0678 29.1822C9.75088 27.9908 9.65961 26.7507 9.79873 25.5257C11.1392 28.0541 13.291 30.0582 15.9081 31.2159C16.2276 31.3588 16.5887 31.378 16.9215 31.2698C18.9892 30.6025 20.8519 29.4175 22.3327 27.8274C23.8134 26.2374 24.863 24.2951 25.3817 22.1852C25.9003 20.0753 25.8709 17.8678 25.2961 15.7724C24.7213 13.6771 23.6203 11.7635 22.0977 10.2135ZM16.5659 28.3909C15.331 27.765 14.2417 26.8863 13.3687 25.8118C12.4958 24.7373 11.8587 23.4911 11.499 22.1542C11.3891 21.7041 11.3041 21.2482 11.2444 20.7887C11.204 20.4961 11.0731 20.2235 10.87 20.0089C10.667 19.7943 10.402 19.6486 10.1121 19.592C10.0227 19.5744 9.93192 19.5656 9.84088 19.5657C9.59189 19.5657 9.34727 19.6312 9.13171 19.7558C8.91614 19.8804 8.73724 20.0597 8.61305 20.2755C7.4376 22.3029 6.84647 24.6162 6.90516 26.959C5.87134 26.1552 5.00732 25.1542 4.3632 24.014C3.71908 22.8738 3.30767 21.6172 3.15279 20.3168C2.99792 19.0165 3.10268 17.6983 3.46099 16.4387C3.8193 15.1792 4.42405 14.0032 5.24017 12.9791C5.85984 12.1742 6.60738 11.4764 7.453 10.9136C7.48962 10.89 7.52473 10.8641 7.55815 10.8361C7.55815 10.8361 7.97846 10.4884 7.99282 10.4804C10.0111 8.77327 11.4467 6.47905 12.0994 3.91743C13.6429 5.34434 14.6722 7.24097 15.0273 9.31282C15.3824 11.3847 15.0435 13.5158 14.0632 15.3753C13.9337 15.6234 13.8806 15.9043 13.9105 16.1826C13.9405 16.4609 14.0522 16.7241 14.2315 16.939C14.4109 17.1539 14.6499 17.3108 14.9183 17.39C15.1868 17.4692 15.4727 17.4672 15.7399 17.3841C17.91 16.7039 19.8195 15.3752 21.2116 13.5768C22.0482 14.8126 22.5951 16.2212 22.8117 17.6977C23.0282 19.1742 22.9088 20.6806 22.4622 22.1045C22.0157 23.5284 21.2536 24.8333 20.2326 25.9217C19.2117 27.0102 17.9583 27.8542 16.5659 28.3909L16.5659 28.3909Z" fill="black"/>
</svg>
