<svg width="41" height="40" viewBox="0 0 41 40" fill="none" xmlns="http://www.w3.org/2000/svg">
<path d="M31.1274 39.1184C30.8032 39.1176 30.484 39.038 30.1974 38.8864L20.0034 33.5264L9.80943 38.8864C9.47936 39.0594 9.10754 39.1367 8.7359 39.1096C8.36426 39.0825 8.00757 38.9521 7.70606 38.7332C7.40455 38.5142 7.17021 38.2154 7.02945 37.8703C6.8887 37.5253 6.84713 37.1478 6.90943 36.7804L8.85543 25.4284L0.607434 17.3884C0.340614 17.1279 0.151942 16.798 0.0627233 16.4359C-0.0264956 16.0739 -0.0127079 15.694 0.10253 15.3394C0.217767 14.9847 0.429865 14.6694 0.714872 14.4289C0.999879 14.1884 1.34644 14.0324 1.71543 13.9784L13.1134 12.3224L18.2114 1.99445C18.3951 1.68213 18.6571 1.4232 18.9716 1.24329C19.2861 1.06339 19.6421 0.96875 20.0044 0.96875C20.3667 0.96875 20.7228 1.06339 21.0373 1.24329C21.3517 1.4232 21.6138 1.68213 21.7974 1.99445L26.8934 12.3224L38.2914 13.9784C38.6604 14.0324 39.007 14.1884 39.292 14.4289C39.577 14.6694 39.7891 14.9847 39.9043 15.3394C40.0196 15.694 40.0334 16.0739 39.9441 16.4359C39.8549 16.798 39.6663 17.1279 39.3994 17.3884L31.1514 25.4284L33.0994 36.7804C33.1486 37.0674 33.1346 37.3616 33.0583 37.6426C32.982 37.9236 32.8453 38.1845 32.6576 38.4072C32.47 38.6298 32.2361 38.8088 31.9721 38.9317C31.7082 39.0545 31.4206 39.1183 31.1294 39.1184H31.1274Z" fill="#D0D0D0"/>
</svg>
