<svg width="41" height="39" viewBox="0 0 41 39" fill="none" xmlns="http://www.w3.org/2000/svg">
<path d="M31.3844 38.2044C31.0619 38.2036 30.7444 38.124 30.4594 37.9724L20.3202 32.6124L10.181 37.9724C9.85268 38.1453 9.48286 38.2226 9.11321 38.1955C8.74357 38.1684 8.3888 38.038 8.08891 37.8191C7.78902 37.6001 7.55594 37.3013 7.41594 36.9563C7.27594 36.6113 7.2346 36.2338 7.29657 35.8664L9.23211 24.5144L1.02845 16.4744C0.763063 16.2139 0.575406 15.8839 0.486666 15.5219C0.397927 15.1598 0.411641 14.78 0.526259 14.4253C0.640877 14.0707 0.851834 13.7553 1.13531 13.5148C1.41878 13.2743 1.76349 13.1183 2.13049 13.0644L13.4672 11.4084L18.5378 1.08039C18.7205 0.768068 18.9811 0.509136 19.2939 0.329231C19.6067 0.149326 19.9608 0.0546875 20.3212 0.0546875C20.6815 0.0546875 21.0356 0.149326 21.3484 0.329231C21.6612 0.509136 21.9219 0.768068 22.1045 1.08039L27.1731 11.4084L38.5098 13.0644C38.8769 13.1183 39.2216 13.2743 39.505 13.5148C39.7885 13.7553 39.9995 14.0707 40.1141 14.4253C40.2287 14.78 40.2424 15.1598 40.1537 15.5219C40.0649 15.8839 39.8773 16.2139 39.6119 16.4744L31.4082 24.5144L33.3458 35.8664C33.3947 36.1533 33.3807 36.4476 33.3048 36.7286C33.2289 37.0095 33.0929 37.2705 32.9064 37.4931C32.7198 37.7157 32.4871 37.8948 32.2245 38.0176C31.962 38.1405 31.6759 38.2042 31.3864 38.2044H31.3844Z" fill="#8B0000"/>
</svg>
