<svg width="34" height="34" viewBox="0 0 34 34" fill="none" xmlns="http://www.w3.org/2000/svg">
<path d="M30.1749 14.2788C29.7769 13.8008 29.2787 13.4161 28.7157 13.1518C28.1527 12.8874 27.5386 12.7498 26.9166 12.7488H20.4566L21.2499 10.7229C21.5799 9.83593 21.6898 8.88212 21.5702 7.94332C21.4506 7.00451 21.105 6.10874 20.5631 5.33284C20.0212 4.55693 19.2992 3.92406 18.459 3.4885C17.6188 3.05294 16.6855 2.8277 15.7391 2.83209C15.4666 2.83266 15.2 2.91182 14.9714 3.06007C14.7427 3.20832 14.5616 3.41937 14.4499 3.66793L10.4124 12.7488H7.08325C5.95608 12.7488 4.87508 13.1965 4.07805 13.9936C3.28102 14.7906 2.83325 15.8716 2.83325 16.9988V26.9154C2.83325 28.0426 3.28102 29.1236 4.07805 29.9206C4.87508 30.7177 5.95608 31.1654 7.08325 31.1654H25.1174C26.1116 31.1651 27.0743 30.8162 27.8379 30.1795C28.6015 29.5427 29.1176 28.6584 29.2966 27.6804L31.0958 17.7638C31.207 17.1509 31.1822 16.521 31.0231 15.9188C30.864 15.3166 30.5744 14.7567 30.1749 14.2788ZM9.91659 28.3321H7.08325C6.70753 28.3321 6.34719 28.1828 6.08152 27.9172C5.81584 27.6515 5.66659 27.2912 5.66659 26.9154V16.9988C5.66659 16.623 5.81584 16.2627 6.08152 15.997C6.34719 15.7314 6.70753 15.5821 7.08325 15.5821H9.91659V28.3321ZM28.3333 17.2538L26.5341 27.1704C26.4737 27.5005 26.2982 27.7983 26.0388 28.0111C25.7794 28.2238 25.4529 28.3376 25.1174 28.3321H12.7499V14.4629L16.6033 5.79293C16.9999 5.90856 17.3683 6.10517 17.6851 6.37034C18.0019 6.6355 18.2604 6.96347 18.4441 7.33354C18.6278 7.70361 18.7328 8.10775 18.7524 8.52044C18.7721 8.93313 18.706 9.34541 18.5583 9.73126L17.8074 11.7571C17.6474 12.1853 17.5934 12.6458 17.65 13.0994C17.7066 13.553 17.872 13.9862 18.1323 14.362C18.3926 14.7378 18.7399 15.045 19.1446 15.2575C19.5494 15.4699 19.9995 15.5813 20.4566 15.5821H26.9166C27.1247 15.5818 27.3304 15.6273 27.5189 15.7154C27.7074 15.8036 27.8742 15.9322 28.0074 16.0921C28.1439 16.2498 28.2439 16.4357 28.3002 16.6365C28.3565 16.8373 28.3678 17.0481 28.3333 17.2538Z" fill="black"/>
</svg>
