<svg width="101" height="29" viewBox="0 0 101 29" fill="none" xmlns="http://www.w3.org/2000/svg">
<g clip-path="url(#clip0_382_79161)">
<path d="M96.8728 7.44511C96.9813 6.60161 96.9234 5.74513 96.7023 4.92375C96.3915 3.78482 95.7731 2.75256 94.9142 1.93923C94.0554 1.12591 92.989 0.562691 91.831 0.310806C90.6731 0.0589215 89.468 0.128033 88.3468 0.510627C87.2256 0.893221 86.2312 1.57464 85.4717 2.48077L85.2749 2.24562C84.686 1.7347 84.0048 1.34009 83.2676 1.0829C82.2506 0.7295 81.1596 0.641236 80.0987 0.826465C79.0377 1.01169 78.0419 1.46425 77.2063 2.14109L76.7996 2.50688C75.9461 1.99069 75.0163 1.61156 74.0444 1.38339C71.8361 0.899976 69.5486 0.899976 67.3402 1.38339C66.6042 1.5636 65.8912 1.82658 65.2149 2.16724C64.6566 1.69433 64.0164 1.32685 63.3256 1.0829C62.3086 0.7295 61.2176 0.641236 60.1566 0.826465C59.0956 1.01169 58.0999 1.46425 57.2643 2.14109C56.7311 2.5864 56.2862 3.12694 55.9523 3.73491C55.6277 3.23408 55.2195 2.79223 54.7453 2.4285C53.6268 1.54128 52.2393 1.05774 50.8093 1.05678C50.1481 1.05813 49.4903 1.15044 48.8545 1.33112C48.1271 1.55501 47.4469 1.90917 46.8472 2.37623C46.3278 2.79965 45.8842 3.30766 45.5352 3.87863C45.3519 3.63705 45.1501 3.40991 44.9317 3.19928C44.1956 2.48963 43.2939 1.97336 42.3077 1.69691C41.4526 1.46692 40.5694 1.35699 39.6838 1.37031H26.8527C26.0634 1.37235 25.2826 1.5323 24.5567 1.84064C23.6432 1.29201 22.5927 1.01123 21.526 1.03063H6.89751C6.06999 0.999333 5.24639 1.15874 4.49087 1.49637C3.73535 1.83401 3.06832 2.34078 2.54175 2.97721C1.94173 3.71997 1.54141 4.60254 1.37845 5.54187C1.21549 6.48119 1.29526 7.44637 1.61025 8.34653C1.23999 8.98304 1.01179 9.69151 0.941154 10.4237C0.874484 11.079 0.91435 11.7407 1.05923 12.3833C0.662963 13.1653 0.456257 14.0288 0.45571 14.9047C0.447176 16.079 0.819923 17.2245 1.51841 18.1707C0.871786 19.943 0.871786 21.8853 1.51841 23.6576C1.88023 24.6032 2.44431 25.4591 3.17151 26.1659C3.91957 26.8868 4.8144 27.4393 5.79546 27.7859C6.7705 28.1184 7.79558 28.2819 8.82612 28.2693H19.4531C20.5387 28.2875 21.6187 28.1104 22.6412 27.7467C22.9995 27.5996 23.3499 27.4339 23.6908 27.2503C24.4735 27.5861 25.3182 27.7552 26.1704 27.7467H42.2946C43.201 27.7625 44.0988 27.5703 44.9186 27.185C45.3973 27.4669 45.9082 27.6906 46.4405 27.8513C47.2705 28.0713 48.1269 28.1768 48.9857 28.1648H62.2366C63.2581 28.1837 64.2668 27.936 65.1624 27.4463C65.4866 27.6103 65.8246 27.7458 66.1726 27.8513C67.0026 28.0713 67.859 28.1768 68.7178 28.1648H87.4397V25.7871C88.9263 26.6017 90.6752 26.8008 92.308 26.3411C93.9408 25.8815 95.3262 24.8001 96.1643 23.331L100.1 16.5639C100.555 15.7731 100.837 14.8954 100.926 13.9885C101.016 13.0816 100.912 12.166 100.621 11.3021C100.329 10.4382 99.8576 9.64555 99.2365 8.97625C98.6154 8.30695 97.859 7.77623 97.0171 7.41899L96.8728 7.44511Z" fill="url(#paint0_diamond_382_79161)"/>
<path d="M12.1439 17.3992V16.3932H6.06948C5.83118 16.4257 5.58854 16.4025 5.3608 16.3254C5.13307 16.2483 4.92651 16.1194 4.75751 15.949C4.50792 15.6528 4.37298 15.2774 4.37704 14.8908C4.38082 14.5037 4.50962 14.1281 4.74439 13.8196C4.90898 13.6413 5.11376 13.5045 5.34187 13.4204C5.56997 13.3364 5.81487 13.3075 6.05637 13.3362H22.4298C22.6713 13.3075 22.9162 13.3364 23.1443 13.4204C23.3724 13.5045 23.5772 13.6413 23.7418 13.8196C23.9827 14.1248 24.1123 14.5026 24.1091 14.8908C24.1132 15.2774 23.9783 15.6528 23.7287 15.949C23.5597 16.1194 23.3531 16.2483 23.1254 16.3254C22.8977 16.4025 22.655 16.4257 22.4167 16.3932H16.3423V17.3992H19.5304C20.1139 17.3905 20.6947 17.4788 21.2491 17.6605C21.7093 17.8107 22.1305 18.0605 22.4823 18.392C22.8072 18.698 23.0583 19.0731 23.217 19.4894C23.5321 20.3815 23.5321 21.3538 23.217 22.2459C23.0583 22.6622 22.8072 23.0374 22.4823 23.3433C22.1305 23.6749 21.7093 23.9247 21.2491 24.0749C20.6947 24.2565 20.1139 24.3449 19.5304 24.3362H8.90335C8.31558 24.3446 7.73045 24.2563 7.17156 24.0749C6.71521 23.9246 6.29834 23.6746 5.95141 23.3433C5.63023 23.0369 5.38345 22.6616 5.22982 22.2459C4.89461 21.3574 4.89461 20.3779 5.22982 19.4894C5.38345 19.0737 5.63023 18.6985 5.95141 18.392C6.29834 18.0608 6.71521 17.8108 7.17156 17.6605C7.73045 17.479 8.31558 17.3907 8.90335 17.3992H12.1439ZM21.5902 4.93601C21.8306 4.90676 22.0745 4.93406 22.3023 5.01575C22.5302 5.09743 22.7356 5.23119 22.9022 5.4063C23.1506 5.7133 23.285 6.09635 23.2826 6.49064C23.2862 6.88343 23.1463 7.26411 22.889 7.56186C22.7232 7.73782 22.5178 7.87219 22.2898 7.95393C22.0617 8.03568 21.8175 8.0625 21.577 8.03219H16.4079C16.3524 8.29717 16.2688 8.55554 16.1586 8.80297H17.1163H18.0872C18.7495 8.82443 19.4084 8.90753 20.0551 9.05119C20.647 9.16923 21.2147 9.38562 21.7345 9.69132C22.2455 9.99316 22.6914 10.3928 23.0465 10.8671C23.4525 11.421 23.7507 12.0458 23.9255 12.7091H19.6878C19.5198 12.4095 19.2921 12.1473 19.0187 11.9383C18.7415 11.7285 18.4369 11.5571 18.1134 11.4289C17.7611 11.2936 17.3964 11.1929 17.0245 11.1284C16.6378 11.0714 16.2477 11.0409 15.8568 11.0369H15.004C14.6991 11.0548 14.3962 11.0985 14.0988 11.1676C13.5796 11.5012 13.0253 11.7772 12.4457 11.9906C11.833 12.224 11.2008 12.4033 10.5564 12.5262C9.21976 12.7742 7.85344 12.8227 6.50244 12.6699C6.2561 12.6673 6.01284 12.6151 5.78735 12.5163C5.56186 12.4175 5.35882 12.2742 5.19046 12.0951C5.04413 11.9139 4.93903 11.7033 4.88241 11.4778C4.82578 11.2522 4.81897 11.0171 4.86247 10.7887C4.87573 10.5982 4.93077 10.413 5.0237 10.2459C5.11664 10.0789 5.24522 9.93417 5.40038 9.82197C5.75771 9.57849 6.18948 9.46755 6.62051 9.50844C7.26297 9.54075 7.90666 9.54075 8.54912 9.50844C9.11371 9.48482 9.67538 9.4149 10.2284 9.29941C10.6896 9.20476 11.1325 9.03715 11.5404 8.80297C11.8938 8.60988 12.1884 8.32557 12.3932 7.97992H6.89603C6.6557 8.00814 6.41208 7.98033 6.18439 7.89871C5.9567 7.81709 5.75118 7.68391 5.58406 7.50964C5.32677 7.21188 5.18689 6.83116 5.19046 6.43837C5.18805 6.04408 5.32246 5.66103 5.57095 5.35403C5.73807 5.17975 5.94357 5.04657 6.17126 4.96495C6.39895 4.88333 6.64259 4.85552 6.88292 4.88374L21.5902 4.93601ZM18.3365 21.5535C18.4677 21.5698 18.601 21.5584 18.7275 21.5201C18.8541 21.4819 18.9711 21.4176 19.0712 21.3315C19.1723 21.1978 19.227 21.035 19.227 20.8676C19.227 20.7003 19.1723 20.5375 19.0712 20.4039C18.9711 20.3177 18.8541 20.2534 18.7275 20.2152C18.601 20.1769 18.4677 20.1656 18.3365 20.1818H10.1891C9.80861 20.1818 9.55934 20.2602 9.45438 20.4039C9.34432 20.5336 9.28394 20.6979 9.28394 20.8676C9.28394 21.0374 9.34432 21.2018 9.45438 21.3315C9.55934 21.4752 9.80861 21.5535 10.1891 21.5535H18.3365Z" fill="white"/>
<path d="M30.4079 20.4692V14.1984C30.3985 13.9018 30.4568 13.607 30.5784 13.3362C30.6851 13.1001 30.8446 12.8914 31.0448 12.7261C31.2449 12.5609 31.4803 12.4433 31.733 12.3825C31.9988 12.3148 32.272 12.2797 32.5464 12.278C32.8131 12.2787 33.0784 12.3183 33.3336 12.3956C33.5841 12.466 33.8197 12.5811 34.0289 12.7352C34.2349 12.8958 34.401 13.1014 34.5143 13.3362C34.636 13.607 34.6943 13.9018 34.6849 14.1984V20.4692H42.2288C42.5067 20.4643 42.7829 20.5131 43.0422 20.6128C43.2498 20.7064 43.437 20.8396 43.5932 21.0048C43.7264 21.1631 43.8288 21.3447 43.895 21.5404C43.9576 21.7435 43.9886 21.955 43.9868 22.1675C43.9925 22.5906 43.8485 23.0022 43.5801 23.3302C43.4162 23.5115 43.2126 23.6529 42.9852 23.7435C42.7577 23.8341 42.5124 23.8715 42.2681 23.8528H26.1046C25.8603 23.8725 25.6146 23.8355 25.387 23.7448C25.1594 23.6542 24.956 23.5123 24.7926 23.3302C24.5205 23.0034 24.372 22.592 24.3728 22.1675C24.3757 21.9544 24.4111 21.7429 24.4777 21.5404C24.5342 21.3405 24.6376 21.157 24.7795 21.0048C24.9281 20.8368 25.1117 20.703 25.3174 20.6128C25.5809 20.5117 25.8617 20.4629 26.144 20.4692H30.4079ZM37.8599 16.8504C38.2088 16.0137 38.447 15.1354 38.5684 14.2376C38.7402 13.0523 38.8192 11.8555 38.8045 10.658V9.35164C38.8067 9.21164 38.7551 9.07609 38.6602 8.97277C38.6105 8.92352 38.5509 8.88526 38.4853 8.8605C38.4198 8.83573 38.3498 8.825 38.2798 8.82904H26.8787C26.595 8.83757 26.3128 8.78406 26.0521 8.67228C25.8344 8.57786 25.6413 8.43481 25.488 8.25422C25.3345 8.08399 25.2183 7.88379 25.1469 7.66636C25.0697 7.46165 25.0297 7.2449 25.0288 7.02623C25.0317 6.81312 25.067 6.60166 25.1337 6.39914C25.2054 6.1857 25.3217 5.98979 25.4749 5.82431C25.636 5.64656 25.8326 5.50418 26.0521 5.40625C26.3097 5.28366 26.5934 5.22536 26.8787 5.23641H39.6967C40.2137 5.22252 40.7303 5.27968 41.2317 5.40625C41.6043 5.50489 41.9467 5.69335 42.2288 5.95496C42.485 6.21311 42.6702 6.53251 42.7667 6.8825C42.8758 7.30934 42.9287 7.74849 42.9241 8.18891V10.7625C43.0681 13.2994 42.6516 15.8368 41.704 18.196C41.5699 18.4657 41.3825 18.7057 41.1529 18.9014C40.9234 19.094 40.6613 19.2445 40.3789 19.3457C40.0957 19.441 39.7988 19.4895 39.4999 19.4893C39.1959 19.4898 38.8956 19.4229 38.6208 19.2934C38.4059 19.2104 38.2133 19.0786 38.0584 18.9085C37.9036 18.7385 37.7907 18.5348 37.7287 18.3136C37.5932 17.8262 37.6398 17.3062 37.8599 16.8504Z" fill="white"/>
<path d="M45.2731 12.7354C46.2741 12.3969 47.139 11.7464 47.7396 10.8803C48.4058 9.79936 48.7219 8.54049 48.6449 7.27457V6.90878C48.6371 6.60532 48.7047 6.30467 48.8417 6.03351C48.9584 5.80089 49.124 5.59596 49.3271 5.43257C49.5357 5.27426 49.7712 5.15474 50.0225 5.07981C50.2862 5.00053 50.5604 4.96091 50.8359 4.96224C51.3564 4.96766 51.8601 5.14711 52.2659 5.47176C52.4759 5.64534 52.6414 5.86618 52.7486 6.11607C52.8558 6.36597 52.9017 6.6377 52.8826 6.90878V7.27457C52.8851 7.85582 52.8457 8.43652 52.7645 9.01212C53.4803 9.10259 54.1763 9.31005 54.8243 9.62613C55.4402 9.93944 55.9781 10.3858 56.3987 10.9325C56.8559 11.5501 57.1859 12.2516 57.3695 12.9967C57.6009 13.9407 57.6893 14.9138 57.6319 15.8838H53.5385C53.696 13.7544 53.0663 12.5394 51.6756 12.252C51.1032 13.29 50.2999 14.1837 49.3271 14.8648C48.471 15.4793 47.4827 15.8864 46.4408 16.0536C45.9924 16.1375 45.5286 16.0637 45.1288 15.8447C44.7661 15.6274 44.4919 15.2897 44.3547 14.8909C44.1868 14.4715 44.1868 14.004 44.3547 13.5846C44.4406 13.3875 44.5665 13.2103 44.7246 13.0642C44.8827 12.918 45.0694 12.8061 45.2731 12.7354ZM48.8942 24.271C48.4031 24.2838 47.9127 24.2266 47.4379 24.1012C47.0947 24.0177 46.7814 23.8414 46.5326 23.5917C46.291 23.3224 46.1278 22.9927 46.0603 22.638C45.958 22.1748 45.9095 21.7013 45.916 21.2271V19.0976C45.8905 18.8023 45.9355 18.5052 46.0472 18.2305C46.1589 17.9558 46.3342 17.7113 46.5589 17.5168C46.9956 17.1856 47.5318 17.0107 48.0808 17.0204C48.6224 17.006 49.1518 17.1817 49.5764 17.5168C49.7876 17.7198 49.9512 17.9668 50.0556 18.24C50.1599 18.5133 50.2024 18.8061 50.1799 19.0976V20.5085C50.1799 20.7437 50.1799 20.9004 50.2849 20.9527C50.4277 21.0207 50.5867 21.0479 50.7441 21.0311H62.1451C62.3869 21.0138 62.6296 21.0493 62.8562 21.135C63.0828 21.2208 63.2878 21.3547 63.4571 21.5275C63.7131 21.8413 63.8522 22.2337 63.8507 22.638C63.8602 23.0577 63.7156 23.4664 63.444 23.7876C63.2736 23.958 63.068 24.0896 62.8414 24.173C62.6149 24.2565 62.3728 24.29 62.132 24.271H48.8942ZM59.1276 6.71282C59.1078 6.42509 59.1542 6.13664 59.2633 5.86949C59.3725 5.60233 59.5414 5.36353 59.7573 5.17127C60.1726 4.8257 60.6988 4.64025 61.2399 4.64872C61.5078 4.64748 61.774 4.69167 62.027 4.77936C62.2807 4.8647 62.5133 5.00274 62.7093 5.18435C62.9095 5.36288 63.0703 5.58085 63.1816 5.82448C63.3054 6.10427 63.368 6.40709 63.3653 6.71282V19.4242H59.1276V6.71282Z" fill="white"/>
<path d="M64.6898 9.67827C64.669 8.93221 64.817 8.19104 65.1228 7.50963C65.4103 6.92704 65.8331 6.421 66.356 6.03338C66.926 5.63652 67.5675 5.35263 68.2453 5.19726C69.0461 5.01798 69.8648 4.93034 70.6855 4.936C71.5106 4.93037 72.3337 5.018 73.1389 5.19726C73.8167 5.35263 74.4581 5.63652 75.0282 6.03338C75.551 6.41762 75.9702 6.92479 76.2483 7.50963C76.5648 8.18796 76.7176 8.93064 76.6944 9.67827V10.3315C76.7191 11.0792 76.5662 11.8222 76.2483 12.5001C75.973 13.0867 75.5533 13.5945 75.0282 13.9763C74.4642 14.3838 73.8205 14.6686 73.1389 14.8124C72.3348 14.9981 71.5109 15.0858 70.6855 15.0737C69.8645 15.0858 69.045 14.9981 68.2453 14.8124C67.5636 14.6686 66.92 14.3838 66.356 13.9763C65.8302 13.5917 65.4068 13.0849 65.1228 12.5001C64.8157 11.8191 64.6676 11.0776 64.6898 10.3315V9.67827ZM68.6257 24.2709C68.1346 24.2836 67.6443 24.2264 67.1694 24.101C66.8263 24.0176 66.513 23.8412 66.2642 23.5915C66.0278 23.3188 65.8652 22.9906 65.7919 22.6379C65.6896 22.1746 65.6411 21.7012 65.6475 21.2269V17.8956C65.6221 17.6105 65.6646 17.3234 65.7718 17.0577C65.8789 16.7921 66.0477 16.5554 66.2642 16.367C66.6849 16.0743 67.1825 15.9109 67.6955 15.897C68.2086 15.8831 68.7145 16.0192 69.1505 16.2887C69.3534 16.4434 69.5196 16.6406 69.6375 16.8664C69.7554 17.0921 69.822 17.3409 69.8328 17.5951H79.2265C79.237 17.3394 79.3048 17.0893 79.4252 16.8632C79.5455 16.6372 79.7152 16.4408 79.9219 16.2887C80.3398 16.0209 80.8289 15.8844 81.3257 15.8968C81.8596 15.878 82.3835 16.0442 82.8082 16.367C83.0223 16.5567 83.1885 16.7939 83.2934 17.0595C83.3983 17.325 83.4388 17.6115 83.4117 17.8956V24.2709H68.6257ZM68.7963 10.5274C68.7828 10.7509 68.8234 10.9744 68.9148 11.179C69.0061 11.3836 69.1454 11.5634 69.3211 11.7032C69.7082 11.9622 70.1668 12.0946 70.633 12.0821C71.0997 12.0982 71.5594 11.9655 71.945 11.7032C72.1269 11.569 72.2709 11.3901 72.3629 11.1841C72.4548 10.9781 72.4917 10.7518 72.4698 10.5274V9.45616C72.4917 9.23175 72.4548 9.00553 72.3629 8.79949C72.2709 8.59346 72.1269 8.41463 71.945 8.2804C71.561 8.0135 71.1012 7.87612 70.633 7.88846C70.1654 7.87972 69.7067 8.01677 69.3211 8.2804C69.1446 8.41947 69.0046 8.59912 68.9132 8.80392C68.8218 9.00871 68.7817 9.23252 68.7963 9.45616V10.5274ZM79.2134 21.4882V20.1818H69.8721V20.9265C69.8721 21.1616 69.8721 21.3053 69.977 21.3575C70.1204 21.4237 70.2789 21.4507 70.4362 21.4359L79.2134 21.4882ZM79.0559 6.7127C79.0361 6.42496 79.0826 6.13651 79.1917 5.86936C79.3008 5.6022 79.4698 5.3634 79.6857 5.17114C80.1021 4.8276 80.6275 4.64243 81.1682 4.64859C81.4361 4.64735 81.7023 4.69154 81.9554 4.77924C82.2091 4.86457 82.4416 5.00261 82.6377 5.18422C82.8379 5.36275 82.9987 5.58072 83.1099 5.82435C83.2337 6.10414 83.2964 6.40696 83.2936 6.7127V15.2435H79.0559V6.7127Z" fill="white"/>
<path d="M90.4301 22.6917C89.9705 22.6949 89.5181 22.5777 89.1182 22.352C88.5433 22.0039 88.1247 21.4491 87.9489 20.8024C87.7731 20.1556 87.8535 19.4664 88.1735 18.877L89.8791 15.9245H86.4942C86.0407 15.9277 85.5946 15.8102 85.2021 15.5841C84.8095 15.3581 84.4847 15.0316 84.2613 14.6387C84.0379 14.2457 83.924 13.8005 83.9314 13.349C83.9387 12.8975 84.0671 12.4561 84.3032 12.0706L88.2391 5.3034C88.4054 5.01433 88.6272 4.76067 88.8919 4.55695C89.1566 4.35323 89.459 4.20343 89.7818 4.11608C90.1047 4.02874 90.4417 4.00558 90.7735 4.04791C91.1054 4.09023 91.4255 4.19723 91.7159 4.36279C92.0062 4.52834 92.2609 4.74922 92.4655 5.0128C92.6701 5.27638 92.8205 5.57748 92.9082 5.89896C92.996 6.22044 93.0192 6.55595 92.9767 6.88638C92.9342 7.21681 92.8267 7.53569 92.6605 7.82477L90.9549 10.7903H94.3398C94.7877 10.788 95.2283 10.9035 95.617 11.125C96.0057 11.3465 96.3289 11.6662 96.5538 12.0519C96.7787 12.4376 96.8975 12.8755 96.8981 13.3215C96.8986 13.7675 96.781 14.2057 96.5571 14.592L92.6211 21.3592C92.4073 21.7547 92.0917 22.0866 91.7067 22.3207C91.3217 22.5548 90.8812 22.6829 90.4301 22.6917Z" fill="white"/>
</g>
<defs>
<radialGradient id="paint0_diamond_382_79161" cx="0" cy="0" r="1" gradientUnits="userSpaceOnUse" gradientTransform="translate(50.7066 14.2163) rotate(-179.601) scale(50.346 309.771)">
<stop stop-color="#FFA0CE"/>
<stop offset="1" stop-color="#FD5FDA"/>
</radialGradient>
<clipPath id="clip0_382_79161">
<rect width="100.353" height="28.1009" fill="white" transform="translate(0.455566 0.167969)"/>
</clipPath>
</defs>
</svg>
