<svg width="102" height="28" viewBox="0 0 102 28" fill="none" xmlns="http://www.w3.org/2000/svg">
<g clip-path="url(#clip0_382_79174)">
<path d="M83.4507 3.62414C83.119 2.87429 82.6352 2.20827 82.0326 1.67197C81.4939 1.19124 80.8762 0.815876 80.2094 0.563983C79.2309 0.197177 78.1779 0.100366 77.1529 0.282962C76.1279 0.465558 75.1656 0.921349 74.3598 1.60602C74.1107 1.81062 73.8817 2.04037 73.676 2.29192C73.2817 2.19589 72.8781 2.14721 72.4732 2.14682C72.2774 1.9117 72.0658 1.69131 71.8401 1.48731C70.7258 0.581376 69.3403 0.11426 67.9277 0.168273C66.4943 0.125727 65.0949 0.627312 63.99 1.57964C63.7961 1.75527 63.6142 1.94479 63.4456 2.14682H62.7619C62.6016 1.95784 62.428 1.78148 62.2427 1.61921C61.2311 0.759107 59.9804 0.261307 58.676 0.199538C57.3716 0.137769 56.0827 0.515316 55.0004 1.27626C54.3154 0.957453 53.5728 0.795522 52.8226 0.801409H45.9854C45.1924 0.790927 44.4012 0.883985 43.6304 1.07841C43.4277 1.13483 43.2289 1.20534 43.0353 1.28945C41.9526 0.542714 40.6702 0.17354 39.3731 0.235178C38.076 0.296817 36.8312 0.786081 35.8183 1.6324L35.4891 1.94897C34.2971 1.2778 32.9564 0.945681 31.602 0.986074H25.6131C25.0006 0.993679 24.3934 1.10505 23.8152 1.31583C23.3847 0.999111 22.9165 0.741949 22.4224 0.550793C21.4416 0.194705 20.3899 0.104729 19.3665 0.28935C18.343 0.47397 17.3816 0.927104 16.5728 1.60602L16.2183 1.93578C15.3658 1.39329 14.4332 1.0011 13.4581 0.775029C11.3338 0.302982 9.13775 0.302982 7.01341 0.775029C5.87872 1.03572 4.8036 1.52405 3.84805 2.21278C2.84074 2.96328 2.03087 3.96574 1.49302 5.12784C0.925127 6.36114 0.647352 7.71759 0.682681 9.08495V9.65213C0.647839 11.0194 0.925589 12.3758 1.49302 13.6092C1.64194 13.9242 1.81114 14.2282 1.99947 14.5194C1.57729 15.7203 1.57729 17.0382 1.99947 18.239C1.62727 19.0921 1.43719 20.0192 1.44237 20.9563V21.2069C1.46966 22.0325 1.64129 22.846 1.94883 23.6075C2.2655 24.4542 2.74261 25.2257 3.35171 25.8761C3.9608 26.5265 4.6894 27.0424 5.49404 27.3931C6.34357 27.725 7.2458 27.8862 8.15295 27.868H21.8273C22.8259 27.8722 23.802 27.5594 24.6255 26.9711C24.9451 27.0115 25.2682 27.0115 25.5878 26.9711C27.2068 26.9448 28.8123 26.6601 30.3485 26.1269C31.6154 25.6975 32.7987 25.0364 33.8431 24.1747V27.868H45.4916V27.591C46.316 27.8289 47.1685 27.9443 48.0239 27.934H56.5197C57.6084 27.9445 58.6897 27.7478 59.7104 27.3536C60.3596 27.0748 60.9723 26.7113 61.5337 26.272C62.1672 26.8873 62.9304 27.3391 63.7621 27.591C64.5858 27.8316 65.4393 27.9427 66.2944 27.9208H79.0065C79.8066 27.9496 80.6028 27.7916 81.3367 27.4583C82.0706 27.1251 82.7237 26.6251 83.2481 25.995C83.6909 25.4461 84.0302 24.8151 84.2484 24.1351C84.7736 24.9939 85.5004 25.6989 86.36 26.1836C87.2196 26.6683 88.1836 26.9166 89.161 26.9051C89.9654 26.9102 90.7622 26.7432 91.5022 26.4144C92.2421 26.0856 92.9093 25.602 93.4624 24.9936C94.0156 24.3852 94.4429 23.6649 94.7179 22.8774C94.993 22.0899 95.1098 21.2519 95.0613 20.4155V19.8483C96.2949 19.915 97.5189 19.5902 98.5715 18.9168C99.6241 18.2433 100.456 17.253 100.957 16.0766C101.457 14.9003 101.604 13.5933 101.376 12.3284C101.149 11.0635 100.558 9.90036 99.6827 8.99262L93.4406 2.51615C92.2943 1.32566 90.7417 0.657164 89.123 0.657164C87.5044 0.657164 85.9518 1.32566 84.8055 2.51615L83.5393 3.83519C83.515 3.7626 83.4853 3.69205 83.4507 3.62414Z" fill="url(#paint0_diamond_382_79174)"/>
<path d="M4.48164 9.01864C4.45991 8.28224 4.60296 7.55067 4.89947 6.88181C5.16991 6.30719 5.57486 5.81274 6.07699 5.44406C6.62874 5.05211 7.24775 4.77446 7.90024 4.62626C9.45388 4.29213 11.0567 4.29213 12.6103 4.62626C13.2628 4.77446 13.8818 5.05211 14.4336 5.44406C14.9357 5.81274 15.3406 6.30719 15.6111 6.88181C15.9076 7.55067 16.0506 8.28224 16.0289 9.01864V9.59902C16.0506 10.3354 15.9076 11.067 15.6111 11.7359C15.3358 12.3072 14.9318 12.8005 14.4336 13.1736C13.881 13.5612 13.262 13.8344 12.6103 13.9782C11.8369 14.1545 11.0469 14.2385 10.2553 14.2288C9.46368 14.2385 8.6736 14.1545 7.90024 13.9782C7.24856 13.8344 6.62956 13.5612 6.07699 13.1736C5.57878 12.8005 5.17475 12.3072 4.89947 11.7359C4.60296 11.067 4.45991 10.3354 4.48164 9.59902V9.01864ZM8.15347 23.9105C7.72145 23.9221 7.29141 23.8459 6.88732 23.6863C6.5461 23.5416 6.23931 23.321 5.98836 23.04C5.74265 22.7813 5.55272 22.471 5.43125 22.1298C5.29487 21.7871 5.22598 21.4193 5.22867 21.0482V20.7844C5.21591 20.4442 5.27637 20.1054 5.40563 19.7927C5.53489 19.48 5.72967 19.2014 5.9757 18.9774C6.58617 18.4884 7.3473 18.2491 8.11549 18.3046H18.2447V17.7507C18.2709 17.6648 18.2709 17.5727 18.2447 17.4868C18.1693 17.4254 18.0739 17.397 17.9788 17.4077H6.58345C6.43004 17.4277 6.27426 17.4095 6.12896 17.3544C5.98366 17.2994 5.85301 17.2092 5.74779 17.0911C5.57388 16.8371 5.48088 16.5326 5.4819 16.2206C5.4828 15.9211 5.57601 15.6298 5.74779 15.3896C5.84561 15.2544 5.97471 15.1471 6.12305 15.0779C6.27139 15.0088 6.43414 14.9798 6.59611 14.9939H19.9793C20.6513 14.9259 21.3255 15.098 21.8912 15.4819C22.1021 15.7082 22.2616 15.981 22.358 16.28C22.4544 16.579 22.4853 16.8968 22.4483 17.2098V20.5866H9.98938C9.9296 20.5814 9.86943 20.5893 9.81274 20.6097C9.75605 20.6301 9.70409 20.6627 9.66019 20.7053C9.62259 20.7425 9.593 20.7876 9.57336 20.8377C9.55372 20.8877 9.54447 20.9415 9.54623 20.9955C9.54447 21.0495 9.55372 21.1033 9.57336 21.1533C9.593 21.2033 9.62259 21.2484 9.66019 21.2857C9.70409 21.3283 9.75605 21.3608 9.81274 21.3813C9.86943 21.4017 9.9296 21.4096 9.98938 21.4044H21.8279C21.9937 21.3882 22.1608 21.4161 22.3135 21.4852C22.4662 21.5544 22.5997 21.6627 22.7015 21.8001C22.8849 22.0548 22.9828 22.3654 22.98 22.6838C22.9849 22.9843 22.8911 23.2775 22.7142 23.5148C22.6104 23.6533 22.4748 23.7621 22.3198 23.8313C22.1648 23.9005 21.9956 23.9277 21.8279 23.9105H8.15347ZM8.47001 9.74411C8.45193 9.96525 8.48771 10.1876 8.57403 10.3905C8.66034 10.5934 8.79441 10.7703 8.9638 10.9049C9.34036 11.1571 9.78271 11.2815 10.23 11.261C10.6772 11.2815 11.1195 11.1571 11.4961 10.9049C11.6818 10.781 11.8332 10.6087 11.9354 10.4051C12.0375 10.2015 12.0869 9.97368 12.0785 9.74411V8.87355C12.0944 8.65457 12.0576 8.43491 11.9714 8.23452C11.8851 8.03412 11.7522 7.85933 11.5847 7.72599C11.2118 7.46412 10.7678 7.33459 10.3186 7.35666C9.86938 7.33459 9.42533 7.46412 9.05243 7.72599C8.88493 7.85933 8.75204 8.03412 8.66581 8.23452C8.57958 8.43491 8.54274 8.65457 8.55864 8.87355L8.47001 9.74411ZM18.4093 6.23548C18.3888 5.94359 18.4342 5.65075 18.5419 5.38045C18.6497 5.11015 18.8167 4.86992 19.0297 4.67902C19.4125 4.33033 19.9014 4.13407 20.4098 4.12503C20.6683 4.12378 20.9252 4.16838 21.1695 4.25693C21.41 4.34658 21.633 4.48062 21.8279 4.65264C22.0211 4.838 22.1762 5.06239 22.2837 5.31216C22.3999 5.59529 22.4561 5.90126 22.4483 6.2091V14.2948H18.4093V6.23548Z" fill="white"/>
<path d="M25.1196 19.611C25.9144 19.5462 26.6977 19.3732 27.4493 19.0965C28.1219 18.8523 28.7294 18.4455 29.2219 17.9094C29.7446 17.3048 30.1259 16.5825 30.3362 15.7989C30.6291 14.7406 30.7657 13.6421 30.7413 12.5409V9.12463C30.741 8.98374 30.6915 8.84778 30.602 8.74211C30.5532 8.69368 30.4956 8.65589 30.4325 8.63098C30.3695 8.60606 30.3023 8.59452 30.2349 8.59702H25.6134C25.3396 8.60563 25.0673 8.5516 24.8158 8.43873C24.6075 8.36353 24.4174 8.242 24.2587 8.08259C24.1072 7.91602 23.9907 7.71835 23.9168 7.50222C23.7621 7.0773 23.7621 6.60809 23.9168 6.18318C23.9905 5.96301 24.1069 5.76098 24.2587 5.58962C24.4142 5.40678 24.6037 5.2587 24.8158 5.15433C25.0662 5.03653 25.3386 4.97797 25.6134 4.98286H31.6023C32.0426 4.93815 32.4871 4.98636 32.9091 5.1246C33.3311 5.26284 33.7221 5.48829 34.0586 5.78747C34.5806 6.42391 34.844 7.24717 34.793 8.08259V12.5673C34.8323 14.2043 34.5879 15.8352 34.0713 17.3818C33.6508 18.602 32.9763 19.7101 32.0961 20.6266C31.2596 21.4699 30.2511 22.1056 29.146 22.4865C27.9729 22.8898 26.7474 23.1034 25.5121 23.1196C25.2641 23.1169 25.0173 23.0814 24.7778 23.0141C24.5454 22.9558 24.3289 22.843 24.1447 22.6843C23.9577 22.538 23.806 22.3483 23.7015 22.1303C23.5925 21.8734 23.5447 21.5928 23.5623 21.3125C23.5749 20.8922 23.7219 20.4882 23.9801 20.1649C24.2801 19.8383 24.6866 19.6406 25.1196 19.611ZM37.6418 23.911V6.23594C37.6217 5.94532 37.6661 5.65379 37.7715 5.38389C37.8769 5.114 38.0405 4.87298 38.2496 4.67948C38.6416 4.32089 39.1459 4.12388 39.6677 4.12549C40.1865 4.11411 40.6912 4.3019 41.0857 4.6531C41.2949 4.8466 41.4584 5.08762 41.5638 5.35751C41.6692 5.62741 41.7136 5.91894 41.6935 6.20956V23.911H37.6418Z" fill="white"/>
<path d="M52.8225 4.75915C53.0496 4.75608 53.2745 4.80564 53.4809 4.90424C53.653 5.00333 53.8038 5.13799 53.9241 5.29995C54.037 5.46239 54.1187 5.64603 54.1647 5.84076C54.2138 6.02551 54.2394 6.21622 54.2406 6.40794C54.2358 6.59599 54.206 6.78244 54.152 6.96194C54.1089 7.14968 54.0268 7.32529 53.9114 7.47636C53.7975 7.63606 53.6503 7.76684 53.4809 7.85888C53.2776 7.96819 53.0513 8.02261 52.8225 8.01716H47.6693C47.2895 8.01716 47.0996 8.17545 47.0996 8.5184V10.8663C47.0925 10.9421 47.1026 11.0185 47.129 11.0895C47.1553 11.1605 47.1973 11.2241 47.2515 11.2752C47.3747 11.3601 47.5225 11.3974 47.6693 11.3807H53.5822C53.8151 11.3736 54.046 11.4281 54.2533 11.539C54.4319 11.6216 54.5853 11.754 54.6964 11.9215C54.808 12.0721 54.8936 12.2417 54.9497 12.4227C54.9987 12.5985 55.0243 12.7805 55.0256 12.9635C55.0253 13.164 54.9998 13.3636 54.9497 13.5571C54.8909 13.741 54.8055 13.9145 54.6964 14.0715C54.5789 14.2328 54.4272 14.3637 54.2533 14.4541C54.0428 14.5542 53.8135 14.6037 53.5822 14.5991H45.9853C45.5173 14.6069 45.0499 14.5583 44.5926 14.4541C44.2619 14.3659 43.9574 14.1937 43.7063 13.9528C43.4811 13.6958 43.324 13.3821 43.2505 13.0427C43.1557 12.61 43.1089 12.1674 43.1112 11.7237V7.76655C43.1086 7.32274 43.1553 6.88012 43.2505 6.44751C43.3126 6.0713 43.48 5.72258 43.7316 5.44505C43.9794 5.19938 44.2852 5.02645 44.6179 4.94381C45.0752 4.83961 45.5426 4.79092 46.0107 4.79872L52.8225 4.75915ZM43.7316 19.9544C43.7292 19.4103 43.8193 18.8699 43.9975 18.3584C44.1655 17.8652 44.4332 17.4154 44.7825 17.0394C45.1345 16.6482 45.5675 16.346 46.0487 16.1556C46.6385 15.9221 47.2664 15.8101 47.8972 15.8259H56.5197C57.1409 15.814 57.759 15.9213 58.3429 16.1424C58.8202 16.3344 59.252 16.6313 59.6091 17.013C59.9639 17.387 60.2361 17.8371 60.4067 18.332C60.7609 19.3867 60.7609 20.5354 60.4067 21.59C60.2319 22.0953 59.9515 22.5539 59.5859 22.9325C59.2202 23.3112 58.7784 23.6005 58.2923 23.7796C57.7083 24.0008 57.0903 24.1081 56.469 24.0962H47.9605C47.3297 24.112 46.7019 24 46.112 23.7664C45.6319 23.5817 45.1962 23.29 44.8354 22.9118C44.4746 22.5337 44.1973 22.0781 44.0228 21.5768C43.8338 21.0584 43.7352 20.509 43.7316 19.9544ZM47.8466 19.9544C47.8525 20.2368 47.936 20.5114 48.0871 20.7459C48.1932 20.8884 48.333 20.9997 48.4928 21.0691C48.6526 21.1385 48.8269 21.1634 48.9988 21.1416H55.4308C55.6026 21.1634 55.777 21.1385 55.9368 21.0691C56.0965 20.9997 56.2363 20.8884 56.3424 20.7459C56.4936 20.5114 56.5771 20.2368 56.583 19.9544C56.5737 19.6727 56.4905 19.399 56.3424 19.163C56.2334 19.0248 56.0927 18.9174 55.9335 18.8506C55.7742 18.7837 55.6013 18.7596 55.4308 18.7805H49.0241C48.8535 18.7596 48.6807 18.7837 48.5214 18.8506C48.3622 18.9174 48.2215 19.0248 48.1125 19.163C47.9644 19.399 47.8812 19.6727 47.8719 19.9544H47.8466ZM56.3931 6.23647C56.3733 5.94709 56.4166 5.6568 56.5196 5.38729C56.6227 5.11777 56.7828 4.87599 56.9882 4.68001C57.3833 4.33897 57.8804 4.15234 58.3936 4.15234C58.9067 4.15234 59.4038 4.33897 59.799 4.68001C60.0052 4.87593 60.1667 5.11735 60.2718 5.38663C60.377 5.65591 60.4231 5.94626 60.4067 6.23647V7.9644H61.0398C61.3024 7.95906 61.5626 8.01778 61.7995 8.13588C61.9901 8.23984 62.1582 8.38351 62.2933 8.55797C62.4094 8.73645 62.499 8.93209 62.5592 9.13835C62.6664 9.57093 62.6664 10.0248 62.5592 10.4574C62.4966 10.6668 62.4071 10.8664 62.2933 11.0509C62.1609 11.2248 61.992 11.3647 61.7995 11.4598C61.5606 11.5703 61.3012 11.6244 61.0398 11.6181H60.4067V15.2719H56.3931V6.23647Z" fill="white"/>
<path d="M69.8147 9.46709V9.84961C69.8147 10.0475 69.8147 10.2189 69.8147 10.3904C69.8147 10.5619 69.8147 10.7334 69.8147 10.9048C70.4269 10.8751 71.0384 10.9769 71.6113 11.2038C72.1841 11.4307 72.7061 11.7779 73.1447 12.2239C73.9467 13.428 74.2939 14.8981 74.1196 16.3525H70.3212C70.403 15.6919 70.2548 15.0226 69.9033 14.4662C69.7609 14.2551 69.5711 14.0834 69.3504 13.9661C69.1297 13.8489 68.8849 13.7896 68.6372 13.7935C68.1067 14.6308 67.3786 15.3121 66.5227 15.7721C65.6556 16.2049 64.711 16.4431 63.7499 16.4712C63.2961 16.5003 62.8472 16.36 62.4837 16.0755C62.3165 15.9404 62.1822 15.766 62.092 15.5665C62.0018 15.3671 61.9581 15.1483 61.9646 14.9279C61.9362 14.5161 62.0634 14.109 62.3191 13.7935C62.5717 13.5524 62.8906 13.4002 63.2307 13.3582C64.0257 13.2254 64.7465 12.7937 65.2566 12.1447C65.7523 11.4939 66.0082 10.6798 65.9783 9.84961V9.46709H63.446C63.2231 9.46908 63.0025 9.41952 62.8002 9.32199C62.6267 9.2197 62.4723 9.08565 62.3444 8.92628C62.2273 8.76559 62.1334 8.58782 62.0659 8.39867C62.0007 8.21262 61.9664 8.01634 61.9646 7.81829C61.9666 7.62229 61.9921 7.42731 62.0406 7.23792C62.1034 7.04099 62.1929 6.85444 62.3064 6.68392C62.4314 6.50957 62.5913 6.36556 62.7749 6.26183C62.9827 6.15248 63.2132 6.09812 63.446 6.10355H65.9783V5.98483C65.9615 5.7221 66.0018 5.45881 66.096 5.21448C66.1903 4.97016 66.3361 4.75107 66.5227 4.57347C66.9295 4.26363 67.4246 4.10563 67.9281 4.12499C68.4527 4.09364 68.9716 4.25207 69.3969 4.57347C69.5782 4.7541 69.7188 4.97438 69.8085 5.21843C69.8983 5.46248 69.935 5.72423 69.916 5.98483V6.10355H72.4483C72.6673 6.0971 72.8845 6.14663 73.081 6.24779C73.2774 6.34896 73.4471 6.4987 73.5752 6.68392C73.6982 6.84836 73.7886 7.03669 73.841 7.23792C73.8895 7.42731 73.915 7.62229 73.917 7.81829C73.9214 8.01691 73.8869 8.21437 73.8157 8.39867C73.6908 8.79155 73.4287 9.12114 73.0814 9.32199C72.8839 9.42063 72.6672 9.47029 72.4483 9.46709H69.8147ZM66.2315 23.9105C65.7575 23.9251 65.284 23.8673 64.8261 23.739C64.489 23.6533 64.1818 23.4705 63.9398 23.2114C63.7092 22.9429 63.5518 22.615 63.484 22.2617C63.3901 21.7889 63.3477 21.3067 63.3574 20.824V19.3203C63.3352 19.0289 63.3812 18.7362 63.4915 18.4674C63.6017 18.1986 63.773 17.9617 63.9904 17.777C64.4153 17.4738 64.9188 17.3127 65.4338 17.3153C65.9506 17.3 66.4578 17.4623 66.8772 17.777C67.0839 17.9685 67.2443 18.208 67.3455 18.4761C67.4467 18.7443 67.4858 19.0335 67.4597 19.3203V20.1645C67.4406 20.3218 67.4765 20.481 67.561 20.6129C67.7039 20.6797 67.8608 20.7069 68.0168 20.6921H79.0069C79.2254 20.661 79.4478 20.6802 79.6584 20.7485C79.869 20.8167 80.0626 20.9323 80.2256 21.087C80.3887 21.2417 80.5171 21.4319 80.6019 21.644C80.6866 21.8561 80.7257 22.085 80.7162 22.3145C80.7179 22.733 80.579 23.1389 80.3237 23.462C80.1609 23.6372 79.9631 23.773 79.7442 23.8596C79.5254 23.9462 79.291 23.9816 79.0576 23.9633L66.2315 23.9105ZM76.1581 12.5404H75.0059C74.7705 12.5696 74.5319 12.5379 74.3111 12.4482C74.0903 12.3585 73.894 12.2135 73.7398 12.026C73.5007 11.6911 73.376 11.2825 73.3852 10.8653C73.3847 10.6604 73.4103 10.4564 73.4612 10.2585C73.5111 10.0603 73.6018 9.87572 73.7271 9.7177C73.866 9.57381 74.035 9.46545 74.2209 9.40113C74.4717 9.30391 74.7385 9.25909 75.0059 9.26923H76.1581V6.19588C76.1391 5.90927 76.1841 5.62196 76.2895 5.35649C76.3949 5.09102 76.558 4.85461 76.7658 4.6658C77.0616 4.41727 77.4135 4.25166 77.788 4.18471C78.1625 4.11776 78.5472 4.15169 78.9056 4.28328C79.1474 4.37014 79.3709 4.50446 79.564 4.67899C79.7623 4.84908 79.9186 5.06618 80.0198 5.31213C80.1375 5.59018 80.1937 5.89218 80.1844 6.19588V19.0697H76.1581V12.5404Z" fill="white"/>
<path d="M97.657 13.6781C97.655 14.154 97.518 14.6186 97.2633 15.0136C97.0085 15.4087 96.6474 15.7164 96.2253 15.8982C95.8031 16.0801 95.3388 16.1279 94.8907 16.0356C94.4425 15.9433 94.0306 15.7151 93.7066 15.3796L91.1743 12.7416V20.5371C91.1743 22.0935 90.364 23.0696 89.0725 23.0696C88.7681 23.0723 88.4667 23.007 88.1886 22.8779C87.9105 22.7489 87.6623 22.5592 87.4606 22.3216C87.259 22.084 87.1086 21.8041 87.0197 21.5008C86.9308 21.1975 86.9055 20.8778 86.9454 20.5635V12.7943L84.4131 15.4324C84.1986 15.6559 83.9439 15.8331 83.6637 15.954C83.3834 16.075 83.0831 16.1372 82.7797 16.1372C82.4764 16.1372 82.176 16.075 81.8958 15.954C81.6155 15.8331 81.3609 15.6559 81.1464 15.4324C80.9319 15.209 80.7618 14.9437 80.6457 14.6517C80.5296 14.3598 80.4698 14.0469 80.4698 13.7309C80.4698 13.4148 80.5296 13.1019 80.6457 12.81C80.7618 12.518 80.9319 12.2527 81.1464 12.0293L87.4898 5.48689C87.9239 5.03743 88.5111 4.78516 89.1231 4.78516C89.7352 4.78516 90.3223 5.03743 90.7565 5.48689L96.9733 11.9765C97.191 12.1978 97.3637 12.4625 97.4812 12.7549C97.5987 13.0472 97.6584 13.3612 97.657 13.6781Z" fill="white"/>
</g>
<defs>
<radialGradient id="paint0_diamond_382_79174" cx="0" cy="0" r="1" gradientUnits="userSpaceOnUse" gradientTransform="translate(51.0802 14.0493) rotate(-179.607) scale(50.4957 306.047)">
<stop stop-color="#C1C1C1"/>
<stop offset="1" stop-color="#373737"/>
</radialGradient>
<clipPath id="clip0_382_79174">
<rect width="100.773" height="27.8184" fill="white" transform="translate(0.682983 0.167969)"/>
</clipPath>
</defs>
</svg>
