<svg width="139" height="30" viewBox="0 0 139 30" fill="none" xmlns="http://www.w3.org/2000/svg">
<g clip-path="url(#clip0_382_79105)">
<path d="M15.2049 29.2337C18.5435 29.2211 21.7801 28.0866 24.3904 26.0139C26.7589 27.9057 29.6572 29.0212 32.6877 29.2074C35.7182 29.3936 38.7323 28.6414 41.3164 27.0539C42.564 28.1574 44.144 28.8175 45.8089 28.9309C47.4737 29.0444 49.1293 28.6047 50.5162 27.6808C51.7635 28.5174 53.2331 28.9644 54.737 28.9644C56.2409 28.9644 57.7105 28.5174 58.9578 27.6808C60.2541 28.5392 61.7792 28.9908 63.3359 28.9772C64.3655 28.9758 65.3835 28.7623 66.3262 28.3504C67.2699 28.7596 68.2873 28.9729 69.3166 28.9772C70.967 28.9704 72.5677 28.4141 73.864 27.397C75.1603 26.3798 76.0778 24.9602 76.4704 23.3639C76.7647 24.4761 77.3298 25.4988 78.1158 26.3415C78.8681 27.1752 79.7983 27.8305 80.8382 28.2595C81.878 28.6884 83.0011 28.8801 84.125 28.8206H90.3202C91.3827 28.8414 92.4399 28.6675 93.4393 28.3076C94.6959 28.7279 96.0223 28.9021 97.3453 28.8206H102.482C104.439 28.9762 106.382 28.3855 107.919 27.1679L108.162 26.9399C109.57 28.2519 111.427 28.9804 113.356 28.9772C114.359 28.9801 115.352 28.7795 116.274 28.3876C117.196 27.9956 118.029 27.4206 118.721 26.6977C119.409 27.3368 120.209 27.844 121.082 28.1937L121.253 28.2649C122.522 28.6963 123.864 28.8754 125.202 28.792H130.267C132.225 28.9477 134.168 28.357 135.704 27.1394C136.457 26.5066 137.075 25.7303 137.522 24.8559C137.969 23.9816 138.236 23.0271 138.306 22.0486C138.377 21.0701 138.25 20.0873 137.934 19.1583C137.617 18.2293 137.117 17.3729 136.463 16.6394C136.681 15.982 136.792 15.2943 136.792 14.602C136.79 13.9609 136.698 13.3232 136.52 12.7072C137.714 11.3529 138.366 9.60843 138.351 7.80625C138.359 6.67382 138.096 5.55576 137.583 4.54485C137.071 3.53394 136.324 2.65931 135.404 1.99345C133.429 0.568754 131.884 0.568754 129.323 0.568754H125.374C124.416 0.51185 123.455 0.574073 122.513 0.753972C122.094 0.835793 121.683 0.950104 121.282 1.09589C119.83 0.599794 118.288 0.420033 116.761 0.568754H110.179C108.656 0.445466 107.122 0.580348 105.644 0.967668C104.304 0.622455 102.919 0.48786 101.537 0.568754H97.6171C96.6355 0.506607 95.6499 0.568849 94.6841 0.753972C93.1245 1.02812 91.7004 1.8098 90.635 2.9765C90.4037 3.21864 90.1886 3.47565 89.9911 3.74585L89.6764 3.28993C88.9715 2.39432 88.0697 1.67171 87.0403 1.17771C86.0109 0.683719 84.8814 0.431524 83.7387 0.440537C82.1343 0.416802 80.5663 0.917234 79.2747 1.86524C77.0985 0.854539 74.7039 0.3992 72.3069 0.540276H69.5741C68.0334 0.506701 66.5165 0.922699 65.2103 1.73702C63.5867 0.617327 61.5874 0.175245 59.6405 0.50545C57.6936 0.835655 55.954 1.91187 54.7943 3.50363C54.0687 2.53848 53.127 1.75518 52.0441 1.21602C50.9611 0.67685 49.7668 0.396689 48.5561 0.397797C46.7574 0.388182 45.0191 1.04302 43.6772 2.23567C43.3531 2.50568 43.056 2.80623 42.7901 3.13319C40.1685 1.07884 36.9255 -0.0309869 33.5896 -0.0154644C30.2536 5.82375e-05 27.0212 1.14005 24.419 3.21872C21.8252 1.12477 18.587 -0.0171423 15.2478 -0.0153774C13.32 -0.0153775 11.4111 0.362727 9.63012 1.09732C7.8491 1.83191 6.23083 2.90863 4.86769 4.26598C3.50456 5.62333 2.42326 7.23474 1.68553 9.00821C0.947809 10.7817 0.568115 12.6825 0.568115 14.602C0.568115 16.5216 0.947809 18.4224 1.68553 20.1959C2.42326 21.9693 3.50456 23.5808 4.86769 24.9381C6.23083 26.2955 7.8491 27.3722 9.63012 28.1068C11.4111 28.8414 13.32 29.2195 15.2478 29.2195L15.2049 29.2337Z" fill="url(#paint0_diamond_382_79105)"/>
<path d="M21.8423 6.66698C22.5089 7.10257 23.0701 7.67988 23.4857 8.35734C23.9014 9.03479 24.161 9.79555 24.246 10.5849C24.2455 11.1434 24.0998 11.6922 23.823 12.178C23.5463 12.6637 23.1479 13.0698 22.6667 13.3567C22.1855 13.6436 21.6379 13.8016 21.0772 13.8152C20.5165 13.8288 19.9619 13.6975 19.4673 13.4343C19.1382 13.2633 19.1382 13.2633 17.9506 12.0096C17.5123 11.5425 16.9644 11.191 16.356 10.9868C15.7477 10.7825 15.0979 10.732 14.465 10.8395C13.8322 10.9471 13.236 11.2094 12.7301 11.603C12.2242 11.9966 11.8244 12.5092 11.5665 13.0946C11.3086 13.6801 11.2008 14.3201 11.2526 14.9573C11.3045 15.5946 11.5145 16.2089 11.8637 16.7454C12.2129 17.2819 12.6904 17.7236 13.2533 18.0309C13.8163 18.3383 14.4471 18.5016 15.0891 18.5062C15.9967 18.4944 16.8738 18.1782 17.5786 17.6087C17.9882 17.2931 18.358 16.9296 18.6803 16.5259C18.9707 16.235 19.3164 16.0046 19.6971 15.848C20.0779 15.6915 20.4861 15.612 20.898 15.6141C21.7562 15.61 22.582 15.9398 23.1994 16.5334C23.8168 17.1269 24.177 17.9371 24.2031 18.7912C24.1278 19.5146 23.8973 20.2134 23.527 20.8402C23.1567 21.467 22.6553 22.0072 22.0569 22.4241C20.7918 23.5351 19.2746 24.3235 17.6358 24.7216C15.997 25.1196 14.2857 25.1154 12.6489 24.7093C11.0121 24.3031 9.49885 23.5072 8.23927 22.39C6.97969 21.2727 6.01146 19.8676 5.41782 18.2954C4.82417 16.7231 4.62287 15.0309 4.83124 13.364C5.03961 11.6972 5.6514 10.1058 6.61402 8.72642C7.57664 7.3471 8.86129 6.2212 10.3575 5.44555C11.8537 4.66989 13.5167 4.26768 15.2035 4.2735C17.6303 4.26893 19.981 5.11643 21.8423 6.66698Z" fill="white"/>
<path d="M44.0907 14.6025C44.102 16.6585 43.5003 18.6715 42.3617 20.3866C41.2232 22.1018 39.599 23.4419 37.695 24.2371C35.791 25.0324 33.6927 25.247 31.6661 24.8539C29.6394 24.4607 27.7756 23.4775 26.3106 22.0287C24.8456 20.5799 23.8454 18.7308 23.4366 16.7155C23.0279 14.7002 23.2291 12.6094 24.0146 10.7081C24.8001 8.80669 26.1347 7.18023 27.8493 6.03475C29.5639 4.88926 31.5814 4.27629 33.6461 4.27344C36.4038 4.27337 39.0496 5.35935 41.0063 7.2944C42.963 9.22945 44.0718 11.8565 44.0907 14.6025ZM29.783 14.6025C29.7602 15.3774 29.9705 16.1414 30.3869 16.7965C30.8033 17.4516 31.4067 17.9678 32.1198 18.2789C32.8329 18.59 33.6231 18.6818 34.389 18.5425C35.1549 18.4032 35.8616 18.0393 36.4182 17.4972C36.9749 16.9552 37.3561 16.2599 37.5131 15.5006C37.6701 14.7413 37.5956 13.9525 37.2992 13.2357C37.0028 12.5188 36.498 11.9065 35.8497 11.4773C35.2013 11.0481 34.4389 10.8217 33.6604 10.8271C32.6539 10.8227 31.6851 11.2082 30.9589 11.9021C30.2326 12.596 29.8058 13.5439 29.7687 14.5455L29.783 14.6025Z" fill="white"/>
<path d="M58.0269 6.4257C58.295 5.90018 58.7047 5.45927 59.21 5.15231C59.7154 4.84535 60.2965 4.68445 60.8885 4.68757C61.7212 4.69483 62.5217 5.00958 63.1348 5.57088C63.7138 6.14893 64.0729 6.90942 64.1506 7.72214L66.3969 20.4162C66.4761 20.7861 66.5144 21.1635 66.5114 21.5417C66.5038 22.3781 66.1639 23.1774 65.5659 23.7648C64.968 24.3522 64.1607 24.6799 63.3208 24.6761C62.57 24.7211 61.8283 24.493 61.2335 24.0345C60.6388 23.5759 60.2315 22.918 60.0872 22.1829L59.3432 18.4929L58.0698 21.9834C57.8852 22.7355 57.4575 23.4064 56.8526 23.8929C56.2477 24.3794 55.4991 24.6545 54.7218 24.6761C53.948 24.6694 53.1992 24.4027 52.5967 23.9191C51.9941 23.4355 51.5733 22.7634 51.4025 22.0119L50.0862 18.4929L49.5568 21.6272C49.5467 22.0722 49.4457 22.5106 49.2599 22.9154C49.0741 23.3203 48.8074 23.6833 48.476 23.9821C48.1447 24.2809 47.7557 24.5094 47.3328 24.6536C46.9098 24.7978 46.4619 24.8547 46.0161 24.8207C45.5704 24.7868 45.1362 24.6628 44.7402 24.4563C44.3442 24.2498 43.9946 23.9651 43.7127 23.6196C43.4308 23.2741 43.2226 22.8751 43.1007 22.4468C42.9789 22.0185 42.9459 21.5699 43.0038 21.1286C42.9896 20.8628 42.9896 20.5965 43.0038 20.3307L45.2645 7.72214C45.2925 7.29286 45.407 6.87359 45.6012 6.48931C45.7954 6.10503 46.0653 5.76363 46.3948 5.4854C46.9599 4.9675 47.7014 4.68238 48.4694 4.68757C49.167 4.69611 49.847 4.90677 50.4264 5.29388C51.0057 5.68098 51.4592 6.22777 51.7315 6.86736L54.6646 13.3925L58.0269 6.4257Z" fill="white"/>
<path d="M72.5494 20.9148C72.5494 23.1658 71.2475 24.676 69.3159 24.676C68.7782 24.6789 68.2479 24.5506 67.7715 24.3022C67.2951 24.0538 66.8871 23.693 66.5832 23.2513C66.0824 22.4535 66.0252 22.1258 66.0252 20.1454V8.63387C65.936 8.13827 65.9637 7.6288 66.1061 7.1457C66.2486 6.66259 66.5019 6.21908 66.846 5.85017C67.1901 5.48126 67.6157 5.19706 68.089 5.02C68.5623 4.84294 69.0705 4.77785 69.5735 4.82991H72.3206C75.4683 4.82991 76.8275 5.18608 78.3727 6.34009C79.2266 7.01263 79.9152 7.87039 80.3858 8.84801C80.8564 9.82562 81.0968 10.8973 81.0885 11.9814C81.0802 13.0656 80.8235 14.1335 80.338 15.1038C79.8525 16.0742 79.151 16.9214 78.2868 17.581C76.9644 18.5857 75.3267 19.0906 73.6654 19.0057H72.5638V20.9148H72.5494ZM72.5494 13.0077H72.993C74.2092 13.0077 74.7099 12.68 74.7099 11.8822C74.7099 11.0844 74.1233 10.8279 73.179 10.8279C72.9693 10.8161 72.7591 10.8161 72.5494 10.8279V13.0077Z" fill="white"/>
<path d="M90.2346 18.4074C91.052 18.3463 91.8656 18.5677 92.5381 19.0343C92.9248 19.3097 93.2396 19.6733 93.4561 20.0947C93.6727 20.516 93.7848 20.983 93.7829 21.4563C93.7779 21.89 93.6868 22.3184 93.5149 22.717C93.343 23.1155 93.0937 23.4763 92.7814 23.7786C92.4473 24.0594 92.0595 24.2698 91.6414 24.3971C91.2234 24.5245 90.7837 24.5661 90.349 24.5194H84.1538C83.6411 24.5708 83.1233 24.5051 82.6399 24.3274C82.1564 24.1496 81.72 23.8645 81.3638 23.4936C80.5626 22.5961 80.4767 22.1544 80.4767 19.419V8.32058C80.4243 7.86328 80.4696 7.40009 80.6097 6.96145C80.7497 6.52281 80.9814 6.11866 81.2895 5.77553C81.5976 5.43241 81.9751 5.15808 82.3973 4.97058C82.8194 4.78307 83.2767 4.68665 83.7389 4.68762C84.2209 4.68347 84.6977 4.78762 85.1337 4.99236C85.5697 5.1971 85.9537 5.49712 86.2571 5.8701C86.858 6.62519 87.001 7.2948 87.001 9.11841V18.4074H90.2346Z" fill="white"/>
<path d="M102.482 18.4355C103.455 18.3125 104.438 18.5789 105.214 19.1764C105.546 19.4691 105.812 19.8288 105.995 20.2316C106.177 20.6344 106.271 21.0711 106.271 21.5129C106.271 21.9547 106.177 22.3914 105.995 22.7942C105.812 23.197 105.546 23.5566 105.214 23.8494C104.831 24.1341 104.394 24.3399 103.93 24.4548C103.466 24.5698 102.983 24.5916 102.51 24.519H97.4452C96.616 24.5928 95.7802 24.5057 94.9843 24.2626C94.4835 24.0741 94.0428 23.7551 93.708 23.3391C93.3733 22.9231 93.1569 22.4253 93.0813 21.8976C92.98 21.2521 92.9512 20.5975 92.9955 19.9457V9.23201C92.9955 7.1377 93.11 6.63903 93.854 5.8697C94.3282 5.3488 94.9715 5.01083 95.671 4.91513C96.3374 4.80368 97.015 4.77497 97.6884 4.82965H101.566C104.055 4.82965 104.356 4.82965 105.128 5.45652C105.499 5.726 105.799 6.08023 106.003 6.48935C106.207 6.89847 106.31 7.35052 106.302 7.80731C106.312 8.25502 106.223 8.69945 106.04 9.10849C105.857 9.51752 105.584 9.88088 105.243 10.1723C104.535 10.7175 103.644 10.9724 102.753 10.8846H99.5198V12.3093H102.067C102.4 12.2715 102.737 12.3035 103.057 12.4031C103.376 12.5028 103.672 12.6679 103.924 12.8879C104.176 13.1079 104.379 13.378 104.52 13.6807C104.66 13.9834 104.736 14.3122 104.742 14.6458C104.748 15.0054 104.67 15.3613 104.513 15.6853C104.357 16.0094 104.127 16.2925 103.841 16.5122C103.266 16.9139 102.564 17.0914 101.866 17.0109H99.5198V18.4355H102.482Z" fill="white"/>
<path d="M108.289 10.885C107.841 10.9249 107.39 10.8693 106.966 10.7219C106.541 10.5745 106.153 10.3387 105.828 10.0303C105.253 9.4419 104.925 8.65706 104.912 7.83622C104.921 7.27872 105.082 6.73424 105.38 6.26199C105.678 5.78975 106.1 5.40783 106.6 5.15777C107.258 4.85859 107.516 4.83008 110.134 4.83008H116.787C119.12 4.83008 119.22 4.83011 119.892 5.1293C120.412 5.36885 120.854 5.75022 121.165 6.2293C121.477 6.70838 121.645 7.26555 121.652 7.83622C121.647 8.27875 121.549 8.71535 121.364 9.11783C121.18 9.5203 120.912 9.87967 120.579 10.1727C119.87 10.7166 118.98 10.9713 118.089 10.885H116.659V20.687C116.735 21.56 116.54 22.4354 116.101 23.1945C115.821 23.6428 115.428 24.0103 114.961 24.2603C114.494 24.5102 113.969 24.634 113.439 24.6192C112.906 24.6199 112.381 24.4904 111.909 24.242C111.438 23.9937 111.035 23.634 110.735 23.1945C110.243 22.4348 110.035 21.5269 110.149 20.63V10.7711L108.289 10.885Z" fill="white"/>
<path d="M130.195 18.4353C131.169 18.3123 132.151 18.5787 132.928 19.1762C133.26 19.4689 133.526 19.8286 133.708 20.2314C133.89 20.6342 133.985 21.0709 133.985 21.5127C133.985 21.9545 133.89 22.3912 133.708 22.794C133.526 23.1968 133.26 23.5564 132.928 23.8492C132.544 24.1339 132.108 24.3397 131.643 24.4546C131.179 24.5696 130.697 24.5914 130.224 24.5188H125.159C124.33 24.5926 123.494 24.5055 122.698 24.2624C122.197 24.0739 121.756 23.7549 121.422 23.3389C121.087 22.9229 120.871 22.4251 120.795 21.8974C120.694 21.2519 120.665 20.5973 120.709 19.9455V9.23181C120.709 7.1375 120.824 6.63883 121.568 5.8695C122.042 5.3486 122.685 5.01063 123.385 4.91493C124.046 4.80378 124.719 4.77507 125.388 4.82945H129.279C131.769 4.82945 132.069 4.82946 132.842 5.45632C133.213 5.7258 133.513 6.08003 133.717 6.48915C133.921 6.89827 134.023 7.35032 134.015 7.80711C134.022 8.25424 133.931 8.69741 133.748 9.10585C133.565 9.51429 133.295 9.87814 132.956 10.1721C132.248 10.7173 131.358 10.9722 130.467 10.8844H127.233V12.3091H129.78C130.113 12.2713 130.45 12.3033 130.77 12.4029C131.09 12.5026 131.385 12.6677 131.637 12.8877C131.889 13.1077 132.092 13.3778 132.233 13.6805C132.374 13.9832 132.45 14.312 132.456 14.6456C132.462 15.0052 132.384 15.3611 132.227 15.6851C132.071 16.0092 131.84 16.2923 131.554 16.512C130.98 16.9137 130.277 17.0912 129.58 17.0107H127.233V18.4353H130.195Z" fill="white"/>
</g>
<defs>
<radialGradient id="paint0_diamond_382_79105" cx="0" cy="0" r="1" gradientUnits="userSpaceOnUse" gradientTransform="translate(69.4597 14.6098) rotate(-179.697) scale(69.0211 322.365)">
<stop stop-color="#FF9900"/>
<stop offset="0.9999" stop-color="#FF0400"/>
<stop offset="1" stop-color="#FF0C0C"/>
</radialGradient>
<clipPath id="clip0_382_79105">
<rect width="137.869" height="29.2491" fill="white" transform="translate(0.438721)"/>
</clipPath>
</defs>
</svg>
