<svg width="111" height="29" viewBox="0 0 111 29" fill="none" xmlns="http://www.w3.org/2000/svg">
<g clip-path="url(#clip0_382_79136)">
<path d="M106.852 4.55481C105.855 3.58269 104.685 2.80312 103.402 2.25556C102.041 1.67991 100.577 1.38652 99.0986 1.39332H92.0139C90.5449 1.3819 89.0892 1.67091 87.7369 2.24248C86.6948 2.67614 85.7258 3.26655 84.8637 3.99307C82.7194 2.17317 80.0562 1.06835 77.2486 0.834007C74.4411 0.599667 71.6303 1.2476 69.2118 2.68666C68.8101 2.37042 68.3691 2.10696 67.8998 1.9028C66.4993 1.3388 64.9795 1.13223 63.4785 1.30186H57.4434C55.9953 1.1717 54.5356 1.31351 53.1401 1.71992C51.8323 1.16244 50.3823 1.02517 48.9924 1.32726C47.6025 1.62935 46.3419 2.35577 45.3863 3.4052C44.78 2.69223 44.0241 2.12031 43.1718 1.72981C42.3194 1.33932 41.3915 1.13973 40.4533 1.1451C39.4047 1.14249 38.3675 1.36062 37.4095 1.78523C36.0931 1.36552 34.7079 1.20143 33.3293 1.30186H29.7738C28.8737 1.24488 27.9699 1.30195 27.0842 1.4717C26.2421 1.63959 25.4375 1.95829 24.7096 2.41232C23.2246 1.37757 21.3904 0.966074 19.6033 1.26674C17.8162 1.56741 16.2195 2.55611 15.1584 4.01922C14.4931 3.1342 13.6296 2.4159 12.6366 1.9215C11.6436 1.4271 10.5484 1.1702 9.4382 1.17121C7.78888 1.1624 6.19485 1.76287 4.96436 2.85649C3.66901 3.96266 2.83213 5.50827 2.61591 7.19379L0.556124 18.7424V18.9907C0.556124 19.3826 0.477409 19.7745 0.477409 20.1664C0.440189 21.0973 0.592703 22.026 0.925778 22.8966C1.25885 23.7671 1.76559 24.5615 2.41538 25.2317C3.06518 25.902 3.84457 26.4342 4.70657 26.7963C5.56858 27.1584 6.49532 27.3429 7.43088 27.3386C8.8051 27.3483 10.15 26.9429 11.2881 26.1759C12.4344 26.9426 13.7841 27.352 15.165 27.352C16.5459 27.352 17.8955 26.9426 19.0419 26.1759C20.2248 26.965 21.6197 27.3794 23.0434 27.3648C24.0374 27.3577 25.018 27.1347 25.9166 26.7116C27.0802 27.1071 28.3105 27.2713 29.5377 27.1949H34.182C35.2969 27.2342 36.4092 27.0658 37.462 26.6985C38.3625 27.1148 39.3424 27.3331 40.3352 27.3386C41.2915 27.3414 42.2377 27.1439 43.1124 26.7591C43.9871 26.3742 44.7707 25.8106 45.4125 25.1047C46.0457 25.8108 46.8222 26.3751 47.6907 26.7602C48.5592 27.1453 49.4998 27.3424 50.4505 27.3386C51.3679 27.337 52.2759 27.155 53.1225 26.803C53.969 26.451 54.7374 25.936 55.3836 25.2876C56.0328 25.9392 56.8055 26.456 57.6568 26.808C58.5081 27.1601 59.421 27.3404 60.3428 27.3386C61.5094 27.35 62.6586 27.0569 63.6761 26.4884C64.6935 25.92 65.5436 25.0961 66.1418 24.0987C66.2523 23.9259 66.353 23.7471 66.4435 23.5631C67.6876 24.8504 69.1818 25.8721 70.8351 26.5661C72.4884 27.2601 74.2662 27.6118 76.0603 27.5999C79.5919 27.6028 82.9854 26.2343 85.5196 23.7852C85.8134 25.0175 86.5103 26.1175 87.5008 26.9122C88.4912 27.7068 89.7189 28.151 90.9906 28.1747H91.3842C92.856 28.0487 94.2316 27.394 95.2545 26.3327L98.3245 23.2757H99.1773C100.653 23.2833 102.114 22.9852 103.467 22.4004C104.767 21.8521 105.948 21.058 106.944 20.0619C107.946 19.0682 108.747 17.8931 109.306 16.5999C110.171 14.5904 110.406 12.3673 109.98 10.2224C109.554 8.07754 108.486 6.11104 106.918 4.58097L106.852 4.55481Z" fill="url(#paint0_diamond_382_79136)"/>
<path d="M18.1116 6.67201C18.3575 6.19012 18.7331 5.78582 19.1965 5.50434C19.6599 5.22287 20.1928 5.07532 20.7356 5.07819C21.4992 5.08485 22.2332 5.37347 22.7954 5.88816C23.3263 6.41821 23.6556 7.11556 23.7269 7.86081L25.7867 19.5009C25.8593 19.8401 25.8945 20.1862 25.8917 20.533C25.8847 21.2999 25.573 22.0329 25.0247 22.5715C24.4764 23.1101 23.7362 23.4106 22.966 23.4071C22.2781 23.4456 21.5993 23.2354 21.0546 22.8154C20.5099 22.3954 20.1357 21.7937 20.0009 21.1209L19.3187 17.7373L18.151 20.938C17.9816 21.6276 17.5895 22.2428 17.0348 22.6889C16.4802 23.135 15.7937 23.3874 15.081 23.4071C14.3714 23.401 13.6847 23.1564 13.1322 22.713C12.5797 22.2695 12.1939 21.6533 12.0372 20.9641L10.8302 17.7373L10.3447 20.6114C10.3355 21.0195 10.2429 21.4214 10.0725 21.7926C9.90213 22.1639 9.65756 22.4967 9.35374 22.7707C9.04993 23.0448 8.69322 23.2543 8.3054 23.3865C7.91758 23.5187 7.50676 23.5709 7.09803 23.5398C6.68929 23.5087 6.29121 23.3949 5.92807 23.2056C5.56492 23.0162 5.24434 22.7552 4.98586 22.4384C4.72739 22.1215 4.53646 21.7556 4.42471 21.3629C4.31296 20.9702 4.28275 20.5589 4.3359 20.1541C4.32288 19.9104 4.32288 19.6662 4.3359 19.4225L6.40881 7.86081C6.43452 7.46717 6.53954 7.08271 6.7176 6.73034C6.89567 6.37796 7.14314 6.06491 7.44528 5.80978C7.96351 5.33488 8.64337 5.07343 9.34764 5.07819C9.98733 5.08602 10.6109 5.27919 11.1421 5.63415C11.6733 5.98912 12.0892 6.49051 12.3389 7.07699L15.0285 13.0603L18.1116 6.67201Z" fill="white"/>
<path d="M34.1428 17.6845C35.0355 17.5716 35.9367 17.8159 36.6487 18.3638C36.9543 18.6259 37.1993 18.9508 37.3669 19.3161C37.5345 19.6815 37.6207 20.0786 37.6195 20.4802C37.6265 20.8904 37.5433 21.2971 37.3756 21.6717C37.2078 22.0464 36.9597 22.3799 36.6487 22.6489C36.2969 22.9099 35.8965 23.0986 35.4708 23.204C35.0451 23.3094 34.6026 23.3295 34.1691 23.2629H29.5247C28.7643 23.3305 27.9979 23.2507 27.2681 23.0277C26.8089 22.8549 26.4047 22.5624 26.0978 22.181C25.7909 21.7995 25.5924 21.343 25.5231 20.8591C25.4302 20.2673 25.4038 19.667 25.4444 19.0693V9.24512C25.4444 7.3247 25.5494 6.86743 26.2316 6.16197C26.6664 5.68432 27.2564 5.37441 27.8978 5.28666C28.5088 5.18446 29.1302 5.15813 29.7477 5.20828H33.3031C35.586 5.20828 35.8615 5.20828 36.57 5.7831C36.9121 6.02878 37.1897 6.35298 37.3793 6.72822C37.5688 7.10346 37.6647 7.51871 37.6589 7.93871C37.6661 8.35014 37.5816 8.75805 37.4115 9.13305C37.2413 9.50805 36.9897 9.84077 36.6749 10.1073C36.0268 10.6097 35.2091 10.8437 34.3921 10.7605H31.427V12.0669H33.7623C34.0677 12.0323 34.3768 12.0616 34.6701 12.153C34.9634 12.2443 35.2342 12.3957 35.4653 12.5975C35.6963 12.7993 35.8824 13.0469 36.0116 13.3245C36.1409 13.6021 36.2104 13.9035 36.2157 14.2095C36.2209 14.5377 36.1502 14.8628 36.0092 15.1595C35.8681 15.4562 35.6605 15.7167 35.4023 15.9209C34.8685 16.2847 34.2218 16.4468 33.5786 16.3781H31.427V17.6845H34.1428Z" fill="white"/>
<path d="M47.4465 8.73621C47.3586 7.91292 47.5528 7.08424 47.9975 6.38469C48.2642 5.98311 48.6267 5.65359 49.0525 5.42562C49.4784 5.19764 49.9543 5.07831 50.4378 5.07828C50.8751 5.08022 51.3065 5.17843 51.7011 5.36589C52.0958 5.55336 52.444 5.82541 52.7206 6.16259C53.2578 6.83353 53.5118 7.68618 53.4291 8.54026V19.5794C53.5622 20.5351 53.3279 21.5057 52.7731 22.2968C52.4935 22.6456 52.138 22.9267 51.7335 23.1191C51.329 23.3114 50.886 23.4099 50.4378 23.4072C49.9741 23.4065 49.5173 23.2945 49.1062 23.0807C48.6951 22.867 48.3418 22.5577 48.0762 22.1792L43.2875 16.1436V19.9322C43.3825 20.7872 43.1377 21.6453 42.6053 22.3229C42.3237 22.6702 41.966 22.9488 41.5596 23.1373C41.1531 23.3258 40.7088 23.4192 40.2606 23.4104C39.8124 23.4015 39.3721 23.2907 38.9735 23.0864C38.5749 22.882 38.2285 22.5896 37.9609 22.2314C37.4239 21.5016 37.1891 20.5943 37.3049 19.697V8.26593C37.2709 7.84421 37.3275 7.4201 37.471 7.02187C37.6144 6.62364 37.8414 6.2604 38.1368 5.95635C38.4322 5.65229 38.7893 5.4144 39.1843 5.25849C39.5792 5.10258 40.003 5.03222 40.4274 5.05213C40.8639 5.0583 41.2924 5.16966 41.6763 5.3767C42.0601 5.58373 42.3879 5.88029 42.6315 6.24097L47.4465 12.0545V8.73621Z" fill="white"/>
<path d="M55.7247 10.7612C55.3142 10.7978 54.9006 10.7468 54.5115 10.6116C54.1224 10.4764 53.7667 10.2603 53.4681 9.97741C52.9409 9.4379 52.6405 8.71822 52.6284 7.96553C52.6363 7.45433 52.7848 6.95505 53.0577 6.52201C53.3307 6.08898 53.7177 5.73877 54.1766 5.50947C54.7801 5.23513 55.0162 5.20898 57.4172 5.20898H63.4522C65.5907 5.20898 65.6826 5.20901 66.2992 5.48336C66.7762 5.70302 67.181 6.05273 67.4666 6.49203C67.7522 6.93133 67.907 7.44224 67.913 7.96553C67.9086 8.37133 67.8188 8.77167 67.6493 9.14073C67.4798 9.50979 67.2344 9.83933 66.929 10.108C66.2791 10.6068 65.4628 10.8404 64.6461 10.7612H63.3341V19.7493C63.4043 20.5499 63.2257 21.3526 62.8225 22.0486C62.5659 22.4597 62.2055 22.7967 61.7773 23.0259C61.3492 23.2551 60.8681 23.3686 60.3822 23.355C59.8931 23.3557 59.4113 23.237 58.9791 23.0092C58.5468 22.7815 58.1772 22.4516 57.9026 22.0486C57.4514 21.3521 57.2609 20.5195 57.3647 19.6971V10.6567L55.7247 10.7612Z" fill="white"/>
<path d="M85.6782 14.1707C85.6886 16.0559 85.1369 17.9019 84.0928 19.4746C83.0488 21.0473 81.5595 22.2762 79.8136 23.0054C78.0677 23.7346 76.1436 23.9314 74.2853 23.5709C72.4269 23.2104 70.7178 22.3089 69.3744 20.9803C68.031 19.6518 67.1139 17.9562 66.7391 16.1082C66.3643 14.2603 66.5487 12.3431 67.269 10.5996C67.9893 8.85609 69.2131 7.36467 70.7854 6.31429C72.3576 5.26391 74.2075 4.70183 76.1008 4.69922C78.6296 4.69916 81.0558 5.69497 82.85 7.46936C84.6443 9.24375 85.6609 11.6527 85.6782 14.1707ZM72.5585 14.1707C72.5376 14.8813 72.7304 15.5819 73.1122 16.1825C73.494 16.7832 74.0474 17.2566 74.7013 17.5419C75.3552 17.8271 76.0798 17.9113 76.7821 17.7836C77.4844 17.6559 78.1324 17.3221 78.6428 16.8251C79.1532 16.3281 79.5028 15.6905 79.6468 14.9942C79.7907 14.2979 79.7224 13.5747 79.4506 12.9173C79.1789 12.26 78.716 11.6985 78.1215 11.305C77.5269 10.9114 76.8279 10.7038 76.114 10.7087C75.191 10.7047 74.3027 11.0582 73.6367 11.6945C72.9708 12.3308 72.5794 13.2 72.5454 14.1184L72.5585 14.1707Z" fill="white"/>
<path d="M106.171 12.302C106.176 13.2358 105.988 14.1606 105.62 15.0193C104.898 16.7141 103.543 18.0633 101.841 18.7818C100.979 19.1488 100.05 19.3355 99.1123 19.3304H96.6852L92.4606 23.5371C92.3094 23.74 92.1162 23.9082 91.8941 24.0303C91.6719 24.1524 91.426 24.2255 91.173 24.2448C90.92 24.264 90.6658 24.2289 90.4276 24.1418C90.1894 24.0547 89.9728 23.9176 89.7924 23.7399C89.6121 23.5622 89.4721 23.348 89.3821 23.1117C89.2922 22.8755 89.2542 22.6227 89.2708 22.3706C89.2874 22.1185 89.3583 21.8729 89.4786 21.6504C89.5988 21.4279 89.7657 21.2337 89.9679 21.081L91.739 19.3174C89.9577 19.2666 88.2653 18.5316 87.0159 17.2663C86.3751 16.6138 85.8633 15.8471 85.5071 15.0062C85.1347 14.1304 84.9472 13.1877 84.9561 12.2366C84.9487 11.3068 85.1363 10.3857 85.5071 9.53235C85.8671 8.70899 86.3789 7.96015 87.0159 7.32455C88.3499 6.02294 90.1469 5.29968 92.0145 5.31267H99.0992C100.041 5.30655 100.975 5.49329 101.841 5.86134C102.681 6.21129 103.447 6.71667 104.098 7.35067C104.759 7.99584 105.282 8.76649 105.639 9.61699C105.995 10.4675 106.176 11.3805 106.171 12.302Z" fill="white"/>
</g>
<defs>
<radialGradient id="paint0_diamond_382_79136" cx="0" cy="0" r="1" gradientUnits="userSpaceOnUse" gradientTransform="translate(55.3295 14.4809) rotate(-179.644) scale(54.961 301.829)">
<stop stop-color="#FC60FF"/>
<stop offset="1" stop-color="#A839FF"/>
</radialGradient>
<clipPath id="clip0_382_79136">
<rect width="109.694" height="27.3824" fill="white" transform="translate(0.41272 0.779297)"/>
</clipPath>
</defs>
</svg>
