<svg width="165" height="31" viewBox="0 0 165 31" fill="none" xmlns="http://www.w3.org/2000/svg">
<g clip-path="url(#clip0_382_79125)">
<path d="M162.41 3.89951C161.71 3.0626 160.836 2.3871 159.847 1.91972C158.859 1.45235 157.781 1.20427 156.687 1.19259C155.644 1.18957 154.612 1.40489 153.659 1.82459C152.705 2.2443 151.85 2.85899 151.15 3.62882C150.489 2.85128 149.665 2.22762 148.735 1.80177C147.806 1.37591 146.794 1.15821 145.77 1.16407C143.819 1.13321 141.93 1.84685 140.491 3.15864C138.096 1.60627 135.3 0.779896 132.443 0.779896C129.585 0.779896 126.789 1.60627 124.395 3.15864C122.998 1.90061 121.184 1.2005 119.301 1.19259C117.351 1.17798 115.474 1.93066 114.079 3.2869C112.646 1.95354 110.761 1.20592 108.799 1.19259C107.816 1.20603 106.844 1.40922 105.938 1.79094C104.552 1.35713 103.093 1.20215 101.646 1.33503H95.064C92.3455 1.33503 91.3154 1.33503 89.856 2.00464C89.3722 2.21485 88.9158 2.48275 88.4968 2.80247C87.6929 2.17339 86.7693 1.71303 85.7818 1.44916C84.7943 1.18529 83.7633 1.12341 82.7511 1.2672C81.7389 1.411 80.7665 1.75749 79.8925 2.28581C79.0185 2.81414 78.261 3.51333 77.6658 4.34116C76.9612 3.37505 76.0388 2.58693 74.9728 2.04012C73.9069 1.4933 72.727 1.20303 71.5279 1.19259C69.7832 1.17798 68.0917 1.78999 66.7634 2.91647C65.3928 1.80538 63.6805 1.19681 61.9131 1.19259C60.243 1.17548 58.6156 1.71732 57.2917 2.73125C55.0832 1.4438 52.5683 0.769776 50.0091 0.779418C48.0712 0.771569 46.1509 1.1451 44.3585 1.87859C42.566 2.61209 40.9369 3.69107 39.5645 5.05351C39.1782 5.43818 38.8348 5.82283 38.4914 6.236L38.1909 5.59491C37.6435 4.4021 36.7945 3.37116 35.7271 2.60286C34.6597 1.83456 33.4104 1.35516 32.1013 1.21159C30.7921 1.06803 29.4679 1.26519 28.2582 1.78377C27.0485 2.30235 25.9946 3.12463 25.1996 4.17021V4.07047C24.4838 3.17634 23.5738 2.45542 22.5379 1.9619C21.502 1.46837 20.3673 1.21508 19.219 1.22107C17.269 1.20646 15.3921 1.95914 13.9966 3.31538C12.5648 1.97961 10.6792 1.2316 8.71712 1.22107C7.57345 1.21834 6.44398 1.47324 5.41325 1.96668C4.38251 2.46012 3.47721 3.17933 2.76512 4.07047C1.47471 5.56341 0.799937 7.48755 0.876513 9.45583V21.2951C0.754515 23.1014 1.2049 24.9003 2.1642 26.4383C2.8526 27.4732 3.78798 28.3221 4.88662 28.9089C5.98526 29.4956 7.21287 29.802 8.45957 29.8005C10.4115 29.8113 12.2887 29.0534 13.6819 27.692C15.0881 29.0512 16.973 29.8081 18.9328 29.8005C19.9152 29.8017 20.888 29.6079 21.7943 29.2307C22.7024 29.6026 23.6741 29.7961 24.6559 29.8005C25.7557 29.8156 26.8442 29.5779 27.8368 29.106C28.8294 28.634 29.6993 27.9405 30.379 27.0793H31.6094C32.2891 27.9405 33.159 28.634 34.1516 29.106C35.1442 29.5779 36.2326 29.8156 37.3325 29.8005C39.1297 29.7928 40.865 29.146 42.2257 27.9769C44.458 29.2959 47.0008 30.0038 49.5964 30.0288C52.192 30.0539 54.748 29.3951 57.0055 28.1194C58.3411 29.1823 60.0031 29.7557 61.7128 29.7435C62.6836 29.7576 63.6476 29.5798 64.549 29.2203C65.4503 28.8608 66.2711 28.3268 66.9637 27.6492C68.3478 29.0051 70.2159 29.7584 72.1574 29.7435C73.0225 29.7335 73.8793 29.5744 74.6899 29.2734C75.5005 29.5744 76.3572 29.7335 77.2223 29.7435C78.3221 29.7586 79.4107 29.5209 80.4032 29.049C81.3958 28.577 82.2657 27.8835 82.9454 27.0223H84.1759C84.851 27.8885 85.72 28.5856 86.7137 29.058C87.7073 29.5304 88.7981 29.7652 89.8989 29.7435C91.3115 29.7366 92.6941 29.3369 93.8908 28.5895C95.1071 29.3401 96.5089 29.7397 97.9399 29.7435C98.933 29.7494 99.9169 29.5542 100.832 29.1697C101.747 28.7851 102.574 28.2194 103.262 27.5068C103.963 28.2148 104.799 28.7771 105.72 29.161C106.641 29.545 107.629 29.743 108.628 29.7435C110.58 29.7543 112.457 28.9965 113.85 27.635C115.244 28.9697 117.103 29.7152 119.037 29.7152C120.97 29.7152 122.829 28.9697 124.223 27.635C126.594 29.17 129.364 29.982 132.192 29.9715C135.057 29.9771 137.862 29.1503 140.262 27.5923C140.982 28.2848 141.834 28.8264 142.768 29.1851C143.703 29.5437 144.699 29.7121 145.7 29.6802C146.701 29.6483 147.685 29.4169 148.594 28.9995C149.503 28.5821 150.319 27.9873 150.993 27.2503C151.683 28.0204 152.53 28.6358 153.477 29.0558C154.424 29.4758 155.45 29.6908 156.487 29.6866C157.633 29.6946 158.767 29.4421 159.801 28.9483C160.835 28.4546 161.742 27.7326 162.453 26.8372C163.622 25.2339 164.184 23.2711 164.041 21.2951V9.25635C164.172 7.33242 163.592 5.42736 162.41 3.89951Z" fill="url(#paint0_diamond_382_79125)"/>
<path d="M11.6932 21.2528C11.8349 22.2061 11.6375 23.1788 11.1352 24.0025C10.8469 24.4461 10.4501 24.8096 9.98214 25.0588C9.51416 25.308 8.99027 25.4348 8.45963 25.4272C7.92453 25.4266 7.39759 25.2966 6.92407 25.0484C6.45055 24.8003 6.04463 24.4414 5.74118 24.0025C5.25089 23.1635 5.0499 22.1878 5.16888 21.2244V9.45633C5.0497 8.51811 5.2954 7.57004 5.85564 6.80641C6.16141 6.41569 6.55181 6.09874 6.99773 5.87919C7.44365 5.65964 7.9336 5.54314 8.43103 5.53841C8.93825 5.54558 9.43779 5.66273 9.89492 5.88171C10.352 6.10069 10.7557 6.41626 11.0779 6.80641C11.6073 7.49027 11.6932 7.93192 11.6932 9.65581V12.3057H15.6993V9.62729C15.5694 8.62773 15.8084 7.61521 16.3718 6.77789C16.6678 6.38016 17.0542 6.05793 17.4993 5.83754C17.9445 5.61714 18.4357 5.50488 18.9329 5.50993C19.4274 5.51429 19.9149 5.6277 20.3602 5.84202C20.8055 6.05633 21.1975 6.36622 21.5082 6.74941C22.0524 7.542 22.2959 8.50146 22.195 9.45633V21.3526C22.2894 22.2567 22.0994 23.1677 21.6513 23.9598C21.3678 24.4345 20.9659 24.8283 20.4846 25.1028C20.0033 25.3774 19.459 25.5235 18.9043 25.5269C18.3954 25.5269 17.8936 25.4084 17.439 25.1808C16.9843 24.9532 16.5895 24.6229 16.2859 24.2162C15.7519 23.3675 15.5342 22.359 15.6707 21.3668V18.5174H11.6646L11.6932 21.2528Z" fill="white"/>
<path d="M24.6553 25.4548C24.2283 25.4549 23.8054 25.3706 23.4112 25.207C23.0171 25.0434 22.6593 24.8037 22.3587 24.5017C22.0581 24.1997 21.8204 23.8414 21.6596 23.4475C21.4988 23.0535 21.418 22.6318 21.4218 22.2065C21.4376 21.6094 21.5789 21.0221 21.8367 20.4826L28.0033 7.37542C28.2712 6.7969 28.6999 6.3069 29.2387 5.96346C29.7775 5.62002 30.4039 5.4375 31.0437 5.4375C31.6834 5.4375 32.3098 5.62002 32.8487 5.96346C33.3875 6.3069 33.8162 6.7969 34.0841 7.37542L40.3079 20.5681C40.5472 21.0673 40.6788 21.6109 40.6942 22.1638C40.6905 22.5904 40.6024 23.012 40.435 23.4047C40.2676 23.7974 40.0241 24.1534 39.7185 24.4524C39.413 24.7514 39.0513 24.9875 38.654 25.1473C38.2568 25.3071 37.8319 25.3873 37.4035 25.3836C35.8582 25.3836 34.9998 24.6712 34.0555 22.6624H28.0033C27.1735 24.657 26.2005 25.4548 24.6553 25.4548ZM32.0381 18.0321L30.9936 15.6814L30.0207 18.0321H32.0381Z" fill="white"/>
<path d="M56.3883 7.44736C57.0549 7.88294 57.6162 8.46025 58.0318 9.13771C58.4474 9.81517 58.707 10.5759 58.792 11.3653C58.7915 11.9238 58.6458 12.4726 58.3691 12.9583C58.0923 13.4441 57.6939 13.8502 57.2128 14.1371C56.7316 14.424 56.184 14.582 55.6233 14.5956C55.0626 14.6091 54.5079 14.4779 54.0133 14.2147C53.6842 14.0437 53.6842 14.0437 52.4966 12.79C52.0584 12.3228 51.5104 11.9714 50.9021 11.7672C50.2937 11.5629 49.6439 11.5123 49.011 11.6199C48.3782 11.7274 47.782 11.9898 47.2761 12.3834C46.7702 12.777 46.3704 13.2895 46.1126 13.875C45.8547 14.4604 45.7468 15.1005 45.7987 15.7377C45.8506 16.3749 46.0605 16.9893 46.4097 17.5258C46.7589 18.0622 47.2364 18.504 47.7994 18.8113C48.3623 19.1186 48.9931 19.2819 49.6351 19.2866C50.5427 19.2748 51.4198 18.9586 52.1247 18.389C52.5342 18.0734 52.9041 17.7099 53.2264 17.3063C53.5168 17.0154 53.8624 16.785 54.2431 16.6284C54.6239 16.4719 55.0321 16.3924 55.444 16.3945C56.3022 16.3904 57.128 16.7202 57.7454 17.3137C58.3629 17.9072 58.723 18.7174 58.7491 19.5716C58.6739 20.2949 58.4433 20.9937 58.073 21.6206C57.7027 22.2474 57.2013 22.7876 56.6029 23.2045C55.3396 24.3232 53.8218 25.1188 52.1806 25.5227C50.5393 25.9266 48.824 25.9266 47.1828 25.5228C45.5416 25.119 44.0237 24.3234 42.7603 23.2048C41.4969 22.0862 40.5259 20.6782 39.9312 19.1023C39.3365 17.5265 39.136 15.8302 39.3469 14.1599C39.5578 12.4896 40.1738 10.8956 41.1418 9.51537C42.1098 8.13518 43.4006 7.01035 44.9028 6.23801C46.4049 5.46567 48.0733 5.06904 49.7639 5.08236C52.1817 5.07556 54.5256 5.91235 56.3883 7.44736Z" fill="white"/>
<path d="M68.5936 6.9629C68.8829 6.50842 69.282 6.13336 69.7544 5.87203C70.2268 5.61071 70.7574 5.47148 71.2978 5.46699C72.165 5.47763 72.9945 5.82154 73.6131 6.42686C74.2317 7.03218 74.5914 7.85209 74.6172 8.7153C74.6149 9.32699 74.4252 9.92339 74.0735 10.4249L70.7541 15.2404L74.8175 20.3693C75.2214 20.8706 75.4433 21.4932 75.447 22.1359C75.4471 23.009 75.1017 23.8469 74.4858 24.4682C73.8699 25.0896 73.033 25.4443 72.1563 25.4555C71.7259 25.4672 71.298 25.3853 70.9027 25.2155C70.5073 25.0457 70.1539 24.7922 69.867 24.4725L64.9738 18.3035V21.6943C64.9738 23.9738 63.6718 25.4555 61.7116 25.4555C61.2364 25.4618 60.7654 25.366 60.3308 25.1746C59.8961 24.9833 59.508 24.7008 59.193 24.3465C58.8779 23.9922 58.6433 23.5744 58.5051 23.1216C58.3669 22.6688 58.3284 22.1917 58.3922 21.7228V9.09995C58.3395 8.64025 58.3855 8.17463 58.5272 7.73399C58.669 7.29335 58.9033 6.88775 59.2145 6.54416C59.5257 6.20058 59.9068 5.92684 60.3324 5.74112C60.758 5.5554 61.2184 5.46197 61.683 5.46699C62.6112 5.48011 63.4962 5.85924 64.144 6.52125C64.7566 7.24649 65.055 8.1842 64.9738 9.12843V12.3055L68.5936 6.9629Z" fill="white"/>
<path d="M77.2213 25.4544C76.3711 25.4545 75.5551 25.1211 74.9499 24.5265C74.3447 23.9319 73.9991 23.1239 73.9878 22.2773C74.0036 21.6801 74.1449 21.0929 74.4027 20.5535L80.5693 7.44622C80.837 6.87424 81.2635 6.39051 81.7985 6.05221C82.3335 5.71391 82.9545 5.53518 83.5882 5.53713C84.2363 5.53671 84.8706 5.7236 85.4141 6.07513C85.9576 6.42665 86.3869 6.92771 86.6501 7.51748L92.8739 20.7102C93.1132 21.2093 93.2448 21.7529 93.2602 22.3058C93.2565 22.7324 93.1684 23.1541 93.001 23.5468C92.8336 23.9395 92.5902 24.2954 92.2846 24.5944C91.979 24.8934 91.6172 25.1296 91.22 25.2893C90.8228 25.4491 90.3978 25.5294 89.9695 25.5256C88.4242 25.5256 87.5658 24.8133 86.6215 22.8045H80.5693C79.7394 24.6566 78.7665 25.4544 77.2213 25.4544ZM84.6041 18.0317L83.5596 15.681L82.5867 18.0317H84.6041Z" fill="white"/>
<path d="M92.9875 11.6643C92.5398 11.7042 92.0888 11.6486 91.6644 11.5012C91.2401 11.3538 90.8522 11.118 90.5266 10.8096C89.9516 10.2212 89.624 9.43636 89.6108 8.61551C89.6194 8.05802 89.7813 7.51353 90.079 7.04129C90.3767 6.56905 90.7987 6.18713 91.2991 5.93707C91.9573 5.63788 92.2148 5.60938 94.8331 5.60938H101.415C103.747 5.60938 103.847 5.60941 104.519 5.90859C105.04 6.14814 105.481 6.52952 105.793 7.0086C106.104 7.48767 106.273 8.04484 106.279 8.61551C106.275 9.05805 106.177 9.49465 105.992 9.89712C105.807 10.2996 105.539 10.659 105.206 10.952C104.497 11.4959 103.607 11.7506 102.717 11.6643H101.286V21.4663C101.362 22.3393 101.168 23.2147 100.728 23.9738C100.448 24.4221 100.055 24.7896 99.5881 25.0396C99.1212 25.2895 98.5966 25.4133 98.0667 25.3985C97.5333 25.3992 97.0079 25.2697 96.5365 25.0213C96.0651 24.773 95.662 24.4133 95.3626 23.9738C94.8705 23.2141 94.6628 22.3062 94.7759 21.4093V11.5504L92.9875 11.6643Z" fill="white"/>
<path d="M111.932 21.2528C112.073 22.2061 111.876 23.1788 111.374 24.0025C111.085 24.4461 110.689 24.8096 110.221 25.0588C109.753 25.308 109.229 25.4348 108.698 25.4272C108.161 25.4265 107.632 25.2966 107.156 25.0485C106.68 24.8005 106.272 24.4416 105.965 24.0025C105.488 23.1589 105.292 22.1859 105.407 21.2244V9.45633C105.281 8.51764 105.527 7.56681 106.094 6.80641C106.4 6.41569 106.79 6.09874 107.236 5.87919C107.682 5.65964 108.172 5.54314 108.669 5.53841C109.175 5.54572 109.672 5.66302 110.127 5.88206C110.582 6.10111 110.983 6.41661 111.302 6.80641C111.846 7.49027 111.932 7.93192 111.932 9.65581V12.3057H115.938V9.62729C115.808 8.62773 116.047 7.61521 116.61 6.77789C116.906 6.38016 117.293 6.05793 117.738 5.83754C118.183 5.61714 118.674 5.50488 119.171 5.50993C119.666 5.51429 120.153 5.6277 120.599 5.84202C121.044 6.05633 121.436 6.36622 121.747 6.74941C122.294 7.53052 122.548 8.47902 122.462 9.42785V21.324C122.556 22.2282 122.366 23.1393 121.918 23.9313C121.635 24.406 121.233 24.7998 120.752 25.0744C120.27 25.3489 119.726 25.495 119.171 25.4984C118.662 25.4985 118.161 25.3799 117.706 25.1523C117.251 24.9247 116.857 24.5944 116.553 24.1877C116.019 23.339 115.801 22.3305 115.938 21.3383V18.4889H111.932V21.2528Z" fill="white"/>
<path d="M142.766 15.3818C142.777 17.4377 142.175 19.4508 141.037 21.1659C139.898 22.8811 138.274 24.2212 136.37 25.0164C134.466 25.8117 132.368 26.0263 130.341 25.6332C128.314 25.24 126.451 24.2568 124.986 22.808C123.521 21.3592 122.52 19.5101 122.112 17.4948C121.703 15.4795 121.904 13.3887 122.69 11.4874C123.475 9.58599 124.81 7.95953 126.524 6.81404C128.239 5.66856 130.256 5.05559 132.321 5.05273C135.079 5.05267 137.725 6.13864 139.681 8.0737C141.638 10.0088 142.747 12.6358 142.766 15.3818ZM128.458 15.3818C128.435 16.1567 128.645 16.9207 129.062 17.5758C129.478 18.2309 130.082 18.7471 130.795 19.0582C131.508 19.3693 132.298 19.4611 133.064 19.3218C133.83 19.1825 134.536 18.8186 135.093 18.2765C135.65 17.7345 136.031 17.0392 136.188 16.2799C136.345 15.5206 136.271 14.7318 135.974 14.015C135.678 13.2981 135.173 12.6858 134.525 12.2566C133.876 11.8274 133.114 11.601 132.335 11.6064C131.329 11.602 130.36 11.9875 129.634 12.6814C128.908 13.3753 128.481 14.3232 128.444 15.3248L128.458 15.3818Z" fill="white"/>
<path d="M153.295 9.45622C153.203 8.56046 153.409 7.65935 153.882 6.89178C154.163 6.47716 154.538 6.13386 154.976 5.88939C155.415 5.64492 155.905 5.50606 156.407 5.48391C156.909 5.46175 157.409 5.55693 157.867 5.76182C158.326 5.96671 158.73 6.27561 159.047 6.66382C159.633 7.39551 159.91 8.32533 159.82 9.25674V21.2955C159.955 22.3372 159.7 23.3922 159.104 24.2589C158.799 24.6393 158.412 24.9459 157.97 25.1556C157.529 25.3654 157.046 25.4728 156.557 25.4698C156.052 25.469 155.553 25.3469 155.105 25.1138C154.657 24.8807 154.272 24.5434 153.982 24.1306L148.76 17.5485V21.6801C148.856 22.612 148.589 23.545 148.016 24.2873C147.709 24.6661 147.318 24.97 146.875 25.1755C146.432 25.3811 145.948 25.4829 145.459 25.4733C144.97 25.4637 144.49 25.3428 144.055 25.1199C143.62 24.8971 143.243 24.5782 142.951 24.1876C142.36 23.3943 142.103 22.4026 142.235 21.4237V8.95757C142.198 8.49767 142.26 8.0352 142.416 7.60091C142.573 7.16662 142.82 6.7705 143.143 6.43891C143.465 6.10732 143.854 5.84785 144.285 5.67782C144.716 5.50779 145.178 5.4311 145.641 5.45282C146.117 5.45955 146.584 5.581 147.003 5.80678C147.421 6.03256 147.779 6.35596 148.044 6.7493L153.295 13.0892V9.45622Z" fill="white"/>
</g>
<defs>
<radialGradient id="paint0_diamond_382_79125" cx="0" cy="0" r="1" gradientUnits="userSpaceOnUse" gradientTransform="translate(82.4601 15.4044) rotate(-179.745) scale(81.7562 322.359)">
<stop stop-color="#A8A8A8"/>
<stop offset="1" stop-color="#002C9D"/>
</radialGradient>
<clipPath id="clip0_382_79125">
<rect width="163.236" height="29.2491" fill="white" transform="translate(0.876465 0.779297)"/>
</clipPath>
</defs>
</svg>
