<svg width="140" height="27" viewBox="0 0 140 27" fill="none" xmlns="http://www.w3.org/2000/svg">
<g clip-path="url(#clip0_382_79144)">
<path d="M137.959 15.8567V15.7812C138.724 14.3882 139.116 12.8292 139.096 11.2493C139.084 9.75352 138.729 8.27921 138.058 6.93352C137.388 5.58783 136.417 4.40457 135.218 3.4697C133.058 1.83057 130.348 1.03595 127.618 1.24155H125.162C123.282 1.13441 121.431 1.73366 119.991 2.91581C117.896 1.55675 115.45 0.802472 112.934 0.740101C110.418 0.67773 107.935 1.30981 105.772 2.56334C105.373 2.26625 104.939 2.01689 104.479 1.82062C103.092 1.27295 101.585 1.07383 100.097 1.24155H94.1512C92.5568 1.07003 90.9434 1.27291 89.446 1.83321C89.1618 1.94645 88.8891 2.08554 88.6317 2.24863C86.7461 1.25645 84.6348 0.741356 82.4916 0.750607C79.9794 0.751088 77.5187 1.4451 75.3951 2.75216C75.3046 2.67663 75.2141 2.58851 75.1236 2.52557C73.3268 1.26673 71.9308 1.26673 69.617 1.26673H66.101C65.2356 1.21553 64.367 1.27051 63.5157 1.43038C62.1067 1.67261 60.8201 2.3633 59.8576 3.39417C59.6486 3.60812 59.4543 3.8352 59.2759 4.07395L58.9915 3.67112C58.3547 2.87977 57.5399 2.24128 56.6099 1.8048C55.6799 1.36831 54.6594 1.14547 53.627 1.15344C52.5155 1.14333 51.4192 1.40548 50.4389 1.91581C49.4587 2.42614 48.6258 3.16826 48.017 4.07395C47.9265 3.94806 47.849 3.80959 47.7455 3.68371C47.1087 2.89236 46.294 2.25387 45.3639 1.81738C44.4339 1.3809 43.4135 1.15806 42.3811 1.16602C40.6717 1.15632 39.024 1.78735 37.7793 2.9284C35.4254 1.42425 32.6428 0.684722 29.8306 0.815889C27.0183 0.947056 24.321 1.94218 22.1255 3.65853C19.5736 1.62277 16.3354 0.584154 13.0407 0.744697C9.74606 0.905239 6.63049 2.25346 4.30002 4.52713C2.42702 6.32771 1.14834 8.63162 0.627625 11.144C0.106908 13.6564 0.367843 16.2629 1.37704 18.63C2.38623 20.9971 4.09777 23.0171 6.2926 24.4315C8.48744 25.8459 11.0657 26.5903 13.6975 26.5694C16.7177 26.5582 19.6459 25.5559 22.0091 23.7245C24.3586 25.5801 27.2958 26.5855 30.3208 26.5694C32.9448 26.573 35.5117 25.8244 37.7018 24.4168C39.0484 25.6177 40.8281 26.2513 42.6526 26.1792H48.2497C49.2151 26.1999 50.1757 26.0418 51.0805 25.7134C51.9838 26.0311 52.9382 26.1888 53.8985 26.1792H59.4956C60.4513 26.1978 61.4023 26.0441 62.3006 25.726C63.4403 26.0974 64.6429 26.2513 65.8425 26.1792H70.4184C72.2065 26.3354 73.9879 25.8172 75.3951 24.7315C75.4219 24.6991 75.4522 24.6695 75.4855 24.6434C77.5856 25.9114 80.0077 26.5829 82.4787 26.582C85.6957 26.5799 88.8053 25.4543 91.2428 23.4097L91.3462 23.5608C91.9781 24.4409 92.8199 25.1584 93.7993 25.6517C94.7787 26.1451 95.8665 26.3995 96.9692 26.3932C98.1207 26.4064 99.2557 26.125 100.261 25.5772C101.265 25.0293 102.105 24.2342 102.696 23.2713C102.799 23.095 102.902 22.9314 102.993 22.7551C104.218 23.9967 105.69 24.982 107.319 25.6508C108.948 26.3196 110.7 26.6579 112.468 26.645C115.053 26.6519 117.583 25.921 119.745 24.5427C121.038 25.7177 122.748 26.3585 124.515 26.3303C125.902 26.3357 127.257 25.9223 128.393 25.1469C129.528 25.9254 130.883 26.3391 132.271 26.3303C133.167 26.3437 134.056 26.1826 134.887 25.8565C135.718 25.5304 136.474 25.0459 137.11 24.4313C137.745 23.8168 138.249 23.0847 138.59 22.278C138.931 21.4713 139.103 20.6063 139.096 19.7339C139.085 18.365 138.692 17.0248 137.959 15.8567Z" fill="url(#paint0_diamond_382_79144)"/>
<path d="M19.8114 6.64108C20.4121 7.02925 20.9172 7.54206 21.2904 8.14276C21.6637 8.74345 21.8958 9.41713 21.9701 10.1155C21.9722 10.6085 21.8427 11.0937 21.5942 11.5233C21.3458 11.9529 20.9869 12.3123 20.5529 12.5662C20.1188 12.82 19.6245 12.9597 19.1183 12.9714C18.6122 12.9832 18.1116 12.8666 17.6656 12.6332C17.3683 12.4821 17.3683 12.4821 16.2954 11.3743C15.9641 11.0313 15.5632 10.759 15.1182 10.5748C14.6732 10.3906 14.1937 10.2985 13.7101 10.3043C12.8195 10.3571 11.9832 10.7388 11.3717 11.3716C10.7603 12.0044 10.4198 12.8406 10.4198 13.7095C10.4198 14.5784 10.7603 15.4146 11.3717 16.0474C11.9832 16.6802 12.8195 17.0619 13.7101 17.1146C14.5226 17.0831 15.3026 16.796 15.9335 16.2964C16.2971 16.0059 16.6305 15.6812 16.9288 15.3271C17.462 14.8126 18.1818 14.5232 18.9324 14.5214C19.7064 14.5179 20.4511 14.8097 21.0069 15.3345C21.5626 15.8592 21.8852 16.5751 21.9055 17.3286C21.8398 17.967 21.6338 18.5841 21.3015 19.138C20.9692 19.6919 20.5182 20.1696 19.9794 20.5387C18.2548 22.0001 16.048 22.8088 13.7618 22.8172C12.2531 22.8132 10.7676 22.4554 9.43078 21.7742C8.09399 21.0931 6.94527 20.1084 6.08172 18.9036C5.21817 17.6988 4.66518 16.3092 4.46951 14.8524C4.27384 13.3955 4.44123 11.9142 4.95753 10.5336C5.47384 9.15302 6.32388 7.9138 7.4358 6.92071C8.54771 5.92761 9.88881 5.20982 11.3457 4.82804C12.8026 4.44625 14.3325 4.41168 15.806 4.72725C17.2795 5.04283 18.6534 5.69927 19.8114 6.64108Z" fill="white"/>
<path d="M39.8604 13.6537C39.8935 14.886 39.6713 16.1122 39.2071 17.2591C38.7429 18.406 38.0462 19.45 37.1585 20.3289C36.2709 21.2078 35.2105 21.9035 34.0406 22.3745C32.8708 22.8455 31.6155 23.0821 30.3497 23.0703C29.0839 23.0584 27.8336 22.7983 26.6733 22.3055C25.513 21.8127 24.4665 21.0973 23.5963 20.202C22.7262 19.3067 22.0502 18.2498 21.6087 17.0944C21.1672 15.9391 20.9692 14.7089 21.0267 13.4774C21.1374 11.1028 22.1899 8.86271 23.9627 7.22873C25.7354 5.59474 28.0901 4.69438 30.5308 4.71722C32.9716 4.74006 35.308 5.68432 37.0482 7.35117C38.7884 9.01803 39.7965 11.2774 39.8604 13.6537ZM26.934 13.6537C26.9134 14.3384 27.1034 15.0135 27.4796 15.5923C27.8558 16.1711 28.401 16.6272 29.0452 16.9021C29.6895 17.177 30.4034 17.2581 31.0954 17.135C31.7873 17.012 32.4257 16.6903 32.9286 16.2114C33.4315 15.7325 33.776 15.1182 33.9178 14.4472C34.0597 13.7763 33.9924 13.0794 33.7246 12.446C33.4568 11.8126 33.0008 11.2715 32.415 10.8923C31.8292 10.5131 31.1404 10.313 30.4371 10.3177C29.5277 10.3139 28.6525 10.6545 27.9964 11.2676C27.3402 11.8808 26.9546 12.7184 26.9211 13.6033L26.934 13.6537Z" fill="white"/>
<path d="M50.2791 17.5673C50.6269 17.812 50.9102 18.1336 51.1056 18.5056C51.3011 18.8776 51.4033 19.2894 51.4037 19.7073C51.3855 20.4831 51.0615 21.2223 50.4989 21.7718C50.1941 22.0146 49.8431 22.1963 49.466 22.3065C49.0888 22.4167 48.693 22.4532 48.3014 22.4138H42.7043C42.2408 22.4621 41.7722 22.4054 41.3349 22.2481C40.8977 22.0909 40.5037 21.8374 40.1836 21.5074C39.4597 20.7269 39.3822 20.3367 39.3822 17.9071V8.10077C39.3348 7.69671 39.3757 7.28744 39.5022 6.89987C39.6288 6.5123 39.8381 6.15519 40.1165 5.85201C40.3948 5.54883 40.7359 5.30644 41.1173 5.14076C41.4987 4.97509 41.9118 4.88988 42.3294 4.89073C42.7649 4.88706 43.1956 4.9791 43.5895 5.16C43.9834 5.34091 44.3303 5.60601 44.6044 5.93557C45.1344 6.61534 45.2766 7.19441 45.2766 8.80572V17.0134H48.2497C48.9708 16.971 49.6856 17.166 50.2791 17.5673Z" fill="white"/>
<path d="M61.525 17.5673C61.8728 17.812 62.156 18.1336 62.3515 18.5056C62.547 18.8776 62.6491 19.2894 62.6496 19.7073C62.6314 20.4831 62.3074 21.2223 61.7447 21.7718C61.44 22.0146 61.0889 22.1963 60.7118 22.3065C60.3347 22.4167 59.9389 22.4532 59.5472 22.4138H53.9501C53.4867 22.4621 53.018 22.4054 52.5808 22.2481C52.1435 22.0909 51.7495 21.8374 51.4295 21.5074C50.7056 20.7269 50.628 20.3367 50.628 17.9071V8.10077C50.5806 7.69671 50.6215 7.28744 50.7481 6.89987C50.8746 6.5123 51.084 6.15519 51.3623 5.85201C51.6407 5.54883 51.9818 5.30644 52.3632 5.14076C52.7446 4.97509 53.1576 4.88988 53.5752 4.89073C54.0107 4.88706 54.4414 4.9791 54.8353 5.16C55.2292 5.34091 55.5762 5.60601 55.8503 5.93557C56.3803 6.61534 56.5225 7.19441 56.5225 8.80572V17.0134H59.4438C60.1823 16.9593 60.9173 17.155 61.525 17.5673Z" fill="white"/>
<path d="M70.4443 17.1145C71.3218 17.0049 72.2085 17.2355 72.9132 17.7565C73.2133 18.0152 73.4537 18.333 73.6183 18.6889C73.7829 19.0448 73.868 19.4306 73.868 19.821C73.868 20.2113 73.7829 20.5972 73.6183 20.9531C73.4537 21.309 73.2133 21.6268 72.9132 21.8855C72.5666 22.137 72.1722 22.3188 71.7527 22.4204C71.3333 22.522 70.8973 22.5413 70.4701 22.4771H65.8942C65.1383 22.5099 64.383 22.3987 63.6708 22.1498C63.2177 21.9844 62.8188 21.703 62.5162 21.3352C62.2136 20.9674 62.0186 20.5269 61.9516 20.0601C61.8629 19.5023 61.8369 18.9367 61.8741 18.3733V8.90682C61.8741 7.05632 61.9775 6.61573 62.6497 5.93595C63.0788 5.48323 63.653 5.18585 64.2784 5.09253C64.8805 4.99545 65.4926 4.97008 66.101 5.017H69.617C71.8662 5.017 72.1376 5.017 72.8227 5.57089C73.1616 5.80885 73.4363 6.12326 73.6231 6.48719C73.81 6.85113 73.9035 7.25375 73.8956 7.66057C73.9006 8.05366 73.8177 8.44311 73.6525 8.80181C73.4873 9.16051 73.2438 9.47987 72.939 9.73765C72.3024 10.2254 71.4952 10.4513 70.6899 10.3671H67.7685V11.6259H70.0694C70.3696 11.5924 70.6736 11.6207 70.9619 11.7088C71.2501 11.797 71.5162 11.9431 71.7428 12.1377C71.9694 12.3323 72.1516 12.571 72.2775 12.8385C72.4034 13.106 72.4702 13.3962 72.4737 13.6904C72.4818 14.0072 72.4135 14.3213 72.2743 14.6077C72.1351 14.8941 71.9289 15.1448 71.6723 15.3395C71.1498 15.6975 70.5097 15.8545 69.8755 15.7801H67.7685V17.0389L70.4443 17.1145Z" fill="white"/>
<path d="M88.4633 6.64222C89.0671 7.0284 89.5751 7.54047 89.9507 8.14137C90.3263 8.74226 90.56 9.41695 90.635 10.1166C90.637 10.6097 90.5075 11.0948 90.2591 11.5244C90.0106 11.9541 89.6518 12.3134 89.2177 12.5673C88.7837 12.8212 88.2894 12.9608 87.7832 12.9726C87.277 12.9843 86.7764 12.8677 86.3305 12.6343C86.0332 12.4832 86.0332 12.4832 84.9603 11.3755C84.629 11.0324 84.2281 10.7602 83.7831 10.576C83.338 10.3918 82.8585 10.2997 82.375 10.3054C81.4844 10.3582 80.648 10.7399 80.0366 11.3727C79.4251 12.0055 79.0846 12.8417 79.0846 13.7106C79.0846 14.5795 79.4251 15.4157 80.0366 16.0485C80.648 16.6813 81.4844 17.063 82.375 17.1158C83.1919 17.1004 83.9814 16.8264 84.6242 16.3353C84.9878 16.0448 85.3212 15.7201 85.6195 15.366C86.1528 14.8515 86.8725 14.5621 87.6231 14.5603C88.3972 14.5568 89.1419 14.8486 89.6976 15.3734C90.2533 15.8981 90.5759 16.614 90.5962 17.3675C90.5281 18.0052 90.321 18.6214 89.9889 19.175C89.6568 19.7286 89.2072 20.2067 88.6701 20.5776C86.9443 22.037 84.7383 22.8455 82.4526 22.8561C79.9568 22.8511 77.5652 21.8807 75.8041 20.1586C74.0429 18.4364 73.0564 16.1034 73.0615 13.6728C73.0667 11.2423 74.0631 8.9133 75.8315 7.19819C77.5999 5.48308 79.9955 4.52236 82.4913 4.52736C84.6753 4.52709 86.7896 5.27584 88.4633 6.64222Z" fill="white"/>
<path d="M92.4836 10.3677C92.0753 10.3971 91.6653 10.3404 91.2816 10.2014C90.8978 10.0623 90.5495 9.84423 90.2603 9.56199C89.7416 9.04671 89.4456 8.35741 89.433 7.63597C89.4441 7.15531 89.5864 6.6862 89.8454 6.27689C90.1044 5.86758 90.4707 5.53285 90.9066 5.30711C91.5012 5.04275 91.7339 5.01758 94.0994 5.01758H100.046C102.153 5.01758 102.23 5.01758 102.851 5.28193C103.331 5.48772 103.74 5.82399 104.029 6.25045C104.318 6.67691 104.474 7.17545 104.479 7.68632C104.473 8.07401 104.385 8.45632 104.221 8.80938C104.056 9.16243 103.818 9.47863 103.523 9.73823C102.882 10.2188 102.078 10.4439 101.274 10.3677H99.9551V19.0285C100.024 19.7999 99.8482 20.5733 99.4509 21.244C99.195 21.6403 98.8375 21.9648 98.4137 22.1855C97.9898 22.4063 97.5142 22.5157 97.0337 22.5029C96.5538 22.5026 96.0813 22.3876 95.6576 22.1682C95.234 21.9487 94.872 21.6314 94.6035 21.244C94.1545 20.5745 93.9622 19.7721 94.0606 18.9781V10.3677H92.4836Z" fill="white"/>
<path d="M121.93 13.654C121.937 15.4698 121.391 17.2468 120.36 18.7596C119.329 20.2725 117.86 21.4529 116.138 22.1512C114.417 22.8495 112.522 23.0342 110.693 22.6818C108.864 22.3294 107.184 21.4558 105.865 20.1719C104.547 18.888 103.65 17.2516 103.288 15.4703C102.926 13.6891 103.116 11.8434 103.833 10.1673C104.55 8.49115 105.762 7.06026 107.315 6.05615C108.869 5.05203 110.694 4.51995 112.558 4.52742C115.038 4.54391 117.412 5.51075 119.166 7.21876C120.92 8.92677 121.913 11.2386 121.93 13.654ZM109.003 13.654C108.983 14.3387 109.173 15.0138 109.549 15.5926C109.925 16.1714 110.47 16.6275 111.115 16.9024C111.759 17.1773 112.473 17.2584 113.165 17.1354C113.857 17.0123 114.495 16.6907 114.998 16.2118C115.501 15.7328 115.845 15.1185 115.987 14.4476C116.129 13.7766 116.062 13.0797 115.794 12.4463C115.526 11.8129 115.07 11.2719 114.484 10.8927C113.899 10.5134 113.21 10.3134 112.506 10.3181C111.599 10.3175 110.727 10.6596 110.074 11.2724C109.421 11.8852 109.037 12.7209 109.003 13.6037V13.654Z" fill="white"/>
<path d="M134.662 17.8827C135.017 18.4394 135.213 19.0781 135.231 19.7332C135.233 20.1094 135.157 20.482 135.008 20.8291C134.859 21.1762 134.64 21.4906 134.364 21.7536C134.088 22.0166 133.76 22.2229 133.4 22.3603C133.041 22.4976 132.657 22.5631 132.271 22.553C131.778 22.5625 131.292 22.4438 130.863 22.2092C130.433 21.9747 130.076 21.6327 129.827 21.2186L127.397 17.2785V19.6325C127.413 20.2242 127.237 20.8058 126.896 21.2954C126.554 21.7851 126.064 22.1582 125.493 22.3624C124.922 22.5666 124.301 22.5916 123.715 22.4338C123.129 22.2761 122.609 21.9436 122.227 21.483C121.681 20.7805 121.423 19.9056 121.503 19.0283V8.30293C121.459 7.84034 121.522 7.37407 121.688 6.93838C121.853 6.50269 122.117 6.10866 122.459 5.78525C122.831 5.48927 123.262 5.27159 123.725 5.14592C124.188 5.02026 124.672 4.98934 125.148 5.05512H127.604C130.189 5.05512 131.482 5.39501 132.775 6.46503C133.479 7.01484 134.055 7.70378 134.466 8.48642C134.877 9.26905 135.113 10.1276 135.158 11.0055C135.203 11.8833 135.057 12.7605 134.728 13.5793C134.4 14.398 133.897 15.1396 133.253 15.7553L134.662 17.8827ZM128.044 12.2179C128.91 12.2179 129.336 11.9032 129.336 11.3367C129.336 10.7703 128.858 10.3423 127.966 10.3423H127.359V12.2179H128.044Z" fill="white"/>
</g>
<defs>
<radialGradient id="paint0_diamond_382_79144" cx="0" cy="0" r="1" gradientUnits="userSpaceOnUse" gradientTransform="translate(69.7316 13.6869) rotate(-179.734) scale(69.4955 285.622)">
<stop stop-color="#0029FF"/>
<stop offset="0.0001" stop-color="#7084F3"/>
<stop offset="1" stop-color="#EA4458"/>
</radialGradient>
<clipPath id="clip0_382_79144">
<rect width="138.687" height="25.8314" fill="white" transform="translate(0.421875 0.75)"/>
</clipPath>
</defs>
</svg>
