<svg width="88" height="30" viewBox="0 0 88 30" fill="none" xmlns="http://www.w3.org/2000/svg">
<g clip-path="url(#clip0_382_79168)">
<path d="M6.36227 16.411C6.33485 16.5618 6.28615 16.7079 6.21762 16.845C6.06105 16.9022 5.89734 16.9376 5.7311 16.9502C4.95945 17.0201 4.21061 17.2489 3.53171 17.6223C2.85281 17.9957 2.25855 18.5055 1.78629 19.1198C0.993319 20.1842 0.589497 21.4885 0.642286 22.8148C0.652334 23.7353 0.899658 24.6377 1.36035 25.4346C1.82104 26.2316 2.47952 26.8963 3.27216 27.3645C4.3851 28.0174 5.66556 28.3283 6.95398 28.2586C8.39441 28.2031 9.81402 27.896 11.1486 27.3513L11.6746 27.1278V28.9555H28.0587H28.6899H41.9182C43.1605 28.9889 44.3797 28.6148 45.3896 27.8904C45.7452 28.1145 46.1191 28.308 46.5073 28.469C47.5153 28.8495 48.5858 29.0368 49.6631 29.0213H59.6698C60.7471 29.0368 61.8176 28.8495 62.8256 28.469C63.8125 28.1024 64.7093 27.5285 65.4555 26.7859C66.0148 26.1728 66.4601 25.4648 66.7704 24.6952C67.6822 24.9233 68.6401 24.8867 69.5318 24.5899C69.9566 25.4245 70.604 26.1252 71.4023 26.6147C72.2006 27.1041 73.1188 27.3631 74.0552 27.3631C74.9916 27.3631 75.9098 27.1041 76.7081 26.6147C77.5064 26.1252 78.1538 25.4245 78.5785 24.5899C79.4662 24.8961 80.4229 24.9424 81.3361 24.7234C82.2492 24.5045 83.0808 24.0293 83.7331 23.3539C84.3981 22.6974 84.8663 21.8681 85.0847 20.9596C85.3031 20.051 85.2631 19.0995 84.9692 18.2125C85.8127 17.799 86.5214 17.1542 87.0126 16.3533C87.5039 15.5525 87.7573 14.6285 87.7437 13.6891C87.7493 12.753 87.4939 11.8338 87.0061 11.0348C86.5183 10.2358 85.8175 9.58859 84.9823 9.16576C85.2885 8.27806 85.3348 7.3214 85.1158 6.40828C84.8968 5.49516 84.4217 4.66352 83.7463 4.01119C82.7995 3.05781 81.5133 2.51876 80.1696 2.51219C79.6328 2.51291 79.0997 2.60173 78.5917 2.77515C78.1794 1.93058 77.5349 1.22103 76.7338 0.729631C75.9326 0.238235 75.008 -0.0146269 74.0683 0.000653788C73.1338 -0.00554096 72.2162 0.249766 71.4192 0.737737C70.6222 1.22571 69.9775 1.9269 69.5581 2.76203C68.8886 2.53321 68.1775 2.4523 67.4738 2.52495C66.77 2.59759 66.0904 2.82203 65.4818 3.18278C65.3503 3.05128 65.2319 2.90666 65.1004 2.78831C64.0267 1.89707 62.6873 1.38767 61.2926 1.34007C59.898 1.29247 58.527 1.70935 57.3949 2.52531L56.7506 2.24918C55.7444 1.88067 54.6795 1.698 53.6079 1.71005H49.032C47.9549 1.697 46.8847 1.88429 45.8761 2.26235C45.4146 2.43165 44.9735 2.65219 44.5611 2.91981C43.3077 2.08035 41.8216 1.65706 40.3139 1.71005H27.467C26.6919 1.69901 25.9213 1.82821 25.1922 2.0914C24.8847 1.90812 24.5584 1.75825 24.2191 1.64432C22.7936 1.16128 21.2405 1.21741 19.8535 1.80211C18.8929 1.39844 17.8451 1.24695 16.8095 1.36202C15.7739 1.47709 14.7849 1.85489 13.9363 2.45958L13.6207 2.36752C12.8267 2.19026 12.0147 2.10641 11.2012 2.11768H6.59895C5.73738 2.10478 4.88381 2.28447 4.10057 2.64365C3.36408 2.98181 2.71261 3.48055 2.19392 4.10325C1.70996 4.67547 1.35157 5.34295 1.14197 6.06249C0.791398 7.21101 0.791398 8.43799 1.14197 9.58651C1.36174 10.3419 1.74818 11.0384 2.27281 11.6247C2.771 12.1826 3.38007 12.6304 4.06113 12.9396C4.84032 13.3135 5.6953 13.5025 6.5595 13.4919V14.9646C6.5498 15.4528 6.48362 15.9381 6.36227 16.411Z" fill="url(#paint0_diamond_382_79168)"/>
<path d="M6.15231 20.8683C6.85295 20.815 7.53425 20.6133 8.15102 20.2766C8.67609 19.9792 9.12594 19.5654 9.46596 19.0669C9.81276 18.5177 10.0619 17.9127 10.2023 17.2785C10.3567 16.5302 10.4317 15.7678 10.4259 15.0037V10.099C10.4324 9.96372 10.3851 9.83137 10.2944 9.73082C10.2442 9.67715 10.1829 9.63518 10.1147 9.6079C10.0466 9.58063 9.9732 9.56873 9.89989 9.57303H6.52049C6.24038 9.58185 5.96184 9.52794 5.70524 9.41525C5.49566 9.3178 5.30785 9.17917 5.15297 9.00762C5.01043 8.84256 4.90304 8.65013 4.83738 8.44217C4.7039 8.01402 4.7039 7.55538 4.83738 7.12723C4.90304 6.91926 5.01043 6.72688 5.15297 6.56182C5.29761 6.38491 5.48244 6.24515 5.69208 6.15419C5.95336 6.04168 6.23614 5.98782 6.52049 5.9964H11.1228C11.6265 5.98307 12.1299 6.03162 12.6218 6.14103C12.9869 6.21582 13.3265 6.38337 13.608 6.62755C13.8687 6.86328 14.0558 7.16918 14.1471 7.50857C14.2584 7.93783 14.3115 8.3801 14.3049 8.82351V14.9906C14.3363 16.3802 14.1227 17.7645 13.6737 19.08C13.3215 20.1301 12.7576 21.0967 12.0169 21.9203C11.3464 22.6551 10.5196 23.2303 9.59744 23.6034C8.67478 23.9726 7.69718 24.1859 6.70458 24.2346C6.18067 24.2685 5.65859 24.1449 5.20556 23.8795C4.99127 23.7514 4.81576 23.5676 4.69767 23.3476C4.57958 23.1276 4.52334 22.8797 4.53495 22.6303C4.50658 22.1896 4.63207 21.7528 4.88998 21.3943C5.05381 21.2257 5.25016 21.0922 5.46715 21.0018C5.68415 20.9113 5.91725 20.866 6.15231 20.8683ZM15.5541 7.04834C15.5405 6.80164 15.5832 6.5551 15.6789 6.32731C15.7745 6.09951 15.9207 5.89641 16.1064 5.7334C16.4777 5.43301 16.9438 5.27454 17.4213 5.28633C17.8995 5.26979 18.3672 5.42881 18.7363 5.7334C18.9275 5.89319 19.0792 6.09504 19.1796 6.32313C19.2799 6.55123 19.3262 6.7994 19.3148 7.04834V12.9787H20.3668V7.04834C20.3528 6.80035 20.3966 6.55252 20.4947 6.32434C20.5928 6.09615 20.7426 5.89385 20.9322 5.7334C21.3046 5.43503 21.77 5.27681 22.2471 5.28633C22.4844 5.28619 22.7201 5.3262 22.944 5.40467C23.1629 5.47627 23.3644 5.59272 23.5358 5.74656C23.7123 5.89993 23.8556 6.08788 23.9566 6.29881C24.0669 6.54224 24.1208 6.80748 24.1143 7.07466V25.0367H20.3799V16.4633H19.328V25.0367H15.6199L15.5541 7.04834Z" fill="white"/>
<path d="M27.4017 9.1126C27.1318 9.13765 26.8596 9.10489 26.6034 9.01646C26.3472 8.92803 26.1128 8.78595 25.9158 8.59976C25.6129 8.26083 25.4527 7.81801 25.4687 7.36376C25.4665 6.92599 25.6203 6.50174 25.9026 6.16716C26.1006 5.97849 26.3371 5.83494 26.5959 5.74641C26.8547 5.65788 27.1296 5.62647 27.4017 5.65432H40.2486C41.0277 5.58136 41.8061 5.80174 42.4314 6.27234C42.6552 6.50525 42.828 6.78219 42.939 7.08555C43.0499 7.3889 43.0964 7.71202 43.0757 8.03435V9.48079C43.0887 10.306 43.0138 11.1303 42.8522 11.9397C42.7366 12.5041 42.551 13.0518 42.2999 13.5703H42.5103C42.7903 13.5627 43.0685 13.6166 43.3255 13.728C43.5336 13.8222 43.7212 13.9562 43.8778 14.1225C44.0116 14.2914 44.1141 14.4829 44.1803 14.6879C44.3137 15.1161 44.3137 15.5747 44.1803 16.0029C44.1146 16.2108 44.0072 16.4032 43.8646 16.5683C43.7104 16.7431 43.5165 16.8783 43.2992 16.9628C43.0501 17.0684 42.7807 17.1178 42.5103 17.1074H26.3497C26.0706 17.1204 25.7921 17.071 25.5344 16.9628C25.3269 16.8743 25.1424 16.7394 24.9953 16.5683C24.8446 16.4091 24.7361 16.2147 24.6797 16.0029C24.5272 15.5778 24.5272 15.113 24.6797 14.6879C24.7352 14.4785 24.8388 14.2849 24.9822 14.1225C25.1311 13.9534 25.3151 13.8188 25.5213 13.728C25.7826 13.6155 26.0654 13.5617 26.3497 13.5703H38.1842C38.4081 13.1012 38.5886 12.6127 38.7232 12.1107C38.8726 11.4864 38.9433 10.8458 38.9336 10.204V9.57284C38.943 9.50547 38.9385 9.43689 38.9204 9.37131C38.9023 9.30574 38.871 9.24455 38.8285 9.1915C38.6977 9.12818 38.5525 9.10095 38.4077 9.1126H27.4017ZM28.6245 25.0102C28.1289 25.0208 27.634 24.9677 27.1518 24.8524C26.8045 24.7695 26.4891 24.5866 26.2445 24.3264C26.005 24.0588 25.8416 23.7319 25.7711 23.3797C25.6679 22.9091 25.6194 22.4281 25.6265 21.9464V19.9608C25.6012 19.6701 25.6479 19.3776 25.7626 19.1093C25.8773 18.8409 26.0564 18.605 26.284 18.4223C26.7323 18.1026 27.272 17.9366 27.8224 17.949C28.3613 17.9324 28.8898 18.0993 29.3215 18.4223C29.541 18.6098 29.7119 18.8477 29.8195 19.1156C29.9272 19.3836 29.9683 19.6735 29.9395 19.9608V21.1837C29.9395 21.4072 29.9395 21.5519 30.0447 21.6045C30.1909 21.6786 30.3548 21.7105 30.5181 21.6966H41.8528C42.0964 21.6781 42.3411 21.7145 42.5687 21.8033C42.7962 21.8921 43.001 22.0308 43.1677 22.2094C43.4253 22.5348 43.5645 22.9383 43.5622 23.3533C43.5682 23.7752 43.4237 24.1855 43.1546 24.5105C42.985 24.6844 42.7794 24.8193 42.5523 24.9056C42.3252 24.9919 42.082 25.0276 41.8397 25.0102H28.6245Z" fill="white"/>
<path d="M53.1903 12.798V13.7842H56.6354C56.8715 13.7644 57.1091 13.7914 57.3348 13.8636C57.5604 13.9358 57.7696 14.0518 57.9503 14.205C58.0853 14.3441 58.1909 14.5089 58.2609 14.6896C58.3309 14.8703 58.3639 15.0632 58.3579 15.2569C58.3676 15.6596 58.2216 16.0506 57.9503 16.3483C57.7789 16.5183 57.5723 16.6487 57.3452 16.7304C57.1181 16.8122 56.8758 16.8433 56.6354 16.8217H46.3263C46.0859 16.8433 45.8436 16.8122 45.6164 16.7304C45.3893 16.6487 45.1828 16.5183 45.0113 16.3483C44.7401 16.0506 44.5941 15.6596 44.6037 15.2569C44.5977 15.0632 44.6307 14.8703 44.7008 14.6896C44.7708 14.5089 44.8764 14.3441 45.0113 14.205C45.1921 14.0518 45.4013 13.9358 45.6269 13.8636C45.8526 13.7914 46.0902 13.7644 46.3263 13.7842H49.2454V12.7717H49.0482C48.4543 12.7876 47.8623 12.6986 47.2993 12.5087C46.8324 12.3484 46.4061 12.0881 46.0502 11.7461C45.7091 11.4277 45.4516 11.0303 45.3006 10.5889C45.1274 10.1176 45.0426 9.61829 45.0508 9.11618C45.0415 8.60542 45.1262 8.09728 45.3006 7.61713C45.4512 7.16789 45.7084 6.76183 46.0502 6.4337C46.4054 6.08755 46.8316 5.82283 47.2993 5.65789C47.8589 5.4522 48.4522 5.35405 49.0482 5.3686H53.6242C54.2201 5.35405 54.8135 5.4522 55.373 5.65789C55.8392 5.82613 56.2648 6.09044 56.6222 6.4337C56.9511 6.76972 57.2025 7.17365 57.3586 7.61713C57.5221 8.09973 57.6021 8.60669 57.5953 9.11618C57.6012 9.61701 57.5212 10.1151 57.3586 10.5889C57.2021 11.0245 56.9506 11.4198 56.6222 11.7461C56.264 12.0852 55.8384 12.3451 55.373 12.5087C54.8101 12.6986 54.218 12.7876 53.6242 12.7717L53.1903 12.798ZM63.5125 21.2662C63.5131 21.7355 63.4376 22.2017 63.289 22.6468C63.1351 23.066 62.8929 23.4472 62.5789 23.7645C62.2428 24.1059 61.8337 24.3667 61.3823 24.5272C60.8319 24.7331 60.2472 24.8313 59.6598 24.8165H49.6531C49.0657 24.8313 48.4809 24.7331 47.9305 24.5272C47.4809 24.3632 47.0725 24.1028 46.7339 23.7645C46.4195 23.4499 46.1811 23.0676 46.037 22.6468C45.8764 22.2044 45.7962 21.7368 45.8003 21.2662C45.8039 20.8176 45.8839 20.3729 46.037 19.9512C46.1805 19.5224 46.4187 19.1314 46.7339 18.8073C47.0758 18.4731 47.4832 18.2133 47.9305 18.0446C48.4809 17.8387 49.0657 17.7405 49.6531 17.7553H59.6598C60.2472 17.7405 60.8319 17.8387 61.3823 18.0446C61.8312 18.2101 62.2393 18.4703 62.5789 18.8073C62.8935 19.1343 63.1355 19.5242 63.289 19.9512C63.4365 20.3744 63.5164 20.8181 63.5256 21.2662H63.5125ZM49.9424 8.23516C49.8181 8.21529 49.6909 8.22493 49.5711 8.26329C49.4513 8.30164 49.3422 8.36762 49.2526 8.45594C49.163 8.54426 49.0954 8.65242 49.0554 8.77168C49.0153 8.89093 49.0038 9.01796 49.0219 9.14247C49.0091 9.38221 49.0892 9.61767 49.2454 9.79993C49.338 9.88755 49.4477 9.955 49.5677 9.99801C49.6876 10.041 49.8152 10.0586 49.9424 10.0498H52.6774C52.8067 10.0605 52.9368 10.0438 53.0591 10.0007C53.1815 9.95768 53.2934 9.88926 53.3875 9.79993C53.5382 9.61454 53.6175 9.3813 53.611 9.14247C53.6268 9.01724 53.6132 8.89009 53.5714 8.77099C53.5297 8.6519 53.4608 8.54414 53.3703 8.45618C53.2798 8.36823 53.1701 8.30248 53.0499 8.26413C52.9296 8.22578 52.8021 8.21585 52.6774 8.23516H49.9424ZM59.239 21.2662C59.2448 21.0581 59.1799 20.8541 59.0549 20.6876C58.9689 20.5985 58.864 20.5298 58.7479 20.4865C58.6319 20.4433 58.5076 20.4266 58.3843 20.4378H50.9286C50.8052 20.4266 50.6809 20.4433 50.5649 20.4865C50.4488 20.5298 50.3439 20.5985 50.2579 20.6876C50.1388 20.8571 50.0746 21.059 50.0739 21.2662C50.0747 21.4692 50.1391 21.6669 50.2579 21.8316C50.3421 21.9231 50.4468 21.9935 50.5633 22.0369C50.6799 22.0803 50.805 22.0956 50.9286 22.0814H58.45C58.5736 22.0956 58.6987 22.0803 58.8152 22.0369C58.9318 21.9935 59.0364 21.9231 59.1206 21.8316C59.2271 21.6634 59.2734 21.4641 59.2521 21.2662H59.239ZM59.0154 7.07801C58.9949 6.78953 59.0399 6.50017 59.1469 6.23149C59.2539 5.96281 59.4202 5.72177 59.6334 5.52639C60.0385 5.17716 60.5583 4.98986 61.093 5.00042C61.6299 4.99096 62.1508 5.18336 62.5526 5.53955C62.7672 5.73167 62.9354 5.96989 63.0447 6.23635C63.154 6.5028 63.2016 6.79055 63.1838 7.07801V9.11618H63.8281C64.1051 9.10977 64.3798 9.16828 64.6302 9.28709C64.8267 9.38741 64.9976 9.53135 65.1299 9.70788C65.2608 9.87961 65.3549 10.0766 65.406 10.2865C65.5339 10.7154 65.5339 11.1724 65.406 11.6014C65.3522 11.8143 65.2585 12.0151 65.1299 12.1931C64.9977 12.3749 64.8211 12.5197 64.6171 12.6139C64.3698 12.7266 64.0997 12.7807 63.8281 12.7717H63.1838V17.1899H59.0154V7.07801Z" fill="white"/>
<path d="M66.5863 12.5456C66.7445 12.5308 66.9041 12.5495 67.0546 12.6005C67.2051 12.6515 67.3432 12.7337 67.4598 12.8416C67.5764 12.9495 67.669 13.0808 67.7315 13.227C67.7939 13.3731 67.8249 13.5307 67.8223 13.6896C67.8256 13.8488 67.7945 14.0067 67.731 14.1527C67.6675 14.2987 67.5732 14.4293 67.4546 14.5354C67.3359 14.6416 67.1957 14.7209 67.0436 14.7678C66.8915 14.8147 66.731 14.8282 66.5732 14.8073H65.5212C65.2213 14.8073 64.9337 14.6882 64.7216 14.4761C64.5095 14.264 64.3904 13.9764 64.3904 13.6764C64.3904 13.3765 64.5095 13.0889 64.7216 12.8768C64.9337 12.6647 65.2213 12.5456 65.5212 12.5456H66.5863ZM67.9012 18.1341C68.0016 18.0108 68.1269 17.91 68.2689 17.8384C68.4109 17.7668 68.5664 17.726 68.7252 17.7185C68.884 17.7111 69.0426 17.7372 69.1907 17.7953C69.3387 17.8533 69.4729 17.9418 69.5844 18.0552C69.7009 18.1654 69.7921 18.2997 69.8515 18.4487C69.9109 18.5977 69.9371 18.7579 69.9284 18.9181C69.9196 19.0782 69.8761 19.2346 69.8008 19.3762C69.7255 19.5179 69.6202 19.6414 69.4923 19.7383L68.756 20.4878C68.6578 20.6176 68.5331 20.7249 68.3901 20.8027C68.2472 20.8804 68.0893 20.9268 67.927 20.9387C67.7647 20.9505 67.6018 20.9276 67.449 20.8715C67.2963 20.8154 67.1573 20.7274 67.0413 20.6132C66.9253 20.4991 66.835 20.3616 66.7764 20.2098C66.7177 20.058 66.6922 19.8954 66.7014 19.7329C66.7106 19.5705 66.7544 19.4119 66.8298 19.2677C66.9052 19.1235 67.0104 18.997 67.1386 18.8967L67.9012 18.1341ZM69.5055 7.61457C69.6336 7.71484 69.7389 7.84131 69.8143 7.98552C69.8897 8.12972 69.9335 8.28835 69.9427 8.45081C69.9519 8.61327 69.9263 8.77582 69.8677 8.92762C69.8091 9.07941 69.7188 9.21696 69.6028 9.33107C69.4868 9.44518 69.3478 9.53326 69.195 9.58938C69.0423 9.6455 68.8793 9.66839 68.7171 9.65651C68.5548 9.64464 68.3969 9.59826 68.2539 9.52052C68.111 9.44277 67.9863 9.33545 67.8881 9.20567L67.1518 8.46931C67.022 8.37115 66.9146 8.2464 66.8369 8.10345C66.7591 7.96051 66.7128 7.80266 66.7009 7.64037C66.689 7.47808 66.7119 7.3151 66.768 7.16236C66.8242 7.00962 66.9122 6.87061 67.0263 6.75461C67.1404 6.63861 67.278 6.54829 67.4298 6.48968C67.5816 6.43107 67.7441 6.40551 67.9066 6.41472C68.069 6.42393 68.2277 6.4677 68.3719 6.54309C68.5161 6.61848 68.6425 6.72377 68.7428 6.85192L69.5055 7.61457ZM68.756 13.6107C68.7487 12.9231 68.8876 12.2418 69.1636 11.612C69.4291 11.0056 69.8034 10.4529 70.2681 9.98148C70.7462 9.51587 71.3084 9.14546 71.9249 8.89006C72.5665 8.62242 73.2548 8.48464 73.95 8.48464C74.6451 8.48464 75.3334 8.62242 75.975 8.89006C76.5895 9.15507 77.1508 9.52934 77.6318 9.99464C78.1093 10.4633 78.4892 11.0219 78.7495 11.6383C79.0185 12.2749 79.1572 12.959 79.1572 13.6502C79.1572 14.3413 79.0185 15.0254 78.7495 15.662C78.4845 16.2797 78.1053 16.8418 77.6318 17.3188C77.1584 17.7967 76.5954 18.1765 75.975 18.4365C75.3401 18.7113 74.6548 18.8501 73.9631 18.8441C73.2628 18.8515 72.5686 18.7126 71.9249 18.4365C71.3045 18.1765 70.7416 17.7967 70.2681 17.3188C69.8028 16.8378 69.4286 16.2765 69.1636 15.662C68.9084 15.0137 68.7876 14.3203 68.8085 13.6238L68.756 13.6107ZM72.8191 5.1688C72.8019 5.00916 72.8185 4.84768 72.8678 4.69489C72.9172 4.54209 72.9981 4.40138 73.1054 4.28192C73.2127 4.16246 73.3439 4.06694 73.4906 4.00154C73.6372 3.93614 73.796 3.90234 73.9565 3.90234C74.1171 3.90234 74.2759 3.93614 74.4225 4.00154C74.5691 4.06694 74.7004 4.16246 74.8077 4.28192C74.9149 4.40138 74.9959 4.54209 75.0452 4.69489C75.0946 4.84768 75.1111 5.00916 75.0939 5.1688V6.20762C75.1111 6.36726 75.0946 6.52874 75.0452 6.68154C74.9959 6.83433 74.9149 6.975 74.8077 7.09446C74.7004 7.21392 74.5691 7.30948 74.4225 7.37488C74.2759 7.44028 74.1171 7.47408 73.9565 7.47408C73.796 7.47408 73.6372 7.44028 73.4906 7.37488C73.3439 7.30948 73.2127 7.21392 73.1054 7.09446C72.9981 6.975 72.9172 6.83433 72.8678 6.68154C72.8185 6.52874 72.8019 6.36726 72.8191 6.20762V5.1688ZM72.8191 21.0927C72.8043 20.9344 72.823 20.7749 72.874 20.6244C72.925 20.4739 73.0072 20.3358 73.1151 20.2192C73.2231 20.1026 73.3544 20.01 73.5005 19.9476C73.6466 19.8851 73.8042 19.8541 73.9631 19.8567C74.1227 19.8537 74.2811 19.8849 74.4277 19.9483C74.5742 20.0116 74.7055 20.1057 74.8126 20.224C74.9198 20.3424 75.0004 20.4823 75.0489 20.6344C75.0974 20.7865 75.1128 20.9473 75.0939 21.1058V22.1578C75.1111 22.3174 75.0946 22.4789 75.0452 22.6317C74.9959 22.7845 74.9149 22.9252 74.8077 23.0446C74.7004 23.1641 74.5691 23.2597 74.4225 23.3251C74.2759 23.3905 74.1171 23.4243 73.9565 23.4243C73.796 23.4243 73.6372 23.3905 73.4906 23.3251C73.3439 23.2597 73.2127 23.1641 73.1054 23.0446C72.9981 22.9252 72.9172 22.7845 72.8678 22.6317C72.8185 22.4789 72.8019 22.3174 72.8191 22.1578V21.0927ZM79.1571 6.86508C79.2575 6.74179 79.3828 6.64106 79.5247 6.56946C79.6667 6.49785 79.8222 6.457 79.9811 6.44955C80.1399 6.44211 80.2985 6.46823 80.4465 6.52624C80.5946 6.58424 80.7287 6.67283 80.8402 6.78619C80.9568 6.89641 81.0479 7.03068 81.1073 7.17969C81.1668 7.32871 81.193 7.48889 81.1842 7.64908C81.1755 7.80926 81.1319 7.96562 81.0566 8.10727C80.9813 8.24892 80.8761 8.37246 80.7482 8.46931L80.0118 9.21879C79.9137 9.34857 79.7889 9.45594 79.646 9.53368C79.503 9.61142 79.3451 9.65777 79.1829 9.66964C79.0206 9.68151 78.8576 9.65862 78.7049 9.6025C78.5521 9.54638 78.4131 9.45835 78.2971 9.34423C78.1811 9.23012 78.0908 9.09258 78.0322 8.94078C77.9736 8.78898 77.948 8.62643 77.9572 8.46397C77.9665 8.30151 78.0102 8.14288 78.0856 7.99868C78.161 7.85448 78.2663 7.728 78.3944 7.62773L79.1571 6.86508ZM80.7613 18.8705C80.8846 18.9709 80.9854 19.0961 81.057 19.2381C81.1286 19.38 81.1694 19.5355 81.1768 19.6944C81.1843 19.8532 81.1582 20.0118 81.1002 20.1599C81.0422 20.3079 80.9536 20.4421 80.8402 20.5536C80.7289 20.6681 80.5943 20.7574 80.4455 20.8156C80.2967 20.8737 80.1372 20.8993 79.9777 20.8906C79.8182 20.8819 79.6625 20.839 79.5209 20.765C79.3793 20.691 79.2553 20.5875 79.1571 20.4615L78.4076 19.7252C78.2778 19.627 78.1705 19.5023 78.0927 19.3593C78.015 19.2164 77.9686 19.0585 77.9568 18.8962C77.9449 18.7339 77.9678 18.5709 78.0239 18.4182C78.08 18.2655 78.168 18.1265 78.2822 18.0105C78.3963 17.8945 78.5338 17.8041 78.6856 17.7455C78.8374 17.6869 79 17.6614 79.1624 17.6706C79.3249 17.6798 79.4835 17.7236 79.6277 17.7989C79.7719 17.8743 79.8984 17.9796 79.9987 18.1078L80.7613 18.8705ZM82.4444 12.5325C82.6087 12.5053 82.7769 12.5148 82.9371 12.5601C83.0973 12.6055 83.2455 12.6857 83.3711 12.795C83.4967 12.9043 83.5967 13.04 83.6638 13.1923C83.7309 13.3447 83.7635 13.51 83.7594 13.6764C83.762 13.8414 83.728 14.0049 83.66 14.1551C83.5919 14.3054 83.4914 14.4388 83.3657 14.5456C83.24 14.6525 83.0922 14.7302 82.9329 14.7731C82.7736 14.8161 82.6068 14.8233 82.4444 14.7941H81.3925C81.0926 14.7941 80.8049 14.675 80.5929 14.4629C80.3808 14.2509 80.2617 13.9632 80.2617 13.6633C80.2617 13.3634 80.3808 13.0758 80.5929 12.8637C80.8049 12.6516 81.0926 12.5325 81.3925 12.5325H82.4444Z" fill="white"/>
</g>
<defs>
<radialGradient id="paint0_diamond_382_79168" cx="0" cy="0" r="1" gradientUnits="userSpaceOnUse" gradientTransform="translate(37.2998 14.6894) rotate(-179.158) scale(36.7473 269.346)">
<stop offset="0.119792" stop-color="#FFAD76"/>
<stop offset="0.5" stop-color="#FF6A00"/>
</radialGradient>
<clipPath id="clip0_382_79168">
<rect width="87.0882" height="29.0206" fill="white" transform="translate(0.603027)"/>
</clipPath>
</defs>
</svg>
