<svg width="135" height="30" viewBox="0 0 135 30" fill="none" xmlns="http://www.w3.org/2000/svg">
<g clip-path="url(#clip0_382_79115)">
<path d="M11.921 29.234C14.1218 29.3109 16.3052 28.8202 18.2593 27.8093C19.4698 28.5763 20.8737 28.9863 22.3084 28.9918C23.3513 28.9949 24.3831 28.7795 25.337 28.3598C26.2909 27.9401 27.1456 27.3254 27.8455 26.5556C28.536 27.3257 29.3828 27.9411 30.3299 28.3611C31.277 28.781 32.3029 28.996 33.3396 28.9918C34.739 28.9831 36.1094 28.5939 37.3028 27.8663C39.2325 28.8178 41.3592 29.3058 43.5124 29.291C46.5585 29.4529 49.5489 28.4314 51.8538 26.4416C54.3734 28.3028 57.43 29.3023 60.5672 29.291C61.8647 29.2918 63.1312 28.896 64.1956 28.1571C65.26 27.4182 66.071 26.3719 66.5192 25.1594C66.8912 25.1594 67.2345 25.1594 67.5779 25.0312C68.7892 26.4286 70.2997 27.538 71.9982 28.2776C73.6968 29.0173 75.5402 29.3684 77.393 29.3053C78.962 29.3841 80.5308 29.1471 82.0058 28.6086C83.4808 28.07 84.8317 27.241 85.9776 26.1709C86.689 27.0628 87.5941 27.7826 88.625 28.2761C89.6559 28.7697 90.7857 29.0241 91.9296 29.0203C93.3324 29.0215 94.7067 28.6263 95.8928 27.8806C97.0653 28.6214 98.4245 29.0166 99.8131 29.0203C100.913 29.0354 102.001 28.7977 102.994 28.3257C103.987 27.8538 104.857 27.1603 105.536 26.2991H106.767C107.442 27.1653 108.311 27.8623 109.305 28.3348C110.298 28.8072 111.389 29.042 112.49 29.0203C113.473 29.0125 114.445 28.8141 115.351 28.4362C116.258 28.813 117.23 29.0114 118.213 29.0203C119.748 29.0219 121.246 28.5544 122.505 27.6811C123.758 28.5673 125.261 29.0361 126.797 29.0203C127.788 29.0336 128.772 28.85 129.691 28.4802C130.61 28.1105 131.445 27.562 132.149 26.8669C132.852 26.1717 133.409 25.3439 133.788 24.4318C134.166 23.5197 134.358 22.5417 134.352 21.5549C134.337 20.0174 133.896 18.5139 133.079 17.2095V17.1241C133.928 15.5431 134.361 13.7737 134.338 11.9809C134.332 10.2973 133.952 8.63582 133.225 7.11591C132.497 5.59601 131.441 4.2554 130.131 3.19051C127.738 1.31456 124.727 0.399596 121.69 0.626073H118.957C117.669 0.494012 116.369 0.696217 115.183 1.21303C113.997 1.72984 112.966 2.54367 112.189 3.57521C111.483 2.61823 110.561 1.83982 109.497 1.30281C108.434 0.765804 107.258 0.485197 106.066 0.483594C104.38 0.483001 102.743 1.04478 101.416 2.07925C100.976 1.75205 100.495 1.48382 99.9848 1.28142C98.4575 0.66635 96.8001 0.441084 95.1631 0.626073H88.5816C85.8631 0.626073 84.833 0.626075 83.3736 1.29568H83.2591C81.5056 0.438086 79.5755 -0.000917949 77.6219 0.0134628C74.5274 -0.0631963 71.5231 1.05478 69.2376 3.13351C66.744 1.21835 63.6923 0.163141 60.5434 0.127159C57.3945 0.0911767 54.3193 1.0764 51.7822 2.93408C49.5548 1.0152 46.6854 -0.00161794 43.7413 0.0846803C41.479 0.052919 39.25 0.628755 37.2885 1.7516C35.8022 0.760197 34.0073 0.334152 32.2316 0.551247C30.456 0.768341 28.8179 1.61408 27.6166 2.93408C26.9554 2.15654 26.131 1.53288 25.2015 1.10703C24.272 0.681177 23.26 0.463477 22.2369 0.469333C20.8114 0.456043 19.41 0.835748 18.1878 1.56638C16.3276 0.593326 14.2509 0.103306 12.1499 0.14168C5.43963 0.14168 0.560722 4.67222 0.560722 10.9124C0.543557 12.5586 0.92126 14.1851 1.66242 15.6566C0.664758 16.9202 0.120758 18.4801 0.117188 20.0875C0.303187 25.1594 5.41103 29.234 11.921 29.234Z" fill="url(#paint0_diamond_382_79115)"/>
<path d="M9.90341 17.9648C11.3342 19.0903 11.4773 19.1758 11.978 19.1758C12.0882 19.1761 12.1973 19.1537 12.2985 19.1101C12.3996 19.0665 12.4906 19.0026 12.5658 18.9223C12.641 18.8421 12.6988 18.7473 12.7355 18.6438C12.7722 18.5403 12.7871 18.4304 12.7793 18.3209C12.7772 18.1547 12.7327 17.9917 12.6502 17.8472C12.5676 17.7026 12.4496 17.5814 12.3071 17.4946C11.3566 17.0605 10.3765 16.694 9.37404 16.3976C8.12706 16.0773 7.02503 15.3475 6.24613 14.3263C5.46723 13.3051 5.057 12.0522 5.08173 10.7701C5.08173 6.92337 8.04341 4.27344 12.3786 4.27344C15.9413 4.27344 18.717 6.19678 18.717 8.54753C18.7386 8.89592 18.6879 9.24502 18.5678 9.57297C18.4478 9.90092 18.261 10.2006 18.0193 10.4534C17.7775 10.7062 17.486 10.9065 17.1629 11.0419C16.8398 11.1773 16.4921 11.2448 16.1415 11.2402C15.1445 11.1846 14.2004 10.7752 13.4803 10.0862C12.765 9.55905 12.4359 9.37384 12.0496 9.37384C11.8421 9.38122 11.6455 9.46853 11.5014 9.61736C11.3573 9.76619 11.2768 9.96492 11.2769 10.1717C11.2769 10.7415 11.7205 11.0407 13.2657 11.5109C14.7743 11.9597 16.1963 12.6581 17.4722 13.5767C18.1135 14.1647 18.6224 14.8814 18.9652 15.6795C19.308 16.4776 19.477 17.3391 19.4609 18.207C19.4843 19.9649 18.8168 21.6623 17.601 22.937C16.8382 23.6451 15.9347 24.1859 14.9489 24.5246C13.9631 24.8633 12.9169 24.9922 11.8779 24.9031C7.78588 24.9031 4.55233 22.6948 4.55233 19.8881C4.54233 19.4994 4.61232 19.1129 4.75799 18.7521C4.90366 18.3914 5.12192 18.0641 5.39936 17.7905C5.6768 17.5169 6.00755 17.3028 6.37123 17.1612C6.7349 17.0197 7.12381 16.9538 7.51403 16.9675C8.40562 17.0003 9.25483 17.3547 9.90341 17.9648Z" fill="white"/>
<path d="M30.0782 8.67556C29.9824 7.77772 30.1941 6.874 30.6791 6.11112C30.9699 5.67317 31.3652 5.31382 31.8296 5.0652C32.2941 4.81658 32.8131 4.68644 33.3404 4.68642C33.8172 4.68854 34.2877 4.79564 34.7181 5.00007C35.1485 5.20451 35.5282 5.5012 35.8299 5.8689C36.4157 6.60059 36.6927 7.53045 36.6025 8.46186V20.5005C36.7477 21.5428 36.4922 22.6012 35.8871 23.4639C35.5822 23.8443 35.1945 24.151 34.7534 24.3607C34.3123 24.5705 33.8292 24.6779 33.3404 24.6749C32.8346 24.6742 32.3365 24.552 31.8882 24.3189C31.4399 24.0858 31.0546 23.7485 30.765 23.3357L25.5427 16.7536V20.8852C25.6463 21.8177 25.3792 22.7535 24.7987 23.4924C24.4915 23.8712 24.1014 24.175 23.6582 24.3806C23.215 24.5862 22.7305 24.688 22.2416 24.6784C21.7528 24.6688 21.2727 24.5479 20.838 24.3251C20.4033 24.1022 20.0256 23.7833 19.7337 23.3927C19.1481 22.5968 18.892 21.6074 19.0184 20.6288V8.16269C18.9813 7.70279 19.043 7.24028 19.1994 6.80599C19.3559 6.3717 19.6034 5.97558 19.9256 5.64399C20.2477 5.3124 20.6371 5.05297 21.0679 4.88294C21.4986 4.71291 21.9608 4.63618 22.4236 4.6579C22.8996 4.66463 23.3669 4.78607 23.7855 5.01185C24.2041 5.23764 24.5616 5.56104 24.8273 5.95438L30.0782 12.2943V8.67556Z" fill="white"/>
<path d="M41.4946 17.9648C42.9253 19.0903 43.0684 19.1758 43.5692 19.1758C43.6794 19.1761 43.7885 19.1537 43.8896 19.1101C43.9908 19.0665 44.0818 19.0026 44.157 18.9223C44.2322 18.8421 44.2899 18.7473 44.3267 18.6438C44.3634 18.5403 44.3783 18.4304 44.3704 18.3209C44.3683 18.1547 44.3239 17.9917 44.2414 17.8472C44.1588 17.7026 44.0407 17.5814 43.8983 17.4946C42.9478 17.0605 41.9676 16.694 40.9652 16.3976C39.7182 16.0773 38.6162 15.3475 37.8373 14.3263C37.0584 13.3051 36.6481 12.0522 36.6729 10.7701C36.6729 6.92337 39.6346 4.27344 43.9698 4.27344C47.5324 4.27344 50.3081 6.19678 50.3081 8.54753C50.3298 8.89592 50.279 9.24502 50.159 9.57297C50.0389 9.90092 49.8522 10.2006 49.6104 10.4534C49.3687 10.7062 49.0771 10.9065 48.754 11.0419C48.4309 11.1773 48.0833 11.2448 47.7327 11.2402C46.7126 11.2055 45.7405 10.8 45 10.1005C44.2846 9.57331 43.9555 9.3881 43.5692 9.3881C43.3617 9.39548 43.1652 9.48279 43.021 9.63162C42.8769 9.78045 42.7964 9.97918 42.7966 10.1859C42.7966 10.7558 43.2401 11.055 44.7854 11.5251C46.2939 11.9739 47.716 12.6723 48.9918 13.591C49.6332 14.1789 50.142 14.8956 50.4848 15.6937C50.8276 16.4919 50.9966 17.3533 50.9806 18.2213C51.0039 19.9791 50.3365 21.6765 49.1206 22.9512C48.3578 23.6593 47.4543 24.2002 46.4685 24.5389C45.4827 24.8775 44.4365 25.0064 43.3975 24.9173C39.3055 24.9173 36.072 22.709 36.072 19.9024C36.062 19.5137 36.132 19.1271 36.2776 18.7663C36.4233 18.4056 36.6416 18.0784 36.919 17.8048C37.1965 17.5312 37.5272 17.317 37.8908 17.1755C38.2545 17.0339 38.6434 16.968 39.0336 16.9817C39.9482 16.9932 40.8256 17.3437 41.4946 17.9648Z" fill="white"/>
<path d="M70.8965 14.6746V16.0993C70.8987 17.0838 70.5961 18.045 70.0298 18.852C69.4635 19.6589 68.6612 20.2724 67.732 20.6089C66.8029 20.9453 65.7922 20.9883 64.8376 20.732C63.8831 20.4757 63.0311 19.9326 62.3977 19.1767C61.4379 19.5678 60.3772 19.6412 59.3722 19.3862C58.3672 19.1312 57.4712 18.5612 56.8163 17.7604C56.1615 16.9596 55.7825 15.9704 55.7354 14.9388C55.6882 13.9071 55.9754 12.8877 56.5545 12.031C57.1336 11.1743 57.9739 10.5257 58.9515 10.1808C59.9291 9.83596 60.9921 9.81319 61.9836 10.1158C62.9752 10.4185 63.8428 11.0306 64.4584 11.8617C65.0739 12.6928 65.4049 13.6989 65.4024 14.7316V16.1563C65.4005 16.2473 65.4168 16.3378 65.4505 16.4224C65.4841 16.507 65.5344 16.5841 65.5984 16.6491C65.6623 16.7141 65.7387 16.7658 65.823 16.801C65.9072 16.8363 65.9977 16.8544 66.0891 16.8544C66.2725 16.8507 66.4472 16.7755 66.5756 16.645C66.704 16.5145 66.7759 16.339 66.7759 16.1563V14.7316C66.7759 13.5087 66.4117 12.3133 65.7294 11.2965C65.0471 10.2796 64.0773 9.4871 62.9426 9.01911C61.808 8.55112 60.5594 8.42866 59.3549 8.66724C58.1504 8.90582 57.044 9.49472 56.1755 10.3595C55.3071 11.2242 54.7157 12.326 54.4761 13.5254C54.2365 14.7248 54.3595 15.968 54.8295 17.0979C55.2995 18.2277 56.0953 19.1934 57.1165 19.8728C58.1376 20.5522 59.3382 20.9148 60.5664 20.9148C61.1128 20.9148 61.6368 21.131 62.0232 21.5157C62.4096 21.9005 62.6267 22.4223 62.6267 22.9664C62.6267 23.5105 62.4096 24.0324 62.0232 24.4171C61.6368 24.8018 61.1128 25.018 60.5664 25.018C58.5232 25.018 56.526 24.4147 54.8272 23.2844C53.1284 22.1541 51.8044 20.5476 51.0225 18.668C50.2407 16.7885 50.0361 14.7202 50.4347 12.7249C50.8333 10.7295 51.8171 8.89667 53.2618 7.4581C54.7065 6.01953 56.5472 5.03987 58.551 4.64297C60.5549 4.24607 62.6319 4.44977 64.5195 5.22832C66.4071 6.00686 68.0205 7.32527 69.1555 9.01685C70.2906 10.7084 70.8965 12.6972 70.8965 14.7316V14.6746ZM61.2817 14.6746C61.2817 14.4857 61.2064 14.3045 61.0722 14.1709C60.938 14.0374 60.7561 13.9623 60.5664 13.9623C60.3766 13.9623 60.1947 14.0374 60.0605 14.1709C59.9264 14.3045 59.851 14.4857 59.851 14.6746C59.851 14.8636 59.9264 15.0448 60.0605 15.1784C60.1947 15.312 60.3766 15.387 60.5664 15.387C60.7549 15.3833 60.9348 15.3071 61.0681 15.1743C61.2015 15.0415 61.2781 14.8624 61.2817 14.6746Z" fill="white"/>
<path d="M75.3735 17.9648C76.8043 19.0903 76.9474 19.1758 77.4481 19.1758C77.5583 19.1761 77.6674 19.1537 77.7686 19.1101C77.8697 19.0665 77.9607 19.0026 78.0359 18.9223C78.1111 18.8421 78.1689 18.7473 78.2056 18.6438C78.2423 18.5403 78.2572 18.4304 78.2494 18.3209C78.2473 18.1547 78.2029 17.9917 78.1203 17.8472C78.0377 17.7026 77.9197 17.5814 77.7772 17.4946C76.8267 17.0605 75.8466 16.694 74.8441 16.3976C73.5971 16.0773 72.4951 15.3475 71.7162 14.3263C70.9373 13.3051 70.5271 12.0522 70.5518 10.7701C70.5518 6.92337 73.5135 4.27344 77.8487 4.27344C81.4114 4.27344 84.1871 6.19678 84.1871 8.54753C84.2088 8.89592 84.158 9.24502 84.0379 9.57297C83.9179 9.90092 83.7311 10.2006 83.4894 10.4534C83.2476 10.7062 82.9561 10.9065 82.633 11.0419C82.3099 11.1773 81.9622 11.2448 81.6117 11.2402C80.6146 11.1846 79.6705 10.7752 78.9505 10.0862C78.2351 9.55905 77.906 9.37384 77.5197 9.37384C77.3122 9.38122 77.1157 9.46853 76.9715 9.61736C76.8274 9.76619 76.7469 9.96492 76.7471 10.1717C76.7471 10.7415 77.1906 11.0407 78.7358 11.5109C80.2444 11.9597 81.6664 12.6581 82.9423 13.5767C83.5836 14.1647 84.0925 14.8814 84.4353 15.6795C84.7781 16.4776 84.9471 17.3391 84.9311 18.207C84.9544 19.9649 84.2869 21.6623 83.071 22.937C82.3083 23.6451 81.4048 24.1859 80.419 24.5246C79.4332 24.8633 78.3869 24.9922 77.348 24.9031C73.256 24.9031 70.0224 22.6948 70.0224 19.8881C70.0124 19.4994 70.0824 19.1129 70.2281 18.7521C70.3738 18.3914 70.592 18.0641 70.8695 17.7905C71.1469 17.5169 71.4776 17.3028 71.8413 17.1612C72.205 17.0197 72.5939 16.9538 72.9841 16.9675C73.8757 17.0003 74.725 17.3547 75.3735 17.9648Z" fill="white"/>
<path d="M86.9218 10.885C86.474 10.9258 86.0228 10.8707 85.5983 10.7232C85.1738 10.5758 84.7859 10.3395 84.4608 10.0303C83.8859 9.4419 83.5583 8.65706 83.5452 7.83622C83.5537 7.27872 83.7157 6.73424 84.0133 6.26199C84.311 5.78975 84.733 5.40783 85.2335 5.15777C85.8916 4.85859 86.1492 4.83008 88.7675 4.83008H95.349C97.6812 4.83008 97.7813 4.83011 98.4537 5.1293C98.9739 5.36885 99.4154 5.75022 99.7268 6.2293C100.038 6.70838 100.207 7.26555 100.214 7.83622C100.209 8.27875 100.111 8.71535 99.9261 9.11783C99.7412 9.5203 99.4736 9.87967 99.1405 10.1727C98.4318 10.7166 97.5416 10.9713 96.651 10.885H95.2202V20.687C95.2968 21.56 95.102 22.4354 94.6622 23.1945C94.3824 23.6428 93.9894 24.0103 93.5224 24.2603C93.0555 24.5102 92.5309 24.634 92.001 24.6192C91.4677 24.6199 90.9423 24.4904 90.4708 24.242C89.9994 23.9937 89.5963 23.634 89.2968 23.1945C88.8048 22.4348 88.5971 21.5269 88.7102 20.63V10.7711L86.9218 10.885Z" fill="white"/>
<path d="M99.8271 24.6761C99.4 24.6761 98.9772 24.5918 98.583 24.4283C98.1888 24.2647 97.831 24.025 97.5304 23.7229C97.2298 23.4209 96.9922 23.0626 96.8314 22.6687C96.6706 22.2747 96.5897 21.853 96.5935 21.4278C96.6017 20.8296 96.7434 20.2407 97.0084 19.7038L103.175 6.59665C103.441 6.02359 103.867 5.53889 104.403 5.20038C104.938 4.86188 105.56 4.68386 106.194 4.68756C106.842 4.68892 107.475 4.87651 108.018 5.22782C108.562 5.57913 108.991 6.07919 109.256 6.66787L115.48 19.8606C115.719 20.3598 115.85 20.9033 115.866 21.4562C115.862 21.8828 115.774 22.3045 115.607 22.6972C115.439 23.0898 115.196 23.4459 114.89 23.7449C114.585 24.0438 114.223 24.2799 113.826 24.4397C113.429 24.5995 113.004 24.6798 112.575 24.6761C111.03 24.6761 110.172 23.9637 109.227 21.9549H103.175C102.345 23.8782 101.372 24.6761 99.8271 24.6761ZM107.21 17.2534L106.165 14.9026L105.192 17.2534H107.21Z" fill="white"/>
<path d="M129.6 19.3894C129.993 20.0194 130.211 20.7423 130.23 21.4837C130.232 21.9081 130.149 22.3287 129.985 22.7206C129.821 23.1124 129.58 23.4676 129.275 23.7651C128.971 24.0625 128.611 24.2963 128.214 24.4526C127.818 24.6089 127.394 24.6845 126.968 24.675C126.425 24.6862 125.889 24.5519 125.416 24.2863C124.942 24.0206 124.55 23.6333 124.278 23.1648L121.574 18.6485V21.3412C121.587 21.768 121.514 22.193 121.359 22.591C121.204 22.989 120.97 23.3518 120.671 23.6576C120.371 23.9635 120.013 24.2062 119.618 24.3712C119.222 24.5362 118.798 24.6201 118.369 24.618C117.887 24.6191 117.412 24.5136 116.976 24.3091C116.541 24.1045 116.156 23.8061 115.851 23.4355C115.253 22.6375 114.968 21.6497 115.05 20.6574V8.49042C115 7.96553 115.07 7.43624 115.256 6.94259C115.442 6.44893 115.738 6.00384 116.123 5.64102C116.531 5.3049 117.005 5.05773 117.516 4.91541C118.026 4.77308 118.56 4.73877 119.084 4.81471H121.817C124.679 4.81471 126.109 5.19937 127.54 6.41037C128.309 7.03939 128.938 7.82117 129.386 8.70581C129.834 9.59044 130.092 10.5585 130.143 11.548C130.194 12.5375 130.037 13.5268 129.683 14.4526C129.328 15.3784 128.784 16.2203 128.084 16.9247L129.6 19.3894ZM122.261 12.9497C123.205 12.9497 123.691 12.5935 123.691 11.9524C123.691 11.3113 123.162 10.8269 122.189 10.8269H121.502V12.9497H122.261Z" fill="white"/>
</g>
<defs>
<radialGradient id="paint0_diamond_382_79115" cx="0" cy="0" r="1" gradientUnits="userSpaceOnUse" gradientTransform="translate(67.2346 14.6649) rotate(-179.689) scale(67.2437 323.019)">
<stop stop-color="#00D66F"/>
<stop offset="1" stop-color="#009FE3"/>
</radialGradient>
<clipPath id="clip0_382_79115">
<rect width="134.22" height="29.2348" fill="white" transform="translate(0.302734)"/>
</clipPath>
</defs>
</svg>
