<svg width="88" height="29" viewBox="0 0 88 29" fill="none" xmlns="http://www.w3.org/2000/svg">
<g clip-path="url(#clip0_382_79155)">
<path d="M0.41921 18.7218C0.41753 20.0207 0.856746 21.2822 1.66558 22.3014C2.19768 22.9643 2.87831 23.4939 3.65292 23.8478C4.42754 24.2017 5.27461 24.37 6.12631 24.3394H8.17299V28.6375H20.3219V24.3394H22.4473C22.6984 25.1934 23.1478 25.9766 23.7593 26.6256C24.4761 27.3797 25.3818 27.9299 26.3832 28.2194C27.2156 28.4513 28.0774 28.5613 28.9415 28.546H42.1925C43.2281 28.5641 44.2504 28.3119 45.1576 27.8144C46.2334 28.3131 47.4084 28.5632 48.595 28.546H61.964C62.8538 28.556 63.7309 28.3354 64.5092 27.9058C64.8301 28.0569 65.1638 28.1794 65.5063 28.2717C66.3384 28.4782 67.1942 28.5748 68.0516 28.559H86.8915V20.7206C86.9039 19.9717 86.8423 19.2235 86.7078 18.4866V18.2776C87.2269 17.56 87.5727 16.7329 87.7184 15.8605C87.864 14.9882 87.8055 14.0941 87.5475 13.2479C87.359 12.6024 87.0472 11.9991 86.6291 11.4712C87.268 9.69755 87.268 7.75792 86.6291 5.98427C86.2803 5.03077 85.7249 4.1655 85.0023 3.44987C84.2565 2.71992 83.3615 2.15849 82.3783 1.80378C81.3765 1.4283 80.3131 1.24221 79.2427 1.25507H68.7469C67.2319 1.19195 65.7327 1.58338 64.4436 2.37861C63.4197 1.58734 62.1742 1.13219 60.8792 1.07602C59.5843 1.01986 58.3039 1.36543 57.2146 2.06504C56.3669 1.67859 55.4443 1.48239 54.512 1.49026C53.1163 1.46268 51.7554 1.92518 50.6679 2.79667C49.5912 1.92401 48.238 1.46096 46.85 1.49026C46.0325 1.49317 45.2226 1.64821 44.4622 1.94747C44.1138 1.73268 43.7446 1.55323 43.3602 1.41184C42.3457 1.05236 41.2555 0.958492 40.1941 1.13922C39.1327 1.31994 38.1358 1.76921 37.2989 2.44391C37.048 2.65016 36.8154 2.87746 36.6035 3.12327C36.1728 3.02928 35.7325 2.98543 35.2915 2.99262C35.1071 2.77632 34.9052 2.57531 34.688 2.39164C33.5242 1.49332 32.0934 1.00582 30.6209 1.00582C29.1483 1.00582 27.7176 1.49332 26.5538 2.39164C26.3495 2.56673 26.1607 2.75905 25.9896 2.96647C25.3962 2.9674 24.8068 3.06447 24.2447 3.25388C24.0873 3.17549 23.9561 3.07101 23.7855 2.99262C23.0309 2.67277 22.2178 2.51259 21.3977 2.52229H18.7737C18.6039 2.34695 18.4243 2.18121 18.2359 2.02585C17.0686 1.14115 15.6422 0.662109 14.1753 0.662109C12.7084 0.662109 11.2819 1.14115 10.1147 2.02585C9.91305 2.19426 9.72036 2.37305 9.53744 2.56148H6.91349C6.08371 2.55265 5.26131 2.71731 4.49945 3.04485C3.78414 3.35634 3.14449 3.81737 2.62384 4.39667C2.10319 4.97597 1.71373 5.65999 1.48191 6.40233C1.29893 6.97695 1.20601 7.57625 1.2064 8.17907C1.20397 9.20845 1.48046 10.2194 2.00671 11.1054C1.10367 12.2475 0.688862 13.6978 0.852164 15.1422C0.886754 15.4646 0.94819 15.7836 1.03584 16.0959C0.905255 16.3524 0.795571 16.6188 0.707846 16.8928C0.515008 17.4834 0.417582 18.1007 0.41921 18.7218Z" fill="url(#paint0_diamond_382_79155)"/>
<path d="M16.3201 20.4207V24.7188H12.1087V20.4207H6.19166C5.94749 20.4384 5.70247 20.4006 5.47517 20.31C5.24787 20.2195 5.04423 20.0787 4.87968 19.8982C4.60947 19.5652 4.46136 19.1505 4.45984 18.7224C4.46173 18.5135 4.49716 18.3062 4.5648 18.1084C4.61927 17.9038 4.72282 17.7156 4.86655 17.5597C5.01087 17.3839 5.1953 17.2451 5.40446 17.1547C5.66793 17.0536 5.94872 17.0048 6.23101 17.011H22.3552C22.6331 17.0061 22.9093 17.0549 23.1686 17.1547C23.3797 17.2482 23.5678 17.3864 23.7197 17.5597C23.8556 17.721 23.9582 17.9074 24.0214 18.1084C24.0848 18.3068 24.1158 18.5141 24.1132 18.7224C24.1165 19.1491 23.973 19.564 23.7065 19.8982C23.5408 20.0772 23.337 20.2169 23.1099 20.3074C22.8829 20.3978 22.6385 20.4365 22.3945 20.4207H16.3201ZM16.2151 9.87801C16.173 10.2036 16.1116 10.5263 16.0315 10.8447C16.9359 10.7885 17.8439 10.8455 18.7341 11.0146C19.5589 11.1645 20.3472 11.4705 21.0563 11.916C21.7522 12.3754 22.3279 12.9934 22.7357 13.7189C23.1966 14.5196 23.4743 15.4117 23.5491 16.3317H19.4164C19.2953 15.8434 19.0515 15.3939 18.7079 15.0253C18.3664 14.6468 17.9453 14.3479 17.4746 14.15C16.9764 13.9323 16.4434 13.8041 15.9003 13.7711C15.3042 13.717 14.7034 13.7478 14.116 13.8625C13.6389 14.2992 13.1102 14.6765 12.5416 14.9861C11.9714 15.3122 11.3691 15.5792 10.7442 15.783C10.1167 15.9937 9.47114 16.1467 8.81561 16.2402C8.16742 16.3218 7.51377 16.3524 6.86076 16.3317C6.33852 16.3535 5.82317 16.2069 5.39135 15.9136C5.20362 15.7831 5.04818 15.6118 4.9368 15.4126C4.82541 15.2134 4.76101 14.9916 4.74848 14.764C4.71826 14.5499 4.73173 14.332 4.78809 14.1232C4.84445 13.9144 4.94254 13.7191 5.07647 13.549C5.22104 13.3687 5.40474 13.2233 5.61378 13.1238C5.82282 13.0242 6.05177 12.9731 6.28348 12.9742C6.94933 12.9516 7.61206 12.8729 8.26458 12.739C8.84594 12.6232 9.4102 12.4344 9.94391 12.1773C10.4165 11.9412 10.8395 11.6175 11.1903 11.2236C11.5379 10.8326 11.7815 10.3609 11.8987 9.85189H6.91323C6.66916 9.86862 6.42445 9.83034 6.1973 9.73986C5.97015 9.64939 5.7664 9.50906 5.60125 9.32933C5.33855 8.99816 5.1953 8.58863 5.19454 8.16661C5.19949 7.95465 5.23034 7.74406 5.28639 7.53952C5.35241 7.34094 5.45968 7.15843 5.60125 7.00389C5.74985 6.8359 5.93341 6.70218 6.13917 6.61198C6.40263 6.51086 6.68343 6.46206 6.96572 6.46829H11.9775C11.9797 6.20207 12.0394 5.93943 12.1526 5.69823C12.2658 5.45703 12.4298 5.24291 12.6334 5.07043C13.0896 4.72952 13.6513 4.5585 14.2209 4.58706C14.784 4.5628 15.3374 4.73878 15.7822 5.0835C15.9872 5.25275 16.1532 5.4641 16.2687 5.7031C16.3842 5.9421 16.4465 6.20311 16.4513 6.46829H21.4893C21.7672 6.46343 22.0434 6.51221 22.3027 6.61198C22.5103 6.70554 22.6975 6.83867 22.8537 7.00389C22.9869 7.16217 23.0893 7.34383 23.1555 7.53952C23.2182 7.74264 23.2491 7.95414 23.2473 8.16661C23.253 8.58969 23.109 9.0013 22.8406 9.32933C22.6767 9.51061 22.4731 9.65197 22.2457 9.74257C22.0182 9.83317 21.7729 9.87057 21.5286 9.85189L16.2151 9.87801Z" fill="white"/>
<path d="M32.6403 10.2567V10.6356C32.6403 10.8316 32.6403 11.0145 32.6403 11.1843C32.6403 11.3541 32.6403 11.5109 32.5747 11.6807C33.2152 11.6574 33.8535 11.7687 34.448 12.0073C35.0425 12.2459 35.5799 12.6065 36.0252 13.0655C36.8696 14.2243 37.2571 15.6516 37.1141 17.0762H33.1782C33.2572 16.4223 33.1041 15.7614 32.7452 15.2081C32.5961 15.0005 32.3991 14.8317 32.1708 14.7157C31.9425 14.5998 31.6895 14.5401 31.4333 14.5418C30.8509 15.3866 30.0542 16.0627 29.1242 16.5014C28.2227 16.9345 27.2385 17.1706 26.2378 17.1938C25.768 17.2192 25.304 17.0806 24.9258 16.8018C24.7518 16.6724 24.6128 16.5021 24.5212 16.306C24.4296 16.1099 24.3883 15.8942 24.4011 15.6783C24.3696 15.2662 24.5015 14.8582 24.7684 14.5418C25.033 14.2663 25.3855 14.0909 25.7655 14.0453C26.5988 13.943 27.3648 13.5384 27.9171 12.9088C28.421 12.2597 28.6809 11.4555 28.6518 10.6356V10.2567H26.0279C25.801 10.2599 25.5765 10.2107 25.3719 10.113C25.1893 10.0157 25.0286 9.88239 24.8996 9.72112C24.7707 9.56692 24.6727 9.38953 24.611 9.19856C24.5372 9.01603 24.5015 8.82045 24.506 8.62374C24.5081 8.42961 24.5345 8.2365 24.5848 8.04891C24.6391 7.84961 24.7327 7.66306 24.8603 7.5002C24.9864 7.32776 25.1531 7.18872 25.3457 7.09522C25.5563 6.98696 25.7909 6.93306 26.0279 6.93846H28.6518V6.80781C28.6297 6.55259 28.6653 6.29568 28.7561 6.05601C28.847 5.81633 28.9907 5.60001 29.1767 5.42302C29.6069 5.09272 30.1434 4.93013 30.6854 4.96576C31.2312 4.93286 31.7709 5.09501 32.2073 5.42302C32.3957 5.5988 32.5418 5.81456 32.6349 6.05429C32.7281 6.29403 32.7658 6.55158 32.7452 6.80781V6.93846H35.3692C35.5967 6.93177 35.8225 6.97925 36.0279 7.07696C36.2333 7.17466 36.4122 7.31976 36.55 7.5002C36.6676 7.66909 36.7604 7.85387 36.8255 8.04891C36.8757 8.2365 36.9021 8.42961 36.9042 8.62374C36.9023 8.81989 36.8668 9.01429 36.7992 9.19856C36.7322 9.3872 36.6347 9.5637 36.5106 9.72112C36.3816 9.88239 36.2209 10.0157 36.0383 10.113C35.8287 10.2096 35.6002 10.2587 35.3692 10.2567H32.6403ZM28.9143 24.6273C28.4232 24.64 27.9328 24.5828 27.458 24.4574C27.1114 24.375 26.7967 24.1934 26.5527 23.9349C26.3138 23.6689 26.1507 23.3441 26.0804 22.9942C25.9781 22.531 25.9297 22.0576 25.9361 21.5833V20.0287C25.9093 19.7409 25.9539 19.4511 26.066 19.1846C26.1781 18.918 26.3542 18.683 26.5789 18.5002C27.0266 18.1947 27.5583 18.035 28.1008 18.0429C28.6363 18.0278 29.1618 18.1885 29.5965 18.5002C29.8106 18.6898 29.9768 18.9271 30.0817 19.1926C30.1866 19.4582 30.2271 19.7446 30.2 20.0287V20.8648C30.2 21.0999 30.2 21.2567 30.3049 21.309C30.4477 21.377 30.6067 21.4042 30.7641 21.3873H42.1652C42.407 21.3701 42.6497 21.4056 42.8763 21.4913C43.1029 21.5771 43.3079 21.711 43.4772 21.8838C43.7359 22.2041 43.877 22.6028 43.877 23.0138C43.877 23.4249 43.7359 23.8236 43.4772 24.1439C43.3068 24.3143 43.1012 24.4458 42.8746 24.5293C42.6481 24.6128 42.406 24.6462 42.1652 24.6273H28.9143ZM39.2001 13.366H38.0062C37.7625 13.3926 37.5159 13.3602 37.2875 13.2714C37.0591 13.1827 36.8556 13.0404 36.6943 12.8565C36.5163 12.6054 36.3988 12.3169 36.3511 12.0133C36.3033 11.7097 36.3264 11.3992 36.4188 11.1059C36.4738 10.9134 36.5627 10.732 36.6812 10.5703C36.8215 10.4023 37.002 10.272 37.206 10.1914C37.463 10.1015 37.7338 10.0573 38.0062 10.0608H39.2001V7.02991C39.1804 6.74604 39.2271 6.46147 39.3363 6.19854C39.4456 5.93561 39.6145 5.70148 39.8299 5.51447C40.139 5.26831 40.5058 5.1044 40.8959 5.03813C41.2861 4.97186 41.6867 5.00539 42.0602 5.1356C42.3054 5.2245 42.5322 5.35736 42.7294 5.52755C42.9293 5.70124 43.0902 5.91487 43.2017 6.1546C43.3281 6.42895 43.3908 6.72812 43.3854 7.02991V19.7805H39.2001V13.366Z" fill="white"/>
<path d="M47.754 15.6116C47.2724 15.6225 46.7915 15.5697 46.3239 15.4548C45.9833 15.3745 45.6734 15.1975 45.4317 14.9454C45.1996 14.6766 45.0414 14.3525 44.9725 14.0047C44.8866 13.5483 44.8471 13.0843 44.8545 12.62V7.39432C44.8279 7.11536 44.8675 6.83409 44.97 6.57315C45.0726 6.3122 45.2352 6.07887 45.4449 5.89195C45.8501 5.55998 46.3637 5.38795 46.8881 5.40859C47.1404 5.39379 47.3932 5.42885 47.6319 5.51181C47.8706 5.59477 48.0904 5.72399 48.2787 5.89195C48.4682 6.09099 48.613 6.32787 48.7035 6.5869C48.794 6.84593 48.8281 7.12116 48.8035 7.39432V7.49881H52.5951V7.39432C52.5686 7.11796 52.6031 6.83916 52.696 6.57741C52.7889 6.31566 52.938 6.07727 53.133 5.87888C53.5296 5.55111 54.0352 5.38332 54.55 5.40859C55.0747 5.38546 55.5892 5.55778 55.9932 5.89195C56.1917 6.08559 56.3443 6.321 56.4396 6.58096C56.535 6.84092 56.5707 7.11883 56.5442 7.39432V15.5986L47.754 15.6116ZM61.5166 16.9181C61.7412 16.911 61.9635 16.9652 62.1594 17.0748C62.3263 17.1676 62.4733 17.2918 62.5924 17.4406C62.6973 17.5971 62.777 17.769 62.8286 17.9501C62.8777 18.1245 62.9042 18.3046 62.9073 18.4857C62.9059 18.6627 62.8794 18.8386 62.8286 19.0083C62.7795 19.1862 62.6996 19.3542 62.5924 19.5047C62.4728 19.6495 62.3257 19.7694 62.1594 19.8575C61.9597 19.9545 61.7385 19.9995 61.5166 19.9881H50.4566C50.0893 19.9881 49.9056 20.158 49.9056 20.4715V21.0985C49.9056 21.4251 50.0893 21.5819 50.4566 21.5819H61.9626C62.1813 21.5768 62.3978 21.6262 62.5924 21.7256C62.7618 21.8146 62.9096 21.9395 63.0253 22.0914C63.1392 22.2397 63.2238 22.4082 63.2746 22.5879C63.3618 22.9308 63.3618 23.29 63.2746 23.633C63.2282 23.8143 63.1432 23.9836 63.0253 24.1294C62.9169 24.2913 62.7676 24.422 62.5924 24.5083C62.4 24.6136 62.1819 24.6633 61.9626 24.652H48.5674C47.7646 24.733 46.9624 24.4934 46.337 23.9857C45.8535 23.3858 45.623 22.6223 45.6941 21.8563V19.7268C45.6216 19.3375 45.6462 18.9364 45.7658 18.5588C45.8854 18.1811 46.0964 17.8385 46.3802 17.5611C46.6639 17.2837 47.0118 17.08 47.3932 16.9679C47.7746 16.8557 48.1778 16.8386 48.5674 16.9181H61.5166ZM52.5951 12.5938V10.399H48.8429V12.0712C48.8429 12.3064 48.8429 12.4501 48.9478 12.5154C49.0906 12.5835 49.2496 12.6107 49.407 12.5938H52.5951ZM58.604 7.09383C58.5854 6.80741 58.6311 6.52048 58.7378 6.25384C58.8445 5.9872 59.0094 5.74755 59.2206 5.55227C59.6248 5.20531 60.1434 5.01922 60.6769 5.02972C61.2115 5.02649 61.7291 5.21685 62.1332 5.56535C62.3473 5.75622 62.5152 5.9929 62.6242 6.25763C62.7333 6.52236 62.7807 6.80824 62.7629 7.09383V8.70073H63.4058C63.6823 8.69436 63.9563 8.75253 64.2061 8.87057C64.3993 8.97439 64.569 9.11666 64.7047 9.28859C64.8354 9.45921 64.9292 9.65492 64.9802 9.86341C65.1078 10.2896 65.1078 10.7436 64.9802 11.1698C64.9265 11.3814 64.833 11.5809 64.7047 11.7577C64.5728 11.9383 64.3967 12.0823 64.193 12.1758C63.9463 12.2878 63.6769 12.3414 63.4058 12.3325H62.7629V16.1342H58.604V7.09383Z" fill="white"/>
<path d="M82.1952 13.3653C82.4562 13.36 82.7153 13.4089 82.9562 13.509C83.154 13.5878 83.3297 13.7133 83.4679 13.8748C83.5938 14.0261 83.6916 14.1987 83.7565 14.3843C83.8092 14.5714 83.8358 14.7648 83.8352 14.9592C83.8376 15.3534 83.7032 15.7365 83.4547 16.0435C83.2929 16.2253 83.0885 16.3646 82.8596 16.4489C82.6307 16.5332 82.3845 16.56 82.1427 16.5268H65.8218C65.58 16.56 65.3338 16.5332 65.1049 16.4489C64.8761 16.3646 64.6716 16.2253 64.5098 16.0435C64.2613 15.7365 64.1269 15.3534 64.1293 14.9592C64.1332 14.7642 64.1641 14.5708 64.2212 14.3843C64.2759 14.1971 64.3698 14.0234 64.4967 13.8748C64.6433 13.7169 64.8222 13.5921 65.0214 13.509C65.258 13.41 65.5127 13.3611 65.7693 13.3653H82.1952ZM79.2433 5.20027C79.828 5.18928 80.41 5.28217 80.962 5.4746C81.4169 5.64665 81.832 5.90887 82.1821 6.24538C82.5024 6.56271 82.7487 6.94628 82.9037 7.36891C83.2186 8.27892 83.2186 9.26768 82.9037 10.1777C82.7487 10.6003 82.5024 10.9839 82.1821 11.3012C81.8346 11.6379 81.4185 11.8963 80.962 12.0589C80.4125 12.2622 79.8293 12.3597 79.2433 12.3463H68.7475C68.1614 12.361 67.5779 12.2634 67.0288 12.0589C66.5692 11.9026 66.1518 11.6433 65.8086 11.3012C65.4841 10.9873 65.2371 10.6027 65.0871 10.1777C64.7551 9.2706 64.7551 8.276 65.0871 7.36891C65.2371 6.94389 65.4841 6.55929 65.8086 6.24538C66.1544 5.90335 66.5707 5.64034 67.0288 5.4746C67.5804 5.28107 68.1627 5.18814 68.7475 5.20027H79.2433ZM68.0259 24.6135C67.5096 24.6259 66.9939 24.5732 66.4909 24.4567C66.1464 24.3766 65.8322 24.1997 65.5856 23.9472C65.3479 23.6736 65.1931 23.3383 65.1396 22.9805C65.052 22.4802 65.0125 21.9728 65.0214 21.465V20.7465C65.0135 20.2432 65.0531 19.7402 65.1396 19.2442C65.1931 18.8863 65.3479 18.551 65.5856 18.2774C65.8276 18.0164 66.1432 17.8343 66.4909 17.7548C66.9956 17.6501 67.5104 17.6019 68.0259 17.6112H79.978C80.4891 17.6011 80.9998 17.6493 81.4999 17.7548C81.8514 17.8341 82.1712 18.0161 82.4183 18.2774C82.656 18.551 82.8107 18.8863 82.8643 19.2442C82.9391 19.7414 82.9742 20.2438 82.9693 20.7465V24.6658L68.0259 24.6135ZM77.9838 9.49833C78.1099 9.51345 78.2379 9.5027 78.3597 9.46675C78.4816 9.43081 78.5947 9.37042 78.6922 9.2893C78.8175 9.14442 78.8831 8.95776 78.8759 8.76674C78.8786 8.58038 78.8133 8.3994 78.6922 8.25726C78.5958 8.17384 78.4831 8.11108 78.3612 8.07287C78.2393 8.03466 78.1108 8.02181 77.9838 8.03516H70.1119C69.9828 8.02076 69.852 8.03306 69.7279 8.07128C69.6037 8.10949 69.4888 8.17281 69.3903 8.25726C69.2741 8.40212 69.2094 8.58133 69.2066 8.76674C69.2054 8.95682 69.2704 9.14146 69.3903 9.2893C69.4899 9.37145 69.6052 9.43239 69.7293 9.46835C69.8535 9.5043 69.9837 9.5145 70.1119 9.49833H77.9838ZM69.2198 21.256C69.2081 21.4113 69.2447 21.5664 69.3247 21.7002C69.3247 21.7916 69.5216 21.8308 69.7315 21.8308H78.7972V20.9556C78.807 20.8046 78.7704 20.6542 78.6922 20.5244C78.635 20.4751 78.5682 20.4381 78.496 20.4156C78.4237 20.3931 78.3476 20.3857 78.2724 20.3938H69.7315C69.6582 20.3842 69.5837 20.3909 69.5133 20.4135C69.443 20.4361 69.3785 20.474 69.3247 20.5244C69.2466 20.6542 69.21 20.8046 69.2198 20.9556V21.256Z" fill="white"/>
</g>
<defs>
<radialGradient id="paint0_diamond_382_79155" cx="0" cy="0" r="1" gradientUnits="userSpaceOnUse" gradientTransform="translate(44.1078 14.6498) rotate(-179.544) scale(43.7716 308.302)">
<stop stop-color="#ABE174"/>
<stop offset="1" stop-color="#00CF6C"/>
</radialGradient>
<clipPath id="clip0_382_79155">
<rect width="87.3513" height="27.9441" fill="white" transform="translate(0.419067 0.693359)"/>
</clipPath>
</defs>
</svg>
