<svg width="302" height="299" viewBox="0 0 302 299" fill="none" xmlns="http://www.w3.org/2000/svg">
<path fill-rule="evenodd" clip-rule="evenodd" d="M182.288 328.336C262.943 328.336 329.388 267.491 338.225 189.197L318.12 187.084L309.506 206.431L305.103 185.716L284.041 183.502L302.382 172.913L299.329 158.55L283.36 167.77C283.403 168.975 283.424 170.185 283.424 171.401C283.424 227.257 238.144 272.537 182.288 272.537C178.024 272.537 173.822 272.273 169.696 271.761L181.497 282.386L199.838 271.797L191.224 291.144L206.962 305.315L185.9 303.101L177.286 322.448L172.883 301.733L151.821 299.52L170.162 288.931L166.414 271.298C158.521 270.054 150.931 267.897 143.757 264.938L135.408 283.69L151.146 297.86L130.084 295.647L121.47 314.994L117.067 294.279L96.0053 292.065L114.346 281.476L111.293 267.113L76.418 287.248C104.327 312.768 141.49 328.336 182.288 328.336ZM313.717 166.369L302.804 156.544L335.579 137.621C337.965 148.501 339.223 159.804 339.223 171.401C339.223 177.181 338.911 182.887 338.302 188.505L323.443 175.127L332.057 155.78L313.717 166.369ZM245.885 92.7588L296.357 63.6187C267.748 33.3513 227.224 14.4654 182.288 14.4654C95.6149 14.4654 25.3526 84.7277 25.3526 171.401C25.3526 187.01 27.6316 202.087 31.8749 216.318L82.3731 187.163C82.2799 186.567 82.1918 185.969 82.109 185.37L61.9655 183.253L53.3517 202.6L48.9485 181.884L27.8866 179.671L46.2272 169.082L41.8241 148.367L57.5624 162.537L75.903 151.948L67.2892 171.295L81.9978 184.539C81.4399 180.239 81.1522 175.853 81.1522 171.401C81.1522 153.658 85.7213 136.982 93.747 122.486L79.1093 120.947L70.4954 140.294L66.0923 119.579L45.0303 117.365L63.371 106.776L58.9678 86.0611L74.7061 100.232L93.0468 89.643L84.4329 108.99L95.6915 119.127C113.408 89.8408 145.562 70.265 182.288 70.265C183.083 70.265 183.876 70.2742 184.667 70.2924L181.037 53.2154L159.975 51.0017L178.316 40.4127L173.913 19.6976L189.651 33.8684L207.992 23.2794L199.378 42.6264L215.116 56.7973L194.054 54.5836L187.024 70.3739C208.167 71.3484 227.616 78.8152 243.423 90.8268L239.405 71.9243L218.343 69.7106L236.683 59.1216L232.28 38.4065L248.019 52.5773L266.359 41.9883L257.745 61.3353L273.484 75.5062L252.422 73.2925L244.311 91.5096C244.84 91.9209 245.365 92.3373 245.885 92.7588ZM182.288 0.515625C232.408 0.515625 277.489 22.0931 308.747 56.4653L327.124 45.8555L368.974 118.341L348.206 130.331C351.451 143.487 353.173 157.243 353.173 171.401C353.173 265.778 276.665 342.286 182.288 342.286C136.28 342.286 94.5191 324.104 63.7977 294.534L42.7898 306.663L0.94043 234.178L19.4816 223.473C14.235 207.055 11.4028 189.559 11.4028 171.401C11.4028 77.0234 87.9107 0.515625 182.288 0.515625ZM114.769 265.106L128.595 257.123C133.259 260.05 138.177 262.607 143.311 264.753L125.681 274.932L114.769 265.106ZM276.449 171.76L135.503 253.135C149.286 261.042 165.259 265.562 182.288 265.562C234.172 265.562 276.255 223.599 276.449 171.76ZM88.8848 183.403L239.379 96.5151C223.541 84.4224 203.753 77.2399 182.288 77.2399C130.284 77.2399 88.1271 119.397 88.1271 171.401C88.1271 175.467 88.3848 179.473 88.8848 183.403ZM279.486 202.554L295.225 216.725L313.565 206.136L304.951 225.483L320.69 239.654L299.628 237.44L291.014 256.787L286.611 236.072L265.549 233.859L283.89 223.27L279.486 202.554ZM267.079 118.205L274.977 131.885L276.952 130.745C280.654 128.608 281.606 125.127 278.926 120.485C276.247 115.844 272.756 114.928 269.054 117.065L267.079 118.205ZM262.848 106.317C275.979 98.7357 286.684 102.001 292.749 112.505C298.813 123.009 296.288 133.913 283.157 141.494C275.259 146.054 268.066 149.555 268.066 149.555L248.32 115.356C248.32 115.356 254.95 110.877 262.848 106.317ZM214.274 135.013L220.762 146.25L230.141 140.834L243.399 163.797L256.233 156.387L242.976 133.424L252.355 128.009L245.868 116.772L214.274 135.013ZM191.552 148.131L204.387 140.721L217.645 163.683L230.973 155.988L237.461 167.225L211.298 182.331L191.552 148.131ZM172.514 158.472C164.615 163.032 157.986 167.51 157.986 167.51L177.731 201.71L190.566 194.3L184.219 183.307C184.219 183.307 186.829 182.126 188.803 180.986C197.195 176.141 199.311 168.405 195.221 161.321C191.131 154.237 183.374 152.201 172.514 158.472ZM179.001 174.269L175.898 168.894L177.873 167.754C179.601 166.757 181.54 167.266 182.386 168.731C183.232 170.197 182.704 172.131 180.976 173.129L179.001 174.269ZM149.46 192.627L154.537 215.101L144.171 221.086L127.246 205.452L138.247 224.506L125.412 231.917L105.667 197.717L123.932 187.172L140.328 202.46L135.286 180.616L153.551 170.071L173.296 204.271L160.461 211.681L149.46 192.627ZM109.546 242.054C99.1796 248.039 86.768 244.782 80.9855 234.766C75.203 224.751 78.5882 212.374 88.9549 206.388C98.3343 200.973 105.88 203.782 105.88 203.782L105.316 216.485C105.316 216.485 100.802 215.508 97.3467 217.503C93.8911 219.498 92.8332 223.366 94.8078 226.786C96.7823 230.206 100.661 231.224 104.116 229.229C107.572 227.234 108.983 222.837 108.983 222.837L120.266 228.699C120.266 228.699 118.926 236.639 109.546 242.054Z" fill="white" fill-opacity="0.15"/>
</svg>
