<svg width="300" height="48" viewBox="0 0 300 48" fill="none" xmlns="http://www.w3.org/2000/svg">
<path d="M93.522 22.1997C93.522 32.0397 101.202 39.7197 111.282 39.7197C120.402 39.7197 124.722 34.4397 124.722 34.4397L118.962 25.3197C118.962 25.3197 116.082 27.9597 112.722 27.9597C109.362 27.9597 106.962 25.5597 106.962 22.1997C106.962 18.8397 109.362 16.4397 112.722 16.4397C116.082 16.4397 118.962 19.0797 118.962 19.0797L124.722 9.95969C124.722 9.95969 120.402 4.67969 111.282 4.67969C101.202 4.67969 93.522 12.3597 93.522 22.1997Z" fill="#FF6A00"/>
<path d="M155.44 38.9997L161.2 20.2797V38.9997H173.68V5.39969H155.92L150.4 23.6397L144.88 5.39969H127.12V38.9997H139.6V20.2797L145.36 38.9997H155.44Z" fill="#FF6A00"/>
<path d="M192.393 4.91969C184.713 4.91969 177.993 5.39969 177.993 5.39969V38.9997H190.473V28.1997C190.473 28.1997 192.873 28.4397 194.793 28.4397C202.953 28.4397 207.753 23.6397 207.753 16.6797C207.753 9.71969 202.953 4.91969 192.393 4.91969ZM190.473 19.3197V14.0397H192.393C194.073 14.0397 195.273 15.2397 195.273 16.6797C195.273 18.1197 194.073 19.3197 192.393 19.3197H190.473Z" fill="#FF6A00"/>
<path d="M223.111 5.39969H210.631V38.9997H236.071V27.9597H223.111V5.39969Z" fill="#FF6A00"/>
<path d="M232.724 5.39969V16.4397H241.844V38.9997H254.324V16.4397H263.444V5.39969H232.724Z" fill="#FF6A00"/>
<path d="M278.309 28.9197V15.4797H280.229C283.829 15.4797 285.989 17.6397 285.989 22.1997C285.989 26.7597 283.829 28.9197 280.229 28.9197H278.309ZM299.429 22.1997C299.429 11.8797 292.997 4.91969 280.229 4.91969C272.549 4.91969 265.829 5.39969 265.829 5.39969V38.9997C265.829 38.9997 272.549 39.4797 280.229 39.4797C292.997 39.4797 299.429 32.5197 299.429 22.1997Z" fill="#FF6A00"/>
<g clip-path="url(#clip0_552_127703)">
<path d="M0.602073 23.9967C0.601255 27.1485 1.22135 30.2696 2.42694 33.1818C3.63253 36.0939 5.4 38.7401 7.6284 40.9691C9.8568 43.198 12.5025 44.9662 15.4143 46.1725C18.3262 47.3789 21.4471 47.9998 24.599 47.9998C24.9909 47.9998 25.3767 47.9998 25.7624 47.9687L4.04264 11.6094C1.78608 15.3468 0.596182 19.6309 0.602073 23.9967Z" fill="#EE244B"/>
<path d="M24.5987 2.1765e-05C20.2329 -0.00586879 15.9488 1.18403 12.2114 3.44059L48.5769 25.1604C48.5769 24.7746 48.5769 24.3889 48.5769 23.9969C48.5769 17.6358 46.0513 11.5349 41.555 7.03514C37.0588 2.53539 30.9599 0.0049695 24.5987 2.1765e-05Z" fill="#EE244B"/>
<path d="M7.63232 7.03125L31.4923 46.9929C35.3005 45.8545 38.7647 43.7846 41.5714 40.9703C44.3844 38.1626 46.4542 34.6988 47.594 30.8913L7.63232 7.03125Z" fill="#EE244B"/>
</g>
<g clip-path="url(#clip1_552_127703)">
<path d="M70.1042 23.5002L81.6825 35.0785M58.5259 35.0785L70.1042 23.5002L58.5259 35.0785ZM81.6825 11.9219L70.102 23.5002L81.6825 11.9219ZM70.102 23.5002L58.5259 11.9219L70.102 23.5002Z" stroke="#888888" stroke-width="3.3125" stroke-linecap="round" stroke-linejoin="round"/>
</g>
<defs>
<clipPath id="clip0_552_127703">
<rect width="48" height="48" fill="white" transform="translate(0.602051)"/>
</clipPath>
<clipPath id="clip1_552_127703">
<rect width="27" height="27" fill="white" transform="translate(56.6021 10)"/>
</clipPath>
</defs>
</svg>
