<svg width="178" height="40" viewBox="0 0 178 40" fill="none" xmlns="http://www.w3.org/2000/svg">
<rect x="0.602051" width="177" height="40" rx="20" fill="#FF6A00" fill-opacity="0.05"/>
<path d="M20.102 24.5L19.1214 24.3039C19.0558 24.6317 19.1585 24.9707 19.3949 25.2071C19.6313 25.4435 19.9702 25.5462 20.2981 25.4806L20.102 24.5ZM28.1521 13.6213L27.445 12.9142L27.445 12.9142L28.1521 13.6213ZM24.0657 23.3647L23.3586 22.6576L24.0657 23.3647ZM20.2981 25.4806L23.2398 24.8922L22.8476 22.9311L19.9059 23.5194L20.2981 25.4806ZM33.1019 12.9142L31.6877 11.5L30.2734 12.9142L31.6877 14.3284L33.1019 12.9142ZM19.7098 21.3621L19.1214 24.3039L21.0826 24.6961L21.6709 21.7544L19.7098 21.3621ZM24.7728 24.0718L31.6877 17.1568L30.2734 15.7426L23.3586 22.6576L24.7728 24.0718ZM31.6877 17.1569L33.1019 15.7426L31.6877 14.3284L30.2734 15.7426L31.6877 17.1569ZM28.8592 11.5L27.445 12.9142L28.8592 14.3284L30.2734 12.9142L28.8592 11.5ZM27.445 12.9142L20.5302 19.8292L21.9444 21.2434L28.8592 14.3284L27.445 12.9142ZM31.6877 15.7426L28.8592 12.9142L27.445 14.3284L30.2734 17.1569L31.6877 15.7426ZM21.6709 21.7544C21.7096 21.5608 21.8048 21.383 21.9444 21.2434L20.5302 19.8292C20.1114 20.248 19.8259 20.7814 19.7098 21.3621L21.6709 21.7544ZM31.6877 11.5C30.9066 10.719 29.6403 10.719 28.8592 11.5L30.2734 12.9142L31.6877 11.5ZM31.6877 14.3284L31.6877 14.3284L33.1019 15.7426C33.8829 14.9616 33.8829 13.6953 33.1019 12.9142L31.6877 14.3284ZM23.2398 24.8922C23.8206 24.7761 24.354 24.4906 24.7728 24.0718L23.3586 22.6576C23.219 22.7972 23.0412 22.8924 22.8476 22.9311L23.2398 24.8922Z" fill="#FF6A00"/>
<path d="M17.6021 28H31.6021" stroke="#FF6A00" stroke-width="2" stroke-linecap="round" stroke-linejoin="round"/>
<path d="M55.8696 25.1191H41.4556V26.5254H55.8696V25.1191ZM42.686 15.627H45.0767V20.8828H42.7212V22.2188H54.4985V20.8828H52.1431V15.627H54.5513V14.2559H42.686V15.627ZM46.729 20.8828V15.627H50.5083V20.8828H46.729ZM71.4263 25.207H65.0103V22.4473H70.0376V21.0762H60.4224V18.7734H69.6685V13.8516H58.7349V15.2227H68.0161V17.4375H58.77V22.4473H63.3579V25.207H57.0122V26.6133H71.4263V25.207ZM82.9048 13.0781H81.3228V16.752H79.1255V18.1055H81.3228V22.2363H82.9048V13.0781ZM72.5337 20.7422L73.4302 22.0605C74.9507 21.4189 75.9966 20.1973 76.5591 18.7471C77.104 20.0391 78.0972 21.1201 79.5298 21.709L80.3735 20.4258C78.3784 19.6084 77.3325 17.8154 77.3325 16.1191V15.3457H79.9692V13.9922H72.9204V15.3457H75.7153V16.1191C75.7241 17.9473 74.6255 19.9072 72.5337 20.7422ZM75.2935 24.3633H84.3462V28.4941H85.9985V23.0098H75.2935V24.3633ZM84.4165 22.3594H85.9985V12.7441H84.4165V22.3594ZM100.905 21.1289H91.6235V18.8438H100.413V17.5254H91.6235V15.3984H100.747V14.0449H89.936V22.4648H100.905V21.1289ZM88.1255 26.5078H102.54V25.1367H88.1255V26.5078ZM118.043 22.2363H103.682V23.6074H110.028V28.5117H111.68V23.6074H118.043V22.2363ZM104.526 19.8105L105.141 21.1465C107.681 20.7949 109.843 19.626 110.863 18C111.882 19.6084 114.036 20.7949 116.567 21.1465L117.165 19.8105C114.167 19.4326 111.786 17.7451 111.698 15.9961H116.672V14.6426H111.68V12.7441H110.028V14.6426H105.036V15.9961H110.028C109.922 17.7627 107.514 19.4326 104.526 19.8105ZM131.508 12.7441H129.838V28.4766H131.508V20.4082H133.952V19.0195H131.508V12.7441ZM119.256 24.2754L120.188 25.5762C125.374 23.0186 127.377 18.9492 127.395 14.3965H120.047V15.7852H125.69C125.347 19.459 123.203 22.3066 119.256 24.2754ZM147.065 12.7441H145.413V28.4941H147.065V20.5137H149.596V19.125H147.065V12.7441ZM134.708 16.5762H144.042V15.2051H140.262V12.9551H138.592V15.2051H134.708V16.5762ZM135.516 21.3926C135.516 23.5547 137.168 25.0576 139.436 25.0664C141.695 25.0576 143.347 23.5547 143.356 21.3926C143.347 19.248 141.695 17.7363 139.436 17.7363C137.168 17.7363 135.516 19.248 135.516 21.3926ZM137.116 21.3926C137.107 20.0479 138.091 19.1162 139.436 19.1074C140.772 19.1162 141.748 20.0479 141.756 21.3926C141.748 22.7637 140.772 23.6777 139.436 23.6602C138.091 23.6777 137.107 22.7637 137.116 21.3926ZM163.448 12.7441H161.76V28.4941H163.448V12.7441ZM150.51 24.2754L151.389 25.6289C156.794 23.0361 158.754 19.0459 158.754 14.4316H151.266V15.7676H157.067C156.742 19.4414 154.694 22.2803 150.51 24.2754Z" fill="#FF6A00"/>
</svg>
